# Blender v3.2.0 OBJ File: 'brush-large.blend'
# www.blender.org
mtllib Bush Small.mtl
o Plane.013_Plane.014
v 0.712500 -0.000000 0.000000
v 0.712500 1.012500 -0.000000
v -0.712500 0.000000 0.000000
v -0.712500 1.012500 -0.000000
v 0.000000 -0.000000 0.000000
v 0.000000 0.000000 0.712500
v 0.000000 1.012500 0.712500
v -0.000000 -0.000000 -0.712500
v 0.000000 1.012500 -0.712500
v 0.000000 1.012500 0.000000
vt 0.500000 0.000087
vt 0.500000 0.749957
vt 0.000087 0.749957
vt 0.000087 0.000087
vt 0.999913 0.000087
vt 0.999913 0.749957
vt 0.000087 0.749957
vt 0.000087 0.000087
vt 0.999913 0.000087
vt 0.999913 0.749957
vn -0.0000 0.0000 1.0000
vn -1.0000 0.0000 0.0000
usemtl Material.028
s off
f 5/1/1 10/2/1 4/3/1 3/4/1
f 1/5/1 2/6/1 10/2/1 5/1/1
usemtl Material.027
f 5/1/2 10/2/2 9/7/2 8/8/2
f 6/9/2 7/10/2 10/2/2 5/1/2
