# Blender v3.2.0 OBJ File: 'brush-large.blend'
# www.blender.org
mtllib Bush Large.mtl
o Plane
v 0.559944 0.000000 0.625789
v 0.559945 1.350000 0.625789
v 0.537528 -0.000000 -1.270364
v 0.537528 1.350000 -1.270364
v 0.380519 0.000000 -0.322288
v -0.588519 0.000118 -0.156669
v -0.613211 1.349882 -0.151340
v 1.243957 -0.000000 -0.627611
v 1.243957 1.350000 -0.627611
v 0.380519 1.350000 -0.322288
vt 0.500000 0.000087
vt 0.500000 0.749957
vt 0.000087 0.749957
vt 0.000087 0.000087
vt 0.999913 0.000087
vt 0.999913 0.749957
vt 0.000087 0.749957
vt 0.000087 0.000087
vt 0.999913 0.000087
vt 0.999913 0.749957
vn -0.9866 0.0000 -0.1634
vn -0.9826 0.0000 0.1860
vn -0.3334 0.0000 -0.9428
vn -0.1690 0.0004 -0.9856
usemtl Material.001
s off
f 5/1/1 10/2/1 4/3/1 3/4/1
f 1/5/2 2/6/2 10/2/2 5/1/2
usemtl Material.002
f 5/1/3 10/2/3 9/7/3 8/8/3
f 6/9/4 7/10/4 10/2/4 5/1/4
o Plane.001_Plane.002
v -0.314028 0.000000 -1.492880
v -0.314028 0.750000 -1.492880
v 0.537469 -0.000000 -0.968520
v 0.537469 0.750000 -0.968520
v 0.111721 0.000000 -1.230700
v 0.373901 -0.000000 -1.656449
v 0.373901 0.750000 -1.656449
v -0.150459 0.000000 -0.804952
v -0.150459 0.750000 -0.804952
v 0.111721 0.750000 -1.230700
vt 0.500000 0.000087
vt 0.500000 0.749957
vt 0.000087 0.749957
vt 0.000087 0.000087
vt 0.999913 0.000087
vt 0.999913 0.749957
vt 0.000087 0.749957
vt 0.000087 0.000087
vt 0.999913 0.000087
vt 0.999913 0.749957
vn 0.5244 -0.0000 -0.8515
vn 0.8515 -0.0000 0.5244
usemtl Material.003
s off
f 15/11/5 20/12/5 14/13/5 13/14/5
f 11/15/5 12/16/5 20/12/5 15/11/5
usemtl Material.004
f 15/11/6 20/12/6 19/17/6 18/18/6
f 16/19/6 17/20/6 20/12/6 15/11/6
o Plane.002_Plane.003
v 0.783836 0.000000 -0.614024
v 0.783836 0.750000 -0.614024
v 0.475139 -0.000000 0.337136
v 0.475139 0.750000 0.337136
v 0.629488 -0.000000 -0.138444
v 1.105068 -0.000000 0.015904
v 1.105068 0.750000 0.015904
v 0.153907 0.000000 -0.292792
v 0.153907 0.750000 -0.292792
v 0.629488 0.750000 -0.138444
vt 0.500000 0.000087
vt 0.500000 0.749957
vt 0.000087 0.749957
vt 0.000087 0.000087
vt 0.999913 0.000087
vt 0.999913 0.749957
vt 0.000087 0.749957
vt 0.000087 0.000087
vt 0.999913 0.000087
vt 0.999913 0.749957
vn 0.9512 0.0000 0.3087
vn -0.3087 0.0000 0.9512
usemtl Material.005
s off
f 25/21/7 30/22/7 24/23/7 23/24/7
f 21/25/7 22/26/7 30/22/7 25/21/7
usemtl Material.006
f 25/21/8 30/22/8 29/27/8 28/28/8
f 26/29/8 27/30/8 30/22/8 25/21/8
o Plane.003_Plane.004
v 0.378340 0.000000 -1.377703
v 0.378340 1.650000 -1.377703
v -0.932737 -0.000000 0.478962
v -0.932737 1.650000 0.478962
v -0.502861 -0.000000 -0.549922
v 0.424221 -0.000000 0.042124
v 0.424221 1.650000 0.042124
v -1.157063 0.000000 -1.286297
v -1.157063 1.650000 -1.286297
v -0.502861 1.650000 -0.549922
vt 0.500000 0.000087
vt 0.500000 0.749957
vt 0.000087 0.749957
vt 0.000087 0.000087
vt 0.999913 0.000087
vt 0.999913 0.749957
vt 0.000087 0.749957
vt 0.000087 0.000087
vt 0.999913 0.000087
vt 0.999913 0.749957
vn 0.9227 -0.0000 0.3855
vn 0.6847 -0.0000 0.7289
vn -0.7476 0.0000 0.6642
vn -0.5382 0.0000 0.8428
usemtl Material.007
s off
f 35/31/9 40/32/9 34/33/9 33/34/9
f 31/35/10 32/36/10 40/32/10 35/31/10
usemtl Material.008
f 35/31/11 40/32/11 39/37/11 38/38/11
f 36/39/12 37/40/12 40/32/12 35/31/12
o Plane.004_Plane.005
v -0.621381 0.000000 1.026843
v -0.621381 1.425000 1.026843
v 0.489783 -0.000000 -0.383072
v 0.489784 1.425000 -0.383072
v -0.161541 0.000000 0.254153
v -0.840375 0.000000 -0.408234
v -0.840375 1.425000 -0.408234
v 0.576198 -0.000000 0.868766
v 0.576198 1.425000 0.868766
v -0.161541 1.425000 0.254153
vt 0.500000 0.000087
vt 0.500000 0.749957
vt 0.000087 0.749957
vt 0.000087 0.000087
vt 0.999913 0.000087
vt 0.999913 0.749957
vt 0.000087 0.749957
vt 0.000087 0.000087
vt 0.999913 0.000087
vt 0.999913 0.749957
vn -0.6993 0.0000 -0.7148
vn -0.8593 0.0000 -0.5114
vn 0.6401 -0.0000 -0.7683
vn 0.6984 -0.0000 -0.7157
usemtl Material.009
s off
f 45/41/13 50/42/13 44/43/13 43/44/13
f 41/45/14 42/46/14 50/42/14 45/41/14
usemtl Material.010
f 45/41/15 50/42/15 49/47/15 48/48/15
f 46/49/16 47/50/16 50/42/16 45/41/16
o Plane.005_Plane.006
v 0.958416 -0.000000 1.290871
v 0.958417 1.350000 1.290871
v -0.536754 0.000000 0.591113
v -0.536754 1.350000 0.591113
v 0.272500 -0.000000 0.821351
v -0.121337 0.000000 1.630605
v -0.121337 1.350000 1.630605
v 0.519317 -0.000000 0.012097
v 0.519317 1.350000 0.012097
v 0.272500 1.350000 0.821351
vt 0.500000 0.000087
vt 0.500000 0.749957
vt 0.000087 0.749957
vt 0.000087 0.000087
vt 0.999913 0.000087
vt 0.999913 0.749957
vt 0.000087 0.749957
vt 0.000087 0.000087
vt 0.999913 0.000087
vt 0.999913 0.749957
vn -0.2736 0.0000 0.9618
vn -0.5649 0.0000 0.8252
vn -0.9565 0.0000 -0.2917
vn -0.8992 0.0000 -0.4376
usemtl Material.011
s off
f 55/51/17 60/52/17 54/53/17 53/54/17
f 51/55/18 52/56/18 60/52/18 55/51/18
usemtl Material.012
f 55/51/19 60/52/19 59/57/19 58/58/19
f 56/59/20 57/60/20 60/52/20 55/51/20
o Plane.006_Plane.007
v 0.740937 -0.000000 0.590310
v 0.740937 1.500000 0.590310
v -1.253991 0.000000 0.750792
v -1.253991 1.500000 0.750792
v -0.256527 -0.000000 0.897806
v -0.109835 -0.000000 1.874553
v -0.109835 1.500000 1.874553
v -0.327701 0.000000 -0.099658
v -0.327701 1.500000 -0.099658
v -0.256527 1.500000 0.897806
vt 0.500000 0.000087
vt 0.500000 0.749957
vt 0.000087 0.749957
vt 0.000087 0.000087
vt 0.999913 0.000087
vt 0.999913 0.749957
vt 0.000087 0.749957
vt 0.000087 0.000087
vt 0.999913 0.000087
vt 0.999913 0.749957
vn -0.1458 0.0000 0.9893
vn 0.2946 0.0000 0.9556
vn -0.9975 0.0000 0.0712
vn -0.9889 0.0000 0.1485
usemtl Material.013
s off
f 65/61/21 70/62/21 64/63/21 63/64/21
f 61/65/22 62/66/22 70/62/22 65/61/22
usemtl Material.014
f 65/61/23 70/62/23 69/67/23 68/68/23
f 66/69/24 67/70/24 70/62/24 65/61/24
o Plane.007_Plane.008
v -0.105445 0.000000 -0.821110
v -0.105444 0.975000 -0.821110
v -0.588802 -0.000000 -1.682781
v -0.588801 0.975000 -1.682781
v -0.255731 0.000000 -1.379290
v -0.813910 0.000000 -1.002849
v -0.813910 0.975000 -1.002849
v 0.302448 -0.000000 -1.506067
v 0.302448 0.975000 -1.506067
v -0.255731 0.975000 -1.379290
vt 0.500000 0.000087
vt 0.500000 0.749957
vt 0.000087 0.749957
vt 0.000087 0.000087
vt 0.999913 0.000087
vt 0.999913 0.749957
vt 0.000087 0.749957
vt 0.000087 0.000087
vt 0.999913 0.000087
vt 0.999913 0.749957
vn -0.6735 0.0000 0.7392
vn -0.9656 0.0000 0.2600
vn -0.2215 0.0000 -0.9752
vn -0.5591 0.0000 -0.8291
usemtl Material.015
s off
f 75/71/25 80/72/25 74/73/25 73/74/25
f 71/75/26 72/76/26 80/72/26 75/71/26
usemtl Material.016
f 75/71/27 80/72/27 79/77/27 78/78/27
f 76/79/28 77/80/28 80/72/28 75/71/28
o Plane.008_Plane.009
v 0.422439 0.000000 1.962079
v 0.422440 0.900000 1.962079
v 0.083029 -0.000000 0.924593
v 0.083029 0.900000 0.924593
v 0.118249 0.000000 1.482074
v -0.468407 0.000000 1.481862
v -0.468407 0.900000 1.481862
v 0.594727 -0.000000 1.128047
v 0.594727 0.900000 1.128047
v 0.118249 0.900000 1.482074
vt 0.500000 0.000087
vt 0.500000 0.749957
vt 0.000087 0.749957
vt 0.000087 0.000087
vt 0.999913 0.000087
vt 0.999913 0.749957
vt 0.000087 0.749957
vt 0.000087 0.000087
vt 0.999913 0.000087
vt 0.999913 0.749957
vn -0.9980 0.0000 0.0631
vn -0.8447 0.0000 0.5353
vn -0.5964 0.0000 -0.8027
vn 0.0004 -0.0000 -1.0000
usemtl Material.017
s off
f 85/81/29 90/82/29 84/83/29 83/84/29
f 81/85/30 82/86/30 90/82/30 85/81/30
usemtl Material.018
f 85/81/31 90/82/31 89/87/31 88/88/31
f 86/89/32 87/90/32 90/82/32 85/81/32
o Plane.009_Plane.010
v -0.107449 -0.000000 -0.213795
v -0.107449 1.050000 -0.213795
v -1.042641 0.000000 0.749643
v -1.042641 1.050000 0.749643
v -0.672155 -0.000000 0.199855
v -0.258505 -0.000000 0.764562
v -0.258505 1.050000 0.764562
v -0.904108 0.000000 -0.380252
v -0.904108 1.050000 -0.380252
v -0.672155 1.050000 0.199855
vt 0.500000 0.000087
vt 0.500000 0.749957
vt 0.000087 0.749957
vt 0.000087 0.000087
vt 0.999913 0.000087
vt 0.999913 0.749957
vt 0.000087 0.749957
vt 0.000087 0.000087
vt 0.999913 0.000087
vt 0.999913 0.749957
vn 0.8293 0.0000 0.5588
vn 0.5909 0.0000 0.8067
vn -0.9285 0.0000 0.3713
vn -0.8067 0.0000 0.5909
usemtl Material.019
s off
f 95/91/33 100/92/33 94/93/33 93/94/33
f 91/95/34 92/96/34 100/92/34 95/91/34
usemtl Material.020
f 95/91/35 100/92/35 99/97/35 98/98/35
f 96/99/36 97/100/36 100/92/36 95/91/36
o Plane.010_Plane.011
v 0.021402 -0.000000 -0.955694
v 0.021402 1.050000 -0.955694
v -1.322527 0.000000 -0.563450
v -1.322527 1.050000 -0.563450
v -0.650562 -0.000000 -0.759572
v -0.454440 -0.000000 -0.087607
v -0.454440 1.050000 -0.087607
v -0.846684 0.000000 -1.431536
v -0.846684 1.050000 -1.431536
v -0.650562 1.050000 -0.759572
vt 0.500000 0.000087
vt 0.500000 0.749957
vt 0.000087 0.749957
vt 0.000087 0.000087
vt 0.999913 0.000087
vt 0.999913 0.749957
vt 0.000087 0.749957
vt 0.000087 0.000087
vt 0.999913 0.000087
vt 0.999913 0.749957
vn 0.2802 0.0000 0.9599
vn -0.9599 0.0000 0.2802
usemtl Material.021
s off
f 105/101/37 110/102/37 104/103/37 103/104/37
f 101/105/37 102/106/37 110/102/37 105/101/37
usemtl Material.022
f 105/101/38 110/102/38 109/107/38 108/108/38
f 106/109/38 107/110/38 110/102/38 105/101/38
o Plane.011_Plane.012
v 0.217231 0.000000 -1.351713
v 0.217231 1.050000 -1.351713
v 0.814283 -0.000000 -0.085408
v 0.814283 1.050000 -0.085408
v 0.515757 -0.000000 -0.718560
v 1.148910 -0.000000 -1.017087
v 1.148910 1.050000 -1.017087
v -0.117395 0.000000 -0.420034
v -0.117395 1.050000 -0.420034
v 0.515757 1.050000 -0.718560
vt 0.500000 0.000087
vt 0.500000 0.749957
vt 0.000087 0.749957
vt 0.000087 0.000087
vt 0.999913 0.000087
vt 0.999913 0.749957
vt 0.000087 0.749957
vt 0.000087 0.000087
vt 0.999913 0.000087
vt 0.999913 0.749957
vn 0.9045 -0.0000 -0.4265
vn 0.4265 -0.0000 0.9045
usemtl Material.023
s off
f 115/111/39 120/112/39 114/113/39 113/114/39
f 111/115/39 112/116/39 120/112/39 115/111/39
usemtl Material.024
f 115/111/40 120/112/40 119/117/40 118/118/40
f 116/119/40 117/120/40 120/112/40 115/111/40
o Plane.012_Plane.013
v -0.206098 0.000000 -1.138052
v -0.206098 0.750000 -1.138052
v 0.207084 -0.000000 -0.355865
v 0.207084 0.750000 -0.355865
v -0.087274 -0.000000 -0.707122
v 0.364978 -0.000000 -0.920355
v 0.364978 0.750000 -0.920355
v -0.416727 0.000000 -0.408407
v -0.416727 0.750000 -0.408407
v -0.087274 0.750000 -0.707122
vt 0.500000 0.000087
vt 0.500000 0.749957
vt 0.000087 0.749957
vt 0.000087 0.000087
vt 0.999913 0.000087
vt 0.999913 0.749957
vt 0.000087 0.749957
vt 0.000087 0.000087
vt 0.999913 0.000087
vt 0.999913 0.749957
vn 0.7665 0.0000 -0.6423
vn 0.9640 -0.0000 -0.2658
vn 0.6717 -0.0000 0.7408
vn 0.4265 -0.0000 0.9045
usemtl Material.025
s off
f 125/121/41 130/122/41 124/123/41 123/124/41
f 121/125/42 122/126/42 130/122/42 125/121/42
usemtl Material.026
f 125/121/43 130/122/43 129/127/43 128/128/43
f 126/129/44 127/130/44 130/122/44 125/121/44
