# Blender v3.2.0 OBJ File: 'fern.blend'
# www.blender.org
mtllib Fern Small.mtl
o Plane.020_Plane.052
v 0.068320 0.041989 -0.128648
v -0.622997 0.451654 -0.365891
v -0.031230 0.049876 0.139707
v -0.702181 0.457927 -0.152436
v -0.077455 0.386094 -0.286893
v -0.238299 0.398837 0.146690
v -0.120318 0.278256 0.212828
v 0.052796 0.264541 -0.253830
v -0.254033 0.488219 -0.324657
v -0.394843 0.499375 0.054920
v -0.000603 0.000135 -0.000228
v -0.680029 0.413078 -0.264407
v -0.187855 0.320765 -0.079115
v -0.052909 0.225600 -0.026258
v -0.354416 0.422097 -0.143881
v -0.114027 0.049101 0.109373
v 0.554691 0.322822 0.531440
v 0.046559 0.042655 -0.121680
v 0.682424 0.317694 0.347656
v 0.032743 0.371335 0.307937
v 0.285306 0.377853 -0.060387
v 0.178090 0.286560 -0.153485
v -0.094266 0.280836 0.243315
v 0.198887 0.399751 0.388119
v 0.419133 0.407567 0.066295
v -0.026658 -0.010711 0.000343
v 0.621715 0.295007 0.442447
v 0.169549 0.309538 0.127776
v 0.052436 0.218642 0.048917
v 0.315168 0.373525 0.227200
v 0.066885 0.030728 0.063326
v 0.347060 0.313786 -0.569587
v -0.113890 0.058547 -0.010547
v 0.222302 0.332984 -0.620568
v 0.238900 0.349022 -0.075601
v -0.053179 0.393969 -0.194957
v -0.124172 0.299325 -0.089328
v 0.190188 0.250949 0.039133
v 0.288998 0.389203 -0.236067
v 0.033299 0.428551 -0.340556
v -0.025832 -0.010682 0.011259
v 0.274312 0.304606 -0.604503
v 0.089774 0.298211 -0.155324
v 0.030678 0.219818 -0.040228
v 0.158371 0.342939 -0.306346
v -0.116581 0.040428 -0.104013
v -0.389621 0.355289 0.614459
v 0.140501 0.019232 0.014248
v -0.185133 0.338430 0.708526
v -0.251607 0.367035 0.038427
v 0.163761 0.332790 0.229503
v 0.225292 0.220601 0.117597
v -0.221760 0.257459 -0.088054
v -0.298455 0.412693 0.216721
v 0.065176 0.382713 0.383997
v 0.001562 -0.013114 -0.029976
v -0.288735 0.302641 0.656518
v -0.054321 0.306968 0.148872
v -0.008632 0.196086 0.029678
v -0.127037 0.354759 0.315266
vt 0.499554 0.602226
vt 0.499554 1.000000
vt 0.338022 1.000000
vt 0.230347 0.602226
vt 0.499554 0.231575
vt 0.499554 0.405884
vt 0.185200 0.405884
vt 0.170892 0.231575
vt 0.499554 0.017991
vt 0.302526 0.017991
vt 0.813907 0.405884
vt 0.768761 0.602226
vt 0.696581 0.017991
vt 0.828216 0.231575
vt 0.661086 1.000000
vt 0.499554 0.602226
vt 0.499554 1.000000
vt 0.338022 1.000000
vt 0.230347 0.602226
vt 0.499554 0.231575
vt 0.499554 0.405884
vt 0.185200 0.405884
vt 0.170892 0.231575
vt 0.499554 0.017991
vt 0.302526 0.017991
vt 0.813907 0.405884
vt 0.768761 0.602226
vt 0.696581 0.017991
vt 0.828216 0.231575
vt 0.661086 1.000000
vt 0.499554 0.602226
vt 0.499554 1.000000
vt 0.338022 1.000000
vt 0.230347 0.602226
vt 0.499554 0.231575
vt 0.499554 0.405884
vt 0.185200 0.405884
vt 0.170892 0.231575
vt 0.499554 0.017991
vt 0.302526 0.017991
vt 0.813907 0.405884
vt 0.768761 0.602226
vt 0.696581 0.017991
vt 0.828216 0.231575
vt 0.661086 1.000000
vt 0.499554 0.602226
vt 0.499554 1.000000
vt 0.338022 1.000000
vt 0.230347 0.602226
vt 0.499554 0.231575
vt 0.499554 0.405884
vt 0.185200 0.405884
vt 0.170892 0.231575
vt 0.499554 0.017991
vt 0.302526 0.017991
vt 0.813907 0.405884
vt 0.768761 0.602226
vt 0.696581 0.017991
vt 0.828216 0.231575
vt 0.661086 1.000000
vn 0.1046 0.9326 -0.3454
vn 0.6601 0.7499 -0.0435
vn 0.9457 0.2770 0.1698
vn 0.5795 0.7975 -0.1678
vn 0.3454 0.8160 0.4634
vn 0.8331 0.2860 0.4735
vn 0.4865 0.7636 0.4244
vn -0.1279 0.9510 0.2814
vn 0.0631 0.9649 0.2547
vn -0.5888 0.8039 -0.0836
vn -0.8432 0.3884 -0.3717
vn -0.3542 0.9338 0.0508
vn -0.0977 0.9437 -0.3160
vn -0.6425 0.3972 -0.6553
vn -0.3073 0.8094 -0.5005
vn 0.2440 0.9693 -0.0306
vn 0.5235 0.8483 0.0796
vn 0.2126 0.7042 0.6774
vn -0.1105 0.2748 0.9551
vn 0.4203 0.7974 0.4330
vn -0.3768 0.9201 0.1072
vn -0.5094 0.3362 0.7921
vn -0.4275 0.8027 0.4158
vn -0.1515 0.9647 -0.2155
vn -0.2141 0.9768 0.0089
vn 0.1581 0.7461 -0.6468
vn 0.2749 0.3112 -0.9097
vn -0.0161 0.9541 -0.2991
vn 0.3653 0.9227 -0.1234
vn 0.5527 0.2883 -0.7819
vn 0.4880 0.7189 -0.4951
vn 0.2626 0.9374 0.2288
usemtl None
s off
f 15/1/1 12/2/1 4/3/1 10/4/1
f 14/5/2 13/6/2 6/7/2 7/8/2
f 11/9/3 14/5/3 7/8/3 3/10/3
f 13/6/4 15/1/4 10/4/4 6/7/4
f 5/11/5 9/12/5 15/1/5 13/6/5
f 1/13/6 8/14/6 14/5/6 11/9/6
f 8/14/7 5/11/7 13/6/7 14/5/7
f 9/12/8 2/15/8 12/2/8 15/1/8
f 30/16/9 27/17/9 19/18/9 25/19/9
f 29/20/10 28/21/10 21/22/10 22/23/10
f 26/24/11 29/20/11 22/23/11 18/25/11
f 28/21/12 30/16/12 25/19/12 21/22/12
f 20/26/13 24/27/13 30/16/13 28/21/13
f 16/28/14 23/29/14 29/20/14 26/24/14
f 23/29/15 20/26/15 28/21/15 29/20/15
f 24/27/16 17/30/16 27/17/16 30/16/16
f 45/31/17 42/32/17 34/33/17 40/34/17
f 44/35/18 43/36/18 36/37/18 37/38/18
f 41/39/19 44/35/19 37/38/19 33/40/19
f 43/36/20 45/31/20 40/34/20 36/37/20
f 35/41/21 39/42/21 45/31/21 43/36/21
f 31/43/22 38/44/22 44/35/22 41/39/22
f 38/44/23 35/41/23 43/36/23 44/35/23
f 39/42/24 32/45/24 42/32/24 45/31/24
f 60/46/25 57/47/25 49/48/25 55/49/25
f 59/50/26 58/51/26 51/52/26 52/53/26
f 56/54/27 59/50/27 52/53/27 48/55/27
f 58/51/28 60/46/28 55/49/28 51/52/28
f 50/56/29 54/57/29 60/46/29 58/51/29
f 46/58/30 53/59/30 59/50/30 56/54/30
f 53/59/31 50/56/31 58/51/31 59/50/31
f 54/57/32 47/60/32 57/47/32 60/46/32
