o Plane
v -0.037424 0.057258 0.188237
v 0.946566 0.157528 0.364007
v 0.046815 0.053877 -0.192793
v 1.013572 0.154838 0.060929
v 0.281443 0.321805 0.379429
v 0.417549 0.316341 -0.236203
v 0.238617 0.257218 -0.299867
v 0.092129 0.263099 0.362726
v 0.506835 0.311215 0.389135
v 0.625988 0.306432 -0.149814
v 0.002393 -0.001785 -0.002278
v 0.978737 0.122986 0.212468
v 0.347194 0.261721 0.071613
v 0.163071 0.202806 0.031430
v 0.564109 0.251471 0.119661
v -0.042462 0.057464 -0.191929
v -1.113563 0.266400 0.117095
v 0.051528 0.053691 0.186810
v -1.038802 0.263399 0.418350
v -0.428900 0.359266 -0.216810
v -0.277039 0.353170 0.395121
v -0.071536 0.273728 0.368109
v -0.234981 0.280289 -0.290499
v -0.663296 0.372997 -0.118042
v -0.530352 0.367661 0.417667
v 0.000935 -0.001708 -0.002237
v -1.078265 0.231743 0.267909
v -0.356567 0.298933 0.089478
v -0.156856 0.219724 0.039127
v -0.600422 0.313044 0.150135
v 0.208442 0.056549 -0.004003
v 0.028203 0.231089 -1.107798
v -0.178737 0.054692 0.044789
v -0.279765 0.229612 -1.068988
v 0.279418 0.333236 -0.390457
v -0.346148 0.330234 -0.311624
v -0.343722 0.272401 -0.102905
v 0.329563 0.275631 -0.187752
v 0.208969 0.346179 -0.635071
v -0.338678 0.343551 -0.566057
v 0.014809 -0.001723 0.017866
v -0.125806 0.197160 -1.089855
v -0.033408 0.274392 -0.353567
v -0.007123 0.216673 -0.147855
v -0.064898 0.287522 -0.603091
v 0.191186 0.051442 0.089973
v 0.711100 0.325193 -1.210588
v -0.214572 0.059500 -0.085925
v 0.388353 0.331602 -1.350500
v 0.504491 0.370881 -0.275708
v -0.151093 0.383901 -0.559907
v -0.280313 0.293393 -0.334513
v 0.425280 0.279380 -0.028635
v 0.589959 0.400121 -0.583445
v 0.016033 0.411519 -0.832245
v -0.010494 -0.001662 -0.003359
v 0.550421 0.295328 -1.283660
v 0.177898 0.320258 -0.423191
v 0.073682 0.229253 -0.186957
v 0.304195 0.348687 -0.713228
v 0.068529 0.035643 0.209186
v 1.385582 0.544433 -0.398326
v -0.114478 0.069608 -0.192061
v 1.240015 0.571449 -0.717485
v 0.540989 0.420624 0.176392
v 0.245304 0.475501 -0.471905
v -0.008308 0.344233 -0.397392
v 0.309933 0.285171 0.300357
v 0.827667 0.505388 0.003750
v 0.568812 0.553429 -0.563795
v -0.012075 -0.002893 -0.001109
v 1.319108 0.525806 -0.563503
v 0.404047 0.392544 -0.157428
v 0.161713 0.259184 -0.058189
v 0.709139 0.473890 -0.289693
v -0.158317 0.049291 0.131793
v 0.893848 0.522487 1.064238
v 0.144825 0.051532 -0.190301
v 1.134972 0.524270 0.808039
v 0.045684 0.479381 0.513776
v 0.535472 0.483001 -0.006632
v 0.372537 0.328899 -0.198483
v -0.154612 0.325003 0.361623
v 0.312397 0.556146 0.704427
v 0.741177 0.559316 0.248840
v 0.006796 -0.003979 -0.016888
v 1.022248 0.491897 0.943296
v 0.304119 0.426801 0.265939
v 0.122504 0.272561 0.093936
v 0.540328 0.503341 0.489000
v -0.219616 0.071666 0.010018
v -0.023593 0.416485 1.441233
v 0.220560 0.059136 -0.031609
v 0.326530 0.406519 1.408123
v -0.301007 0.449187 0.482626
v 0.410187 0.428942 0.415370
v 0.408679 0.307785 0.146259
v -0.356766 0.329575 0.218645
v -0.223240 0.512671 0.812922
v 0.399369 0.494947 0.754044
v -0.000070 0.009111 0.000419
v 0.151155 0.378921 1.431169
v 0.054048 0.382774 0.460212
v 0.025415 0.262390 0.193666
v 0.087523 0.447519 0.794698
v -0.184384 0.042744 -0.131513
v -1.033566 0.481909 1.174508
v 0.187226 0.086865 0.104290
v -0.737980 0.517004 1.362071
v -0.601006 0.427947 0.197555
v -0.000594 0.499234 0.578544
v 0.189962 0.366941 0.354125
v -0.456251 0.290215 -0.055927
v -0.767234 0.515545 0.526616
v -0.241608 0.577953 0.860149
v -0.000823 0.009171 0.000334
v -0.887072 0.467255 1.276362
v -0.303044 0.407957 0.401995
v -0.135388 0.272945 0.163044
v -0.506665 0.491115 0.707328
v 0.060901 0.065247 -0.203526
v -1.328008 0.522478 -0.466989
v -0.031455 0.063188 0.209408
v -1.401469 0.520841 -0.138534
v -0.321701 0.480449 -0.420513
v -0.470922 0.477123 0.246666
v -0.229628 0.332479 0.326632
v -0.069025 0.336058 -0.391440
v -0.648742 0.575647 -0.449553
v -0.779375 0.572735 0.134523
v -0.001219 0.009211 -0.000899
v -1.373966 0.489821 -0.304984
v -0.412253 0.423779 -0.090763
v -0.165268 0.279262 -0.036244
v -0.730000 0.519184 -0.161355
v 0.167900 0.062802 -0.130673
v -0.735007 0.415419 -1.153906
v -0.157086 0.068742 0.140245
v -0.993507 0.420144 -0.938413
v -0.006457 0.408457 -0.550864
v -0.531539 0.418054 -0.113141
v -0.393182 0.312906 0.095861
v 0.171954 0.302577 -0.375253
v -0.237292 0.455413 -0.762295
v -0.696971 0.463815 -0.379094
v -0.000816 0.009052 -0.001436
v -0.867859 0.384951 -1.049760
v -0.275221 0.356535 -0.338224
v -0.116837 0.251021 -0.145917
v -0.473354 0.402894 -0.576916
v 0.213552 0.053394 -0.034198
v -0.230035 0.729158 -1.188822
v -0.186468 0.053626 0.103757
v -0.548218 0.729343 -1.079090
v 0.227406 0.496736 -0.394328
v -0.418909 0.497111 -0.171434
v -0.373336 0.333742 0.040967
v 0.322281 0.333338 -0.198931
v 0.092873 0.617763 -0.654032
v -0.472938 0.618092 -0.458901
v 0.006211 0.000664 0.013610
v -0.393370 0.698663 -1.146209
v -0.103083 0.444078 -0.304051
v -0.032859 0.280694 -0.100152
v -0.197364 0.565081 -0.577637
v 0.081272 0.042909 0.214584
v 1.102384 0.696480 -0.494465
v -0.146488 0.040737 -0.142023
v 0.921220 0.694752 -0.778117
v 0.411060 0.551978 0.155421
v 0.043067 0.548469 -0.420751
v -0.148940 0.344318 -0.327816
v 0.247124 0.348095 0.292307
v 0.636088 0.679809 -0.039886
v 0.313932 0.676737 -0.544291
v -0.007627 -0.007426 0.020626
v 1.026262 0.667110 -0.645352
v 0.252045 0.500975 -0.148320
v 0.074073 0.296958 -0.033409
v 0.499991 0.629024 -0.307744
v -0.145746 0.040675 0.181500
v 0.910936 0.780779 0.712466
v 0.051333 0.049645 -0.192836
v 1.067696 0.813312 0.414712
v 0.033470 0.540652 0.435660
v 0.351891 0.579283 -0.169157
v 0.190530 0.362866 -0.288770
v -0.152181 0.347267 0.362183
v 0.301926 0.685112 0.533511
v 0.580685 0.697801 0.004029
v -0.017948 -0.002114 0.008603
v 1.006252 0.756983 0.571850
v 0.221939 0.500624 0.147523
v 0.048433 0.307792 0.050977
v 0.470564 0.644182 0.283041
v -0.054149 0.047132 -0.260828
v -1.413200 0.600286 0.267091
v 0.114581 0.055195 0.209349
v -1.278989 0.606699 0.641078
v -0.490967 0.521610 -0.275872
v -0.218348 0.534637 0.483794
v 0.034053 0.358869 0.429183
v -0.259361 0.344849 -0.388432
v -0.794620 0.643380 -0.116138
v -0.555958 0.654784 0.548906
v 0.007991 -0.001009 -0.016869
v -1.358959 0.573294 0.459219
v -0.376882 0.475951 0.112831
v -0.134879 0.299687 0.029246
v -0.697514 0.596910 0.225254
vt 0.499554 0.602226
vt 0.499554 1.000000
vt 0.338022 1.000000
vt 0.230347 0.602226
vt 0.499554 0.231575
vt 0.499554 0.405884
vt 0.185200 0.405884
vt 0.170892 0.231575
vt 0.499554 0.017991
vt 0.302526 0.017991
vt 0.813907 0.405884
vt 0.768761 0.602226
vt 0.696581 0.017991
vt 0.828216 0.231575
vt 0.661086 1.000000
vt 0.499554 0.602226
vt 0.499554 1.000000
vt 0.338022 1.000000
vt 0.230347 0.602226
vt 0.499554 0.231575
vt 0.499554 0.405884
vt 0.185200 0.405884
vt 0.170892 0.231575
vt 0.499554 0.017991
vt 0.302526 0.017991
vt 0.813907 0.405884
vt 0.768761 0.602226
vt 0.696581 0.017991
vt 0.828216 0.231575
vt 0.661086 1.000000
vt 0.499554 0.602226
vt 0.499554 1.000000
vt 0.338022 1.000000
vt 0.230347 0.602226
vt 0.499554 0.231575
vt 0.499554 0.405884
vt 0.185200 0.405884
vt 0.170892 0.231575
vt 0.499554 0.017991
vt 0.302526 0.017991
vt 0.813907 0.405884
vt 0.768761 0.602226
vt 0.696581 0.017991
vt 0.828216 0.231575
vt 0.661086 1.000000
vt 0.499554 0.602226
vt 0.499554 1.000000
vt 0.338022 1.000000
vt 0.230347 0.602226
vt 0.499554 0.231575
vt 0.499554 0.405884
vt 0.185200 0.405884
vt 0.170892 0.231575
vt 0.499554 0.017991
vt 0.302526 0.017991
vt 0.813907 0.405884
vt 0.768761 0.602226
vt 0.696581 0.017991
vt 0.828216 0.231575
vt 0.661086 1.000000
vt 0.499554 0.602226
vt 0.499554 1.000000
vt 0.338022 1.000000
vt 0.230347 0.602226
vt 0.499554 0.231575
vt 0.499554 0.405884
vt 0.185200 0.405884
vt 0.170892 0.231575
vt 0.499554 0.017991
vt 0.302526 0.017991
vt 0.813907 0.405884
vt 0.768761 0.602226
vt 0.696581 0.017991
vt 0.828216 0.231575
vt 0.661086 1.000000
vt 0.499554 0.602226
vt 0.499554 1.000000
vt 0.338022 1.000000
vt 0.230347 0.602226
vt 0.499554 0.231575
vt 0.499554 0.405884
vt 0.185200 0.405884
vt 0.170892 0.231575
vt 0.499554 0.017991
vt 0.302526 0.017991
vt 0.813907 0.405884
vt 0.768761 0.602226
vt 0.696581 0.017991
vt 0.828216 0.231575
vt 0.661086 1.000000
vt 0.499554 0.602226
vt 0.499554 1.000000
vt 0.338022 1.000000
vt 0.230347 0.602226
vt 0.499554 0.231575
vt 0.499554 0.405884
vt 0.185200 0.405884
vt 0.170892 0.231575
vt 0.499554 0.017991
vt 0.302526 0.017991
vt 0.813907 0.405884
vt 0.768761 0.602226
vt 0.696581 0.017991
vt 0.828216 0.231575
vt 0.661086 1.000000
vt 0.499554 0.602226
vt 0.499554 1.000000
vt 0.338022 1.000000
vt 0.230347 0.602226
vt 0.499554 0.231575
vt 0.499554 0.405884
vt 0.185200 0.405884
vt 0.170892 0.231575
vt 0.499554 0.017991
vt 0.302526 0.017991
vt 0.813907 0.405884
vt 0.768761 0.602226
vt 0.696581 0.017991
vt 0.828216 0.231575
vt 0.661086 1.000000
vt 0.499554 0.602226
vt 0.499554 1.000000
vt 0.338022 1.000000
vt 0.230347 0.602226
vt 0.499554 0.231575
vt 0.499554 0.405884
vt 0.185200 0.405884
vt 0.170892 0.231575
vt 0.499554 0.017991
vt 0.302526 0.017991
vt 0.813907 0.405884
vt 0.768761 0.602226
vt 0.696581 0.017991
vt 0.828216 0.231575
vt 0.661086 1.000000
vt 0.499554 0.602226
vt 0.499554 1.000000
vt 0.338022 1.000000
vt 0.230347 0.602226
vt 0.499554 0.231575
vt 0.499554 0.405884
vt 0.185200 0.405884
vt 0.170892 0.231575
vt 0.499554 0.017991
vt 0.302526 0.017991
vt 0.813907 0.405884
vt 0.768761 0.602226
vt 0.696581 0.017991
vt 0.828216 0.231575
vt 0.661086 1.000000
vt 0.499554 0.602226
vt 0.499554 1.000000
vt 0.338022 1.000000
vt 0.230347 0.602226
vt 0.499554 0.231575
vt 0.499554 0.405884
vt 0.185200 0.405884
vt 0.170892 0.231575
vt 0.499554 0.017991
vt 0.302526 0.017991
vt 0.813907 0.405884
vt 0.768761 0.602226
vt 0.696581 0.017991
vt 0.828216 0.231575
vt 0.661086 1.000000
vt 0.499554 0.602226
vt 0.499554 1.000000
vt 0.338022 1.000000
vt 0.230347 0.602226
vt 0.499554 0.231575
vt 0.499554 0.405884
vt 0.185200 0.405884
vt 0.170892 0.231575
vt 0.499554 0.017991
vt 0.302526 0.017991
vt 0.813907 0.405884
vt 0.768761 0.602226
vt 0.696581 0.017991
vt 0.828216 0.231575
vt 0.661086 1.000000
vt 0.499554 0.602226
vt 0.499554 1.000000
vt 0.338022 1.000000
vt 0.230347 0.602226
vt 0.499554 0.231575
vt 0.499554 0.405884
vt 0.185200 0.405884
vt 0.170892 0.231575
vt 0.499554 0.017991
vt 0.302526 0.017991
vt 0.813907 0.405884
vt 0.768761 0.602226
vt 0.696581 0.017991
vt 0.828216 0.231575
vt 0.661086 1.000000
vt 0.499554 0.602226
vt 0.499554 1.000000
vt 0.338022 1.000000
vt 0.230347 0.602226
vt 0.499554 0.231575
vt 0.499554 0.405884
vt 0.185200 0.405884
vt 0.170892 0.231575
vt 0.499554 0.017991
vt 0.302526 0.017991
vt 0.813907 0.405884
vt 0.768761 0.602226
vt 0.696581 0.017991
vt 0.828216 0.231575
vt 0.661086 1.000000
vn 0.2345 0.9400 0.2477
vn -0.3300 0.9401 0.0851
vn -0.7595 0.6495 -0.0376
vn -0.0115 0.9829 0.1839
vn 0.0707 0.9796 -0.1883
vn -0.7021 0.6472 -0.2970
vn -0.2599 0.9373 -0.2321
vn 0.3205 0.9366 -0.1416
vn -0.2000 0.9686 -0.1475
vn 0.3143 0.9189 -0.2384
vn 0.7185 0.6180 -0.3190
vn 0.0242 0.9810 -0.1926
vn 0.1160 0.9773 0.1773
vn 0.7872 0.6153 -0.0423
vn 0.3935 0.9157 0.0810
vn -0.1033 0.9648 0.2420
vn 0.1725 0.9646 -0.1995
vn 0.1964 0.9479 0.2507
vn 0.2338 0.6315 0.7393
vn 0.1927 0.9804 0.0423
vn -0.1854 0.9785 0.0899
vn -0.0490 0.6302 0.7749
vn -0.1370 0.9463 0.2928
vn -0.2257 0.9627 -0.1493
vn 0.2142 0.9768 0.0021
vn 0.0180 0.9274 0.3737
vn -0.1456 0.6768 0.7216
vn 0.1315 0.9773 0.1660
vn -0.1783 0.9835 0.0317
vn -0.4044 0.6819 0.6094
vn -0.2539 0.9328 0.2559
vn -0.1152 0.9833 -0.1407
vn 0.0354 0.9639 0.2637
vn -0.3256 0.8633 0.3856
vn -0.6415 0.5801 0.5020
vn -0.1231 0.9388 0.3217
vn -0.2628 0.9647 0.0154
vn -0.7618 0.6024 0.2381
vn -0.4487 0.8862 0.1156
vn -0.1135 0.9916 -0.0626
vn -0.1097 0.9841 0.1399
vn -0.4871 0.8373 -0.2483
vn -0.7109 0.5270 -0.4657
vn -0.2913 0.9560 -0.0364
vn -0.0605 0.9577 -0.2814
vn -0.5115 0.5285 -0.6775
vn -0.2831 0.8388 -0.4650
vn 0.1264 0.9858 -0.1105
vn -0.1359 0.9836 0.1187
vn -0.1615 0.9030 -0.3981
vn -0.1986 0.6359 -0.7458
vn -0.1594 0.9701 -0.1831
vn 0.1767 0.9605 -0.2148
vn 0.0909 0.6277 -0.7731
vn 0.1347 0.8946 -0.4261
vn 0.2109 0.9740 0.0830
vn -0.2453 0.9614 -0.1247
vn 0.0257 0.8744 -0.4845
vn 0.2227 0.6229 -0.7500
vn -0.1001 0.9371 -0.3343
vn 0.1836 0.9708 -0.1543
vn 0.4757 0.6529 -0.5894
vn 0.2769 0.9042 -0.3251
vn 0.0460 0.9964 0.0715
vn -0.0037 0.9836 -0.1805
vn 0.5171 0.8550 -0.0392
vn 0.8320 0.5537 0.0338
vn 0.3180 0.9423 -0.1048
vn 0.2411 0.9406 0.2392
vn 0.7660 0.5522 0.3292
vn 0.4493 0.8535 0.2639
vn -0.0821 0.9818 0.1712
vn 0.1367 0.9792 -0.1500
vn 0.3797 0.9045 0.1941
vn 0.6073 0.6286 0.4858
vn 0.2466 0.9691 -0.0007
vn -0.0242 0.9741 0.2250
vn 0.3822 0.6327 0.6735
vn 0.1421 0.9089 0.3921
vn -0.1510 0.9845 0.0898
vn 0.2473 0.9586 0.1410
vn 0.3430 0.7829 0.5191
vn 0.4300 0.4246 0.7967
vn 0.2945 0.9034 0.3118
vn -0.0388 0.9036 0.4267
vn 0.1530 0.4247 0.8923
vn 0.0507 0.7830 0.6199
vn -0.1068 0.9588 0.2631
vn 0.0376 0.9845 0.1712
vn -0.5000 0.7075 0.4994
vn -0.7020 0.3387 0.6266
vn -0.2477 0.8993 0.3605
vn -0.4364 0.8974 0.0655
vn -0.8655 0.3371 0.3705
vn -0.6673 0.7059 0.2375
vn -0.1455 0.9827 -0.1144
vn -0.2954 0.9475 0.1226
vn -0.7204 0.6746 -0.1611
vn -0.9127 0.2751 -0.3022
vn -0.4815 0.8765 0.0006
vn -0.3300 0.8765 -0.3505
vn -0.7712 0.2816 -0.5710
vn -0.5472 0.7065 -0.4489
vn -0.0872 0.9717 -0.2197
vn -0.0843 0.9864 -0.1412
vn 0.4847 0.8102 -0.3298
vn 0.7712 0.4727 -0.4264
vn 0.2661 0.9253 -0.2702
vn 0.3666 0.9303 0.0113
vn 0.8612 0.4770 -0.1756
vn 0.5748 0.8146 -0.0783
vn 0.0124 0.9910 0.1329
usemtl None
s off
f 15/1/1 12/2/1 4/3/1 10/4/1
f 14/5/2 13/6/2 6/7/2 7/8/2
f 11/9/3 14/5/3 7/8/3 3/10/3
f 13/6/4 15/1/4 10/4/4 6/7/4
f 5/11/5 9/12/5 15/1/5 13/6/5
f 1/13/6 8/14/6 14/5/6 11/9/6
f 8/14/7 5/11/7 13/6/7 14/5/7
f 9/12/8 2/15/8 12/2/8 15/1/8
f 30/16/9 27/17/9 19/18/9 25/19/9
f 29/20/10 28/21/10 21/22/10 22/23/10
f 26/24/11 29/20/11 22/23/11 18/25/11
f 28/21/12 30/16/12 25/19/12 21/22/12
f 20/26/13 24/27/13 30/16/13 28/21/13
f 16/28/14 23/29/14 29/20/14 26/24/14
f 23/29/15 20/26/15 28/21/15 29/20/15
f 24/27/16 17/30/16 27/17/16 30/16/16
f 45/31/17 42/32/17 34/33/17 40/34/17
f 44/35/18 43/36/18 36/37/18 37/38/18
f 41/39/19 44/35/19 37/38/19 33/40/19
f 43/36/20 45/31/20 40/34/20 36/37/20
f 35/41/21 39/42/21 45/31/21 43/36/21
f 31/43/22 38/44/22 44/35/22 41/39/22
f 38/44/23 35/41/23 43/36/23 44/35/23
f 39/42/24 32/45/24 42/32/24 45/31/24
f 60/46/25 57/47/25 49/48/25 55/49/25
f 59/50/26 58/51/26 51/52/26 52/53/26
f 56/54/27 59/50/27 52/53/27 48/55/27
f 58/51/28 60/46/28 55/49/28 51/52/28
f 50/56/29 54/57/29 60/46/29 58/51/29
f 46/58/30 53/59/30 59/50/30 56/54/30
f 53/59/31 50/56/31 58/51/31 59/50/31
f 54/57/32 47/60/32 57/47/32 60/46/32
f 75/61/33 72/62/33 64/63/33 70/64/33
f 74/65/34 73/66/34 66/67/34 67/68/34
f 71/69/35 74/65/35 67/68/35 63/70/35
f 73/66/36 75/61/36 70/64/36 66/67/36
f 65/71/37 69/72/37 75/61/37 73/66/37
f 61/73/38 68/74/38 74/65/38 71/69/38
f 68/74/39 65/71/39 73/66/39 74/65/39
f 69/72/40 62/75/40 72/62/40 75/61/40
f 90/76/41 87/77/41 79/78/41 85/79/41
f 89/80/42 88/81/42 81/82/42 82/83/42
f 86/84/43 89/80/43 82/83/43 78/85/43
f 88/81/44 90/76/44 85/79/44 81/82/44
f 80/86/45 84/87/45 90/76/45 88/81/45
f 76/88/46 83/89/46 89/80/46 86/84/46
f 83/89/47 80/86/47 88/81/47 89/80/47
f 84/87/48 77/90/48 87/77/48 90/76/48
f 105/91/49 102/92/49 94/93/49 100/94/49
f 104/95/50 103/96/50 96/97/50 97/98/50
f 101/99/51 104/95/51 97/98/51 93/100/51
f 103/96/52 105/91/52 100/94/52 96/97/52
f 95/101/53 99/102/53 105/91/53 103/96/53
f 91/103/54 98/104/54 104/95/54 101/99/54
f 98/104/55 95/101/55 103/96/55 104/95/55
f 99/102/56 92/105/56 102/92/56 105/91/56
f 120/106/57 117/107/57 109/108/57 115/109/57
f 119/110/58 118/111/58 111/112/58 112/113/58
f 116/114/59 119/110/59 112/113/59 108/115/59
f 118/111/60 120/106/60 115/109/60 111/112/60
f 110/116/61 114/117/61 120/106/61 118/111/61
f 106/118/62 113/119/62 119/110/62 116/114/62
f 113/119/63 110/116/63 118/111/63 119/110/63
f 114/117/64 107/120/64 117/107/64 120/106/64
f 135/121/65 132/122/65 124/123/65 130/124/65
f 134/125/66 133/126/66 126/127/66 127/128/66
f 131/129/67 134/125/67 127/128/67 123/130/67
f 133/126/68 135/121/68 130/124/68 126/127/68
f 125/131/69 129/132/69 135/121/69 133/126/69
f 121/133/70 128/134/70 134/125/70 131/129/70
f 128/134/71 125/131/71 133/126/71 134/125/71
f 129/132/72 122/135/72 132/122/72 135/121/72
f 150/136/73 147/137/73 139/138/73 145/139/73
f 149/140/74 148/141/74 141/142/74 142/143/74
f 146/144/75 149/140/75 142/143/75 138/145/75
f 148/141/76 150/136/76 145/139/76 141/142/76
f 140/146/77 144/147/77 150/136/77 148/141/77
f 136/148/78 143/149/78 149/140/78 146/144/78
f 143/149/79 140/146/79 148/141/79 149/140/79
f 144/147/80 137/150/80 147/137/80 150/136/80
f 165/151/81 162/152/81 154/153/81 160/154/81
f 164/155/82 163/156/82 156/157/82 157/158/82
f 161/159/83 164/155/83 157/158/83 153/160/83
f 163/156/84 165/151/84 160/154/84 156/157/84
f 155/161/85 159/162/85 165/151/85 163/156/85
f 151/163/86 158/164/86 164/155/86 161/159/86
f 158/164/87 155/161/87 163/156/87 164/155/87
f 159/162/88 152/165/88 162/152/88 165/151/88
f 180/166/89 177/167/89 169/168/89 175/169/89
f 179/170/90 178/171/90 171/172/90 172/173/90
f 176/174/91 179/170/91 172/173/91 168/175/91
f 178/171/92 180/166/92 175/169/92 171/172/92
f 170/176/93 174/177/93 180/166/93 178/171/93
f 166/178/94 173/179/94 179/170/94 176/174/94
f 173/179/95 170/176/95 178/171/95 179/170/95
f 174/177/96 167/180/96 177/167/96 180/166/96
f 195/181/97 192/182/97 184/183/97 190/184/97
f 194/185/98 193/186/98 186/187/98 187/188/98
f 191/189/99 194/185/99 187/188/99 183/190/99
f 193/186/100 195/181/100 190/184/100 186/187/100
f 185/191/101 189/192/101 195/181/101 193/186/101
f 181/193/102 188/194/102 194/185/102 191/189/102
f 188/194/103 185/191/103 193/186/103 194/185/103
f 189/192/104 182/195/104 192/182/104 195/181/104
f 210/196/105 207/197/105 199/198/105 205/199/105
f 209/200/106 208/201/106 201/202/106 202/203/106
f 206/204/107 209/200/107 202/203/107 198/205/107
f 208/201/108 210/196/108 205/199/108 201/202/108
f 200/206/109 204/207/109 210/196/109 208/201/109
f 196/208/110 203/209/110 209/200/110 206/204/110
f 203/209/111 200/206/111 208/201/111 209/200/111
f 204/207/112 197/210/112 207/197/112 210/196/112
