# Blender v3.2.0 OBJ File: 'fern.blend'
# www.blender.org
mtllib Fern Medium.mtl
o Plane.014_Plane.042
v -0.108458 0.061644 0.160583
v 0.735292 0.167543 0.695427
v 0.114202 0.052707 -0.159782
v 0.912400 0.160434 0.440603
v 0.114669 0.330034 0.454517
v 0.468443 0.332827 -0.053515
v 0.326933 0.272202 -0.179470
v -0.054284 0.270511 0.368046
v 0.319444 0.320272 0.549278
v 0.628407 0.324864 0.105720
v 0.000570 -0.000177 0.000401
v 0.824295 0.175186 0.568015
v 0.292244 0.265461 0.195709
v 0.137012 0.205387 0.089496
v 0.476034 0.291992 0.322707
v 0.140217 0.055278 0.018509
v 0.144727 0.244923 -0.931316
v -0.136564 0.059116 0.009701
v -0.046289 0.247571 -0.937395
v 0.239508 0.347954 -0.293289
v -0.207689 0.354154 -0.307520
v -0.231375 0.278916 -0.132600
v 0.249934 0.272243 -0.117283
v 0.218601 0.357943 -0.508205
v -0.172893 0.363371 -0.520664
v 0.001128 -0.000119 0.011097
v 0.034393 0.225475 -0.935920
v 0.014984 0.275126 -0.304388
v 0.008580 0.218264 -0.127949
v 0.022021 0.292340 -0.518020
v -0.130901 0.057434 -0.112143
v -0.550258 0.130495 0.836643
v 0.197400 0.030030 0.049346
v -0.289122 0.108697 0.965094
v -0.370201 0.316898 0.161760
v 0.160237 0.272621 0.422679
v 0.262460 0.202651 0.254357
v -0.308440 0.250306 -0.026465
v -0.441184 0.306021 0.387798
v 0.023182 0.267259 0.616217
v 0.028615 -0.002643 -0.029847
v -0.422372 0.092753 0.901766
v -0.109616 0.248385 0.293771
v -0.027624 0.180104 0.115497
v -0.213635 0.240265 0.503560
v 0.079090 0.062572 -0.185317
v -0.807074 0.220273 -0.385251
v -0.022460 0.058384 0.185747
v -0.887849 0.216941 -0.090100
v -0.183843 0.317533 -0.377200
v -0.347918 0.310766 0.222331
v -0.191551 0.246019 0.288975
v -0.014960 0.253303 -0.356288
v -0.391031 0.323971 -0.393689
v -0.534669 0.318046 0.131165
v 0.026524 0.010548 -0.000839
v -0.849093 0.173132 -0.238635
v -0.268684 0.235982 -0.079084
v -0.105046 0.199732 -0.034710
v -0.465654 0.242841 -0.132912
v 0.113064 0.065441 0.146578
v 0.839712 0.281803 -0.573994
v -0.129754 0.094889 -0.107072
v 0.646571 0.305226 -0.775752
v 0.443181 0.300655 0.008565
v 0.050858 0.348233 -0.401259
v -0.104162 0.280199 -0.290923
v 0.318087 0.228992 0.150163
v 0.587344 0.326896 -0.175654
v 0.243889 0.368548 -0.534430
v -0.006887 0.002585 0.009351
v 0.744261 0.233968 -0.682857
v 0.248478 0.246864 -0.206749
v 0.108421 0.177016 -0.080782
v 0.417075 0.270142 -0.365445
vt 0.499554 0.602226
vt 0.499554 1.000000
vt 0.338022 1.000000
vt 0.230347 0.602226
vt 0.499554 0.231575
vt 0.499554 0.405884
vt 0.185200 0.405884
vt 0.170892 0.231575
vt 0.499554 0.017991
vt 0.302526 0.017991
vt 0.813907 0.405884
vt 0.768761 0.602226
vt 0.696581 0.017991
vt 0.828216 0.231575
vt 0.661086 1.000000
vt 0.499554 0.602226
vt 0.499554 1.000000
vt 0.338022 1.000000
vt 0.230347 0.602226
vt 0.499554 0.231575
vt 0.499554 0.405884
vt 0.185200 0.405884
vt 0.170892 0.231575
vt 0.499554 0.017991
vt 0.302526 0.017991
vt 0.813907 0.405884
vt 0.768761 0.602226
vt 0.696581 0.017991
vt 0.828216 0.231575
vt 0.661086 1.000000
vt 0.499554 0.602226
vt 0.499554 1.000000
vt 0.338022 1.000000
vt 0.230347 0.602226
vt 0.499554 0.231575
vt 0.499554 0.405884
vt 0.185200 0.405884
vt 0.170892 0.231575
vt 0.499554 0.017991
vt 0.302526 0.017991
vt 0.813907 0.405884
vt 0.768761 0.602226
vt 0.696581 0.017991
vt 0.828216 0.231575
vt 0.661086 1.000000
vt 0.499554 0.602226
vt 0.499554 1.000000
vt 0.338022 1.000000
vt 0.230347 0.602226
vt 0.499554 0.231575
vt 0.499554 0.405884
vt 0.185200 0.405884
vt 0.170892 0.231575
vt 0.499554 0.017991
vt 0.302526 0.017991
vt 0.813907 0.405884
vt 0.768761 0.602226
vt 0.696581 0.017991
vt 0.828216 0.231575
vt 0.661086 1.000000
vt 0.499554 0.602226
vt 0.499554 1.000000
vt 0.338022 1.000000
vt 0.230347 0.602226
vt 0.499554 0.231575
vt 0.499554 0.405884
vt 0.185200 0.405884
vt 0.170892 0.231575
vt 0.499554 0.017991
vt 0.302526 0.017991
vt 0.813907 0.405884
vt 0.768761 0.602226
vt 0.696581 0.017991
vt 0.828216 0.231575
vt 0.661086 1.000000
vn 0.2297 0.9503 0.2104
vn -0.3652 0.9308 -0.0170
vn -0.7049 0.6317 -0.3224
vn -0.1444 0.9834 0.1097
vn 0.0468 0.9866 -0.1565
vn -0.5347 0.6404 -0.5513
vn -0.1494 0.9329 -0.3277
vn 0.2693 0.9541 0.1312
vn 0.3185 0.9357 -0.1518
vn 0.2642 0.8951 0.3592
vn 0.1634 0.5559 0.8150
vn 0.3357 0.9376 0.0910
vn -0.3147 0.9466 0.0703
vn -0.1994 0.5609 0.8035
vn -0.2616 0.9024 0.3424
vn -0.2544 0.9493 -0.1845
vn -0.2210 0.9468 0.2338
vn 0.0803 0.9398 -0.3322
vn 0.2478 0.6770 -0.6930
vn -0.0907 0.9957 -0.0209
vn 0.2040 0.9710 0.1243
vn 0.4873 0.6570 -0.5752
vn 0.3390 0.9182 -0.2049
vn 0.0752 0.9220 0.3798
vn -0.0885 0.9507 -0.2973
vn 0.3293 0.9395 -0.0946
vn 0.7866 0.6099 0.0964
vn 0.1206 0.9669 -0.2248
vn -0.0163 0.9613 0.2752
vn 0.7226 0.6072 0.3304
vn 0.2299 0.9354 0.2688
vn -0.2330 0.9447 0.2307
vn 0.3215 0.9111 0.2577
vn -0.0303 0.8793 0.4752
vn -0.3011 0.6496 0.6981
vn 0.1640 0.9255 0.3414
vn -0.2238 0.9725 -0.0637
vn -0.6329 0.6899 0.3515
vn -0.3717 0.9207 0.1186
vn -0.1346 0.9665 -0.2187
usemtl None
s off
f 15/1/1 12/2/1 4/3/1 10/4/1
f 14/5/2 13/6/2 6/7/2 7/8/2
f 11/9/3 14/5/3 7/8/3 3/10/3
f 13/6/4 15/1/4 10/4/4 6/7/4
f 5/11/5 9/12/5 15/1/5 13/6/5
f 1/13/6 8/14/6 14/5/6 11/9/6
f 8/14/7 5/11/7 13/6/7 14/5/7
f 9/12/8 2/15/8 12/2/8 15/1/8
f 30/16/9 27/17/9 19/18/9 25/19/9
f 29/20/10 28/21/10 21/22/10 22/23/10
f 26/24/11 29/20/11 22/23/11 18/25/11
f 28/21/12 30/16/12 25/19/12 21/22/12
f 20/26/13 24/27/13 30/16/13 28/21/13
f 16/28/14 23/29/14 29/20/14 26/24/14
f 23/29/15 20/26/15 28/21/15 29/20/15
f 24/27/16 17/30/16 27/17/16 30/16/16
f 45/31/17 42/32/17 34/33/17 40/34/17
f 44/35/18 43/36/18 36/37/18 37/38/18
f 41/39/19 44/35/19 37/38/19 33/40/19
f 43/36/20 45/31/20 40/34/20 36/37/20
f 35/41/21 39/42/21 45/31/21 43/36/21
f 31/43/22 38/44/22 44/35/22 41/39/22
f 38/44/23 35/41/23 43/36/23 44/35/23
f 39/42/24 32/45/24 42/32/24 45/31/24
f 60/46/25 57/47/25 49/48/25 55/49/25
f 59/50/26 58/51/26 51/52/26 52/53/26
f 56/54/27 59/50/27 52/53/27 48/55/27
f 58/51/28 60/46/28 55/49/28 51/52/28
f 50/56/29 54/57/29 60/46/29 58/51/29
f 46/58/30 53/59/30 59/50/30 56/54/30
f 53/59/31 50/56/31 58/51/31 59/50/31
f 54/57/32 47/60/32 57/47/32 60/46/32
f 75/61/33 72/62/33 64/63/33 70/64/33
f 74/65/34 73/66/34 66/67/34 67/68/34
f 71/69/35 74/65/35 67/68/35 63/70/35
f 73/66/36 75/61/36 70/64/36 66/67/36
f 65/71/37 69/72/37 75/61/37 73/66/37
f 61/73/38 68/74/38 74/65/38 71/69/38
f 68/74/39 65/71/39 73/66/39 74/65/39
f 69/72/40 62/75/40 72/62/40 75/61/40
