# Blender v3.2.0 OBJ File: 'fern.blend'
# www.blender.org
mtllib Fern Large.mtl
o Plane.017_Plane.004
v 0.215811 0.036495 -0.011558
v 0.055211 0.584212 -1.300278
v -0.202341 0.073095 0.041895
v -0.277394 0.613324 -1.257760
v 0.331329 0.430507 -0.408859
v -0.344282 0.489641 -0.322495
v -0.352789 0.351908 -0.088321
v 0.374358 0.288263 -0.181273
v 0.258978 0.524681 -0.702270
v -0.332480 0.576449 -0.626663
v -0.005674 -0.044232 -0.014102
v -0.120616 0.522760 -1.301485
v -0.018886 0.361047 -0.394947
v -0.001625 0.221058 -0.164067
v -0.049160 0.451538 -0.693736
v -0.043951 0.021474 0.176138
v 0.940040 0.121743 0.351908
v 0.040288 0.018093 -0.204891
v 1.007045 0.119054 0.048830
v 0.274917 0.286021 0.367330
v 0.411022 0.280557 -0.248301
v 0.232091 0.221434 -0.311966
v 0.085603 0.227314 0.350627
v 0.500308 0.275431 0.377036
v 0.619461 0.270648 -0.161913
v -0.004133 -0.037569 -0.014377
v 0.972571 0.096203 0.200369
v 0.340667 0.225936 0.059515
v 0.156544 0.167022 0.019331
v 0.557582 0.215687 0.107562
v -0.011948 0.021679 -0.206457
v -1.083049 0.230616 0.102567
v 0.082042 0.017906 0.172282
v -1.008288 0.227615 0.403822
v -0.398385 0.323482 -0.231338
v -0.246525 0.317386 0.380592
v -0.041022 0.237944 0.353581
v -0.204466 0.244505 -0.305028
v -0.632782 0.337213 -0.132570
v -0.499837 0.331877 0.403139
v 0.031450 -0.037492 -0.016765
v -1.042914 0.272981 0.252948
v -0.326053 0.263149 0.074949
v -0.126342 0.183940 0.024599
v -0.569907 0.277260 0.135606
v 0.137801 0.016766 0.047999
v 0.544071 0.130847 -0.969984
v -0.169032 0.022859 -0.085014
v 0.300010 0.135694 -1.075785
v 0.388860 0.282895 -0.260013
v -0.106892 0.292741 -0.474924
v -0.208747 0.231784 -0.294590
v 0.324821 0.221188 -0.063286
v 0.455046 0.276121 -0.497635
v 0.021045 0.284740 -0.685777
v -0.017120 -0.037560 -0.017663
v 0.420880 0.089050 -1.022234
v 0.138990 0.211814 -0.366351
v 0.056531 0.169113 -0.178094
v 0.236251 0.212045 -0.590700
v 0.024526 -0.003296 0.153927
v 1.163482 0.389786 -0.372283
v -0.122279 0.023949 -0.167945
v 1.046711 0.411458 -0.628306
v 0.433363 0.346633 0.117490
v 0.196170 0.390654 -0.402560
v -0.022957 0.280064 -0.336082
v 0.232330 0.232686 0.223639
v 0.681565 0.404635 -0.030162
v 0.473916 0.443172 -0.485435
v -0.040502 -0.045807 -0.015580
v 1.109944 0.368131 -0.505255
v 0.323141 0.312510 -0.151106
v 0.113062 0.200241 -0.064793
v 0.586116 0.367770 -0.266370
v -0.162404 0.003288 0.119489
v 0.760404 0.416647 0.929773
v 0.140737 0.005529 -0.202605
v 1.001529 0.418429 0.673574
v 0.007942 0.362826 0.469307
v 0.497729 0.366447 -0.051101
v 0.356834 0.235700 -0.222047
v -0.170315 0.231804 0.338059
v 0.244286 0.431708 0.631322
v 0.673066 0.434877 0.175735
v 0.000168 -0.039779 -0.031511
v 0.887334 0.391962 0.807489
v 0.263837 0.320449 0.219150
v 0.104261 0.189564 0.068053
v 0.469678 0.389105 0.413575
v -0.229899 0.021938 -0.091990
v -0.486140 0.337449 1.144221
v 0.199940 0.038326 0.011033
v -0.144238 0.350483 1.226168
v -0.468031 0.400103 0.256779
v 0.226462 0.426580 0.423235
v 0.311354 0.308992 0.204777
v -0.436116 0.280495 0.025623
v -0.495437 0.457689 0.553054
v 0.112551 0.480868 0.698776
v -0.015567 -0.030900 -0.028319
v -0.316188 0.240186 1.205871
v -0.121372 0.352310 0.352166
v -0.062969 0.233711 0.127359
v -0.192257 0.384686 0.642768
v 0.077666 0.029429 -0.218030
v -1.158801 0.440118 -0.447630
v -0.014690 0.027371 0.194904
v -1.232262 0.438480 -0.119175
v -0.251379 0.428279 -0.423120
v -0.400599 0.424953 0.244059
v -0.188431 0.289202 0.317555
v -0.027828 0.292781 -0.400517
v -0.543594 0.512845 -0.444424
v -0.674227 0.509933 0.139652
v 0.015547 -0.026607 -0.015403
v -1.204759 0.407460 -0.285625
v -0.341930 0.371609 -0.093370
v -0.124071 0.235985 -0.045320
v -0.624852 0.456382 -0.156226
v 0.157091 0.020124 -0.150188
v -0.562355 0.184488 -0.949217
v -0.167896 0.026064 0.120730
v -0.820855 0.189213 -0.733724
v 0.028174 0.273904 -0.513856
v -0.496909 0.283501 -0.076133
v -0.389784 0.218326 0.094527
v 0.175352 0.207996 -0.376586
v -0.159082 0.282619 -0.672172
v -0.618761 0.291021 -0.288971
v -0.007194 -0.026836 -0.015783
v -0.693236 0.141376 -0.842430
v -0.237172 0.200534 -0.296644
v -0.109007 0.163231 -0.142083
v -0.391726 0.208652 -0.482221
vt 0.499554 0.602226
vt 0.499554 1.000000
vt 0.338022 1.000000
vt 0.230347 0.602226
vt 0.499554 0.231575
vt 0.499554 0.405884
vt 0.185200 0.405884
vt 0.170892 0.231575
vt 0.499554 0.017991
vt 0.302526 0.017991
vt 0.813907 0.405884
vt 0.768761 0.602226
vt 0.696581 0.017991
vt 0.828216 0.231575
vt 0.661086 1.000000
vt 0.499554 0.602226
vt 0.499554 1.000000
vt 0.338022 1.000000
vt 0.230347 0.602226
vt 0.499554 0.231575
vt 0.499554 0.405884
vt 0.185200 0.405884
vt 0.170892 0.231575
vt 0.499554 0.017991
vt 0.302526 0.017991
vt 0.813907 0.405884
vt 0.768761 0.602226
vt 0.696581 0.017991
vt 0.828216 0.231575
vt 0.661086 1.000000
vt 0.499554 0.602226
vt 0.499554 1.000000
vt 0.338022 1.000000
vt 0.230347 0.602226
vt 0.499554 0.231575
vt 0.499554 0.405884
vt 0.185200 0.405884
vt 0.170892 0.231575
vt 0.499554 0.017991
vt 0.302526 0.017991
vt 0.813907 0.405884
vt 0.768761 0.602226
vt 0.696581 0.017991
vt 0.828216 0.231575
vt 0.661086 1.000000
vt 0.499554 0.602226
vt 0.499554 1.000000
vt 0.338022 1.000000
vt 0.230347 0.602226
vt 0.499554 0.231575
vt 0.499554 0.405884
vt 0.185200 0.405884
vt 0.170892 0.231575
vt 0.499554 0.017991
vt 0.302526 0.017991
vt 0.813907 0.405884
vt 0.768761 0.602226
vt 0.696581 0.017991
vt 0.828216 0.231575
vt 0.661086 1.000000
vt 0.499554 0.602226
vt 0.499554 1.000000
vt 0.338022 1.000000
vt 0.230347 0.602226
vt 0.499554 0.231575
vt 0.499554 0.405884
vt 0.185200 0.405884
vt 0.170892 0.231575
vt 0.499554 0.017991
vt 0.302526 0.017991
vt 0.813907 0.405884
vt 0.768761 0.602226
vt 0.696581 0.017991
vt 0.828216 0.231575
vt 0.661086 1.000000
vt 0.499554 0.602226
vt 0.499554 1.000000
vt 0.338022 1.000000
vt 0.230347 0.602226
vt 0.499554 0.231575
vt 0.499554 0.405884
vt 0.185200 0.405884
vt 0.170892 0.231575
vt 0.499554 0.017991
vt 0.302526 0.017991
vt 0.813907 0.405884
vt 0.768761 0.602226
vt 0.696581 0.017991
vt 0.828216 0.231575
vt 0.661086 1.000000
vt 0.499554 0.602226
vt 0.499554 1.000000
vt 0.338022 1.000000
vt 0.230347 0.602226
vt 0.499554 0.231575
vt 0.499554 0.405884
vt 0.185200 0.405884
vt 0.170892 0.231575
vt 0.499554 0.017991
vt 0.302526 0.017991
vt 0.813907 0.405884
vt 0.768761 0.602226
vt 0.696581 0.017991
vt 0.828216 0.231575
vt 0.661086 1.000000
vt 0.499554 0.602226
vt 0.499554 1.000000
vt 0.338022 1.000000
vt 0.230347 0.602226
vt 0.499554 0.231575
vt 0.499554 0.405884
vt 0.185200 0.405884
vt 0.170892 0.231575
vt 0.499554 0.017991
vt 0.302526 0.017991
vt 0.813907 0.405884
vt 0.768761 0.602226
vt 0.696581 0.017991
vt 0.828216 0.231575
vt 0.661086 1.000000
vt 0.499554 0.602226
vt 0.499554 1.000000
vt 0.338022 1.000000
vt 0.230347 0.602226
vt 0.499554 0.231575
vt 0.499554 0.405884
vt 0.185200 0.405884
vt 0.170892 0.231575
vt 0.499554 0.017991
vt 0.302526 0.017991
vt 0.813907 0.405884
vt 0.768761 0.602226
vt 0.696581 0.017991
vt 0.828216 0.231575
vt 0.661086 1.000000
vn 0.4531 0.8886 0.0715
vn 0.4040 0.7887 0.4634
vn 0.4106 0.5023 0.7610
vn 0.4200 0.8741 0.2442
vn -0.1899 0.9275 0.3221
vn -0.1155 0.5484 0.8282
vn -0.1345 0.8358 0.5322
vn -0.2621 0.9512 0.1630
vn 0.2330 0.9453 0.2281
vn -0.3300 0.9401 0.0851
vn -0.7595 0.6495 -0.0376
vn -0.0115 0.9829 0.1839
vn 0.0707 0.9796 -0.1883
vn -0.7021 0.6472 -0.2970
vn -0.2599 0.9373 -0.2321
vn 0.3110 0.9422 -0.1245
vn -0.1093 0.9940 0.0054
vn 0.3143 0.9189 -0.2384
vn 0.7185 0.6180 -0.3190
vn 0.0242 0.9810 -0.1926
vn 0.1160 0.9773 0.1773
vn 0.7872 0.6153 -0.0423
vn 0.3935 0.9157 0.0810
vn -0.0945 0.9934 0.0650
vn 0.3707 0.9237 -0.0967
vn 0.1208 0.9382 0.3243
vn -0.1278 0.6653 0.7355
vn 0.2656 0.9566 0.1203
vn -0.2372 0.9665 -0.0976
vn -0.4271 0.6712 0.6058
vn -0.2877 0.9463 0.1472
vn -0.1518 0.9341 -0.3232
vn 0.1211 0.9554 0.2694
vn -0.3005 0.8606 0.4112
vn -0.6453 0.5531 0.5270
vn -0.0631 0.9389 0.3385
vn -0.2359 0.9709 -0.0404
vn -0.7848 0.5790 0.2211
vn -0.4516 0.8886 0.0799
vn -0.0619 0.9893 -0.1318
vn -0.1048 0.9892 0.1027
vn -0.4603 0.8488 -0.2601
vn -0.6829 0.5580 -0.4715
vn -0.2750 0.9594 -0.0634
vn -0.0865 0.9608 -0.2635
vn -0.5158 0.5593 -0.6489
vn -0.2934 0.8500 -0.4375
vn 0.0895 0.9906 -0.1033
vn -0.4076 0.9090 0.0868
vn -0.0795 0.8689 -0.4886
vn 0.0329 0.5436 -0.8387
vn -0.2076 0.9545 -0.2139
vn 0.2126 0.9706 -0.1132
vn 0.3113 0.5542 -0.7720
vn 0.2293 0.8806 -0.4146
vn 0.2597 0.9353 0.2403
vn -0.0403 0.9817 -0.1863
vn 0.5401 0.8410 -0.0331
vn 0.8611 0.5062 0.0475
vn 0.3188 0.9420 -0.1046
vn 0.2418 0.9403 0.2394
vn 0.7982 0.5048 0.3287
vn 0.4727 0.8395 0.2680
vn -0.1176 0.9800 0.1608
vn 0.1173 0.9546 -0.2739
vn 0.3071 0.9486 0.0767
vn 0.5675 0.6709 0.4773
vn 0.2268 0.9666 -0.1194
vn -0.1374 0.9732 0.1842
vn 0.3819 0.6743 0.6321
vn 0.0407 0.9534 0.2988
vn -0.2699 0.9617 0.0488
usemtl None
s off
f 15/1/1 12/2/1 4/3/1 10/4/1
f 14/5/2 13/6/2 6/7/2 7/8/2
f 11/9/3 14/5/3 7/8/3 3/10/3
f 13/6/4 15/1/4 10/4/4 6/7/4
f 5/11/5 9/12/5 15/1/5 13/6/5
f 1/13/6 8/14/6 14/5/6 11/9/6
f 8/14/7 5/11/7 13/6/7 14/5/7
f 9/12/8 2/15/8 12/2/8 15/1/8
f 30/16/9 27/17/9 19/18/9 25/19/9
f 29/20/10 28/21/10 21/22/10 22/23/10
f 26/24/11 29/20/11 22/23/11 18/25/11
f 28/21/12 30/16/12 25/19/12 21/22/12
f 20/26/13 24/27/13 30/16/13 28/21/13
f 16/28/14 23/29/14 29/20/14 26/24/14
f 23/29/15 20/26/15 28/21/15 29/20/15
f 24/27/16 17/30/16 27/17/16 30/16/16
f 45/31/17 42/32/17 34/33/17 40/34/17
f 44/35/18 43/36/18 36/37/18 37/38/18
f 41/39/19 44/35/19 37/38/19 33/40/19
f 43/36/20 45/31/20 40/34/20 36/37/20
f 35/41/21 39/42/21 45/31/21 43/36/21
f 31/43/22 38/44/22 44/35/22 41/39/22
f 38/44/23 35/41/23 43/36/23 44/35/23
f 39/42/24 32/45/24 42/32/24 45/31/24
f 60/46/25 57/47/25 49/48/25 55/49/25
f 59/50/26 58/51/26 51/52/26 52/53/26
f 56/54/27 59/50/27 52/53/27 48/55/27
f 58/51/28 60/46/28 55/49/28 51/52/28
f 50/56/29 54/57/29 60/46/29 58/51/29
f 46/58/30 53/59/30 59/50/30 56/54/30
f 53/59/31 50/56/31 58/51/31 59/50/31
f 54/57/32 47/60/32 57/47/32 60/46/32
f 75/61/33 72/62/33 64/63/33 70/64/33
f 74/65/34 73/66/34 66/67/34 67/68/34
f 71/69/35 74/65/35 67/68/35 63/70/35
f 73/66/36 75/61/36 70/64/36 66/67/36
f 65/71/37 69/72/37 75/61/37 73/66/37
f 61/73/38 68/74/38 74/65/38 71/69/38
f 68/74/39 65/71/39 73/66/39 74/65/39
f 69/72/40 62/75/40 72/62/40 75/61/40
f 90/76/41 87/77/41 79/78/41 85/79/41
f 89/80/42 88/81/42 81/82/42 82/83/42
f 86/84/43 89/80/43 82/83/43 78/85/43
f 88/81/44 90/76/44 85/79/44 81/82/44
f 80/86/45 84/87/45 90/76/45 88/81/45
f 76/88/46 83/89/46 89/80/46 86/84/46
f 83/89/47 80/86/47 88/81/47 89/80/47
f 84/87/48 77/90/48 87/77/48 90/76/48
f 105/91/49 102/92/49 94/93/49 100/94/49
f 104/95/50 103/96/50 96/97/50 97/98/50
f 101/99/51 104/95/51 97/98/51 93/100/51
f 103/96/52 105/91/52 100/94/52 96/97/52
f 95/101/53 99/102/53 105/91/53 103/96/53
f 91/103/54 98/104/54 104/95/54 101/99/54
f 98/104/55 95/101/55 103/96/55 104/95/55
f 99/102/56 92/105/56 102/92/56 105/91/56
f 120/106/57 117/107/57 109/108/57 115/109/57
f 119/110/58 118/111/58 111/112/58 112/113/58
f 116/114/59 119/110/59 112/113/59 108/115/59
f 118/111/60 120/106/60 115/109/60 111/112/60
f 110/116/61 114/117/61 120/106/61 118/111/61
f 106/118/62 113/119/62 119/110/62 116/114/62
f 113/119/63 110/116/63 118/111/63 119/110/63
f 114/117/64 107/120/64 117/107/64 120/106/64
f 135/121/65 132/122/65 124/123/65 130/124/65
f 134/125/66 133/126/66 126/127/66 127/128/66
f 131/129/67 134/125/67 127/128/67 123/130/67
f 133/126/68 135/121/68 130/124/68 126/127/68
f 125/131/69 129/132/69 135/121/69 133/126/69
f 121/133/70 128/134/70 134/125/70 131/129/70
f 128/134/71 125/131/71 133/126/71 134/125/71
f 129/132/72 122/135/72 132/122/72 135/121/72
