# Blender v3.2.0 OBJ File: 'meadows.blend'
# www.blender.org
mtllib Meadows Dense.mtl
o Plane
v -0.025000 0.000000 0.000000
v 0.025000 0.000000 0.000000
v -0.025000 0.100000 0.000000
v 0.025000 0.100000 0.000000
v -0.075000 0.100000 0.075000
v 0.075000 0.100000 0.075000
v -0.075000 0.100000 -0.075000
v 0.075000 0.100000 -0.075000
vt 0.499890 0.750000
vt 0.499890 0.999890
vt 0.000110 0.999890
vt 0.000110 0.750000
vt 0.000110 0.749779
vt 0.000110 0.000110
vt 0.749779 0.000110
vt 0.749779 0.749779
vn 0.0000 0.0000 1.0000
vn 0.0000 1.0000 0.0000
usemtl None
s off
f 1/1/1 2/2/1 4/3/1 3/4/1
f 5/5/2 6/6/2 8/7/2 7/8/2
o Plane.001_Plane.002
v 0.092845 0.000000 -0.080991
v 0.134187 0.000000 -0.052869
v 0.092845 0.119395 -0.080991
v 0.134187 0.119395 -0.052869
v 0.009320 0.121668 -0.047098
v 0.133347 0.115189 0.037266
v 0.093684 0.129489 -0.171125
v 0.217711 0.124599 -0.086762
vt 0.499890 0.750000
vt 0.499890 0.999890
vt 0.000110 0.999890
vt 0.000110 0.750000
vt 0.000110 0.749779
vt 0.000110 0.000110
vt 0.749779 0.000110
vt 0.749779 0.749779
vn -0.5624 0.0000 0.8268
vn -0.0010 0.9976 0.0686
usemtl None
s off
f 9/9/3 10/10/3 12/11/3 11/12/3
f 13/13/4 14/14/4 16/15/4 15/16/4
o Plane.002_Plane.003
v -0.038796 -0.000000 0.133808
v -0.001999 -0.000000 0.099956
v -0.038796 0.080992 0.133808
v -0.001999 0.080992 0.099956
v -0.024815 0.090158 0.222856
v 0.085577 0.087190 0.121299
v -0.126371 0.089232 0.112464
v -0.015979 0.082304 0.010908
vt 0.499890 0.750000
vt 0.499890 0.999890
vt 0.000110 0.999890
vt 0.000110 0.750000
vt 0.000110 0.749779
vt 0.000110 0.000110
vt 0.749779 0.000110
vt 0.749779 0.749779
vn 0.6770 0.0000 0.7359
vn 0.0112 0.9993 -0.0366
usemtl None
s off
f 17/17/5 18/18/5 20/19/5 19/20/5
f 21/21/6 22/22/6 24/23/6 23/24/6
o Plane.003_Plane.004
v -0.156043 0.000000 0.011293
v -0.135893 0.000000 -0.034467
v -0.156043 0.113031 0.011293
v -0.135893 0.113031 -0.034467
v -0.107552 0.111363 0.087278
v -0.047103 0.111363 -0.050002
v -0.244833 0.116663 0.026828
v -0.184383 0.121221 -0.110452
vt 0.499890 0.750000
vt 0.499890 0.999890
vt 0.000110 0.999890
vt 0.000110 0.750000
vt 0.000110 0.749779
vt 0.000110 0.000110
vt 0.749779 0.000110
vt 0.749779 0.749779
vn 0.9152 0.0000 0.4030
vn 0.0401 0.9986 0.0342
usemtl None
s off
f 25/25/7 26/26/7 28/27/7 27/28/7
f 29/29/8 30/30/8 32/31/8 31/32/8
o Plane.004_Plane.005
v 0.073085 -0.000000 0.090614
v 0.076379 -0.000000 0.140505
v 0.073085 0.084468 0.090614
v 0.076379 0.084468 0.140505
v -0.005046 0.090044 0.045663
v 0.004836 0.084058 0.195338
v 0.144628 0.090044 0.035782
v 0.154510 0.084058 0.185456
vt 0.499890 0.750000
vt 0.499890 0.999890
vt 0.000110 0.999890
vt 0.000110 0.750000
vt 0.000110 0.749779
vt 0.000110 0.000110
vt 0.749779 0.000110
vt 0.749779 0.749779
vn -0.9978 0.0000 0.0659
vn 0.0026 0.9992 0.0398
usemtl None
s off
f 33/33/9 34/34/9 36/35/9 35/36/9
f 37/37/10 38/38/10 40/39/10 39/40/10
o Plane.005_Plane.006
v 0.101735 0.000000 0.030252
v 0.142255 0.000000 0.000958
v 0.101735 0.096252 0.030252
v 0.142255 0.096252 0.000958
v 0.105155 0.100320 0.120325
v 0.226716 0.096252 0.032445
v 0.017275 0.096252 -0.001235
v 0.138835 0.095420 -0.089116
vt 0.499890 0.750000
vt 0.499890 0.999890
vt 0.000110 0.999890
vt 0.000110 0.750000
vt 0.000110 0.749779
vt 0.000110 0.000110
vt 0.749779 0.000110
vt 0.749779 0.749779
vn 0.5859 0.0000 0.8104
vn 0.0037 0.9997 -0.0228
usemtl None
s off
f 41/41/11 42/42/11 44/43/11 43/44/11
f 45/45/12 46/46/12 48/47/12 47/48/12
o Plane.006_Plane.007
v -0.106345 0.000000 0.176062
v -0.122743 0.000000 0.128827
v -0.106345 0.080142 0.176062
v -0.122743 0.080142 0.128827
v -0.019096 0.077047 0.198700
v -0.068289 0.077047 0.056996
v -0.160800 0.088060 0.247893
v -0.209993 0.088060 0.106189
vt 0.499890 0.750000
vt 0.499890 0.999890
vt 0.000110 0.999890
vt 0.000110 0.750000
vt 0.000110 0.749779
vt 0.000110 0.000110
vt 0.749779 0.000110
vt 0.749779 0.749779
vn 0.9447 0.0000 -0.3280
vn 0.0692 0.9973 -0.0240
usemtl None
s off
f 49/49/13 50/50/13 52/51/13 51/52/13
f 53/53/14 54/54/14 56/55/14 55/56/14
o Plane.007_Plane.008
v -0.113086 0.000000 0.069857
v -0.065291 0.000000 0.055173
v -0.113086 0.076298 0.069857
v -0.065291 0.076298 0.055173
v -0.138855 0.076298 0.156234
v 0.004530 0.076298 0.112181
v -0.182908 0.076298 0.012849
v -0.039522 0.076298 -0.031204
vt 0.499890 0.750000
vt 0.499890 0.999890
vt 0.000110 0.999890
vt 0.000110 0.750000
vt 0.000110 0.749779
vt 0.000110 0.000110
vt 0.749779 0.000110
vt 0.749779 0.749779
vn 0.2937 0.0000 0.9559
vn 0.0000 1.0000 0.0000
usemtl None
s off
f 57/57/15 58/58/15 60/59/15 59/60/15
f 61/61/16 62/62/16 64/63/16 63/64/16
o Plane.008_Plane.009
v -0.087503 0.000000 -0.075615
v -0.043046 0.000000 -0.098496
v -0.087503 0.060577 -0.075615
v -0.043046 0.060577 -0.098496
v -0.097638 0.061303 0.013953
v 0.035733 0.064815 -0.054692
v -0.166283 0.064815 -0.119419
v -0.032911 0.068515 -0.188063
vt 0.499890 0.750000
vt 0.499890 0.999890
vt 0.000110 0.999890
vt 0.000110 0.750000
vt 0.000110 0.749779
vt 0.000110 0.000110
vt 0.749779 0.000110
vt 0.749779 0.749779
vn 0.4576 0.0000 0.8891
vn -0.0104 0.9994 0.0324
usemtl None
s off
f 65/65/17 66/66/17 68/67/17 67/68/17
f 69/69/18 70/70/18 72/71/18 71/72/18
o Plane.009_Plane.010
v 0.057111 0.000000 -0.091299
v 0.021364 0.000000 -0.126259
v 0.057111 0.086549 -0.091299
v 0.021364 0.086549 -0.126259
v 0.145297 0.087426 -0.109959
v 0.038058 0.079809 -0.214839
v 0.040417 0.087426 -0.002720
v -0.066822 0.091260 -0.107600
vt 0.499890 0.750000
vt 0.499890 0.999890
vt 0.000110 0.999890
vt 0.000110 0.750000
vt 0.000110 0.749779
vt 0.000110 0.000110
vt 0.749779 0.000110
vt 0.749779 0.749779
vn 0.6992 0.0000 -0.7149
vn 0.0177 0.9992 -0.0361
usemtl None
s off
f 73/73/19 74/74/19 76/75/19 75/76/19
f 77/77/20 78/78/20 80/79/20 79/80/20
