# Blender v3.2.0 OBJ File: 'meadows.blend'
# www.blender.org
mtllib Meadows Single.mtl
o Plane
v -0.025000 0.000000 0.000000
v 0.025000 0.000000 0.000000
v -0.025000 0.100000 0.000000
v 0.025000 0.100000 0.000000
v -0.075000 0.100000 0.075000
v 0.075000 0.100000 0.075000
v -0.075000 0.100000 -0.075000
v 0.075000 0.100000 -0.075000
vt 0.499890 0.750000
vt 0.499890 0.999890
vt 0.000110 0.999890
vt 0.000110 0.750000
vt 0.000110 0.749779
vt 0.000110 0.000110
vt 0.749779 0.000110
vt 0.749779 0.749779
vn 0.0000 0.0000 1.0000
vn 0.0000 1.0000 0.0000
usemtl None
s off
f 1/1/1 2/2/1 4/3/1 3/4/1
f 5/5/2 6/6/2 8/7/2 7/8/2
