# Blender v3.2.0 OBJ File: 'meadows.blend'
# www.blender.org
mtllib Meadows Few.mtl
o Plane
v -0.025000 0.000000 0.000000
v 0.025000 0.000000 0.000000
v -0.025000 0.100000 0.000000
v 0.025000 0.100000 0.000000
v -0.075000 0.100000 0.075000
v 0.075000 0.100000 0.075000
v -0.075000 0.100000 -0.075000
v 0.075000 0.100000 -0.075000
vt 0.499890 0.750000
vt 0.499890 0.999890
vt 0.000110 0.999890
vt 0.000110 0.750000
vt 0.000110 0.749779
vt 0.000110 0.000110
vt 0.749779 0.000110
vt 0.749779 0.749779
vn 0.0000 0.0000 1.0000
vn 0.0000 1.0000 0.0000
usemtl None
s off
f 1/1/1 2/2/1 4/3/1 3/4/1
f 5/5/2 6/6/2 8/7/2 7/8/2
o Plane.002_Plane.003
v -0.038796 -0.000000 0.133808
v -0.001999 -0.000000 0.099956
v -0.038796 0.080992 0.133808
v -0.001999 0.080992 0.099956
v -0.024815 0.090158 0.222856
v 0.085577 0.087190 0.121299
v -0.126371 0.089232 0.112464
v -0.015979 0.082304 0.010908
vt 0.499890 0.750000
vt 0.499890 0.999890
vt 0.000110 0.999890
vt 0.000110 0.750000
vt 0.000110 0.749779
vt 0.000110 0.000110
vt 0.749779 0.000110
vt 0.749779 0.749779
vn 0.6770 0.0000 0.7359
vn 0.0112 0.9993 -0.0366
usemtl None
s off
f 9/9/3 10/10/3 12/11/3 11/12/3
f 13/13/4 14/14/4 16/15/4 15/16/4
o Plane.003_Plane.004
v -0.156043 0.000000 0.011293
v -0.135893 0.000000 -0.034467
v -0.156043 0.113031 0.011293
v -0.135893 0.113031 -0.034467
v -0.107552 0.111363 0.087278
v -0.047103 0.111363 -0.050002
v -0.244833 0.116663 0.026828
v -0.184383 0.121221 -0.110452
vt 0.499890 0.750000
vt 0.499890 0.999890
vt 0.000110 0.999890
vt 0.000110 0.750000
vt 0.000110 0.749779
vt 0.000110 0.000110
vt 0.749779 0.000110
vt 0.749779 0.749779
vn 0.9152 0.0000 0.4030
vn 0.0401 0.9986 0.0342
usemtl None
s off
f 17/17/5 18/18/5 20/19/5 19/20/5
f 21/21/6 22/22/6 24/23/6 23/24/6
