# Blender v3.2.0 OBJ File: 'meadows.blend'
# www.blender.org
mtllib Meadows Dense - LOD 1.mtl
o Plane
v -0.075000 0.100000 0.075000
v 0.075000 0.100000 0.075000
v -0.075000 0.100000 -0.075000
v 0.075000 0.100000 -0.075000
vt 0.000110 0.749779
vt 0.000110 0.000110
vt 0.749779 0.000110
vt 0.749779 0.749779
vn 0.0000 1.0000 0.0000
usemtl None
s off
f 1/1/1 2/2/1 4/3/1 3/4/1
o Plane.001_Plane.002
v 0.009320 0.105118 -0.047098
v 0.133347 0.098639 0.037266
v 0.093684 0.129489 -0.171125
v 0.217711 0.124599 -0.086762
vt 0.000110 0.749779
vt 0.000110 0.000110
vt 0.749779 0.000110
vt 0.749779 0.749779
vn -0.0621 0.9855 0.1577
usemtl None
s off
f 5/5/2 6/6/2 8/7/2 7/8/2
o Plane.002_Plane.003
v -0.024815 0.090158 0.222856
v 0.085577 0.087190 0.121299
v -0.126371 0.081714 0.112464
v -0.015979 0.074786 0.010908
vt 0.000110 0.749779
vt 0.000110 0.000110
vt 0.749779 0.000110
vt 0.749779 0.749779
vn -0.0227 0.9971 -0.0733
usemtl None
s off
f 9/9/3 10/10/3 12/11/3 11/12/3
o Plane.003_Plane.004
v -0.107552 0.097993 0.087278
v -0.047103 0.097993 -0.050002
v -0.244833 0.116663 0.026828
v -0.184383 0.121221 -0.110452
vt 0.000110 0.749779
vt 0.000110 0.000110
vt 0.749779 0.000110
vt 0.749779 0.749779
vn 0.1205 0.9903 0.0695
usemtl None
s off
f 13/13/4 14/14/4 16/15/4 15/16/4
o Plane.004_Plane.005
v -0.005046 0.099133 0.045663
v 0.004836 0.084058 0.195338
v 0.144628 0.090044 0.035782
v 0.154510 0.080822 0.185456
vt 0.000110 0.749779
vt 0.000110 0.000110
vt 0.749779 0.000110
vt 0.749779 0.749779
vn 0.0461 0.9959 0.0778
usemtl None
s off
f 17/17/5 18/18/5 20/19/5 19/20/5
o Plane.005_Plane.006
v 0.105155 0.100320 0.120325
v 0.226716 0.096252 0.032445
v 0.017275 0.096252 -0.001235
v 0.138835 0.095420 -0.089116
vt 0.000110 0.749779
vt 0.000110 0.000110
vt 0.749779 0.000110
vt 0.749779 0.749779
vn 0.0037 0.9997 -0.0228
usemtl None
s off
f 21/21/6 22/22/6 24/23/6 23/24/6
o Plane.006_Plane.007
v -0.019096 0.066165 0.198700
v -0.068289 0.066165 0.056996
v -0.160800 0.088060 0.247893
v -0.209993 0.088060 0.106189
vt 0.000110 0.749779
vt 0.000110 0.000110
vt 0.749779 0.000110
vt 0.749779 0.749779
vn 0.1365 0.9895 -0.0474
usemtl None
s off
f 25/25/7 26/26/7 28/27/7 27/28/7
o Plane.007_Plane.008
v -0.138855 0.076298 0.156234
v 0.004530 0.076298 0.112181
v -0.182908 0.076298 0.012849
v -0.039522 0.076298 -0.031204
vt 0.000110 0.749779
vt 0.000110 0.000110
vt 0.749779 0.000110
vt 0.749779 0.749779
vn 0.0000 1.0000 0.0000
usemtl None
s off
f 29/29/8 30/30/8 32/31/8 31/32/8
o Plane.008_Plane.009
v -0.097638 0.061303 0.013953
v 0.035733 0.064815 -0.054692
v -0.166283 0.043000 -0.119419
v -0.032911 0.046700 -0.188063
vt 0.000110 0.749779
vt 0.000110 0.000110
vt 0.749779 0.000110
vt 0.749779 0.749779
vn -0.0763 0.9924 -0.0962
usemtl None
s off
f 33/33/9 34/34/9 36/35/9 35/36/9
o Plane.009_Plane.010
v 0.145297 0.069911 -0.109959
v 0.038058 0.069443 -0.214839
v 0.040417 0.087426 -0.002720
v -0.066822 0.091260 -0.107600
vt 0.000110 0.749779
vt 0.000110 0.000110
vt 0.749779 0.000110
vt 0.749779 0.749779
vn 0.0988 0.9915 -0.0852
usemtl None
s off
f 37/37/10 38/38/10 40/39/10 39/40/10
