o Plane
v -0.000000 1.125000 -0.750000
v 0.000000 -0.000000 -0.750000
v -0.000000 1.125000 0.750000
v 0.000000 -0.000000 0.750000
v -0.000000 1.125000 -0.000000
v 0.000000 -0.000000 0.000000
v 0.000000 0.562500 -0.750000
v -0.000000 0.562500 0.750000
v -0.000000 0.562500 -0.000000
v -0.000000 0.843750 0.750000
v -0.000000 0.843750 -0.000000
v -0.000000 0.843750 -0.750000
v 0.000000 0.281250 -0.750000
v 0.000000 0.281250 0.750000
v 0.000000 0.281250 -0.000000
vt 0.500000 0.187554
vt 0.500000 0.000087
vt 0.999913 0.000087
vt 0.999913 0.187554
vt 0.000087 0.187554
vt 0.000087 0.000087
vt 0.000087 0.562489
vt 0.000087 0.375022
vt 0.500000 0.375022
vt 0.500000 0.562489
vt 0.999913 0.375022
vt 0.999913 0.562489
vt 0.500000 0.749957
vt 0.999913 0.749956
vt 0.000087 0.749957
vn -1.0000 -0.0000 -0.0000
usemtl None
s off
f 15/1/1 6/2/1 4/3/1 14/4/1
f 13/5/1 2/6/1 6/2/1 15/1/1
f 12/7/1 7/8/1 9/9/1 11/10/1
f 11/10/1 9/9/1 8/11/1 10/12/1
f 5/13/1 11/10/1 10/12/1 3/14/1
f 1/15/1 12/7/1 11/10/1 5/13/1
f 7/8/1 13/5/1 15/1/1 9/9/1
f 9/9/1 15/1/1 14/4/1 8/11/1
