o Plane
v 0.000000 -0.000000 -0.375000
v 0.000000 -0.000000 0.375000
v 0.000000 -0.000000 -0.000000
v 0.000000 0.750000 -0.375000
v 0.000000 0.750000 0.375000
v 0.000000 1.125000 0.375000
v 0.000000 1.125000 -0.375000
v 0.000000 0.375000 -0.375000
v 0.000000 0.375000 0.375000
v 0.000000 0.375000 -0.000000
v 0.375000 -0.000000 0.000000
v -0.375000 0.000000 0.000000
v 0.375000 0.750000 -0.000000
v -0.375000 0.750000 0.000000
v 0.000000 0.750000 -0.000000
v -0.375000 1.125000 -0.000000
v 0.000000 1.125000 -0.000000
v 0.375000 1.125000 -0.000000
v 0.375000 0.375000 -0.000000
v -0.375000 0.375000 0.000000
vt 0.500221 0.333932
vt 0.500221 0.003171
vt 0.830982 0.003171
vt 0.830982 0.333932
vt 0.169461 0.333932
vt 0.169461 0.003171
vt 0.169461 0.995453
vt 0.169461 0.664692
vt 0.500221 0.664692
vt 0.500221 0.995453
vt 0.830982 0.664692
vt 0.830982 0.995453
vt 0.830982 0.003171
vt 0.830982 0.333932
vt 0.169461 0.333932
vt 0.169461 0.003171
vt 0.169461 0.995453
vt 0.169461 0.664692
vt 0.830982 0.664692
vt 0.830982 0.995453
vn -1.0000 -0.0000 0.0000
vn -0.0000 -0.0000 -1.0000
usemtl None
s off
f 10/1/1 3/2/1 2/3/1 9/4/1
f 8/5/1 1/6/1 3/2/1 10/1/1
f 7/7/1 4/8/1 15/9/1 17/10/1
f 17/10/1 15/9/1 5/11/1 6/12/1
f 4/8/1 8/5/1 10/1/1 15/9/1
f 15/9/1 10/1/1 9/4/1 5/11/1
f 10/1/2 3/2/2 12/13/2 20/14/2
f 19/15/2 11/16/2 3/2/2 10/1/2
f 18/17/2 13/18/2 15/9/2 17/10/2
f 17/10/2 15/9/2 14/19/2 16/20/2
f 13/18/2 19/15/2 10/1/2 15/9/2
f 15/9/2 10/1/2 20/14/2 14/19/2
