# Blender v3.2.0 OBJ File: 'short-grass.blend'
# www.blender.org
mtllib Short Grass.mtl
o Plane
v 0.000000 0.000000 1.119375
v 0.000000 -0.000000 -1.130625
v 0.000000 0.375000 1.122500
v 0.000000 0.375000 -1.127500
v 0.000000 0.187500 1.122500
v 0.000000 0.187500 -1.127500
v 0.000000 0.000000 -0.005625
v 0.000000 0.375000 -0.002500
v 0.000000 0.187500 -0.002500
v 0.000000 -0.000000 -0.568125
v 0.000000 0.375000 -0.565000
v 0.000000 0.187500 -0.565000
v 0.000000 0.000000 0.572500
v 0.000000 0.375000 0.575625
v 0.000000 0.187500 0.575625
vt 0.749968 0.084934
vt 0.749969 0.001611
vt 0.999940 0.001611
vt 0.999940 0.084934
vt 0.749968 0.168258
vt 0.999940 0.168258
vt 0.243083 0.168258
vt 0.243083 0.084934
vt 0.499997 0.084934
vt 0.499997 0.168258
vt 0.243083 0.001611
vt 0.499997 0.001611
vt 0.000055 0.084934
vt 0.000055 0.001611
vt 0.000055 0.168258
vn 1.0000 0.0000 -0.0000
usemtl None
s off
f 12/1/1 10/2/1 2/3/1 6/4/1
f 11/5/1 12/1/1 6/4/1 4/6/1
f 14/7/1 15/8/1 9/9/1 8/10/1
f 15/8/1 13/11/1 7/12/1 9/9/1
f 8/10/1 9/9/1 12/1/1 11/5/1
f 9/9/1 7/12/1 10/2/1 12/1/1
f 5/13/1 1/14/1 13/11/1 15/8/1
f 3/15/1 5/13/1 15/8/1 14/7/1
