# Blender v3.2.0 OBJ File: 'tall-plant.blend'
# www.blender.org
mtllib Tall Plant.mtl
o Plane
v 0.000000 1.500000 -0.375000
v 0.000000 -0.000000 -0.375000
v 0.000000 1.500000 0.375000
v 0.000000 -0.000000 0.375000
v 0.000000 1.500000 0.000000
v 0.000000 -0.000000 -0.000000
v 0.000000 0.750000 -0.375000
v 0.000000 0.750000 0.375000
v 0.000000 0.750000 0.000000
v 0.000000 1.125000 0.375000
v 0.000000 1.125000 0.000000
v 0.000000 1.125000 -0.375000
v 0.000000 0.375000 -0.375000
v 0.000000 0.375000 0.375000
v 0.000000 0.375000 -0.000000
vt 0.500035 0.250035
vt 0.500035 0.000071
vt 0.750000 0.000071
vt 0.750000 0.250035
vt 0.250071 0.250035
vt 0.250071 0.000071
vt 0.250071 0.749965
vt 0.250071 0.500000
vt 0.500035 0.500000
vt 0.500035 0.749965
vt 0.750000 0.500000
vt 0.750000 0.749965
vt 0.500035 0.999929
vt 0.750000 0.999929
vt 0.250071 0.999929
vn -1.0000 -0.0000 0.0000
usemtl None
s off
f 15/1/1 6/2/1 4/3/1 14/4/1
f 13/5/1 2/6/1 6/2/1 15/1/1
f 12/7/1 7/8/1 9/9/1 11/10/1
f 11/10/1 9/9/1 8/11/1 10/12/1
f 5/13/1 11/10/1 10/12/1 3/14/1
f 1/15/1 12/7/1 11/10/1 5/13/1
f 7/8/1 13/5/1 15/1/1 9/9/1
f 9/9/1 15/1/1 14/4/1 8/11/1
o Plane.001
v 0.375000 1.500000 -0.000000
v 0.375000 -0.000000 0.000000
v -0.375000 1.500000 -0.000000
v -0.375000 0.000000 0.000000
v 0.000000 1.500000 -0.000000
v 0.000000 -0.000000 0.000000
v 0.375000 0.750000 -0.000000
v -0.375000 0.750000 0.000000
v 0.000000 0.750000 -0.000000
v -0.375000 1.125000 -0.000000
v 0.000000 1.125000 -0.000000
v 0.375000 1.125000 -0.000000
v 0.375000 0.375000 -0.000000
v -0.375000 0.375000 0.000000
v 0.000000 0.375000 0.000000
vt 0.500035 0.250035
vt 0.500035 0.000071
vt 0.750000 0.000071
vt 0.750000 0.250035
vt 0.250071 0.250035
vt 0.250071 0.000071
vt 0.250071 0.749965
vt 0.250071 0.500000
vt 0.500035 0.500000
vt 0.500035 0.749965
vt 0.750000 0.500000
vt 0.750000 0.749965
vt 0.500035 0.999929
vt 0.750000 0.999929
vt 0.250071 0.999929
vn -0.0000 -0.0000 -1.0000
usemtl None
s off
f 30/16/2 21/17/2 19/18/2 29/19/2
f 28/20/2 17/21/2 21/17/2 30/16/2
f 27/22/2 22/23/2 24/24/2 26/25/2
f 26/25/2 24/24/2 23/26/2 25/27/2
f 20/28/2 26/25/2 25/27/2 18/29/2
f 16/30/2 27/22/2 26/25/2 20/28/2
f 22/23/2 28/20/2 30/16/2 24/24/2
f 24/24/2 30/16/2 29/19/2 23/26/2
