# Blender v3.2.0 OBJ File: 'tall-grass.blend'
# www.blender.org
mtllib Tall Grass Small.mtl
o Plane.001
v 0.000000 0.000000 -0.005625
v 0.000000 0.349500 -0.002500
v -0.000000 0.525000 -0.002500
v 0.000000 0.174000 -0.002500
v 0.000000 -0.000000 -0.527344
v 0.000000 0.349500 -0.524219
v -0.000000 0.525000 -0.524219
v 0.000000 0.174000 -0.524219
v 0.000000 0.000000 0.522656
v 0.000000 0.349500 0.525781
v -0.000000 0.525000 0.525781
v 0.000000 0.174000 0.525781
vt 0.243083 0.168258
vt 0.243083 0.084934
vt 0.499997 0.084934
vt 0.499997 0.168258
vt 0.243083 0.251582
vt 0.499997 0.251582
vt 0.243083 0.001611
vt 0.499997 0.001611
vt 0.749968 0.084934
vt 0.749968 0.168258
vt 0.749968 0.251582
vt 0.749969 0.001611
vn 1.0000 0.0000 -0.0000
usemtl None.001
s off
f 10/1/1 12/2/1 4/3/1 2/4/1
f 11/5/1 10/1/1 2/4/1 3/6/1
f 12/2/1 9/7/1 1/8/1 4/3/1
f 2/4/1 4/3/1 8/9/1 6/10/1
f 3/6/1 2/4/1 6/10/1 7/11/1
f 4/3/1 1/8/1 5/12/1 8/9/1
