# Blender v3.2.0 OBJ File: ''
# www.blender.org
mtllib Tall Grass.mtl
o Plane
v -0.000000 0.750000 1.122500
v 0.000000 0.000000 1.119375
v -0.000000 0.750000 -1.127500
v 0.000000 -0.000000 -1.130625
v 0.000000 0.375000 1.122500
v 0.000000 0.375000 -1.127500
v -0.000000 0.562500 -1.127500
v -0.000000 0.562500 1.122500
v 0.000000 0.187500 1.122500
v 0.000000 0.187500 -1.127500
v -0.000000 0.750000 -0.002500
v 0.000000 0.000000 -0.005625
v 0.000000 0.375000 -0.002500
v -0.000000 0.562500 -0.002500
v 0.000000 0.187500 -0.002500
v 0.000000 -0.000000 -0.568125
v 0.000000 0.375000 -0.565000
v -0.000000 0.562500 -0.565000
v 0.000000 0.187500 -0.565000
v -0.000000 0.750000 -0.565000
v -0.000000 0.750000 0.575625
v 0.000000 0.000000 0.572500
v 0.000000 0.375000 0.575625
v -0.000000 0.562500 0.575625
v 0.000000 0.187500 0.575625
vt 0.749968 0.084934
vt 0.749969 0.001611
vt 0.999940 0.001611
vt 0.999940 0.084934
vt 0.749968 0.251582
vt 0.749968 0.168258
vt 0.999940 0.168258
vt 0.999940 0.251582
vt 0.749968 0.334905
vt 0.999940 0.334905
vt 0.243083 0.168258
vt 0.243083 0.084934
vt 0.499997 0.084934
vt 0.499997 0.168258
vt 0.243083 0.334905
vt 0.243083 0.251582
vt 0.499997 0.251582
vt 0.499997 0.334905
vt 0.243083 0.001611
vt 0.499997 0.001611
vt 0.000055 0.084934
vt 0.000055 0.001611
vt 0.000055 0.251582
vt 0.000055 0.168258
vt 0.000055 0.334905
vn 1.0000 0.0000 -0.0000
usemtl None
s off
f 19/1/1 16/2/1 4/3/1 10/4/1
f 18/5/1 17/6/1 6/7/1 7/8/1
f 20/9/1 18/5/1 7/8/1 3/10/1
f 17/6/1 19/1/1 10/4/1 6/7/1
f 23/11/1 25/12/1 15/13/1 13/14/1
f 21/15/1 24/16/1 14/17/1 11/18/1
f 24/16/1 23/11/1 13/14/1 14/17/1
f 25/12/1 22/19/1 12/20/1 15/13/1
f 13/14/1 15/13/1 19/1/1 17/6/1
f 11/18/1 14/17/1 18/5/1 20/9/1
f 14/17/1 13/14/1 17/6/1 18/5/1
f 15/13/1 12/20/1 16/2/1 19/1/1
f 9/21/1 2/22/1 22/19/1 25/12/1
f 8/23/1 5/24/1 23/11/1 24/16/1
f 1/25/1 8/23/1 24/16/1 21/15/1
f 5/24/1 9/21/1 25/12/1 23/11/1
