# Blender v3.2.0 OBJ File: 'tall-grass.blend'
# www.blender.org
mtllib Tall Grass - LOD 1.mtl
o Plane
v -0.000000 0.750000 1.122500
v 0.000000 0.000000 1.119375
v -0.000000 0.750000 -1.127500
v 0.000000 -0.000000 -1.130625
v -0.000000 0.750000 1.122500
v 0.000000 0.000000 1.119375
v -0.000000 0.750000 -1.127500
v 0.000000 -0.000000 -1.130625
vt 0.002441 0.001226
vt 0.001054 0.334059
vt 0.999552 0.334059
vt 1.000939 0.001227
vn -1.0000 -0.0000 0.0000
usemtl None
s off
f 6/1/1 5/2/1 7/3/1 8/4/1
l 1 5
l 2 6
l 3 7
l 4 8
