# Blender v3.2.0 OBJ File: 'twigs.blend'
# www.blender.org
mtllib Twig Medium 1.mtl
o Cube.004_Cube.002
v -0.202852 0.052926 -0.036349
v -0.163774 0.058354 0.018053
v -0.202054 -0.012380 -0.019634
v -0.202057 -0.000741 0.044231
v -0.005881 0.048990 -0.050911
v 0.000279 0.067344 0.023996
v -0.010577 -0.008097 0.048985
v 0.123032 -0.008608 -0.030008
v 0.192839 0.070946 -0.016088
v 0.243707 -0.011399 -0.003169
v 0.208611 -0.002020 0.073872
v 0.180075 0.054864 0.040527
vt 0.478950 0.993825
vt 0.351867 0.741821
vt 0.457095 0.740851
vt 1.000000 0.000000
vt 0.998712 0.275147
vt 0.892542 0.015030
vt 0.836565 0.374494
vt 1.000000 0.554806
vt 0.381200 0.715288
vt 0.394102 0.356482
vt 0.619258 0.168018
vt 0.280632 0.000000
vt 0.316342 0.321075
vt 0.023176 0.387800
vt 0.700969 0.741484
vt 0.814587 0.514446
vt 0.836565 0.836618
vt 0.634973 0.167595
vt 0.670410 0.000000
vt 0.082429 0.670200
vt 0.310397 0.660995
vt 0.316342 0.837185
vt 0.000000 0.780344
vt 0.316342 0.065115
vt 0.634973 0.000000
vt 0.316342 0.993825
vt 0.049338 0.113512
vt 0.898389 0.668493
vt 0.634973 0.740852
vt 0.836565 0.174931
vn -0.8110 0.1357 0.5690
vn -0.0524 0.9967 -0.0618
vn 0.0895 0.9656 -0.2440
vn -0.0742 -0.4827 -0.8727
vn -0.0114 0.3159 0.9487
vn -0.0422 -0.9829 0.1791
vn -0.0178 -0.9996 -0.0237
vn 0.7784 0.5585 0.2866
vn 0.7801 0.5332 0.3273
vn 0.2166 -0.0193 -0.9761
vn -0.1156 0.3273 0.9378
vn -0.8540 0.5119 -0.0933
vn 0.0018 0.9712 -0.2381
vn -0.0564 0.4347 0.8988
vn -0.1479 0.9596 0.2392
vn -0.0463 0.4878 0.8717
vn 0.1701 0.0231 -0.9852
vn -0.0280 -0.2482 -0.9683
vn 0.0125 -0.9995 0.0276
vn 0.0131 -0.9919 0.1267
usemtl None
s off
f 3/1/1 2/2/1 1/3/1
f 2/4/2 6/5/2 1/6/2
f 5/7/3 6/5/3 12/8/3
f 1/9/4 5/10/4 8/11/4
f 4/12/5 7/13/5 6/14/5
f 3/15/6 7/16/6 4/17/6
f 7/16/7 8/18/7 10/19/7
f 12/20/8 11/21/8 10/22/8
f 9/23/9 12/20/9 10/22/9
f 8/11/10 9/24/10 10/25/10
f 6/14/11 7/13/11 11/21/11
f 2/2/12 3/1/12 4/26/12
f 1/6/13 6/5/13 5/7/13
f 6/14/14 2/27/14 4/12/14
f 12/8/15 9/28/15 5/7/15
f 11/21/16 12/20/16 6/14/16
f 9/24/17 8/11/17 5/10/17
f 8/11/18 3/29/18 1/9/18
f 7/16/19 3/15/19 8/18/19
f 10/19/20 11/30/20 7/16/20
