# Blender v3.2.0 OBJ File: 'twigs.blend'
# www.blender.org
mtllib Twig Small 3.mtl
o Cube.003_Cube.005
v -0.137553 0.012225 -0.000525
v -0.032267 0.012875 -0.008806
v -0.145596 0.018805 0.016630
v -0.032267 0.017028 0.005413
v -0.131505 -0.001372 0.005590
v -0.032391 -0.001856 -0.003337
v -0.141221 0.000053 0.027336
v -0.032392 0.000735 0.010881
v 0.071288 0.009297 -0.011497
v 0.071668 0.011275 0.000576
v 0.069997 0.001376 0.004869
v 0.069617 -0.000601 -0.007204
v 0.200759 0.007556 0.004812
v 0.200256 0.000025 0.009122
v 0.196104 0.001640 0.019805
v 0.196606 0.009171 0.015495
vt 0.347203 0.069614
vt 0.409417 0.000000
vt 0.383651 0.341345
vt 0.334818 0.380405
vt 0.000000 0.017731
vt 0.119311 0.000000
vt 0.108493 0.343132
vt 0.007363 0.359003
vt 0.326812 0.986816
vt 0.262662 0.901407
vt 0.241763 0.605160
vt 0.287071 0.643505
vt 0.233776 0.915220
vt 0.148202 0.914688
vt 0.142573 0.603832
vt 0.234333 0.619719
vt 0.119311 0.981123
vt 0.238632 0.998695
vt 0.364429 0.640951
vt 0.326812 0.672659
vt 0.409417 0.944477
vt 0.376826 0.984814
vt 0.165763 0.312714
vt 0.227755 0.329367
vt 0.104254 0.640480
vt 0.042260 0.657118
vt 0.238632 0.314585
vt 0.276721 0.346109
vt 0.293602 0.000000
vt 0.326811 0.040222
vt 0.068337 0.959940
vt 0.116185 0.946589
vt 0.119311 0.986649
vt 0.071464 1.000000
vt 0.190781 0.000000
vt 0.238632 0.013288
vn -0.0245 0.9439 -0.3292
vn 0.1138 0.4277 0.8967
vn 0.0150 -0.9933 0.1150
vn -0.0769 -0.3911 -0.9171
vn -0.8513 -0.4303 -0.3001
vn 0.0355 0.9732 -0.2274
vn 0.0334 0.9881 -0.1504
vn -0.0338 -0.3661 -0.9300
vn 0.0578 0.3452 0.9368
vn 0.0174 -0.9851 0.1709
vn -0.0153 -0.9880 0.1534
vn 0.9304 0.1333 0.3415
vn 0.1092 -0.4509 -0.8859
vn -0.1022 0.4505 0.8869
usemtl None
s off
f 1/1/1 3/2/1 4/3/1 2/4/1
f 3/5/2 7/6/2 8/7/2 4/8/2
f 7/9/3 5/10/3 6/11/3 8/12/3
f 5/13/4 1/14/4 2/15/4 6/16/4
f 3/17/5 1/14/5 5/13/5 7/18/5
f 4/3/6 10/19/6 9/20/6 2/4/6
f 9/20/7 10/19/7 16/21/7 13/22/7
f 2/15/8 9/23/8 12/24/8 6/16/8
f 8/7/9 11/25/9 10/26/9 4/8/9
f 6/11/10 12/27/10 11/28/10 8/12/10
f 11/28/11 12/27/11 14/29/11 15/30/11
f 16/31/12 15/32/12 14/33/12
f 13/34/12 16/31/12 14/33/12
f 12/24/13 9/23/13 13/35/13 14/36/13
f 10/26/14 11/25/14 15/32/14 16/31/14
