# Blender v3.2.0 OBJ File: 'twigs.blend'
# www.blender.org
mtllib Twig Small 2.mtl
o Cube.002_Cube.004
v -0.144435 0.021232 0.012042
v -0.032267 0.035880 0.020930
v -0.146117 0.018805 -0.011096
v -0.032267 0.040033 0.003498
v -0.136617 -0.006833 0.007842
v -0.032267 0.015295 0.014494
v -0.138299 -0.002942 -0.021286
v -0.032268 0.020745 -0.002938
v 0.070705 0.012981 -0.000799
v 0.070704 0.007654 -0.014310
v 0.070704 -0.005302 -0.009203
v 0.070705 0.000024 0.004308
v 0.217433 0.001283 0.021496
v -0.004761 0.029591 -0.001541
v 0.033337 0.025850 -0.038691
v -0.020138 0.031107 0.000476
v 0.029845 0.026016 -0.044508
v -0.007683 0.018372 -0.002199
v 0.032104 0.019785 -0.039406
v -0.023061 0.019888 0.000311
v 0.028612 0.019951 -0.045223
v 0.068437 0.019115 -0.056560
v -0.062366 0.014641 0.012669
v -0.048727 0.012803 0.040081
v -0.075826 0.012834 0.011668
v -0.052341 0.015680 0.046162
v -0.066123 0.027361 0.016686
v -0.048702 0.022116 0.039540
v -0.079584 0.025554 0.015686
v -0.052317 0.024993 0.045621
v -0.012821 0.029907 0.051646
v -0.048727 0.012803 0.040081
v -0.052341 0.015680 0.046162
v -0.048702 0.022116 0.039540
v -0.052317 0.024993 0.045621
v -0.012821 0.029907 0.051646
v 0.030841 0.008129 0.008253
v 0.049139 0.012803 0.021229
v 0.022690 0.010653 0.009635
v 0.045524 0.015680 0.027310
v 0.031092 0.017148 0.001527
v 0.049163 0.022116 0.020688
v 0.022941 0.019672 0.002909
v 0.045549 0.024993 0.026769
v 0.085045 0.029907 0.030491
v 0.049139 0.012803 0.021229
v 0.045524 0.015680 0.027310
v 0.049163 0.022116 0.020688
v 0.045549 0.024993 0.026769
v 0.085045 0.029907 0.030491
vt 0.495210 0.998318
vt 0.493167 0.694427
vt 0.535163 0.691778
vt 0.560836 0.998680
vt 0.083030 0.000000
vt 0.078407 0.307758
vt 0.028704 0.309325
vt 0.020559 0.020324
vt 0.628661 0.000000
vt 0.602905 0.288929
vt 0.560836 0.287822
vt 0.563125 0.001965
vt 0.424935 0.978512
vt 0.443476 0.693829
vt 0.493167 0.695093
vt 0.487558 0.999249
vt 0.256589 0.751934
vt 0.256589 0.683762
vt 0.324760 0.683762
vt 0.324760 0.751934
vt 0.530578 0.447765
vt 0.560836 0.445406
vt 0.451049 0.449028
vt 0.421894 0.449038
vt 0.493167 0.000000
vt 0.029115 0.551617
vt 0.000000 0.552370
vt 0.628661 0.530510
vt 0.598325 0.529866
vt 0.083030 1.000000
vt 0.606698 0.981421
vt 0.513850 0.000000
vt 0.256588 0.048401
vt 0.129828 0.136694
vt 0.092267 0.119299
vt 0.242070 0.000000
vt 0.697465 0.758753
vt 0.737722 0.571083
vt 0.788695 0.568685
vt 0.791477 0.758753
vt 0.406906 0.439909
vt 0.257883 0.322016
vt 0.295352 0.304365
vt 0.421894 0.392933
vt 0.698325 0.154113
vt 0.710738 0.000000
vt 0.761708 0.002481
vt 0.792338 0.154113
vt 0.083030 0.233657
vt 0.697465 0.675388
vt 0.646916 0.681629
vt 0.658037 0.593998
vt 0.647881 0.000000
vt 0.698325 0.007010
vt 0.628661 0.086018
vt 0.284560 0.202362
vt 0.366200 0.449577
vt 0.294997 0.570554
vt 0.256588 0.576811
vt 0.301400 0.439909
vt 0.781431 0.353289
vt 0.755026 0.495569
vt 0.711959 0.499718
vt 0.697465 0.359093
vt 0.127831 0.685940
vt 0.083030 0.552887
vt 0.121778 0.556118
vt 0.191816 0.673782
vt 0.698325 0.291074
vt 0.704282 0.154113
vt 0.747538 0.154809
vt 0.782489 0.291074
vt 0.366200 0.683762
vt 0.366200 0.463220
vt 0.402646 0.439909
vt 0.402646 0.541447
vt 0.781431 0.568684
vt 0.191816 0.431988
vt 0.366200 0.449577
vt 0.294997 0.570554
vt 0.256588 0.576811
vt 0.301400 0.439909
vt 0.781431 0.353289
vt 0.755026 0.495569
vt 0.711959 0.499718
vt 0.697465 0.359093
vt 0.127831 0.685940
vt 0.083030 0.552887
vt 0.121778 0.556118
vt 0.191816 0.673782
vt 0.698325 0.291074
vt 0.704282 0.154113
vt 0.747538 0.154809
vt 0.782489 0.291074
vt 0.366200 0.683762
vt 0.366200 0.463220
vt 0.402646 0.439909
vt 0.402646 0.541447
vt 0.781431 0.568684
vt 0.191816 0.431988
vn -0.1615 0.9857 0.0486
vn 0.0595 0.3846 -0.9212
vn 0.2311 -0.9523 -0.1994
vn -0.0329 -0.2185 0.9753
vn -0.9484 -0.3128 0.0523
vn 0.2525 0.9669 -0.0367
vn -0.1114 0.3644 0.9245
vn 0.1459 -0.0392 0.9885
vn -0.1045 0.0410 -0.9937
vn -0.1970 -0.9804 -0.0039
vn 0.2066 -0.3588 -0.9103
vn -0.0350 -0.9298 0.3665
vn 0.1288 0.9226 -0.3637
vn 0.0907 0.9958 -0.0098
vn -0.6471 0.1931 -0.7375
vn -0.0715 -0.9927 -0.0968
vn 0.6706 -0.2176 0.7092
vn 0.1558 0.9856 -0.0655
vn 0.4164 -0.1894 0.8892
vn -0.2668 0.1661 -0.9493
vn -0.0248 -0.9996 -0.0136
vn -0.0489 -0.9978 0.0456
vn -0.7615 -0.2249 0.6078
vn 0.0759 0.9961 0.0453
vn 0.8434 0.2202 -0.4901
vn 0.2238 -0.8229 0.5223
vn 0.3300 -0.0556 -0.9423
vn -0.1576 0.0577 0.9858
vn -0.0428 0.8930 -0.4479
vn -0.1237 -0.8862 0.4464
vn -0.6818 0.2784 0.6765
vn 0.1744 0.9076 -0.3819
vn 0.6763 -0.2802 -0.6813
vn 0.2488 -0.8100 0.5311
vn 0.2745 -0.0565 -0.9599
vn -0.1008 0.0580 0.9932
vn -0.0670 0.8859 -0.4589
usemtl None
s off
f 1/1/1 2/2/1 4/3/1 3/4/1
f 3/5/2 4/6/2 8/7/2 7/8/2
f 7/9/3 8/10/3 6/11/3 5/12/3
f 5/13/4 6/14/4 2/15/4 1/16/4
f 3/17/5 7/18/5 5/19/5 1/20/5
f 4/3/6 2/2/6 9/21/6 10/22/6
f 9/23/7 12/24/7 13/25/7
f 2/15/8 6/14/8 12/24/8 9/23/8
f 8/7/9 4/6/9 10/26/9 11/27/9
f 6/11/10 8/10/10 11/28/10 12/29/10
f 11/27/11 10/26/11 13/30/11
f 12/29/12 11/28/12 13/31/12
f 10/22/13 9/21/13 13/32/13
f 14/33/14 15/34/14 17/35/14 16/36/14
f 16/37/15 17/38/15 21/39/15 20/40/15
f 20/41/16 21/42/16 19/43/16 18/44/16
f 18/45/17 19/46/17 15/47/17 14/48/17
f 17/35/18 15/34/18 22/49/18
f 15/50/19 19/51/19 22/52/19
f 21/53/20 17/54/20 22/55/20
f 19/43/21 21/42/21 22/56/21
f 23/57/22 24/58/22 26/59/22 25/60/22
f 25/61/23 26/62/23 30/63/23 29/64/23
f 29/65/24 30/66/24 28/67/24 27/68/24
f 27/69/25 28/70/25 24/71/25 23/72/25
f 26/59/26 24/58/26 31/73/26
f 24/74/27 28/75/27 31/76/27
f 30/63/28 26/62/28 31/77/28
f 28/67/29 30/66/29 31/78/29
f 37/79/30 38/80/30 40/81/30 39/82/30
f 39/83/31 40/84/31 44/85/31 43/86/31
f 43/87/32 44/88/32 42/89/32 41/90/32
f 41/91/33 42/92/33 38/93/33 37/94/33
f 40/81/34 38/80/34 45/95/34
f 38/96/35 42/97/35 45/98/35
f 44/85/36 40/84/36 45/99/36
f 42/89/37 44/88/37 45/100/37
l 24 32
l 26 33
l 28 34
l 30 35
l 31 36
l 38 46
l 40 47
l 42 48
l 44 49
l 45 50
