# Blender v3.2.0 OBJ File: 'twigs.blend'
# www.blender.org
mtllib Twig Medium 2.mtl
o Cube.005_Cube.003
v -0.168740 0.049460 -0.022136
v -0.184747 -0.009045 -0.027713
v -0.190581 0.010631 0.031901
v 0.048077 0.054975 -0.030811
v 0.030497 0.045979 0.034392
v 0.040050 -0.012964 0.054985
v 0.176372 0.073188 -0.023505
v 0.198402 0.009423 -0.019948
v 0.201607 0.012964 0.036603
v 0.166958 0.062080 0.026625
vt 0.017905 0.125481
vt 0.127022 0.000000
vt 0.305144 0.187517
vt 0.826763 0.991276
vt 0.814365 0.474403
vt 0.971514 0.785253
vt 0.971514 0.284809
vt 0.825996 0.141161
vt 0.268363 0.691941
vt 0.000000 0.974010
vt 0.632663 1.000000
vt 0.360794 0.599007
vt 0.637084 0.479116
vt 0.637084 0.791620
vt 0.814365 0.448112
vt 0.814365 0.934340
vt 0.609675 0.146685
vt 0.357300 0.174395
vt 0.322953 0.064287
vt 0.637084 0.000000
vt 0.949298 0.000000
vt 0.322953 0.974010
vt 0.669162 0.000000
vt 0.809455 0.097996
vn -0.9436 0.2757 -0.1833
vn -0.1388 0.8300 0.5403
vn -0.1105 0.9881 0.1065
vn -0.0296 -0.3233 -0.9458
vn -0.0619 0.3202 0.9453
vn -0.1267 -0.9456 0.2997
vn 0.8222 0.5634 -0.0819
vn 0.9123 0.3288 0.2442
vn 0.0529 0.3370 0.9400
vn -0.0200 0.9911 0.1314
vn -0.1485 0.9710 0.1873
vn 0.0297 0.2191 0.9753
vn 0.0617 -0.0343 -0.9975
vn 0.0158 0.0906 -0.9958
vn 0.0511 -0.9814 -0.1853
vn 0.1640 -0.9851 0.0524
usemtl None
s off
f 2/1/1 3/2/1 1/3/1
f 3/4/2 5/5/2 1/6/2
f 4/7/3 5/5/3 10/8/3
f 1/3/4 4/9/4 8/10/4
f 3/11/5 6/12/5 5/13/5
f 2/14/6 6/15/6 3/16/6
f 10/17/7 9/18/7 8/19/7
f 7/20/8 10/17/8 8/19/8
f 5/13/9 6/12/9 9/18/9
f 1/6/10 5/5/10 4/7/10
f 10/8/11 7/21/11 4/7/11
f 9/18/12 10/17/12 5/13/12
f 7/22/13 8/10/13 4/9/13
f 8/10/14 2/1/14 1/3/14
f 6/15/15 2/14/15 8/23/15
f 8/23/16 9/24/16 6/15/16
