# Blender v3.2.0 OBJ File: 'twigs.blend'
# www.blender.org
mtllib Twig Medium 3.mtl
o Cube.007
v 0.074165 0.060266 0.019190
v 0.024161 0.035677 0.014689
v 0.045188 -0.009695 0.026723
v -0.005422 0.016222 0.011941
v 0.111267 0.060085 0.049216
v 0.095420 0.077803 0.072255
v 0.084201 0.032782 0.087814
v 0.108226 0.037143 0.061330
v -0.186409 0.070000 -0.025890
v -0.195017 0.028585 0.019126
v -0.202054 -0.012380 -0.019634
v -0.202057 -0.000741 0.044231
v -0.006374 0.052301 -0.034119
v 0.000279 0.067344 0.023996
v -0.031682 -0.015412 0.034099
v 0.123032 -0.008608 -0.030008
v 0.171971 0.062950 -0.047332
v 0.208995 -0.003879 -0.028538
v 0.186882 -0.013093 0.032030
v 0.185916 0.058972 0.009957
vt 0.971374 0.592470
vt 0.915033 0.424584
vt 0.971374 0.315372
vt 0.912088 0.767972
vt 0.817848 0.595468
vt 0.909100 0.655120
vt 0.414210 0.998466
vt 0.355167 0.998195
vt 0.337971 0.904983
vt 0.912088 0.852861
vt 0.773009 0.771610
vt 0.870633 0.929459
vt 0.912088 0.636687
vt 0.995329 0.595468
vt 0.995329 0.777214
vt 0.914757 0.731276
vt 0.885992 0.507514
vt 0.457762 0.721591
vt 0.457762 0.853413
vt 0.414211 0.760504
vt 0.414210 0.721591
vt 0.913767 0.904417
vt 1.000000 0.315372
vt 0.915031 0.187063
vt 0.972621 0.000000
vt 0.163946 0.785206
vt 0.320092 0.466175
vt 0.337971 0.695856
vt 0.885992 0.275608
vt 0.773009 0.374792
vt 0.773098 0.054007
vt 0.337972 0.674210
vt 0.413526 0.354342
vt 0.654029 0.146181
vt 0.043079 0.837765
vt 0.000000 0.524616
vt 0.655129 0.723360
vt 0.764634 0.522017
vt 0.773009 0.832907
vt 0.654028 0.145559
vt 0.661351 0.000000
vt 0.303184 0.120871
vt 0.021259 0.146563
vt 0.079057 0.000000
vt 0.337971 0.041161
vt 0.379582 0.025988
vt 0.640298 0.000000
vt 0.885992 0.315372
vt 0.885992 0.595468
vt 0.868105 0.000000
vt 0.654029 0.721592
vt 0.773009 0.141958
vn 0.1739 -0.1764 -0.9688
vn -0.4289 0.8948 -0.1239
vn 0.5626 -0.4431 -0.6979
vn -0.6361 0.3888 0.6665
vn -0.4802 -0.5462 0.6864
vn 0.7871 0.0837 0.6111
vn 0.1980 -0.1646 -0.9663
vn 0.3400 0.8439 -0.4151
vn -0.5528 0.8297 0.0771
vn 0.6331 -0.3372 -0.6968
vn 0.4660 -0.8377 0.2848
vn -0.9825 0.1853 -0.0174
vn -0.1634 0.7414 0.6509
vn 0.0245 0.9671 -0.2531
vn -0.0646 -0.2033 -0.9770
vn 0.0673 0.0953 0.9932
vn -0.0739 -0.9811 0.1788
vn 0.0545 -0.9982 0.0255
vn 0.9263 0.1217 0.3567
vn 0.8808 0.4362 -0.1841
vn 0.0305 -0.2549 -0.9665
vn 0.0081 0.1181 0.9930
vn -0.9784 0.2032 -0.0371
vn 0.0828 0.9624 -0.2586
vn -0.1500 0.6635 0.7330
vn -0.0533 0.9952 0.0821
vn 0.0852 0.2928 0.9524
vn -0.0609 -0.1954 -0.9788
vn -0.0310 -0.0698 -0.9971
vn 0.0089 -0.9964 -0.0844
vn 0.0091 -0.9891 -0.1471
usemtl None
s off
f 3/1/1 2/2/1 1/3/1
f 2/4/2 6/5/2 1/6/2
f 1/7/3 5/8/3 8/9/3
f 4/10/4 7/11/4 6/5/4
f 3/12/5 7/11/5 4/10/5
f 5/13/6 6/14/6 7/15/6 8/16/6
f 2/2/7 3/1/7 4/17/7
f 1/18/8 6/19/8 5/20/8
f 6/5/9 2/4/9 4/10/9
f 8/9/10 3/21/10 1/7/10
f 7/15/11 3/22/11 8/16/11
f 11/23/12 10/24/12 9/25/12
f 10/26/13 14/27/13 9/28/13
f 13/29/14 14/30/14 20/31/14
f 9/32/15 13/33/15 16/34/15
f 12/35/16 15/36/16 14/27/16
f 11/37/17 15/38/17 12/39/17
f 15/38/18 16/40/18 18/41/18
f 20/42/19 19/43/19 18/44/19
f 17/45/20 20/42/20 18/44/20
f 16/34/21 17/46/21 18/47/21
f 14/27/22 15/36/22 19/43/22
f 10/24/23 11/23/23 12/48/23
f 9/49/24 14/30/24 13/29/24
f 14/27/25 10/26/25 12/35/25
f 20/31/26 17/50/26 13/29/26
f 19/43/27 20/42/27 14/27/27
f 17/46/28 16/34/28 13/33/28
f 16/34/29 11/51/29 9/32/29
f 15/38/30 11/37/30 16/40/30
f 18/41/31 19/52/31 15/38/31
