o Cube.002_Cube.004
v 0.020572 0.010500 0.011490
v 0.049667 0.013899 0.044812
v 0.008304 0.010668 0.016255
v 0.046242 0.014490 0.050141
v 0.019662 0.020580 0.012380
v 0.049973 0.019091 0.045467
v 0.007395 0.020748 0.017144
v 0.046548 0.019682 0.050795
v 0.096877 0.012760 0.062404
v -0.144435 0.025234 0.033628
v -0.013287 0.027086 0.025780
v -0.146117 0.038777 0.007548
v -0.013287 0.032536 0.008349
v -0.136617 0.000259 0.020154
v -0.013287 0.006501 0.019344
v -0.138299 0.013802 -0.005926
v -0.013287 0.011951 0.001913
v 0.090999 0.012257 -0.001094
v 0.090999 0.012413 -0.014435
v 0.090999 -0.000409 -0.014585
v 0.090999 -0.000565 -0.001243
v 0.285378 0.028104 -0.003953
v 0.064517 0.016343 -0.007887
v 0.102616 0.012602 -0.044543
v 0.049140 0.017859 -0.005376
v 0.099123 0.012768 -0.050360
v 0.061595 0.005124 -0.008051
v 0.101382 0.006537 -0.045258
v 0.046217 0.006640 -0.005541
v 0.097890 0.006703 -0.051075
v 0.138313 0.007729 -0.059995
v 0.137624 0.007535 -0.065008
v 0.137119 0.004005 -0.064828
v 0.137807 0.004199 -0.059816
v 0.198147 0.012043 -0.054317
vt 0.366200 0.449577
vt 0.294997 0.570554
vt 0.256588 0.576811
vt 0.301400 0.439909
vt 0.781431 0.353289
vt 0.755026 0.495569
vt 0.711959 0.499718
vt 0.697465 0.359093
vt 0.127831 0.685940
vt 0.083030 0.552887
vt 0.121778 0.556118
vt 0.191816 0.673782
vt 0.698325 0.291074
vt 0.704282 0.154113
vt 0.747538 0.154809
vt 0.782489 0.291074
vt 0.366200 0.683762
vt 0.366200 0.463220
vt 0.402646 0.439909
vt 0.402646 0.541447
vt 0.781431 0.568684
vt 0.191816 0.431988
vt 0.495210 0.998318
vt 0.493167 0.694427
vt 0.535163 0.691778
vt 0.560836 0.998680
vt 0.083030 0.000000
vt 0.078407 0.307758
vt 0.028704 0.309325
vt 0.020559 0.020324
vt 0.628661 0.000000
vt 0.602905 0.288929
vt 0.560836 0.287822
vt 0.563125 0.001965
vt 0.424935 0.978512
vt 0.443476 0.693829
vt 0.493167 0.695093
vt 0.487558 0.999249
vt 0.256589 0.751934
vt 0.256589 0.683762
vt 0.324760 0.683762
vt 0.324760 0.751934
vt 0.530578 0.447765
vt 0.560836 0.445406
vt 0.451049 0.449028
vt 0.421894 0.449038
vt 0.493167 0.000000
vt 0.029115 0.551617
vt 0.000000 0.552370
vt 0.628661 0.530510
vt 0.598325 0.529866
vt 0.083030 1.000000
vt 0.606698 0.981421
vt 0.513850 0.000000
vt 0.256588 0.048401
vt 0.129828 0.136694
vt 0.092267 0.119299
vt 0.242070 0.000000
vt 0.697465 0.758753
vt 0.737722 0.571083
vt 0.788695 0.568685
vt 0.791477 0.758753
vt 0.406906 0.439909
vt 0.257883 0.322016
vt 0.295352 0.304365
vt 0.421894 0.392933
vt 0.698325 0.154113
vt 0.710738 0.000000
vt 0.761708 0.002481
vt 0.792338 0.154113
vt 0.111243 0.240807
vt 0.083030 0.233657
vt 0.658037 0.593998
vt 0.628661 0.594846
vt 0.697465 0.353289
vt 0.697465 0.675388
vt 0.646916 0.681629
vt 0.647881 0.000000
vt 0.698325 0.007010
vt 0.658047 0.086808
vt 0.628661 0.086018
vt 0.256588 0.210077
vt 0.284560 0.202362
vt 0.698325 0.353289
vt 0.421894 0.000000
vt 0.256588 0.431988
vn 0.0126 -0.9955 0.0944
vn -0.6535 -0.1017 0.7501
vn 0.0437 0.9990 -0.0072
vn 0.7405 0.0965 -0.6651
vn -0.0526 -0.9957 0.0766
vn 0.3496 0.0969 -0.9319
vn -0.2375 -0.1077 0.9654
vn 0.1406 0.9899 -0.0194
vn 0.0259 0.9166 0.3991
vn 0.0433 0.4063 -0.9127
vn 0.0275 -0.9158 -0.4008
vn 0.0438 -0.3937 0.9182
vn -0.9624 -0.2615 -0.0737
vn 0.2032 0.9633 0.1755
vn 0.0157 -0.0117 0.9998
vn 0.1989 -0.1895 0.9615
vn -0.1528 0.1911 -0.9696
vn -0.1226 -0.9764 -0.1779
vn 0.0529 0.0117 -0.9985
vn 0.1457 -0.9893 -0.0115
vn -0.0811 0.9966 0.0116
vn 0.0905 0.9958 -0.0101
vn -0.6471 0.1931 -0.7375
vn -0.0715 -0.9927 -0.0968
vn 0.6714 -0.1978 0.7142
vn 0.1159 0.9921 -0.0474
vn -0.0989 0.0647 0.9930
vn 0.3713 -0.1186 0.9209
vn -0.3309 0.1122 -0.9370
vn -0.0572 -0.9981 0.0247
vn 0.1789 -0.0755 -0.9810
vn 0.1270 -0.9917 0.0210
vn -0.0691 0.9972 -0.0291
usemtl None
s off
f 1/1/1 2/2/1 4/3/1 3/4/1
f 3/5/2 4/6/2 8/7/2 7/8/2
f 7/9/3 8/10/3 6/11/3 5/12/3
f 5/13/4 6/14/4 2/15/4 1/16/4
f 4/3/5 2/2/5 9/17/5
f 2/18/6 6/19/6 9/20/6
f 8/7/7 4/6/7 9/21/7
f 6/11/8 8/10/8 9/22/8
f 10/23/9 11/24/9 13/25/9 12/26/9
f 12/27/10 13/28/10 17/29/10 16/30/10
f 16/31/11 17/32/11 15/33/11 14/34/11
f 14/35/12 15/36/12 11/37/12 10/38/12
f 12/39/13 16/40/13 14/41/13 10/42/13
f 13/25/14 11/24/14 18/43/14 19/44/14
f 18/45/15 21/46/15 22/47/15
f 11/37/16 15/36/16 21/46/16 18/45/16
f 17/29/17 13/28/17 19/48/17 20/49/17
f 15/33/18 17/32/18 20/50/18 21/51/18
f 20/49/19 19/48/19 22/52/19
f 21/51/20 20/50/20 22/53/20
f 19/44/21 18/43/21 22/54/21
f 23/55/22 24/56/22 26/57/22 25/58/22
f 25/59/23 26/60/23 30/61/23 29/62/23
f 29/63/24 30/64/24 28/65/24 27/66/24
f 27/67/25 28/68/25 24/69/25 23/70/25
f 26/57/26 24/56/26 31/71/26 32/72/26
f 31/73/27 34/74/27 35/75/27
f 24/76/28 28/77/28 34/74/28 31/73/28
f 30/78/29 26/79/29 32/80/29 33/81/29
f 28/65/30 30/64/30 33/82/30 34/83/30
f 33/81/31 32/80/31 35/84/31
f 34/83/32 33/82/32 35/85/32
f 32/72/33 31/71/33 35/86/33
