# Blender v3.2.0 OBJ File: 'can.blend'
# www.blender.org
mtllib Can.mtl
o Cylinder
v 0.000000 -0.000000 -0.037500
v 0.000000 0.110000 -0.037500
v 0.026517 -0.000000 -0.026517
v 0.026517 0.110000 -0.026517
v 0.037500 -0.000000 0.000000
v 0.037500 0.110000 0.000000
v 0.026517 -0.000000 0.026517
v 0.026517 0.110000 0.026517
v -0.000000 -0.000000 0.037500
v -0.000000 0.110000 0.037500
v -0.026517 -0.000000 0.026517
v -0.026517 0.110000 0.026517
v -0.037500 -0.000000 -0.000000
v -0.037500 0.110000 -0.000000
v -0.026517 -0.000000 -0.026517
v -0.026517 0.110000 -0.026517
vt 0.124293 0.389080
vt 0.124293 0.865195
vt 0.000065 0.865195
vt 0.000065 0.389080
vt 0.999101 0.389122
vt 0.999470 0.865187
vt 0.875241 0.865187
vt 0.874872 0.389122
vt 0.874912 0.389158
vt 0.874912 0.865273
vt 0.750683 0.865273
vt 0.750684 0.389158
vt 0.749785 0.388669
vt 0.749785 0.864784
vt 0.625557 0.864784
vt 0.625557 0.388669
vt 0.624707 0.388913
vt 0.624707 0.865029
vt 0.500479 0.865029
vt 0.500479 0.388913
vt 0.499746 0.388669
vt 0.499746 0.864784
vt 0.375518 0.864784
vt 0.375518 0.388669
vt 0.629918 0.092249
vt 0.629918 0.222710
vt 0.537669 0.314959
vt 0.407208 0.314959
vt 0.314959 0.222710
vt 0.314959 0.092249
vt 0.407208 0.000000
vt 0.537669 0.000000
vt 0.374742 0.389080
vt 0.374742 0.865195
vt 0.250514 0.865195
vt 0.250514 0.389080
vt 0.249140 0.389122
vt 0.249509 0.865187
vt 0.125281 0.865187
vt 0.124912 0.389122
vt 0.314959 0.092249
vt 0.314959 0.222710
vt 0.222710 0.314959
vt 0.092249 0.314959
vt 0.000000 0.222710
vt 0.000000 0.092249
vt 0.092249 0.000000
vt 0.222710 0.000000
vn 0.3827 0.0000 -0.9239
vn 0.9239 0.0000 -0.3827
vn 0.9239 0.0000 0.3827
vn 0.3827 0.0000 0.9239
vn -0.3827 0.0000 0.9239
vn -0.9239 0.0000 0.3827
vn 0.0000 1.0000 -0.0000
vn -0.9239 0.0000 -0.3827
vn -0.3827 0.0000 -0.9239
vn 0.0000 -1.0000 -0.0000
usemtl None
s off
f 1/1/1 2/2/1 4/3/1 3/4/1
f 3/5/2 4/6/2 6/7/2 5/8/2
f 5/9/3 6/10/3 8/11/3 7/12/3
f 7/13/4 8/14/4 10/15/4 9/16/4
f 9/17/5 10/18/5 12/19/5 11/20/5
f 11/21/6 12/22/6 14/23/6 13/24/6
f 4/25/7 2/26/7 16/27/7 14/28/7 12/29/7 10/30/7 8/31/7 6/32/7
f 13/33/8 14/34/8 16/35/8 15/36/8
f 15/37/9 16/38/9 2/39/9 1/40/9
f 1/41/10 3/42/10 5/43/10 7/44/10 9/45/10 11/46/10 13/47/10 15/48/10
