# Blender v3.2.0 OBJ File: 'trees.blend'
# www.blender.org
mtllib Spruce Medium 4 Leaves.mtl
o Long_twig.006_Plane.486
v 0.041284 5.700509 -0.004229
v -1.092624 5.868693 -0.033464
v 0.098258 6.085302 -0.000358
v -1.035650 6.253486 -0.029593
vt 0.994043 -0.000190
vt 0.994043 0.406109
vt 0.856208 0.406109
vt 0.856208 -0.000190
vn 0.0267 0.0061 -0.9996
usemtl thing.004
s off
f 1/1/1 2/2/1 4/3/1 3/4/1
o Short_twigs_set_2.041_Plane.487
v -0.824156 1.412944 0.589999
v -0.810810 4.015565 0.577149
v -0.146962 1.406674 0.023459
v -0.133617 4.009295 0.010609
vt 0.869132 0.583327
vt 0.869132 0.998870
vt 0.728161 0.998870
vt 0.728161 0.583327
vn -0.6417 -0.0005 -0.7670
usemtl thing.004
s off
f 5/5/2 6/6/2 8/7/2 7/8/2
o Short_twigs_set_2.042_Plane.491
v -0.461118 1.918924 -0.647736
v -0.450971 3.897858 -0.657507
v -0.099152 1.919859 -0.082312
v -0.089005 3.898793 -0.092083
vt 0.869132 0.583327
vt 0.869132 0.998870
vt 0.728161 0.998870
vt 0.728161 0.583327
vn 0.8422 -0.0070 -0.5391
usemtl thing.004
s off
f 9/9/3 10/10/3 12/11/3 11/12/3
o Short_twigs_set.041_Plane.492
v 0.154863 5.626110 0.665819
v 0.154863 7.460904 0.665819
v 0.019025 5.626110 0.058378
v 0.019025 7.460904 0.058378
vt 0.869132 0.583327
vt 0.869132 0.998870
vt 0.728161 0.998870
vt 0.728161 0.583327
vn -0.9759 0.0000 0.2182
usemtl thing.004
s off
f 13/13/4 14/14/4 16/15/4 15/16/4
o Short_twigs_set_2.043_Plane.493
v 0.293568 1.239136 -0.658524
v 0.310646 3.054755 -0.658811
v -0.026731 1.242232 -0.132393
v -0.009652 3.057851 -0.132680
vt 0.869132 0.583327
vt 0.869132 0.998870
vt 0.728161 0.998870
vt 0.728161 0.583327
vn 0.8541 -0.0080 0.5200
usemtl thing.004
s off
f 17/17/5 18/18/5 20/19/5 19/20/5
o Short_twigs_set_2.044_Plane.494
v 0.289581 5.256010 -0.592478
v 0.305642 6.963395 -0.592748
v -0.011623 5.258922 -0.097711
v 0.004437 6.966306 -0.097981
vt 0.869132 0.583327
vt 0.869132 0.998870
vt 0.728161 0.998870
vt 0.728161 0.583327
vn 0.8541 -0.0080 0.5200
usemtl thing.004
s off
f 21/21/6 22/22/6 24/23/6 23/24/6
o Short_twigs_set_2.045_Plane.495
v 0.206498 3.857553 -0.487072
v 0.219452 5.234786 -0.487290
v -0.036464 3.859902 -0.087977
v -0.023509 5.237134 -0.088194
vt 0.869132 0.583327
vt 0.869132 0.998870
vt 0.728161 0.998870
vt 0.728161 0.583327
vn 0.8541 -0.0080 0.5200
usemtl thing.004
s off
f 25/25/7 26/26/7 28/27/7 27/28/7
o Short_twigs_set_2.046_Plane.496
v 0.221143 6.933433 -0.440947
v 0.233714 8.310666 -0.444013
v 0.024775 6.936169 -0.016983
v 0.037347 8.313402 -0.020049
vt 0.869132 0.583327
vt 0.869132 0.998870
vt 0.728161 0.998870
vt 0.728161 0.583327
vn 0.9074 -0.0073 0.4203
usemtl thing.004
s off
f 29/29/8 30/30/8 32/31/8 31/32/8
o Short_twigs_set_2.047_Plane.497
v 0.726246 5.489241 -0.006155
v 0.745688 7.556061 -0.006481
v 0.025733 5.495835 0.023896
v 0.045174 7.562654 0.023570
vt 0.869132 0.583327
vt 0.869132 0.998870
vt 0.728161 0.998870
vt 0.728161 0.583327
vn 0.0429 -0.0002 0.9991
usemtl thing.004
s off
f 33/33/9 34/34/9 36/35/9 35/36/9
o Short_twigs_set_2.048_Plane.498
v 0.170216 3.694813 0.543117
v 0.184388 5.201375 0.542879
v -0.055900 3.696867 0.084743
v -0.041729 5.203430 0.084505
vt 0.869132 0.583327
vt 0.869132 0.998870
vt 0.728161 0.998870
vt 0.728161 0.583327
vn -0.8968 0.0085 0.4424
usemtl thing.004
s off
f 37/37/10 38/38/10 40/39/10 39/40/10
o Short_twigs_set.042_Plane.499
v 0.644252 7.867054 0.347164
v 0.644269 10.012753 0.346936
v 0.020241 7.867020 -0.027634
v 0.020259 10.012717 -0.027862
vt 0.869132 0.583327
vt 0.869132 0.998870
vt 0.728161 0.998870
vt 0.728161 0.583327
vn -0.5149 0.0001 0.8573
usemtl thing.004
s off
f 41/41/11 42/42/11 44/43/11 43/44/11
o Short_twigs_set.043_Plane.500
v 0.630639 1.629103 0.147419
v 0.630652 3.264523 0.147245
v 0.091793 1.629093 0.015296
v 0.091807 3.264513 0.015122
vt 0.869132 0.583327
vt 0.869132 0.998870
vt 0.728161 0.998870
vt 0.728161 0.583327
vn -0.2381 0.0001 0.9712
usemtl thing.004
s off
f 45/45/12 46/46/12 48/47/12 47/48/12
o Short_twigs_set_2.049_Plane.501
v -0.373266 5.951895 -0.502911
v -0.365840 7.400059 -0.510061
v -0.108383 5.952579 -0.089140
v -0.100957 7.400743 -0.096290
vt 0.869132 0.583327
vt 0.869132 0.998870
vt 0.728161 0.998870
vt 0.728161 0.583327
vn 0.8422 -0.0070 -0.5391
usemtl thing.004
s off
f 49/49/13 50/50/13 52/51/13 51/52/13
o Short_twigs_set_2.050_Plane.502
v -0.571528 4.056307 0.394026
v -0.563043 5.711137 0.385856
v -0.140947 4.052320 0.033802
v -0.132461 5.707150 0.025631
vt 0.869132 0.583327
vt 0.869132 0.998870
vt 0.728161 0.998870
vt 0.728161 0.583327
vn -0.6417 -0.0005 -0.7670
usemtl thing.004
s off
f 53/53/14 54/54/14 56/55/14 55/56/14
o Short_twigs_set.044_Plane.503
v -0.550310 6.012916 0.377147
v -0.550295 7.768936 0.376960
v -0.064043 6.012875 0.033014
v -0.064028 7.768895 0.032827
vt 0.869132 0.583327
vt 0.869132 0.998870
vt 0.728161 0.998870
vt 0.728161 0.583327
vn -0.5777 -0.0001 -0.8163
usemtl thing.004
s off
f 57/57/15 58/58/15 60/59/15 59/60/15
o Short_twigs_set.045_Plane.504
v -0.502528 7.780438 0.319997
v -0.502515 9.407890 0.319824
v -0.051863 7.780400 0.001060
v -0.051850 9.407852 0.000887
vt 0.869132 0.583327
vt 0.869132 0.998870
vt 0.728161 0.998870
vt 0.728161 0.583327
vn -0.5777 -0.0001 -0.8163
usemtl thing.004
s off
f 61/61/16 62/62/16 64/63/16 63/64/16
o Short_twigs_set.046_Plane.505
v -0.505966 3.914707 -0.537532
v -0.505951 5.670728 -0.537719
v -0.133661 3.914754 -0.072481
v -0.133647 5.670774 -0.072668
vt 0.869132 0.583327
vt 0.869132 0.998870
vt 0.728161 0.998870
vt 0.728161 0.583327
vn 0.7807 -0.0001 -0.6250
usemtl thing.004
s off
f 65/65/17 66/66/17 68/67/17 67/68/17
o Short_twigs_set.047_Plane.506
v 0.544067 3.664990 0.058343
v 0.544079 5.101199 0.058190
v 0.063170 3.664986 -0.019930
v 0.063181 5.101194 -0.020083
vt 0.869132 0.583327
vt 0.869132 0.998870
vt 0.728161 0.998870
vt 0.728161 0.583327
vn -0.1607 0.0001 0.9870
usemtl thing.004
s off
f 69/69/18 70/70/18 72/71/18 71/72/18
o Short_twigs_set.048_Plane.507
v 0.075462 7.683233 0.617734
v 0.075462 9.401090 0.617734
v 0.005468 7.683233 0.039179
v 0.005468 9.401089 0.039179
vt 0.869132 0.583327
vt 0.869132 0.998870
vt 0.728161 0.998870
vt 0.728161 0.583327
vn -0.9928 0.0000 0.1201
usemtl thing.004
s off
f 73/73/19 74/74/19 76/75/19 75/76/19
o Short_twigs_set.049_Plane.508
v 0.035648 9.407423 0.499804
v 0.035648 10.792922 0.499804
v -0.020804 9.407423 0.033183
v -0.020804 10.792921 0.033183
vt 0.869132 0.583327
vt 0.869132 0.998870
vt 0.728161 0.998870
vt 0.728161 0.583327
vn -0.9928 0.0000 0.1201
usemtl thing.004
s off
f 77/77/20 78/78/20 80/79/20 79/80/20
o Short_twigs_set_2.051_Plane.509
v 0.150825 9.287484 -0.398282
v 0.161234 10.427792 -0.400821
v -0.011761 9.289750 -0.047252
v -0.001352 10.430058 -0.049791
vt 0.869132 0.583327
vt 0.869132 0.998870
vt 0.728161 0.998870
vt 0.728161 0.583327
vn 0.9074 -0.0073 0.4203
usemtl thing.004
s off
f 81/81/21 82/82/21 84/83/21 83/84/21
o Long_twig.007_Plane.510
v -0.106550 3.544951 0.089835
v -0.657481 4.000021 0.986648
v -0.053999 3.900740 -0.058419
v -0.604930 4.355809 0.838394
vt 0.994043 -0.000190
vt 0.994043 0.406109
vt 0.856208 0.406109
vt 0.856208 -0.000190
vn -0.8666 -0.0775 -0.4930
usemtl thing.004
s off
f 85/85/22 86/86/22 88/87/22 87/88/22
o Plane.430_Plane.555
v -0.230305 14.279531 0.705552
v 1.706209 13.606254 1.265080
v 0.137496 14.175611 -0.692445
v 2.074010 13.502335 -0.132918
v -0.000291 14.464048 0.001107
v 1.936223 13.790771 0.560635
v 0.766918 14.091437 0.981895
v 1.134719 13.987518 -0.416103
v 0.996932 14.275955 0.277450
vt 0.363069 0.500000
vt 0.363069 0.999915
vt 0.000085 0.999915
vt 0.000085 0.500000
vt 0.726052 0.500000
vt 0.726052 0.999915
vt 0.726052 0.000085
vt 0.363069 0.000085
vt 0.000085 0.000085
vn 0.5022 0.8293 -0.2451
vn 0.3477 0.8729 0.3422
vn 0.1015 0.9537 0.2830
vn 0.2617 0.9085 -0.3258
usemtl Material.076
s off
f 97/89/23 94/90/23 92/91/23 96/92/23
f 95/93/24 90/94/24 94/90/24 97/89/24
f 89/95/25 95/93/25 97/89/25 93/96/25
f 93/96/26 97/89/26 96/92/26 91/97/26
o Plane.431_Plane.558
v -0.658639 14.383977 -0.174100
v -0.915154 13.610316 1.724851
v 0.721744 14.527444 0.070816
v 0.465228 13.753783 1.969767
v -0.001093 14.681986 -0.000194
v -0.257609 13.908325 1.898758
v -0.807403 14.139283 0.807693
v 0.572979 14.282750 1.052609
v -0.149858 14.437292 0.981600
vt 0.363069 0.500000
vt 0.363069 0.999915
vt 0.000085 0.999915
vt 0.000085 0.500000
vt 0.726052 0.500000
vt 0.726052 0.999915
vt 0.726052 0.000085
vt 0.363069 0.000085
vt 0.000085 0.000085
vn 0.1323 0.8518 0.5068
vn -0.4640 0.7898 0.4010
vn -0.4413 0.8841 0.1535
vn 0.1769 0.9484 0.2632
usemtl Material.077
s off
f 106/98/27 103/99/27 101/100/27 105/101/27
f 104/102/28 99/103/28 103/99/28 106/98/28
f 98/104/29 104/102/29 106/98/29 102/105/29
f 102/105/30 106/98/30 105/101/30 100/106/30
o Plane.432_Plane.565
v 0.755266 14.284240 0.398142
v 1.438086 12.958916 -1.620198
v -0.850578 14.351439 -0.189253
v -0.167758 13.026114 -2.207593
v 0.001272 14.578149 0.000465
v 0.684091 13.252824 -2.017875
v 1.127410 13.785093 -0.676343
v -0.478434 13.852292 -1.263738
v 0.373416 14.079002 -1.074020
vt 0.363069 0.500000
vt 0.363069 0.999915
vt 0.000085 0.999915
vt 0.000085 0.500000
vt 0.726052 0.500000
vt 0.726052 0.999915
vt 0.726052 0.000085
vt 0.363069 0.000085
vt 0.000085 0.000085
vn -0.0493 0.7434 -0.6670
vn 0.5220 0.7195 -0.4580
vn 0.4593 0.8557 -0.2384
vn -0.1330 0.8805 -0.4551
usemtl Material.078
s off
f 115/107/31 112/108/31 110/109/31 114/110/31
f 113/111/32 108/112/32 112/108/32 115/107/32
f 107/113/33 113/111/33 115/107/33 111/114/33
f 111/114/34 115/107/34 114/110/34 109/115/34
o Plane.433_Plane.568
v 0.698430 13.924704 -0.375930
v -0.609164 12.970150 -2.162445
v -0.664466 14.103151 0.526260
v -1.972060 13.148598 -1.260255
v 0.001079 14.276100 -0.000715
v -1.306515 13.321547 -1.787229
v 0.034643 13.612113 -1.316852
v -1.328252 13.790560 -0.414662
v -0.662707 13.963510 -0.941636
vt 0.363069 0.500000
vt 0.363069 0.999915
vt 0.000085 0.999915
vt 0.000085 0.500000
vt 0.726052 0.500000
vt 0.726052 0.999915
vt 0.726052 0.000085
vt 0.363069 0.000085
vt 0.000085 0.000085
vn -0.4522 0.8418 -0.2948
vn 0.0525 0.7757 -0.6289
vn 0.2064 0.8757 -0.4365
vn -0.3168 0.9442 -0.0902
usemtl Material.079
s off
f 124/116/35 121/117/35 119/118/35 123/119/35
f 122/120/36 117/121/36 121/117/36 124/116/36
f 116/122/37 122/120/37 124/116/37 120/123/37
f 120/123/38 124/116/38 123/119/38 118/124/38
o Plane.434_Plane.569
v 0.303664 14.218062 -0.533258
v -1.254011 13.457344 -1.162768
v -0.209763 14.323254 0.610064
v -1.767439 13.562535 -0.019446
v 0.000407 14.470725 -0.000906
v -1.557269 13.710007 -0.630415
v -0.504410 13.963377 -0.872705
v -1.017838 14.068568 0.270617
v -0.807668 14.216039 -0.340352
vt 0.363069 0.500000
vt 0.363069 0.999915
vt 0.000085 0.999915
vt 0.000085 0.500000
vt 0.726052 0.500000
vt 0.726052 0.999915
vt 0.726052 0.000085
vt 0.363069 0.000085
vt 0.000085 0.000085
vn -0.5613 0.8276 0.0067
vn -0.3127 0.7767 -0.5468
vn -0.0824 0.8814 -0.4652
vn -0.3400 0.9341 0.1085
usemtl Material.080
s off
f 133/125/39 130/126/39 128/127/39 132/128/39
f 131/129/40 126/130/40 130/126/40 133/125/40
f 125/131/41 131/129/41 133/125/41 129/132/41
f 129/132/42 133/125/42 132/128/42 127/133/42
o Plane.435_Plane.570
v 0.593816 14.347724 -0.044395
v 0.335473 13.836099 -1.749745
v -0.619033 14.453545 0.107592
v -0.877377 13.941919 -1.597758
v 0.000961 14.601709 -0.000120
v -0.257383 14.090084 -1.705470
v 0.473168 14.218218 -0.916994
v -0.739682 14.324039 -0.765007
v -0.119688 14.472204 -0.872719
vt 0.363069 0.500000
vt 0.363069 0.999915
vt 0.000085 0.999915
vt 0.000085 0.500000
vt 0.726052 0.500000
vt 0.726052 0.999915
vt 0.726052 0.000085
vt 0.363069 0.000085
vt 0.000085 0.000085
vn -0.2758 0.8901 -0.3628
vn 0.3261 0.8376 -0.4383
vn 0.3751 0.9080 -0.1866
vn -0.2488 0.9625 -0.1084
usemtl Material.081
s off
f 142/134/43 139/135/43 137/136/43 141/137/43
f 140/138/44 135/139/44 139/135/44 142/134/44
f 134/140/45 140/138/45 142/134/45 138/141/45
f 138/141/46 142/134/46 141/137/46 136/142/46
o Plane.437_Plane.572
v 0.124283 14.013748 0.788033
v 2.220983 13.148527 0.296443
v -0.243659 13.996681 -0.751251
v 1.853041 13.131460 -1.242841
v 0.000291 14.260895 0.001219
v 2.096992 13.395674 -0.490371
v 1.210310 13.741745 0.531451
v 0.842368 13.724678 -1.007833
v 1.086318 13.988892 -0.255363
vt 0.363069 0.500000
vt 0.363069 0.999915
vt 0.000085 0.999915
vt 0.000085 0.500000
vt 0.726052 0.500000
vt 0.726052 0.999915
vt 0.726052 0.000085
vt 0.363069 0.000085
vt 0.000085 0.000085
vn 0.3870 0.8236 -0.4146
vn 0.5285 0.8302 0.1775
vn 0.2896 0.9253 0.2450
vn 0.1429 0.9185 -0.3688
usemtl Material.178
s off
f 151/143/47 148/144/47 146/145/47 150/146/47
f 149/147/48 144/148/48 148/144/48 151/143/48
f 143/149/49 149/147/49 151/143/49 147/150/49
f 147/150/50 151/143/50 150/146/50 145/151/50
o Plane.462_Plane.573
v -0.396827 13.112444 0.384478
v 0.802485 12.500772 1.367500
v 0.351261 13.213113 -0.465568
v 1.550573 12.601441 0.517453
v -0.000593 13.345922 0.000673
v 1.198719 12.734251 0.983695
v 0.216768 12.921652 0.901881
v 0.964856 13.022321 0.051834
v 0.613003 13.155130 0.518076
vt 0.363069 0.500000
vt 0.363069 0.999915
vt 0.000085 0.999915
vt 0.000085 0.500000
vt 0.726052 0.500000
vt 0.726052 0.999915
vt 0.726052 0.000085
vt 0.363069 0.000085
vt 0.000085 0.000085
vn 0.5038 0.8529 0.1372
vn 0.1031 0.7990 0.5925
vn -0.0963 0.8914 0.4429
vn 0.3191 0.9473 -0.0291
usemtl Material.207
s off
f 160/152/51 157/153/51 155/154/51 159/155/51
f 158/156/52 153/157/52 157/153/52 160/152/52
f 152/158/53 158/156/53 160/152/53 156/159/53
f 156/159/54 160/152/54 159/155/54 154/160/54
o Plane.463_Plane.574
v -0.656863 13.854837 0.433047
v 0.584902 13.052158 2.136423
v 0.561083 13.756194 -0.501323
v 1.802849 12.953514 1.202054
v -0.000965 14.054525 0.000740
v 1.240801 13.251845 1.704117
v -0.006504 13.609916 1.306644
v 1.211443 13.511271 0.372274
v 0.649395 13.809603 0.874338
vt 0.363069 0.500000
vt 0.363069 0.999915
vt 0.000085 0.999915
vt 0.000085 0.500000
vt 0.726052 0.500000
vt 0.726052 0.999915
vt 0.726052 0.000085
vt 0.363069 0.000085
vt 0.000085 0.000085
vn 0.5625 0.8138 0.1461
vn 0.0804 0.8528 0.5159
vn -0.0758 0.9440 0.3211
vn 0.4239 0.9035 -0.0623
usemtl Material.226
s off
f 169/161/55 166/162/55 164/163/55 168/164/55
f 167/165/56 162/166/56 166/162/56 169/161/56
f 161/167/57 167/165/57 169/161/57 165/168/57
f 165/168/58 169/161/58 168/164/58 163/169/58
o Plane.464_Plane.575
v 0.091166 13.577311 0.769141
v 1.903687 12.370758 0.361548
v -0.289039 13.499360 -0.690836
v 1.523482 12.292807 -1.098429
v 0.000301 13.765953 0.001156
v 1.812822 12.559400 -0.406437
v 1.059763 13.117014 0.541477
v 0.679559 13.039062 -0.918500
v 0.968898 13.305656 -0.226508
vt 0.363069 0.500000
vt 0.363069 0.999915
vt 0.000085 0.999915
vt 0.000085 0.500000
vt 0.726052 0.500000
vt 0.726052 0.999915
vt 0.726052 0.000085
vt 0.363069 0.000085
vt 0.000085 0.000085
vn 0.5178 0.7031 -0.4874
vn 0.6710 0.7345 0.1010
vn 0.4543 0.8761 0.1615
vn 0.2954 0.8435 -0.4485
usemtl Material.245
s off
f 178/170/59 175/171/59 173/172/59 177/173/59
f 176/174/60 171/175/60 175/171/60 178/170/60
f 170/176/61 176/174/61 178/170/61 174/177/61
f 174/177/62 178/170/62 177/173/62 172/178/62
o Plane.465_Plane.576
v 0.391618 13.259419 -0.447020
v -0.843393 12.987488 -1.559254
v -0.353788 13.118093 0.415222
v -1.588799 12.846162 -0.697013
v 0.000590 13.378242 -0.000683
v -1.234421 13.106310 -1.112917
v -0.237399 13.242480 -0.993579
v -0.982804 13.101154 -0.131337
v -0.628426 13.361302 -0.547242
vt 0.363069 0.500000
vt 0.363069 0.999915
vt 0.000085 0.999915
vt 0.000085 0.500000
vt 0.726052 0.500000
vt 0.726052 0.999915
vt 0.726052 0.000085
vt 0.363069 0.000085
vt 0.000085 0.000085
vn -0.4843 0.8654 0.1287
vn -0.0891 0.9403 -0.3284
vn 0.1138 0.9803 -0.1613
vn -0.2959 0.9027 0.3125
usemtl Material.262
s off
f 187/179/63 184/180/63 182/181/63 186/182/63
f 185/183/64 180/184/64 184/180/64 187/179/64
f 179/185/65 185/183/65 187/179/65 183/186/65
f 183/186/66 187/179/66 186/182/66 181/187/66
o Plane.466_Plane.577
v 0.708970 13.115122 -0.506931
v -0.790134 12.154203 -2.305928
v -0.609812 13.087923 0.606538
v -2.108916 12.127005 -1.192458
v 0.001045 13.379848 -0.000882
v -1.498060 12.418929 -1.799878
v -0.071070 12.809494 -1.438268
v -1.389851 12.782296 -0.324799
v -0.778995 13.074220 -0.932218
vt 0.363069 0.500000
vt 0.363069 0.999915
vt 0.000085 0.999915
vt 0.000085 0.500000
vt 0.726052 0.500000
vt 0.726052 0.999915
vt 0.726052 0.000085
vt 0.363069 0.000085
vt 0.000085 0.000085
vn -0.5514 0.8185 -0.1612
vn -0.0863 0.8281 -0.5539
vn 0.0806 0.9251 -0.3711
vn -0.4015 0.9151 0.0360
usemtl Material.265
s off
f 196/188/67 193/189/67 191/190/67 195/191/67
f 194/192/68 189/193/68 193/189/68 196/188/68
f 188/194/69 194/192/69 196/188/69 192/195/69
f 192/195/70 196/188/70 195/191/70 190/196/70
o Plane.467_Plane.578
v 0.659621 14.111021 0.568357
v 2.003819 13.002679 -1.194932
v -0.722163 13.967526 -0.394815
v 0.622036 12.859184 -2.158104
v 0.001094 14.304919 0.000763
v 1.345293 13.196578 -1.762526
v 1.352051 13.723718 -0.367314
v -0.029733 13.580223 -1.330486
v 0.693524 13.917616 -0.934908
vt 0.363069 0.500000
vt 0.363069 0.999915
vt 0.000085 0.999915
vt 0.000085 0.500000
vt 0.726052 0.500000
vt 0.726052 0.999915
vt 0.726052 0.000085
vt 0.363069 0.000085
vt 0.000085 0.000085
vn 0.0053 0.7560 -0.6545
vn 0.5030 0.8077 -0.3076
vn 0.3672 0.9235 -0.1105
vn -0.1487 0.8700 -0.4701
usemtl Material.266
s off
f 205/197/71 202/198/71 200/199/71 204/200/71
f 203/201/72 198/202/72 202/198/72 205/197/72
f 197/203/73 203/201/73 205/197/73 201/204/73
f 201/204/74 205/197/74 204/200/74 199/205/74
o Plane.468_Plane.579
v -0.784227 13.835454 -0.277802
v -1.094098 12.566447 1.877843
v 0.885914 14.032133 0.078061
v 0.576042 12.763126 2.233706
v -0.001323 14.196582 -0.000282
v -0.311194 12.927575 2.155364
v -0.971931 13.366023 0.862578
v 0.698209 13.562702 1.218441
v -0.189027 13.727151 1.140098
vt 0.363069 0.500000
vt 0.363069 0.999915
vt 0.000085 0.999915
vt 0.000085 0.500000
vt 0.726052 0.500000
vt 0.726052 0.999915
vt 0.726052 0.000085
vt 0.363069 0.000085
vt 0.000085 0.000085
vn 0.0891 0.7773 0.6228
vn -0.5025 0.7076 0.4968
vn -0.4798 0.8363 0.2653
vn 0.1334 0.9085 0.3960
usemtl Material.267
s off
f 214/206/75 211/207/75 209/208/75 213/209/75
f 212/210/76 207/211/76 211/207/76 214/206/76
f 206/212/77 212/210/77 214/206/77 210/213/77
f 210/213/78 214/206/78 213/209/78 208/214/78
o Plane.495_Plane.602
v -0.621666 12.872941 -0.552171
v -2.135961 12.304852 1.246365
v 0.644775 12.841759 0.504272
v -0.869520 12.273669 2.302808
v -0.001003 13.130372 -0.000837
v -1.515298 12.562283 1.797699
v -1.386701 12.760398 0.361615
v -0.120260 12.729215 1.418058
v -0.766039 13.017828 0.912949
vt 0.363069 0.500000
vt 0.363069 0.999915
vt 0.000085 0.999915
vt 0.000085 0.500000
vt 0.726052 0.500000
vt 0.726052 0.999915
vt 0.726052 0.000085
vt 0.363069 0.000085
vt 0.000085 0.000085
vn 0.0234 0.8806 0.4732
vn -0.4440 0.8921 0.0833
vn -0.2857 0.9505 -0.1222
vn 0.1988 0.9386 0.2821
usemtl Material.286
s off
f 223/215/79 220/216/79 218/217/79 222/218/79
f 221/219/80 216/220/80 220/216/80 223/215/80
f 215/221/81 221/219/81 223/215/81 219/222/81
f 219/222/82 223/215/82 222/218/82 217/223/82
o Plane.496_Plane.603
v 0.556119 12.927679 0.410268
v 1.544031 12.201002 -1.280029
v -0.643432 13.057016 -0.346425
v 0.344479 12.330338 -2.036722
v 0.000950 13.222803 0.000599
v 0.988862 12.496125 -1.689698
v 1.078095 12.709103 -0.454556
v -0.121457 12.838440 -1.211249
v 0.522926 13.004227 -0.864225
vt 0.363069 0.500000
vt 0.363069 0.999915
vt 0.000085 0.999915
vt 0.000085 0.500000
vt 0.726052 0.500000
vt 0.726052 0.999915
vt 0.726052 0.000085
vt 0.363069 0.000085
vt 0.000085 0.000085
vn 0.0491 0.8627 -0.5033
vn 0.5619 0.8074 -0.1798
vn 0.4445 0.8948 0.0422
vn -0.0871 0.9521 -0.2932
usemtl Material.287
s off
f 232/224/83 229/225/83 227/226/83 231/227/83
f 230/228/84 225/229/84 229/225/84 232/224/84
f 224/230/85 230/228/85 232/224/85 228/231/85
f 228/231/86 232/224/86 231/227/86 226/232/86
o Plane.497_Plane.604
v -0.418620 12.810732 1.020674
v 2.190096 11.276978 1.871190
v 0.156873 12.648017 -1.037913
v 2.765589 11.114263 -0.187397
v -0.000456 13.060961 0.001630
v 2.608260 11.527206 0.852146
v 0.967661 12.252143 1.452371
v 1.543154 12.089429 -0.606216
v 1.385825 12.502373 0.433327
vt 0.363069 0.500000
vt 0.363069 0.999915
vt 0.000085 0.999915
vt 0.000085 0.500000
vt 0.726052 0.500000
vt 0.726052 0.999915
vt 0.726052 0.000085
vt 0.363069 0.000085
vt 0.000085 0.000085
vn 0.6514 0.7338 -0.1929
vn 0.4880 0.7800 0.3918
vn 0.2625 0.9066 0.3303
vn 0.4319 0.8587 -0.2758
usemtl Material.288
s off
f 241/233/87 238/234/87 236/235/87 240/236/87
f 239/237/88 234/238/88 238/234/88 241/233/88
f 233/239/89 239/237/89 241/233/89 237/240/89
f 237/240/90 241/233/90 240/236/90 235/241/90
o Plane.498_Plane.605
v 0.225977 12.608141 -0.914949
v -2.010659 10.967943 -1.011019
v 0.067109 12.714493 0.967983
v -2.169527 11.074295 0.871914
v 0.000126 12.938479 -0.001491
v -2.236511 11.298282 -0.097560
v -0.984314 11.962144 -0.980577
v -1.143182 12.068496 0.902355
v -1.210166 12.292481 -0.067120
vt 0.363069 0.500000
vt 0.363069 0.999915
vt 0.000085 0.999915
vt 0.000085 0.500000
vt 0.726052 0.500000
vt 0.726052 0.999915
vt 0.726052 0.000085
vt 0.363069 0.000085
vt 0.000085 0.000085
vn -0.6836 0.6993 0.2088
vn -0.6325 0.6651 -0.3969
vn -0.4150 0.8180 -0.3984
vn -0.4680 0.8534 0.2295
usemtl Material.325
s off
f 250/242/91 247/243/91 245/244/91 249/245/91
f 248/246/92 243/247/92 247/243/92 250/242/92
f 242/248/93 248/246/93 250/242/93 246/249/93
f 246/249/94 250/242/94 249/245/94 244/250/94
o Plane.499_Plane.606
v 0.902205 12.896811 -0.596733
v -0.877176 10.827450 -2.241784
v -0.662414 13.049400 0.903705
v -2.441796 10.980039 -0.741346
v 0.001239 13.277369 -0.001188
v -1.778143 11.208008 -1.646239
v -0.062020 12.053257 -1.516418
v -1.626640 12.205845 -0.015981
v -0.962987 12.433815 -0.920874
vt 0.363069 0.500000
vt 0.363069 0.999915
vt 0.000085 0.999915
vt 0.000085 0.500000
vt 0.726052 0.500000
vt 0.726052 0.999915
vt 0.726052 0.000085
vt 0.363069 0.000085
vt 0.000085 0.000085
vn -0.6809 0.6512 -0.3353
vn -0.2425 0.6084 -0.7557
vn -0.0844 0.7768 -0.6240
vn -0.5388 0.8211 -0.1883
usemtl Material.329
s off
f 259/251/95 256/252/95 254/253/95 258/254/95
f 257/255/96 252/256/96 256/252/96 259/251/96
f 251/257/97 257/255/97 259/251/97 255/258/97
f 255/258/98 259/251/98 258/254/98 253/259/98
o Plane.500_Plane.607
v -0.839725 12.685872 0.115407
v -0.444261 12.007905 2.432625
v 0.799695 12.612929 -0.185723
v 1.195159 11.934962 2.131495
v -0.001298 12.923929 0.000239
v 0.394165 12.245962 2.317457
v -0.630236 12.519336 1.296251
v 1.009184 12.446393 0.995121
v 0.208190 12.757392 1.181083
vt 0.363069 0.500000
vt 0.363069 0.999915
vt 0.000085 0.999915
vt 0.000085 0.500000
vt 0.726052 0.500000
vt 0.726052 0.999915
vt 0.726052 0.000085
vt 0.363069 0.000085
vt 0.000085 0.000085
vn 0.4065 0.8562 0.3188
vn -0.1918 0.8828 0.4287
vn -0.2461 0.9528 0.1780
vn 0.3741 0.9252 0.0641
usemtl Material.330
s off
f 268/260/99 265/261/99 263/262/99 267/263/99
f 266/264/100 261/265/100 265/261/100 268/260/100
f 260/266/101 266/264/101 268/260/101 264/267/101
f 264/267/102 268/260/102 267/263/102 262/268/102
o Plane.501_Plane.608
v 0.504392 13.365402 0.620949
v 2.177650 12.724638 -0.810866
v -0.533713 13.257819 -0.544064
v 1.139545 12.617055 -1.975879
v 0.000822 13.568510 0.000923
v 1.674081 12.927747 -1.430892
v 1.350747 13.206394 -0.118527
v 0.312642 13.098810 -1.283540
v 0.847177 13.409502 -0.738553
vt 0.363069 0.500000
vt 0.363069 0.999915
vt 0.000085 0.999915
vt 0.000085 0.500000
vt 0.726052 0.500000
vt 0.726052 0.999915
vt 0.726052 0.000085
vt 0.363069 0.000085
vt 0.000085 0.000085
vn 0.0489 0.8463 -0.5305
vn 0.4530 0.8882 -0.0770
vn 0.2659 0.9590 0.0982
vn -0.1530 0.9156 -0.3719
usemtl Material.331
s off
f 277/269/103 274/270/103 272/271/103 276/272/103
f 275/273/104 270/274/104 274/270/104 277/269/104
f 269/275/105 275/273/105 277/269/105 273/276/105
f 273/276/106 277/269/106 276/272/106 271/277/106
o Plane.502_Plane.609
v -0.069352 12.434224 1.132965
v 2.193834 10.164753 0.997037
v -0.358484 12.275426 -1.029723
v 1.904702 10.005955 -1.165652
v 0.000229 12.644624 0.001713
v 2.263415 10.375153 -0.134216
v 1.196759 11.481528 1.033651
v 0.907627 11.322730 -1.129038
v 1.266340 11.691928 -0.097602
vt 0.363069 0.500000
vt 0.363069 0.999915
vt 0.000085 0.999915
vt 0.000085 0.500000
vt 0.726052 0.500000
vt 0.726052 0.999915
vt 0.726052 0.000085
vt 0.363069 0.000085
vt 0.000085 0.000085
vn 0.7088 0.5490 -0.4430
vn 0.7892 0.5932 0.1589
vn 0.6003 0.7788 0.1818
vn 0.5169 0.7330 -0.4421
usemtl Material.332
s off
f 286/278/107 283/279/107 281/280/107 285/281/107
f 284/282/108 279/283/108 283/279/108 286/278/108
f 278/284/109 284/282/109 286/278/109 282/285/109
f 282/285/110 286/278/110 285/281/110 280/286/110
o Plane.503_Plane.610
v -1.314015 12.249362 -0.082299
v -0.861302 9.748842 2.806843
v 1.289567 12.370387 -0.385521
v 1.742280 9.869867 2.503622
v -0.002062 12.677904 0.000240
v 0.450651 10.177385 2.889382
v -1.081275 11.230284 1.509355
v 1.522307 11.351309 1.206134
v 0.230678 11.658826 1.591895
vt 0.363069 0.500000
vt 0.363069 0.999915
vt 0.000085 0.999915
vt 0.000085 0.500000
vt 0.726052 0.500000
vt 0.726052 0.999915
vt 0.726052 0.000085
vt 0.363069 0.000085
vt 0.000085 0.000085
vn 0.3556 0.6451 0.6763
vn -0.2485 0.6170 0.7467
vn -0.2910 0.7858 0.5457
vn 0.3352 0.8149 0.4728
usemtl Material.333
s off
f 295/287/111 292/288/111 290/289/111 294/290/111
f 293/291/112 288/292/112 292/288/112 295/287/112
f 287/293/113 293/291/113 295/287/113 291/294/113
f 291/294/114 295/287/114 294/290/114 289/295/114
o Plane.504_Plane.611
v 0.768029 12.781239 1.098233
v 2.652312 10.130342 -1.167898
v -1.161701 13.015466 -0.780329
v 0.722582 10.364568 -3.046460
v 0.001528 13.269719 0.001488
v 1.885811 10.618822 -2.264643
v 1.834775 11.689068 -0.133745
v -0.094956 11.923294 -2.012307
v 1.068274 12.177548 -1.230490
vt 0.363069 0.500000
vt 0.363069 0.999915
vt 0.000085 0.999915
vt 0.000085 0.500000
vt 0.726052 0.500000
vt 0.726052 0.999915
vt 0.726052 0.000085
vt 0.363069 0.000085
vt 0.000085 0.000085
vn 0.3299 0.6359 -0.6977
vn 0.7645 0.5832 -0.2746
vn 0.6440 0.7566 -0.1131
vn 0.1935 0.8113 -0.5517
usemtl Material.334
s off
f 304/296/115 301/297/115 299/298/115 303/299/115
f 302/300/116 297/301/116 301/297/116 304/296/116
f 296/302/117 302/300/117 304/296/117 300/303/117
f 300/303/118 304/296/118 303/299/118 298/304/118
o Plane.505_Plane.612
v -0.200825 12.777488 -1.177021
v -2.632929 10.539475 -0.502658
v 0.578694 12.579792 0.978233
v -1.853410 10.341780 1.652596
v -0.000617 12.996202 -0.001707
v -2.432722 10.758190 0.672656
v -1.535945 11.857962 -0.778476
v -0.756427 11.660265 1.376778
v -1.335738 12.076676 0.396838
vt 0.363069 0.500000
vt 0.363069 0.999915
vt 0.000085 0.999915
vt 0.000085 0.500000
vt 0.726052 0.500000
vt 0.726052 0.999915
vt 0.726052 0.000085
vt 0.363069 0.000085
vt 0.000085 0.000085
vn -0.5612 0.5886 0.5819
vn -0.7675 0.6410 0.0115
vn -0.5772 0.8149 -0.0533
vn -0.3633 0.7607 0.5380
usemtl Material.335
s off
f 313/305/119 310/306/119 308/307/119 312/308/119
f 311/309/120 306/310/120 310/306/120 313/305/120
f 305/311/121 311/309/121 313/305/121 309/312/121
f 309/312/122 313/305/122 312/308/122 307/313/122
o Plane.506_Plane.613
v 0.176362 13.798083 -0.863258
v -1.950649 12.331388 -0.917363
v 0.083099 13.868464 0.895216
v -2.043912 12.401770 0.841110
v 0.000074 14.095504 -0.001393
v -2.126937 12.628809 -0.055498
v -0.968588 13.229458 -0.901223
v -1.061851 13.299839 0.857251
v -1.144877 13.526877 -0.039358
vt 0.363069 0.500000
vt 0.363069 0.999915
vt 0.000085 0.999915
vt 0.000085 0.500000
vt 0.726052 0.500000
vt 0.726052 0.999915
vt 0.726052 0.000085
vt 0.363069 0.000085
vt 0.000085 0.000085
vn -0.6570 0.7141 0.2417
vn -0.6248 0.6898 -0.3658
vn -0.4031 0.8365 -0.3711
vn -0.4365 0.8617 0.2586
usemtl Material.336
s off
f 322/314/123 319/315/123 317/316/123 321/317/123
f 320/318/124 315/319/124 319/315/124 322/314/124
f 314/320/125 320/318/125 322/314/125 318/321/125
f 318/321/126 322/314/126 321/317/126 316/322/126
o Plane.508_Plane.615
v -0.792522 12.505231 -0.647559
v -2.360956 11.264377 1.452063
v 0.841461 12.288401 0.444895
v -0.726974 11.047546 2.544517
v -0.001294 12.708847 -0.000865
v -1.569729 11.467994 2.098757
v -1.592923 12.080809 0.465361
v 0.041060 11.863979 1.557815
v -0.801695 12.284426 1.112055
vt 0.363069 0.500000
vt 0.363069 0.999915
vt 0.000085 0.999915
vt 0.000085 0.500000
vt 0.726052 0.500000
vt 0.726052 0.999915
vt 0.726052 0.000085
vt 0.363069 0.000085
vt 0.000085 0.000085
vn 0.0329 0.7573 0.6522
vn -0.4702 0.8241 0.3159
vn -0.3351 0.9351 0.1156
vn 0.1864 0.8659 0.4643
usemtl Material.339
s off
f 331/323/127 328/324/127 326/325/127 330/326/127
f 329/327/128 324/328/128 328/324/128 331/323/128
f 323/329/129 329/327/129 331/323/129 327/330/129
f 327/330/130 331/323/130 330/326/130 325/331/130
o Plane.509_Plane.616
v -1.052641 12.597528 0.026725
v -0.678187 10.307541 1.905173
v 0.922577 12.520592 -0.460811
v 1.297030 10.230604 1.417637
v -0.001564 12.810670 0.000386
v 0.372889 10.520683 1.878834
v -0.825546 11.610585 1.102529
v 1.149671 11.533649 0.614993
v 0.225530 11.823727 1.076190
vt 0.363069 0.500000
vt 0.363069 0.999915
vt 0.000085 0.999915
vt 0.000085 0.500000
vt 0.726052 0.500000
vt 0.726052 0.999915
vt 0.726052 0.000085
vt 0.363069 0.000085
vt 0.000085 0.000085
vn 0.5074 0.4928 0.7069
vn -0.0832 0.5158 0.8527
vn -0.1283 0.7172 0.6850
vn 0.4841 0.6933 0.5339
usemtl Material.340
s off
f 340/332/131 337/333/131 335/334/131 339/335/131
f 338/336/132 333/337/132 337/333/132 340/332/132
f 332/338/133 338/336/133 340/332/133 336/339/133
f 336/339/134 340/332/134 339/335/134 334/340/134
