# Blender v3.2.0 OBJ File: 'trees.blend'
# www.blender.org
mtllib Spruce Medium 2 Trunk.mtl
o Cylinder.044
v 0.199534 3.519344 0.040243
v 0.070383 3.527652 0.033608
v 0.195541 3.439002 0.009689
v 0.072411 3.422249 -0.009028
v 0.201167 3.505473 -0.044664
v 0.071172 3.511877 -0.079008
v 0.400713 3.579828 0.007171
v 0.398763 3.526484 -0.037146
v 0.403410 3.591399 -0.061183
v 0.535715 3.713559 -0.013532
v 0.538244 3.688772 -0.032304
v 0.524181 3.714687 -0.042495
vt 1.000000 0.500000
vt 1.000000 1.000000
vt 0.666667 1.000000
vt 0.666667 0.500000
vt 0.333333 1.000000
vt 0.333333 0.500000
vt 0.457846 0.130000
vt 0.250000 0.490000
vt 0.042154 0.130000
vt -0.000000 1.000000
vt -0.000000 0.500000
vt -0.000000 0.500000
vt 0.333333 0.500000
vt -0.000000 0.500000
vt 0.333333 0.500000
vt 0.666667 0.500000
vt 1.000000 0.500000
vt 0.750000 0.490000
vt 0.957846 0.130000
vt 0.542154 0.130000
vt 0.666667 0.500000
vt 1.000000 0.500000
vn -0.0810 -0.3647 0.9276
vn 0.1857 -0.6154 -0.7660
vn -0.9998 -0.0174 -0.0046
vn 0.0792 0.9860 -0.1470
vn -0.3436 0.9388 -0.0238
vn -0.6997 0.6975 0.1546
vn 0.0872 -0.5154 -0.8525
vn 0.3339 -0.4719 0.8160
vn 0.8769 0.3438 -0.3358
vn 0.3948 -0.2879 -0.8725
vn 0.5839 -0.5074 0.6338
usemtl None
s off
f 1/1/1 2/2/1 4/3/1 3/4/1
f 3/4/2 4/3/2 6/5/2 5/6/2
f 4/7/3 2/8/3 6/9/3
f 5/6/4 6/5/4 2/10/4 1/11/4
f 5/6/5 1/11/5 7/12/5 9/13/5
f 9/13/6 7/12/6 10/14/6 12/15/6
f 3/4/7 5/6/7 9/13/7 8/16/7
f 1/1/8 3/4/8 8/16/8 7/17/8
f 10/18/9 11/19/9 12/20/9
f 8/16/10 9/13/10 12/15/10 11/21/10
f 7/17/11 8/16/11 11/21/11 10/22/11
o Cylinder.045
v -0.265506 3.124957 0.084780
v -0.147260 3.035507 0.026483
v -0.227689 3.093899 0.122159
v -0.083059 3.014899 0.086233
v -0.223839 3.155249 0.118517
v -0.097462 3.100861 0.063437
v -0.322604 3.219891 0.191995
v -0.301336 3.194198 0.213966
v -0.293807 3.233360 0.216173
vt 1.000000 0.500000
vt 1.000000 1.000000
vt 0.666667 1.000000
vt 0.666667 0.500000
vt 0.333333 1.000000
vt 0.333333 0.500000
vt 0.457846 0.130000
vt 0.250000 0.490000
vt 0.042154 0.130000
vt -0.000000 1.000000
vt -0.000000 0.500000
vt -0.000000 0.500000
vt 0.333333 0.500000
vt 0.666667 0.500000
vt 1.000000 0.500000
vn -0.5151 -0.8527 0.0874
vn 0.3952 0.1896 0.8988
vn 0.6639 -0.0858 -0.7429
vn -0.0147 0.6034 -0.7973
vn 0.0376 0.7748 -0.6311
vn 0.7585 -0.0766 0.6471
vn -0.7538 -0.6430 0.1356
vn -0.6639 0.0858 0.7429
usemtl None
s off
f 13/23/12 14/24/12 16/25/12 15/26/12
f 15/26/13 16/25/13 18/27/13 17/28/13
f 16/29/14 14/30/14 18/31/14
f 17/28/15 18/27/15 14/32/15 13/33/15
f 17/28/16 13/33/16 19/34/16 21/35/16
f 15/26/17 17/28/17 21/35/17 20/36/17
f 13/23/18 15/26/18 20/36/18 19/37/18
f 21/35/19 19/37/19 20/36/19
o Cylinder.046
v 0.128845 2.285250 -0.235531
v 0.060161 2.270133 -0.096342
v 0.093184 2.219383 -0.258115
v -0.007519 2.194709 -0.138003
v 0.061456 2.288845 -0.275104
v -0.030714 2.301220 -0.149071
v 0.202198 2.367772 -0.353652
v 0.190802 2.320354 -0.378128
v 0.167132 2.366372 -0.395435
vt 1.000000 0.500000
vt 1.000000 1.000000
vt 0.666667 1.000000
vt 0.666667 0.500000
vt 0.333333 1.000000
vt 0.333333 0.500000
vt 0.457846 0.130000
vt 0.250000 0.490000
vt 0.042154 0.130000
vt -0.000000 1.000000
vt -0.000000 0.500000
vt -0.000000 0.500000
vt 0.333333 0.500000
vt 1.000000 0.500000
vt 0.666667 0.500000
vn 0.6773 -0.6511 0.3425
vn -0.7366 -0.3245 -0.5934
vn -0.5071 -0.0209 0.8616
vn 0.1547 0.9825 0.1040
vn -0.2824 0.8811 0.3794
vn 0.7551 0.1482 -0.6387
vn -0.4846 -0.4545 -0.7474
vn 0.8503 -0.4597 0.2563
usemtl None
s off
f 22/38/20 23/39/20 25/40/20 24/41/20
f 24/41/21 25/40/21 27/42/21 26/43/21
f 25/44/22 23/45/22 27/46/22
f 26/43/23 27/42/23 23/47/23 22/48/23
f 26/43/24 22/48/24 28/49/24 30/50/24
f 28/51/25 29/52/25 30/50/25
f 24/41/26 26/43/26 30/50/26 29/52/26
f 22/38/27 24/41/27 29/52/27 28/51/27
o Cylinder.047
v -0.204593 1.556241 -0.154319
v -0.162247 1.576989 -0.083833
v -0.229351 1.613992 -0.127145
v -0.179604 1.662870 -0.060952
v -0.186951 1.616847 -0.180817
v -0.124211 1.644791 -0.130272
v -0.301203 1.583138 -0.352730
v -0.324212 1.627250 -0.323984
v -0.293693 1.636849 -0.371713
v -0.455449 1.702602 -0.451014
v -0.470319 1.731111 -0.432435
v -0.450595 1.737315 -0.463282
vt 1.000000 0.500000
vt 1.000000 1.000000
vt 0.666667 1.000000
vt 0.666667 0.500000
vt 0.333333 1.000000
vt 0.333333 0.500000
vt 0.457846 0.130000
vt 0.250000 0.490000
vt 0.042154 0.130000
vt -0.000000 1.000000
vt -0.000000 0.500000
vt -0.000000 0.500000
vt 0.333333 0.500000
vt -0.000000 0.500000
vt 0.333333 0.500000
vt 0.666667 0.500000
vt 1.000000 0.500000
vt 1.000000 0.500000
vt 0.666667 0.500000
vn -0.6436 -0.4132 0.6442
vn -0.2744 0.9032 -0.3300
vn 0.7800 -0.0091 0.6257
vn 0.7278 -0.5490 -0.4110
vn 0.8073 -0.3628 -0.4654
vn 0.2914 -0.3547 -0.8884
vn -0.0297 0.9945 0.1008
vn -0.7772 -0.5409 0.3215
vn -0.8329 -0.0773 -0.5481
vn 0.3286 0.8630 0.3837
vn -0.7045 -0.6071 0.3677
usemtl None
s off
f 31/53/28 32/54/28 34/55/28 33/56/28
f 33/56/29 34/55/29 36/57/29 35/58/29
f 34/59/30 32/60/30 36/61/30
f 35/58/31 36/57/31 32/62/31 31/63/31
f 35/58/32 31/63/32 37/64/32 39/65/32
f 39/65/33 37/64/33 40/66/33 42/67/33
f 33/56/34 35/58/34 39/65/34 38/68/34
f 31/53/35 33/56/35 38/68/35 37/69/35
f 40/70/36 41/71/36 42/67/36
f 38/68/37 39/65/37 42/67/37 41/71/37
f 37/69/38 38/68/38 41/71/38 40/70/38
o Cylinder.048
v -0.312530 2.245785 0.111070
v -0.163969 2.160616 0.039356
v -0.268483 2.209610 0.154608
v -0.102880 2.141006 0.096211
v -0.263999 2.281068 0.150365
v -0.116585 2.222802 0.074520
v -0.391155 2.362504 0.244842
v -0.358557 2.323123 0.278518
v -0.347017 2.383148 0.281900
v -0.437674 2.488706 0.294586
v -0.417328 2.464126 0.315605
v -0.410126 2.501590 0.317716
vt 1.000000 0.500000
vt 1.000000 1.000000
vt 0.666667 1.000000
vt 0.666667 0.500000
vt 0.333333 1.000000
vt 0.333333 0.500000
vt 0.457846 0.130000
vt 0.250000 0.490000
vt 0.042154 0.130000
vt -0.000000 1.000000
vt -0.000000 0.500000
vt -0.000000 0.500000
vt 0.333333 0.500000
vt 0.666667 0.500000
vt 1.000000 0.500000
vt -0.000000 0.500000
vt 0.333333 0.500000
vt 1.000000 0.500000
vt 0.666667 0.500000
vn -0.4484 -0.8934 -0.0268
vn 0.4472 0.1753 0.8771
vn 0.6639 -0.0858 -0.7429
vn -0.0661 0.6460 -0.7605
vn 0.0396 0.7826 -0.6213
vn 0.7866 -0.0919 0.6106
vn -0.7471 -0.6574 0.0983
vn 0.4322 0.4641 -0.7732
vn -0.6639 0.0858 0.7429
vn 0.3192 -0.1144 0.9408
vn -0.8455 -0.4342 0.3107
usemtl None
s off
f 43/72/39 44/73/39 46/74/39 45/75/39
f 45/75/40 46/74/40 48/76/40 47/77/40
f 46/78/41 44/79/41 48/80/41
f 47/77/42 48/76/42 44/81/42 43/82/42
f 47/77/43 43/82/43 49/83/43 51/84/43
f 45/75/44 47/77/44 51/84/44 50/85/44
f 43/72/45 45/75/45 50/85/45 49/86/45
f 51/84/46 49/83/46 52/87/46 54/88/46
f 54/88/47 52/89/47 53/90/47
f 50/85/48 51/84/48 54/88/48 53/90/48
f 49/86/49 50/85/49 53/90/49 52/89/49
o Cylinder.049
v 0.215922 2.706566 0.046674
v 0.071285 2.727173 0.041646
v 0.165933 2.675399 -0.016047
v 0.066700 2.680412 -0.061912
v 0.216650 2.759700 -0.039249
v 0.112695 2.783486 -0.048052
v 0.371660 2.748045 -0.004677
v 0.376697 2.713148 -0.045977
v 0.383567 2.766353 -0.054395
vt 1.000000 0.500000
vt 1.000000 1.000000
vt 0.666667 1.000000
vt 0.666667 0.500000
vt 0.333333 1.000000
vt 0.333333 0.500000
vt 0.457846 0.130000
vt 0.250000 0.490000
vt 0.042154 0.130000
vt -0.000000 1.000000
vt -0.000000 0.500000
vt -0.000000 0.500000
vt 0.333333 0.500000
vt 1.000000 0.500000
vt 0.666667 0.500000
vn -0.1882 -0.8641 0.4667
vn 0.2338 -0.1684 -0.9576
vn -0.8952 0.4196 -0.1498
vn 0.1178 0.8298 0.5454
vn -0.0367 0.8856 0.4630
vn 0.9755 -0.0945 0.1988
vn -0.0950 -0.1851 -0.9781
vn 0.2804 -0.8605 0.4254
usemtl None
s off
f 55/91/50 56/92/50 58/93/50 57/94/50
f 57/94/51 58/93/51 60/95/51 59/96/51
f 58/97/52 56/98/52 60/99/52
f 59/96/53 60/95/53 56/100/53 55/101/53
f 59/96/54 55/101/54 61/102/54 63/103/54
f 61/104/55 62/105/55 63/103/55
f 57/94/56 59/96/56 63/103/56 62/105/56
f 55/91/57 57/94/57 62/105/57 61/104/57
o Cylinder.050
v 0.197509 5.323866 0.050810
v 0.064475 5.311111 0.055942
v 0.194790 5.269152 0.030003
v 0.066503 5.205707 0.013306
v 0.198621 5.314420 -0.007013
v 0.065264 5.295335 -0.056674
v 0.359355 5.339318 0.019309
v 0.358033 5.303141 -0.010746
v 0.361184 5.347166 -0.027047
v 0.516894 5.410746 0.062908
v 0.516098 5.388968 0.044815
v 0.517995 5.415470 0.035002
vt 1.000000 0.500000
vt 1.000000 1.000000
vt 0.666667 1.000000
vt 0.666667 0.500000
vt 0.333333 1.000000
vt 0.333333 0.500000
vt 0.457846 0.130000
vt 0.250000 0.490000
vt 0.042154 0.130000
vt -0.000000 1.000000
vt -0.000000 0.500000
vt -0.000000 0.500000
vt 0.333333 0.500000
vt -0.000000 0.500000
vt 0.333333 0.500000
vt 0.666667 0.500000
vt 1.000000 0.500000
vt 0.750000 0.490000
vt 0.957846 0.130000
vt 0.542154 0.130000
vt 0.666667 0.500000
vt 1.000000 0.500000
vn 0.0662 -0.3678 0.9275
vn 0.3676 -0.5822 -0.7252
vn -0.9998 -0.0174 -0.0046
vn -0.0932 0.9848 -0.1468
vn -0.1499 0.9885 -0.0194
vn -0.4396 0.8883 0.1331
vn -0.0561 -0.5086 -0.8592
vn 0.2593 -0.4804 0.8379
vn 0.9977 -0.0606 0.0291
vn 0.4694 -0.3360 -0.8166
vn 0.0778 -0.6388 0.7655
usemtl None
s off
f 64/106/58 65/107/58 67/108/58 66/109/58
f 66/109/59 67/108/59 69/110/59 68/111/59
f 67/112/60 65/113/60 69/114/60
f 68/111/61 69/110/61 65/115/61 64/116/61
f 68/111/62 64/116/62 70/117/62 72/118/62
f 72/118/63 70/117/63 73/119/63 75/120/63
f 66/109/64 68/111/64 72/118/64 71/121/64
f 64/106/65 66/109/65 71/121/65 70/122/65
f 73/123/66 74/124/66 75/125/66
f 71/121/67 72/118/67 75/120/67 74/126/67
f 70/122/68 71/121/68 74/126/68 73/127/68
o Cylinder.051
v -0.319995 5.165373 0.069366
v -0.160789 5.118509 -0.010692
v -0.275948 5.129199 0.112904
v -0.112288 5.103166 0.058309
v -0.271464 5.200656 0.108661
v -0.132753 5.183733 0.037358
v -0.404611 5.284643 0.225809
v -0.368845 5.241434 0.262759
v -0.356184 5.307292 0.266470
v -0.517648 5.294910 0.352305
v -0.494425 5.266855 0.376297
v -0.486204 5.309617 0.378706
vt 1.000000 0.500000
vt 1.000000 1.000000
vt 0.666667 1.000000
vt 0.666667 0.500000
vt 0.333333 1.000000
vt 0.333333 0.500000
vt 0.457846 0.130000
vt 0.250000 0.490000
vt 0.042154 0.130000
vt -0.000000 1.000000
vt -0.000000 0.500000
vt -0.000000 0.500000
vt 0.333333 0.500000
vt 0.666667 0.500000
vt 1.000000 0.500000
vt -0.000000 0.500000
vt 0.333333 0.500000
vt 1.000000 0.500000
vt 0.666667 0.500000
vn -0.2909 -0.9377 -0.1900
vn 0.4003 0.1906 0.8963
vn 0.8230 0.0622 -0.5646
vn -0.1849 0.7211 -0.6677
vn -0.0026 0.8113 -0.5846
vn 0.8287 -0.1013 0.5505
vn -0.7405 -0.6678 0.0756
vn -0.2144 0.9393 -0.2678
vn -0.6639 0.0858 0.7429
vn 0.6427 -0.1657 0.7480
vn -0.5121 -0.7623 -0.3958
usemtl None
s off
f 76/128/69 77/129/69 79/130/69 78/131/69
f 78/131/70 79/130/70 81/132/70 80/133/70
f 79/134/71 77/135/71 81/136/71
f 80/133/72 81/132/72 77/137/72 76/138/72
f 80/133/73 76/138/73 82/139/73 84/140/73
f 78/131/74 80/133/74 84/140/74 83/141/74
f 76/128/75 78/131/75 83/141/75 82/142/75
f 84/140/76 82/139/76 85/143/76 87/144/76
f 87/144/77 85/145/77 86/146/77
f 83/141/78 84/140/78 87/144/78 86/146/78
f 82/142/79 83/141/79 86/146/79 85/145/79
o Cylinder.052
v 0.029387 4.272964 0.175919
v -0.052136 4.262175 0.120182
v 0.072248 4.227730 0.167606
v 0.005240 4.183104 0.102718
v 0.080416 4.284061 0.140915
v 0.035719 4.273525 0.075439
v 0.113443 4.302300 0.284524
v 0.136329 4.277109 0.270789
v 0.140960 4.312564 0.262514
v 0.166335 4.389890 0.396718
v 0.185581 4.370862 0.390678
v 0.188963 4.397113 0.382408
vt 1.000000 0.500000
vt 1.000000 1.000000
vt 0.666667 1.000000
vt 0.666667 0.500000
vt 0.333333 1.000000
vt 0.333333 0.500000
vt 0.457846 0.130000
vt 0.250000 0.490000
vt 0.042154 0.130000
vt -0.000000 1.000000
vt -0.000000 0.500000
vt -0.000000 0.500000
vt 0.333333 0.500000
vt -0.000000 0.500000
vt 0.333333 0.500000
vt 0.666667 0.500000
vt 1.000000 0.500000
vt 0.750000 0.490000
vt 0.957846 0.130000
vt 0.542154 0.130000
vt 0.666667 0.500000
vt 1.000000 0.500000
vn -0.4260 -0.4999 0.7541
vn 0.7746 -0.3877 -0.4997
vn -0.4380 -0.1211 -0.8908
vn -0.1622 0.9867 -0.0047
vn -0.2975 0.9533 -0.0527
vn -0.5237 0.7772 -0.3488
vn 0.8785 -0.2721 -0.3928
vn -0.4937 -0.6439 0.5846
vn 0.4744 0.2083 0.8553
vn 0.9509 -0.1892 -0.2450
vn -0.3667 -0.6479 0.6676
usemtl None
s off
f 88/147/80 89/148/80 91/149/80 90/150/80
f 90/150/81 91/149/81 93/151/81 92/152/81
f 91/153/82 89/154/82 93/155/82
f 92/152/83 93/151/83 89/156/83 88/157/83
f 92/152/84 88/157/84 94/158/84 96/159/84
f 96/159/85 94/158/85 97/160/85 99/161/85
f 90/150/86 92/152/86 96/159/86 95/162/86
f 88/147/87 90/150/87 95/162/87 94/163/87
f 97/164/88 98/165/88 99/166/88
f 95/162/89 96/159/89 99/161/89 98/167/89
f 94/163/90 95/162/90 98/167/90 97/168/90
o Cylinder.043
v -0.194726 -0.375270 -0.341924
v 0.186035 -0.377689 -0.235743
v 0.227566 -0.360111 0.184473
v -0.174004 -0.385066 0.374262
v -0.435643 -0.374965 0.035806
v -0.000000 15.000000 0.000000
v -0.105855 -0.184162 -0.258136
v 0.169392 -0.164454 -0.126364
v 0.162383 -0.155294 0.173025
v -0.232884 -0.159609 0.252583
v -0.369329 -0.155921 -0.034730
v -0.120183 0.030496 -0.221666
v 0.132031 -0.028654 -0.126496
v 0.115749 -0.017118 0.129338
v -0.142819 0.048198 0.200259
v -0.295008 0.084976 -0.024080
vt 0.600000 0.875000
vt 0.400000 1.000000
vt 0.400000 0.875000
vt 0.200000 1.000000
vt 0.200000 0.875000
vt 0.800000 1.000000
vt 0.800000 0.875000
vt 1.000000 0.875000
vt 0.600000 1.000000
vt 0.200000 0.500000
vt 0.200000 0.750000
vt 0.000000 0.750000
vt 0.000000 0.500000
vt 0.400000 0.500000
vt 0.400000 0.750000
vt 0.600000 0.500000
vt 0.600000 0.750000
vt 0.800000 0.500000
vt 0.800000 0.750000
vt 1.000000 0.500000
vt 1.000000 0.750000
vt 0.000000 0.875000
vt 0.000000 1.000000
vn 0.2669 0.0104 0.9637
vn -0.8263 0.0154 0.5631
vn 0.3553 0.0110 -0.9347
vn 0.9980 0.0082 0.0631
vn -0.7252 0.2945 -0.6224
vn -0.8166 0.2406 0.5248
vn 0.2872 0.3577 0.8886
vn 0.9774 0.2041 -0.0545
vn 0.3090 0.3645 -0.8784
vn -0.6673 0.1630 -0.7267
vn -0.8071 0.3405 0.4823
vn 0.2387 0.2317 0.9430
vn 0.9544 0.2972 0.0290
vn 0.4002 0.1527 -0.9036
vn -0.7467 0.0158 -0.6650
usemtl None
s off
f 113/169/91 105/170/91 114/171/91
f 114/171/92 105/172/92 115/173/92
f 105/174/93 112/175/93 111/176/93
f 112/175/94 105/177/94 113/169/94
f 104/178/95 110/179/95 106/180/95 100/181/95
f 103/182/96 109/183/96 110/179/96 104/178/96
f 102/184/97 108/185/97 109/183/97 103/182/97
f 101/186/98 107/187/98 108/185/98 102/184/98
f 100/188/99 106/189/99 107/187/99 101/186/99
f 110/179/100 115/173/100 111/190/100 106/180/100
f 109/183/101 114/171/101 115/173/101 110/179/101
f 108/185/102 113/169/102 114/171/102 109/183/102
f 107/187/103 112/175/103 113/169/103 108/185/103
f 106/189/104 111/176/104 112/175/104 107/187/104
f 115/173/105 105/191/105 111/190/105
