# Blender v3.2.0 OBJ File: 'trees.blend'
# www.blender.org
mtllib Spruce 4 Trunk.mtl
o Sphere.007
v -0.047447 3.932196 -0.272224
v -0.115858 4.330477 -0.307312
v 0.095989 4.159256 -0.395711
v 0.211216 4.215095 -0.139557
vt 0.500000 0.000000
vt 0.666667 0.333333
vt 0.333333 0.333333
vt 0.166667 0.000000
vt 0.000000 0.333333
vt 0.833333 0.000000
vt 1.000000 0.333333
vn -0.4871 -0.1593 -0.8587
vn 0.4768 0.7895 -0.3866
vn -0.4564 0.0000 0.8898
vn 0.7688 -0.6024 -0.2145
usemtl None
s off
f 3/1/1 1/2/1 2/3/1
f 3/4/2 2/3/2 4/5/2
f 2/3/3 1/2/3 4/5/3
f 3/6/4 4/7/4 1/2/4
o Sphere.012
v -0.247772 3.086410 -0.093545
v -0.289985 3.372526 -0.045687
v -0.357141 3.247890 -0.257598
v -0.104973 3.284733 -0.255444
vt 0.500000 0.000000
vt 0.666667 0.333333
vt 0.333333 0.333333
vt 0.166667 0.000000
vt 0.000000 0.333333
vt 0.833333 0.000000
vt 1.000000 0.333333
vn -0.8945 -0.1989 0.4005
vn -0.1234 0.8720 -0.4738
vn 0.7500 0.0000 0.6615
vn 0.1046 -0.6730 -0.7322
usemtl None
s off
f 7/8/5 5/9/5 6/10/5
f 7/11/6 6/10/6 8/12/6
f 6/10/7 5/9/7 8/12/7
f 7/13/8 8/14/8 5/9/8
o Cylinder.022
v 0.398118 4.150164 0.045951
v 0.203592 4.070772 0.079572
v 0.436094 4.079108 -0.004454
v 0.198315 3.964595 0.039193
v 0.382032 4.144327 -0.047531
v 0.205749 4.052441 -0.032638
v 0.534753 4.260882 -0.033578
v 0.532373 4.195770 -0.087671
v 0.538045 4.275006 -0.117010
v 0.774178 4.461864 -0.045317
v 0.772459 4.414834 -0.084388
v 0.776555 4.472065 -0.105579
v 0.856980 4.605266 0.026621
v 0.876117 4.594042 0.008203
v 0.853277 4.608533 -0.001787
vt 1.000000 0.500000
vt 1.000000 1.000000
vt 0.666667 1.000000
vt 0.666667 0.500000
vt 0.333333 1.000000
vt 0.333333 0.500000
vt 0.457846 0.130000
vt 0.250000 0.490000
vt 0.042154 0.130000
vt -0.000000 1.000000
vt -0.000000 0.500000
vt -0.000000 0.500000
vt 0.333333 0.500000
vt -0.000000 0.500000
vt 0.333333 0.500000
vt 0.666667 0.500000
vt 1.000000 0.500000
vt -0.000000 0.500000
vt 0.333333 0.500000
vt 0.666667 0.500000
vt 1.000000 0.500000
vt 0.750000 0.490000
vt 0.957846 0.130000
vt 0.542154 0.130000
vt 0.666667 0.500000
vt 1.000000 0.500000
vn 0.3261 -0.3826 0.8644
vn 0.1642 -0.5597 -0.8122
vn -0.9977 0.0606 -0.0291
vn -0.4264 0.9013 -0.0770
vn -0.6094 0.7887 0.0810
vn -0.6364 0.7643 0.1043
vn -0.0755 -0.4670 -0.8811
vn 0.7227 -0.2919 0.6265
vn -0.8872 0.4541 0.0822
vn 0.3300 -0.3485 -0.8773
vn 0.5044 -0.5626 0.6550
vn 0.5264 0.8497 0.0291
vn 0.7839 -0.0637 -0.6176
vn 0.3869 -0.5865 0.7115
usemtl None
s off
f 9/15/9 10/16/9 12/17/9 11/18/9
f 11/18/10 12/17/10 14/19/10 13/20/10
f 12/21/11 10/22/11 14/23/11
f 13/20/12 14/19/12 10/24/12 9/25/12
f 13/20/13 9/25/13 15/26/13 17/27/13
f 17/27/14 15/26/14 18/28/14 20/29/14
f 11/18/15 13/20/15 17/27/15 16/30/15
f 9/15/16 11/18/16 16/30/16 15/31/16
f 20/29/17 18/28/17 21/32/17 23/33/17
f 16/30/18 17/27/18 20/29/18 19/34/18
f 15/31/19 16/30/19 19/34/19 18/35/19
f 21/36/20 22/37/20 23/38/20
f 19/34/21 20/29/21 23/33/21 22/39/21
f 18/35/22 19/34/22 22/39/22 21/40/22
o Cylinder.023
v -0.398501 2.831656 0.151154
v -0.314579 2.733914 0.060680
v -0.328664 2.774301 0.220184
v -0.233542 2.707901 0.136100
v -0.321554 2.887598 0.213457
v -0.251722 2.816407 0.107326
v -0.553181 2.961590 0.253755
v -0.520307 2.915100 0.298259
v -0.507333 2.985960 0.304022
vt 1.000000 0.500000
vt 1.000000 1.000000
vt 0.666667 1.000000
vt 0.666667 0.500000
vt 0.333333 1.000000
vt 0.333333 0.500000
vt 0.457846 0.130000
vt 0.250000 0.490000
vt 0.042154 0.130000
vt -0.000000 1.000000
vt -0.000000 0.500000
vt -0.000000 0.500000
vt 0.333333 0.500000
vt 0.666667 0.500000
vt 1.000000 0.500000
vn -0.5845 -0.7974 0.1503
vn 0.7947 0.1344 0.5919
vn 0.6639 -0.0858 -0.7429
vn -0.1385 0.6951 -0.7055
vn 0.1216 0.7405 -0.6609
vn 0.3878 -0.0375 0.9210
vn -0.6463 -0.7556 -0.1065
vn -0.7565 0.0858 0.6484
usemtl None
s off
f 24/41/23 25/42/23 27/43/23 26/44/23
f 26/44/24 27/43/24 29/45/24 28/46/24
f 27/47/25 25/48/25 29/49/25
f 28/46/26 29/45/26 25/50/26 24/51/26
f 28/46/27 24/51/27 30/52/27 32/53/27
f 26/44/28 28/46/28 32/53/28 31/54/28
f 24/41/29 26/44/29 31/54/29 30/55/29
f 32/53/30 30/55/30 31/54/30
o Cylinder.024
v 0.301646 3.495464 -0.429412
v 0.164463 3.453969 -0.193887
v 0.233773 3.370100 -0.472397
v 0.072488 3.351472 -0.250501
v 0.173385 3.502306 -0.504731
v 0.040968 3.496215 -0.265542
v 0.510618 3.748843 -0.711994
v 0.434258 3.683010 -0.758530
v 0.422472 3.793342 -0.762792
v 0.561215 3.999960 -1.029143
v 0.522067 3.966209 -1.053000
v 0.516025 4.022773 -1.055185
vt 1.000000 0.500000
vt 1.000000 1.000000
vt 0.666667 1.000000
vt 0.666667 0.500000
vt 0.333333 1.000000
vt 0.333333 0.500000
vt 0.457846 0.130000
vt 0.250000 0.490000
vt 0.042154 0.130000
vt -0.000000 1.000000
vt -0.000000 0.500000
vt -0.000000 0.500000
vt 0.333333 0.500000
vt -0.000000 0.500000
vt 0.333333 0.500000
vt 0.666667 0.500000
vt 1.000000 0.500000
vt 1.000000 0.500000
vt 0.666667 0.500000
vn 0.6818 -0.6362 0.3612
vn -0.7821 -0.3480 -0.5169
vn -0.5071 -0.0209 0.8616
vn 0.1007 0.9827 0.1557
vn -0.1790 0.7650 0.6186
vn 0.0347 0.7808 0.6238
vn -0.5602 -0.2841 -0.7781
vn 0.8020 -0.5970 -0.0171
vn 0.5071 0.0209 -0.8616
vn -0.9173 -0.1127 -0.3820
vn 0.7250 -0.5916 -0.3527
usemtl None
s off
f 33/56/31 34/57/31 36/58/31 35/59/31
f 35/59/32 36/58/32 38/60/32 37/61/32
f 36/62/33 34/63/33 38/64/33
f 37/61/34 38/60/34 34/65/34 33/66/34
f 37/61/35 33/66/35 39/67/35 41/68/35
f 41/68/36 39/67/36 42/69/36 44/70/36
f 35/59/37 37/61/37 41/68/37 40/71/37
f 33/56/38 35/59/38 40/71/38 39/72/38
f 42/73/39 43/74/39 44/70/39
f 40/71/40 41/68/40 44/70/40 43/74/40
f 39/72/41 40/71/41 43/74/41 42/73/41
o Cylinder.025
v 0.111399 7.342919 -0.380484
v 0.046953 7.419516 -0.203947
v 0.067557 7.223798 -0.391569
v 0.046834 7.277321 -0.190678
v -0.009233 7.322483 -0.416053
v -0.076783 7.348450 -0.198084
v 0.010156 7.389456 -0.612241
v -0.032683 7.301235 -0.609897
v -0.076279 7.409534 -0.605605
v 0.069023 7.514991 -0.740599
v 0.053449 7.466938 -0.767617
v 0.021304 7.516139 -0.758216
v 0.084041 7.734481 -0.852598
v 0.078069 7.716053 -0.862959
v 0.065743 7.734921 -0.859354
vt 1.000000 0.500000
vt 1.000000 1.000000
vt 0.666667 1.000000
vt 0.666667 0.500000
vt 0.333333 1.000000
vt 0.333333 0.500000
vt 0.457846 0.130000
vt 0.250000 0.490000
vt 0.042154 0.130000
vt -0.000000 1.000000
vt -0.000000 0.500000
vt -0.000000 0.500000
vt 0.333333 0.500000
vt -0.000000 0.500000
vt 0.333333 0.500000
vt 0.666667 0.500000
vt 1.000000 0.500000
vt -0.000000 0.500000
vt 0.333333 0.500000
vt 0.666667 0.500000
vt 1.000000 0.500000
vt 0.750000 0.490000
vt 0.957846 0.130000
vt 0.542154 0.130000
vt 0.666667 0.500000
vt 1.000000 0.500000
vn 0.9502 -0.1576 0.2688
vn -0.6472 -0.7623 0.0083
vn -0.0062 0.0929 0.9957
vn -0.2952 0.8960 -0.3317
vn -0.0462 0.9468 0.3186
vn 0.0651 0.7512 0.6569
vn -0.8603 -0.4850 0.1572
vn 0.8261 -0.3260 -0.4596
vn -0.2998 0.4498 0.8413
vn -0.6990 -0.2789 -0.6585
vn 0.9142 -0.4017 0.0544
vn 0.3284 0.3798 -0.8648
vn -0.5892 -0.2374 -0.7723
vn 0.9565 -0.1818 -0.2280
usemtl None
s off
f 45/75/42 46/76/42 48/77/42 47/78/42
f 47/78/43 48/77/43 50/79/43 49/80/43
f 48/81/44 46/82/44 50/83/44
f 49/80/45 50/79/45 46/84/45 45/85/45
f 49/80/46 45/85/46 51/86/46 53/87/46
f 53/87/47 51/86/47 54/88/47 56/89/47
f 47/78/48 49/80/48 53/87/48 52/90/48
f 45/75/49 47/78/49 52/90/49 51/91/49
f 56/89/50 54/88/50 57/92/50 59/93/50
f 52/90/51 53/87/51 56/89/51 55/94/51
f 51/91/52 52/90/52 55/94/52 54/95/52
f 57/96/53 58/97/53 59/98/53
f 55/94/54 56/89/54 59/93/54 58/99/54
f 54/95/55 55/94/55 58/99/55 57/100/55
o Cylinder.026
v -0.046393 7.559058 0.440066
v -0.108663 7.547084 0.205633
v 0.049360 7.519928 0.392823
v -0.003576 7.562447 0.164983
v 0.031555 7.631959 0.400805
v -0.072954 7.651550 0.178364
v 0.031442 7.738893 0.686426
v 0.074941 7.705930 0.639056
v 0.073616 7.778091 0.642752
vt 1.000000 0.500000
vt 1.000000 1.000000
vt 0.666667 1.000000
vt 0.666667 0.500000
vt 0.333333 1.000000
vt 0.333333 0.500000
vt 0.457846 0.130000
vt 0.250000 0.490000
vt 0.042154 0.130000
vt -0.000000 1.000000
vt -0.000000 0.500000
vt -0.000000 0.500000
vt 0.333333 0.500000
vt 0.666667 0.500000
vt 1.000000 0.500000
vn -0.1316 -0.9908 -0.0327
vn 0.8782 0.4073 -0.2509
vn -0.3418 -0.1263 -0.9313
vn -0.7548 0.5907 0.2854
vn -0.7448 0.6248 -0.2342
vn 0.9705 0.1143 -0.2122
vn -0.0092 -0.8019 0.5974
vn 0.7288 -0.0217 0.6843
usemtl None
s off
f 60/101/56 61/102/56 63/103/56 62/104/56
f 62/104/57 63/103/57 65/105/57 64/106/57
f 63/107/58 61/108/58 65/109/58
f 64/106/59 65/105/59 61/110/59 60/111/59
f 64/106/60 60/111/60 66/112/60 68/113/60
f 62/104/61 64/106/61 68/113/61 67/114/61
f 60/101/62 62/104/62 67/114/62 66/115/62
f 66/115/63 67/114/63 68/113/63
o Cylinder.027
v 0.046405 5.905654 0.417689
v -0.083799 5.915640 0.200106
v 0.129265 5.906615 0.339810
v 0.021289 5.931003 0.159455
v 0.078437 6.003773 0.369955
v -0.048090 6.020107 0.172836
v 0.009783 6.042044 0.559389
v 0.059052 6.018566 0.512018
v 0.043152 6.088965 0.515715
v 0.117476 6.137688 0.728424
v 0.163826 6.115623 0.719109
v 0.153825 6.163715 0.701532
v 0.230910 6.337115 0.916829
v 0.265696 6.320555 0.909838
v 0.258190 6.356649 0.896645
vt 1.000000 0.500000
vt 1.000000 1.000000
vt 0.666667 1.000000
vt 0.666667 0.500000
vt 0.333333 1.000000
vt 0.333333 0.500000
vt 0.457846 0.130000
vt 0.250000 0.490000
vt 0.042154 0.130000
vt -0.000000 1.000000
vt -0.000000 0.500000
vt -0.000000 0.500000
vt 0.333333 0.500000
vt 0.666667 0.500000
vt 1.000000 0.500000
vt -0.000000 0.500000
vt 0.333333 0.500000
vt -0.000000 0.500000
vt 0.333333 0.500000
vt 0.666667 0.500000
vt 1.000000 0.500000
vt 1.000000 0.500000
vt 0.666667 0.500000
vn 0.0234 -0.9947 -0.0999
vn 0.7285 0.5618 -0.3920
vn -0.3418 -0.1263 -0.9313
vn -0.7531 0.4347 0.4938
vn -0.9126 0.1801 -0.3671
vn 0.9314 0.3527 0.0904
vn 0.5021 -0.5869 0.6352
vn -0.6847 0.7251 0.0732
vn -0.6893 0.6646 -0.2885
vn 0.8461 0.1242 -0.5183
vn -0.1109 -0.8577 0.5021
vn 0.3546 0.3852 0.8520
vn 0.8784 0.0080 -0.4778
vn -0.1487 -0.6331 0.7597
usemtl None
s off
f 69/116/64 70/117/64 72/118/64 71/119/64
f 71/119/65 72/118/65 74/120/65 73/121/65
f 72/122/66 70/123/66 74/124/66
f 73/121/67 74/120/67 70/125/67 69/126/67
f 73/121/68 69/126/68 75/127/68 77/128/68
f 71/119/69 73/121/69 77/128/69 76/129/69
f 69/116/70 71/119/70 76/129/70 75/130/70
f 77/128/71 75/127/71 78/131/71 80/132/71
f 80/132/72 78/131/72 81/133/72 83/134/72
f 76/129/73 77/128/73 80/132/73 79/135/73
f 75/130/74 76/129/74 79/135/74 78/136/74
f 83/134/75 81/137/75 82/138/75
f 79/135/76 80/132/76 83/134/76 82/138/76
f 78/136/77 79/135/77 82/138/77 81/137/77
o Cylinder.028
v -0.334422 3.547673 0.231238
v -0.224282 3.449931 0.175583
v -0.292939 3.490318 0.320241
v -0.174519 3.423918 0.274471
v -0.283935 3.603615 0.316405
v -0.181562 3.532424 0.241171
v -0.622960 3.640880 0.283603
v -0.607608 3.594390 0.336760
v -0.597447 3.665249 0.346673
vt 1.000000 0.500000
vt 1.000000 1.000000
vt 0.666667 1.000000
vt 0.666667 0.500000
vt 0.333333 1.000000
vt 0.333333 0.500000
vt 0.457846 0.130000
vt 0.250000 0.490000
vt 0.042154 0.130000
vt -0.000000 1.000000
vt -0.000000 0.500000
vt -0.000000 0.500000
vt 0.333333 0.500000
vt 0.666667 0.500000
vt 1.000000 0.500000
vn -0.6003 -0.7974 -0.0623
vn 0.5393 0.1344 0.8313
vn 0.8807 -0.0858 -0.4658
vn 0.1155 0.6951 -0.7096
vn 0.1431 0.8376 -0.5272
vn 0.0638 -0.0396 0.9972
vn -0.3223 -0.8212 -0.4710
vn -0.9347 0.0858 0.3450
usemtl None
s off
f 84/139/78 85/140/78 87/141/78 86/142/78
f 86/142/79 87/141/79 89/143/79 88/144/79
f 87/145/80 85/146/80 89/147/80
f 88/144/81 89/143/81 85/148/81 84/149/81
f 88/144/82 84/149/82 90/150/82 92/151/82
f 86/142/83 88/144/83 92/151/83 91/152/83
f 84/139/84 86/142/84 91/152/84 90/153/84
f 92/151/85 90/153/85 91/152/85
o Cylinder.029
v -0.481308 4.232808 0.187984
v -0.248921 4.241108 0.052032
v -0.395582 4.133963 0.259056
v -0.159739 4.168912 0.146926
v -0.416924 4.269382 0.317164
v -0.201209 4.309000 0.175663
v -0.742065 4.325314 0.261348
v -0.706319 4.255923 0.340326
v -0.686008 4.364770 0.348704
v -0.913951 4.599813 0.508951
v -0.895626 4.564240 0.549441
v -0.885213 4.620042 0.553736
vt 1.000000 0.500000
vt 1.000000 1.000000
vt 0.666667 1.000000
vt 0.666667 0.500000
vt 0.333333 1.000000
vt 0.333333 0.500000
vt 0.457846 0.130000
vt 0.250000 0.490000
vt 0.042154 0.130000
vt -0.000000 1.000000
vt -0.000000 0.500000
vt -0.000000 0.500000
vt 0.333333 0.500000
vt -0.000000 0.500000
vt 0.333333 0.500000
vt 0.666667 0.500000
vt 1.000000 0.500000
vt 1.000000 0.500000
vt 0.666667 0.500000
vn -0.2295 -0.7885 -0.5707
vn 0.5031 -0.1534 0.8505
vn 0.8004 0.3384 -0.4948
vn -0.2639 0.9271 -0.2661
vn 0.2244 0.8737 -0.4316
vn 0.3635 0.7391 -0.5671
vn 0.0891 -0.2612 0.9612
vn -0.4197 -0.7539 -0.5055
vn -0.8595 0.1222 0.4964
vn 0.5917 -0.1710 0.7878
vn -0.8652 -0.4993 -0.0471
usemtl None
s off
f 93/154/86 94/155/86 96/156/86 95/157/86
f 95/157/87 96/156/87 98/158/87 97/159/87
f 96/160/88 94/161/88 98/162/88
f 97/159/89 98/158/89 94/163/89 93/164/89
f 97/159/90 93/164/90 99/165/90 101/166/90
f 101/166/91 99/165/91 102/167/91 104/168/91
f 95/157/92 97/159/92 101/166/92 100/169/92
f 93/154/93 95/157/93 100/169/93 99/170/93
f 102/171/94 103/172/94 104/168/94
f 100/169/95 101/166/95 104/168/95 103/172/95
f 99/170/96 100/169/96 103/172/96 102/171/96
o Cylinder.030
v -0.268618 8.336083 0.164860
v -0.169190 8.238341 0.091767
v -0.212996 8.278728 0.245783
v -0.103769 8.212328 0.181072
v -0.204749 8.392025 0.240512
v -0.116218 8.320834 0.149394
v -0.439822 8.466018 0.236567
v -0.415896 8.419527 0.286455
v -0.404237 8.490387 0.294553
vt 1.000000 0.500000
vt 1.000000 1.000000
vt 0.666667 1.000000
vt 0.666667 0.500000
vt 0.333333 1.000000
vt 0.333333 0.500000
vt 0.457846 0.130000
vt 0.250000 0.490000
vt 0.042154 0.130000
vt -0.000000 1.000000
vt -0.000000 0.500000
vt -0.000000 0.500000
vt 0.333333 0.500000
vt 0.666667 0.500000
vt 1.000000 0.500000
vn -0.6023 -0.7974 0.0378
vn 0.6693 0.1344 0.7307
vn 0.7916 -0.0858 -0.6049
vn -0.0034 0.6951 -0.7189
vn 0.2436 0.7405 -0.6263
vn 0.2078 -0.0375 0.9775
vn -0.6147 -0.7556 -0.2260
vn -0.8648 0.0858 0.4947
usemtl None
s off
f 105/173/97 106/174/97 108/175/97 107/176/97
f 107/176/98 108/175/98 110/177/98 109/178/98
f 108/179/99 106/180/99 110/181/99
f 109/178/100 110/177/100 106/182/100 105/183/100
f 109/178/101 105/183/101 111/184/101 113/185/101
f 107/176/102 109/178/102 113/185/102 112/186/102
f 105/173/103 107/176/103 112/186/103 111/187/103
f 113/185/104 111/187/104 112/186/104
o Sphere.013
v -0.075697 6.732039 -0.235499
v -0.296215 6.799648 0.014514
v -0.338859 6.862079 -0.271381
v -0.147226 7.054550 -0.154403
vt 0.500000 0.000000
vt 0.666667 0.333333
vt 0.333333 0.333333
vt 0.166667 0.000000
vt 0.000000 0.333333
vt 0.833333 0.000000
vt 1.000000 0.333333
vn -0.4246 -0.8957 -0.1323
vn -0.7574 0.6052 0.2451
vn 0.7500 0.0000 0.6615
vn 0.2688 0.2905 -0.9183
usemtl None
s off
f 116/188/105 114/189/105 115/190/105
f 116/191/106 115/190/106 117/192/106
f 115/190/107 114/189/107 117/192/107
f 116/193/108 117/194/108 114/189/108
o Sphere.014
v 0.186779 6.233965 0.100170
v 0.211684 6.292987 -0.117644
v 0.344768 6.324981 0.024570
v 0.195863 6.453323 0.042321
vt 0.500000 0.000000
vt 0.666667 0.333333
vt 0.333333 0.333333
vt 0.166667 0.000000
vt 0.000000 0.333333
vt 0.833333 0.000000
vt 1.000000 0.333333
vn 0.4190 -0.8873 -0.1925
vn 0.4824 0.6421 -0.5959
vn -0.9938 0.0120 -0.1104
vn 0.3087 0.2306 0.9228
usemtl None
s off
f 120/195/109 118/196/109 119/197/109
f 120/198/110 119/197/110 121/199/110
f 119/197/111 118/196/111 121/199/111
f 120/200/112 121/201/112 118/196/112
o Sphere.015
v 0.234291 1.649515 -0.002871
v 0.262186 1.808151 -0.199650
v 0.411246 1.776902 -0.039401
v 0.244465 1.900519 0.036612
vt 0.500000 0.000000
vt 0.666667 0.333333
vt 0.333333 0.333333
vt 0.166667 0.000000
vt 0.000000 0.333333
vt 0.833333 0.000000
vt 1.000000 0.333333
vn 0.4190 -0.7350 -0.5331
vn 0.4824 0.8275 -0.2873
vn -0.9938 0.0554 -0.0962
vn 0.3087 -0.1600 0.9376
usemtl None
s off
f 124/202/113 122/203/113 123/204/113
f 124/205/114 123/204/114 125/206/114
f 123/204/115 122/203/115 125/206/115
f 124/207/116 125/208/116 122/203/116
o Sphere.016
v 0.241304 2.264713 0.121113
v 0.259925 2.217464 -0.040871
v 0.359433 2.293315 0.037397
v 0.248096 2.382124 -0.001307
vt 0.500000 0.000000
vt 0.666667 0.333333
vt 0.333333 0.333333
vt 0.166667 0.000000
vt 0.000000 0.333333
vt 0.833333 0.000000
vt 1.000000 0.333333
vn 0.4190 -0.8576 0.2983
vn 0.4824 0.2373 -0.8432
vn -0.9938 -0.0473 -0.1005
vn 0.3087 0.6778 0.6672
usemtl None
s off
f 128/209/117 126/210/117 127/211/117
f 128/212/118 127/211/118 129/213/118
f 127/211/119 126/210/119 129/213/119
f 128/214/120 129/215/120 126/210/120
o Sphere.017
v 0.242955 2.792303 0.058952
v 0.270754 2.724209 -0.046554
v 0.332442 2.808260 -0.006158
v 0.241282 2.849005 -0.056473
vt 0.500000 0.000000
vt 0.666667 0.333333
vt 0.333333 0.333333
vt 0.166667 0.000000
vt 0.000000 0.333333
vt 0.833333 0.000000
vt 1.000000 0.333333
vn 0.5200 -0.6487 0.5557
vn 0.4994 0.0492 -0.8650
vn -0.9663 -0.2363 -0.1021
vn 0.1573 0.8873 0.4336
usemtl None
s off
f 132/216/121 130/217/121 131/218/121
f 132/219/122 131/218/122 133/220/122
f 131/218/123 130/217/123 133/220/123
f 132/221/124 133/222/124 130/217/124
o Cylinder.021
v -0.038749 -0.212874 -0.573731
v 0.466165 -0.215458 -0.028134
v 0.139645 -0.180879 0.586917
v -0.515694 -0.338676 0.426568
v -0.578201 -0.190315 -0.361062
v -0.000000 20.000000 0.000000
v -0.113701 0.069049 -0.519323
v 0.399502 0.068683 -0.183493
v 0.267062 0.083260 0.345630
v -0.272139 0.140291 0.386655
v -0.536678 0.166033 -0.217097
v -0.123807 0.409486 -0.458722
v 0.323940 0.418209 -0.235199
v 0.286238 0.400910 0.257857
v -0.198802 0.474388 0.384563
v -0.452646 0.441003 -0.029545
v -0.054055 -0.656380 -0.936582
v 0.760036 -0.709475 -0.333731
v 0.313555 -0.670982 0.616627
v -0.779450 -0.616854 -0.260400
v -0.628801 -0.668755 0.639209
vt 0.600000 0.875000
vt 0.400000 1.000000
vt 0.400000 0.875000
vt 0.200000 1.000000
vt 0.200000 0.875000
vt 0.800000 1.000000
vt 0.800000 0.875000
vt 1.000000 0.875000
vt 0.600000 1.000000
vt 0.200000 0.500000
vt 0.200000 0.750000
vt 0.000000 0.750000
vt 0.000000 0.500000
vt 0.400000 0.500000
vt 0.400000 0.750000
vt 0.600000 0.500000
vt 0.600000 0.750000
vt 0.800000 0.500000
vt 0.800000 0.750000
vt 1.000000 0.500000
vt 1.000000 0.750000
vt 0.000000 0.875000
vt 0.000000 1.000000
vt 0.700000 0.500000
vt 0.900000 0.500000
vt 0.500000 0.500000
vt 0.100000 0.500000
vt 0.300000 0.500000
vt 1.000000 0.500000
vt 0.000000 0.000000
vt 0.000000 0.000000
vt 0.000000 0.000000
vt 0.000000 0.000000
vt 0.000000 0.000000
vn 0.2550 0.0164 0.9668
vn -0.8531 0.0190 0.5214
vn 0.4463 0.0181 -0.8947
vn 0.9969 0.0156 0.0768
vn -0.4331 0.2467 -0.8669
vn -0.9248 0.2841 0.2529
vn -0.1246 0.4050 0.9058
vn 0.9185 0.1598 0.3616
vn 0.6543 0.0289 -0.7557
vn -0.6195 0.3564 -0.6994
vn -0.8876 0.0919 0.4514
vn 0.1743 0.1102 0.9785
vn 0.9796 0.1169 0.1634
vn 0.5012 0.0734 -0.8622
vn -0.7930 0.0193 -0.6090
vn 0.8749 0.2730 0.4000
vn 0.0241 0.0690 0.9973
vn -0.2665 0.6158 -0.7414
vn 0.8427 0.3251 0.4291
vn 0.5589 0.6506 -0.5142
vn -0.8789 0.4512 0.1547
vn -0.8920 0.4174 0.1735
vn 0.5277 0.5269 -0.6663
vn -0.6705 0.1446 -0.7277
vn -0.3230 0.5883 0.7413
vn -0.0111 0.9999 -0.0039
vn -0.0604 -0.9982 -0.0064
vn -0.0595 -0.9982 0.0125
vn -0.0037 -0.9984 -0.0570
usemtl None
s off
f 147/223/125 139/224/125 148/225/125
f 148/225/126 139/226/126 149/227/126
f 139/228/127 146/229/127 145/230/127
f 146/229/128 139/231/128 147/223/128
f 138/232/129 144/233/129 140/234/129 134/235/129
f 137/236/130 143/237/130 144/233/130 138/232/130
f 136/238/131 142/239/131 143/237/131 137/236/131
f 135/240/132 141/241/132 142/239/132 136/238/132
f 134/242/133 140/243/133 141/241/133 135/240/133
f 144/233/134 149/227/134 145/244/134 140/234/134
f 143/237/135 148/225/135 149/227/135 144/233/135
f 142/239/136 147/223/136 148/225/136 143/237/136
f 141/241/137 146/229/137 147/223/137 142/239/137
f 140/243/138 145/230/138 146/229/138 141/241/138
f 149/227/139 139/245/139 145/244/139
f 152/246/140 151/247/140 135/240/140
f 136/238/141 154/248/141 152/246/141
f 138/232/142 134/235/142 150/249/142
f 135/240/143 136/238/143 152/246/143
f 134/242/144 135/240/144 151/247/144
f 137/236/145 138/232/145 153/250/145
f 153/250/146 154/248/146 137/236/146
f 134/235/147 151/247/147 150/249/147
f 138/232/148 150/249/148 153/250/148
f 136/238/149 137/236/149 154/248/149
f 135/240/150 151/247/150 134/242/150 150/251/150 138/232/150 153/250/150 137/236/150 154/248/150 136/238/150 152/246/150
f 150/252/151 151/253/151 153/254/151
f 153/254/152 151/253/152 152/255/152
f 153/254/153 152/255/153 154/256/153
