# Blender v3.2.0 OBJ File: 'trees.blend'
# www.blender.org
mtllib Spruce Large 2 Leaves - LOD 1.mtl
o _Joined_Plane.1017
v 0.977608 9.366837 -0.133905
v -0.113809 7.778020 -3.707814
v -0.987578 9.530789 0.393346
v -2.078994 7.941973 -3.180562
v 1.154014 8.823741 0.150774
v 1.275446 7.556567 -2.521005
v -1.166835 8.853699 0.031083
v -1.045403 7.586525 -2.640696
v 0.194275 7.119541 -1.085544
v -2.459774 4.920561 -1.503169
v 0.129813 6.797549 1.019540
v -2.524235 4.598570 0.601915
v 0.779021 7.172173 -0.840659
v -1.075432 5.678039 -2.301674
v -0.464508 6.961013 0.953689
v -2.318962 5.466879 -0.507325
v -0.878026 9.329995 -1.170164
v -2.827029 7.097609 1.168313
v 1.253429 9.651160 0.912892
v -0.695574 7.418774 3.251369
v -0.780003 8.812943 -1.036834
v -2.633717 7.276707 0.581955
v 0.959908 8.606494 0.759658
v -0.893805 7.070258 2.378447
v 0.802912 9.670154 -0.910618
v -1.675589 8.647335 -2.888907
v -0.710256 9.676709 0.981765
v -3.188757 8.653891 -0.996524
v 1.202376 12.806143 -0.710747
v -0.403761 10.812574 -2.597171
v -0.958724 12.890859 1.039727
v -2.564861 10.897291 -0.846697
v -0.594808 6.527897 -0.724335
v -2.471714 5.103472 1.275589
v 0.758181 6.535842 0.551088
v -1.118726 5.111417 2.551013
v -0.893054 12.339184 -0.564298
v -2.302279 10.865345 2.574069
v 1.047201 12.559083 0.410206
v -0.362024 11.085243 3.548573
v 0.638468 7.842456 -0.747521
v -1.577817 8.113833 -2.942244
v -0.746531 7.886644 0.656549
v -2.962816 8.158022 -1.538173
v 0.200929 7.241476 -1.125602
v -2.179619 6.274971 -1.406413
v -0.052950 7.212177 1.127470
v -2.433498 6.245672 0.846659
v 0.786668 7.887075 -0.007026
v 0.660843 7.001684 -2.202590
v -0.735028 7.768059 0.128175
v -0.860853 6.882668 -2.067389
v -1.066276 11.099172 -0.208014
v -1.447782 10.495672 2.207333
v 1.095138 11.188309 0.155655
v 0.713633 10.584809 2.571002
v 0.076110 11.939343 -1.049450
v -2.298826 10.203515 -1.001858
v 0.204751 11.819494 0.998769
v -2.170184 10.083666 1.046361
v 0.074491 13.918947 0.700071
v 2.017376 13.453436 0.483959
v -0.106215 13.789472 -0.645622
v 1.836670 13.323961 -0.861734
v -1.088295 14.163391 -0.298531
v -1.272155 11.895369 2.495031
v 1.155433 14.295349 -0.043724
v 0.971573 12.027328 2.749837
v 0.607126 8.644106 -0.575236
v -0.740781 8.400052 -2.181949
v -0.688163 8.685694 0.505094
v -2.036070 8.441640 -1.101619
v -0.026278 9.850865 -0.832028
v -2.440142 8.753865 -0.614707
v 0.163376 9.754483 0.788003
v -2.250488 8.657483 1.005324
v 1.075292 9.474059 -0.531006
v -0.650474 7.021739 -2.195464
v -0.868896 9.845531 0.937488
v -2.594662 7.393210 -0.726970
v -0.513538 13.494299 -0.565864
v -2.103443 12.772367 0.956375
v 0.526636 13.354486 0.454242
v -1.063268 12.632556 1.976481
v -0.306607 8.444561 -0.764674
v -1.885894 7.163201 0.399600
v 0.599232 8.644908 0.684553
v -0.980056 7.363548 1.848827
v 0.731131 13.088863 -0.905796
v -1.224309 12.029852 -2.181030
v -0.605007 13.219675 1.034402
v -2.560446 12.160664 -0.240831
v 0.483760 10.354644 -0.532964
v -2.035065 9.287077 -2.319905
v -0.400727 10.459123 0.651367
v -2.919552 9.391556 -1.135574
v -0.870228 10.718954 -0.768725
v -2.463824 9.605969 1.244603
v 0.944899 10.601114 0.602848
v -0.648696 9.488131 2.616176
v -0.962018 10.378047 -0.537517
v -2.296802 9.112268 1.915456
v 0.963422 10.070907 0.351720
v -0.371361 8.805128 2.804693
v 0.959981 10.723572 -0.548965
v -0.189045 9.532640 -2.099949
v -0.833506 10.773809 0.741141
v -1.982532 9.582878 -0.809842
v 0.193188 10.546644 -0.626874
v -2.476831 9.593566 -1.124034
v -0.095632 10.670033 0.687705
v -2.765651 9.716954 0.190545
v -0.827480 10.692586 -0.173475
v -0.950575 9.776181 1.857970
v 0.904689 10.951771 0.048405
v 0.781595 10.035366 2.079851
v -0.099067 14.059214 0.881209
v 2.047885 11.791467 0.784262
v -0.286038 13.954351 -0.806492
v 1.860915 11.686605 -0.903439
v -1.077213 13.173699 -0.144196
v -1.449077 13.226995 1.939601
v 1.024445 13.040945 0.234250
v 0.652581 13.094240 2.318048
v 1.006746 13.886204 0.146415
v 1.185291 13.016704 -1.850078
v -0.990545 13.814985 -0.001185
v -0.812000 12.945484 -1.997678
v 0.125524 13.158813 -0.688280
v -1.454265 12.459588 -0.833794
v -0.019069 13.195059 0.707345
v -1.598858 12.495833 0.561831
v 0.677144 12.169309 -0.741819
v -1.042755 11.061411 -2.021632
v -0.563661 12.257860 0.849001
v -2.283560 11.149963 -0.430813
v -0.719136 12.055721 -0.625384
v -2.136910 10.591255 1.740595
v 0.878752 12.337877 0.506770
v -0.539021 10.873410 2.872749
v -0.321027 13.943862 -0.524767
v -2.568093 12.803123 1.132062
v 0.410434 13.866469 0.413988
v -1.836632 12.725731 2.070817
v -0.541665 13.813316 0.546647
v 0.891098 13.198849 1.737564
v 0.513127 13.987863 -0.632290
v 1.945891 13.373394 0.558627
v -0.551767 14.550774 0.604030
v 1.005722 13.442113 1.889031
v 0.339199 14.341555 -0.656376
v 1.896688 13.232893 0.628625
v -0.580426 14.781088 -0.557967
v -2.023642 14.442654 0.941831
v 0.571216 14.662941 0.523567
v -0.872000 14.324507 2.023365
v 0.534672 14.328514 0.631516
v 1.985169 13.579492 -0.676934
v -0.583795 14.204174 -0.537196
v 0.866702 13.455152 -1.845645
v 0.494407 14.981302 -0.405783
v -1.155456 13.591425 -1.731686
v -0.338826 15.043724 0.565601
v -1.988688 13.653847 -0.760303
v -0.078797 14.865732 -0.822509
v -1.812310 14.088902 -0.527034
v 0.185322 14.897050 0.809379
v -1.548192 14.120220 1.104854
v 0.873770 15.801301 -0.093611
v 0.635580 15.051332 -1.926007
v -0.786143 15.615955 0.198017
v -1.024333 14.865986 -1.634378
v -0.786378 15.498375 0.066082
v -0.361108 14.531429 2.687819
v 0.780005 15.545866 -0.170484
v 1.205275 14.578918 2.451252
v -0.134400 15.076054 0.658792
v 1.809611 13.495380 0.453828
v -0.136073 15.251650 -0.711267
v 1.807938 13.670977 -0.916231
v -0.050779 15.474508 0.778332
v 1.483234 14.766592 0.644229
v -0.076762 15.728138 -0.857765
v 1.457252 15.020220 -0.991867
v -0.838773 17.283562 -0.123697
v -0.825445 15.893980 1.870005
v 0.860506 17.371700 -0.073628
v 0.873834 15.982117 1.920075
v 0.529044 15.931410 -0.006366
v 0.254716 14.903428 -2.240598
v -0.482191 15.875008 0.143748
v -0.756519 14.847027 -2.090483
v 0.169435 16.296452 -0.629811
v -1.209289 15.590757 -0.942602
v -0.061773 16.192795 0.623171
v -1.440497 15.487101 0.310380
v 0.558694 17.390688 -0.448098
v -0.376868 16.476246 -1.503206
v -0.421718 17.258339 0.535937
v -1.357279 16.343895 -0.519171
v 0.415116 17.139328 0.621661
v 1.436624 15.511086 -0.739037
v -0.652158 17.377514 -0.464588
v 0.369350 15.749273 -1.825285
v -0.569874 15.711804 -0.611445
v -1.397140 14.405037 0.663403
v 0.765386 15.876096 0.423429
v -0.061880 14.569328 1.698277
v -0.511332 16.649445 0.439797
v 0.627008 15.857235 1.541746
v 0.438529 16.681250 -0.518566
v 1.576868 15.889040 0.583383
v -0.421560 17.980549 0.441040
v 0.726645 17.444178 1.442123
v 0.360287 17.941622 -0.476568
v 1.508493 17.405251 0.524515
v -0.530256 17.877407 -0.476668
v -1.434487 17.217379 0.714162
v 0.597538 17.921711 0.404254
v -0.306693 17.261683 1.595084
v 0.236043 18.729671 0.452494
v 1.382073 17.936876 -0.584335
v -0.380639 19.016180 -0.448214
v 0.765392 18.223385 -1.485042
v 0.541803 18.208580 -0.442727
v -0.537488 17.116692 -1.480180
v -0.387041 18.167419 0.566896
v -1.466332 17.075531 -0.470556
v 0.158963 18.601311 -0.586035
v -1.149980 17.429794 -0.634623
v 0.088373 18.630646 0.608410
v -1.220570 17.459126 0.559822
v 0.591860 18.806507 0.140133
v 0.578618 17.946569 -0.976899
v -0.644951 18.934710 0.056099
v -0.658194 18.074772 -1.060933
v -0.627574 19.134663 -0.192173
v -0.920661 18.027290 0.971713
v 0.622336 18.991627 -0.013513
v 0.329250 17.884256 1.150374
v -0.015847 17.359516 0.620281
v 1.336810 16.644764 0.516992
v -0.108326 17.362263 -0.609814
v 1.244331 16.647511 -0.713103
vt 0.726052 0.000085
vt 0.726052 0.999915
vt 0.000085 0.999915
vt 0.000085 0.000085
vt 0.726052 0.000085
vt 0.726052 0.999915
vt 0.000085 0.999915
vt 0.000085 0.000085
vt 0.000085 0.999915
vt 0.000085 0.000085
vt 0.726052 0.000085
vt 0.726052 0.999915
vt 0.000085 0.999915
vt 0.000085 0.000085
vt 0.726052 0.000085
vt 0.726052 0.999915
vt 0.726052 0.000085
vt 0.726052 0.999915
vt 0.000085 0.999915
vt 0.000085 0.000085
vt 0.726052 0.000085
vt 0.726052 0.999915
vt 0.000085 0.999915
vt 0.000085 0.000085
vt 0.000085 0.999915
vt 0.000085 0.000085
vt 0.726052 0.000085
vt 0.726052 0.999915
vt 0.000085 0.999915
vt 0.000085 0.000085
vt 0.726052 0.000085
vt 0.726052 0.999915
vt 0.726052 0.000085
vt 0.726052 0.999915
vt 0.000085 0.999915
vt 0.000085 0.000085
vt 0.726052 0.000085
vt 0.726052 0.999915
vt 0.000085 0.999915
vt 0.000085 0.000085
vt 0.000085 0.999915
vt 0.000085 0.000085
vt 0.726052 0.000085
vt 0.726052 0.999915
vt 0.000085 0.999915
vt 0.000085 0.000085
vt 0.726052 0.000085
vt 0.726052 0.999915
vt 0.000085 0.999915
vt 0.000085 0.000085
vt 0.726052 0.000085
vt 0.726052 0.999915
vt 0.726052 0.000085
vt 0.726052 0.999915
vt 0.000085 0.999915
vt 0.000085 0.000085
vt 0.000085 0.999915
vt 0.000085 0.000085
vt 0.726052 0.000085
vt 0.726052 0.999915
vt 0.726052 0.000085
vt 0.726052 0.999915
vt 0.000085 0.999915
vt 0.000085 0.000085
vt 0.726052 0.000085
vt 0.726052 0.999915
vt 0.000085 0.999915
vt 0.000085 0.000085
vt 0.000085 0.999915
vt 0.000085 0.000085
vt 0.726052 0.000085
vt 0.726052 0.999915
vt 0.000085 0.999915
vt 0.000085 0.000085
vt 0.726052 0.000085
vt 0.726052 0.999915
vt 0.000085 0.999915
vt 0.000085 0.000085
vt 0.726052 0.000085
vt 0.726052 0.999915
vt 0.726052 0.000085
vt 0.726052 0.999915
vt 0.000085 0.999915
vt 0.000085 0.000085
vt 0.726052 0.000085
vt 0.726052 0.999915
vt 0.000085 0.999915
vt 0.000085 0.000085
vt 0.000085 0.999915
vt 0.000085 0.000085
vt 0.726052 0.000085
vt 0.726052 0.999915
vt 0.000085 0.999915
vt 0.000085 0.000085
vt 0.726052 0.000085
vt 0.726052 0.999915
vt 0.726052 0.000085
vt 0.726052 0.999915
vt 0.000085 0.999915
vt 0.000085 0.000085
vt 0.726052 0.000085
vt 0.726052 0.999915
vt 0.000085 0.999915
vt 0.000085 0.000085
vt 0.000085 0.999915
vt 0.000085 0.000085
vt 0.726052 0.000085
vt 0.726052 0.999915
vt 0.000085 0.999915
vt 0.000085 0.000085
vt 0.726052 0.000085
vt 0.726052 0.999915
vt 0.726052 0.000085
vt 0.726052 0.999915
vt 0.000085 0.999915
vt 0.000085 0.000085
vt 0.726052 0.000085
vt 0.726052 0.999915
vt 0.000085 0.999915
vt 0.000085 0.000085
vt 0.726052 0.000085
vt 0.726052 0.999915
vt 0.000085 0.999915
vt 0.000085 0.000085
vt 0.726052 0.000085
vt 0.726052 0.999915
vt 0.000085 0.999915
vt 0.000085 0.000085
vt 0.000085 0.999915
vt 0.000085 0.000085
vt 0.726052 0.000085
vt 0.726052 0.999915
vt 0.000085 0.999915
vt 0.000085 0.000085
vt 0.726052 0.000085
vt 0.726052 0.999915
vt 0.726052 0.000085
vt 0.726052 0.999915
vt 0.000085 0.999915
vt 0.000085 0.000085
vt 0.000085 0.999915
vt 0.000085 0.000085
vt 0.726052 0.000085
vt 0.726052 0.999915
vt 0.726052 0.000085
vt 0.726052 0.999915
vt 0.000085 0.999915
vt 0.000085 0.000085
vt 0.000085 0.999915
vt 0.000085 0.000085
vt 0.726052 0.000085
vt 0.726052 0.999915
vt 0.000085 0.999915
vt 0.000085 0.000085
vt 0.726052 0.000085
vt 0.726052 0.999915
vt 0.726052 0.000085
vt 0.726052 0.999915
vt 0.000085 0.999915
vt 0.000085 0.000085
vt 0.000085 0.999915
vt 0.000085 0.000085
vt 0.726052 0.000085
vt 0.726052 0.999915
vt 0.000085 0.999915
vt 0.000085 0.000085
vt 0.726052 0.000085
vt 0.726052 0.999915
vt 0.000085 0.999915
vt 0.000085 0.000085
vt 0.726052 0.000085
vt 0.726052 0.999915
vt 0.726052 0.000085
vt 0.726052 0.999915
vt 0.000085 0.999915
vt 0.000085 0.000085
vt 0.726052 0.000085
vt 0.726052 0.999915
vt 0.000085 0.999915
vt 0.000085 0.000085
vt 0.726052 0.000085
vt 0.726052 0.999915
vt 0.000085 0.999915
vt 0.000085 0.000085
vt 0.726052 0.000085
vt 0.726052 0.999915
vt 0.000085 0.999915
vt 0.000085 0.000085
vt 0.000085 0.999915
vt 0.000085 0.000085
vt 0.726052 0.000085
vt 0.726052 0.999915
vt 0.000085 0.999915
vt 0.000085 0.000085
vt 0.726052 0.000085
vt 0.726052 0.999915
vt 0.000085 0.999915
vt 0.000085 0.000085
vt 0.726052 0.000085
vt 0.726052 0.999915
vt 0.726052 0.000085
vt 0.726052 0.999915
vt 0.000085 0.999915
vt 0.000085 0.000085
vt 0.726052 0.000085
vt 0.726052 0.999915
vt 0.000085 0.999915
vt 0.000085 0.000085
vt 0.000085 0.999915
vt 0.000085 0.000085
vt 0.726052 0.000085
vt 0.726052 0.999915
vt 0.000085 0.999915
vt 0.000085 0.000085
vt 0.726052 0.000085
vt 0.726052 0.999915
vt 0.726052 0.000085
vt 0.726052 0.999915
vt 0.000085 0.999915
vt 0.000085 0.000085
vt 0.726052 0.000085
vt 0.726052 0.999915
vt 0.000085 0.999915
vt 0.000085 0.000085
vt 0.000085 0.999915
vt 0.000085 0.000085
vt 0.726052 0.000085
vt 0.726052 0.999915
vt 0.000085 0.999915
vt 0.000085 0.000085
vt 0.726052 0.000085
vt 0.726052 0.999915
vt 0.726052 0.000085
vt 0.726052 0.999915
vt 0.000085 0.999915
vt 0.000085 0.000085
vt 0.726052 0.000085
vt 0.726052 0.999915
vt 0.000085 0.999915
vt 0.000085 0.000085
vt 0.726052 0.000085
vt 0.726052 0.999915
vt 0.000085 0.999915
vt 0.000085 0.000085
vn -0.0304 0.9168 -0.3983
vn 0.0337 0.9036 -0.4270
vn -0.6440 0.7589 0.0964
vn -0.4878 0.8395 -0.2393
vn -0.4773 0.7993 0.3652
vn -0.3332 0.8443 0.4197
vn -0.2381 0.9517 -0.1937
vn -0.3763 0.7785 -0.5023
vn -0.3189 0.8874 0.3328
vn -0.2603 0.9137 0.3122
vn 0.0774 0.9960 0.0450
vn -0.3730 0.9274 -0.0300
vn -0.1049 0.9244 -0.3668
vn -0.0787 0.9700 0.2299
vn -0.5869 0.8053 0.0840
vn 0.2183 0.9682 -0.1225
vn -0.1161 0.7748 0.6214
vn -0.0553 0.9930 -0.1045
vn -0.4040 0.9091 0.1014
vn -0.3529 0.6826 -0.6399
vn -0.1544 0.9454 0.2871
vn -0.5184 0.8291 0.2094
vn -0.3121 0.9090 -0.2762
vn -0.2226 0.9425 -0.2494
vn -0.2022 0.9161 0.3463
vn -0.0566 0.8995 0.4333
vn -0.2910 0.8507 -0.4377
vn -0.3063 0.9392 -0.1554
vn -0.1852 0.8999 0.3947
vn 0.7181 0.6851 -0.1221
vn 0.0655 0.9978 -0.0138
vn -0.0032 0.9167 -0.3995
vn -0.3989 0.9147 -0.0651
vn -0.3384 0.8873 -0.3133
vn -0.3764 0.8716 0.3140
vn -0.2621 0.9234 0.2803
vn 0.1654 0.9433 0.2877
vn 0.4644 0.8662 0.1845
vn -0.0565 0.9842 0.1677
vn 0.2100 0.9306 -0.2999
vn -0.3906 0.8345 -0.3887
vn -0.4017 0.9145 0.0475
vn -0.1651 0.9201 -0.3551
vn 0.0233 0.9392 0.3426
vn 0.6340 0.7671 0.0975
vn 0.4248 0.8956 0.1321
vn -0.0593 0.8188 0.5711
vn -0.1106 0.9080 -0.4042
vn -0.4538 0.8910 -0.0100
vn -0.4432 0.8337 -0.3295
vn 0.5765 0.7058 -0.4117
vn -0.4591 0.7520 0.4730
vn 0.3029 0.8941 0.3299
vn 0.2727 0.9427 0.1923
vn -0.2710 0.9143 0.3010
vn 0.5158 0.8528 -0.0819
vn -0.4503 0.8074 -0.3813
vn -0.6646 0.7450 -0.0576
vn 0.1226 0.7857 -0.6063
vn -0.0151 0.7263 0.6872
vn 0.4650 0.8847 -0.0330
usemtl Material.727
s off
f 1/1/1 2/2/1 4/3/1 3/4/1
usemtl Material.728
f 5/5/2 6/6/2 8/7/2 7/8/2
usemtl Material.729
f 12/9/3 11/10/3 9/11/3 10/12/3
usemtl Material.730
f 16/13/4 15/14/4 13/15/4 14/16/4
usemtl Material.731
f 17/17/5 18/18/5 20/19/5 19/20/5
usemtl Material.732
f 21/21/6 22/22/6 24/23/6 23/24/6
usemtl Material.733
f 28/25/7 27/26/7 25/27/7 26/28/7
usemtl Material.734
f 32/29/8 31/30/8 29/31/8 30/32/8
usemtl Material.735
f 33/33/9 34/34/9 36/35/9 35/36/9
usemtl Material.736
f 37/37/10 38/38/10 40/39/10 39/40/10
usemtl Material.737
f 44/41/11 43/42/11 41/43/11 42/44/11
usemtl Material.738
f 48/45/12 47/46/12 45/47/12 46/48/12
usemtl Material.739
f 52/49/13 51/50/13 49/51/13 50/52/13
usemtl Material.740
f 53/53/14 54/54/14 56/55/14 55/56/14
usemtl Material.741
f 60/57/15 59/58/15 57/59/15 58/60/15
usemtl Material.742
f 61/61/16 62/62/16 64/63/16 63/64/16
usemtl Material.743
f 65/65/17 66/66/17 68/67/17 67/68/17
usemtl Material.744
f 72/69/18 71/70/18 69/71/18 70/72/18
usemtl Material.745
f 76/73/19 75/74/19 73/75/19 74/76/19
usemtl Material.746
f 80/77/20 79/78/20 77/79/20 78/80/20
usemtl Material.747
f 81/81/21 82/82/21 84/83/21 83/84/21
usemtl Material.748
f 85/85/22 86/86/22 88/87/22 87/88/22
usemtl Material.749
f 92/89/23 91/90/23 89/91/23 90/92/23
usemtl Material.750
f 96/93/24 95/94/24 93/95/24 94/96/24
usemtl Material.751
f 97/97/25 98/98/25 100/99/25 99/100/25
usemtl Material.752
f 101/101/26 102/102/26 104/103/26 103/104/26
usemtl Material.753
f 108/105/27 107/106/27 105/107/27 106/108/27
usemtl Material.754
f 112/109/28 111/110/28 109/111/28 110/112/28
usemtl Material.755
f 113/113/29 114/114/29 116/115/29 115/116/29
usemtl Material.756
f 117/117/30 118/118/30 120/119/30 119/120/30
usemtl Material.757
f 121/121/31 122/122/31 124/123/31 123/124/31
usemtl Material.758
f 125/125/32 126/126/32 128/127/32 127/128/32
usemtl Material.759
f 132/129/33 131/130/33 129/131/33 130/132/33
usemtl Material.760
f 136/133/34 135/134/34 133/135/34 134/136/34
usemtl Material.761
f 137/137/35 138/138/35 140/139/35 139/140/35
usemtl Material.762
f 144/141/36 143/142/36 141/143/36 142/144/36
usemtl Material.763
f 145/145/37 146/146/37 148/147/37 147/148/37
usemtl Material.764
f 152/149/38 151/150/38 149/151/38 150/152/38
usemtl Material.765
f 156/153/39 155/154/39 153/155/39 154/156/39
usemtl Material.766
f 157/157/40 158/158/40 160/159/40 159/160/40
usemtl Material.767
f 164/161/41 163/162/41 161/163/41 162/164/41
usemtl Material.768
f 168/165/42 167/166/42 165/167/42 166/168/42
usemtl Material.769
f 172/169/43 171/170/43 169/171/43 170/172/43
usemtl Material.770
f 173/173/44 174/174/44 176/175/44 175/176/44
usemtl Material.771
f 177/177/45 178/178/45 180/179/45 179/180/45
usemtl Material.772
f 181/181/46 182/182/46 184/183/46 183/184/46
usemtl Material.773
f 185/185/47 186/186/47 188/187/47 187/188/47
usemtl Material.774
f 192/189/48 191/190/48 189/191/48 190/192/48
usemtl Material.775
f 196/193/49 195/194/49 193/195/49 194/196/49
usemtl Material.776
f 200/197/50 199/198/50 197/199/50 198/200/50
usemtl Material.777
f 201/201/51 202/202/51 204/203/51 203/204/51
usemtl Material.778
f 205/205/52 206/206/52 208/207/52 207/208/52
usemtl Material.779
f 212/209/53 211/210/53 209/211/53 210/212/53
usemtl Material.780
f 216/213/54 215/214/54 213/215/54 214/216/54
usemtl Material.781
f 217/217/55 218/218/55 220/219/55 219/220/55
usemtl Material.782
f 221/221/56 222/222/56 224/223/56 223/224/56
usemtl Material.783
f 228/225/57 227/226/57 225/227/57 226/228/57
usemtl Material.784
f 232/229/58 231/230/58 229/231/58 230/232/58
usemtl Material.785
f 233/233/59 234/234/59 236/235/59 235/236/59
usemtl Material.786
f 237/237/60 238/238/60 240/239/60 239/240/60
usemtl Material.787
f 241/241/61 242/242/61 244/243/61 243/244/61
