# Blender v3.2.0 OBJ File: 'trees.blend'
# www.blender.org
mtllib Spruce Medium 1 Leaves - LOD 1.mtl
o _Joined.005_Plane.1215
v -0.976798 4.671922 1.163242
v 2.467046 3.533524 3.801069
v 0.900509 4.759873 -1.249740
v 4.344353 3.621476 1.388087
v -1.287559 4.398209 0.768349
v 1.151891 2.397845 3.874901
v 1.138812 4.580740 -1.019448
v 3.578262 2.580376 2.087104
v 1.507565 4.724032 -0.128307
v 1.032507 3.151845 -4.088239
v -1.355637 4.379485 0.351973
v -1.830695 2.807297 -3.607958
v 0.415407 3.922779 -1.662980
v -4.149549 1.903633 -2.357681
v -0.115744 3.955405 1.732438
v -4.680699 1.936259 1.037737
v 1.341860 5.458913 -0.911189
v -1.085911 3.004890 -3.941440
v -1.004968 5.233778 1.151361
v -3.432739 2.779755 -1.878890
v 0.650808 4.087984 1.716901
v 5.128619 2.022106 -0.402724
v -0.920646 4.073861 -1.589109
v 3.557164 2.007982 -3.708734
v -1.353906 3.457034 0.063427
v -0.316349 2.129978 4.575865
v 1.702724 4.602739 -0.302454
v 2.740281 3.275684 4.209984
v -1.678157 5.318861 -0.006060
v -0.936124 2.924722 4.365182
v 1.719965 5.624432 -0.415541
v 2.461999 3.230293 3.955702
v -1.068916 5.440867 -1.249776
v -3.912247 3.070132 1.794124
v 1.329431 5.415265 0.970598
v -1.513899 3.044529 4.014498
v -0.739187 5.345494 -0.665848
v -2.393660 4.263545 1.404352
v 0.808044 5.249534 0.520525
v -0.846429 4.167585 2.590725
v 1.601042 7.419086 0.403031
v 1.556156 4.241175 -3.365549
v -1.734720 7.758038 0.156936
v -1.779607 4.580128 -3.611645
v 0.211399 6.170125 -1.336720
v -3.635661 5.174513 -1.784056
v -0.114967 6.214875 1.370407
v -3.962027 5.219263 0.923070
v 1.022476 5.160116 -1.095425
v -2.158020 4.347050 -3.993216
v -0.991095 5.177673 1.109662
v -4.171592 4.364607 -1.788130
v 0.986340 7.413766 -0.605204
v -1.241329 5.826118 -2.991186
v -0.931737 7.843946 0.899360
v -3.159406 6.256299 -1.486621
v -1.360938 5.804062 -0.203918
v -1.282525 4.060111 3.619977
v 1.481095 6.163679 -0.098187
v 1.559508 4.419728 3.725708
v 0.312315 6.385756 0.937776
v 2.738937 5.248386 -0.037246
v -0.454802 6.278349 -0.846127
v 1.971820 5.140980 -1.821149
v -0.404111 7.805745 1.385463
v 2.782195 5.241920 1.945299
v -0.072350 7.609160 -1.403032
v 3.113956 5.045336 -0.843196
v -1.268570 8.477885 -0.390393
v -1.919176 6.886134 3.245433
v 1.397368 8.737029 0.200110
v 0.746762 7.145278 3.835937
v 0.945318 8.571973 -0.468522
v -0.361036 7.353296 -2.864822
v -0.800978 8.403340 0.569239
v -2.107332 7.184664 -1.827060
v -0.374111 9.047863 -1.044183
v -3.085168 7.784016 0.043705
v 0.517478 8.828308 0.922622
v -2.193578 7.564461 2.010510
v 0.400082 7.457179 -1.543905
v -3.599806 5.486112 -2.344894
v -0.077575 7.190765 1.496950
v -4.077462 5.219698 0.695962
v 0.988239 9.113784 0.785528
v 2.682703 7.500006 -2.121115
v -1.164374 9.279679 -0.561471
v 0.530089 7.665902 -3.468114
v -0.031376 8.305560 -1.404716
v -3.647217 6.670089 -1.088370
v 0.274218 8.150878 1.288545
v -3.341623 6.515407 1.604891
v -1.127805 8.496212 0.250193
v -0.435683 6.936624 3.012065
v 0.956431 8.204228 -0.436992
v 1.648552 6.644641 2.324881
v -0.407852 10.247158 1.103860
v 2.425549 8.674221 1.889962
v 0.148903 10.149201 -1.098895
v 2.982304 8.576264 -0.312794
v -1.367560 9.729752 -0.336069
v -1.967169 7.746393 3.087559
v 1.330397 9.488865 -0.003102
v 0.730787 7.505506 3.420525
v 0.784835 11.698718 0.817217
v 2.961618 10.859331 -1.408971
v -0.810070 11.561831 -0.690679
v 1.366713 10.722445 -2.916868
v 0.903802 11.655955 -1.175592
v -2.111335 10.299743 -3.600363
v -0.634851 11.047113 1.078215
v -3.649988 9.690901 -1.346556
v 0.220759 10.871517 -0.908251
v -2.410299 10.267239 -1.454635
v -0.177693 10.948127 0.925724
v -2.808750 10.343848 0.379340
v 1.185228 10.925966 0.475543
v 2.065665 8.828356 -2.305315
v -1.187864 10.651915 -0.069075
v -0.307426 8.554304 -2.849933
v -1.098433 10.713633 0.216561
v -0.301036 9.148832 2.915103
v 0.993246 10.635618 -0.446752
v 1.790643 9.070818 2.251790
v 0.600519 10.039364 -1.332757
v -2.668443 7.761843 -2.498439
v -0.193452 9.793880 1.373432
v -3.462415 7.516359 0.207750
v -0.571841 12.822990 1.007818
v 1.861544 11.063465 2.223265
v 0.253332 12.560223 -1.024612
v 2.686717 10.800697 0.190834
v -0.579369 12.456555 -0.643076
v -2.169153 11.075285 0.868454
v 0.717150 12.262134 0.542899
v -0.872634 10.880863 2.054429
v 0.733297 11.250877 -0.333402
v -0.191826 10.439838 -2.254496
v -0.642285 11.124727 0.382282
v -1.567408 10.313688 -1.538812
v -0.296247 11.826643 -0.935099
v -2.522994 10.249432 0.242878
v 0.562588 11.980507 0.894380
v -1.664159 10.403296 2.072357
v 0.372695 12.877827 -0.808667
v -1.764650 11.862328 -1.600598
v -0.139666 12.698467 0.804139
v -2.277011 11.682969 0.012208
v 0.410599 12.423102 0.935587
v 2.509703 10.836054 -0.297898
v -0.633487 12.350271 -0.747498
v 1.465617 10.763222 -1.980983
v -1.011895 11.537489 -0.545308
v -2.214089 10.004663 2.068678
v 1.042717 11.330750 0.278395
v -0.159477 9.797924 2.892380
v -0.244388 13.045246 1.026681
v 2.321564 11.571735 1.401926
v -0.005214 12.947941 -0.990909
v 2.560739 11.474430 -0.615664
v -0.907727 13.592154 0.229895
v 0.009472 12.197866 2.412207
v 0.828900 13.636208 -0.471842
v 1.746099 12.241920 1.710469
v -0.250568 13.015714 -0.546110
v -1.892760 13.134817 0.074171
v 0.175054 13.043379 0.575413
v -1.467138 13.162481 1.195693
v 0.809077 13.801670 0.129731
v 0.744794 12.435146 -1.884026
v -0.846549 13.921829 0.101044
v -0.910831 12.555302 -1.912714
v 0.242313 13.253897 -0.743657
v -1.874396 12.475378 -1.275427
v -0.139918 13.245827 0.789624
v -2.256627 12.467311 0.257854
v -0.392603 14.106794 -0.623729
v -1.795812 13.039816 0.549959
v 0.531101 14.113249 0.486479
v -0.872108 13.046270 1.660166
v 0.844347 13.218795 0.540944
v 1.605244 11.335678 -1.673199
v -1.029542 13.409906 -0.265562
v -0.268646 11.526790 -2.479706
v -0.841608 13.900276 -0.296517
v -1.257424 12.578258 1.883720
v 0.887095 13.916389 0.042953
v 0.471279 12.594372 2.223190
v 0.457532 13.503736 0.663116
v 2.110320 12.534140 -0.615033
v -0.545995 13.377399 -0.538717
v 1.106793 12.407804 -1.816866
vt 0.726052 0.000085
vt 0.726052 0.999915
vt 0.000085 0.999915
vt 0.000085 0.000085
vt 0.726052 0.000085
vt 0.726052 0.999915
vt 0.000085 0.999915
vt 0.000085 0.000085
vt 0.000085 0.999915
vt 0.000085 0.000085
vt 0.726052 0.000085
vt 0.726052 0.999915
vt 0.726052 0.000085
vt 0.726052 0.999915
vt 0.000085 0.999915
vt 0.000085 0.000085
vt 0.726052 0.000085
vt 0.726052 0.999915
vt 0.000085 0.999915
vt 0.000085 0.000085
vt 0.000085 0.999915
vt 0.000085 0.000085
vt 0.726052 0.000085
vt 0.726052 0.999915
vt 0.726052 0.000085
vt 0.726052 0.999915
vt 0.000085 0.999915
vt 0.000085 0.000085
vt 0.000085 0.999915
vt 0.000085 0.000085
vt 0.726052 0.000085
vt 0.726052 0.999915
vt 0.726052 0.000085
vt 0.726052 0.999915
vt 0.000085 0.999915
vt 0.000085 0.000085
vt 0.726052 0.000085
vt 0.726052 0.999915
vt 0.000085 0.999915
vt 0.000085 0.000085
vt 0.000085 0.999915
vt 0.000085 0.000085
vt 0.726052 0.000085
vt 0.726052 0.999915
vt 0.000085 0.999915
vt 0.000085 0.000085
vt 0.726052 0.000085
vt 0.726052 0.999915
vt 0.726052 0.000085
vt 0.726052 0.999915
vt 0.000085 0.999915
vt 0.000085 0.000085
vt 0.726052 0.000085
vt 0.726052 0.999915
vt 0.000085 0.999915
vt 0.000085 0.000085
vt 0.000085 0.999915
vt 0.000085 0.000085
vt 0.726052 0.000085
vt 0.726052 0.999915
vt 0.000085 0.999915
vt 0.000085 0.000085
vt 0.726052 0.000085
vt 0.726052 0.999915
vt 0.726052 0.000085
vt 0.726052 0.999915
vt 0.000085 0.999915
vt 0.000085 0.000085
vt 0.000085 0.999915
vt 0.000085 0.000085
vt 0.726052 0.000085
vt 0.726052 0.999915
vt 0.726052 0.000085
vt 0.726052 0.999915
vt 0.000085 0.999915
vt 0.000085 0.000085
vt 0.726052 0.000085
vt 0.726052 0.999915
vt 0.000085 0.999915
vt 0.000085 0.000085
vt 0.726052 0.000085
vt 0.726052 0.999915
vt 0.000085 0.999915
vt 0.000085 0.000085
vt 0.000085 0.999915
vt 0.000085 0.000085
vt 0.726052 0.000085
vt 0.726052 0.999915
vt 0.000085 0.999915
vt 0.000085 0.000085
vt 0.726052 0.000085
vt 0.726052 0.999915
vt 0.000085 0.999915
vt 0.000085 0.000085
vt 0.726052 0.000085
vt 0.726052 0.999915
vt 0.726052 0.000085
vt 0.726052 0.999915
vt 0.000085 0.999915
vt 0.000085 0.000085
vt 0.726052 0.000085
vt 0.726052 0.999915
vt 0.000085 0.999915
vt 0.000085 0.000085
vt 0.726052 0.000085
vt 0.726052 0.999915
vt 0.000085 0.999915
vt 0.000085 0.000085
vt 0.000085 0.999915
vt 0.000085 0.000085
vt 0.726052 0.000085
vt 0.726052 0.999915
vt 0.000085 0.999915
vt 0.000085 0.000085
vt 0.726052 0.000085
vt 0.726052 0.999915
vt 0.000085 0.999915
vt 0.000085 0.000085
vt 0.726052 0.000085
vt 0.726052 0.999915
vt 0.726052 0.000085
vt 0.726052 0.999915
vt 0.000085 0.999915
vt 0.000085 0.000085
vt 0.000085 0.999915
vt 0.000085 0.000085
vt 0.726052 0.000085
vt 0.726052 0.999915
vt 0.000085 0.999915
vt 0.000085 0.000085
vt 0.726052 0.000085
vt 0.726052 0.999915
vt 0.000085 0.999915
vt 0.000085 0.000085
vt 0.726052 0.000085
vt 0.726052 0.999915
vt 0.726052 0.000085
vt 0.726052 0.999915
vt 0.000085 0.999915
vt 0.000085 0.000085
vt 0.726052 0.000085
vt 0.726052 0.999915
vt 0.000085 0.999915
vt 0.000085 0.000085
vt 0.726052 0.000085
vt 0.726052 0.999915
vt 0.000085 0.999915
vt 0.000085 0.000085
vt 0.726052 0.000085
vt 0.726052 0.999915
vt 0.000085 0.999915
vt 0.000085 0.000085
vt 0.726052 0.000085
vt 0.726052 0.999915
vt 0.000085 0.999915
vt 0.000085 0.000085
vt 0.000085 0.999915
vt 0.000085 0.000085
vt 0.726052 0.000085
vt 0.726052 0.999915
vt 0.726052 0.000085
vt 0.726052 0.999915
vt 0.000085 0.999915
vt 0.000085 0.000085
vt 0.000085 0.999915
vt 0.000085 0.000085
vt 0.726052 0.000085
vt 0.726052 0.999915
vt 0.000085 0.999915
vt 0.000085 0.000085
vt 0.726052 0.000085
vt 0.726052 0.999915
vt 0.000085 0.999915
vt 0.000085 0.000085
vt 0.726052 0.000085
vt 0.726052 0.999915
vt 0.726052 0.000085
vt 0.726052 0.999915
vt 0.000085 0.999915
vt 0.000085 0.000085
vt 0.000085 0.999915
vt 0.000085 0.000085
vt 0.726052 0.000085
vt 0.726052 0.999915
vt 0.726052 0.000085
vt 0.726052 0.999915
vt 0.000085 0.999915
vt 0.000085 0.000085
vt 0.000085 0.999915
vt 0.000085 0.000085
vt 0.726052 0.000085
vt 0.726052 0.999915
vn 0.1833 0.9668 0.1779
vn 0.2251 0.8901 0.3964
vn -0.1691 0.9228 -0.3461
vn -0.3945 0.9162 -0.0705
vn -0.3992 0.8423 -0.3623
vn 0.3461 0.9230 -0.1684
vn -0.2961 0.8958 0.3315
vn -0.0205 0.8754 0.4829
vn -0.3311 0.8691 0.3676
vn -0.1942 0.9245 0.3280
vn 0.1243 0.7578 -0.6405
vn -0.2453 0.9684 -0.0456
vn -0.1332 0.9826 -0.1295
vn -0.1516 0.8823 -0.4456
vn -0.1294 0.9012 0.4137
vn 0.3469 0.9154 -0.2043
vn 0.6247 0.7806 0.0193
vn -0.1706 0.9135 0.3694
vn -0.2739 0.9093 -0.3131
vn -0.3252 0.9122 0.2493
vn -0.4434 0.8963 0.0089
vn 0.2797 0.8993 -0.3362
vn -0.4030 0.9099 0.0980
vn 0.2613 0.8671 0.4241
vn 0.4670 0.8807 0.0789
vn 0.0150 0.8640 0.5032
vn 0.1355 0.9635 -0.2308
vn -0.3954 0.9182 -0.0219
vn -0.2061 0.9748 -0.0855
vn 0.0432 0.8041 -0.5929
vn 0.1766 0.8732 0.4542
vn -0.5488 0.8315 -0.0856
vn 0.5443 0.8312 0.1135
vn -0.2933 0.8390 0.4582
vn -0.2318 0.9311 -0.2815
vn -0.5091 0.8442 0.1680
vn -0.4191 0.9073 -0.0323
vn 0.4481 0.8369 -0.3142
vn -0.0996 0.8777 0.4688
vn 0.4961 0.8681 0.0169
vn 0.1714 0.8613 0.4783
vn 0.0551 0.9974 -0.0455
vn 0.0696 0.8244 -0.5617
vn -0.3272 0.9419 -0.0766
vn -0.3898 0.8638 0.3193
vn 0.3154 0.7736 -0.5496
vn -0.1063 0.8591 0.5006
vn 0.2774 0.9035 -0.3266
usemtl Material.924
s off
f 1/1/1 2/2/1 4/3/1 3/4/1
usemtl Material.925
f 5/5/2 6/6/2 8/7/2 7/8/2
usemtl Material.926
f 12/9/3 11/10/3 9/11/3 10/12/3
usemtl Material.927
f 13/13/4 14/14/4 16/15/4 15/16/4
usemtl Material.928
f 17/17/5 18/18/5 20/19/5 19/20/5
usemtl Material.929
f 24/21/6 23/22/6 21/23/6 22/24/6
usemtl Material.930
f 25/25/7 26/26/7 28/27/7 27/28/7
usemtl Material.931
f 32/29/8 31/30/8 29/31/8 30/32/8
usemtl Material.932
f 33/33/9 34/34/9 36/35/9 35/36/9
usemtl Material.933
f 37/37/10 38/38/10 40/39/10 39/40/10
usemtl Material.934
f 44/41/11 43/42/11 41/43/11 42/44/11
usemtl Material.935
f 48/45/12 47/46/12 45/47/12 46/48/12
usemtl Material.936
f 49/49/13 50/50/13 52/51/13 51/52/13
usemtl Material.937
f 53/53/14 54/54/14 56/55/14 55/56/14
usemtl Material.938
f 60/57/15 59/58/15 57/59/15 58/60/15
usemtl Material.939
f 64/61/16 63/62/16 61/63/16 62/64/16
usemtl Material.940
f 65/65/17 66/66/17 68/67/17 67/68/17
usemtl Material.941
f 72/69/18 71/70/18 69/71/18 70/72/18
usemtl Material.942
f 73/73/19 74/74/19 76/75/19 75/76/19
usemtl Material.943
f 77/77/20 78/78/20 80/79/20 79/80/20
usemtl Material.944
f 81/81/21 82/82/21 84/83/21 83/84/21
usemtl Material.945
f 88/85/22 87/86/22 85/87/22 86/88/22
usemtl Material.946
f 92/89/23 91/90/23 89/91/23 90/92/23
usemtl Material.947
f 96/93/24 95/94/24 93/95/24 94/96/24
usemtl Material.948
f 97/97/25 98/98/25 100/99/25 99/100/25
usemtl Material.949
f 101/101/26 102/102/26 104/103/26 103/104/26
usemtl Material.950
f 105/105/27 106/106/27 108/107/27 107/108/27
usemtl Material.951
f 112/109/28 111/110/28 109/111/28 110/112/28
usemtl Material.952
f 116/113/29 115/114/29 113/115/29 114/116/29
usemtl Material.953
f 120/117/30 119/118/30 117/119/30 118/120/30
usemtl Material.954
f 121/121/31 122/122/31 124/123/31 123/124/31
usemtl Material.955
f 128/125/32 127/126/32 125/127/32 126/128/32
usemtl Material.956
f 132/129/33 131/130/33 129/131/33 130/132/33
usemtl Material.957
f 136/133/34 135/134/34 133/135/34 134/136/34
usemtl Material.958
f 137/137/35 138/138/35 140/139/35 139/140/35
usemtl Material.959
f 141/141/36 142/142/36 144/143/36 143/144/36
usemtl Material.960
f 145/145/37 146/146/37 148/147/37 147/148/37
usemtl Material.961
f 149/149/38 150/150/38 152/151/38 151/152/38
usemtl Material.962
f 153/153/39 154/154/39 156/155/39 155/156/39
usemtl Material.963
f 160/157/40 159/158/40 157/159/40 158/160/40
usemtl Material.964
f 161/161/41 162/162/41 164/163/41 163/164/41
usemtl Material.965
f 168/165/42 167/166/42 165/167/42 166/168/42
usemtl Material.966
f 172/169/43 171/170/43 169/171/43 170/172/43
usemtl Material.967
f 176/173/44 175/174/44 173/175/44 174/176/44
usemtl Material.968
f 177/177/45 178/178/45 180/179/45 179/180/45
usemtl Material.969
f 184/181/46 183/182/46 181/183/46 182/184/46
usemtl Material.970
f 185/185/47 186/186/47 188/187/47 187/188/47
usemtl Material.971
f 192/189/48 191/190/48 189/191/48 190/192/48
