# Blender v3.2.0 OBJ File: 'trees.blend'
# www.blender.org
mtllib Spruce 4 Leaves.mtl
o Short_twigs_set.012_Plane.064
v 0.868029 4.238667 0.078886
v 0.868029 6.238667 0.078886
v 0.193551 4.238667 0.005213
v 0.193551 6.238667 0.005213
vt 0.869132 0.583327
vt 0.869132 0.998870
vt 0.728161 0.998870
vt 0.728161 0.583327
vn -0.1086 0.0000 0.9941
usemtl thing
s off
f 1/1/1 2/2/1 4/3/1 3/4/1
o Long_twig.001_Plane.065
v 0.025891 6.441596 0.123046
v -1.272391 6.864958 0.917860
v 0.179443 6.954657 0.100578
v -1.118839 7.378020 0.895392
vt 0.994043 -0.000190
vt 0.994043 0.406109
vt 0.856208 0.406109
vt 0.856208 -0.000190
vn -0.4927 0.1097 -0.8632
usemtl thing
s off
f 5/5/2 6/6/2 8/7/2 7/8/2
o Short_twigs_set_2.011_Plane.066
v -0.769480 4.796614 -0.535807
v -0.769480 6.796614 -0.535807
v -0.223047 4.796614 -0.133616
v -0.223046 6.796614 -0.133616
vt 0.869132 0.583327
vt 0.869132 0.998870
vt 0.728161 0.998870
vt 0.728161 0.583327
vn 0.5928 -0.0000 -0.8054
usemtl thing
s off
f 9/9/3 10/10/3 12/11/3 11/12/3
o Long_twig_2.006_Plane.067
v 0.020047 8.934665 -0.104247
v 0.337367 9.243124 -1.258360
v 0.039350 8.528697 -0.207442
v 0.356669 8.837156 -1.361555
vt 0.854803 0.003131
vt 0.854803 0.403285
vt 0.719053 0.403285
vt 0.719053 0.003131
vn -0.9654 0.0202 -0.2600
usemtl Material
s off
f 13/13/4 14/14/4 16/15/4 15/16/4
o Short_twigs_set.013_Plane.261
v -0.933830 7.872687 -0.390328
v -0.933830 10.239485 -0.390328
v -0.216026 7.872687 -0.030547
v -0.216026 10.239485 -0.030547
vt 0.869132 0.583327
vt 0.869132 0.998870
vt 0.728161 0.998870
vt 0.728161 0.583327
vn 0.4481 -0.0000 -0.8940
usemtl thing.002
s off
f 17/17/5 18/18/5 20/19/5 19/20/5
o Short_twigs_set.014_Plane.264
v 0.788965 6.533484 0.300765
v 0.788965 8.541752 0.300765
v 0.135959 6.533483 0.106485
v 0.135959 8.541751 0.106485
vt 0.869132 0.583327
vt 0.869132 0.998870
vt 0.728161 0.998870
vt 0.728161 0.583327
vn -0.2852 0.0000 0.9585
usemtl thing.002
s off
f 21/21/6 22/22/6 24/23/6 23/24/6
o Short_twigs_set.015_Plane.265
v 0.934515 9.586724 0.332181
v 0.934515 12.326053 0.332181
v 0.057558 9.586724 0.024691
v 0.057558 12.326053 0.024691
vt 0.869132 0.583327
vt 0.869132 0.998870
vt 0.728161 0.998870
vt 0.728161 0.583327
vn -0.3309 0.0000 0.9437
usemtl thing.002
s off
f 25/25/7 26/26/7 28/27/7 27/28/7
o Short_twigs_set.016_Plane.266
v 0.946550 6.653302 0.029702
v 0.946550 9.020100 0.029702
v 0.144390 6.653302 -0.005293
v 0.144390 9.020100 -0.005293
vt 0.869132 0.583327
vt 0.869132 0.998870
vt 0.728161 0.998870
vt 0.728161 0.583327
vn -0.0436 0.0000 0.9990
usemtl thing.002
s off
f 29/29/8 30/30/8 32/31/8 31/32/8
o Short_twigs_set.017_Plane.271
v 0.691332 4.661254 0.596256
v 0.691332 6.661254 0.596256
v 0.144898 4.661254 0.194064
v 0.144898 6.661254 0.194064
vt 0.869132 0.583327
vt 0.869132 0.998870
vt 0.728161 0.998870
vt 0.728161 0.583327
vn -0.5928 0.0000 0.8054
usemtl thing.002
s off
f 33/33/9 34/34/9 36/35/9 35/36/9
o Short_twigs_set.018_Plane.274
v 0.611938 3.324382 0.825126
v 0.611939 5.691179 0.825126
v 0.112648 3.324382 0.196321
v 0.112648 5.691179 0.196321
vt 0.869132 0.583327
vt 0.869132 0.998870
vt 0.728161 0.998870
vt 0.728161 0.583327
vn -0.7831 0.0000 0.6218
usemtl thing.002
s off
f 37/37/10 38/38/10 40/39/10 39/40/10
o Short_twigs_set_2.012_Plane.263
v -0.844715 6.843971 0.339822
v -0.844715 8.839217 0.339822
v -0.239954 6.843971 0.035805
v -0.239954 8.839217 0.035805
vt 0.869132 0.583327
vt 0.869132 0.998870
vt 0.728161 0.998870
vt 0.728161 0.583327
vn -0.4491 0.0000 -0.8935
usemtl thing.002
s off
f 41/41/11 42/42/11 44/43/11 43/44/11
o Short_twigs_set_2.014_Plane.268
v 0.943191 3.955264 -0.496127
v 0.943192 6.420017 -0.496127
v 0.182014 3.955264 -0.150059
v 0.182014 6.420016 -0.150059
vt 0.869132 0.583327
vt 0.869132 0.998870
vt 0.728161 0.998870
vt 0.728161 0.583327
vn 0.4139 -0.0000 0.9103
usemtl thing.002
s off
f 45/45/12 46/46/12 48/47/12 47/48/12
o Short_twigs_set_2.015_Plane.270
v -1.083044 4.136045 0.019783
v -1.083043 6.600799 0.019783
v -0.248654 4.136045 -0.034521
v -0.248654 6.600798 -0.034521
vt 0.869132 0.583327
vt 0.869132 0.998870
vt 0.728161 0.998870
vt 0.728161 0.583327
vn -0.0649 0.0000 -0.9979
usemtl thing.002
s off
f 49/49/13 50/50/13 52/51/13 51/52/13
o Short_twigs_set_2.016_Plane.273
v -0.799439 5.737087 0.315768
v -0.799439 7.587492 0.315768
v -0.216369 5.737087 0.083201
v -0.216369 7.587492 0.083201
vt 0.869132 0.583327
vt 0.869132 0.998870
vt 0.728161 0.998870
vt 0.728161 0.583327
vn -0.3705 0.0000 -0.9288
usemtl thing.002
s off
f 53/53/14 54/54/14 56/55/14 55/56/14
o Long_twig_2.007_Plane.262
v 0.011843 9.843312 0.033444
v -1.172745 10.333080 0.362463
v -0.143892 9.426496 0.093201
v -1.328481 9.916264 0.422220
vt 0.854803 0.003131
vt 0.854803 0.403285
vt 0.719053 0.403285
vt 0.719053 0.003131
vn 0.2801 0.0329 0.9594
usemtl Material.337
s off
f 57/57/15 58/58/15 60/59/15 59/60/15
o Long_twig_2.008_Plane.269
v 0.062690 6.941332 0.159802
v 0.364095 7.742689 -0.405059
v 0.226107 6.725659 -0.058971
v 0.527511 7.527016 -0.623833
vt 0.854803 0.003131
vt 0.854803 0.403285
vt 0.719053 0.403285
vt 0.719053 0.003131
vn -0.8325 -0.0739 -0.5490
usemtl Material.337
s off
f 61/61/16 62/62/16 64/63/16 63/64/16
o Long_twig_2.009_Plane.272
v 0.048998 7.883195 0.134456
v 1.129938 8.532406 -1.070045
v 0.109154 7.344299 -0.102017
v 1.190094 7.993509 -1.306518
vt 0.854803 0.003131
vt 0.854803 0.403285
vt 0.719053 0.403285
vt 0.719053 0.003131
vn -0.7781 0.1776 -0.6026
usemtl Material.337
s off
f 65/65/17 66/66/17 68/67/17 67/68/17
o Long_twig.002_Plane.275
v -0.111664 4.809361 0.172641
v -0.725108 5.063437 1.496359
v -0.063183 5.304124 0.100143
v -0.676626 5.558200 1.423861
vt 0.994043 -0.000190
vt 0.994043 0.406109
vt 0.856208 0.406109
vt 0.856208 -0.000190
vn -0.9050 0.0265 -0.4245
usemtl thing
s off
f 69/69/18 70/70/18 72/71/18 71/72/18
o Short_twigs_set.019_Plane.002
v -0.663149 10.195627 -0.323460
v -0.663149 11.986175 -0.323460
v -0.120110 10.195627 -0.051275
v -0.120110 11.986174 -0.051275
vt 0.869132 0.583327
vt 0.869132 0.998870
vt 0.728161 0.998870
vt 0.728161 0.583327
vn 0.4481 -0.0000 -0.8940
usemtl thing.002
s off
f 73/73/19 74/74/19 76/75/19 75/76/19
o Short_twigs_set.020_Plane.003
v -0.597046 11.978665 -0.290328
v -0.597046 13.666614 -0.290328
v -0.085124 11.978665 -0.033740
v -0.085123 13.666614 -0.033740
vt 0.869132 0.583327
vt 0.869132 0.998870
vt 0.728161 0.998870
vt 0.728161 0.583327
vn 0.4481 -0.0000 -0.8940
usemtl thing.002
s off
f 77/77/20 78/78/20 80/79/20 79/80/20
o Short_twigs_set.021_Plane.004
v 0.004736 10.703388 -0.122065
v 0.004736 12.493936 -0.122065
v 0.178488 10.703388 -0.704119
v 0.178488 12.493935 -0.704119
vt 0.869132 0.583327
vt 0.869132 0.998870
vt 0.728161 0.998870
vt 0.728161 0.583327
vn -0.9582 0.0000 -0.2860
usemtl thing.002
s off
f 81/81/21 82/82/21 84/83/21 83/84/21
o Short_twigs_set.022_Plane.005
v 0.100559 11.035894 0.832534
v 0.100559 13.402692 0.832534
v -0.035609 11.035893 0.041241
v -0.035609 13.402691 0.041241
vt 0.869132 0.583327
vt 0.869132 0.998870
vt 0.728161 0.998870
vt 0.728161 0.583327
vn -0.9855 0.0000 0.1696
usemtl thing.002
s off
f 85/85/22 86/86/22 88/87/22 87/88/22
o Plane.256_Plane.213
v -0.467237 17.755257 0.382735
v 0.698234 17.297831 1.668337
v 0.447922 17.808292 -0.428038
v 1.613393 17.350866 0.857563
v -0.000725 17.983736 0.000642
v 1.164746 17.526310 1.286244
v 0.121110 17.653408 1.040168
v 1.036269 17.706444 0.229395
v 0.587622 17.881886 0.658075
vt 0.363069 0.500000
vt 0.363069 0.999915
vt 0.000085 0.999915
vt 0.000085 0.500000
vt 0.726052 0.500000
vt 0.726052 0.999915
vt 0.726052 0.000085
vt 0.363069 0.000085
vt 0.000085 0.000085
vn 0.4424 0.8914 0.0982
vn -0.0129 0.8651 0.5015
vn -0.1943 0.9281 0.3177
vn 0.2776 0.9554 -0.1004
usemtl Material.289
s off
f 97/89/23 94/90/23 92/91/23 96/92/23
f 95/93/24 90/94/24 94/90/24 97/89/24
f 89/95/25 95/93/25 97/89/25 93/96/25
f 93/96/26 97/89/26 96/92/26 91/97/26
o Plane.257_Plane.214
v -0.652747 17.929705 0.075238
v -0.055894 16.787529 1.609371
v 0.650205 18.122070 -0.288456
v 1.247058 16.979895 1.245677
v -0.001032 18.226372 0.000288
v 0.595821 17.084196 1.534421
v -0.354171 17.484552 0.909453
v 0.948782 17.676918 0.545759
v 0.297544 17.781219 0.834503
vt 0.363069 0.500000
vt 0.363069 0.999915
vt 0.000085 0.999915
vt 0.000085 0.500000
vt 0.726052 0.500000
vt 0.726052 0.999915
vt 0.726052 0.000085
vt 0.363069 0.000085
vt 0.000085 0.000085
vn 0.3706 0.7323 0.5713
vn -0.2100 0.6466 0.7334
vn -0.2999 0.7929 0.5304
vn 0.3019 0.8817 0.3625
usemtl Material.290
s off
f 106/98/27 103/99/27 101/100/27 105/101/27
f 104/102/28 99/103/28 103/99/28 106/98/28
f 98/104/29 104/102/29 106/98/29 102/105/29
f 102/105/30 106/98/30 105/101/30 100/106/30
o Plane.258_Plane.215
v 0.788055 18.606222 -0.114225
v 0.481052 17.785246 -2.167715
v -0.674555 18.336708 0.212190
v -0.981559 17.515734 -1.841301
v 0.001158 18.713516 -0.000259
v -0.305845 17.892542 -2.053749
v 0.599633 18.347780 -1.171901
v -0.862977 18.078268 -0.845487
v -0.187264 18.455074 -1.057935
vt 0.363069 0.500000
vt 0.363069 0.999915
vt 0.000085 0.999915
vt 0.000085 0.500000
vt 0.726052 0.500000
vt 0.726052 0.999915
vt 0.726052 0.000085
vt 0.363069 0.000085
vt 0.000085 0.000085
vn -0.5383 0.7596 -0.3650
vn 0.0465 0.8674 -0.4955
vn 0.0948 0.9630 -0.2522
vn -0.5115 0.8513 -0.1169
usemtl Material.291
s off
f 115/107/31 112/108/31 110/109/31 114/110/31
f 113/111/32 108/112/32 112/108/32 115/107/32
f 107/113/33 113/111/33 115/107/33 111/114/33
f 111/114/34 115/107/34 114/110/34 109/115/34
o Plane.259_Plane.216
v 0.357410 18.816896 -0.934549
v -2.182975 17.310966 -1.419072
v -0.120330 18.986750 1.042357
v -2.660715 17.480820 0.557834
v 0.000378 19.215078 -0.001566
v -2.540007 17.709148 -0.486089
v -0.987007 18.260706 -1.211654
v -1.464747 18.430559 0.765252
v -1.344039 18.658888 -0.278671
vt 0.363069 0.500000
vt 0.363069 0.999915
vt 0.000085 0.999915
vt 0.000085 0.500000
vt 0.726052 0.500000
vt 0.726052 0.999915
vt 0.726052 0.000085
vt 0.363069 0.000085
vt 0.000085 0.000085
vn -0.6292 0.7713 0.0960
vn -0.4866 0.7207 -0.4938
vn -0.2565 0.8496 -0.4608
vn -0.4043 0.9022 0.1506
usemtl Material.292
s off
f 124/116/35 121/117/35 119/118/35 123/119/35
f 122/120/36 117/121/36 121/117/36 124/116/36
f 116/122/37 122/120/37 124/116/37 120/123/37
f 120/123/38 124/116/38 123/119/38 118/124/38
o Plane.260_Plane.217
v 0.808495 17.238394 -0.526962
v -0.568542 15.772434 -2.369434
v -0.592574 17.037518 0.680005
v -1.969611 15.571556 -1.162467
v 0.001110 17.417690 -0.000956
v -1.375927 15.951731 -1.843428
v 0.052857 16.681133 -1.496866
v -1.348212 16.480255 -0.289899
v -0.754528 16.860428 -0.970860
vt 0.363069 0.500000
vt 0.363069 0.999915
vt 0.000085 0.999915
vt 0.000085 0.500000
vt 0.726052 0.500000
vt 0.726052 0.999915
vt 0.726052 0.000085
vt 0.363069 0.000085
vt 0.000085 0.000085
vn -0.6930 0.6862 -0.2211
vn -0.2344 0.7519 -0.6161
vn -0.0901 0.8923 -0.4424
vn -0.5655 0.8241 -0.0329
usemtl Material.293
s off
f 133/125/39 130/126/39 128/127/39 132/128/39
f 131/129/40 126/130/40 130/126/40 133/125/40
f 125/131/41 131/129/41 133/125/41 129/132/41
f 129/132/42 133/125/42 132/128/42 127/133/42
o Plane.261_Plane.218
v 0.915178 18.131620 0.582359
v 2.066822 16.568981 -1.945795
v -1.044818 18.203320 -0.354789
v 0.106826 16.640680 -2.882943
v 0.001552 18.504309 0.000742
v 1.153196 16.941669 -2.527412
v 1.532692 17.561890 -0.752727
v -0.427304 17.633589 -1.689875
v 0.619066 17.934578 -1.334344
vt 0.363069 0.500000
vt 0.363069 0.999915
vt 0.000085 0.999915
vt 0.000085 0.500000
vt 0.726052 0.500000
vt 0.726052 0.999915
vt 0.726052 0.000085
vt 0.363069 0.000085
vt 0.000085 0.000085
vn -0.0033 0.7679 -0.6405
vn 0.5457 0.7478 -0.3781
vn 0.4588 0.8739 -0.1607
vn -0.1103 0.8947 -0.4328
usemtl Material.294
s off
f 142/134/43 139/135/43 137/136/43 141/137/43
f 140/138/44 135/139/44 139/135/44 142/134/44
f 134/140/45 140/138/45 142/134/45 138/141/45
f 138/141/46 142/134/46 141/137/46 136/142/46
o Plane.262_Plane.219
v -0.600603 18.698004 -0.688993
v -2.050989 17.301624 1.342592
v 0.837880 19.050581 0.580305
v -0.612505 17.654202 2.611890
v -0.001139 19.170952 -0.001005
v -1.451525 17.774572 2.030580
v -1.401036 18.186163 0.360305
v 0.037448 18.538740 1.629603
v -0.801571 18.659111 1.048293
vt 0.363069 0.500000
vt 0.363069 0.999915
vt 0.000085 0.999915
vt 0.000085 0.500000
vt 0.726052 0.500000
vt 0.726052 0.999915
vt 0.726052 0.000085
vt 0.363069 0.000085
vt 0.000085 0.000085
vn -0.2625 0.7970 0.5440
vn -0.7115 0.6869 0.1478
vn -0.5831 0.8109 -0.0493
vn -0.1177 0.9250 0.3614
usemtl Material.295
s off
f 151/143/47 148/144/47 146/145/47 150/146/47
f 149/147/48 144/148/48 148/144/48 151/143/48
f 143/149/49 149/147/49 151/143/49 147/150/49
f 147/150/50 151/143/50 150/146/50 145/151/50
o Plane.263_Plane.220
v -0.958030 17.336828 -0.221275
v -0.922044 15.674498 2.266425
v 1.058492 17.609211 -0.068434
v 1.094478 15.946879 2.419266
v -0.001597 17.775505 -0.000121
v 0.034389 16.113174 2.487579
v -0.972593 16.695671 1.113490
v 1.043929 16.968054 1.266331
v -0.016160 17.134348 1.334645
vt 0.363069 0.500000
vt 0.363069 0.999915
vt 0.000085 0.999915
vt 0.000085 0.500000
vt 0.726052 0.500000
vt 0.726052 0.999915
vt 0.726052 0.000085
vt 0.363069 0.000085
vt 0.000085 0.000085
vn 0.1584 0.7426 0.6508
vn -0.4432 0.6613 0.6052
vn -0.4568 0.8038 0.3811
vn 0.1669 0.8880 0.4284
usemtl Material.296
s off
f 160/152/51 157/153/51 155/154/51 159/155/51
f 158/156/52 153/157/52 157/153/52 160/152/52
f 152/158/53 158/156/53 160/152/53 156/159/53
f 156/159/54 160/152/54 159/155/54 154/160/54
o Plane.264_Plane.221
v -1.096578 18.666174 -0.227566
v -1.609966 17.025785 2.386839
v 0.992733 18.262476 -0.070587
v 0.479345 16.622087 2.543817
v -0.001655 18.782400 -0.000124
v -0.515043 17.142012 2.614280
v -1.321696 18.045782 1.173202
v 0.767615 17.642082 1.330180
v -0.226773 18.162006 1.400643
vt 0.363069 0.500000
vt 0.363069 0.999915
vt 0.000085 0.999915
vt 0.000085 0.500000
vt 0.726052 0.500000
vt 0.726052 0.999915
vt 0.726052 0.000085
vt 0.363069 0.000085
vt 0.000085 0.000085
vn 0.3895 0.6574 0.6451
vn -0.2067 0.7726 0.6003
vn -0.1746 0.9104 0.3751
vn 0.4434 0.7910 0.4216
usemtl Material.297
s off
f 169/161/55 166/162/55 164/163/55 168/164/55
f 167/165/56 162/166/56 166/162/56 169/161/56
f 161/167/57 167/165/57 169/161/57 165/168/57
f 165/168/58 169/161/58 168/164/58 163/169/58
o Plane.265_Plane.222
v -0.518138 18.391510 -0.466444
v -1.597138 17.457245 0.918079
v 0.580510 18.291239 0.322103
v -0.498490 17.356974 1.706626
v -0.000870 18.552795 -0.000625
v -1.079870 17.618528 1.383899
v -1.077774 18.057182 0.270760
v 0.020874 17.956911 1.059307
v -0.560506 18.218468 0.736579
vt 0.363069 0.500000
vt 0.363069 0.999915
vt 0.000085 0.999915
vt 0.000085 0.500000
vt 0.726052 0.500000
vt 0.726052 0.999915
vt 0.726052 0.000085
vt 0.363069 0.000085
vt 0.000085 0.000085
vn -0.0333 0.7462 0.6649
vn -0.5266 0.7912 0.3108
vn -0.3906 0.9130 0.1176
vn 0.1208 0.8664 0.4846
usemtl Material.298
s off
f 178/170/59 175/171/59 173/172/59 177/173/59
f 176/174/60 171/175/60 175/171/60 178/170/60
f 170/176/61 176/174/61 178/170/61 174/177/61
f 174/177/62 178/170/62 177/173/62 172/178/62
o Plane.266_Plane.223
v 1.111771 16.241030 0.006858
v 0.470921 14.507335 -2.876141
v -1.177642 16.595095 0.302844
v -1.818492 14.861401 -2.580155
v 0.001813 16.772398 -0.000234
v -0.639036 15.038704 -2.883233
v 0.813174 15.596761 -1.532060
v -1.476239 15.950827 -1.236074
v -0.296783 16.128130 -1.539152
vt 0.363069 0.500000
vt 0.363069 0.999915
vt 0.000085 0.999915
vt 0.000085 0.500000
vt 0.726052 0.500000
vt 0.726052 0.999915
vt 0.726052 0.000085
vt 0.363069 0.000085
vt 0.000085 0.000085
vn -0.2629 0.7812 -0.5662
vn 0.3339 0.6889 -0.6434
vn 0.3943 0.8180 -0.4189
vn -0.2244 0.9136 -0.3389
usemtl Material.299
s off
f 187/179/63 184/180/63 182/181/63 186/182/63
f 185/183/64 180/184/64 184/180/64 187/179/64
f 179/185/65 185/183/65 187/179/65 183/186/65
f 183/186/66 187/179/66 186/182/66 181/187/66
o Plane.267_Plane.224
v -0.026238 17.241318 -0.940954
v -2.709156 16.546715 -0.750247
v 0.095971 17.288172 0.948959
v -2.586948 16.593569 1.139666
v -0.000097 17.577763 -0.001497
v -2.683015 16.883160 0.189210
v -1.389659 17.090641 -0.849055
v -1.267451 17.137495 1.040858
v -1.363518 17.427086 0.090402
vt 0.363069 0.500000
vt 0.363069 0.999915
vt 0.000085 0.999915
vt 0.000085 0.500000
vt 0.726052 0.500000
vt 0.726052 0.999915
vt 0.726052 0.000085
vt 0.363069 0.000085
vt 0.000085 0.000085
vn -0.3433 0.8882 0.3053
vn -0.3826 0.8732 -0.3021
vn -0.1257 0.9351 -0.3314
vn -0.0850 0.9507 0.2983
usemtl Material.300
s off
f 196/188/67 193/189/67 191/190/67 195/191/67
f 194/192/68 189/193/68 193/189/68 196/188/68
f 188/194/69 194/192/69 196/188/69 192/195/69
f 192/195/70 196/188/70 195/191/70 190/196/70
o Plane.268_Plane.225
v 0.798135 18.224268 -0.422120
v -0.501343 16.796770 -2.201739
v -0.653884 18.240137 0.625414
v -1.953361 16.812639 -1.154206
v 0.001150 18.502581 -0.000830
v -1.298327 17.075083 -1.780449
v 0.103812 17.680359 -1.376301
v -1.348207 17.696228 -0.328767
v -0.693172 17.958673 -0.955011
vt 0.363069 0.500000
vt 0.363069 0.999915
vt 0.000085 0.999915
vt 0.000085 0.500000
vt 0.726052 0.500000
vt 0.726052 0.999915
vt 0.726052 0.000085
vt 0.363069 0.000085
vt 0.000085 0.000085
vn -0.6059 0.7237 -0.3305
vn -0.1121 0.7183 -0.6867
vn 0.0297 0.8589 -0.5112
vn -0.4821 0.8645 -0.1420
usemtl Material.301
s off
f 205/197/71 202/198/71 200/199/71 204/200/71
f 203/201/72 198/202/72 202/198/72 205/197/72
f 197/203/73 203/201/73 205/197/73 201/204/73
f 201/204/74 205/197/74 204/200/74 199/205/74
o Plane.269_Plane.226
v 0.847994 15.993892 -0.146424
v 0.109299 14.364865 -1.923773
v -0.765885 16.085758 0.440129
v -1.504580 14.456733 -1.337220
v 0.001278 16.281649 -0.000465
v -0.737416 14.652622 -1.777814
v 0.453661 15.331282 -1.127637
v -1.160218 15.423149 -0.541084
v -0.393055 15.619039 -0.981678
vt 0.363069 0.500000
vt 0.363069 0.999915
vt 0.000085 0.999915
vt 0.000085 0.500000
vt 0.726052 0.500000
vt 0.726052 0.999915
vt 0.726052 0.000085
vt 0.363069 0.000085
vt 0.000085 0.000085
vn -0.4963 0.6505 -0.5749
vn 0.0751 0.6180 -0.7826
vn 0.1642 0.7856 -0.5965
vn -0.4282 0.8194 -0.3812
usemtl Material.302
s off
f 214/206/75 211/207/75 209/208/75 213/209/75
f 212/210/76 207/211/76 211/207/76 214/206/76
f 206/212/77 212/210/77 214/206/77 210/213/77
f 210/213/78 214/206/78 213/209/78 208/214/78
o Plane.270_Plane.227
v -0.915317 17.809700 -0.141841
v -0.773248 16.522068 2.475158
v 1.038849 18.184771 -0.063383
v 1.180918 16.897137 2.553616
v -0.001548 18.305655 -0.000062
v 0.140522 17.018023 2.616937
v -0.884053 17.359621 1.231076
v 1.070112 17.734690 1.309534
v 0.029716 17.855576 1.372855
vt 0.363069 0.500000
vt 0.363069 0.999915
vt 0.000085 0.999915
vt 0.000085 0.500000
vt 0.726052 0.500000
vt 0.726052 0.999915
vt 0.726052 0.000085
vt 0.363069 0.000085
vt 0.000085 0.000085
vn 0.1294 0.8279 0.5458
vn -0.4681 0.7132 0.5218
vn -0.4911 0.8244 0.2814
vn 0.1282 0.9433 0.3063
usemtl Material.303
s off
f 223/215/79 220/216/79 218/217/79 222/218/79
f 221/219/80 216/220/80 220/216/80 223/215/80
f 215/221/81 221/219/81 223/215/81 219/222/81
f 219/222/82 223/215/82 222/218/82 217/223/82
o Plane.271_Plane.228
v 0.280505 17.421658 0.636539
v 1.855869 16.536224 -0.175170
v -0.385530 17.309267 -0.533504
v 1.189834 16.423834 -1.345212
v 0.000528 17.577818 0.000927
v 1.575892 16.692385 -0.810782
v 1.101505 17.112333 0.198905
v 0.435470 16.999943 -0.971137
v 0.821528 17.268494 -0.436707
vt 0.363069 0.500000
vt 0.363069 0.999915
vt 0.000085 0.999915
vt 0.000085 0.500000
vt 0.726052 0.500000
vt 0.726052 0.999915
vt 0.726052 0.000085
vt 0.363069 0.000085
vt 0.000085 0.000085
vn 0.2867 0.7568 -0.5874
vn 0.5868 0.8075 -0.0601
vn 0.3796 0.9232 0.0596
vn 0.0685 0.8707 -0.4870
usemtl Material.304
s off
f 232/224/83 229/225/83 227/226/83 231/227/83
f 230/228/84 225/229/84 229/225/84 232/224/84
f 224/230/85 230/228/85 232/224/85 228/231/85
f 228/231/86 232/224/86 231/227/86 226/232/86
o Plane.272_Plane.229
v -0.208830 17.471930 1.175138
v 2.666488 15.836166 1.640089
v -0.077777 17.066195 -1.062739
v 2.797541 15.430432 -0.597788
v -0.000104 17.615517 0.001772
v 2.875214 15.979754 0.466723
v 1.318781 16.871677 1.373425
v 1.449834 16.465942 -0.864452
v 1.527507 17.015265 0.200059
vt 0.363069 0.500000
vt 0.363069 0.999915
vt 0.000085 0.999915
vt 0.000085 0.500000
vt 0.726052 0.500000
vt 0.726052 0.999915
vt 0.726052 0.000085
vt 0.363069 0.000085
vt 0.000085 0.000085
vn 0.6070 0.6873 -0.3990
vn 0.5720 0.7957 0.1991
vn 0.3406 0.9240 0.1737
vn 0.3769 0.8116 -0.4463
usemtl Material.305
s off
f 241/233/87 238/234/87 236/235/87 240/236/87
f 239/237/88 234/238/88 238/234/88 241/233/88
f 233/239/89 239/237/89 241/233/89 237/240/89
f 237/240/90 241/233/90 240/236/90 235/241/90
o Plane.273_Plane.230
v -0.980472 16.227228 -0.395981
v -1.555796 14.766163 2.455066
v 1.136397 16.542419 0.192715
v 0.561073 15.081354 3.043762
v -0.001677 16.730736 -0.000466
v -0.577000 15.269670 2.850581
v -1.318160 15.713984 1.093091
v 0.798709 16.029175 1.681787
v -0.339364 16.217491 1.488606
vt 0.363069 0.500000
vt 0.363069 0.999915
vt 0.000085 0.999915
vt 0.000085 0.500000
vt 0.726052 0.500000
vt 0.726052 0.999915
vt 0.726052 0.000085
vt 0.363069 0.000085
vt 0.000085 0.000085
vn 0.0376 0.8171 0.5752
vn -0.5431 0.7307 0.4137
vn -0.5057 0.8445 0.1764
vn 0.0962 0.9341 0.3438
usemtl Material.306
s off
f 250/242/91 247/243/91 245/244/91 249/245/91
f 248/246/92 243/247/92 247/243/92 250/242/92
f 242/248/93 248/246/93 250/242/93 246/249/93
f 246/249/94 250/242/94 249/245/94 244/250/94
o Plane.274_Plane.231
v 0.705604 16.259439 -0.484420
v -0.602926 15.268375 -2.261109
v -0.555553 16.054203 0.558905
v -1.864082 15.063139 -1.217784
v 0.000999 16.418184 -0.000826
v -1.307531 15.427120 -1.777515
v 0.004839 15.928085 -1.396678
v -1.256318 15.722849 -0.353353
v -0.699766 16.086830 -0.913084
vt 0.363069 0.500000
vt 0.363069 0.999915
vt 0.000085 0.999915
vt 0.000085 0.500000
vt 0.726052 0.500000
vt 0.726052 0.999915
vt 0.726052 0.000085
vt 0.363069 0.000085
vt 0.000085 0.000085
vn -0.6340 0.7614 -0.1353
vn -0.1685 0.8371 -0.5204
vn -0.0148 0.9434 -0.3313
vn -0.4973 0.8649 0.0679
usemtl Material.307
s off
f 259/251/95 256/252/95 254/253/95 258/254/95
f 257/255/96 252/256/96 256/252/96 259/251/96
f 251/257/97 257/255/97 259/251/97 255/258/97
f 255/258/98 259/251/98 258/254/98 253/259/98
o Plane.275_Plane.232
v -0.516650 15.822332 -0.754901
v -2.714527 15.948359 0.582354
v 0.374573 15.555182 0.735066
v -1.823303 15.681207 2.072321
v -0.000706 15.972120 -0.001180
v -2.198582 16.098146 1.336075
v -1.571408 16.063343 -0.080785
v -0.680185 15.796191 1.409182
v -1.055464 16.213131 0.672936
vt 0.363069 0.500000
vt 0.363069 0.999915
vt 0.000085 0.999915
vt 0.000085 0.500000
vt 0.726052 0.500000
vt 0.726052 0.999915
vt 0.726052 0.000085
vt 0.363069 0.000085
vt 0.000085 0.000085
vn 0.1568 0.8915 0.4249
vn -0.1521 0.9841 -0.0915
vn 0.0684 0.9685 -0.2393
vn 0.3886 0.8726 0.2961
usemtl Material.308
s off
f 268/260/99 265/261/99 263/262/99 267/263/99
f 266/264/100 261/265/100 265/261/100 268/260/100
f 260/266/101 266/264/101 268/260/101 264/267/101
f 264/267/102 268/260/102 267/263/102 262/268/102
o Plane.276_Plane.233
v 0.020390 17.079992 -1.288252
v -3.170229 15.282420 -1.110753
v 0.272990 16.876448 1.190987
v -2.917629 15.078874 1.368486
v -0.000200 17.364367 -0.001964
v -3.190819 15.566792 0.175535
v -1.667190 16.423767 -1.170187
v -1.414590 16.220221 1.309052
v -1.687780 16.708139 0.116101
vt 0.363069 0.500000
vt 0.363069 0.999915
vt 0.000085 0.999915
vt 0.000085 0.500000
vt 0.726052 0.500000
vt 0.726052 0.999915
vt 0.726052 0.000085
vt 0.363069 0.000085
vt 0.000085 0.000085
vn -0.5377 0.7301 0.4217
vn -0.5992 0.7796 -0.1820
vn -0.3671 0.9070 -0.2064
vn -0.3034 0.8556 0.4194
usemtl Material.309
s off
f 277/269/103 274/270/103 272/271/103 276/272/103
f 275/273/104 270/274/104 274/270/104 277/269/104
f 269/275/105 275/273/105 277/269/105 273/276/105
f 273/276/106 277/269/106 276/272/106 271/277/106
o Plane.277_Plane.234
v 0.821900 15.781675 0.569297
v 2.013716 14.468273 -1.874829
v -0.975370 15.983664 -0.415639
v 0.216447 14.670261 -2.859765
v 0.001423 16.207281 0.000780
v 1.193240 14.893879 -2.443346
v 1.466904 15.328882 -0.700537
v -0.330366 15.530870 -1.685472
v 0.646427 15.754488 -1.269054
vt 0.363069 0.500000
vt 0.363069 0.999915
vt 0.000085 0.999915
vt 0.000085 0.500000
vt 0.726052 0.500000
vt 0.726052 0.999915
vt 0.726052 0.000085
vt 0.363069 0.000085
vt 0.000085 0.000085
vn 0.0570 0.8177 -0.5728
vn 0.5883 0.7580 -0.2816
vn 0.4920 0.8685 -0.0598
vn -0.0588 0.9305 -0.3617
usemtl Material.310
s off
f 286/278/107 283/279/107 281/280/107 285/281/107
f 284/282/108 279/283/108 283/279/108 286/278/108
f 278/284/109 284/282/109 286/278/109 282/285/109
f 282/285/110 286/278/110 285/281/110 280/286/110
o Plane.278_Plane.235
v 0.208366 16.267382 -1.285159
v -3.149029 14.735039 -1.652410
v 0.032385 16.050491 1.228615
v -3.325010 14.518148 0.861364
v 0.000139 16.561094 -0.001991
v -3.357255 15.028751 -0.369242
v -1.545859 15.753829 -1.452276
v -1.721839 15.536939 1.061498
v -1.754085 16.047541 -0.169108
vt 0.363069 0.500000
vt 0.363069 0.999915
vt 0.000085 0.999915
vt 0.000085 0.500000
vt 0.726052 0.500000
vt 0.726052 0.999915
vt 0.726052 0.000085
vt 0.363069 0.000085
vt 0.000085 0.000085
vn -0.5347 0.7755 0.3358
vn -0.4923 0.8277 -0.2693
vn -0.2493 0.9344 -0.2543
vn -0.2932 0.8803 0.3729
usemtl Material.311
s off
f 295/287/111 292/288/111 290/289/111 294/290/111
f 293/291/112 288/292/112 292/288/112 295/287/112
f 287/293/113 293/291/113 295/287/113 291/294/113
f 291/294/114 295/287/114 294/290/114 289/295/114
o Plane.279_Plane.236
v -0.932120 16.959396 0.116522
v -0.639826 16.023798 2.554073
v 0.790357 16.604753 -0.226147
v 1.082651 15.669155 2.211404
v -0.001364 17.066490 0.000271
v 0.290929 16.130892 2.437822
v -0.742305 16.670256 1.369899
v 0.980172 16.315613 1.027230
v 0.188450 16.777349 1.253648
vt 0.363069 0.500000
vt 0.363069 0.999915
vt 0.000085 0.999915
vt 0.000085 0.500000
vt 0.726052 0.500000
vt 0.726052 0.999915
vt 0.726052 0.000085
vt 0.363069 0.000085
vt 0.000085 0.000085
vn 0.5447 0.7550 0.3650
vn -0.0406 0.8755 0.4815
vn -0.0820 0.9683 0.2358
vn 0.5248 0.8434 0.1151
usemtl Material.312
s off
f 304/296/115 301/297/115 299/298/115 303/299/115
f 302/300/116 297/301/116 301/297/116 304/296/116
f 296/302/117 302/300/117 304/296/117 300/303/117
f 300/303/118 304/296/118 303/299/118 298/304/118
o Plane.280_Plane.237
v -0.166398 15.868593 1.087641
v 2.827038 14.933515 1.450490
v 0.049080 15.728923 -1.049946
v 3.042516 14.793844 -0.687097
v -0.000171 16.151529 0.001693
v 2.993265 15.216451 0.364542
v 1.367060 15.622650 1.258290
v 1.582538 15.482980 -0.879297
v 1.533287 15.905586 0.172342
vt 0.363069 0.500000
vt 0.363069 0.999915
vt 0.000085 0.999915
vt 0.000085 0.500000
vt 0.726052 0.500000
vt 0.726052 0.999915
vt 0.726052 0.000085
vt 0.363069 0.000085
vt 0.000085 0.000085
vn 0.4386 0.8408 -0.3173
vn 0.3777 0.8803 0.2872
vn 0.1234 0.9555 0.2678
vn 0.1866 0.9146 -0.3588
usemtl Material.313
s off
f 313/305/119 310/306/119 308/307/119 312/308/119
f 311/309/120 306/310/120 310/306/120 313/305/120
f 305/311/121 311/309/121 313/305/121 309/312/121
f 309/312/122 313/305/122 312/308/122 307/313/122
o Plane.281_Plane.238
v -1.342995 16.460949 -0.143344
v -1.480608 13.992067 2.727002
v 1.211983 16.118025 -0.315812
v 1.074370 13.649143 2.554534
v -0.002024 16.646936 0.000137
v -0.139636 14.178056 2.870482
v -1.371924 15.451043 1.436126
v 1.183054 15.108119 1.263658
v -0.030953 15.637032 1.579607
vt 0.363069 0.500000
vt 0.363069 0.999915
vt 0.000085 0.999915
vt 0.000085 0.500000
vt 0.726052 0.500000
vt 0.726052 0.999915
vt 0.726052 0.000085
vt 0.363069 0.000085
vt 0.000085 0.000085
vn 0.4322 0.5793 0.6911
vn -0.1698 0.6601 0.7317
vn -0.1719 0.8314 0.5284
vn 0.4523 0.7476 0.4863
usemtl Material.314
s off
f 322/314/123 319/315/123 317/316/123 321/317/123
f 320/318/124 315/319/124 319/315/124 322/314/124
f 314/320/125 320/318/125 322/314/125 318/321/125
f 318/321/126 322/314/126 321/317/126 316/322/126
o Plane.282_Plane.239
v 0.637501 14.609706 0.876189
v 2.279541 12.490808 -0.584675
v -0.875104 14.414602 -0.541022
v 0.766936 12.295705 -2.001886
v 0.001198 14.790973 0.001122
v 1.643237 12.672075 -1.459741
v 1.533900 13.725400 0.041193
v 0.021295 13.530296 -1.376018
v 0.897596 13.906667 -0.833873
vt 0.363069 0.500000
vt 0.363069 0.999915
vt 0.000085 0.999915
vt 0.000085 0.500000
vt 0.726052 0.500000
vt 0.726052 0.999915
vt 0.726052 0.000085
vt 0.363069 0.000085
vt 0.000085 0.000085
vn 0.2525 0.5545 -0.7930
vn 0.6948 0.6115 -0.3785
vn 0.5582 0.7938 -0.2415
vn 0.0996 0.7347 -0.6711
usemtl Material.315
s off
f 331/323/127 328/324/127 326/325/127 330/326/127
f 329/327/128 324/328/128 328/324/128 331/323/128
f 323/329/129 329/327/129 331/323/129 327/330/129
f 327/330/130 331/323/130 330/326/130 325/331/130
o Plane.283_Plane.240
v 0.005244 14.102264 -1.354488
v -3.017032 11.701977 -0.941476
v 0.425400 14.022720 1.257781
v -2.596876 11.622433 1.670793
v -0.000333 14.443397 -0.002069
v -3.022609 12.043109 0.410943
v -1.641359 13.141389 -1.118908
v -1.221204 13.061845 1.493361
v -1.646936 13.482521 0.233511
vt 0.363069 0.500000
vt 0.363069 0.999915
vt 0.000085 0.999915
vt 0.000085 0.500000
vt 0.726052 0.500000
vt 0.726052 0.999915
vt 0.726052 0.000085
vt 0.363069 0.000085
vt 0.000085 0.000085
vn -0.6260 0.6512 0.4290
vn -0.7227 0.6695 -0.1719
vn -0.5150 0.8306 -0.2116
vn -0.4148 0.8117 0.4112
usemtl Material.316
s off
f 340/332/131 337/333/131 335/334/131 339/335/131
f 338/336/132 333/337/132 337/333/132 340/332/132
f 332/338/133 338/336/133 340/332/133 336/339/133
f 336/339/134 340/332/134 339/335/134 334/340/134
o Plane.284_Plane.241
v 0.258331 14.637511 -0.831851
v -2.199593 14.063751 -1.486532
v -0.222266 14.746802 0.876713
v -2.680190 14.173042 0.222032
v 0.000381 14.986358 -0.001353
v -2.457544 14.412598 -0.656034
v -0.981719 14.535436 -1.174132
v -1.462316 14.644727 0.534432
v -1.239670 14.884283 -0.343634
vt 0.363069 0.500000
vt 0.363069 0.999915
vt 0.000085 0.999915
vt 0.000085 0.500000
vt 0.726052 0.500000
vt 0.726052 0.999915
vt 0.726052 0.000085
vt 0.363069 0.000085
vt 0.000085 0.000085
vn -0.3901 0.9086 0.1490
vn -0.2256 0.8712 -0.4360
vn 0.0286 0.9247 -0.3795
vn -0.1419 0.9635 0.2269
usemtl Material.317
s off
f 349/341/135 346/342/135 344/343/135 348/344/135
f 347/345/136 342/346/136 346/342/136 349/341/136
f 341/347/137 347/345/137 349/341/137 345/348/137
f 345/348/138 349/341/138 348/344/138 343/349/138
o Plane.285_Plane.242
v 1.102390 15.442112 0.510867
v 2.233223 13.581882 -2.102565
v -1.084250 15.052481 -0.157954
v 0.046583 13.192251 -2.771387
v 0.001732 15.590468 0.000530
v 1.132564 13.730238 -2.612903
v 1.663197 14.727563 -0.906359
v -0.523443 14.337933 -1.575180
v 0.562538 14.875919 -1.416697
vt 0.363069 0.500000
vt 0.363069 0.999915
vt 0.000085 0.999915
vt 0.000085 0.500000
vt 0.726052 0.500000
vt 0.726052 0.999915
vt 0.726052 0.000085
vt 0.363069 0.000085
vt 0.000085 0.000085
vn -0.2166 0.6514 -0.7271
vn 0.3573 0.7537 -0.5516
vn 0.2794 0.8973 -0.3418
vn -0.3155 0.7912 -0.5238
usemtl Material.318
s off
f 358/350/139 355/351/139 353/352/139 357/353/139
f 356/354/140 351/355/140 355/351/140 358/350/140
f 350/356/141 356/354/141 358/350/141 354/357/141
f 354/357/142 358/350/142 357/353/142 352/358/142
o Plane.286_Plane.243
v -0.977126 15.425027 0.405749
v 0.156320 15.002017 3.203527
v 0.940816 15.313716 -0.388084
v 2.074262 14.890705 2.409693
v -0.001519 15.714527 0.000629
v 1.131927 15.291517 2.798406
v -0.399953 15.430335 1.799485
v 1.517989 15.319023 1.005651
v 0.575654 15.719835 1.394364
vt 0.363069 0.500000
vt 0.363069 0.999915
vt 0.000085 0.999915
vt 0.000085 0.500000
vt 0.726052 0.500000
vt 0.726052 0.999915
vt 0.726052 0.000085
vt 0.363069 0.000085
vt 0.000085 0.000085
vn 0.4257 0.8987 0.1055
vn -0.1360 0.9313 0.3380
vn -0.2455 0.9644 0.0980
vn 0.3368 0.9306 -0.1430
usemtl Material.319
s off
f 367/359/143 364/360/143 362/361/143 366/362/143
f 365/363/144 360/364/144 364/360/144 367/359/144
f 359/365/145 365/363/145 367/359/145 363/366/145
f 363/366/146 367/359/146 366/362/146 361/367/146
o Plane.287_Plane.244
v -0.378504 16.184114 1.352198
v 2.937458 14.264468 2.226163
v 0.031113 15.705686 -1.252814
v 3.347075 13.786039 -0.378849
v -0.000324 16.352671 0.002063
v 3.315638 14.433023 0.876029
v 1.388381 15.480435 1.759262
v 1.797999 15.002007 -0.845750
v 1.766561 15.648991 0.409128
vt 0.363069 0.500000
vt 0.363069 0.999915
vt 0.000085 0.999915
vt 0.000085 0.500000
vt 0.726052 0.500000
vt 0.726052 0.999915
vt 0.726052 0.000085
vt 0.363069 0.000085
vt 0.000085 0.000085
vn 0.6420 0.6879 -0.3386
vn 0.5490 0.7966 0.2532
vn 0.3209 0.9246 0.2053
vn 0.4174 0.8119 -0.4081
usemtl Material.320
s off
f 376/368/147 373/369/147 371/370/147 375/371/147
f 374/372/148 369/373/148 373/369/148 376/368/148
f 368/374/149 374/372/149 376/368/149 372/375/149
f 372/375/150 376/368/150 375/371/150 370/376/150
o Plane.288_Plane.245
v 0.634135 15.446251 1.207896
v 3.495140 13.523425 -0.720864
v -0.889099 15.408075 -1.013516
v 1.971906 13.485250 -2.942277
v 0.001206 15.845457 0.001759
v 2.862211 13.922631 -1.927002
v 2.145474 14.747593 0.183570
v 0.622240 14.709417 -2.037842
v 1.512546 15.146799 -1.022567
vt 0.363069 0.500000
vt 0.363069 0.999915
vt 0.000085 0.999915
vt 0.000085 0.500000
vt 0.726052 0.500000
vt 0.726052 0.999915
vt 0.726052 0.000085
vt 0.363069 0.000085
vt 0.000085 0.000085
vn 0.2946 0.7563 -0.5841
vn 0.6388 0.7650 -0.0821
vn 0.4511 0.8906 0.0581
vn 0.0942 0.8817 -0.4624
usemtl Material.321
s off
f 385/377/151 382/378/151 380/379/151 384/380/151
f 383/381/152 378/382/152 382/378/152 385/377/152
f 377/383/153 383/381/153 385/377/153 381/384/153
f 381/384/154 385/377/154 384/380/154 379/385/154
o Plane.289_Plane.246
v -0.568393 14.488431 -0.830396
v -2.864762 13.867711 0.701988
v 0.546902 14.169353 0.711693
v -1.749467 13.548635 2.244077
v -0.000883 14.644303 -0.001221
v -2.297253 14.023584 1.531163
v -1.710382 14.376199 -0.027689
v -0.595088 14.057122 1.514400
v -1.142873 14.532072 0.801485
vt 0.363069 0.500000
vt 0.363069 0.999915
vt 0.000085 0.999915
vt 0.000085 0.500000
vt 0.726052 0.500000
vt 0.726052 0.999915
vt 0.726052 0.000085
vt 0.363069 0.000085
vt 0.000085 0.000085
vn -0.0108 0.8283 0.5601
vn -0.3627 0.9290 0.0736
vn -0.1532 0.9849 -0.0803
vn 0.2116 0.8806 0.4241
usemtl Material.322
s off
f 394/386/155 391/387/155 389/388/155 393/389/155
f 392/390/156 387/391/156 391/387/156 394/386/156
f 386/392/157 392/390/157 394/386/157 390/393/157
f 390/393/158 394/386/158 393/389/158 388/394/158
o Plane.290_Plane.247
v 0.877977 15.240009 -0.449572
v -0.309579 13.768172 -2.489363
v -0.671930 15.009001 0.619464
v -1.859486 13.537163 -1.420328
v 0.001228 15.410464 -0.000847
v -1.186329 13.938627 -2.040638
v 0.220255 14.683719 -1.523359
v -1.329652 14.452709 -0.454324
v -0.656495 14.854174 -1.074634
vt 0.363069 0.500000
vt 0.363069 0.999915
vt 0.000085 0.999915
vt 0.000085 0.500000
vt 0.726052 0.500000
vt 0.726052 0.999915
vt 0.726052 0.000085
vt 0.363069 0.000085
vt 0.000085 0.000085
vn -0.6700 0.6863 -0.2829
vn -0.1726 0.7604 -0.6261
vn -0.0484 0.8987 -0.4359
vn -0.5641 0.8218 -0.0802
usemtl Material.323
s off
f 403/395/159 400/396/159 398/397/159 402/398/159
f 401/399/160 396/400/160 400/396/160 403/395/160
f 395/401/161 401/399/161 403/395/161 399/402/161
f 399/402/162 403/395/162 402/398/162 397/403/162
o Plane.291_Plane.248
v -0.536522 14.683348 -1.063319
v -3.199219 13.141186 0.851120
v 0.787081 14.965204 1.004662
v -1.875616 13.423042 2.919101
v -0.001048 15.214350 -0.001638
v -2.663746 13.672188 1.912801
v -1.947225 14.157295 -0.088705
v -0.623622 14.439152 1.979276
v -1.411751 14.688296 0.972976
vt 0.363069 0.500000
vt 0.363069 0.999915
vt 0.000085 0.999915
vt 0.000085 0.500000
vt 0.726052 0.500000
vt 0.726052 0.999915
vt 0.726052 0.000085
vt 0.363069 0.000085
vt 0.000085 0.000085
vn -0.3256 0.8263 0.4596
vn -0.6517 0.7569 -0.0499
vn -0.4607 0.8647 -0.2001
vn -0.1227 0.9367 0.3280
usemtl Material.324
s off
f 412/404/163 409/405/163 407/406/163 411/407/163
f 410/408/164 405/409/164 409/405/164 412/404/164
f 404/410/165 410/408/165 412/404/165 408/411/165
f 408/411/166 412/404/166 411/407/166 406/412/166
o Plane.293_Plane.250
v 0.440476 14.467268 1.110821
v 3.137034 12.837364 -0.226435
v -0.657255 14.338006 -0.945188
v 2.039303 12.708102 -2.282444
v 0.000869 14.766136 0.001628
v 2.697427 13.136233 -1.335628
v 1.857387 13.880651 0.391194
v 0.759656 13.751390 -1.664815
v 1.417780 14.179520 -0.717999
vt 0.363069 0.500000
vt 0.363069 0.999915
vt 0.000085 0.999915
vt 0.000085 0.500000
vt 0.726052 0.500000
vt 0.726052 0.999915
vt 0.726052 0.000085
vt 0.363069 0.000085
vt 0.000085 0.000085
vn 0.3349 0.7491 -0.5715
vn 0.6212 0.7828 -0.0353
vn 0.4155 0.9061 0.0795
vn 0.1187 0.8712 -0.4764
usemtl Material.326
s off
f 421/413/167 418/414/167 416/415/167 420/416/167
f 419/417/168 414/418/168 418/414/168 421/413/168
f 413/419/169 419/417/169 421/413/169 417/420/169
f 417/420/170 421/413/170 420/416/170 415/421/170
o Plane.294_Plane.251
v -1.287790 15.430869 -0.592627
v -2.431629 12.922452 2.270967
v 1.302765 15.051692 0.110002
v 0.158926 12.543275 2.973596
v -0.002052 15.622238 -0.000556
v -1.145890 13.113821 2.863037
v -1.865702 14.415962 0.990403
v 0.724854 14.036785 1.693032
v -0.579963 14.607331 1.582473
vt 0.363069 0.500000
vt 0.363069 0.999915
vt 0.000085 0.999915
vt 0.000085 0.500000
vt 0.726052 0.500000
vt 0.726052 0.999915
vt 0.726052 0.000085
vt 0.363069 0.000085
vt 0.000085 0.000085
vn 0.1941 0.5951 0.7799
vn -0.3877 0.6803 0.6220
vn -0.3217 0.8461 0.4250
vn 0.2815 0.7578 0.5886
usemtl Material.327
s off
f 430/422/171 427/423/171 425/424/171 429/425/171
f 428/426/172 423/427/172 427/423/172 430/422/172
f 422/428/173 428/426/173 430/422/173 426/429/173
f 426/429/174 430/422/174 429/425/174 424/430/174
o Plane.295_Plane.252
v -0.076826 15.395882 1.294491
v 2.731511 13.085205 1.311272
v -0.343267 15.054320 -1.147535
v 2.465069 12.743644 -1.130754
v 0.000211 15.572595 0.001934
v 2.808547 13.261918 0.018715
v 1.459417 14.458824 1.257941
v 1.192976 14.117263 -1.184085
v 1.536454 14.635537 -0.034616
vt 0.363069 0.500000
vt 0.363069 0.999915
vt 0.000085 0.999915
vt 0.000085 0.500000
vt 0.726052 0.500000
vt 0.726052 0.999915
vt 0.726052 0.000085
vt 0.363069 0.000085
vt 0.000085 0.000085
vn 0.6589 0.5922 -0.4639
vn 0.7243 0.6760 0.1356
vn 0.5177 0.8430 0.1461
vn 0.4499 0.7561 -0.4753
usemtl Material.328
s off
f 439/431/175 436/432/175 434/433/175 438/434/175
f 437/435/176 432/436/176 436/432/176 439/431/176
f 431/437/177 437/435/177 439/431/177 435/438/177
f 435/438/178 439/431/178 438/434/178 433/439/178
