# Blender v3.2.0 OBJ File: 'trees.blend'
# www.blender.org
mtllib Spruce Small 2 Leaves.mtl
o Short_twigs_set.054_Plane.725
v -0.031365 2.105444 0.831154
v -0.031364 4.630830 0.831154
v -0.031364 2.105444 -0.025570
v -0.031364 4.630830 -0.025570
vt 0.869132 0.583327
vt 0.869132 0.998870
vt 0.728161 0.998870
vt 0.728161 0.583327
vn -1.0000 0.0000 -0.0000
usemtl thing.005
s off
f 1/1/1 2/2/1 4/3/1 3/4/1
o Short_twigs_set_2.054_Plane.726
v -0.708277 0.615435 0.276107
v -0.694981 2.546207 0.258314
v -0.099540 0.609014 0.034268
v -0.086244 2.539786 0.016475
vt 0.869132 0.583327
vt 0.869132 0.998870
vt 0.728161 0.998870
vt 0.728161 0.583327
vn -0.3693 -0.0060 -0.9293
usemtl thing.005
s off
f 5/5/2 6/6/2 8/7/2 7/8/2
o Short_twigs_set.055_Plane.727
v -0.413946 2.849504 0.614130
v -0.413946 4.995202 0.614130
v -0.036491 2.849504 -0.008277
v -0.036491 4.995201 -0.008277
vt 0.869132 0.583327
vt 0.869132 0.998870
vt 0.728161 0.998870
vt 0.728161 0.583327
vn -0.8551 0.0000 -0.5185
usemtl thing.005
s off
f 9/9/3 10/10/3 12/11/3 11/12/3
o Short_twigs_set_2.055_Plane.728
v -0.396905 3.027342 -0.563955
v -0.386455 5.065256 -0.574017
v -0.024151 3.028306 0.018320
v -0.013701 5.066219 0.008258
vt 0.869132 0.583327
vt 0.869132 0.998870
vt 0.728161 0.998870
vt 0.728161 0.583327
vn 0.8422 -0.0070 -0.5391
usemtl thing.005
s off
f 13/13/4 14/14/4 16/15/4 15/16/4
o Short_twigs_set.056_Plane.729
v 0.122887 4.676896 0.592075
v 0.122887 6.470966 0.592075
v -0.009937 4.676896 -0.001883
v -0.009937 6.470966 -0.001883
vt 0.869132 0.583327
vt 0.869132 0.998870
vt 0.728161 0.998870
vt 0.728161 0.583327
vn -0.9759 0.0000 0.2182
usemtl thing.005
s off
f 17/17/5 18/18/5 20/19/5 19/20/5
o Short_twigs_set.057_Plane.730
v 0.636625 0.830948 -0.088297
v 0.636625 2.853740 -0.088297
v -0.047206 0.830948 -0.031066
v -0.047206 2.853740 -0.031066
vt 0.869132 0.583327
vt 0.869132 0.998870
vt 0.728161 0.998870
vt 0.728161 0.583327
vn 0.0834 -0.0000 0.9965
usemtl thing.006
s off
f 21/21/6 22/22/6 24/23/6 23/24/6
o Short_twigs_set_2.056_Plane.779
v -0.367087 1.595120 -0.514778
v -0.357920 3.382870 -0.523605
v -0.040090 1.595965 -0.003979
v -0.030923 3.383715 -0.012806
vt 0.869132 0.583327
vt 0.869132 0.998870
vt 0.728161 0.998870
vt 0.728161 0.583327
vn 0.8422 -0.0070 -0.5391
usemtl thing.005
s off
f 25/25/7 26/26/7 28/27/7 27/28/7
o Short_twigs_set_2.057_Plane.780
v -0.594881 2.678644 0.238433
v -0.583447 4.339117 0.223131
v -0.071365 2.673123 0.030450
v -0.059931 4.333594 0.015148
vt 0.869132 0.583327
vt 0.869132 0.998870
vt 0.728161 0.998870
vt 0.728161 0.583327
vn -0.3693 -0.0060 -0.9293
usemtl thing.005
s off
f 29/29/8 30/30/8 32/31/8 31/32/8
o Short_twigs_set_2.058_Plane.781
v -0.119402 0.456919 0.712660
v -0.106106 2.387692 0.694867
v -0.043462 0.450401 0.062062
v -0.030166 2.381173 0.044269
vt 0.869132 0.583327
vt 0.869132 0.998870
vt 0.728161 0.998870
vt 0.728161 0.583327
vn -0.9932 0.0058 -0.1160
usemtl thing.005
s off
f 33/33/9 34/34/9 36/35/9 35/36/9
o Plane.531_Plane.783
v 0.669661 6.805682 -0.260285
v -0.233315 5.570301 -1.708798
v -0.571766 6.867726 0.460683
v -1.474742 5.632344 -0.987831
v 0.000983 7.047976 -0.000571
v -0.901992 5.812595 -1.449085
v 0.188044 6.320704 -1.047841
v -1.053383 6.382747 -0.326873
v -0.480634 6.562998 -0.788127
vt 0.363069 0.500000
vt 0.363069 0.999915
vt 0.000085 0.999915
vt 0.000085 0.500000
vt 0.726052 0.500000
vt 0.726052 0.999915
vt 0.726052 0.000085
vt 0.363069 0.000085
vt 0.000085 0.000085
vn -0.5684 0.7000 -0.4323
vn -0.0424 0.6737 -0.7378
vn 0.0822 0.8254 -0.5585
vn -0.4631 0.8527 -0.2419
usemtl Material.538
s off
f 45/37/10 42/38/10 40/39/10 44/40/10
f 43/41/11 38/42/11 42/38/11 45/37/11
f 37/43/12 43/41/12 45/37/12 41/44/12
f 41/44/13 45/37/13 44/40/13 39/45/13
o Plane.532_Plane.784
v 0.525280 6.817952 0.122567
v 0.912052 6.634507 -1.323128
v -0.452238 6.601337 -0.111466
v -0.065466 6.417892 -1.557161
v 0.000774 6.876755 0.000185
v 0.387547 6.693309 -1.445510
v 0.696212 6.831201 -0.603651
v -0.281307 6.614586 -0.837684
v 0.171706 6.890004 -0.726032
vt 0.363069 0.500000
vt 0.363069 0.999915
vt 0.000085 0.999915
vt 0.000085 0.500000
vt 0.726052 0.500000
vt 0.726052 0.999915
vt 0.726052 0.000085
vt 0.363069 0.000085
vt 0.000085 0.000085
vn -0.4204 0.8352 -0.3545
vn 0.1584 0.9635 -0.2159
vn 0.1016 0.9939 0.0421
vn -0.4984 0.8610 -0.1016
usemtl Material.539
s off
f 54/46/14 51/47/14 49/48/14 53/49/14
f 52/50/15 47/51/15 51/47/15 54/46/15
f 46/52/16 52/50/16 54/46/16 50/53/16
f 50/53/17 54/46/17 53/49/17 48/54/17
o Plane.533_Plane.785
v 0.096343 6.696405 -0.735552
v -1.700181 5.591697 -0.823487
v 0.094386 6.585344 0.699660
v -1.702138 5.480637 0.611725
v 0.000002 6.859778 -0.001137
v -1.796523 5.755070 -0.089072
v -0.861822 6.281557 -0.768961
v -0.863779 6.170496 0.666252
v -0.958163 6.444930 -0.034545
vt 0.363069 0.500000
vt 0.363069 0.999915
vt 0.000085 0.999915
vt 0.000085 0.500000
vt 0.726052 0.500000
vt 0.726052 0.999915
vt 0.726052 0.000085
vt 0.363069 0.000085
vt 0.000085 0.000085
vn -0.6068 0.7090 0.3594
vn -0.6060 0.7560 -0.2477
vn -0.3776 0.8921 -0.2480
vn -0.3785 0.8434 0.3813
usemtl Material.540
s off
f 63/55/18 60/56/18 58/57/18 62/58/18
f 61/59/19 56/60/19 60/56/19 63/55/19
f 55/61/20 61/59/20 63/55/20 59/62/20
f 59/62/21 63/55/21 62/58/21 57/63/21
o Plane.534_Plane.786
v 0.220188 7.154477 -0.413514
v -1.099983 6.754171 -0.955491
v -0.204137 7.336462 0.485659
v -1.524307 6.936157 -0.056317
v 0.000336 7.409290 -0.000712
v -1.319835 7.008985 -0.542689
v -0.444728 7.057229 -0.707609
v -0.869052 7.239214 0.191564
v -0.664580 7.312042 -0.294807
vt 0.363069 0.500000
vt 0.363069 0.999915
vt 0.000085 0.999915
vt 0.000085 0.500000
vt 0.726052 0.500000
vt 0.726052 0.999915
vt 0.726052 0.000085
vt 0.363069 0.000085
vt 0.000085 0.000085
vn -0.4085 0.9121 -0.0352
vn -0.1529 0.8025 -0.5768
vn 0.0891 0.8681 -0.4884
vn -0.1759 0.9817 0.0731
usemtl Material.541
s off
f 72/64/22 69/65/22 67/66/22 71/67/22
f 70/68/23 65/69/23 69/65/23 72/64/23
f 64/70/24 70/68/24 72/64/24 68/71/24
f 68/71/25 72/64/25 71/67/25 66/72/25
o Plane.535_Plane.787
v -0.487646 7.288555 -0.540069
v -1.732562 6.196815 0.649536
v 0.558680 7.062205 0.347177
v -0.686236 5.970466 1.536782
v -0.000829 7.382662 -0.000703
v -1.245744 6.290923 1.188902
v -1.132935 6.872891 0.114875
v -0.086609 6.646542 1.002121
v -0.646117 6.966999 0.654242
vt 0.363069 0.500000
vt 0.363069 0.999915
vt 0.000085 0.999915
vt 0.000085 0.500000
vt 0.726052 0.500000
vt 0.726052 0.999915
vt 0.726052 0.000085
vt 0.363069 0.000085
vt 0.000085 0.000085
vn -0.0833 0.6626 0.7444
vn -0.5415 0.7617 0.3558
vn -0.3866 0.9021 0.1916
vn 0.0883 0.7994 0.5943
usemtl Material.542
s off
f 81/73/26 78/74/26 76/75/26 80/76/26
f 79/77/27 74/78/27 78/74/27 81/73/27
f 73/79/28 79/77/28 81/73/28 77/80/28
f 77/80/29 81/73/29 80/76/29 75/81/29
o Plane.536_Plane.788
v -0.585459 7.474618 -0.263398
v -0.953445 6.286289 1.096208
v 0.632170 7.452620 0.046933
v 0.264185 6.264290 1.406539
v -0.000964 7.640870 -0.000246
v -0.368950 6.452540 1.359360
v -0.784729 6.991795 0.484237
v 0.432901 6.969797 0.794569
v -0.200234 7.158047 0.747390
vt 0.363069 0.500000
vt 0.363069 0.999915
vt 0.000085 0.999915
vt 0.000085 0.500000
vt 0.726052 0.500000
vt 0.726052 0.999915
vt 0.726052 0.000085
vt 0.363069 0.000085
vt 0.000085 0.000085
vn 0.1308 0.6316 0.7642
vn -0.4590 0.6422 0.6138
vn -0.4162 0.8104 0.4124
vn 0.1953 0.7993 0.5683
usemtl Material.543
s off
f 90/82/30 87/83/30 85/84/30 89/85/30
f 88/86/31 83/87/31 87/83/31 90/82/31
f 82/88/32 88/86/32 90/82/32 86/89/32
f 86/89/33 90/82/33 89/85/33 84/90/33
o Plane.537_Plane.789
v 0.023364 6.971860 -0.509971
v -1.350606 6.547663 -0.566214
v 0.028280 6.827238 0.460686
v -1.345689 6.403040 0.404443
v -0.000004 7.058901 -0.000769
v -1.373973 6.634704 -0.057012
v -0.679844 6.859860 -0.523096
v -0.674927 6.715237 0.447561
v -0.703211 6.946900 -0.013894
vt 0.363069 0.500000
vt 0.363069 0.999915
vt 0.000085 0.999915
vt 0.000085 0.500000
vt 0.726052 0.500000
vt 0.726052 0.999915
vt 0.726052 0.000085
vt 0.363069 0.000085
vt 0.000085 0.000085
vn -0.4035 0.8076 0.4301
vn -0.4066 0.8973 -0.1720
vn -0.1518 0.9731 -0.1733
vn -0.1486 0.8801 0.4509
usemtl Material.544
s off
f 99/91/34 96/92/34 94/93/34 98/94/34
f 97/95/35 92/96/35 96/92/35 99/91/35
f 91/97/36 97/95/36 99/91/36 95/98/36
f 95/98/37 99/91/37 98/94/37 93/99/37
o Plane.538_Plane.790
v 0.585899 6.828222 -0.341696
v -0.422103 5.793485 -1.666237
v -0.469882 6.807904 0.477646
v -1.477884 5.773168 -0.846894
v 0.000836 7.021573 -0.000649
v -1.007165 5.986835 -1.325189
v 0.045985 6.438689 -1.047073
v -1.009796 6.418372 -0.227731
v -0.539078 6.632040 -0.706026
vt 0.363069 0.500000
vt 0.363069 0.999915
vt 0.000085 0.999915
vt 0.000085 0.500000
vt 0.726052 0.500000
vt 0.726052 0.999915
vt 0.726052 0.000085
vt 0.363069 0.000085
vt 0.000085 0.000085
vn -0.6226 0.7277 -0.2877
vn -0.1417 0.7370 -0.6609
vn 0.0052 0.8737 -0.4864
vn -0.4934 0.8641 -0.0995
usemtl Material.545
s off
f 108/100/38 105/101/38 103/102/38 107/103/38
f 106/104/39 101/105/39 105/101/39 108/100/39
f 100/106/40 106/104/40 108/100/40 104/107/40
f 104/107/41 108/100/41 107/103/41 102/108/41
o Plane.539_Plane.791
v -0.368539 6.916515 -0.292300
v -0.601203 5.860342 0.644490
v 0.497856 7.092055 0.120790
v 0.265193 6.035882 1.057581
v -0.000686 7.125766 -0.000327
v -0.233350 6.069592 0.936463
v -0.525918 6.464738 0.229757
v 0.340477 6.640277 0.642848
v -0.158065 6.673988 0.521730
vt 0.363069 0.500000
vt 0.363069 0.999915
vt 0.000085 0.999915
vt 0.000085 0.500000
vt 0.726052 0.500000
vt 0.726052 0.999915
vt 0.726052 0.000085
vt 0.363069 0.000085
vt 0.000085 0.000085
vn -0.1569 0.5720 0.8051
vn -0.6975 0.4625 0.5473
vn -0.6624 0.6537 0.3660
vn -0.1020 0.7672 0.6332
usemtl Material.546
s off
f 117/109/42 114/110/42 112/111/42 116/112/42
f 115/113/43 110/114/43 114/110/43 117/109/43
f 109/115/44 115/113/44 117/109/44 113/116/44
f 113/116/45 117/109/45 116/112/45 111/117/45
o Plane.541_Plane.793
v 0.880361 6.506409 -0.084403
v 0.612793 4.907801 -1.957139
v -0.731203 6.259280 0.356805
v -0.998771 4.660671 -1.515931
v 0.001276 6.617071 -0.000349
v -0.266291 5.018463 -1.873086
v 0.700531 5.854237 -1.106546
v -0.911033 5.607107 -0.665338
v -0.178553 5.964899 -1.022493
vt 0.363069 0.500000
vt 0.363069 0.999915
vt 0.000085 0.999915
vt 0.000085 0.500000
vt 0.726052 0.500000
vt 0.726052 0.999915
vt 0.726052 0.000085
vt 0.363069 0.000085
vt 0.000085 0.000085
vn -0.5680 0.5786 -0.5853
vn 0.0129 0.6677 -0.7443
vn 0.0534 0.8375 -0.5438
vn -0.5488 0.7452 -0.3789
usemtl Material.548
s off
f 126/118/46 123/119/46 121/120/46 125/121/46
f 124/122/47 119/123/47 123/119/47 126/118/47
f 118/124/48 124/122/48 126/118/48 122/125/48
f 122/125/49 126/118/49 125/121/49 120/126/49
o Plane.542_Plane.794
v -0.074429 7.149827 -0.640413
v -1.676619 6.334097 -0.411673
v 0.191139 6.962611 0.552091
v -1.411051 6.146881 0.780831
v -0.000210 7.248420 -0.000944
v -1.602401 6.432691 0.227796
v -0.912313 6.862695 -0.498896
v -0.646744 6.675479 0.693608
v -0.838094 6.961288 0.140573
vt 0.363069 0.500000
vt 0.363069 0.999915
vt 0.000085 0.999915
vt 0.000085 0.500000
vt 0.726052 0.500000
vt 0.726052 0.999915
vt 0.726052 0.000085
vt 0.363069 0.000085
vt 0.000085 0.000085
vn -0.4416 0.7256 0.5278
vn -0.5724 0.8178 -0.0597
vn -0.3382 0.9352 -0.1049
vn -0.2026 0.8396 0.5040
usemtl Material.549
s off
f 135/127/50 132/128/50 130/129/50 134/130/50
f 133/131/51 128/132/51 132/128/51 135/127/51
f 127/133/52 133/131/52 135/127/52 131/134/52
f 131/134/53 135/127/53 134/130/53 129/135/53
o Plane.543_Plane.795
v 0.493747 6.367900 0.324822
v 1.240340 5.699164 -1.116944
v -0.556327 6.429401 -0.247467
v 0.190267 5.760666 -1.689233
v 0.000832 6.591409 0.000453
v 0.747425 5.922673 -1.441313
v 0.887221 6.154614 -0.420072
v -0.162853 6.216116 -0.992361
v 0.394306 6.378123 -0.744441
vt 0.363069 0.500000
vt 0.363069 0.999915
vt 0.000085 0.999915
vt 0.000085 0.500000
vt 0.726052 0.500000
vt 0.726052 0.999915
vt 0.726052 0.000085
vt 0.363069 0.000085
vt 0.000085 0.000085
vn 0.0000 0.8371 -0.5471
vn 0.5339 0.8058 -0.2561
vn 0.4298 0.9024 -0.0313
vn -0.1236 0.9348 -0.3330
usemtl Material.550
s off
f 144/136/54 141/137/54 139/138/54 143/139/54
f 142/140/55 137/141/55 141/137/55 144/136/55
f 136/142/56 142/140/56 144/136/56 140/143/56
f 140/143/57 144/136/57 143/139/57 138/144/57
o Plane.544_Plane.796
v 0.651664 7.292690 -0.208523
v 0.153078 6.048095 -1.574770
v -0.490664 7.092461 0.390747
v -0.989249 5.847867 -0.975500
v 0.000905 7.372563 -0.000475
v -0.497681 6.127968 -1.366722
v 0.352373 6.783453 -0.949178
v -0.789955 6.583224 -0.349907
v -0.298386 6.863326 -0.741129
vt 0.363069 0.500000
vt 0.363069 0.999915
vt 0.000085 0.999915
vt 0.000085 0.500000
vt 0.726052 0.500000
vt 0.726052 0.999915
vt 0.726052 0.000085
vt 0.363069 0.000085
vt 0.000085 0.000085
vn -0.6853 0.5707 -0.4525
vn -0.1525 0.6640 -0.7320
vn -0.0718 0.8352 -0.5452
vn -0.6241 0.7384 -0.2555
usemtl Material.551
s off
f 153/145/58 150/146/58 148/147/58 152/148/58
f 151/149/59 146/150/59 150/146/59 153/145/59
f 145/151/60 151/149/60 153/145/60 149/152/60
f 149/152/61 153/145/61 152/148/61 147/153/61
o Plane.545_Plane.797
v -0.195609 6.607751 -0.612023
v -1.800825 5.957287 -0.049647
v 0.263217 6.465572 0.533176
v -1.341999 5.815108 1.095551
v -0.000363 6.736639 -0.000907
v -1.605579 6.086175 0.561469
v -1.019680 6.408136 -0.306640
v -0.560854 6.265957 0.838558
v -0.824434 6.537024 0.304476
vt 0.363069 0.500000
vt 0.363069 0.999915
vt 0.000085 0.999915
vt 0.000085 0.500000
vt 0.726052 0.500000
vt 0.726052 0.999915
vt 0.726052 0.000085
vt 0.363069 0.000085
vt 0.000085 0.000085
vn -0.2799 0.7932 0.5407
vn -0.5049 0.8629 -0.0207
vn -0.2736 0.9551 -0.1140
vn -0.0404 0.8828 0.4680
usemtl Material.552
s off
f 162/154/62 159/155/62 157/156/62 161/157/62
f 160/158/63 155/159/63 159/155/63 162/154/63
f 154/160/64 160/158/64 162/154/64 158/161/64
f 158/161/65 162/154/65 161/157/65 156/162/65
o Plane.548_Plane.800
v 0.612983 6.117453 0.351524
v 0.923681 4.678518 -1.182048
v -0.748815 6.311285 -0.106243
v -0.438117 4.872349 -1.639815
v 0.001079 6.410321 0.000363
v 0.311776 4.971386 -1.533210
v 0.811671 5.521074 -0.492072
v -0.550126 5.714906 -0.949839
v 0.199767 5.813942 -0.843233
vt 0.363069 0.500000
vt 0.363069 0.999915
vt 0.000085 0.999915
vt 0.000085 0.500000
vt 0.726052 0.500000
vt 0.726052 0.999915
vt 0.726052 0.000085
vt 0.363069 0.000085
vt 0.000085 0.000085
vn 0.0258 0.6354 -0.7717
vn 0.5977 0.5540 -0.5795
vn 0.5680 0.7292 -0.3817
vn -0.0248 0.8135 -0.5810
usemtl Material.555
s off
f 171/163/66 168/164/66 166/165/66 170/166/66
f 169/167/67 164/168/67 168/164/67 171/163/67
f 163/169/68 169/167/68 171/163/68 167/170/68
f 167/170/69 171/163/69 170/166/69 165/171/69
o Plane.549_Plane.801
v 0.347794 5.441303 -0.486912
v -1.075786 4.561294 -1.158015
v -0.235021 5.563653 0.588949
v -1.658601 4.683645 -0.082155
v 0.000462 5.692193 -0.000852
v -1.423118 4.812184 -0.671956
v -0.399126 5.120469 -0.855047
v -0.981941 5.242820 0.220814
v -0.746458 5.371360 -0.368987
vt 0.363069 0.500000
vt 0.363069 0.999915
vt 0.000085 0.999915
vt 0.000085 0.500000
vt 0.726052 0.500000
vt 0.726052 0.999915
vt 0.726052 0.000085
vt 0.363069 0.000085
vt 0.000085 0.000085
vn -0.6152 0.7848 -0.0746
vn -0.3266 0.7243 -0.6073
vn -0.1100 0.8490 -0.5168
vn -0.4091 0.9118 0.0354
usemtl Material.556
s off
f 180/172/70 177/173/70 175/174/70 179/175/70
f 178/176/71 173/177/71 177/173/71 180/172/71
f 172/178/72 178/176/72 180/172/72 176/179/72
f 176/179/73 180/172/73 179/175/73 174/180/73
o Plane.550_Plane.802
v 0.395356 5.627355 -0.881174
v -1.823240 3.905673 -1.355309
v -0.100045 5.749657 0.992828
v -2.318641 4.027975 0.518693
v 0.000392 5.970164 -0.001484
v -2.218203 4.248482 -0.475619
v -0.806446 4.943440 -1.154242
v -1.301847 5.065742 0.719760
v -1.201410 5.286250 -0.274552
vt 0.363069 0.500000
vt 0.363069 0.999915
vt 0.000085 0.999915
vt 0.000085 0.500000
vt 0.726052 0.500000
vt 0.726052 0.999915
vt 0.726052 0.000085
vt 0.363069 0.000085
vt 0.000085 0.000085
vn -0.7197 0.6896 0.0802
vn -0.5644 0.6513 -0.5072
vn -0.3522 0.8077 -0.4729
vn -0.5132 0.8474 0.1361
usemtl Material.557
s off
f 189/181/74 186/182/74 184/183/74 188/184/74
f 187/185/75 182/186/75 186/182/75 189/181/75
f 181/187/76 187/185/76 189/181/76 185/188/76
f 185/188/77 189/181/77 188/184/77 183/189/77
o Plane.552_Plane.804
v -0.299156 6.267278 -0.469756
v -1.504273 5.669085 0.369249
v 0.348747 6.168252 0.390265
v -0.856370 5.570058 1.229270
v -0.000513 6.391438 -0.000681
v -1.205630 5.793244 0.838324
v -0.917613 6.077276 -0.025715
v -0.269709 5.978249 0.834306
v -0.618970 6.201435 0.443360
vt 0.363069 0.500000
vt 0.363069 0.999915
vt 0.000085 0.999915
vt 0.000085 0.500000
vt 0.726052 0.500000
vt 0.726052 0.999915
vt 0.726052 0.000085
vt 0.363069 0.000085
vt 0.000085 0.000085
vn -0.1541 0.7925 0.5901
vn -0.5189 0.8482 0.1059
vn -0.3227 0.9455 -0.0448
vn 0.0555 0.8877 0.4572
usemtl Material.559
s off
f 198/190/78 195/191/78 193/192/78 197/193/78
f 196/194/79 191/195/79 195/191/79 198/190/79
f 190/196/80 196/194/80 198/190/80 194/197/80
f 194/197/81 198/190/81 197/193/81 192/198/81
o Plane.555_Plane.807
v -0.111676 4.996332 -1.043592
v -2.680872 3.599577 -0.713730
v 0.317527 4.663112 0.888375
v -2.251669 3.266357 1.218236
v -0.000340 5.137805 -0.001530
v -2.569536 3.741050 0.328332
v -1.461141 4.491479 -0.830872
v -1.031938 4.158259 1.101095
v -1.349805 4.632952 0.211190
vt 0.363069 0.500000
vt 0.363069 0.999915
vt 0.000085 0.999915
vt 0.000085 0.500000
vt 0.726052 0.500000
vt 0.726052 0.999915
vt 0.726052 0.000085
vt 0.363069 0.000085
vt 0.000085 0.000085
vn -0.4623 0.7032 0.5402
vn -0.5925 0.8043 -0.0459
vn -0.3611 0.9284 -0.0875
vn -0.2261 0.8236 0.5201
usemtl Material.562
s off
f 207/199/82 204/200/82 202/201/82 206/202/82
f 205/203/83 200/204/83 204/200/83 207/199/83
f 199/205/84 205/203/84 207/199/84 203/206/84
f 203/206/85 207/199/85 206/202/85 201/207/85
o Plane.557_Plane.809
v 0.391321 4.765700 -0.845725
v -1.981368 3.084939 -1.138145
v -0.123777 5.165193 1.037581
v -2.496466 3.484432 0.745161
v 0.000408 5.252748 -0.001492
v -2.372281 3.571987 -0.293911
v -0.878797 4.105791 -1.053130
v -1.393895 4.505283 0.830176
v -1.269710 4.592838 -0.208896
vt 0.363069 0.500000
vt 0.363069 0.999915
vt 0.000085 0.999915
vt 0.000085 0.500000
vt 0.726052 0.500000
vt 0.726052 0.999915
vt 0.726052 0.000085
vt 0.363069 0.000085
vt 0.000085 0.000085
vn -0.6785 0.7344 -0.0192
vn -0.5211 0.6123 -0.5946
vn -0.3003 0.7594 -0.5772
vn -0.4634 0.8859 0.0193
usemtl Material.564
s off
f 216/208/86 213/209/86 211/210/86 215/211/86
f 214/212/87 209/213/87 213/209/87 216/208/87
f 208/214/88 214/212/88 216/208/88 212/215/88
f 212/215/89 216/208/89 215/211/89 210/216/89
o Plane.558_Plane.810
v 0.052397 4.698367 -0.920948
v -2.269510 3.067660 -0.341678
v 0.254971 5.093491 1.003352
v -2.066936 3.462784 1.582621
v -0.000160 5.182884 -0.001524
v -2.322068 3.552177 0.577745
v -1.205195 4.063267 -0.658152
v -1.002622 4.458390 1.266148
v -1.257753 4.547784 0.261272
vt 0.363069 0.500000
vt 0.363069 0.999915
vt 0.000085 0.999915
vt 0.000085 0.500000
vt 0.726052 0.500000
vt 0.726052 0.999915
vt 0.726052 0.000085
vt 0.363069 0.000085
vt 0.000085 0.000085
vn -0.6288 0.7440 0.2258
vn -0.6913 0.6222 -0.3674
vn -0.4769 0.7660 -0.4310
vn -0.4122 0.8923 0.1840
usemtl Material.565
s off
f 225/217/90 222/218/90 220/219/90 224/220/90
f 223/221/91 218/222/91 222/218/91 225/217/91
f 217/223/92 223/221/92 225/217/92 221/224/92
f 221/224/93 225/217/93 224/220/93 219/225/93
o Plane.559_Plane.811
v 1.095224 5.110945 -0.279528
v 0.605825 2.737943 -2.284730
v -0.789425 4.705254 0.660552
v -1.278824 2.332252 -1.344650
v 0.001493 5.168278 -0.000745
v -0.487906 2.795276 -2.005947
v 0.755417 4.087877 -1.402269
v -1.129232 3.682186 -0.462188
v -0.338314 4.145210 -1.123485
vt 0.363069 0.500000
vt 0.363069 0.999915
vt 0.000085 0.999915
vt 0.000085 0.500000
vt 0.726052 0.500000
vt 0.726052 0.999915
vt 0.726052 0.000085
vt 0.363069 0.000085
vt 0.000085 0.000085
vn -0.7136 0.4370 -0.5475
vn -0.1786 0.5522 -0.8144
vn -0.1255 0.7519 -0.6472
vn -0.6801 0.6325 -0.3705
usemtl Material.566
s off
f 234/226/94 231/227/94 229/228/94 233/229/94
f 232/230/95 227/231/95 231/227/95 234/226/95
f 226/232/96 232/230/96 234/226/96 230/233/96
f 230/233/97 234/226/97 233/229/97 228/234/97
o Plane.560_Plane.812
v -0.622454 5.282283 -0.072408
v -0.486189 4.235595 1.466325
v 0.645162 5.385649 -0.114352
v 0.781428 4.338961 1.424382
v -0.001004 5.523424 0.000033
v 0.135261 4.476737 1.538767
v -0.562084 4.877949 0.755637
v 0.705532 4.981315 0.713693
v 0.059366 5.119090 0.828078
vt 0.363069 0.500000
vt 0.363069 0.999915
vt 0.000085 0.999915
vt 0.000085 0.500000
vt 0.726052 0.500000
vt 0.726052 0.999915
vt 0.726052 0.000085
vt 0.363069 0.000085
vt 0.000085 0.000085
vn 0.2670 0.7290 0.6303
vn -0.3395 0.6795 0.6504
vn -0.3698 0.8240 0.4293
vn 0.2589 0.8753 0.4085
usemtl Material.567
s off
f 243/235/98 240/236/98 238/237/98 242/238/98
f 241/239/99 236/240/99 240/236/99 243/235/99
f 235/241/100 241/239/100 243/235/100 239/242/100
f 239/242/101 243/235/101 242/238/101 237/243/101
o Plane.564_Plane.816
v 0.820790 4.310403 0.040750
v 0.249969 2.459796 -1.495200
v -0.818367 4.573346 0.333117
v -1.389188 2.722740 -1.202834
v 0.001298 4.650525 -0.000232
v -0.569522 2.799919 -1.536182
v 0.535434 3.516165 -0.844794
v -1.103723 3.779109 -0.552428
v -0.284057 3.856287 -0.885776
vt 0.363069 0.500000
vt 0.363069 0.999915
vt 0.000085 0.999915
vt 0.000085 0.500000
vt 0.726052 0.500000
vt 0.726052 0.999915
vt 0.726052 0.000085
vt 0.363069 0.000085
vt 0.000085 0.000085
vn -0.3572 0.5578 -0.7492
vn 0.2348 0.4628 -0.8548
vn 0.3072 0.6571 -0.6884
vn -0.3066 0.7556 -0.5789
usemtl Material.571
s off
f 252/244/102 249/245/102 247/246/102 251/247/102
f 250/248/103 245/249/103 249/245/103 252/244/103
f 244/250/104 250/248/104 252/244/104 248/251/104
f 248/251/105 252/244/105 251/247/105 246/252/105
o Plane.565_Plane.817
v 0.013146 3.840444 -1.052188
v -2.262309 1.785323 -0.460000
v 0.377633 4.038776 1.036626
v -1.897822 1.983655 1.628814
v -0.000289 4.234693 -0.001654
v -2.275744 2.179571 0.590534
v -1.247499 2.998242 -0.752245
v -0.883012 3.196574 1.336568
v -1.260934 3.392490 0.298288
vt 0.363069 0.500000
vt 0.363069 0.999915
vt 0.000085 0.999915
vt 0.000085 0.500000
vt 0.726052 0.500000
vt 0.726052 0.999915
vt 0.726052 0.000085
vt 0.363069 0.000085
vt 0.000085 0.000085
vn -0.6686 0.6475 0.3656
vn -0.7728 0.5908 -0.2316
vn -0.5784 0.7613 -0.2931
vn -0.4703 0.8201 0.3259
usemtl Material.572
s off
f 261/253/106 258/254/106 256/255/106 260/256/106
f 259/257/107 254/258/107 258/254/107 261/253/107
f 253/259/108 259/257/108 261/253/108 257/260/108
f 257/260/109 261/253/109 260/256/109 255/261/109
o Plane.566_Plane.818
v 0.484168 4.375737 -0.860182
v -1.933418 2.609357 -1.417293
v -0.214878 4.725612 1.064017
v -2.632465 2.959233 0.506907
v 0.000554 4.851656 -0.001524
v -2.417033 3.085277 -0.558635
v -0.808856 3.681612 -1.203715
v -1.507902 4.031487 0.720484
v -1.292470 4.157531 -0.345057
vt 0.363069 0.500000
vt 0.363069 0.999915
vt 0.000085 0.999915
vt 0.000085 0.500000
vt 0.726052 0.500000
vt 0.726052 0.999915
vt 0.726052 0.000085
vt 0.363069 0.000085
vt 0.000085 0.000085
vn -0.6839 0.7277 -0.0522
vn -0.4790 0.6251 -0.6163
vn -0.2622 0.7738 -0.5766
vn -0.4746 0.8801 0.0081
usemtl Material.573
s off
f 270/262/110 267/263/110 265/264/110 269/265/110
f 268/266/111 263/267/111 267/263/111 270/262/111
f 262/268/112 268/266/112 270/262/112 266/269/112
f 266/269/113 270/262/113 269/265/113 264/270/113
o Plane.568_Plane.820
v -0.914255 3.611296 -0.477978
v -2.083901 2.157459 1.708550
v 0.876383 3.177283 0.191315
v -0.293263 1.723446 2.377843
v -0.001418 3.686780 -0.000530
v -1.171064 2.232943 2.185999
v -1.488074 3.068108 0.704988
v 0.302564 2.634095 1.374281
v -0.575237 3.143592 1.182436
vt 0.363069 0.500000
vt 0.363069 0.999915
vt 0.000085 0.999915
vt 0.000085 0.500000
vt 0.726052 0.500000
vt 0.726052 0.999915
vt 0.726052 0.000085
vt 0.363069 0.000085
vt 0.000085 0.000085
vn 0.2210 0.6534 0.7241
vn -0.3352 0.7882 0.5162
vn -0.2373 0.9213 0.3080
vn 0.3393 0.7816 0.5235
usemtl Material.575
s off
f 279/271/114 276/272/114 274/273/114 278/274/114
f 277/275/115 272/276/115 276/272/115 279/271/115
f 271/277/116 277/275/116 279/271/116 275/278/116
f 275/278/117 279/271/117 278/274/117 273/279/117
o Plane.571_Plane.823
v -0.525651 2.920363 -0.641784
v -1.708996 1.453258 1.171381
v 0.782966 3.290905 0.512092
v -0.400379 1.823800 2.325258
v -0.001036 3.364578 -0.000914
v -1.184381 1.897473 1.812252
v -1.198791 2.349468 0.304958
v 0.109825 2.720011 1.458834
v -0.674177 2.793684 0.945828
vt 0.363069 0.500000
vt 0.363069 0.999915
vt 0.000085 0.999915
vt 0.000085 0.500000
vt 0.726052 0.500000
vt 0.726052 0.999915
vt 0.726052 0.000085
vt 0.363069 0.000085
vt 0.000085 0.000085
vn -0.3140 0.7462 0.5870
vn -0.7607 0.6197 0.1931
vn -0.6465 0.7629 0.0004
vn -0.1834 0.8940 0.4087
usemtl Material.578
s off
f 288/280/118 285/281/118 283/282/118 287/283/118
f 286/284/119 281/285/119 285/281/119 288/280/119
f 280/286/120 286/284/120 288/280/120 284/287/120
f 284/287/121 288/280/121 287/283/121 282/288/121
o Plane.573_Plane.825
v 0.566973 2.730333 -0.641058
v -1.411898 1.359834 -1.701239
v -0.411110 2.998035 0.838514
v -2.389981 1.627537 -0.221667
v 0.000775 3.134422 -0.001172
v -1.978096 1.763923 -1.061353
v -0.470929 2.214836 -1.233901
v -1.449012 2.482538 0.245671
v -1.037128 2.618925 -0.594016
vt 0.363069 0.500000
vt 0.363069 0.999915
vt 0.000085 0.999915
vt 0.000085 0.500000
vt 0.726052 0.500000
vt 0.726052 0.999915
vt 0.726052 0.000085
vt 0.363069 0.000085
vt 0.000085 0.000085
vn -0.6129 0.7704 -0.1755
vn -0.2809 0.6796 -0.6777
vn -0.0734 0.8126 -0.5781
vn -0.4175 0.9068 -0.0575
usemtl Material.580
s off
f 297/289/122 294/290/122 292/291/122 296/292/122
f 295/293/123 290/294/123 294/290/123 297/289/123
f 289/295/124 295/293/124 297/289/124 293/296/124
f 293/296/125 297/289/125 296/292/125 291/297/125
o Plane.574_Plane.826
v 0.344465 2.847116 -0.789194
v -1.773390 2.004221 -1.655144
v -0.211881 2.648115 0.765163
v -2.329736 1.805221 -0.100787
v 0.000441 3.015950 -0.001231
v -2.117414 2.173055 -0.867181
v -0.755828 2.594225 -1.215395
v -1.312173 2.395225 0.338963
v -1.099852 2.763059 -0.427432
vt 0.363069 0.500000
vt 0.363069 0.999915
vt 0.000085 0.999915
vt 0.000085 0.500000
vt 0.726052 0.500000
vt 0.726052 0.999915
vt 0.726052 0.000085
vt 0.363069 0.000085
vt 0.000085 0.000085
vn -0.5601 0.7967 0.2272
vn -0.3564 0.8695 -0.3419
vn -0.1204 0.9586 -0.2580
vn -0.3316 0.8831 0.3320
usemtl Material.581
s off
f 306/298/126 303/299/126 301/300/126 305/301/126
f 304/302/127 299/303/127 303/299/127 306/298/127
f 298/304/128 304/302/128 306/298/128 302/305/128
f 302/305/129 306/298/129 305/301/129 300/306/129
o Plane.575_Plane.827
v 0.767837 2.963078 0.221766
v 1.008469 1.273965 -1.246521
v -0.758439 2.840822 0.112273
v -0.517807 1.151709 -1.356013
v 0.001209 3.095023 0.000087
v 0.241841 1.405909 -1.468200
v 0.885961 2.239802 -0.617238
v -0.640315 2.117546 -0.726730
v 0.119333 2.371746 -0.838916
vt 0.363069 0.500000
vt 0.363069 0.999915
vt 0.000085 0.999915
vt 0.000085 0.500000
vt 0.726052 0.500000
vt 0.726052 0.999915
vt 0.726052 0.000085
vt 0.363069 0.000085
vt 0.000085 0.000085
vn -0.2872 0.4970 -0.8188
vn 0.3181 0.5455 -0.7754
vn 0.3008 0.7429 -0.5981
vn -0.3267 0.6926 -0.6431
usemtl Material.582
s off
f 315/307/130 312/308/130 310/309/130 314/310/130
f 313/311/131 308/312/131 312/308/131 315/307/131
f 307/313/132 313/311/132 315/307/132 311/314/132
f 311/314/133 315/307/133 314/310/133 309/315/133
o Plane.576_Plane.828
v -0.682505 2.922313 -0.217127
v -1.103020 2.169233 1.739103
v 0.732816 3.011555 0.121469
v 0.312301 2.258474 2.077698
v -0.001121 3.203206 -0.000268
v -0.421636 2.450125 1.955961
v -0.909268 2.694189 0.790864
v 0.506053 2.783431 1.129459
v -0.227884 2.975081 1.007722
vt 0.363069 0.500000
vt 0.363069 0.999915
vt 0.000085 0.999915
vt 0.000085 0.500000
vt 0.726052 0.500000
vt 0.726052 0.999915
vt 0.726052 0.000085
vt 0.363069 0.000085
vt 0.000085 0.000085
vn 0.1398 0.8539 0.5013
vn -0.4512 0.8166 0.3599
vn -0.4092 0.9054 0.1129
vn 0.2035 0.9441 0.2594
usemtl Material.583
s off
f 324/316/134 321/317/134 319/318/134 323/319/134
f 322/320/135 317/321/135 321/317/135 324/316/135
f 316/322/136 322/320/136 324/316/136 320/323/136
f 320/323/137 324/316/137 323/319/137 318/324/137
