# Blender v3.2.0 OBJ File: 'trees.blend'
# www.blender.org
mtllib Pine Trunk 1.mtl
o Sphere
v -0.047447 3.932196 -0.272224
v -0.115858 4.330477 -0.307312
v 0.095988 4.159256 -0.395711
v 0.211216 4.215095 -0.139557
vt 0.500000 0.000000
vt 0.666667 0.333333
vt 0.333333 0.333333
vt 0.166667 0.000000
vt 0.000000 0.333333
vt 0.833333 0.000000
vt 1.000000 0.333333
vn -0.4871 -0.1593 -0.8587
vn 0.4768 0.7895 -0.3866
vn -0.4564 0.0000 0.8898
vn 0.7688 -0.6024 -0.2145
usemtl None
s off
f 3/1/1 1/2/1 2/3/1
f 3/4/2 2/3/2 4/5/2
f 2/3/3 1/2/3 4/5/3
f 3/6/4 4/7/4 1/2/4
o Sphere.001
v -0.247773 4.779201 -0.093545
v -0.289985 5.065318 -0.045687
v -0.357142 4.940681 -0.257598
v -0.104974 4.977525 -0.255444
vt 0.500000 0.000000
vt 0.666667 0.333333
vt 0.333333 0.333333
vt 0.166667 0.000000
vt 0.000000 0.333333
vt 0.833333 0.000000
vt 1.000000 0.333333
vn -0.8944 -0.1989 0.4005
vn -0.1234 0.8720 -0.4738
vn 0.7500 0.0000 0.6615
vn 0.1046 -0.6730 -0.7322
usemtl None
s off
f 7/8/5 5/9/5 6/10/5
f 7/11/6 6/10/6 8/12/6
f 6/10/7 5/9/7 8/12/7
f 7/13/8 8/14/8 5/9/8
o Cylinder.001
v 0.334604 4.409258 0.083392
v 0.203591 4.417222 0.079572
v 0.329328 4.303081 0.043013
v 0.198314 4.311045 0.039193
v 0.336762 4.390927 -0.028818
v 0.205748 4.398890 -0.032638
v 0.512436 4.511610 -0.013276
v 0.510055 4.446498 -0.067369
v 0.515727 4.525734 -0.096708
v 0.826902 4.644883 -0.024001
v 0.825798 4.614673 -0.049098
v 0.828429 4.651436 -0.062711
vt 1.000000 0.500000
vt 1.000000 1.000000
vt 0.666667 1.000000
vt 0.666667 0.500000
vt 0.333333 1.000000
vt 0.333333 0.500000
vt 0.457846 0.130000
vt 0.250000 0.490000
vt 0.042154 0.130000
vt -0.000000 1.000000
vt -0.000000 0.500000
vt -0.000000 0.500000
vt 0.333333 0.500000
vt -0.000000 0.500000
vt 0.333333 0.500000
vt 0.666667 0.500000
vt 1.000000 0.500000
vt 0.750000 0.490000
vt 0.957846 0.130000
vt 0.542154 0.130000
vt 0.666667 0.500000
vt 1.000000 0.500000
vn -0.0487 -0.3529 0.9344
vn -0.0158 -0.6321 -0.7747
vn -0.9977 0.0606 -0.0291
vn 0.0645 0.9851 -0.1597
vn -0.5639 0.8252 -0.0335
vn -0.3824 0.9134 0.1396
vn -0.0248 -0.5164 -0.8560
vn 0.6463 -0.3905 0.6556
vn 0.9977 -0.0606 0.0291
vn 0.2399 -0.3522 -0.9047
vn 0.2870 -0.6183 0.7316
usemtl None
s off
f 9/15/9 10/16/9 12/17/9 11/18/9
f 11/18/10 12/17/10 14/19/10 13/20/10
f 12/21/11 10/22/11 14/23/11
f 13/20/12 14/19/12 10/24/12 9/25/12
f 13/20/13 9/25/13 15/26/13 17/27/13
f 17/27/14 15/26/14 18/28/14 20/29/14
f 11/18/15 13/20/15 17/27/15 16/30/15
f 9/15/16 11/18/16 16/30/16 15/31/16
f 18/32/17 19/33/17 20/34/17
f 16/30/18 17/27/18 20/29/18 19/35/18
f 15/31/19 16/30/19 19/35/19 18/36/19
o Cylinder.002
v -0.392648 4.659041 0.143165
v -0.308726 4.561299 0.052691
v -0.322811 4.601686 0.212194
v -0.227689 4.535286 0.128111
v -0.315701 4.714983 0.205467
v -0.245869 4.643792 0.099337
v -0.565724 4.744878 0.303713
v -0.527243 4.698388 0.343468
v -0.513620 4.769248 0.347461
vt 1.000000 0.500000
vt 1.000000 1.000000
vt 0.666667 1.000000
vt 0.666667 0.500000
vt 0.333333 1.000000
vt 0.333333 0.500000
vt 0.457846 0.130000
vt 0.250000 0.490000
vt 0.042154 0.130000
vt -0.000000 1.000000
vt -0.000000 0.500000
vt -0.000000 0.500000
vt 0.333333 0.500000
vt 0.666667 0.500000
vt 1.000000 0.500000
vn -0.5845 -0.7974 0.1503
vn 0.7947 0.1344 0.5919
vn 0.6639 -0.0858 -0.7429
vn -0.1384 0.6951 -0.7055
vn -0.1022 0.8489 -0.5185
vn 0.5484 -0.0493 0.8347
vn -0.5548 -0.8038 -0.2149
vn -0.6639 0.0858 0.7429
usemtl None
s off
f 21/37/20 22/38/20 24/39/20 23/40/20
f 23/40/21 24/39/21 26/41/21 25/42/21
f 24/43/22 22/44/22 26/45/22
f 25/42/23 26/41/23 22/46/23 21/47/23
f 25/42/24 21/47/24 27/48/24 29/49/24
f 23/40/25 25/42/25 29/49/25 28/50/25
f 21/37/26 23/40/26 28/50/26 27/51/26
f 29/49/27 27/51/27 28/50/27
o Cylinder.003
v 0.245203 3.476984 -0.345352
v 0.164463 3.453969 -0.193887
v 0.177330 3.351621 -0.388336
v 0.072487 3.351472 -0.250501
v 0.116942 3.483826 -0.420670
v 0.040967 3.496215 -0.265542
v 0.392117 3.662024 -0.510318
v 0.315758 3.596192 -0.556854
v 0.303971 3.706524 -0.561115
vt 1.000000 0.500000
vt 1.000000 1.000000
vt 0.666667 1.000000
vt 0.666667 0.500000
vt 0.333333 1.000000
vt 0.333333 0.500000
vt 0.457846 0.130000
vt 0.250000 0.490000
vt 0.042154 0.130000
vt -0.000000 1.000000
vt -0.000000 0.500000
vt -0.000000 0.500000
vt 0.333333 0.500000
vt 1.000000 0.500000
vt 0.666667 0.500000
vn 0.6712 -0.6368 0.3796
vn -0.8039 -0.3491 -0.4816
vn -0.5071 -0.0209 0.8616
vn 0.1327 0.9859 0.1020
vn -0.2303 0.6971 0.6789
vn 0.5071 0.0209 -0.8616
vn -0.4409 -0.2608 -0.8588
vn 0.8100 -0.5835 -0.0587
usemtl None
s off
f 30/52/28 31/53/28 33/54/28 32/55/28
f 32/55/29 33/54/29 35/56/29 34/57/29
f 33/58/30 31/59/30 35/60/30
f 34/57/31 35/56/31 31/61/31 30/62/31
f 34/57/32 30/62/32 36/63/32 38/64/32
f 36/65/33 37/66/33 38/64/33
f 32/55/34 34/57/34 38/64/34 37/66/34
f 30/52/35 32/55/35 37/66/35 36/65/35
o Cylinder
v 0.149861 -0.190340 -0.632620
v 0.516027 -0.210601 -0.026771
v 0.097883 -0.159291 0.525478
v -0.661240 -0.309010 0.414820
v -0.600508 -0.183720 -0.382704
v -0.000000 20.000000 0.000000
v -0.006947 0.053717 -0.538762
v 0.360438 0.068016 -0.160807
v 0.210622 0.064138 0.416350
v -0.457451 0.072245 0.429110
v -0.492258 0.156685 -0.191415
v -0.151263 0.446252 -0.425189
v 0.315619 0.354187 -0.242597
v 0.286238 0.400910 0.257857
v -0.198802 0.474388 0.384563
v -0.469192 0.437133 -0.037582
v -0.398846 -0.663750 -0.888718
v 0.584736 -0.679086 -0.641080
v 0.712108 -0.715486 0.543525
v -1.093726 -0.676692 -0.014988
v -0.335455 -0.709239 0.844864
vt 0.600000 0.875000
vt 0.400000 1.000000
vt 0.400000 0.875000
vt 0.200000 1.000000
vt 0.200000 0.875000
vt 0.800000 1.000000
vt 0.800000 0.875000
vt 1.000000 0.875000
vt 0.600000 1.000000
vt 0.200000 0.500000
vt 0.200000 0.750000
vt 0.000000 0.750000
vt 0.000000 0.500000
vt 0.400000 0.500000
vt 0.400000 0.750000
vt 0.600000 0.500000
vt 0.600000 0.750000
vt 0.800000 0.500000
vt 0.800000 0.750000
vt 1.000000 0.500000
vt 1.000000 0.750000
vt 0.000000 0.875000
vt 0.000000 1.000000
vt 0.700000 0.500000
vt 0.900000 0.500000
vt 0.500000 0.500000
vt 0.100000 0.500000
vt 0.300000 0.500000
vt 1.000000 0.500000
vn 0.2550 0.0164 0.9668
vn -0.8427 0.0192 0.5381
vn 0.3671 0.0174 -0.9300
vn 0.9982 0.0153 0.0572
vn -0.3747 0.3812 -0.8452
vn -0.9213 0.3868 0.0404
vn -0.0867 0.1985 0.9763
vn 0.8628 0.2781 0.4222
vn 0.7365 0.3982 -0.5468
vn -0.6534 0.1749 -0.7365
vn -0.9026 0.3278 0.2790
vn 0.1319 0.2067 0.9695
vn 0.9864 0.0143 0.1635
vn 0.5595 0.1937 -0.8059
vn -0.7733 0.0198 -0.6338
vn -0.9595 -0.2653 0.0950
vn -0.2636 -0.3206 -0.9098
vn -0.2329 0.6575 -0.7166
vn 0.6094 0.6859 0.3977
vn 0.6837 0.6151 -0.3926
vn -0.6818 0.7288 0.0626
vn 0.7440 -0.1036 -0.6601
vn -0.2409 -0.2307 0.9427
vn 0.7469 -0.3076 0.5895
vn -0.2314 0.6185 0.7509
vn 0.0167 -0.9994 -0.0309
usemtl None
s off
f 52/67/36 44/68/36 53/69/36
f 53/69/37 44/70/37 54/71/37
f 44/72/38 51/73/38 50/74/38
f 51/73/39 44/75/39 52/67/39
f 43/76/40 49/77/40 45/78/40 39/79/40
f 42/80/41 48/81/41 49/77/41 43/76/41
f 41/82/42 47/83/42 48/81/42 42/80/42
f 40/84/43 46/85/43 47/83/43 41/82/43
f 39/86/44 45/87/44 46/85/44 40/84/44
f 49/77/45 54/71/45 50/88/45 45/78/45
f 48/81/46 53/69/46 54/71/46 49/77/46
f 47/83/47 52/67/47 53/69/47 48/81/47
f 46/85/48 51/73/48 52/67/48 47/83/48
f 45/87/49 50/74/49 51/73/49 46/85/49
f 54/71/50 44/89/50 50/88/50
f 57/90/51 40/84/51 56/91/51
f 41/82/52 57/90/52 59/92/52
f 43/76/53 39/79/53 55/93/53
f 40/84/54 41/82/54 57/90/54
f 39/86/55 40/84/55 56/91/55
f 42/80/56 43/76/56 58/94/56
f 58/94/57 42/80/57 59/92/57
f 39/79/58 55/93/58 56/91/58
f 43/76/59 58/94/59 55/93/59
f 41/82/60 42/80/60 59/92/60
f 40/84/61 57/90/61 41/82/61 59/92/61 42/80/61 58/94/61 43/76/61 55/95/61 39/86/61 56/91/61
