# Blender v3.2.0 OBJ File: 'trees.blend'
# www.blender.org
mtllib Spruce Small 1 Trunk.mtl
o Cylinder.069
v 0.170843 -0.301877 -0.174839
v 0.156929 -0.303945 0.162830
v -0.157729 -0.285750 0.230465
v -0.369829 -0.285694 0.010452
v -0.190651 -0.301616 -0.301485
v -0.000000 8.000000 0.000000
v 0.053526 -0.137779 -0.186644
v 0.158430 -0.137753 0.057012
v -0.021616 -0.115471 0.241075
v -0.318688 -0.117049 0.066182
v -0.221697 -0.112587 -0.186889
v -0.062277 0.090017 -0.167850
v 0.095705 0.078142 -0.069454
v 0.056162 0.079650 0.114133
v -0.132231 0.107263 0.130049
v -0.219359 0.128583 -0.048256
vt 0.600000 0.875000
vt 0.400000 1.000000
vt 0.400000 0.875000
vt 0.200000 1.000000
vt 0.200000 0.875000
vt 0.800000 1.000000
vt 0.800000 0.875000
vt 1.000000 0.875000
vt 0.600000 1.000000
vt 0.200000 0.500000
vt 0.200000 0.750000
vt 0.000000 0.750000
vt 0.000000 0.500000
vt 0.400000 0.500000
vt 0.400000 0.750000
vt 0.600000 0.500000
vt 0.600000 0.750000
vt 0.800000 0.500000
vt 0.800000 0.750000
vt 1.000000 0.500000
vt 1.000000 0.750000
vt 0.000000 0.875000
vt 0.000000 1.000000
vn 0.0863 0.0150 0.9962
vn -0.8972 0.0223 0.4411
vn 0.5294 0.0138 -0.8483
vn 0.9775 0.0100 0.2105
vn 0.1965 0.3493 -0.9162
vn -0.8672 0.2530 -0.4290
vn -0.6031 0.1811 0.7769
vn 0.4567 0.0643 0.8873
vn 0.9486 0.2801 -0.1475
vn -0.2207 0.2620 -0.9395
vn -0.9269 0.3754 0.0012
vn -0.2804 0.3131 0.9074
vn 0.8350 0.2663 0.4815
vn 0.7841 0.1707 -0.5967
vn -0.6022 0.0217 -0.7980
usemtl None
s off
f 14/1/1 6/2/1 15/3/1
f 15/3/2 6/4/2 16/5/2
f 6/6/3 13/7/3 12/8/3
f 13/7/4 6/9/4 14/1/4
f 5/10/5 11/11/5 7/12/5 1/13/5
f 4/14/6 10/15/6 11/11/6 5/10/6
f 3/16/7 9/17/7 10/15/7 4/14/7
f 2/18/8 8/19/8 9/17/8 3/16/8
f 1/20/9 7/21/9 8/19/9 2/18/9
f 11/11/10 16/5/10 12/22/10 7/12/10
f 10/15/11 15/3/11 16/5/11 11/11/11
f 9/17/12 14/1/12 15/3/12 10/15/12
f 8/19/13 13/7/13 14/1/13 9/17/13
f 7/21/14 12/8/14 13/7/14 8/19/14
f 16/5/15 6/23/15 12/22/15
