# Blender v3.2.0 OBJ File: 'trees.blend'
# www.blender.org
mtllib Spruce Medium 3 Trunk.mtl
o Cylinder.054
v 0.204140 3.518107 0.040858
v 0.070384 3.527652 0.033608
v 0.191469 3.439294 0.008731
v 0.072412 3.422249 -0.009028
v 0.200636 3.506419 -0.044321
v 0.071173 3.511877 -0.079008
v 0.373394 3.508806 -0.015472
v 0.371443 3.455461 -0.059789
v 0.376090 3.520377 -0.083826
v 0.522010 3.574838 -0.049019
v 0.524539 3.550051 -0.067792
v 0.510476 3.575966 -0.077983
vt 1.000000 0.500000
vt 1.000000 1.000000
vt 0.666667 1.000000
vt 0.666667 0.500000
vt 0.333333 1.000000
vt 0.333333 0.500000
vt 0.457846 0.130000
vt 0.250000 0.490000
vt 0.042154 0.130000
vt -0.000000 1.000000
vt -0.000000 0.500000
vt -0.000000 0.500000
vt 0.333333 0.500000
vt -0.000000 0.500000
vt 0.333333 0.500000
vt 0.666667 0.500000
vt 1.000000 0.500000
vt 0.750000 0.490000
vt 0.957846 0.130000
vt 0.542154 0.130000
vt 0.666667 0.500000
vt 1.000000 0.500000
vn -0.0805 -0.3708 0.9252
vn 0.1905 -0.6120 -0.7675
vn -0.9998 -0.0174 -0.0046
vn 0.0783 0.9873 -0.1382
vn -0.0137 0.9999 -0.0007
vn -0.3774 0.9132 0.1534
vn -0.2188 -0.4748 -0.8525
vn 0.2998 -0.5023 0.8110
vn 0.8769 0.3438 -0.3358
vn 0.1667 -0.3325 -0.9282
vn 0.4033 -0.5731 0.7134
usemtl None
s off
f 1/1/1 2/2/1 4/3/1 3/4/1
f 3/4/2 4/3/2 6/5/2 5/6/2
f 4/7/3 2/8/3 6/9/3
f 5/6/4 6/5/4 2/10/4 1/11/4
f 5/6/5 1/11/5 7/12/5 9/13/5
f 9/13/6 7/12/6 10/14/6 12/15/6
f 3/4/7 5/6/7 9/13/7 8/16/7
f 1/1/8 3/4/8 8/16/8 7/17/8
f 10/18/9 11/19/9 12/20/9
f 8/16/10 9/13/10 12/15/10 11/21/10
f 7/17/11 8/16/11 11/21/11 10/22/11
o Cylinder.055
v -0.036909 3.198709 0.253931
v -0.069471 3.115128 0.135087
v 0.012630 3.164009 0.242366
v 0.001268 3.087677 0.086518
v 0.016480 3.225359 0.238723
v -0.015111 3.175707 0.096465
v 0.009415 3.296898 0.380197
v 0.033793 3.283829 0.381069
v 0.030661 3.306223 0.365116
vt 1.000000 0.500000
vt 1.000000 1.000000
vt 0.666667 1.000000
vt 0.666667 0.500000
vt 0.333333 1.000000
vt 0.333333 0.500000
vt 0.457846 0.130000
vt 0.250000 0.490000
vt 0.042154 0.130000
vt -0.000000 1.000000
vt -0.000000 0.500000
vt -0.000000 0.500000
vt 0.333333 0.500000
vt 0.666667 0.500000
vt 1.000000 0.500000
vn -0.1752 -0.8384 0.5161
vn 0.9797 0.0897 -0.1791
vn -0.5694 -0.0131 -0.8219
vn -0.6745 0.7114 -0.1973
vn -0.5251 0.7486 -0.4048
vn 0.9937 -0.0336 -0.1071
vn -0.3455 -0.6796 0.6471
vn 0.2849 0.5823 0.7614
usemtl None
s off
f 13/23/12 14/24/12 16/25/12 15/26/12
f 15/26/13 16/25/13 18/27/13 17/28/13
f 16/29/14 14/30/14 18/31/14
f 17/28/15 18/27/15 14/32/15 13/33/15
f 17/28/16 13/33/16 19/34/16 21/35/16
f 15/26/17 17/28/17 21/35/17 20/36/17
f 13/23/18 15/26/18 20/36/18 19/37/18
f 21/35/19 19/37/19 20/36/19
o Cylinder.056
v -0.003079 2.117660 -0.298517
v -0.006215 2.115021 -0.142193
v -0.052866 2.076526 -0.301425
v -0.097864 2.068704 -0.162524
v -0.063095 2.140106 -0.307088
v -0.088972 2.177708 -0.169154
v 0.042494 2.098580 -0.442208
v 0.016156 2.068035 -0.454279
v 0.006257 2.108351 -0.461281
vt 1.000000 0.500000
vt 1.000000 1.000000
vt 0.666667 1.000000
vt 0.666667 0.500000
vt 0.333333 1.000000
vt 0.333333 0.500000
vt 0.457846 0.130000
vt 0.250000 0.490000
vt 0.042154 0.130000
vt -0.000000 1.000000
vt -0.000000 0.500000
vt -0.000000 0.500000
vt 0.333333 0.500000
vt 1.000000 0.500000
vt 0.666667 0.500000
vn 0.5187 -0.8533 0.0543
vn -0.9691 -0.0250 -0.2454
vn -0.2539 0.0793 0.9640
vn 0.5207 0.8523 -0.0499
vn 0.3263 0.9446 -0.0353
vn 0.4564 -0.0423 -0.8888
vn -0.8998 -0.2202 -0.3766
vn 0.6198 -0.7223 0.3067
usemtl None
s off
f 22/38/20 23/39/20 25/40/20 24/41/20
f 24/41/21 25/40/21 27/42/21 26/43/21
f 25/44/22 23/45/22 27/46/22
f 26/43/23 27/42/23 23/47/23 22/48/23
f 26/43/24 22/48/24 28/49/24 30/50/24
f 28/51/25 29/52/25 30/50/25
f 24/41/26 26/43/26 30/50/26 29/52/26
f 22/38/27 24/41/27 29/52/27 28/51/27
o Cylinder.057
v -0.233232 6.823881 -0.196971
v -0.116297 6.836856 -0.038190
v -0.268216 6.905490 -0.158571
v -0.140824 6.958216 -0.005856
v -0.208301 6.909524 -0.234415
v -0.062548 6.932668 -0.103813
v -0.371152 6.813023 -0.378976
v -0.397672 6.863864 -0.345844
v -0.362496 6.874928 -0.400855
v -0.562205 6.928531 -0.547861
v -0.569842 6.952903 -0.521483
v -0.543490 6.960067 -0.546026
vt 1.000000 0.500000
vt 1.000000 1.000000
vt 0.666667 1.000000
vt 0.666667 0.500000
vt 0.333333 1.000000
vt 0.333333 0.500000
vt 0.457846 0.130000
vt 0.250000 0.490000
vt 0.042154 0.130000
vt -0.000000 1.000000
vt -0.000000 0.500000
vt -0.000000 0.500000
vt 0.333333 0.500000
vt -0.000000 0.500000
vt 0.333333 0.500000
vt 0.666667 0.500000
vt 1.000000 0.500000
vt 1.000000 0.500000
vt 0.666667 0.500000
vn -0.6730 -0.4115 0.6146
vn -0.0802 0.9795 -0.1850
vn 0.7800 -0.0091 0.6257
vn 0.6427 -0.5697 -0.5123
vn 0.7297 -0.3915 -0.5606
vn 0.5045 -0.3198 -0.8020
vn -0.2114 0.9765 -0.0409
vn -0.6213 -0.5756 0.5317
vn -0.6742 0.4348 -0.5970
vn 0.1557 0.9298 0.3335
vn -0.6979 -0.6117 0.3726
usemtl None
s off
f 31/53/28 32/54/28 34/55/28 33/56/28
f 33/56/29 34/55/29 36/57/29 35/58/29
f 34/59/30 32/60/30 36/61/30
f 35/58/31 36/57/31 32/62/31 31/63/31
f 35/58/32 31/63/32 37/64/32 39/65/32
f 39/65/33 37/64/33 40/66/33 42/67/33
f 33/56/34 35/58/34 39/65/34 38/68/34
f 31/53/35 33/56/35 38/68/35 37/69/35
f 40/70/36 41/71/36 42/67/36
f 38/68/37 39/65/37 42/67/37 41/71/37
f 37/69/38 38/68/38 41/71/38 40/70/38
o Cylinder.058
v -0.027017 2.246995 0.288564
v -0.062560 2.190714 0.143237
v 0.027480 2.240173 0.242435
v 0.010535 2.163969 0.107310
v 0.004329 2.305414 0.261195
v -0.008767 2.247490 0.108143
v -0.042072 2.359453 0.391024
v 0.001394 2.340871 0.399515
v -0.002964 2.380521 0.372763
v -0.023234 2.483670 0.455827
v 0.001895 2.472889 0.463177
v 0.000300 2.499052 0.452467
vt 1.000000 0.500000
vt 1.000000 1.000000
vt 0.666667 1.000000
vt 0.666667 0.500000
vt 0.333333 1.000000
vt 0.333333 0.500000
vt 0.457846 0.130000
vt 0.250000 0.490000
vt 0.042154 0.130000
vt -0.000000 1.000000
vt -0.000000 0.500000
vt -0.000000 0.500000
vt 0.333333 0.500000
vt 0.666667 0.500000
vt 1.000000 0.500000
vt -0.000000 0.500000
vt 0.333333 0.500000
vt 1.000000 0.500000
vt 0.666667 0.500000
vn 0.0329 -0.9061 0.4219
vn 0.9264 0.2952 -0.2339
vn -0.4680 -0.0994 -0.8781
vn -0.8222 0.5634 -0.0816
vn -0.7794 0.4286 -0.4570
vn 0.9672 0.2503 -0.0437
vn 0.0460 -0.7684 0.6383
vn -0.5201 0.4714 -0.7123
vn -0.1106 0.3707 0.9221
vn 0.9950 0.0377 -0.0920
vn -0.3640 -0.3953 0.8433
usemtl None
s off
f 43/72/39 44/73/39 46/74/39 45/75/39
f 45/75/40 46/74/40 48/76/40 47/77/40
f 46/78/41 44/79/41 48/80/41
f 47/77/42 48/76/42 44/81/42 43/82/42
f 47/77/43 43/82/43 49/83/43 51/84/43
f 45/75/44 47/77/44 51/84/44 50/85/44
f 43/72/45 45/75/45 50/85/45 49/86/45
f 51/84/46 49/83/46 52/87/46 54/88/46
f 54/88/47 52/89/47 53/90/47
f 50/85/48 51/84/48 54/88/48 53/90/48
f 49/86/49 50/85/49 53/90/49 52/89/49
o Cylinder.060
v 0.170592 5.260944 0.038022
v 0.064475 5.311111 0.055942
v 0.167873 5.206230 0.017214
v 0.066503 5.205707 0.013306
v 0.171704 5.251498 -0.019801
v 0.065264 5.295335 -0.056674
v 0.332438 5.276397 0.006521
v 0.331116 5.240220 -0.023534
v 0.334267 5.284244 -0.039835
v 0.413507 5.345148 0.003640
v 0.426454 5.324838 -0.011263
v 0.414534 5.346789 -0.024617
vt 1.000000 0.500000
vt 1.000000 1.000000
vt 0.666667 1.000000
vt 0.666667 0.500000
vt 0.333333 1.000000
vt 0.333333 0.500000
vt 0.457846 0.130000
vt 0.250000 0.490000
vt 0.042154 0.130000
vt -0.000000 1.000000
vt -0.000000 0.500000
vt -0.000000 0.500000
vt 0.333333 0.500000
vt -0.000000 0.500000
vt 0.333333 0.500000
vt 0.666667 0.500000
vt 1.000000 0.500000
vt 0.750000 0.490000
vt 0.957846 0.130000
vt 0.542154 0.130000
vt 0.666667 0.500000
vt 1.000000 0.500000
vn -0.0253 -0.3682 0.9294
vn 0.0241 -0.6215 -0.7830
vn -0.9998 -0.0174 -0.0046
vn 0.4107 0.9026 -0.1290
vn -0.1499 0.9885 -0.0194
vn -0.6329 0.7707 0.0738
vn -0.0561 -0.5086 -0.8592
vn 0.2593 -0.4804 0.8379
vn 0.8613 0.5046 0.0606
vn 0.4086 -0.3285 -0.8516
vn 0.4082 -0.5156 0.7534
usemtl None
s off
f 55/91/50 56/92/50 58/93/50 57/94/50
f 57/94/51 58/93/51 60/95/51 59/96/51
f 58/97/52 56/98/52 60/99/52
f 59/96/53 60/95/53 56/100/53 55/101/53
f 59/96/54 55/101/54 61/102/54 63/103/54
f 63/103/55 61/102/55 64/104/55 66/105/55
f 57/94/56 59/96/56 63/103/56 62/106/56
f 55/91/57 57/94/57 62/106/57 61/107/57
f 64/108/58 65/109/58 66/110/58
f 62/106/59 63/103/59 66/105/59 65/111/59
f 61/107/60 62/106/60 65/111/60 64/112/60
o Cylinder.061
v -0.294671 5.974201 0.064065
v -0.154483 5.928999 -0.014991
v -0.260766 5.946356 0.097578
v -0.105982 5.913656 0.054010
v -0.257314 6.001360 0.094312
v -0.126447 5.994223 0.033059
v -0.401136 6.000506 0.210468
v -0.378354 5.972983 0.234004
v -0.370289 6.014934 0.236368
v -0.532793 6.022204 0.342832
v -0.515435 6.001233 0.360765
v -0.509290 6.033196 0.362566
vt 1.000000 0.500000
vt 1.000000 1.000000
vt 0.666667 1.000000
vt 0.666667 0.500000
vt 0.333333 1.000000
vt 0.333333 0.500000
vt 0.457846 0.130000
vt 0.250000 0.490000
vt 0.042154 0.130000
vt -0.000000 1.000000
vt -0.000000 0.500000
vt -0.000000 0.500000
vt 0.333333 0.500000
vt 0.666667 0.500000
vt 1.000000 0.500000
vt -0.000000 0.500000
vt 0.333333 0.500000
vt 1.000000 0.500000
vt 0.666667 0.500000
vn -0.3093 -0.9395 -0.1472
vn 0.3624 0.2078 0.9086
vn 0.8230 0.0622 -0.5646
vn -0.2082 0.7140 -0.6685
vn -0.2750 0.9016 -0.3338
vn 0.7615 -0.0845 0.6426
vn -0.5246 -0.8093 -0.2641
vn -0.1677 0.9326 -0.3197
vn -0.6639 0.0858 0.7429
vn 0.6507 -0.1668 0.7408
vn -0.5175 -0.7617 -0.3899
usemtl None
s off
f 67/113/61 68/114/61 70/115/61 69/116/61
f 69/116/62 70/115/62 72/117/62 71/118/62
f 70/119/63 68/120/63 72/121/63
f 71/118/64 72/117/64 68/122/64 67/123/64
f 71/118/65 67/123/65 73/124/65 75/125/65
f 69/116/66 71/118/66 75/125/66 74/126/66
f 67/113/67 69/116/67 74/126/67 73/127/67
f 75/125/68 73/124/68 76/128/68 78/129/68
f 78/129/69 76/130/69 77/131/69
f 74/126/70 75/125/70 78/129/70 77/131/70
f 73/127/71 74/126/71 77/131/71 76/130/71
o Cylinder.059_Cylinder.063
v -0.229549 1.268210 -0.204377
v -0.158504 1.216786 -0.135651
v -0.236972 1.325666 -0.167905
v -0.173012 1.299909 -0.100385
v -0.197959 1.325632 -0.224159
v -0.127717 1.278891 -0.175929
v -0.332930 1.222735 -0.394171
v -0.330959 1.259643 -0.350177
v -0.300720 1.270173 -0.397888
v -0.447416 1.369939 -0.457046
v -0.453384 1.398207 -0.433715
v -0.434243 1.403723 -0.465056
vt 1.000000 0.500000
vt 1.000000 1.000000
vt 0.666667 1.000000
vt 0.666667 0.500000
vt 0.333333 1.000000
vt 0.333333 0.500000
vt 0.457846 0.130000
vt 0.250000 0.490000
vt 0.042154 0.130000
vt -0.000000 1.000000
vt -0.000000 0.500000
vt -0.000000 0.500000
vt 0.333333 0.500000
vt -0.000000 0.500000
vt 0.333333 0.500000
vt 0.666667 0.500000
vt 1.000000 0.500000
vt 1.000000 0.500000
vt 0.666667 0.500000
vn -0.7551 -0.3876 0.5287
vn 0.3980 0.9109 0.1091
vn 0.8456 -0.0766 0.5283
vn 0.2783 -0.5432 -0.7921
vn 0.7857 -0.5440 -0.2945
vn 0.2088 -0.2531 -0.9446
vn -0.3381 0.9319 -0.1311
vn -0.7052 -0.4832 0.5189
vn -0.8496 0.2173 -0.4806
vn 0.5035 0.7298 0.4626
vn -0.7964 -0.4575 0.3956
usemtl None
s off
f 79/132/72 80/133/72 82/134/72 81/135/72
f 81/135/73 82/134/73 84/136/73 83/137/73
f 82/138/74 80/139/74 84/140/74
f 83/137/75 84/136/75 80/141/75 79/142/75
f 83/137/76 79/142/76 85/143/76 87/144/76
f 87/144/77 85/143/77 88/145/77 90/146/77
f 81/135/78 83/137/78 87/144/78 86/147/78
f 79/132/79 81/135/79 86/147/79 85/148/79
f 88/149/80 89/150/80 90/146/80
f 86/147/81 87/144/81 90/146/81 89/150/81
f 85/148/82 86/147/82 89/150/82 88/149/82
o Cylinder.062_Cylinder.064
v 0.180403 1.140586 0.006498
v 0.094256 1.085633 -0.000382
v 0.177095 1.074030 -0.018814
v 0.096016 0.994178 -0.037376
v 0.181756 1.129095 -0.063840
v 0.094941 1.071945 -0.098095
v 0.381742 1.205047 -0.023779
v 0.379990 1.157111 -0.063602
v 0.384165 1.215445 -0.085202
v 0.503078 1.283540 -0.031727
v 0.505607 1.258753 -0.050499
v 0.491544 1.284667 -0.060691
vt 1.000000 0.500000
vt 1.000000 1.000000
vt 0.666667 1.000000
vt 0.666667 0.500000
vt 0.333333 1.000000
vt 0.333333 0.500000
vt 0.457846 0.130000
vt 0.250000 0.490000
vt 0.042154 0.130000
vt -0.000000 1.000000
vt -0.000000 0.500000
vt -0.000000 0.500000
vt 0.333333 0.500000
vt -0.000000 0.500000
vt 0.333333 0.500000
vt 0.666667 0.500000
vt 1.000000 0.500000
vt 0.750000 0.490000
vt 0.957846 0.130000
vt 0.542154 0.130000
vt 0.666667 0.500000
vt 1.000000 0.500000
vn 0.1535 -0.3638 0.9188
vn 0.6058 -0.5055 -0.6144
vn -0.9998 -0.0174 -0.0046
vn -0.5166 0.8458 -0.1330
vn -0.3519 0.9359 -0.0178
vn -0.5437 0.8239 0.1599
vn 0.0730 -0.5094 -0.8574
vn 0.3260 -0.4783 0.8154
vn 0.8769 0.3438 -0.3358
vn 0.3578 -0.2926 -0.8868
vn 0.4022 -0.5718 0.7150
usemtl None
s off
f 91/151/83 92/152/83 94/153/83 93/154/83
f 93/154/84 94/153/84 96/155/84 95/156/84
f 94/157/85 92/158/85 96/159/85
f 95/156/86 96/155/86 92/160/86 91/161/86
f 95/156/87 91/161/87 97/162/87 99/163/87
f 99/163/88 97/162/88 100/164/88 102/165/88
f 93/154/89 95/156/89 99/163/89 98/166/89
f 91/151/90 93/154/90 98/166/90 97/167/90
f 100/168/91 101/169/91 102/170/91
f 98/166/92 99/163/92 102/165/92 101/171/92
f 97/167/93 98/166/93 101/171/93 100/172/93
o Cylinder.053
v -0.205772 -0.375332 -0.374642
v 0.211067 -0.377980 -0.258399
v 0.256533 -0.358737 0.201633
v -0.167953 -0.382541 0.367626
v -0.469515 -0.374998 0.038879
v -0.000000 15.000000 0.000000
v -0.183338 -0.160438 -0.296956
v 0.217344 -0.164565 -0.151382
v 0.160114 -0.164314 0.164599
v -0.267515 -0.168122 0.250141
v -0.426968 -0.154360 -0.041787
v -0.153818 -0.020062 -0.232443
v 0.132031 -0.028654 -0.126496
v 0.115749 -0.017118 0.129338
v -0.125625 -0.003151 0.182121
v -0.298861 0.035618 -0.038660
vt 0.600000 0.875000
vt 0.400000 1.000000
vt 0.400000 0.875000
vt 0.200000 1.000000
vt 0.200000 0.875000
vt 0.800000 1.000000
vt 0.800000 0.875000
vt 1.000000 0.875000
vt 0.600000 1.000000
vt 0.200000 0.500000
vt 0.200000 0.750000
vt 0.000000 0.750000
vt 0.000000 0.500000
vt 0.400000 0.500000
vt 0.400000 0.750000
vt 0.600000 0.500000
vt 0.600000 0.750000
vt 0.800000 0.500000
vt 0.800000 0.750000
vt 1.000000 0.500000
vt 1.000000 0.750000
vt 0.000000 0.875000
vt 0.000000 1.000000
vn 0.2142 0.0101 0.9767
vn -0.7854 0.0141 0.6188
vn 0.3478 0.0109 -0.9375
vn 0.9980 0.0082 0.0631
vn -0.7909 0.1139 -0.6012
vn -0.7889 0.1661 0.5917
vn 0.2408 0.4420 0.8641
vn 0.9767 0.2143 0.0094
vn 0.2869 0.3631 -0.8865
vn -0.6493 0.4372 -0.6223
vn -0.6521 0.5843 0.4830
vn 0.1997 0.2510 0.9472
vn 0.9024 0.4173 0.1074
vn 0.3279 0.3501 -0.8774
vn -0.7980 0.0175 -0.6023
usemtl None
s off
f 116/173/94 108/174/94 117/175/94
f 117/175/95 108/176/95 118/177/95
f 108/178/96 115/179/96 114/180/96
f 115/179/97 108/181/97 116/173/97
f 107/182/98 113/183/98 109/184/98 103/185/98
f 106/186/99 112/187/99 113/183/99 107/182/99
f 105/188/100 111/189/100 112/187/100 106/186/100
f 104/190/101 110/191/101 111/189/101 105/188/101
f 103/192/102 109/193/102 110/191/102 104/190/102
f 113/183/103 118/177/103 114/194/103 109/184/103
f 112/187/104 117/175/104 118/177/104 113/183/104
f 111/189/105 116/173/105 117/175/105 112/187/105
f 110/191/106 115/179/106 116/173/106 111/189/106
f 109/193/107 114/180/107 115/179/107 110/191/107
f 118/177/108 108/195/108 114/194/108
