# Blender v3.2.0 OBJ File: 'trees.blend'
# www.blender.org
mtllib Spruce Medium 1 Trunk.mtl
o Cylinder.041
v 0.140752 3.493874 0.087094
v 0.047493 3.527652 0.080459
v 0.136759 3.413532 0.056540
v 0.049521 3.422249 0.037823
v 0.142385 3.480003 0.002187
v 0.048282 3.511877 -0.032157
v 0.341931 3.513342 0.054022
v 0.339981 3.459997 0.009705
v 0.344628 3.524913 -0.014332
v 0.456161 3.647411 0.093784
v 0.455203 3.621225 0.072029
v 0.457484 3.653091 0.060229
vt 1.000000 0.500000
vt 1.000000 1.000000
vt 0.666667 1.000000
vt 0.666667 0.500000
vt 0.333333 1.000000
vt 0.333333 0.500000
vt 0.457846 0.130000
vt 0.250000 0.490000
vt 0.042154 0.130000
vt -0.000000 1.000000
vt -0.000000 0.500000
vt -0.000000 0.500000
vt 0.333333 0.500000
vt -0.000000 0.500000
vt 0.333333 0.500000
vt 0.666667 0.500000
vt 1.000000 0.500000
vt 0.750000 0.490000
vt 0.957846 0.130000
vt 0.542154 0.130000
vt 0.666667 0.500000
vt 1.000000 0.500000
vn -0.2117 -0.3564 0.9100
vn 0.0884 -0.6221 -0.7779
vn -0.9998 -0.0174 -0.0046
vn 0.3538 0.9256 -0.1346
vn -0.1599 0.9869 -0.0193
vn -0.7701 0.6333 0.0768
vn -0.0191 -0.5112 -0.8593
vn 0.2448 -0.4820 0.8413
vn 0.9977 -0.0606 0.0291
vn 0.7311 -0.2823 -0.6212
vn 0.4458 -0.5816 0.6805
usemtl None
s off
f 1/1/1 2/2/1 4/3/1 3/4/1
f 3/4/2 4/3/2 6/5/2 5/6/2
f 4/7/3 2/8/3 6/9/3
f 5/6/4 6/5/4 2/10/4 1/11/4
f 5/6/5 1/11/5 7/12/5 9/13/5
f 9/13/6 7/12/6 10/14/6 12/15/6
f 3/4/7 5/6/7 9/13/7 8/16/7
f 1/1/8 3/4/8 8/16/8 7/17/8
f 10/18/9 11/19/9 12/20/9
f 8/16/10 9/13/10 12/15/10 11/21/10
f 7/17/11 8/16/11 11/21/11 10/22/11
o Cylinder.040
v -0.296200 3.121686 0.102243
v -0.147639 3.036517 0.030529
v -0.252152 3.085511 0.145781
v -0.086549 3.016907 0.087384
v -0.247668 3.156969 0.141538
v -0.100254 3.098703 0.065693
v -0.402127 3.211965 0.284732
v -0.381891 3.187517 0.305639
v -0.374726 3.224781 0.307739
vt 1.000000 0.500000
vt 1.000000 1.000000
vt 0.666667 1.000000
vt 0.666667 0.500000
vt 0.333333 1.000000
vt 0.333333 0.500000
vt 0.457846 0.130000
vt 0.250000 0.490000
vt 0.042154 0.130000
vt -0.000000 1.000000
vt -0.000000 0.500000
vt -0.000000 0.500000
vt 0.333333 0.500000
vt 0.666667 0.500000
vt 1.000000 0.500000
vn -0.4484 -0.8934 -0.0268
vn 0.4472 0.1753 0.8771
vn 0.6639 -0.0858 -0.7429
vn -0.0661 0.6460 -0.7605
vn -0.1454 0.8609 -0.4875
vn 0.7658 -0.0694 0.6393
vn -0.6648 -0.7460 -0.0386
vn -0.6639 0.0858 0.7429
usemtl None
s off
f 13/23/12 14/24/12 16/25/12 15/26/12
f 15/26/13 16/25/13 18/27/13 17/28/13
f 16/29/14 14/30/14 18/31/14
f 17/28/15 18/27/15 14/32/15 13/33/15
f 17/28/16 13/33/16 19/34/16 21/35/16
f 15/26/17 17/28/17 21/35/17 20/36/17
f 13/23/18 15/26/18 20/36/18 19/37/18
f 21/35/19 19/37/19 20/36/19
o Cylinder.039
v 0.127121 2.422714 -0.235315
v 0.060908 2.269689 -0.094656
v 0.091460 2.356847 -0.257900
v -0.009937 2.190740 -0.138264
v 0.059732 2.426309 -0.274888
v -0.034215 2.302229 -0.149850
v 0.264105 2.486751 -0.405140
v 0.251161 2.455254 -0.412290
v 0.235419 2.483738 -0.424602
vt 1.000000 0.500000
vt 1.000000 1.000000
vt 0.666667 1.000000
vt 0.666667 0.500000
vt 0.333333 1.000000
vt 0.333333 0.500000
vt 0.457846 0.130000
vt 0.250000 0.490000
vt 0.042154 0.130000
vt -0.000000 1.000000
vt -0.000000 0.500000
vt -0.000000 0.500000
vt 0.333333 0.500000
vt 1.000000 0.500000
vt 0.666667 0.500000
vn 0.8268 -0.5456 -0.1366
vn -0.5469 -0.2931 -0.7842
vn -0.5071 -0.0209 0.8616
vn -0.2105 0.7372 0.6420
vn -0.1368 0.9630 0.2322
vn 0.5641 -0.0446 -0.8245
vn -0.4729 -0.4549 -0.7546
vn 0.7477 -0.5050 0.4312
usemtl None
s off
f 22/38/20 23/39/20 25/40/20 24/41/20
f 24/41/21 25/40/21 27/42/21 26/43/21
f 25/44/22 23/45/22 27/46/22
f 26/43/23 27/42/23 23/47/23 22/48/23
f 26/43/24 22/48/24 28/49/24 30/50/24
f 28/51/25 29/52/25 30/50/25
f 24/41/26 26/43/26 30/50/26 29/52/26
f 22/38/27 24/41/27 29/52/27 28/51/27
o Cylinder.042
v 0.043956 -0.375270 -0.339437
v 0.265579 -0.377689 -0.012119
v 0.016593 -0.356407 0.270223
v -0.335859 -0.356342 0.210685
v -0.384133 -0.374965 -0.207300
v -0.000000 15.000000 0.000000
v -0.026111 -0.183333 -0.257152
v 0.202615 -0.183303 -0.047487
v 0.098762 -0.157241 0.235200
v -0.302023 -0.159086 0.191021
v -0.319863 -0.153867 -0.125476
v -0.096364 0.028514 -0.214801
v 0.130115 0.038796 -0.118320
v 0.115749 0.034303 0.129338
v -0.129568 0.039677 0.188594
v -0.281933 0.053372 -0.026190
vt 0.600000 0.875000
vt 0.400000 1.000000
vt 0.400000 0.875000
vt 0.200000 1.000000
vt 0.200000 0.875000
vt 0.800000 1.000000
vt 0.800000 0.875000
vt 1.000000 0.875000
vt 0.600000 1.000000
vt 0.200000 0.500000
vt 0.200000 0.750000
vt 0.000000 0.750000
vt 0.000000 0.500000
vt 0.400000 0.500000
vt 0.400000 0.750000
vt 0.600000 0.500000
vt 0.600000 0.750000
vt 0.800000 0.500000
vt 0.800000 0.750000
vt 1.000000 0.500000
vt 1.000000 0.750000
vt 0.000000 0.875000
vt 0.000000 1.000000
vn 0.2350 0.0102 0.9719
vn -0.8151 0.0144 0.5791
vn 0.3915 0.0107 -0.9201
vn 0.9983 0.0082 0.0581
vn -0.3092 0.3474 -0.8853
vn -0.9729 0.2157 0.0836
vn -0.1347 0.1740 0.9755
vn 0.8490 0.0526 0.5258
vn 0.7257 0.3236 -0.6072
vn -0.5211 0.2369 -0.8200
vn -0.8755 0.3835 0.2941
vn 0.0239 0.2565 0.9663
vn 0.9550 0.2154 0.2041
vn 0.5515 0.1273 -0.8244
vn -0.7118 0.0147 -0.7022
usemtl None
s off
f 44/53/28 36/54/28 45/55/28
f 45/55/29 36/56/29 46/57/29
f 36/58/30 43/59/30 42/60/30
f 43/59/31 36/61/31 44/53/31
f 35/62/32 41/63/32 37/64/32 31/65/32
f 34/66/33 40/67/33 41/63/33 35/62/33
f 33/68/34 39/69/34 40/67/34 34/66/34
f 32/70/35 38/71/35 39/69/35 33/68/35
f 31/72/36 37/73/36 38/71/36 32/70/36
f 41/63/37 46/57/37 42/74/37 37/64/37
f 40/67/38 45/55/38 46/57/38 41/63/38
f 39/69/39 44/53/39 45/55/39 40/67/39
f 38/71/40 43/59/40 44/53/40 39/69/40
f 37/73/41 42/60/41 43/59/41 38/71/41
f 46/57/42 36/75/42 42/74/42
