# Blender v3.2.0 OBJ File: 'trees.blend'
# www.blender.org
mtllib Spruce Large 3 Leaves - LOD 1.mtl
o _Joined_Plane.1078
v -1.105473 11.763681 0.685706
v 1.811087 8.931160 3.167794
v 0.806566 12.099473 -1.177820
v 3.723125 9.266951 1.304268
v -0.674069 13.479306 -1.714890
v -4.184457 11.286160 0.011677
v 0.968244 13.416028 1.543817
v -2.542144 11.222882 3.270384
v 1.197083 11.773455 -0.421718
v -0.074481 10.184285 -3.253783
v -1.045939 11.664031 0.646774
v -2.317503 10.074862 -2.185291
v 0.049176 13.395932 -1.786626
v -3.359794 11.872159 -1.547442
v 0.196125 13.634992 1.830729
v -3.212845 12.111219 2.069914
v 0.899691 12.168270 -0.527177
v -0.508098 12.402962 -3.672785
v -1.063270 12.377287 0.366924
v -2.471059 12.611979 -2.778684
v -1.438768 13.952641 0.100103
v -0.958245 12.246711 3.764802
v 1.356698 13.804332 -0.335483
v 1.837221 12.098403 3.329217
v 0.386564 13.565578 1.725396
v 4.061109 10.399868 0.196650
v -0.947946 13.567842 -1.486967
v 2.726599 10.402134 -3.015712
v 0.339175 12.794368 1.135726
v 3.204378 10.367107 -0.888654
v -0.833567 13.239964 -1.058387
v 2.031636 10.812703 -3.082767
v -1.088648 13.370405 -0.296211
v -1.478095 12.001075 2.343781
v 1.145314 13.446133 0.072618
v 0.755867 12.076803 2.712610
v 1.310697 13.184018 0.119306
v 1.506150 12.286984 -2.903916
v -1.278176 13.071018 -0.014537
v -1.082723 12.173984 -3.037760
v 0.397197 13.114327 -1.689206
v -2.895584 12.791995 -2.507720
v -0.406288 12.883640 1.633955
v -3.699069 12.561308 0.815440
v 0.663169 12.975555 -1.157447
v -2.262948 13.422246 -3.393708
v -0.971786 13.199843 1.026671
v -3.897902 13.646533 -1.209589
v 0.336891 13.407908 1.144473
v 4.227892 11.403893 -0.571443
v -0.610868 13.429900 -1.030343
v 3.280134 11.425884 -2.746259
v -0.798925 13.438448 -0.949298
v -2.848057 11.719500 1.593937
v 1.104591 13.742134 0.789660
v -0.944541 12.023185 3.332894
v -1.150168 13.963255 0.418485
v 0.163366 12.598615 2.947993
v 1.098084 14.137594 -0.654944
v 2.411618 12.772953 1.874564
v -1.015878 13.836464 0.199582
v 0.361813 11.305322 3.306087
v 0.828120 13.837850 -0.617076
v 2.205810 11.306706 2.489429
v -1.228211 13.468099 -0.849166
v -3.073164 11.372505 2.042066
v 1.301304 13.106493 0.502873
v -0.543649 11.010900 3.394104
v 0.871739 15.626456 1.014667
v 3.178590 14.856684 -0.978001
v -0.870333 15.389355 -0.910483
v 1.436518 14.619582 -2.903151
v 0.071378 14.323576 -0.879578
v -3.762670 12.278941 -0.324950
v 0.278326 14.414763 0.887185
v -3.555721 12.370129 1.441813
v 1.319707 15.115938 -0.136733
v 0.825488 14.270028 -3.489399
v -1.407492 15.355602 0.204816
v -1.901711 14.509692 -3.147849
v -1.582569 14.248566 0.138653
v -0.977197 12.655310 3.321473
v 1.573683 14.409619 -0.381046
v 2.179056 12.816364 2.801773
v -0.818272 15.073017 1.345264
v 1.656895 12.424203 2.701703
v 0.424906 14.797329 -1.461590
v 2.900074 12.148514 -0.105151
v 0.340654 15.684727 1.244418
v 3.106507 14.213718 0.130824
v -0.567432 15.824011 -1.195000
v 2.198421 14.353003 -2.308594
v -1.170985 16.040783 -0.075217
v -1.063272 14.899672 2.324800
v 1.206274 16.149426 -0.130254
v 1.313988 15.008314 2.269762
v 1.264102 15.652468 -0.278688
v 0.302372 13.506426 -3.970356
v -1.129242 15.389573 0.497638
v -2.090972 13.243530 -3.194030
v 0.055373 15.452474 -0.871242
v -3.616471 13.794757 -0.573825
v 0.163371 15.528158 0.883923
v -3.508473 13.870441 1.181340
v 0.481911 15.553091 -0.857143
v -3.062561 14.184996 -2.323233
v -0.367357 15.780661 0.983721
v -3.911829 14.412564 -0.482369
v 0.712758 16.012625 0.841109
v 2.771439 14.936611 -1.266656
v -0.862326 16.168648 -0.776946
v 1.196355 15.092634 -2.884711
v -0.410319 15.358712 -1.237996
v -4.058285 13.995338 0.128381
v 0.545003 15.128053 1.082377
v -3.102963 13.764679 2.448755
v -0.491595 15.189574 1.068958
v 1.865406 15.617010 2.493272
v 0.721106 15.442018 -1.013619
v 3.078108 15.869453 0.410696
v -0.748119 17.279371 0.536418
v 1.033015 16.219984 2.841392
v 0.582391 17.065376 -0.590068
v 2.363526 16.005991 1.714906
v -0.689677 17.151075 -0.981578
v -2.215093 16.057432 0.212109
v 0.818193 17.033613 0.837717
v -0.707222 15.939972 2.031404
v 0.484098 15.357276 1.178681
v 2.156955 13.931562 0.285346
v -0.735087 15.305236 -1.021312
v 0.937771 13.879522 -1.914646
v 0.462718 16.042305 -1.109706
v -3.062130 14.584889 -2.217709
v -0.298523 16.137218 1.187157
v -3.823372 14.679801 0.079154
v 0.239350 15.468269 -0.845758
v -2.138106 15.587799 -1.694682
v -0.355960 15.567201 0.835369
v -2.733416 15.686730 -0.013555
v 1.026037 17.059784 0.275239
v 1.609725 16.292048 -2.527497
v -1.075935 17.221470 -0.206800
v -0.492247 16.453735 -3.009536
v 0.000516 17.092339 0.788080
v 2.358419 16.452509 0.697083
v -0.067769 17.062723 -0.773076
v 2.290134 16.422892 -0.864073
v -0.372176 17.351120 0.856067
v 1.918591 16.674637 1.729709
v 0.308360 17.399357 -0.891008
v 2.599128 16.722874 -0.017365
v -0.760626 18.640284 0.032886
v -0.295665 17.520336 2.431934
v 0.768748 18.736757 -0.218486
v 1.233709 17.616808 2.180562
v 0.603095 16.982719 0.273988
v 1.367713 16.173685 -1.923784
v -0.653497 17.020926 -0.177251
v 0.111122 16.211889 -2.375023
v 0.001197 18.413918 -0.713770
v -2.277346 17.266048 -0.472551
v 0.199125 18.300531 0.616289
v -2.079419 17.152662 0.857508
v 0.679039 17.078609 -0.176120
v -0.477412 15.468766 -3.015049
v -0.525417 16.969549 0.376364
v -1.681868 15.359705 -2.462564
v 0.541286 16.272791 1.008550
v 2.279680 15.332130 -0.087380
v -0.671689 16.285231 -0.926182
v 1.066705 15.344569 -2.022112
v -0.813044 18.110498 -0.559045
v -1.724717 17.380096 1.079164
v 0.911757 18.313416 0.491288
v 0.000084 17.583014 2.129497
v -1.024709 17.887274 0.557712
v 0.333210 17.151743 2.832291
v 0.994134 17.938766 -0.630883
v 2.352054 17.203236 1.643696
v -0.332106 17.113346 0.898488
v 1.531350 17.100538 1.699403
v 0.446115 17.313585 -0.908966
v 2.309572 17.300777 -0.108050
v -0.678147 19.309916 -0.377826
v -1.625592 18.205160 1.739681
v 0.730086 19.294786 0.244372
v -0.217359 18.190029 2.361880
v 0.426351 18.937393 0.674882
v 1.976015 17.067179 -0.822991
v -0.662237 18.922272 -0.432466
v 0.887427 17.052059 -1.930338
v 0.608996 18.842628 -0.759237
v -0.949520 17.707954 -1.582936
v -0.433202 19.043556 0.935917
v -1.991718 17.908880 0.112218
v 0.027971 16.889191 -0.866611
v -2.844840 16.272263 -0.901114
v 0.023044 16.816324 0.846427
v -2.849766 16.199396 0.811924
v 0.972508 16.950993 0.152370
v 1.344064 16.679062 -1.913261
v -0.905792 16.722992 -0.155474
v -0.534236 16.451061 -2.221105
v -0.985620 17.235250 0.124874
v -0.475017 16.166073 2.816041
v 0.947613 17.200882 -0.255579
v 1.458217 16.131704 2.435588
v 0.097695 16.965700 0.707773
v 2.374887 16.017330 0.266214
v -0.218024 16.826567 -0.621617
v 2.059167 15.878198 -1.063176
vt 0.726052 0.000085
vt 0.726052 0.999915
vt 0.000085 0.999915
vt 0.000085 0.000085
vt 0.726052 0.000085
vt 0.726052 0.999915
vt 0.000085 0.999915
vt 0.000085 0.000085
vt 0.726052 0.000085
vt 0.726052 0.999915
vt 0.000085 0.999915
vt 0.000085 0.000085
vt 0.726052 0.000085
vt 0.726052 0.999915
vt 0.000085 0.999915
vt 0.000085 0.000085
vt 0.726052 0.000085
vt 0.726052 0.999915
vt 0.000085 0.999915
vt 0.000085 0.000085
vt 0.726052 0.000085
vt 0.726052 0.999915
vt 0.000085 0.999915
vt 0.000085 0.000085
vt 0.000085 0.999915
vt 0.000085 0.000085
vt 0.726052 0.000085
vt 0.726052 0.999915
vt 0.000085 0.999915
vt 0.000085 0.000085
vt 0.726052 0.000085
vt 0.726052 0.999915
vt 0.726052 0.000085
vt 0.726052 0.999915
vt 0.000085 0.999915
vt 0.000085 0.000085
vt 0.726052 0.000085
vt 0.726052 0.999915
vt 0.000085 0.999915
vt 0.000085 0.000085
vt 0.726052 0.000085
vt 0.726052 0.999915
vt 0.000085 0.999915
vt 0.000085 0.000085
vt 0.726052 0.000085
vt 0.726052 0.999915
vt 0.000085 0.999915
vt 0.000085 0.000085
vt 0.000085 0.999915
vt 0.000085 0.000085
vt 0.726052 0.000085
vt 0.726052 0.999915
vt 0.726052 0.000085
vt 0.726052 0.999915
vt 0.000085 0.999915
vt 0.000085 0.000085
vt 0.726052 0.000085
vt 0.726052 0.999915
vt 0.000085 0.999915
vt 0.000085 0.000085
vt 0.726052 0.000085
vt 0.726052 0.999915
vt 0.000085 0.999915
vt 0.000085 0.000085
vt 0.726052 0.000085
vt 0.726052 0.999915
vt 0.000085 0.999915
vt 0.000085 0.000085
vt 0.000085 0.999915
vt 0.000085 0.000085
vt 0.726052 0.000085
vt 0.726052 0.999915
vt 0.726052 0.000085
vt 0.726052 0.999915
vt 0.000085 0.999915
vt 0.000085 0.000085
vt 0.726052 0.000085
vt 0.726052 0.999915
vt 0.000085 0.999915
vt 0.000085 0.000085
vt 0.726052 0.000085
vt 0.726052 0.999915
vt 0.000085 0.999915
vt 0.000085 0.000085
vt 0.000085 0.999915
vt 0.000085 0.000085
vt 0.726052 0.000085
vt 0.726052 0.999915
vt 0.000085 0.999915
vt 0.000085 0.000085
vt 0.726052 0.000085
vt 0.726052 0.999915
vt 0.726052 0.000085
vt 0.726052 0.999915
vt 0.000085 0.999915
vt 0.000085 0.000085
vt 0.726052 0.000085
vt 0.726052 0.999915
vt 0.000085 0.999915
vt 0.000085 0.000085
vt 0.726052 0.000085
vt 0.726052 0.999915
vt 0.000085 0.999915
vt 0.000085 0.000085
vt 0.726052 0.000085
vt 0.726052 0.999915
vt 0.000085 0.999915
vt 0.000085 0.000085
vt 0.000085 0.999915
vt 0.000085 0.000085
vt 0.726052 0.000085
vt 0.726052 0.999915
vt 0.726052 0.000085
vt 0.726052 0.999915
vt 0.000085 0.999915
vt 0.000085 0.000085
vt 0.000085 0.999915
vt 0.000085 0.000085
vt 0.726052 0.000085
vt 0.726052 0.999915
vt 0.000085 0.999915
vt 0.000085 0.000085
vt 0.726052 0.000085
vt 0.726052 0.999915
vt 0.726052 0.000085
vt 0.726052 0.999915
vt 0.000085 0.999915
vt 0.000085 0.000085
vt 0.000085 0.999915
vt 0.000085 0.000085
vt 0.726052 0.000085
vt 0.726052 0.999915
vt 0.726052 0.000085
vt 0.726052 0.999915
vt 0.000085 0.999915
vt 0.000085 0.000085
vt 0.726052 0.000085
vt 0.726052 0.999915
vt 0.000085 0.999915
vt 0.000085 0.000085
vt 0.000085 0.999915
vt 0.000085 0.000085
vt 0.726052 0.000085
vt 0.726052 0.999915
vt 0.000085 0.999915
vt 0.000085 0.000085
vt 0.726052 0.000085
vt 0.726052 0.999915
vt 0.000085 0.999915
vt 0.000085 0.000085
vt 0.726052 0.000085
vt 0.726052 0.999915
vt 0.726052 0.000085
vt 0.726052 0.999915
vt 0.000085 0.999915
vt 0.000085 0.000085
vt 0.000085 0.999915
vt 0.000085 0.000085
vt 0.726052 0.000085
vt 0.726052 0.999915
vt 0.726052 0.000085
vt 0.726052 0.999915
vt 0.000085 0.999915
vt 0.000085 0.000085
vt 0.726052 0.000085
vt 0.726052 0.999915
vt 0.000085 0.999915
vt 0.000085 0.000085
vt 0.000085 0.999915
vt 0.000085 0.000085
vt 0.726052 0.000085
vt 0.726052 0.999915
vt 0.726052 0.000085
vt 0.726052 0.999915
vt 0.000085 0.999915
vt 0.000085 0.000085
vt 0.726052 0.000085
vt 0.726052 0.999915
vt 0.000085 0.999915
vt 0.000085 0.000085
vt 0.000085 0.999915
vt 0.000085 0.000085
vt 0.726052 0.000085
vt 0.726052 0.999915
vt 0.726052 0.000085
vt 0.726052 0.999915
vt 0.000085 0.999915
vt 0.000085 0.000085
vt 0.000085 0.999915
vt 0.000085 0.000085
vt 0.726052 0.000085
vt 0.726052 0.999915
vt 0.726052 0.000085
vt 0.726052 0.999915
vt 0.000085 0.999915
vt 0.000085 0.000085
vt 0.726052 0.000085
vt 0.726052 0.999915
vt 0.000085 0.999915
vt 0.000085 0.000085
vt 0.000085 0.999915
vt 0.000085 0.000085
vt 0.726052 0.000085
vt 0.726052 0.999915
vt 0.726052 0.000085
vt 0.726052 0.999915
vt 0.000085 0.999915
vt 0.000085 0.000085
vt 0.000085 0.999915
vt 0.000085 0.000085
vt 0.726052 0.000085
vt 0.726052 0.999915
vn 0.3468 0.7943 0.4989
vn -0.4300 0.8721 0.2336
vn -0.2315 0.8891 -0.3949
vn -0.4102 0.9109 -0.0435
vn 0.1159 0.9930 0.0222
vn 0.1116 0.9064 0.4073
vn 0.5751 0.7826 -0.2384
vn 0.5776 0.8032 -0.1456
vn -0.1037 0.8891 0.4458
vn -0.0270 0.9579 -0.2860
vn -0.1079 0.9932 0.0429
vn 0.1455 0.9893 0.0073
vn 0.3942 0.9045 -0.1626
vn -0.3926 0.8772 0.2765
vn 0.1297 0.8992 0.4178
vn 0.2414 0.8020 0.5464
vn -0.1539 0.8441 0.5136
vn 0.1232 0.9653 -0.2303
vn -0.4695 0.8829 0.0094
vn 0.0534 0.9663 -0.2517
vn 0.0273 0.8960 0.4433
vn 0.6545 0.7237 0.2188
vn 0.4320 0.8952 -0.1097
vn -0.0313 0.9021 0.4303
vn -0.2381 0.8653 -0.4410
vn -0.4124 0.9109 -0.0139
vn -0.2630 0.9353 -0.2369
vn 0.2915 0.9368 -0.1935
vn -0.2739 0.9394 0.2061
vn -0.1851 0.9827 0.0114
vn 0.3098 0.9318 0.1889
vn -0.3514 0.8694 0.3474
vn 0.5177 0.7990 -0.3058
vn -0.3371 0.9294 -0.1501
vn 0.0631 0.9973 -0.0363
vn 0.1284 0.9630 -0.2370
vn 0.2607 0.9650 -0.0297
vn 0.2389 0.9636 0.1197
vn 0.0120 0.9070 0.4211
vn 0.1365 0.9441 -0.3001
vn -0.4336 0.8901 0.1404
vn -0.2605 0.8815 -0.3938
vn 0.3553 0.9093 -0.2169
vn -0.2693 0.9264 0.2632
vn 0.1175 0.9633 0.2413
vn -0.0342 0.9948 0.0955
vn -0.1657 0.9028 0.3969
vn 0.4622 0.7552 -0.4647
vn -0.4193 0.8348 -0.3567
vn -0.2103 0.9768 0.0409
vn -0.0955 0.9846 -0.1468
vn 0.0862 0.9314 0.3537
vn 0.3485 0.9201 -0.1790
usemtl Material.788
s off
f 1/1/1 2/2/1 4/3/1 3/4/1
usemtl Material.789
f 5/5/2 6/6/2 8/7/2 7/8/2
usemtl Material.790
f 9/9/3 10/10/3 12/11/3 11/12/3
usemtl Material.791
f 13/13/4 14/14/4 16/15/4 15/16/4
usemtl Material.792
f 17/17/5 18/18/5 20/19/5 19/20/5
usemtl Material.793
f 21/21/6 22/22/6 24/23/6 23/24/6
usemtl Material.794
f 28/25/7 27/26/7 25/27/7 26/28/7
usemtl Material.795
f 32/29/8 31/30/8 29/31/8 30/32/8
usemtl Material.796
f 33/33/9 34/34/9 36/35/9 35/36/9
usemtl Material.797
f 37/37/10 38/38/10 40/39/10 39/40/10
usemtl Material.798
f 41/41/11 42/42/11 44/43/11 43/44/11
usemtl Material.799
f 45/45/12 46/46/12 48/47/12 47/48/12
usemtl Material.800
f 52/49/13 51/50/13 49/51/13 50/52/13
usemtl Material.801
f 53/53/14 54/54/14 56/55/14 55/56/14
usemtl Material.802
f 57/57/15 58/58/15 60/59/15 59/60/15
usemtl Material.803
f 61/61/16 62/62/16 64/63/16 63/64/16
usemtl Material.804
f 65/65/17 66/66/17 68/67/17 67/68/17
usemtl Material.805
f 72/69/18 71/70/18 69/71/18 70/72/18
usemtl Material.806
f 73/73/19 74/74/19 76/75/19 75/76/19
usemtl Material.807
f 77/77/20 78/78/20 80/79/20 79/80/20
usemtl Material.808
f 81/81/21 82/82/21 84/83/21 83/84/21
usemtl Material.809
f 88/85/22 87/86/22 85/87/22 86/88/22
usemtl Material.810
f 92/89/23 91/90/23 89/91/23 90/92/23
usemtl Material.811
f 93/93/24 94/94/24 96/95/24 95/96/24
usemtl Material.812
f 97/97/25 98/98/25 100/99/25 99/100/25
usemtl Material.813
f 101/101/26 102/102/26 104/103/26 103/104/26
usemtl Material.814
f 105/105/27 106/106/27 108/107/27 107/108/27
usemtl Material.815
f 112/109/28 111/110/28 109/111/28 110/112/28
usemtl Material.816
f 113/113/29 114/114/29 116/115/29 115/116/29
usemtl Material.817
f 120/117/30 119/118/30 117/119/30 118/120/30
usemtl Material.818
f 124/121/31 123/122/31 121/123/31 122/124/31
usemtl Material.819
f 125/125/32 126/126/32 128/127/32 127/128/32
usemtl Material.820
f 132/129/33 131/130/33 129/131/33 130/132/33
usemtl Material.821
f 133/133/34 134/134/34 136/135/34 135/136/34
usemtl Material.822
f 137/137/35 138/138/35 140/139/35 139/140/35
usemtl Material.823
f 144/141/36 143/142/36 141/143/36 142/144/36
usemtl Material.824
f 148/145/37 147/146/37 145/147/37 146/148/37
usemtl Material.825
f 152/149/38 151/150/38 149/151/38 150/152/38
usemtl Material.826
f 153/153/39 154/154/39 156/155/39 155/156/39
usemtl Material.827
f 160/157/40 159/158/40 157/159/40 158/160/40
usemtl Material.828
f 161/161/41 162/162/41 164/163/41 163/164/41
usemtl Material.829
f 165/165/42 166/166/42 168/167/42 167/168/42
usemtl Material.830
f 172/169/43 171/170/43 169/171/43 170/172/43
usemtl Material.831
f 173/173/44 174/174/44 176/175/44 175/176/44
usemtl Material.832
f 177/177/45 178/178/45 180/179/45 179/180/45
usemtl Material.833
f 184/181/46 183/182/46 181/183/46 182/184/46
usemtl Material.834
f 185/185/47 186/186/47 188/187/47 187/188/47
usemtl Material.835
f 192/189/48 191/190/48 189/191/48 190/192/48
usemtl Material.836
f 193/193/49 194/194/49 196/195/49 195/196/49
usemtl Material.837
f 197/197/50 198/198/50 200/199/50 199/200/50
usemtl Material.838
f 204/201/51 203/202/51 201/203/51 202/204/51
usemtl Material.839
f 205/205/52 206/206/52 208/207/52 207/208/52
usemtl Material.840
f 212/209/53 211/210/53 209/211/53 210/212/53
