# Blender v3.2.0 OBJ File: 'trees.blend'
# www.blender.org
mtllib Spruce Large 4 Leaves - LOD 1.mtl
o Plane.640_Plane.1169
v -0.467237 17.755257 0.382735
v 0.698234 17.297831 1.668337
v 0.447922 17.808292 -0.428038
v 1.613393 17.350866 0.857563
v -0.076826 15.395882 1.294491
v 2.731511 13.085205 1.311272
v -0.343267 15.054320 -1.147535
v 2.465069 12.743644 -1.130754
v -1.287790 15.430869 -0.592627
v -2.431629 12.922452 2.270966
v 1.302765 15.051692 0.110002
v 0.158926 12.543275 2.973595
v 0.440476 14.467268 1.110821
v 3.137034 12.837364 -0.226435
v -0.657255 14.338006 -0.945188
v 2.039303 12.708102 -2.282444
v -0.536522 14.683348 -1.063319
v -3.199220 13.141186 0.851120
v 0.787082 14.965204 1.004662
v -1.875616 13.423042 2.919101
v 0.877977 15.240009 -0.449572
v -0.309579 13.768172 -2.489363
v -0.671930 15.009001 0.619464
v -1.859486 13.537163 -1.420328
v -0.568393 14.488431 -0.830396
v -2.864762 13.867712 0.701988
v 0.546902 14.169353 0.711693
v -1.749467 13.548635 2.244077
v 0.634135 15.446251 1.207896
v 3.495140 13.523425 -0.720864
v -0.889099 15.408075 -1.013516
v 1.971906 13.485250 -2.942277
v -0.378504 16.184114 1.352198
v 2.937459 14.264468 2.226164
v 0.031113 15.705686 -1.252814
v 3.347075 13.786039 -0.378849
v -0.977126 15.425028 0.405749
v 0.156320 15.002017 3.203527
v 0.940816 15.313716 -0.388084
v 2.074262 14.890705 2.409693
v 1.102390 15.442112 0.510867
v 2.233222 13.581882 -2.102565
v -1.084250 15.052481 -0.157954
v 0.046583 13.192251 -2.771386
v 0.258331 14.637510 -0.831851
v -2.199593 14.063751 -1.486532
v -0.222266 14.746802 0.876713
v -2.680190 14.173042 0.222032
v 0.005244 14.102264 -1.354488
v -3.017032 11.701977 -0.941476
v 0.425400 14.022720 1.257781
v -2.596877 11.622433 1.670793
v 0.637501 14.609706 0.876189
v 2.279541 12.490808 -0.584675
v -0.875104 14.414602 -0.541022
v 0.766936 12.295705 -2.001886
v -1.342995 16.460949 -0.143344
v -1.480608 13.992066 2.727002
v 1.211983 16.118025 -0.315812
v 1.074371 13.649143 2.554534
v -0.166398 15.868593 1.087641
v 2.827038 14.933514 1.450490
v 0.049080 15.728923 -1.049946
v 3.042516 14.793844 -0.687097
v -0.932120 16.959396 0.116522
v -0.639826 16.023798 2.554073
v 0.790357 16.604753 -0.226147
v 1.082650 15.669155 2.211405
v 0.208366 16.267382 -1.285159
v -3.149029 14.735039 -1.652410
v 0.032385 16.050491 1.228615
v -3.325010 14.518148 0.861364
v 0.821900 15.781675 0.569297
v 2.013716 14.468273 -1.874828
v -0.975370 15.983664 -0.415639
v 0.216447 14.670261 -2.859764
v 0.020390 17.079992 -1.288252
v -3.170230 15.282420 -1.110753
v 0.272990 16.876448 1.190987
v -2.917629 15.078874 1.368487
v -0.516650 15.830914 -0.756551
v -2.714527 15.941748 0.582049
v 0.374573 15.546863 0.730287
v -1.823304 15.657698 2.068887
v 0.705604 16.259439 -0.484420
v -0.602925 15.268375 -2.261109
v -0.555553 16.054203 0.558905
v -1.864082 15.063139 -1.217784
v -0.980472 16.227228 -0.395981
v -1.555796 14.766163 2.455066
v 1.136397 16.542419 0.192715
v 0.561073 15.081354 3.043762
v -0.208830 17.471930 1.175138
v 2.666489 15.836166 1.640090
v -0.077777 17.066195 -1.062739
v 2.797542 15.430432 -0.597788
v 0.280505 17.421658 0.636539
v 1.855869 16.536224 -0.175170
v -0.385530 17.309267 -0.533504
v 1.189834 16.423834 -1.345212
v -0.915317 17.809700 -0.141841
v -0.773248 16.522068 2.475157
v 1.038849 18.184771 -0.063383
v 1.180918 16.897137 2.553616
v 0.847994 15.993892 -0.146424
v 0.109299 14.364865 -1.923773
v -0.765885 16.085758 0.440129
v -1.504580 14.456733 -1.337220
v 0.798135 18.224268 -0.422119
v -0.501342 16.796770 -2.201740
v -0.653884 18.240137 0.625414
v -1.953361 16.812639 -1.154206
v -0.026238 17.241318 -0.940954
v -2.709155 16.546715 -0.750247
v 0.095971 17.288172 0.948959
v -2.586947 16.593571 1.139666
v 1.111770 16.241030 0.006858
v 0.470921 14.507335 -2.876141
v -1.177642 16.595095 0.302844
v -1.818492 14.861401 -2.580155
v -0.518138 18.391510 -0.466444
v -1.597138 17.457245 0.918079
v 0.580510 18.291239 0.322103
v -0.498490 17.356974 1.706626
v -1.096577 18.666174 -0.227566
v -1.609965 17.025787 2.386839
v 0.992733 18.262476 -0.070587
v 0.479345 16.622087 2.543817
v -0.958030 17.336828 -0.221275
v -0.922044 15.674498 2.266425
v 1.058492 17.609211 -0.068434
v 1.094479 15.946879 2.419266
v -0.600603 18.698004 -0.688993
v -2.050989 17.301624 1.342592
v 0.837880 19.050581 0.580305
v -0.612505 17.654202 2.611890
v 0.915178 18.131620 0.582359
v 2.066822 16.568981 -1.945795
v -1.044818 18.203320 -0.354789
v 0.106826 16.640680 -2.882943
v 0.808495 17.238394 -0.526962
v -0.568542 15.772434 -2.369434
v -0.592574 17.037518 0.680005
v -1.969611 15.571556 -1.162467
v 0.357411 18.816896 -0.934549
v -2.182975 17.310966 -1.419072
v -0.120330 18.986750 1.042357
v -2.660715 17.480820 0.557834
v 0.788055 18.606222 -0.114225
v 0.481051 17.785246 -2.167716
v -0.674555 18.336708 0.212190
v -0.981559 17.515734 -1.841301
v -0.652747 17.929705 0.075238
v -0.055894 16.787529 1.609372
v 0.650205 18.122070 -0.288456
v 1.247058 16.979895 1.245678
vt 0.726052 0.000085
vt 0.726052 0.999915
vt 0.000085 0.999915
vt 0.000085 0.000085
vt 0.000085 0.999915
vt 0.000085 0.000085
vt 0.726052 0.000085
vt 0.726052 0.999915
vt 0.726052 0.000085
vt 0.726052 0.999915
vt 0.000085 0.999915
vt 0.000085 0.000085
vt 0.000085 0.999915
vt 0.000085 0.000085
vt 0.726052 0.000085
vt 0.726052 0.999915
vt 0.000085 0.999915
vt 0.000085 0.000085
vt 0.726052 0.000085
vt 0.726052 0.999915
vt 0.000085 0.999915
vt 0.000085 0.000085
vt 0.726052 0.000085
vt 0.726052 0.999915
vt 0.000085 0.999915
vt 0.000085 0.000085
vt 0.726052 0.000085
vt 0.726052 0.999915
vt 0.726052 0.000085
vt 0.726052 0.999915
vt 0.000085 0.999915
vt 0.000085 0.000085
vt 0.726052 0.000085
vt 0.726052 0.999915
vt 0.000085 0.999915
vt 0.000085 0.000085
vt 0.726052 0.000085
vt 0.726052 0.999915
vt 0.000085 0.999915
vt 0.000085 0.000085
vt 0.000085 0.999915
vt 0.000085 0.000085
vt 0.726052 0.000085
vt 0.726052 0.999915
vt 0.726052 0.000085
vt 0.726052 0.999915
vt 0.000085 0.999915
vt 0.000085 0.000085
vt 0.726052 0.000085
vt 0.726052 0.999915
vt 0.000085 0.999915
vt 0.000085 0.000085
vt 0.726052 0.000085
vt 0.726052 0.999915
vt 0.000085 0.999915
vt 0.000085 0.000085
vt 0.000085 0.999915
vt 0.000085 0.000085
vt 0.726052 0.000085
vt 0.726052 0.999915
vt 0.726052 0.000085
vt 0.726052 0.999915
vt 0.000085 0.999915
vt 0.000085 0.000085
vt 0.726052 0.000085
vt 0.726052 0.999915
vt 0.000085 0.999915
vt 0.000085 0.000085
vt 0.726052 0.000085
vt 0.726052 0.999915
vt 0.000085 0.999915
vt 0.000085 0.000085
vt 0.726052 0.000085
vt 0.726052 0.999915
vt 0.000085 0.999915
vt 0.000085 0.000085
vt 0.000085 0.999915
vt 0.000085 0.000085
vt 0.726052 0.000085
vt 0.726052 0.999915
vt 0.726052 0.000085
vt 0.726052 0.999915
vt 0.000085 0.999915
vt 0.000085 0.000085
vt 0.000085 0.999915
vt 0.000085 0.000085
vt 0.726052 0.000085
vt 0.726052 0.999915
vt 0.726052 0.000085
vt 0.726052 0.999915
vt 0.000085 0.999915
vt 0.000085 0.000085
vt 0.000085 0.999915
vt 0.000085 0.000085
vt 0.726052 0.000085
vt 0.726052 0.999915
vt 0.000085 0.999915
vt 0.000085 0.000085
vt 0.726052 0.000085
vt 0.726052 0.999915
vt 0.000085 0.999915
vt 0.000085 0.000085
vt 0.726052 0.000085
vt 0.726052 0.999915
vt 0.726052 0.000085
vt 0.726052 0.999915
vt 0.000085 0.999915
vt 0.000085 0.000085
vt 0.000085 0.999915
vt 0.000085 0.000085
vt 0.726052 0.000085
vt 0.726052 0.999915
vt 0.000085 0.999915
vt 0.000085 0.000085
vt 0.726052 0.000085
vt 0.726052 0.999915
vt 0.000085 0.999915
vt 0.000085 0.000085
vt 0.726052 0.000085
vt 0.726052 0.999915
vt 0.000085 0.999915
vt 0.000085 0.000085
vt 0.726052 0.000085
vt 0.726052 0.999915
vt 0.000085 0.999915
vt 0.000085 0.000085
vt 0.726052 0.000085
vt 0.726052 0.999915
vt 0.000085 0.999915
vt 0.000085 0.000085
vt 0.726052 0.000085
vt 0.726052 0.999915
vt 0.000085 0.999915
vt 0.000085 0.000085
vt 0.726052 0.000085
vt 0.726052 0.999915
vt 0.000085 0.999915
vt 0.000085 0.000085
vt 0.726052 0.000085
vt 0.726052 0.999915
vt 0.726052 0.000085
vt 0.726052 0.999915
vt 0.000085 0.999915
vt 0.000085 0.000085
vt 0.726052 0.000085
vt 0.726052 0.999915
vt 0.000085 0.999915
vt 0.000085 0.000085
vt 0.726052 0.000085
vt 0.726052 0.999915
vt 0.000085 0.999915
vt 0.000085 0.000085
vt 0.000085 0.999915
vt 0.000085 0.000085
vt 0.726052 0.000085
vt 0.726052 0.999915
vn 0.1378 0.9660 0.2188
vn 0.6262 0.7598 -0.1746
vn -0.0628 0.7630 0.6433
vn 0.3978 0.8776 -0.2676
vn -0.4163 0.8977 0.1441
vn -0.3875 0.8398 -0.3803
vn -0.0858 0.9615 0.2610
vn 0.3945 0.8734 -0.2855
vn 0.5145 0.8541 -0.0760
vn 0.1021 0.9889 0.1081
vn 0.0286 0.8202 -0.5714
vn -0.1960 0.9736 -0.1174
vn -0.6071 0.7853 0.1216
vn 0.4276 0.7138 -0.5547
vn 0.1441 0.7468 0.6493
vn 0.3015 0.9529 -0.0319
vn 0.2518 0.9132 0.3203
vn -0.4191 0.9066 0.0489
vn 0.2874 0.8951 -0.3409
vn -0.4822 0.8678 0.1204
vn 0.1205 0.9859 0.1161
vn -0.3505 0.9037 -0.2459
vn -0.2434 0.8822 0.4030
vn 0.5058 0.8535 -0.1251
vn 0.3530 0.8907 -0.2865
vn -0.1862 0.8775 0.4419
vn -0.1827 0.7614 -0.6220
vn -0.3121 0.8392 -0.4453
vn -0.2511 0.9679 -0.0078
vn 0.0635 0.8490 -0.5246
vn -0.2217 0.8796 0.4208
vn 0.1195 0.8303 0.5444
vn -0.1526 0.8207 0.5506
vn -0.4461 0.8538 0.2684
vn 0.2375 0.8710 -0.4301
vn -0.4217 0.8364 -0.3503
vn -0.4740 0.8602 -0.1884
vn -0.2416 0.9129 -0.3289
vn 0.0439 0.8094 0.5855
usemtl Material.879
s off
f 1/1/1 2/2/1 4/3/1 3/4/1
usemtl Material.841
f 8/5/2 7/6/2 5/7/2 6/8/2
usemtl Material.842
f 9/9/3 10/10/3 12/11/3 11/12/3
usemtl Material.843
f 16/13/4 15/14/4 13/15/4 14/16/4
usemtl Material.844
f 20/17/5 19/18/5 17/19/5 18/20/5
usemtl Material.845
f 24/21/6 23/22/6 21/23/6 22/24/6
usemtl Material.846
f 28/25/7 27/26/7 25/27/7 26/28/7
usemtl Material.847
f 29/29/8 30/30/8 32/31/8 31/32/8
usemtl Material.848
f 33/33/9 34/34/9 36/35/9 35/36/9
usemtl Material.849
f 37/37/10 38/38/10 40/39/10 39/40/10
usemtl Material.850
f 44/41/11 43/42/11 41/43/11 42/44/11
usemtl Material.851
f 45/45/12 46/46/12 48/47/12 47/48/12
usemtl Material.852
f 49/49/13 50/50/13 52/51/13 51/52/13
usemtl Material.853
f 53/53/14 54/54/14 56/55/14 55/56/14
usemtl Material.854
f 60/57/15 59/58/15 57/59/15 58/60/15
usemtl Material.855
f 61/61/16 62/62/16 64/63/16 63/64/16
usemtl Material.856
f 65/65/17 66/66/17 68/67/17 67/68/17
usemtl Material.857
f 69/69/18 70/70/18 72/71/18 71/72/18
usemtl Material.858
f 73/73/19 74/74/19 76/75/19 75/76/19
usemtl Material.859
f 80/77/20 79/78/20 77/79/20 78/80/20
usemtl Material.860
f 81/81/21 82/82/21 84/83/21 83/84/21
usemtl Material.861
f 88/85/22 87/86/22 85/87/22 86/88/22
usemtl Material.862
f 89/89/23 90/90/23 92/91/23 91/92/23
usemtl Material.863
f 96/93/24 95/94/24 93/95/24 94/96/24
usemtl Material.864
f 100/97/25 99/98/25 97/99/25 98/100/25
usemtl Material.865
f 104/101/26 103/102/26 101/103/26 102/104/26
usemtl Material.866
f 105/105/27 106/106/27 108/107/27 107/108/27
usemtl Material.867
f 112/109/28 111/110/28 109/111/28 110/112/28
usemtl Material.868
f 116/113/29 115/114/29 113/115/29 114/116/29
usemtl Material.869
f 120/117/30 119/118/30 117/119/30 118/120/30
usemtl Material.870
f 124/121/31 123/122/31 121/123/31 122/124/31
usemtl Material.871
f 128/125/32 127/126/32 125/127/32 126/128/32
usemtl Material.872
f 132/129/33 131/130/33 129/131/33 130/132/33
usemtl Material.873
f 136/133/34 135/134/34 133/135/34 134/136/34
usemtl Material.874
f 140/137/35 139/138/35 137/139/35 138/140/35
usemtl Material.875
f 141/141/36 142/142/36 144/143/36 143/144/36
usemtl Material.876
f 145/145/37 146/146/37 148/147/37 147/148/37
usemtl Material.877
f 149/149/38 150/150/38 152/151/38 151/152/38
usemtl Material.878
f 156/153/39 155/154/39 153/155/39 154/156/39
