# Blender v3.2.0 OBJ File: 'trees.blend'
# www.blender.org
mtllib Spruce Small 3 Trunk.mtl
o Cylinder.076_Cylinder.079
v -0.053966 -0.288688 -0.303357
v 0.189027 -0.283191 -0.125381
v 0.074660 -0.284933 0.193503
v -0.228047 -0.285306 0.235460
v -0.374721 -0.302331 -0.092961
v -0.000000 8.000000 0.000000
v -0.044216 -0.106486 -0.181514
v 0.164011 -0.127230 -0.035310
v 0.090290 -0.093429 0.138493
v -0.260535 -0.110882 0.167317
v -0.252817 -0.075647 -0.068044
v -0.038625 0.016543 -0.157204
v 0.098904 0.085383 -0.049196
v 0.046408 0.070334 0.132058
v -0.144778 0.085578 0.121953
v -0.215767 0.070311 -0.063966
vt 0.600000 0.875000
vt 0.400000 1.000000
vt 0.400000 0.875000
vt 0.200000 1.000000
vt 0.200000 0.875000
vt 0.800000 1.000000
vt 0.800000 0.875000
vt 1.000000 0.875000
vt 0.600000 1.000000
vt 0.200000 0.500000
vt 0.200000 0.750000
vt 0.000000 0.750000
vt 0.000000 0.500000
vt 0.400000 0.500000
vt 0.400000 0.750000
vt 0.600000 0.500000
vt 0.600000 0.750000
vt 0.800000 0.500000
vt 0.800000 0.750000
vt 1.000000 0.500000
vt 1.000000 0.750000
vt 0.000000 0.875000
vt 0.000000 1.000000
vn -0.0515 0.0163 0.9985
vn -0.9346 0.0226 0.3550
vn 0.6137 0.0126 -0.7894
vn 0.9602 0.0103 0.2790
vn -0.4616 0.4276 -0.7772
vn -0.9418 0.2358 0.2397
vn 0.0933 0.3214 0.9423
vn 0.9339 -0.0108 0.3572
vn 0.5258 0.4686 -0.7099
vn -0.4381 0.1627 -0.8841
vn -0.8952 0.4181 0.1543
vn 0.0336 0.1357 0.9902
vn 0.9091 0.2799 0.3084
vn 0.5760 0.1272 -0.8075
vn -0.4610 0.0197 -0.8872
usemtl None
s off
f 14/1/1 6/2/1 15/3/1
f 15/3/2 6/4/2 16/5/2
f 6/6/3 13/7/3 12/8/3
f 13/7/4 6/9/4 14/1/4
f 5/10/5 11/11/5 7/12/5 1/13/5
f 4/14/6 10/15/6 11/11/6 5/10/6
f 3/16/7 9/17/7 10/15/7 4/14/7
f 2/18/8 8/19/8 9/17/8 3/16/8
f 1/20/9 7/21/9 8/19/9 2/18/9
f 11/11/10 16/5/10 12/22/10 7/12/10
f 10/15/11 15/3/11 16/5/11 11/11/11
f 9/17/12 14/1/12 15/3/12 10/15/12
f 8/19/13 13/7/13 14/1/13 9/17/13
f 7/21/14 12/8/14 13/7/14 8/19/14
f 16/5/15 6/23/15 12/22/15
