# Blender v3.2.0 OBJ File: 'trees.blend'
# www.blender.org
mtllib Spruce Small 3 Leaves - LOD 1.mtl
o _Joined_Plane.1453
v -0.727403 3.918600 0.481443
v 0.495160 4.153503 2.587460
v 0.707125 3.626407 -0.318724
v 1.929689 3.861310 1.787292
v -0.965539 3.640938 -0.554142
v -1.749286 1.860275 2.364615
v 1.211559 4.112151 0.317929
v 0.427813 2.331488 3.236686
v 0.277292 4.765476 1.401880
v 2.825053 1.751735 0.902958
v -0.783476 4.273956 -1.045941
v 1.764284 1.260216 -1.544863
v 0.735262 3.934274 -0.128488
v -0.150111 2.614407 -1.851146
v -0.743712 4.254848 0.386025
v -1.629086 2.934981 -1.336632
v 0.244847 4.087408 -0.711026
v -1.161369 2.347107 -0.598205
v 0.098460 4.303282 0.794323
v -1.307756 2.562982 0.907144
v 0.836618 4.702497 0.451835
v 1.441133 3.025943 -1.753454
v -0.982267 4.878287 -0.180402
v -0.377752 3.201734 -2.385691
v -1.298857 4.928545 -0.127877
v -0.749463 1.870113 2.048295
v 1.254989 5.130625 -0.488613
v 1.804383 2.072193 1.687560
v -0.223367 5.027067 1.161447
v 2.118162 2.721965 1.516376
v -0.224530 4.682926 -1.065923
v 2.117000 2.377824 -0.710994
v -0.639683 5.428902 0.131759
v -0.329038 5.351066 1.973274
v 0.612789 5.330250 -0.083690
v 0.923434 5.252414 1.757825
v -0.416233 5.715971 -0.896942
v -2.299603 3.973993 0.262523
v 0.661557 5.605700 0.688090
v -1.221813 3.863722 1.847554
v 0.569338 4.556108 0.345953
v 1.656892 4.408444 -1.382387
v -0.597132 4.725287 -0.402500
v 0.490423 4.577624 -2.130839
v 0.329958 4.751553 -0.676220
v -1.409870 3.227301 -0.840319
v -0.067195 5.043097 0.826473
v -1.807022 3.518845 0.662374
v 0.339836 5.236952 -1.025706
v -2.006668 3.390060 -1.621469
v 0.006460 5.003645 1.010609
v -2.340044 3.156753 0.414846
v 0.568450 5.031385 0.467156
v 1.849112 4.461993 -1.392444
v -0.676045 5.316452 -0.477183
v 0.604617 4.747060 -2.336783
v -0.930511 5.578636 -0.633545
v -1.973604 3.444085 1.531781
v 1.071438 5.503160 0.256442
v 0.028345 3.368609 2.421768
v 0.284425 5.620261 1.022880
v 2.309955 3.558081 0.016885
v -0.634434 5.631951 -0.851169
v 1.391096 3.569771 -1.857164
v -0.397546 5.876685 0.697354
v 1.363842 4.271955 1.075270
v 0.126136 6.087548 -0.848034
v 1.887523 4.482819 -0.470117
v -0.597943 5.711271 -0.003851
v -0.564694 5.239825 1.647681
v 0.570529 5.639650 -0.047820
v 0.603778 5.168203 1.603712
v 0.466910 6.571995 0.381409
v 1.391438 5.899039 -0.946359
v -0.517320 6.556702 -0.296160
v 0.407208 5.883746 -1.623929
v 0.131859 6.391011 -0.981138
v -2.190582 4.544730 -0.655998
v 0.212962 6.644366 1.036825
v -2.109480 4.798085 1.361966
v 0.530793 6.219815 -0.180965
v -0.155700 5.621194 -1.624894
v -0.533864 6.345481 0.273111
v -1.220357 5.746860 -1.170817
v 0.224893 6.516237 1.094462
v 2.704905 4.703449 0.573718
v -0.494587 6.093261 -0.859577
v 1.985425 4.280474 -1.380321
v -0.317004 6.044693 -0.983710
v -2.353617 4.131512 0.236272
v 0.647884 6.188477 0.852538
v -1.388729 4.275295 2.072519
v -0.241079 5.606158 0.658241
v 1.775141 4.868293 1.107956
v 0.165018 5.851101 -0.760537
v 2.181238 5.113236 -0.310822
v 0.244471 6.616703 0.621124
v 1.684026 5.515933 -0.490153
v -0.460390 6.933237 -0.605500
v 0.979164 5.832468 -1.716776
v -0.541057 6.121631 -0.193847
v -1.157785 6.102380 1.317513
v 0.484082 6.000082 0.222924
v -0.132645 5.980831 1.734284
v 0.537007 6.757236 0.380178
v 1.549415 6.194335 -1.067427
v -0.520775 6.568709 -0.286293
v 0.491633 6.005809 -1.733898
v -0.321946 6.088983 -0.402133
v -1.535101 6.064868 0.488149
v 0.285319 6.084714 0.425250
v -0.927835 6.060600 1.315532
v 0.437325 6.088498 -0.115869
v -0.203478 5.285243 -1.112515
v -0.432538 6.297976 0.274589
v -1.073342 5.494720 -0.722057
v 0.091915 6.477633 0.430524
v 1.478882 6.400473 0.163696
v -0.075811 6.675611 -0.498561
v 1.311156 6.598449 -0.765390
v -0.576038 7.084848 -0.568995
v -1.702261 5.696391 0.905213
v 0.706356 7.022868 0.352316
v -0.419867 5.634410 1.826524
v -0.212071 5.947269 0.704493
v 1.840317 5.201349 1.105489
v 0.123016 6.078616 -0.766230
v 2.175404 5.332696 -0.365234
v -0.359479 6.998713 0.508128
v 0.826629 6.033611 1.332561
v 0.172077 6.769070 -0.525448
v 1.358186 5.803967 0.298985
v -0.246000 7.394433 -0.463588
v -1.533092 7.086848 0.208371
v 0.243335 7.259941 0.412137
v -1.043757 6.952356 1.084096
v 0.230299 6.920264 0.547736
v 1.554344 6.093305 -0.012187
v -0.319129 6.691811 -0.414085
v 1.004916 5.864851 -0.974008
v 0.492342 7.441576 -0.271687
v -0.488175 6.405834 -1.235066
v -0.412719 7.624352 0.452969
v -1.393235 6.588610 -0.510410
v -0.311293 6.953798 -0.605706
v -1.885714 6.226611 0.351739
v 0.395885 6.938113 0.545264
v -1.178536 6.210926 1.502710
v 0.659860 7.124886 -0.172267
v -0.039494 5.771485 -1.460669
v -0.566342 7.201926 0.412397
v -1.265696 5.848526 -0.876004
v -0.628593 7.194576 -0.364393
v -1.432895 6.104242 1.162582
v 0.644116 6.994622 0.163202
v -0.160186 5.904288 1.690178
v -0.216802 7.371562 0.691413
v 1.396254 6.215645 1.128999
v 0.000500 7.162734 -0.661257
v 1.613557 6.006817 -0.223671
vt 0.726052 0.000085
vt 0.726052 0.999915
vt 0.000085 0.999915
vt 0.000085 0.000085
vt 0.000085 0.999915
vt 0.000085 0.000085
vt 0.726052 0.000085
vt 0.726052 0.999915
vt 0.000085 0.999915
vt 0.000085 0.000085
vt 0.726052 0.000085
vt 0.726052 0.999915
vt 0.726052 0.000085
vt 0.726052 0.999915
vt 0.000085 0.999915
vt 0.000085 0.000085
vt 0.726052 0.000085
vt 0.726052 0.999915
vt 0.000085 0.999915
vt 0.000085 0.000085
vt 0.000085 0.999915
vt 0.000085 0.000085
vt 0.726052 0.000085
vt 0.726052 0.999915
vt 0.000085 0.999915
vt 0.000085 0.000085
vt 0.726052 0.000085
vt 0.726052 0.999915
vt 0.000085 0.999915
vt 0.000085 0.000085
vt 0.726052 0.000085
vt 0.726052 0.999915
vt 0.726052 0.000085
vt 0.726052 0.999915
vt 0.000085 0.999915
vt 0.000085 0.000085
vt 0.000085 0.999915
vt 0.000085 0.000085
vt 0.726052 0.000085
vt 0.726052 0.999915
vt 0.726052 0.000085
vt 0.726052 0.999915
vt 0.000085 0.999915
vt 0.000085 0.000085
vt 0.726052 0.000085
vt 0.726052 0.999915
vt 0.000085 0.999915
vt 0.000085 0.000085
vt 0.726052 0.000085
vt 0.726052 0.999915
vt 0.000085 0.999915
vt 0.000085 0.000085
vt 0.726052 0.000085
vt 0.726052 0.999915
vt 0.000085 0.999915
vt 0.000085 0.000085
vt 0.726052 0.000085
vt 0.726052 0.999915
vt 0.000085 0.999915
vt 0.000085 0.000085
vt 0.726052 0.000085
vt 0.726052 0.999915
vt 0.000085 0.999915
vt 0.000085 0.000085
vt 0.726052 0.000085
vt 0.726052 0.999915
vt 0.000085 0.999915
vt 0.000085 0.000085
vt 0.726052 0.000085
vt 0.726052 0.999915
vt 0.000085 0.999915
vt 0.000085 0.000085
vt 0.000085 0.999915
vt 0.000085 0.000085
vt 0.726052 0.000085
vt 0.726052 0.999915
vt 0.726052 0.000085
vt 0.726052 0.999915
vt 0.000085 0.999915
vt 0.000085 0.000085
vt 0.726052 0.000085
vt 0.726052 0.999915
vt 0.000085 0.999915
vt 0.000085 0.000085
vt 0.000085 0.999915
vt 0.000085 0.000085
vt 0.726052 0.000085
vt 0.726052 0.999915
vt 0.000085 0.999915
vt 0.000085 0.000085
vt 0.726052 0.000085
vt 0.726052 0.999915
vt 0.000085 0.999915
vt 0.000085 0.000085
vt 0.726052 0.000085
vt 0.726052 0.999915
vt 0.726052 0.000085
vt 0.726052 0.999915
vt 0.000085 0.999915
vt 0.000085 0.000085
vt 0.000085 0.999915
vt 0.000085 0.000085
vt 0.726052 0.000085
vt 0.726052 0.999915
vt 0.000085 0.999915
vt 0.000085 0.000085
vt 0.726052 0.000085
vt 0.726052 0.999915
vt 0.000085 0.999915
vt 0.000085 0.000085
vt 0.726052 0.000085
vt 0.726052 0.999915
vt 0.726052 0.000085
vt 0.726052 0.999915
vt 0.000085 0.999915
vt 0.000085 0.000085
vt 0.000085 0.999915
vt 0.000085 0.000085
vt 0.726052 0.000085
vt 0.726052 0.999915
vt 0.726052 0.000085
vt 0.726052 0.999915
vt 0.000085 0.999915
vt 0.000085 0.000085
vt 0.000085 0.999915
vt 0.000085 0.000085
vt 0.726052 0.000085
vt 0.726052 0.999915
vt 0.000085 0.999915
vt 0.000085 0.000085
vt 0.726052 0.000085
vt 0.726052 0.999915
vt 0.000085 0.999915
vt 0.000085 0.000085
vt 0.726052 0.000085
vt 0.726052 0.999915
vt 0.726052 0.000085
vt 0.726052 0.999915
vt 0.000085 0.999915
vt 0.000085 0.000085
vt 0.000085 0.999915
vt 0.000085 0.000085
vt 0.726052 0.000085
vt 0.726052 0.999915
vt 0.726052 0.000085
vt 0.726052 0.999915
vt 0.000085 0.999915
vt 0.000085 0.000085
vt 0.726052 0.000085
vt 0.726052 0.999915
vt 0.000085 0.999915
vt 0.000085 0.000085
vt 0.726052 0.000085
vt 0.726052 0.999915
vt 0.000085 0.999915
vt 0.000085 0.000085
vt 0.726052 0.000085
vt 0.726052 0.999915
vt 0.000085 0.999915
vt 0.000085 0.000085
vn 0.1047 0.9799 -0.1701
vn -0.3490 0.8387 0.4180
vn 0.6609 0.6270 -0.4123
vn -0.0339 0.8017 -0.5968
vn -0.7725 0.6137 -0.1631
vn 0.2640 0.8013 -0.5368
vn 0.0676 0.5865 0.8072
vn 0.7057 0.7001 -0.1085
vn 0.0833 0.9961 0.0281
vn -0.4872 0.7835 0.3858
vn 0.1409 0.9900 0.0041
vn -0.6116 0.7307 -0.3034
vn -0.6168 0.7871 -0.0108
vn 0.2888 0.9529 -0.0929
vn -0.2464 0.7469 0.6176
vn 0.6068 0.7389 -0.2929
vn 0.6047 0.7356 0.3053
vn 0.0691 0.9597 0.2726
vn 0.2081 0.9232 -0.3231
vn -0.6268 0.7758 -0.0722
vn -0.0455 0.9303 -0.3641
vn 0.5018 0.7886 -0.3555
vn -0.5818 0.7756 0.2450
vn 0.2855 0.9274 0.2418
vn 0.5523 0.8272 -0.1039
vn 0.0967 0.9940 0.0521
vn 0.0436 0.9411 -0.3354
vn -0.0105 0.9999 0.0128
vn -0.0750 0.7994 -0.5961
vn 0.0913 0.9772 0.1918
vn -0.3244 0.7996 0.5053
vn 0.3107 0.9379 0.1545
vn 0.5767 0.8086 0.1169
vn -0.1192 0.9692 0.2154
vn 0.3558 0.8429 -0.4035
vn -0.2844 0.7833 -0.5527
vn -0.3071 0.9301 0.2014
vn -0.2549 0.7326 -0.6312
vn -0.0950 0.8331 0.5449
vn 0.5877 0.8085 -0.0304
usemtl Material.1162
s off
f 1/1/1 2/2/1 4/3/1 3/4/1
usemtl Material.1163
f 8/5/2 7/6/2 5/7/2 6/8/2
usemtl Material.1164
f 12/9/3 11/10/3 9/11/3 10/12/3
usemtl Material.1165
f 13/13/4 14/14/4 16/15/4 15/16/4
usemtl Material.1166
f 17/17/5 18/18/5 20/19/5 19/20/5
usemtl Material.1167
f 24/21/6 23/22/6 21/23/6 22/24/6
usemtl Material.1168
f 28/25/7 27/26/7 25/27/7 26/28/7
usemtl Material.1169
f 32/29/8 31/30/8 29/31/8 30/32/8
usemtl Material.1170
f 33/33/9 34/34/9 36/35/9 35/36/9
usemtl Material.1171
f 40/37/10 39/38/10 37/39/10 38/40/10
usemtl Material.1172
f 41/41/11 42/42/11 44/43/11 43/44/11
usemtl Material.1173
f 45/45/12 46/46/12 48/47/12 47/48/12
usemtl Material.1174
f 49/49/13 50/50/13 52/51/13 51/52/13
usemtl Material.1175
f 53/53/14 54/54/14 56/55/14 55/56/14
usemtl Material.1176
f 57/57/15 58/58/15 60/59/15 59/60/15
usemtl Material.1177
f 61/61/16 62/62/16 64/63/16 63/64/16
usemtl Material.1178
f 65/65/17 66/66/17 68/67/17 67/68/17
usemtl Material.1179
f 69/69/18 70/70/18 72/71/18 71/72/18
usemtl Material.1180
f 76/73/19 75/74/19 73/75/19 74/76/19
usemtl Material.1181
f 77/77/20 78/78/20 80/79/20 79/80/20
usemtl Material.1182
f 81/81/21 82/82/21 84/83/21 83/84/21
usemtl Material.1183
f 88/85/22 87/86/22 85/87/22 86/88/22
usemtl Material.1184
f 92/89/23 91/90/23 89/91/23 90/92/23
usemtl Material.1185
f 96/93/24 95/94/24 93/95/24 94/96/24
usemtl Material.1186
f 97/97/25 98/98/25 100/99/25 99/100/25
usemtl Material.1187
f 104/101/26 103/102/26 101/103/26 102/104/26
usemtl Material.1188
f 108/105/27 107/106/27 105/107/27 106/108/27
usemtl Material.1189
f 112/109/28 111/110/28 109/111/28 110/112/28
usemtl Material.1190
f 113/113/29 114/114/29 116/115/29 115/116/29
usemtl Material.1191
f 120/117/30 119/118/30 117/119/30 118/120/30
usemtl Material.1192
f 121/121/31 122/122/31 124/123/31 123/124/31
usemtl Material.1193
f 128/125/32 127/126/32 125/127/32 126/128/32
usemtl Material.1194
f 132/129/33 131/130/33 129/131/33 130/132/33
usemtl Material.1195
f 136/133/34 135/134/34 133/135/34 134/136/34
usemtl Material.1196
f 137/137/35 138/138/35 140/139/35 139/140/35
usemtl Material.1197
f 144/141/36 143/142/36 141/143/36 142/144/36
usemtl Material.1198
f 145/145/37 146/146/37 148/147/37 147/148/37
usemtl Material.1199
f 149/149/38 150/150/38 152/151/38 151/152/38
usemtl Material.1200
f 153/153/39 154/154/39 156/155/39 155/156/39
usemtl Material.1201
f 157/157/40 158/158/40 160/159/40 159/160/40
