# Blender v3.2.0 OBJ File: 'trees.blend'
# www.blender.org
mtllib Spruce Small 1 Leaves.mtl
o Short_twigs_set.052_Plane.060
v -0.072850 0.747030 0.825325
v -0.072849 3.272416 0.825325
v -0.072849 0.747030 -0.031399
v -0.072849 3.272416 -0.031399
vt 0.869132 0.583327
vt 0.869132 0.998870
vt 0.728161 0.998870
vt 0.728161 0.583327
vn -1.0000 0.0000 -0.0000
usemtl thing.005
s off
f 1/1/1 2/2/1 4/3/1 3/4/1
o Short_twigs_set_2.053_Plane.588
v -0.447801 0.611904 -0.589622
v -0.437901 2.542756 -0.599155
v -0.094630 0.612817 -0.037936
v -0.084729 2.543668 -0.047470
vt 0.869132 0.583327
vt 0.869132 0.998870
vt 0.728161 0.998870
vt 0.728161 0.583327
vn 0.8422 -0.0070 -0.5391
usemtl thing.005
s off
f 5/5/2 6/6/2 8/7/2 7/8/2
o Short_twigs_set.051_Plane.582
v -0.413946 2.849504 0.614130
v -0.413946 4.995202 0.614130
v -0.036491 2.849504 -0.008277
v -0.036491 4.995201 -0.008277
vt 0.869132 0.583327
vt 0.869132 0.998870
vt 0.728161 0.998870
vt 0.728161 0.583327
vn -0.8551 0.0000 -0.5185
usemtl thing.005
s off
f 9/9/3 10/10/3 12/11/3 11/12/3
o Short_twigs_set_2.052_Plane.581
v -0.368241 2.482747 -0.517398
v -0.358093 4.461681 -0.527169
v -0.006274 2.483683 0.048025
v 0.003873 4.462617 0.038255
vt 0.869132 0.583327
vt 0.869132 0.998870
vt 0.728161 0.998870
vt 0.728161 0.583327
vn 0.8422 -0.0070 -0.5391
usemtl thing.005
s off
f 13/13/4 14/14/4 16/15/4 15/16/4
o Short_twigs_set.050_Plane.059
v 0.122887 4.676896 0.592075
v 0.122887 6.470966 0.592075
v -0.009937 4.676896 -0.001883
v -0.009936 6.470966 -0.001883
vt 0.869132 0.583327
vt 0.869132 0.998870
vt 0.728161 0.998870
vt 0.728161 0.583327
vn -0.9759 0.0000 0.2182
usemtl thing.005
s off
f 17/17/5 18/18/5 20/19/5 19/20/5
o Short_twigs_set.053_Plane.590
v 0.636625 0.921378 -0.088297
v 0.636625 2.763310 -0.088297
v 0.013937 0.921378 -0.036183
v 0.013937 2.763310 -0.036183
vt 0.869132 0.583327
vt 0.869132 0.998870
vt 0.728161 0.998870
vt 0.728161 0.583327
vn 0.0834 -0.0000 0.9965
usemtl thing.006
s off
f 21/21/6 22/22/6 24/23/6 23/24/6
o Plane.422_Plane.591
v -0.081587 7.270936 0.663860
v 1.781512 6.990921 0.920004
v 0.073286 7.130777 -0.615857
v 1.936386 6.850762 -0.359713
v -0.000123 7.415200 0.001014
v 1.862977 7.135185 0.257157
v 0.852493 7.265570 0.777492
v 1.007366 7.125411 -0.502225
v 0.933957 7.409834 0.114645
vt 0.363069 0.500000
vt 0.363069 0.999915
vt 0.000085 0.999915
vt 0.000085 0.500000
vt 0.726052 0.500000
vt 0.726052 0.999915
vt 0.726052 0.000085
vt 0.363069 0.000085
vt 0.000085 0.000085
vn 0.3150 0.8756 -0.3662
vn 0.2423 0.9414 0.2347
vn -0.0200 0.9774 0.2103
vn 0.0554 0.9092 -0.4126
usemtl Material.391
s off
f 33/25/7 30/26/7 28/27/7 32/28/7
f 31/29/8 26/30/8 30/26/8 33/25/8
f 25/31/9 31/29/9 33/25/9 29/32/9
f 29/32/10 33/25/10 32/28/10 27/33/10
o Plane.423_Plane.592
v -0.481502 7.424028 0.058810
v -0.300724 7.053370 1.377313
v 0.443684 7.332611 -0.093740
v 0.624462 6.961952 1.224763
v -0.000733 7.532923 0.000121
v 0.180045 7.162264 1.318624
v -0.379695 7.335815 0.729109
v 0.545490 7.244397 0.576558
v 0.101074 7.444709 0.670419
vt 0.363069 0.500000
vt 0.363069 0.999915
vt 0.000085 0.999915
vt 0.000085 0.500000
vt 0.726052 0.500000
vt 0.726052 0.999915
vt 0.726052 0.000085
vt 0.363069 0.000085
vt 0.000085 0.000085
vn 0.4444 0.8398 0.3118
vn -0.1535 0.8989 0.4104
vn -0.1998 0.9671 0.1576
vn 0.4200 0.9058 0.0554
usemtl Material.408
s off
f 42/34/11 39/35/11 37/36/11 41/37/11
f 40/38/12 35/39/12 39/35/12 42/34/12
f 34/40/13 40/38/13 42/34/13 38/41/13
f 38/41/14 42/34/14 41/37/14 36/42/14
o Plane.424_Plane.593
v 0.520700 7.028862 -0.075571
v 0.148775 6.490244 -1.532871
v -0.538582 7.138875 0.154113
v -0.910507 6.600256 -1.303186
v 0.000839 7.260408 -0.000182
v -0.371086 6.721790 -1.457481
v 0.340881 6.870448 -0.829004
v -0.718401 6.980460 -0.599319
v -0.178980 7.101994 -0.753614
vt 0.363069 0.500000
vt 0.363069 0.999915
vt 0.000085 0.999915
vt 0.000085 0.500000
vt 0.726052 0.500000
vt 0.726052 0.999915
vt 0.726052 0.000085
vt 0.363069 0.000085
vt 0.000085 0.000085
vn -0.3065 0.8700 -0.3863
vn 0.2855 0.8085 -0.5146
vn 0.3581 0.8928 -0.2732
vn -0.2556 0.9566 -0.1401
usemtl Material.420
s off
f 51/43/15 48/44/15 46/45/15 50/46/15
f 49/47/16 44/48/16 48/44/16 51/43/16
f 43/49/17 49/47/17 51/43/17 47/50/17
f 47/50/18 51/43/18 50/46/18 45/51/18
o Plane.425_Plane.594
v 0.234781 7.452306 -0.616591
v -1.500148 6.833636 -1.165727
v -0.156423 7.438999 0.634363
v -1.891352 6.820328 0.085226
v 0.000310 7.659888 -0.000991
v -1.734619 7.041218 -0.550127
v -0.657099 7.277545 -0.897363
v -1.048303 7.264237 0.353591
v -0.891571 7.485127 -0.281763
vt 0.363069 0.500000
vt 0.363069 0.999915
vt 0.000085 0.999915
vt 0.000085 0.500000
vt 0.726052 0.500000
vt 0.726052 0.999915
vt 0.726052 0.000085
vt 0.363069 0.000085
vt 0.000085 0.000085
vn -0.5012 0.8482 0.1713
vn -0.3195 0.8544 -0.4098
vn -0.0750 0.9359 -0.3442
vn -0.2634 0.9295 0.2582
usemtl Material.425
s off
f 60/52/19 57/53/19 55/54/19 59/55/19
f 58/56/20 53/57/20 57/53/20 60/52/20
f 52/58/21 58/56/21 60/52/21 56/59/21
f 56/59/22 60/52/22 59/55/22 54/60/22
o Plane.426_Plane.595
v 0.527414 7.201463 -0.407912
v -0.725534 6.146886 -1.526161
v -0.416020 7.300295 0.555960
v -1.668969 6.245718 -0.562289
v 0.000747 7.455710 -0.000763
v -1.252201 6.401134 -1.119012
v -0.133577 6.802841 -1.014015
v -1.077012 6.901673 -0.050143
v -0.660244 7.057088 -0.606866
vt 0.363069 0.500000
vt 0.363069 0.999915
vt 0.000085 0.999915
vt 0.000085 0.500000
vt 0.726052 0.500000
vt 0.726052 0.999915
vt 0.726052 0.000085
vt 0.363069 0.000085
vt 0.000085 0.000085
vn -0.6135 0.7490 -0.2502
vn -0.1888 0.7045 -0.6841
vn -0.0117 0.8413 -0.5405
vn -0.4520 0.8874 -0.0907
usemtl Material.427
s off
f 69/61/23 66/62/23 64/63/23 68/64/23
f 67/65/24 62/66/24 66/62/24 69/61/24
f 61/67/25 67/65/25 69/61/25 65/68/25
f 65/68/26 69/61/26 68/64/26 63/69/26
o Plane.427_Plane.596
v 0.500699 7.509704 0.240358
v 1.093488 6.928215 -1.096764
v -0.492887 7.387449 -0.146963
v 0.099901 6.805960 -1.484086
v 0.000787 7.620901 0.000307
v 0.593575 7.039412 -1.336816
v 0.795134 7.327207 -0.457344
v -0.198452 7.204951 -0.844665
v 0.295222 7.438403 -0.697396
vt 0.363069 0.500000
vt 0.363069 0.999915
vt 0.000085 0.999915
vt 0.000085 0.500000
vt 0.726052 0.500000
vt 0.726052 0.999915
vt 0.726052 0.000085
vt 0.363069 0.000085
vt 0.000085 0.000085
vn -0.1982 0.7874 -0.5838
vn 0.3654 0.8567 -0.3641
vn 0.2755 0.9521 -0.1328
vn -0.3087 0.8802 -0.3605
usemtl Material.430
s off
f 78/70/27 75/71/27 73/72/27 77/73/27
f 76/74/28 71/75/28 75/71/28 78/70/28
f 70/76/29 76/74/29 78/70/29 74/77/29
f 74/77/30 78/70/30 77/73/30 72/78/30
o Plane.428_Plane.597
v -0.473590 6.746115 -0.452189
v -1.710514 6.273201 0.953553
v 0.509865 6.776280 0.423310
v -0.727058 6.303367 1.829051
v -0.000779 6.978946 -0.000693
v -1.237702 6.506033 1.405048
v -1.103935 6.646439 0.259317
v -0.120479 6.676604 1.134815
v -0.631123 6.879270 0.710812
vt 0.363069 0.500000
vt 0.363069 0.999915
vt 0.000085 0.999915
vt 0.000085 0.500000
vt 0.726052 0.500000
vt 0.726052 0.999915
vt 0.726052 0.000085
vt 0.363069 0.000085
vt 0.000085 0.000085
vn -0.0255 0.8896 0.4560
vn -0.4802 0.8757 0.0513
vn -0.3176 0.9362 -0.1502
vn 0.1537 0.9507 0.2693
usemtl Material.437
s off
f 87/79/31 84/80/31 82/81/31 86/82/31
f 85/83/32 80/84/32 84/80/32 87/79/32
f 79/85/33 85/83/33 87/79/33 83/86/33
f 83/86/34 87/79/34 86/82/34 81/87/34
o Plane.429_Plane.598
v -0.295527 7.267696 0.375397
v 0.802350 7.147680 1.268453
v 0.317865 7.309510 -0.373057
v 1.415742 7.189495 0.519999
v -0.000486 7.449241 0.000593
v 1.097391 7.329225 0.893649
v 0.246090 7.308594 0.821562
v 0.859483 7.350408 0.073109
v 0.541132 7.490139 0.446758
vt 0.363069 0.500000
vt 0.363069 0.999915
vt 0.000085 0.999915
vt 0.000085 0.500000
vt 0.726052 0.500000
vt 0.726052 0.999915
vt 0.726052 0.000085
vt 0.363069 0.000085
vt 0.000085 0.000085
vn 0.3296 0.9414 -0.0713
vn -0.0560 0.9152 0.3992
vn -0.2685 0.9328 0.2404
vn 0.1312 0.9600 -0.2472
usemtl Material.440
s off
f 96/88/35 93/89/35 91/90/35 95/91/35
f 94/92/36 89/93/36 93/89/36 96/88/36
f 88/94/37 94/92/37 96/88/37 92/95/37
f 92/95/38 96/88/38 95/91/38 90/96/38
o Plane.436_Plane.599
v -0.276564 6.658394 0.825040
v 1.945914 6.005685 1.593044
v 0.177915 6.356045 -0.747109
v 2.400393 5.703336 0.020894
v -0.000360 6.776959 0.001245
v 2.222118 6.124249 0.769249
v 0.865432 6.501479 1.185348
v 1.319912 6.199130 -0.386802
v 1.141637 6.620043 0.361553
vt 0.363069 0.500000
vt 0.363069 0.999915
vt 0.000085 0.999915
vt 0.000085 0.500000
vt 0.726052 0.500000
vt 0.726052 0.999915
vt 0.726052 0.000085
vt 0.363069 0.000085
vt 0.000085 0.000085
vn 0.4943 0.8027 -0.3337
vn 0.3280 0.9133 0.2414
vn 0.0817 0.9823 0.1688
vn 0.2541 0.8676 -0.4275
usemtl Material.441
s off
f 105/97/39 102/98/39 100/99/39 104/100/39
f 103/101/40 98/102/40 102/98/40 105/97/40
f 97/103/41 103/101/41 105/97/41 101/104/41
f 101/104/42 105/97/42 104/100/42 99/105/42
o Plane.469_Plane.600
v -0.691508 6.331482 -0.364984
v -1.379743 5.284939 1.628176
v 0.794220 6.478375 0.225164
v 0.105985 5.431831 2.218323
v -0.001177 6.657274 -0.000467
v -0.689411 5.610731 1.992693
v -1.068624 5.966724 0.675217
v 0.417104 6.113616 1.265365
v -0.378293 6.292516 1.039734
vt 0.363069 0.500000
vt 0.363069 0.999915
vt 0.000085 0.999915
vt 0.000085 0.500000
vt 0.726052 0.500000
vt 0.726052 0.999915
vt 0.726052 0.000085
vt 0.363069 0.000085
vt 0.000085 0.000085
vn 0.0163 0.8107 0.5853
vn -0.5472 0.7549 0.3615
vn -0.4788 0.8681 0.1308
vn 0.1053 0.9259 0.3629
usemtl Material.442
s off
f 114/106/43 111/107/43 109/108/43 113/109/43
f 112/110/44 107/111/44 111/107/44 114/106/44
f 106/112/45 112/110/45 114/106/45 110/113/45
f 110/113/46 114/106/46 113/109/46 108/114/46
o Plane.478_Plane.601
v 0.716675 6.435183 0.267269
v 1.225987 5.557578 -1.783972
v -0.782797 6.543920 -0.151564
v -0.273484 5.666315 -2.202805
v 0.001188 6.740278 0.000332
v 0.510500 5.862674 -2.050909
v 0.992845 6.153877 -0.794483
v -0.506627 6.262614 -1.213317
v 0.277358 6.458972 -1.061421
vt 0.363069 0.500000
vt 0.363069 0.999915
vt 0.000085 0.999915
vt 0.000085 0.500000
vt 0.726052 0.500000
vt 0.726052 0.999915
vt 0.726052 0.000085
vt 0.363069 0.000085
vt 0.000085 0.000085
vn -0.1074 0.8401 -0.5316
vn 0.4775 0.7977 -0.3682
vn 0.4284 0.8948 -0.1256
vn -0.1780 0.9388 -0.2950
usemtl Material.443
s off
f 123/115/47 120/116/47 118/117/47 122/118/47
f 121/119/48 116/120/48 120/116/48 123/115/48
f 115/121/49 121/119/49 123/115/49 119/122/49
f 119/122/50 123/115/50 122/118/50 117/123/50
o Plane.479_Plane.614
v 0.549549 7.174771 -0.154199
v 0.115567 6.759868 -1.658412
v -0.494938 7.048419 0.181998
v -0.928920 6.633517 -1.322215
v 0.000827 7.292785 -0.000266
v -0.433154 6.877882 -1.504479
v 0.315925 7.081135 -0.915204
v -0.728561 6.954784 -0.579007
v -0.232796 7.199149 -0.761271
vt 0.363069 0.500000
vt 0.363069 0.999915
vt 0.000085 0.999915
vt 0.000085 0.500000
vt 0.726052 0.500000
vt 0.726052 0.999915
vt 0.726052 0.000085
vt 0.363069 0.000085
vt 0.000085 0.000085
vn -0.4966 0.8374 -0.2281
vn 0.0791 0.9071 -0.4134
vn 0.1616 0.9722 -0.1692
vn -0.4352 0.9000 0.0229
usemtl Material.444
s off
f 132/124/51 129/125/51 127/126/51 131/127/51
f 130/128/52 125/129/52 129/125/52 132/124/52
f 124/130/53 130/128/53 132/124/53 128/131/53
f 128/131/54 132/124/54 131/127/54 126/132/54
o Plane.480_Plane.617
v -0.003253 5.983752 -0.807440
v -2.137676 4.884984 -0.466420
v 0.184730 6.126539 0.829199
v -1.949693 5.027771 1.170219
v -0.000149 6.314365 -0.001296
v -2.134572 5.215597 0.339723
v -1.127556 5.597198 -0.644578
v -0.939573 5.739986 0.992060
v -1.124452 5.927812 0.161565
vt 0.363069 0.500000
vt 0.363069 0.999915
vt 0.000085 0.999915
vt 0.000085 0.500000
vt 0.726052 0.500000
vt 0.726052 0.999915
vt 0.726052 0.000085
vt 0.363069 0.000085
vt 0.000085 0.000085
vn -0.5148 0.8044 0.2965
vn -0.5841 0.7518 -0.3061
vn -0.3495 0.8673 -0.3544
vn -0.2778 0.9218 0.2703
usemtl Material.445
s off
f 141/133/55 138/134/55 136/135/55 140/136/55
f 139/137/56 134/138/56 138/134/56 141/133/56
f 133/139/57 139/137/57 141/133/57 137/140/57
f 137/140/58 141/133/58 140/136/58 135/141/58
o Plane.481_Plane.618
v 0.825360 6.651331 0.195905
v 1.179367 5.787815 -2.130968
v -0.860576 6.709570 -0.082204
v -0.506569 5.846054 -2.409076
v 0.001335 6.958404 0.000220
v 0.355343 6.094887 -2.326652
v 1.014263 6.394172 -1.003104
v -0.671673 6.452410 -1.281213
v 0.190238 6.701244 -1.198788
vt 0.363069 0.500000
vt 0.363069 0.999915
vt 0.000085 0.999915
vt 0.000085 0.500000
vt 0.726052 0.500000
vt 0.726052 0.999915
vt 0.726052 0.000085
vt 0.363069 0.000085
vt 0.000085 0.000085
vn -0.1991 0.8507 -0.4865
vn 0.4013 0.8300 -0.3875
vn 0.3744 0.9170 -0.1377
vn -0.2480 0.9385 -0.2403
usemtl Material.446
s off
f 150/142/59 147/143/59 145/144/59 149/145/59
f 148/146/60 143/147/60 147/143/60 150/142/60
f 142/148/61 148/146/61 150/142/61 146/149/61
f 146/149/62 150/142/62 149/145/62 144/150/62
o Plane.482_Plane.619
v -0.424268 6.189461 0.246999
v 0.255893 5.787242 1.389091
v 0.363347 6.068079 -0.264805
v 1.043508 5.665862 0.877286
v -0.000624 6.283125 0.000405
v 0.679537 5.880907 1.142497
v -0.065446 6.085311 0.823892
v 0.722170 5.963930 0.312088
v 0.358199 6.178976 0.577298
vt 0.363069 0.500000
vt 0.363069 0.999915
vt 0.000085 0.999915
vt 0.000085 0.500000
vt 0.726052 0.500000
vt 0.726052 0.999915
vt 0.726052 0.000085
vt 0.363069 0.000085
vt 0.000085 0.000085
vn 0.5641 0.8182 0.1108
vn 0.0578 0.8962 0.4398
vn -0.0827 0.9705 0.2266
vn 0.4422 0.8896 -0.1144
usemtl Material.447
s off
f 159/151/63 156/152/63 154/153/63 158/154/63
f 157/155/64 152/156/64 156/152/64 159/151/64
f 151/157/65 157/155/65 159/151/65 155/158/65
f 155/158/66 159/151/66 158/154/66 153/159/66
o Plane.483_Plane.620
v 0.022718 6.889925 0.490467
v 1.430625 6.916766 0.497429
v 0.028671 6.826229 -0.467724
v 1.436578 6.853069 -0.460761
v -0.000005 7.015323 0.000759
v 1.407902 7.042163 0.007722
v 0.710528 7.002120 0.487282
v 0.716481 6.938424 -0.470909
v 0.687806 7.127518 -0.002426
vt 0.363069 0.500000
vt 0.363069 0.999915
vt 0.000085 0.999915
vt 0.000085 0.500000
vt 0.726052 0.500000
vt 0.726052 0.999915
vt 0.726052 0.000085
vt 0.363069 0.000085
vt 0.000085 0.000085
vn 0.1146 0.9236 -0.3658
vn 0.1109 0.9640 0.2417
vn -0.1547 0.9553 0.2518
vn -0.1508 0.9135 -0.3779
usemtl Material.448
s off
f 168/160/67 165/161/67 163/162/67 167/163/67
f 166/164/68 161/165/68 165/161/68 168/160/68
f 160/166/69 166/164/69 168/160/69 164/167/69
f 164/167/70 168/160/70 167/163/70 162/168/70
o Plane.484_Plane.621
v -0.399285 6.166996 0.684697
v 1.728349 5.316904 1.579143
v 0.326919 6.415290 -0.806756
v 2.454553 5.565197 0.087690
v -0.000575 6.560686 0.001181
v 2.127059 5.710593 0.895627
v 0.686899 5.911265 1.170998
v 1.413103 6.159559 -0.320455
v 1.085610 6.304955 0.487483
vt 0.363069 0.500000
vt 0.363069 0.999915
vt 0.000085 0.999915
vt 0.000085 0.500000
vt 0.726052 0.500000
vt 0.726052 0.999915
vt 0.726052 0.000085
vt 0.363069 0.000085
vt 0.000085 0.000085
vn 0.4838 0.8743 0.0388
vn 0.2202 0.7842 0.5801
vn -0.0155 0.8703 0.4923
vn 0.2578 0.9637 -0.0689
usemtl Material.449
s off
f 177/169/71 174/170/71 172/171/71 176/172/71
f 175/173/72 170/174/72 174/170/72 177/169/72
f 169/175/73 175/173/73 177/169/73 173/176/73
f 173/176/74 177/169/74 176/172/74 171/177/74
o Plane.485_Plane.622
v -0.629360 5.882370 -0.052873
v -0.787090 5.541821 1.701304
v 0.583541 5.745800 0.029674
v 0.425811 5.405252 1.783851
v -0.000961 6.015991 -0.000065
v -0.158690 5.675442 1.754112
v -0.694437 5.838924 0.831461
v 0.518463 5.702355 0.914008
v -0.066038 5.972545 0.884269
vt 0.363069 0.500000
vt 0.363069 0.999915
vt 0.000085 0.999915
vt 0.000085 0.500000
vt 0.726052 0.500000
vt 0.726052 0.999915
vt 0.726052 0.000085
vt 0.363069 0.000085
vt 0.000085 0.000085
vn 0.3813 0.8617 0.3349
vn -0.2224 0.9296 0.2938
vn -0.2105 0.9771 0.0325
vn 0.4153 0.9066 0.0751
usemtl Material.450
s off
f 186/178/75 183/179/75 181/180/75 185/181/75
f 184/182/76 179/183/76 183/179/76 186/178/76
f 178/184/77 184/182/77 186/178/77 182/185/77
f 182/185/78 186/178/78 185/181/78 180/186/78
o Plane.486_Plane.623
v 0.752729 5.764941 0.284784
v 1.457995 5.052781 -1.796175
v -0.746145 5.665395 -0.189139
v -0.040879 4.953235 -2.270097
v 0.001187 5.972748 0.000375
v 0.706454 5.260588 -2.080583
v 1.104040 5.570662 -0.785500
v -0.394834 5.471116 -1.259422
v 0.352498 5.778469 -1.069908
vt 0.363069 0.500000
vt 0.363069 0.999915
vt 0.000085 0.999915
vt 0.000085 0.500000
vt 0.726052 0.500000
vt 0.726052 0.999915
vt 0.726052 0.000085
vt 0.363069 0.000085
vt 0.000085 0.000085
vn -0.2160 0.8362 -0.5041
vn 0.3633 0.8746 -0.3209
vn 0.2927 0.9531 -0.0769
vn -0.3079 0.9132 -0.2668
usemtl Material.451
s off
f 195/187/79 192/188/79 190/189/79 194/190/79
f 193/191/80 188/192/80 192/188/80 195/187/80
f 187/193/81 193/191/81 195/187/81 191/194/81
f 191/194/82 195/187/82 194/190/82 189/195/82
o Plane.487_Plane.624
v 0.159846 5.791897 -0.667327
v -1.614475 5.086488 -1.038063
v -0.052117 5.641431 0.633410
v -1.826438 4.936022 0.262674
v 0.000168 5.930000 -0.001030
v -1.774153 5.224591 -0.371767
v -0.761044 5.573202 -0.842690
v -0.973007 5.422735 0.458047
v -0.920723 5.711305 -0.176393
vt 0.363069 0.500000
vt 0.363069 0.999915
vt 0.000085 0.999915
vt 0.000085 0.500000
vt 0.726052 0.500000
vt 0.726052 0.999915
vt 0.726052 0.000085
vt 0.363069 0.000085
vt 0.000085 0.000085
vn -0.5236 0.7910 0.3166
vn -0.4263 0.8600 -0.2804
vn -0.1806 0.9536 -0.2409
vn -0.2814 0.8820 0.3780
usemtl Material.452
s off
f 204/196/83 201/197/83 199/198/83 203/199/83
f 202/200/84 197/201/84 201/197/84 204/196/84
f 196/202/85 202/200/85 204/196/85 200/203/85
f 200/203/86 204/196/86 203/199/86 198/204/86
o Plane.488_Plane.625
v 0.297513 6.388561 -0.452776
v -0.984938 6.233412 -1.331143
v -0.299301 6.335040 0.428049
v -1.581752 6.179891 -0.450319
v 0.000473 6.538554 -0.000698
v -1.281978 6.383405 -0.879065
v -0.342854 6.422016 -0.884632
v -0.939668 6.368495 -0.003807
v -0.639894 6.572009 -0.432553
vt 0.363069 0.500000
vt 0.363069 0.999915
vt 0.000085 0.999915
vt 0.000085 0.500000
vt 0.726052 0.500000
vt 0.726052 0.999915
vt 0.726052 0.000085
vt 0.363069 0.000085
vt 0.000085 0.000085
vn -0.3817 0.9095 0.1648
vn -0.0407 0.9400 -0.3386
vn 0.1841 0.9627 -0.1984
vn -0.1695 0.9310 0.3234
usemtl Material.453
s off
f 213/205/87 210/206/87 208/207/87 212/208/87
f 211/209/88 206/210/88 210/206/88 213/205/88
f 205/211/89 211/209/89 213/205/89 209/212/89
f 209/212/90 213/205/90 212/208/90 207/213/90
o Plane.489_Plane.626
v 0.407636 5.712152 0.527346
v 1.986760 5.346106 -0.804603
v -0.468853 5.952178 -0.577762
v 1.110271 5.586132 -1.909711
v 0.000694 6.066562 0.000875
v 1.579819 5.700516 -1.331074
v 1.216861 5.676367 -0.122245
v 0.340372 5.916394 -1.227352
v 0.809920 6.030777 -0.648715
vt 0.363069 0.500000
vt 0.363069 0.999915
vt 0.000085 0.999915
vt 0.000085 0.500000
vt 0.726052 0.500000
vt 0.726052 0.999915
vt 0.726052 0.000085
vt 0.363069 0.000085
vt 0.000085 0.000085
vn 0.1393 0.9438 -0.2996
vn 0.5123 0.8417 0.1706
vn 0.3182 0.8819 0.3478
vn -0.0685 0.9878 -0.1397
usemtl Material.454
s off
f 222/214/91 219/215/91 217/216/91 221/217/91
f 220/218/92 215/219/92 219/215/92 222/214/92
f 214/220/93 220/218/93 222/214/93 218/221/93
f 218/221/94 222/214/94 221/217/94 216/222/94
o Plane.490_Plane.627
v -0.519163 5.997472 -0.580900
v -2.014307 5.202616 0.841883
v 0.558562 5.837079 0.462031
v -0.936581 5.042222 1.884814
v -0.000854 6.160264 -0.000826
v -1.495997 5.365409 1.421957
v -1.279645 5.752680 0.167307
v -0.201920 5.592286 1.210238
v -0.761336 5.915473 0.747381
vt 0.363069 0.500000
vt 0.363069 0.999915
vt 0.000085 0.999915
vt 0.000085 0.500000
vt 0.726052 0.500000
vt 0.726052 0.999915
vt 0.726052 0.000085
vt 0.363069 0.000085
vt 0.000085 0.000085
vn -0.0406 0.7956 0.6045
vn -0.4756 0.8603 0.1835
vn -0.3033 0.9529 0.0035
vn 0.1477 0.8858 0.4400
usemtl Material.455
s off
f 231/223/95 228/224/95 226/225/95 230/226/95
f 229/227/96 224/228/96 228/224/96 231/223/96
f 223/229/97 229/227/97 231/223/97 227/230/97
f 227/230/98 231/223/98 230/226/98 225/231/98
o Plane.491_Plane.628
v -0.317721 5.690391 0.851974
v 2.090554 4.910201 1.623604
v 0.225119 5.663875 -0.869052
v 2.633394 4.883685 -0.097422
v -0.000430 5.973547 0.001363
v 2.407845 5.193357 0.772993
v 0.915231 5.486491 1.244009
v 1.458071 5.459975 -0.477017
v 1.232522 5.769648 0.393398
vt 0.363069 0.500000
vt 0.363069 0.999915
vt 0.000085 0.999915
vt 0.000085 0.500000
vt 0.726052 0.500000
vt 0.726052 0.999915
vt 0.726052 0.000085
vt 0.363069 0.000085
vt 0.000085 0.000085
vn 0.4795 0.8586 -0.1812
vn 0.2964 0.8676 0.3994
vn 0.0501 0.9419 0.3322
vn 0.2400 0.9326 -0.2696
usemtl Material.464
s off
f 240/232/99 237/233/99 235/234/99 239/235/99
f 238/236/100 233/237/100 237/233/100 240/232/100
f 232/238/101 238/236/101 240/232/101 236/239/101
f 236/239/102 240/232/102 239/235/102 234/240/102
o Plane.492_Plane.629
v -0.637389 5.210861 0.220021
v 0.211155 4.717206 2.148315
v 0.711808 5.510716 -0.296927
v 1.560352 5.017061 1.631367
v -0.001069 5.600019 0.000409
v 0.847475 5.106365 1.928704
v -0.237162 5.114308 1.208580
v 1.112035 5.414164 0.691632
v 0.399159 5.503467 0.988969
vt 0.363069 0.500000
vt 0.363069 0.999915
vt 0.000085 0.999915
vt 0.000085 0.500000
vt 0.726052 0.500000
vt 0.726052 0.999915
vt 0.726052 0.000085
vt 0.363069 0.000085
vt 0.000085 0.000085
vn 0.2340 0.9306 0.2816
vn -0.3227 0.8068 0.4949
vn -0.4366 0.8610 0.2608
vn 0.1405 0.9893 0.0397
usemtl Material.465
s off
f 249/241/103 246/242/103 244/243/103 248/244/103
f 247/245/104 242/246/104 246/242/104 249/241/104
f 241/247/105 247/245/105 249/241/105 245/248/105
f 245/248/106 249/241/106 248/244/106 243/249/106
o Plane.493_Plane.654
v -0.756820 5.210705 -0.749819
v -2.420795 3.470968 1.001962
v 0.857710 4.852575 0.428117
v -0.806265 3.112838 2.179898
v -0.001279 5.324449 -0.000933
v -1.665254 3.584712 1.750848
v -1.621298 4.524767 0.226525
v -0.006768 4.166637 1.404461
v -0.865757 4.638511 0.975411
vt 0.363069 0.500000
vt 0.363069 0.999915
vt 0.000085 0.999915
vt 0.000085 0.500000
vt 0.726052 0.500000
vt 0.726052 0.999915
vt 0.726052 0.000085
vt 0.363069 0.000085
vt 0.000085 0.000085
vn -0.0528 0.6175 0.7848
vn -0.5369 0.7249 0.4316
vn -0.3963 0.8786 0.2664
vn 0.1056 0.7673 0.6325
usemtl Material.466
s off
f 258/250/107 255/251/107 253/252/107 257/253/107
f 256/254/108 251/255/108 255/251/108 258/250/108
f 250/256/109 256/254/109 258/250/109 254/257/109
f 254/257/110 258/250/110 257/253/110 252/258/110
o Plane.494_Plane.655
v 0.611017 5.008767 0.817119
v 2.780663 4.075689 -0.793405
v -0.628692 4.646632 -0.643169
v 1.540955 3.713554 -2.253692
v 0.000982 5.140143 0.001157
v 2.170628 4.207065 -1.609367
v 1.702008 4.738492 -0.042050
v 0.462300 4.376357 -1.502338
v 1.091973 4.869868 -0.858013
vt 0.363069 0.500000
vt 0.363069 0.999915
vt 0.000085 0.999915
vt 0.000085 0.500000
vt 0.726052 0.500000
vt 0.726052 0.999915
vt 0.726052 0.000085
vt 0.363069 0.000085
vt 0.000085 0.000085
vn 0.0373 0.7754 -0.6304
vn 0.4245 0.8885 -0.1743
vn 0.2294 0.9732 -0.0148
vn -0.1719 0.8560 -0.4876
usemtl Material.467
s off
f 267/259/111 264/260/111 262/261/111 266/262/111
f 265/263/112 260/264/112 264/260/112 267/259/112
f 259/265/113 265/263/113 267/259/113 263/266/113
f 263/266/114 267/259/114 266/262/114 261/267/114
o Plane.507_Plane.656
v 0.546086 4.775170 -0.128787
v 0.203033 4.724264 -1.856080
v -0.617257 4.973699 0.096411
v -0.960310 4.922792 -1.630882
v 0.000921 5.070198 -0.000178
v -0.342132 5.019292 -1.727471
v 0.397492 4.872688 -0.982377
v -0.765852 5.071216 -0.757179
v -0.147673 5.167716 -0.853768
vt 0.363069 0.500000
vt 0.363069 0.999915
vt 0.000085 0.999915
vt 0.000085 0.500000
vt 0.726052 0.500000
vt 0.726052 0.999915
vt 0.726052 0.000085
vt 0.363069 0.000085
vt 0.000085 0.000085
vn -0.1724 0.9767 -0.1276
vn 0.4171 0.8761 -0.2417
vn 0.4790 0.8777 0.0169
vn -0.1322 0.9820 0.1352
usemtl Material.468
s off
f 276/268/115 273/269/115 271/270/115 275/271/115
f 274/272/116 269/273/116 273/269/116 276/268/116
f 268/274/117 274/272/117 276/268/117 272/275/117
f 272/275/118 276/268/118 275/271/118 270/276/118
o Plane.510_Plane.657
v -0.120119 5.785393 -0.946391
v -2.232059 4.192989 -0.676378
v 0.374976 5.417892 0.758714
v -1.736965 3.825489 1.028728
v -0.000392 5.858563 -0.001350
v -2.112333 4.266160 0.268663
v -1.256381 5.150578 -0.753288
v -0.761286 4.783078 0.951818
v -1.136654 5.223749 0.191753
vt 0.363069 0.500000
vt 0.363069 0.999915
vt 0.000085 0.999915
vt 0.000085 0.500000
vt 0.726052 0.500000
vt 0.726052 0.999915
vt 0.726052 0.000085
vt 0.363069 0.000085
vt 0.000085 0.000085
vn -0.5325 0.5912 0.6057
vn -0.6987 0.7146 0.0332
vn -0.4885 0.8726 -0.0057
vn -0.3161 0.7446 0.5879
usemtl Material.469
s off
f 285/277/119 282/278/119 280/279/119 284/280/119
f 283/281/120 278/282/120 282/278/120 285/277/120
f 277/283/121 283/281/121 285/277/121 281/284/121
f 281/284/122 285/277/122 284/280/122 279/285/122
o Plane.511_Plane.658
v 0.547599 5.207482 0.402465
v 1.682698 4.852329 -1.108362
v -0.510800 5.036037 -0.352418
v 0.624299 4.680884 -1.863245
v 0.000838 5.337717 0.000598
v 1.135938 4.982564 -1.510229
v 1.104117 5.165561 -0.368291
v 0.045718 4.994116 -1.123175
v 0.557357 5.295796 -0.770159
vt 0.363069 0.500000
vt 0.363069 0.999915
vt 0.000085 0.999915
vt 0.000085 0.500000
vt 0.726052 0.500000
vt 0.726052 0.999915
vt 0.726052 0.000085
vt 0.363069 0.000085
vt 0.000085 0.000085
vn -0.1653 0.8552 -0.4912
vn 0.3261 0.9348 -0.1407
vn 0.1783 0.9811 0.0754
vn -0.3311 0.8986 -0.2880
usemtl Material.470
s off
f 294/286/123 291/287/123 289/288/123 293/289/123
f 292/290/124 287/291/124 291/287/124 294/286/124
f 286/292/125 292/290/125 294/286/125 290/293/125
f 290/293/126 294/286/126 293/289/126 288/294/126
o Plane.512_Plane.659
v -0.674360 5.374990 0.351888
v 0.211368 4.460668 2.053294
v 0.514172 5.082695 -0.423922
v 1.399901 4.168372 1.277484
v -0.000941 5.453465 0.000614
v 0.884787 4.539144 1.702021
v -0.181775 5.058928 1.225602
v 1.006757 4.766633 0.449791
v 0.491643 5.137403 0.874328
vt 0.363069 0.500000
vt 0.363069 0.999915
vt 0.000085 0.999915
vt 0.000085 0.500000
vt 0.726052 0.500000
vt 0.726052 0.999915
vt 0.726052 0.000085
vt 0.363069 0.000085
vt 0.000085 0.000085
vn 0.6738 0.7127 0.1951
vn 0.1744 0.8355 0.5211
vn 0.0529 0.9482 0.3132
vn 0.5705 0.8209 -0.0247
usemtl Material.471
s off
f 303/295/127 300/296/127 298/297/127 302/298/127
f 301/299/128 296/300/128 300/296/128 303/295/128
f 295/301/129 301/299/129 303/295/129 299/302/129
f 299/302/130 303/295/130 302/298/130 297/303/130
o Plane.513_Plane.660
v 0.031241 4.844798 0.644707
v 1.836638 4.884522 0.643576
v 0.035874 4.599834 -0.562183
v 1.841271 4.639559 -0.563315
v -0.000004 4.920264 0.000956
v 1.805393 4.959988 -0.000176
v 0.912857 4.989003 0.618823
v 0.917491 4.744039 -0.588068
v 0.881613 5.064468 -0.024929
vt 0.363069 0.500000
vt 0.363069 0.999915
vt 0.000085 0.999915
vt 0.000085 0.500000
vt 0.726052 0.500000
vt 0.726052 0.999915
vt 0.726052 0.000085
vt 0.363069 0.000085
vt 0.000085 0.000085
vn 0.1111 0.8668 -0.4861
vn 0.1088 0.9879 0.1105
vn -0.1567 0.9800 0.1225
vn -0.1543 0.8545 -0.4960
usemtl Material.472
s off
f 312/304/131 309/305/131 307/306/131 311/307/131
f 310/308/132 305/309/132 309/305/132 312/304/132
f 304/310/133 310/308/133 312/304/133 308/311/133
f 308/311/134 312/304/134 311/307/134 306/312/134
o Plane.514_Plane.661
v 0.428091 4.600220 0.695520
v 2.288557 3.862475 -0.590108
v -0.499072 4.581556 -0.635492
v 1.361393 3.843812 -1.921120
v 0.000734 4.856616 0.001054
v 1.861200 4.118872 -1.284574
v 1.381079 4.398267 0.034515
v 0.453915 4.379604 -1.296497
v 0.953722 4.654664 -0.659951
vt 0.363069 0.500000
vt 0.363069 0.999915
vt 0.000085 0.999915
vt 0.000085 0.500000
vt 0.726052 0.500000
vt 0.726052 0.999915
vt 0.726052 0.000085
vt 0.363069 0.000085
vt 0.000085 0.000085
vn 0.1622 0.8530 -0.4960
vn 0.5102 0.8600 0.0035
vn 0.3078 0.9384 0.1570
vn -0.0529 0.9311 -0.3608
usemtl Material.473
s off
f 321/313/135 318/314/135 316/315/135 320/316/135
f 319/317/136 314/318/136 318/314/136 321/313/136
f 313/319/137 319/317/137 321/313/137 317/320/137
f 317/320/138 321/313/138 320/316/138 315/321/138
o Plane.515_Plane.662
v -0.772172 4.205150 0.036628
v -0.345831 3.365624 2.275729
v 0.847086 4.490567 -0.164676
v 1.273427 3.651041 2.074424
v -0.001282 4.612906 0.000159
v 0.425059 3.773381 2.239260
v -0.583336 3.951879 1.196496
v 1.035922 4.237296 0.995191
v 0.187554 4.359635 1.160027
vt 0.363069 0.500000
vt 0.363069 0.999915
vt 0.000085 0.999915
vt 0.000085 0.500000
vt 0.726052 0.500000
vt 0.726052 0.999915
vt 0.726052 0.000085
vt 0.363069 0.000085
vt 0.000085 0.000085
vn 0.2102 0.8777 0.4305
vn -0.3849 0.7728 0.5045
vn -0.4419 0.8587 0.2595
vn 0.1750 0.9675 0.1828
usemtl Material.474
s off
f 330/322/139 327/323/139 325/324/139 329/325/139
f 328/326/140 323/327/140 327/323/140 330/322/140
f 322/328/141 328/326/141 330/322/141 326/329/141
f 326/329/142 330/322/142 329/325/142 324/330/142
o Plane.516_Plane.663
v 0.921470 4.514865 0.222251
v 1.535619 3.724109 -2.236643
v -0.826027 4.171154 -0.103681
v -0.211877 3.380397 -2.562575
v 0.001384 4.634571 0.000258
v 0.615534 3.843814 -2.458635
v 1.199437 4.302633 -1.044274
v -0.548059 3.958922 -1.370206
v 0.279352 4.422339 -1.266267
vt 0.363069 0.500000
vt 0.363069 0.999915
vt 0.000085 0.999915
vt 0.000085 0.500000
vt 0.726052 0.500000
vt 0.726052 0.999915
vt 0.726052 0.000085
vt 0.363069 0.000085
vt 0.000085 0.000085
vn -0.3790 0.7861 -0.4883
vn 0.2087 0.9017 -0.3787
vn 0.1585 0.9789 -0.1292
vn -0.4506 0.8590 -0.2429
usemtl Material.475
s off
f 339/331/143 336/332/143 334/333/143 338/334/143
f 337/335/144 332/336/144 336/332/144 339/331/144
f 331/337/145 337/335/145 339/331/145 335/338/145
f 335/338/146 339/331/146 338/334/146 333/339/146
o Plane.517_Plane.664
v 0.385454 3.900637 -0.994420
v -2.308310 2.737426 -1.867868
v -0.210498 3.780961 1.002908
v -2.904262 2.617750 0.129459
v 0.000472 4.176829 -0.001582
v -2.693292 3.013618 -0.875031
v -1.016081 3.530112 -1.434804
v -1.612034 3.410436 0.562524
v -1.401063 3.806304 -0.441966
vt 0.363069 0.500000
vt 0.363069 0.999915
vt 0.000085 0.999915
vt 0.000085 0.500000
vt 0.726052 0.500000
vt 0.726052 0.999915
vt 0.726052 0.000085
vt 0.363069 0.000085
vt 0.000085 0.000085
vn -0.5601 0.8041 0.1993
vn -0.3863 0.8390 -0.3832
vn -0.1477 0.9366 -0.3178
vn -0.3279 0.9004 0.2860
usemtl Material.476
s off
f 348/340/147 345/341/147 343/342/147 347/343/147
f 346/344/148 341/345/148 345/341/148 348/340/148
f 340/346/149 346/344/149 348/340/149 344/347/149
f 344/347/150 348/340/150 347/343/150 342/348/150
o Plane.518_Plane.665
v 0.332147 4.217023 -0.545794
v -1.398714 3.982410 -1.569908
v -0.384307 4.465585 0.608146
v -2.115168 4.230972 -0.415968
v 0.000567 4.567090 -0.000914
v -1.730294 4.332477 -1.025028
v -0.516545 4.241546 -1.078009
v -1.232999 4.490108 0.075931
v -0.848124 4.591613 -0.533129
vt 0.363069 0.500000
vt 0.363069 0.999915
vt 0.000085 0.999915
vt 0.000085 0.500000
vt 0.726052 0.500000
vt 0.726052 0.999915
vt 0.726052 0.000085
vt 0.363069 0.000085
vt 0.000085 0.000085
vn -0.2749 0.9614 -0.0135
vn 0.0410 0.8518 -0.5223
vn 0.2739 0.8763 -0.3963
vn -0.0536 0.9899 0.1311
usemtl Material.477
s off
f 357/349/151 354/350/151 352/351/151 356/352/151
f 355/353/152 350/354/152 354/350/152 357/349/152
f 349/355/153 355/353/153 357/349/153 353/356/153
f 353/356/154 357/349/154 356/352/154 351/357/154
o Plane.519_Plane.666
v 0.583830 3.732230 0.760223
v 2.798933 3.763497 -0.779867
v -0.450862 3.444524 -0.733811
v 1.764241 3.475791 -2.273900
v 0.000819 3.886961 0.001183
v 2.215923 3.918227 -1.538906
v 1.650134 3.935421 -0.017374
v 0.615442 3.647715 -1.511408
v 1.067124 4.090152 -0.776413
vt 0.363069 0.500000
vt 0.363069 0.999915
vt 0.000085 0.999915
vt 0.000085 0.500000
vt 0.726052 0.500000
vt 0.726052 0.999915
vt 0.726052 0.000085
vt 0.363069 0.000085
vt 0.000085 0.000085
vn -0.1572 0.8858 -0.4366
vn 0.1852 0.9810 0.0578
vn -0.0262 0.9754 0.2190
vn -0.3811 0.8767 -0.2935
usemtl Material.478
s off
f 366/358/155 363/359/155 361/360/155 365/361/155
f 364/362/156 359/363/156 363/359/156 366/358/156
f 358/364/157 364/362/157 366/358/157 362/365/157
f 362/365/158 366/358/158 365/361/158 360/366/158
o Plane.520_Plane.667
v -0.601676 3.760606 -0.937517
v -2.200967 1.514781 0.842660
v 0.942067 3.938033 0.673203
v -0.657224 1.692208 2.453379
v -0.001223 4.152610 -0.001276
v -1.600513 1.906785 1.778901
v -1.508999 2.828208 0.034786
v 0.034744 3.005635 1.645505
v -0.908545 3.220212 0.971027
vt 0.363069 0.500000
vt 0.363069 0.999915
vt 0.000085 0.999915
vt 0.000085 0.500000
vt 0.726052 0.500000
vt 0.726052 0.999915
vt 0.726052 0.000085
vt 0.363069 0.000085
vt 0.000085 0.000085
vn -0.3589 0.6189 0.6987
vn -0.7788 0.5706 0.2606
vn -0.6547 0.7483 0.1066
vn -0.2194 0.7983 0.5608
usemtl Material.479
s off
f 375/367/159 372/368/159 370/369/159 374/370/159
f 373/371/160 368/372/160 372/368/160 375/367/160
f 367/373/161 373/371/161 375/367/161 371/374/161
f 371/374/162 375/367/162 374/370/162 369/375/162
o Plane.521_Plane.668
v -0.997825 3.447932 0.533699
v 0.747037 2.028175 3.020857
v 0.901613 3.559528 -0.735145
v 2.646474 2.139771 1.752013
v -0.001504 3.867180 0.001005
v 1.743358 2.447424 2.488163
v -0.096121 2.966358 1.841179
v 1.803317 3.077954 0.572335
v 0.900200 3.385607 1.308485
vt 0.363069 0.500000
vt 0.363069 0.999915
vt 0.000085 0.999915
vt 0.000085 0.500000
vt 0.726052 0.500000
vt 0.726052 0.999915
vt 0.726052 0.000085
vt 0.363069 0.000085
vt 0.000085 0.000085
vn 0.5082 0.8132 0.2836
vn 0.0025 0.7835 0.6213
vn -0.1458 0.8915 0.4289
vn 0.3784 0.9223 0.0788
usemtl Material.504
s off
f 384/376/163 381/377/163 379/378/163 383/379/163
f 382/380/164 377/381/164 381/377/164 384/376/164
f 376/382/165 382/380/165 384/376/165 380/383/165
f 380/383/166 384/376/166 383/379/166 378/384/166
o Plane.522_Plane.669
v -0.715269 2.455227 0.748896
v 1.673869 1.469578 2.605782
v 0.674909 2.727401 -0.895286
v 3.064047 1.741751 0.961599
v -0.001101 2.943900 0.001302
v 2.388036 1.958251 1.858188
v 0.491284 2.183882 1.724135
v 1.881462 2.456056 0.079953
v 1.205452 2.672555 0.976541
vt 0.363069 0.500000
vt 0.363069 0.999915
vt 0.000085 0.999915
vt 0.000085 0.500000
vt 0.726052 0.500000
vt 0.726052 0.999915
vt 0.726052 0.000085
vt 0.363069 0.000085
vt 0.000085 0.000085
vn 0.4453 0.8871 0.1215
vn 0.0553 0.8108 0.5828
vn -0.1520 0.8875 0.4350
vn 0.2523 0.9667 -0.0432
usemtl Material.505
s off
f 393/385/167 390/386/167 388/387/167 392/388/167
f 391/389/168 386/390/168 390/386/168 393/385/168
f 385/391/169 391/389/169 393/385/169 389/392/169
f 389/392/170 393/385/170 392/388/170 387/393/170
o Plane.523_Plane.694
v -0.060204 2.411566 -1.198647
v -3.146234 1.021799 -0.934508
v 0.259595 2.134031 1.077435
v -2.826434 0.744264 1.341574
v -0.000253 2.639883 -0.001803
v -3.086283 1.250117 0.262337
v -1.666003 1.947270 -1.029640
v -1.346203 1.669735 1.246442
v -1.606052 2.175587 0.167205
vt 0.363069 0.500000
vt 0.363069 0.999915
vt 0.000085 0.999915
vt 0.000085 0.500000
vt 0.726052 0.500000
vt 0.726052 0.999915
vt 0.726052 0.000085
vt 0.363069 0.000085
vt 0.000085 0.000085
vn -0.4475 0.7635 0.4656
vn -0.5316 0.8365 -0.1330
vn -0.2900 0.9427 -0.1653
vn -0.2028 0.8670 0.4552
usemtl Material.506
s off
f 402/394/171 399/395/171 397/396/171 401/397/171
f 400/398/172 395/399/172 399/395/172 402/394/172
f 394/400/173 400/398/173 402/394/173 398/401/173
f 398/401/174 402/394/174 401/397/174 396/402/174
o Plane.524_Plane.695
v 0.605545 3.640559 0.813470
v 2.303186 1.960061 -0.898399
v -0.815334 3.644968 -0.599927
v 0.882307 1.964470 -2.311797
v 0.001125 3.940515 0.001119
v 1.698766 2.260017 -1.710750
v 1.520963 2.987345 -0.108831
v 0.100083 2.991754 -1.522228
v 0.916543 3.287301 -0.921182
vt 0.363069 0.500000
vt 0.363069 0.999915
vt 0.000085 0.999915
vt 0.000085 0.500000
vt 0.726052 0.500000
vt 0.726052 0.999915
vt 0.726052 0.000085
vt 0.363069 0.000085
vt 0.000085 0.000085
vn 0.2412 0.7002 -0.6720
vn 0.6729 0.6988 -0.2426
vn 0.5256 0.8471 -0.0783
vn 0.0781 0.8485 -0.5234
usemtl Material.507
s off
f 411/403/175 408/404/175 406/405/175 410/406/175
f 409/407/176 404/408/176 408/404/176 411/403/176
f 403/409/177 409/407/177 411/403/177 407/410/177
f 407/410/178 411/403/178 410/406/178 405/411/178
o Plane.525_Plane.696
v 0.693133 3.130220 -0.648051
v -1.492590 1.869273 -2.234387
v -0.614890 3.494649 0.864523
v -2.800613 2.233702 -0.721813
v 0.001036 3.629944 -0.001198
v -2.184687 2.368997 -1.587533
v -0.423652 2.699193 -1.509961
v -1.731675 3.063622 0.002613
v -1.115749 3.198917 -0.863107
vt 0.363069 0.500000
vt 0.363069 0.999915
vt 0.000085 0.999915
vt 0.000085 0.500000
vt 0.726052 0.500000
vt 0.726052 0.999915
vt 0.726052 0.000085
vt 0.363069 0.000085
vt 0.000085 0.000085
vn -0.4985 0.8375 -0.2238
vn -0.1067 0.7283 -0.6769
vn 0.0961 0.8348 -0.5421
vn -0.3100 0.9480 -0.0724
usemtl Material.508
s off
f 420/412/179 417/413/179 415/414/179 419/415/179
f 418/416/180 413/417/180 417/413/180 420/412/180
f 412/418/181 418/416/181 420/412/181 416/419/181
f 416/419/182 420/412/182 419/415/182 414/420/182
o Plane.526_Plane.697
v -0.076938 3.082721 -0.626604
v -1.917019 2.515775 -0.208773
v 0.155473 3.291510 0.680207
v -1.684609 2.724564 1.098038
v -0.000184 3.405259 -0.001035
v -1.840266 2.838313 0.416796
v -1.021760 2.936277 -0.435174
v -0.789350 3.145066 0.871637
v -0.945007 3.258815 0.190395
vt 0.363069 0.500000
vt 0.363069 0.999915
vt 0.000085 0.999915
vt 0.000085 0.500000
vt 0.726052 0.500000
vt 0.726052 0.999915
vt 0.726052 0.000085
vt 0.363069 0.000085
vt 0.000085 0.000085
vn -0.3643 0.9015 0.2338
vn -0.4696 0.8069 -0.3584
vn -0.2221 0.8774 -0.4251
vn -0.1130 0.9755 0.1887
usemtl Material.509
s off
f 429/421/183 426/422/183 424/423/183 428/424/183
f 427/425/184 422/426/184 426/422/184 429/421/184
f 421/427/185 427/425/185 429/421/185 425/428/185
f 425/428/186 429/421/186 428/424/186 423/429/186
o Plane.527_Plane.698
v 1.031789 3.277147 0.341467
v 0.767936 0.863088 -1.948066
v -1.189340 3.724852 0.125382
v -1.453192 1.310793 -2.164151
v 0.001759 3.787963 0.000171
v -0.262094 1.373905 -2.289361
v 0.950451 2.250377 -0.949819
v -1.270677 2.698081 -1.165905
v -0.079579 2.761193 -1.291115
vt 0.363069 0.500000
vt 0.363069 0.999915
vt 0.000085 0.999915
vt 0.000085 0.500000
vt 0.726052 0.500000
vt 0.726052 0.999915
vt 0.726052 0.000085
vt 0.363069 0.000085
vt 0.000085 0.000085
vn -0.1153 0.5901 -0.7990
vn 0.4789 0.4704 -0.7412
vn 0.5099 0.6574 -0.5549
vn -0.1060 0.7815 -0.6148
usemtl Material.510
s off
f 438/430/187 435/431/187 433/432/187 437/433/187
f 436/434/188 431/435/188 435/431/188 438/430/188
f 430/436/189 436/434/189 438/430/189 434/437/189
f 434/437/190 438/430/190 437/433/190 432/438/190
o Plane.528_Plane.699
v -0.981105 3.622198 -0.193530
v -1.534840 2.865053 2.444968
v 0.871206 3.253792 0.089492
v 0.317472 2.496647 2.727990
v -0.001467 3.746690 -0.000224
v -0.555202 2.989545 2.638274
v -1.224377 3.437535 1.158255
v 0.627934 3.069129 1.441276
v -0.244739 3.562027 1.351560
vt 0.363069 0.500000
vt 0.363069 0.999915
vt 0.000085 0.999915
vt 0.000085 0.500000
vt 0.726052 0.500000
vt 0.726052 0.999915
vt 0.726052 0.000085
vt 0.363069 0.000085
vt 0.000085 0.000085
vn 0.4032 0.7960 0.4514
vn -0.1874 0.9135 0.3612
vn -0.1463 0.9833 0.1080
vn 0.4659 0.8616 0.2015
usemtl Material.511
s off
f 447/439/191 444/440/191 442/441/191 446/442/191
f 445/443/192 440/444/192 444/440/192 447/439/192
f 439/445/193 445/443/193 447/439/193 443/446/193
f 443/446/194 447/439/194 446/442/194 441/447/194
o Plane.529_Plane.700
v -0.113314 3.761930 0.699558
v 1.872773 3.356073 0.999924
v 0.084366 3.706244 -0.682786
v 2.070452 3.300388 -0.382420
v -0.000157 3.965914 0.001095
v 1.985930 3.560057 0.301461
v 0.888723 3.704625 0.845161
v 1.086403 3.648940 -0.537183
v 1.001880 3.908609 0.146698
vt 0.363069 0.500000
vt 0.363069 0.999915
vt 0.000085 0.999915
vt 0.000085 0.500000
vt 0.726052 0.500000
vt 0.726052 0.999915
vt 0.726052 0.000085
vt 0.363069 0.000085
vt 0.000085 0.000085
vn 0.3598 0.8862 -0.2920
vn 0.2737 0.9104 0.3102
vn 0.0138 0.9592 0.2824
vn 0.1031 0.9341 -0.3419
usemtl Material.520
s off
f 456/448/195 453/449/195 451/450/195 455/451/195
f 454/452/196 449/453/196 453/449/196 456/448/196
f 448/454/197 454/452/197 456/448/197 452/455/197
f 452/455/198 456/448/198 455/451/198 450/456/198
