# Blender v3.2.0 OBJ File: 'trees.blend'
# www.blender.org
mtllib Spruce Medium 1 Leaves.mtl
o Short_twigs_set.030_Plane.075
v -0.072850 1.666142 0.698061
v -0.072849 4.191527 0.698061
v -0.072849 1.666141 -0.158663
v -0.072849 4.191527 -0.158663
vt 0.869132 0.583327
vt 0.869132 0.998870
vt 0.728161 0.998870
vt 0.728161 0.583327
vn -1.0000 0.0000 -0.0000
usemtl thing.004
s off
f 1/1/1 2/2/1 4/3/1 3/4/1
o Long_twig.003_Plane.008
v 0.038365 3.161633 0.037628
v -1.227196 3.924925 0.053263
v 0.297287 3.591000 0.034429
v -0.968273 4.354292 0.050064
vt 0.994043 -0.000190
vt 0.994043 0.406109
vt 0.856208 0.406109
vt 0.856208 -0.000190
vn -0.0124 0.0000 -0.9999
usemtl thing.004
s off
f 5/5/2 6/6/2 8/7/2 7/8/2
o Short_twigs_set_2.021_Plane.007
v -0.499057 1.307111 -0.720456
v -0.484755 4.096163 -0.734227
v 0.011088 1.308430 0.076435
v 0.025389 4.097481 0.062665
vt 0.869132 0.583327
vt 0.869132 0.998870
vt 0.728161 0.998870
vt 0.728161 0.583327
vn 0.8422 -0.0070 -0.5391
usemtl thing.004
s off
f 9/9/3 10/10/3 12/11/3 11/12/3
o Long_twig_2.012_Plane.006
v -0.079357 4.443583 -0.002241
v 1.127258 4.963480 -0.303565
v 0.083163 4.022813 -0.077433
v 1.289778 4.542710 -0.378757
vt 0.854803 0.003131
vt 0.854803 0.403285
vt 0.719053 0.403285
vt 0.719053 0.003131
vn -0.2691 0.0677 -0.9607
usemtl Material.347
s off
f 13/13/4 14/14/4 16/15/4 15/16/4
o Short_twigs_set.031_Plane.009
v -0.078072 3.519481 0.617658
v -0.078072 5.665178 0.617658
v -0.078072 3.519481 -0.110259
v -0.078072 5.665178 -0.110259
vt 0.869132 0.583327
vt 0.869132 0.998870
vt 0.728161 0.998870
vt 0.728161 0.583327
vn -1.0000 0.0000 -0.0000
usemtl thing.004
s off
f 17/17/5 18/18/5 20/19/5 19/20/5
o Short_twigs_set_2.022_Plane.010
v -0.368241 3.359958 -0.517398
v -0.358093 5.338892 -0.527169
v -0.006274 3.360893 0.048025
v 0.003873 5.339828 0.038255
vt 0.869132 0.583327
vt 0.869132 0.998870
vt 0.728161 0.998870
vt 0.728161 0.583327
vn 0.8422 -0.0070 -0.5391
usemtl thing.004
s off
f 21/21/6 22/22/6 24/23/6 23/24/6
o Short_twigs_set.032_Plane.080
v 0.085300 6.272198 0.563432
v 0.085300 8.417895 0.563432
v -0.073556 6.272198 -0.146939
v -0.073556 8.417895 -0.146939
vt 0.869132 0.583327
vt 0.869132 0.998870
vt 0.728161 0.998870
vt 0.728161 0.583327
vn -0.9759 0.0000 0.2182
usemtl thing.004
s off
f 25/25/7 26/26/7 28/27/7 27/28/7
o Plane.371_Plane.058
v -0.976798 4.671922 1.163242
v 2.467046 3.533524 3.801069
v 0.900509 4.759873 -1.249740
v 4.344353 3.621476 1.388087
v -0.001487 5.220976 0.003680
v 3.442357 4.082579 2.641507
v 0.768151 4.419992 2.511634
v 2.645458 4.507944 0.098652
v 1.743462 4.969047 1.352073
vt 0.363069 0.500000
vt 0.363069 0.999915
vt 0.000085 0.999915
vt 0.000085 0.500000
vt 0.726052 0.500000
vt 0.726052 0.999915
vt 0.726052 0.000085
vt 0.363069 0.000085
vt 0.000085 0.000085
vn 0.4600 0.8879 0.0044
vn 0.0863 0.8704 0.4847
vn -0.1253 0.9333 0.3365
vn 0.2621 0.9514 -0.1614
usemtl Material.375
s off
f 37/29/8 34/30/8 32/31/8 36/32/8
f 35/33/9 30/34/9 34/30/9 37/29/9
f 29/35/10 35/33/10 37/29/10 33/36/10
f 33/36/11 37/29/11 36/32/11 31/37/11
o Plane.370_Plane.057
v -1.287559 4.398209 0.768349
v 1.151891 2.397845 3.874901
v 1.138811 4.580740 -1.019448
v 3.578262 2.580376 2.087104
v -0.001922 4.964112 0.021242
v 2.437529 2.963748 3.127794
v -0.022323 3.696174 2.413833
v 2.404048 3.878706 0.626036
v 1.263315 4.262078 1.666726
vt 0.363069 0.500000
vt 0.363069 0.999915
vt 0.000085 0.999915
vt 0.000085 0.500000
vt 0.726052 0.500000
vt 0.726052 0.999915
vt 0.726052 0.000085
vt 0.363069 0.000085
vt 0.000085 0.000085
vn 0.5289 0.7993 0.2853
vn 0.0396 0.7625 0.6458
vn -0.1167 0.8780 0.4643
vn 0.3905 0.9161 0.0906
usemtl Material.374
s off
f 46/38/12 43/39/12 41/40/12 45/41/12
f 44/42/13 39/43/13 43/39/13 46/38/13
f 38/44/14 44/42/14 46/38/14 42/45/14
f 42/45/15 46/38/15 45/41/15 40/46/15
o Plane.369_Plane.056
v 1.507564 4.724032 -0.128307
v 1.032507 3.151845 -4.088239
v -1.355637 4.379484 0.351973
v -1.830695 2.807297 -3.607958
v 0.002268 5.021206 0.009270
v -0.472790 3.449019 -3.950661
v 1.223743 4.232826 -2.172699
v -1.639459 3.888278 -1.692418
v -0.281554 4.530000 -2.035121
vt 0.363069 0.500000
vt 0.363069 0.999915
vt 0.000085 0.999915
vt 0.000085 0.500000
vt 0.726052 0.500000
vt 0.726052 0.999915
vt 0.726052 0.000085
vt 0.363069 0.000085
vt 0.000085 0.000085
vn -0.4721 0.7871 -0.3970
vn 0.1241 0.8588 -0.4970
vn 0.1652 0.9535 -0.2520
vn -0.4529 0.8791 -0.1484
usemtl Material.373
s off
f 55/47/16 52/48/16 50/49/16 54/50/16
f 53/51/17 48/52/17 52/48/17 55/47/17
f 47/53/18 53/51/18 55/47/18 51/54/18
f 51/54/19 55/47/19 54/50/19 49/55/19
o Plane.368_Plane.055
v 0.415407 3.922778 -1.662979
v -4.149549 1.903633 -2.357681
v -0.115744 3.955405 1.732438
v -4.680698 1.936259 1.037737
v 0.000421 4.489960 0.006064
v -4.564535 2.470814 -0.688637
v -1.960924 3.259238 -2.028337
v -2.492075 3.291864 1.367081
v -2.375911 3.826419 -0.359294
vt 0.363069 0.500000
vt 0.363069 0.999915
vt 0.000085 0.999915
vt 0.000085 0.500000
vt 0.726052 0.500000
vt 0.726052 0.999915
vt 0.726052 0.000085
vt 0.363069 0.000085
vt 0.000085 0.000085
vn -0.5374 0.8151 0.2162
vn -0.4433 0.8093 -0.3853
vn -0.1993 0.9117 -0.3594
vn -0.2969 0.9177 0.2642
usemtl Material.372
s off
f 64/56/20 61/57/20 59/58/20 63/59/20
f 62/60/21 57/61/21 61/57/21 64/56/21
f 56/62/22 62/60/22 64/56/22 60/63/22
f 60/63/23 64/56/23 63/59/23 58/64/23
o Plane.367_Plane.054
v 1.341860 5.458913 -0.911189
v -1.085911 3.004890 -3.941440
v -1.004968 5.233778 1.151361
v -3.432739 2.779755 -1.878890
v 0.001859 5.820229 -0.017735
v -2.425912 3.366206 -3.047986
v 0.023331 4.529575 -2.512888
v -2.323497 4.304440 -0.450338
v -1.316670 4.890891 -1.619434
vt 0.363069 0.500000
vt 0.363069 0.999915
vt 0.000085 0.999915
vt 0.000085 0.500000
vt 0.726052 0.500000
vt 0.726052 0.999915
vt 0.726052 0.000085
vt 0.363069 0.000085
vt 0.000085 0.000085
vn -0.6737 0.7032 -0.2274
vn -0.2175 0.7469 -0.6283
vn -0.0671 0.8860 -0.4589
vn -0.5399 0.8406 -0.0433
usemtl Material.371
s off
f 73/65/24 70/66/24 68/67/24 72/68/24
f 71/69/25 66/70/25 70/66/25 73/65/25
f 65/71/26 71/69/26 73/65/26 69/72/26
f 69/72/27 73/65/27 72/68/27 67/73/27
o Plane.366_Plane.053
v 0.650809 4.087984 1.716901
v 5.128619 2.022106 -0.402724
v -0.920646 4.073861 -1.589109
v 3.557164 2.007982 -3.708734
v 0.001245 4.670352 -0.003345
v 4.479055 2.604475 -2.122970
v 2.975246 3.425300 0.614850
v 1.403791 3.411177 -2.691159
v 2.325682 4.007669 -1.105396
vt 0.363069 0.500000
vt 0.363069 0.999915
vt 0.000085 0.999915
vt 0.000085 0.500000
vt 0.726052 0.500000
vt 0.726052 0.999915
vt 0.726052 0.000085
vt 0.363069 0.000085
vt 0.000085 0.000085
vn 0.3047 0.8195 -0.4854
vn 0.5660 0.8219 0.0645
vn 0.3477 0.9201 0.1802
vn 0.0768 0.9177 -0.3898
usemtl Material.370
s off
f 82/74/28 79/75/28 77/76/28 81/77/28
f 80/78/29 75/79/29 79/75/29 82/74/29
f 74/80/30 80/78/30 82/74/30 78/81/30
f 78/81/31 82/74/31 81/77/31 76/82/31
o Plane.365_Plane.052
v -1.353906 3.457034 0.063426
v -0.316349 2.129978 4.575864
v 1.702724 4.602738 -0.302455
v 2.740282 3.275683 4.209983
v -0.002421 4.535607 -0.013187
v 1.035136 3.208552 4.499251
v -0.946205 3.111179 2.386436
v 2.110426 4.256884 2.020555
v 0.405281 4.189752 2.309823
vt 0.363069 0.500000
vt 0.363069 0.999915
vt 0.000085 0.999915
vt 0.000085 0.500000
vt 0.726052 0.500000
vt 0.726052 0.999915
vt 0.726052 0.000085
vt 0.363069 0.000085
vt 0.000085 0.000085
vn 0.0320 0.9155 0.4011
vn -0.5346 0.7031 0.4689
vn -0.6009 0.7685 0.2199
vn -0.0135 0.9887 0.1496
usemtl Material.369
s off
f 91/83/32 88/84/32 86/85/32 90/86/32
f 89/87/33 84/88/33 88/84/33 91/83/33
f 83/89/34 89/87/34 91/83/34 87/90/34
f 87/90/35 91/83/35 90/86/35 85/91/35
o Plane.364_Plane.051
v -1.678157 5.318861 -0.006060
v -0.936124 2.924722 4.365183
v 1.719965 5.624432 -0.415541
v 2.461999 3.230293 3.955702
v -0.002691 6.005430 -0.008278
v 0.739342 3.611291 4.362966
v -1.321962 4.457092 2.306778
v 2.076160 4.762663 1.897297
v 0.353504 5.143661 2.304560
vt 0.363069 0.500000
vt 0.363069 0.999915
vt 0.000085 0.999915
vt 0.000085 0.500000
vt 0.726052 0.500000
vt 0.726052 0.999915
vt 0.726052 0.000085
vt 0.363069 0.000085
vt 0.000085 0.000085
vn 0.3009 0.7911 0.5325
vn -0.3012 0.7370 0.6051
vn -0.3512 0.8584 0.3739
vn 0.2729 0.9145 0.2987
usemtl Material.368
s off
f 100/92/36 97/93/36 95/94/36 99/95/36
f 98/96/37 93/97/37 97/93/37 100/92/37
f 92/98/38 98/96/38 100/92/38 96/99/38
f 96/99/39 100/92/39 99/95/39 94/100/39
o Plane.363_Plane.050
v -1.068916 5.440867 -1.249776
v -3.912247 3.070132 1.794124
v 1.329431 5.415265 0.970598
v -1.513899 3.044529 4.014499
v -0.001900 5.933868 0.008993
v -2.845230 3.563132 3.052894
v -2.573597 4.573223 0.365507
v -0.175249 4.547621 2.585881
v -1.506580 5.066224 1.624276
vt 0.363069 0.500000
vt 0.363069 0.999915
vt 0.000085 0.999915
vt 0.000085 0.500000
vt 0.726052 0.500000
vt 0.726052 0.999915
vt 0.726052 0.000085
vt 0.363069 0.000085
vt 0.000085 0.000085
vn -0.1664 0.7531 0.6365
vn -0.6131 0.7579 0.2229
vn -0.4623 0.8856 0.0450
vn 0.0008 0.8806 0.4738
usemtl Material.367
s off
f 109/101/40 106/102/40 104/103/40 108/104/40
f 107/105/41 102/106/41 106/102/41 109/101/41
f 101/107/42 107/105/42 109/101/42 105/108/42
f 105/108/43 109/101/43 108/104/43 103/109/43
o Plane.362_Plane.049
v -0.739187 5.345494 -0.665848
v -2.393661 4.263545 1.404353
v 0.808044 5.249534 0.520525
v -0.846429 4.167584 2.590725
v -0.001225 5.612024 -0.000723
v -1.655699 4.530075 2.069477
v -1.588820 5.002082 0.414441
v -0.041589 4.906121 1.600814
v -0.850858 5.268611 1.079566
vt 0.363069 0.500000
vt 0.363069 0.999915
vt 0.000085 0.999915
vt 0.000085 0.500000
vt 0.726052 0.500000
vt 0.726052 0.999915
vt 0.726052 0.000085
vt 0.363069 0.000085
vt 0.000085 0.000085
vn -0.0173 0.8081 0.5888
vn -0.4999 0.8380 0.2188
vn -0.3544 0.9349 0.0185
vn 0.1459 0.9039 0.4021
usemtl Material.366
s off
f 118/110/44 115/111/44 113/112/44 117/113/44
f 116/114/45 111/115/45 115/111/45 118/110/45
f 110/116/46 116/114/46 118/110/46 114/117/46
f 114/117/47 118/110/47 117/113/47 112/118/47
o Plane.361_Plane.048
v 1.601042 7.419085 0.403031
v 1.556156 4.241175 -3.365550
v -1.734721 7.758038 0.156935
v -1.779607 4.580127 -3.611645
v 0.002642 8.059228 -0.013557
v -0.042244 4.881317 -3.782137
v 1.622244 6.125782 -1.665649
v -1.713519 6.464735 -1.911745
v 0.023844 6.765925 -2.082237
vt 0.363069 0.500000
vt 0.363069 0.999915
vt 0.000085 0.999915
vt 0.000085 0.500000
vt 0.726052 0.500000
vt 0.726052 0.999915
vt 0.726052 0.000085
vt 0.363069 0.000085
vt 0.000085 0.000085
vn -0.1860 0.6617 -0.7263
vn 0.4181 0.6003 -0.6818
vn 0.4310 0.7671 -0.4752
vn -0.1952 0.8307 -0.5214
usemtl Material.365
s off
f 127/119/48 124/120/48 122/121/48 126/122/48
f 125/123/49 120/124/49 124/120/49 127/119/49
f 119/125/50 125/123/50 127/119/50 123/126/50
f 123/126/51 127/119/51 126/122/51 121/127/51
o Plane.360_Plane.047
v 0.211398 6.170125 -1.336720
v -3.635662 5.174513 -1.784056
v -0.114968 6.214875 1.370407
v -3.962028 5.219263 0.923071
v 0.000258 6.643231 0.003611
v -3.846802 5.647619 -0.443725
v -1.742256 5.955450 -1.568700
v -2.068622 6.000199 1.138427
v -1.953396 6.428555 -0.228369
vt 0.363069 0.500000
vt 0.363069 0.999915
vt 0.000085 0.999915
vt 0.000085 0.500000
vt 0.726052 0.500000
vt 0.726052 0.999915
vt 0.726052 0.000085
vt 0.363069 0.000085
vt 0.000085 0.000085
vn -0.3934 0.8863 0.2446
vn -0.3205 0.8763 -0.3598
vn -0.0626 0.9380 -0.3409
vn -0.1381 0.9484 0.2856
usemtl Material.364
s off
f 136/128/52 133/129/52 131/130/52 135/131/52
f 134/132/53 129/133/53 133/129/53 136/128/53
f 128/134/54 134/132/54 136/128/54 132/135/54
f 132/135/55 136/128/55 135/131/55 130/136/55
o Plane.359_Plane.046
v 1.022476 5.160116 -1.095425
v -2.158020 4.347050 -3.993216
v -0.991095 5.177673 1.109661
v -4.171591 4.364606 -1.788130
v 0.001595 5.664956 -0.009703
v -3.178901 4.851890 -2.907494
v -0.576626 5.065188 -2.554887
v -2.590198 5.082745 -0.349800
v -1.597507 5.570028 -1.469165
vt 0.363069 0.500000
vt 0.363069 0.999915
vt 0.000085 0.999915
vt 0.000085 0.500000
vt 0.726052 0.500000
vt 0.726052 0.999915
vt 0.726052 0.000085
vt 0.363069 0.000085
vt 0.000085 0.000085
vn -0.4257 0.9047 0.0163
vn -0.0152 0.9011 -0.4333
vn 0.1859 0.9461 -0.2652
vn -0.2397 0.9498 0.2009
usemtl Material.363
s off
f 145/137/56 142/138/56 140/139/56 144/140/56
f 143/141/57 138/142/57 142/138/57 145/137/57
f 137/143/58 143/141/58 145/137/58 141/144/58
f 141/144/59 145/137/59 144/140/59 139/145/59
o Plane.358_Plane.045
v 0.986339 7.413766 -0.605205
v -1.241329 5.826118 -2.991186
v -0.931738 7.843946 0.899360
v -3.159406 6.256300 -1.486621
v 0.001519 8.013985 0.004096
v -2.226150 6.426337 -2.381886
v -0.143690 6.861864 -1.888011
v -2.061767 7.292045 -0.383446
v -1.128510 7.462082 -1.278711
vt 0.363069 0.500000
vt 0.363069 0.999915
vt 0.000085 0.999915
vt 0.000085 0.500000
vt 0.726052 0.500000
vt 0.726052 0.999915
vt 0.726052 0.000085
vt 0.363069 0.000085
vt 0.000085 0.000085
vn -0.4590 0.8284 -0.3211
vn 0.0128 0.7226 -0.6912
vn 0.1851 0.8330 -0.5214
vn -0.3040 0.9427 -0.1378
usemtl Material.362
s off
f 154/146/60 151/147/60 149/148/60 153/149/60
f 152/150/61 147/151/61 151/147/61 154/146/61
f 146/152/62 152/150/62 154/146/62 150/153/62
f 150/153/63 154/146/63 153/149/63 148/154/63
o Plane.357_Plane.044
v -1.360938 5.804062 -0.203918
v -1.282526 4.060111 3.619977
v 1.481094 6.163679 -0.098187
v 1.559507 4.419728 3.725708
v -0.002251 6.437234 -0.017661
v 0.076161 4.693283 3.806234
v -1.360885 5.216870 1.791821
v 1.481148 5.576488 1.897552
v -0.002197 5.850043 1.978078
vt 0.363069 0.500000
vt 0.363069 0.999915
vt 0.000085 0.999915
vt 0.000085 0.500000
vt 0.726052 0.500000
vt 0.726052 0.999915
vt 0.726052 0.000085
vt 0.363069 0.000085
vt 0.000085 0.000085
vn 0.1821 0.8344 0.5202
vn -0.4215 0.7580 0.4977
vn -0.4369 0.8629 0.2539
vn 0.1888 0.9421 0.2772
usemtl Material.361
s off
f 163/155/64 160/156/64 158/157/64 162/158/64
f 161/159/65 156/160/65 160/156/65 163/155/65
f 155/161/66 161/159/66 163/155/66 159/162/66
f 159/162/67 163/155/67 162/158/67 157/163/67
o Plane.356_Plane.043
v 0.312315 6.385755 0.937776
v 2.738938 5.248385 -0.037246
v -0.454802 6.278349 -0.846128
v 1.971821 5.140979 -1.821149
v 0.000608 6.643425 -0.003821
v 2.427230 5.506056 -0.978842
v 1.570760 6.012662 0.419080
v 0.803643 5.905256 -1.364823
v 1.259053 6.270332 -0.522516
vt 0.363069 0.500000
vt 0.363069 0.999915
vt 0.000085 0.999915
vt 0.000085 0.500000
vt 0.726052 0.500000
vt 0.726052 0.999915
vt 0.726052 0.000085
vt 0.363069 0.000085
vt 0.000085 0.000085
vn 0.3183 0.7949 -0.5166
vn 0.5584 0.8285 0.0419
vn 0.3353 0.9311 0.1438
vn 0.0864 0.8962 -0.4351
usemtl Material.360
s off
f 172/164/68 169/165/68 167/166/68 171/167/68
f 170/168/69 165/169/69 169/165/69 172/164/69
f 164/170/70 170/168/70 172/164/70 168/171/70
f 168/171/71 172/164/71 171/167/71 166/172/71
o Plane.355_Plane.042
v -0.404111 7.805746 1.385462
v 2.782195 5.241920 1.945298
v -0.072350 7.609160 -1.403033
v 3.113956 5.045336 -0.843197
v -0.000263 8.110541 -0.008890
v 3.186043 5.546717 0.550946
v 1.338524 6.777037 1.665314
v 1.670284 6.580452 -1.123181
v 1.742371 7.081833 0.270962
vt 0.363069 0.500000
vt 0.363069 0.999915
vt 0.000085 0.999915
vt 0.000085 0.500000
vt 0.726052 0.500000
vt 0.726052 0.999915
vt 0.726052 0.000085
vt 0.363069 0.000085
vt 0.000085 0.000085
vn 0.7260 0.6343 -0.2657
vn 0.6543 0.6768 0.3374
vn 0.4452 0.8392 0.3124
vn 0.5196 0.7951 -0.3128
usemtl Material.359
s off
f 181/173/72 178/174/72 176/175/72 180/176/72
f 179/177/73 174/178/73 178/174/73 181/173/73
f 173/179/74 179/177/74 181/173/74 177/180/74
f 177/180/75 181/173/75 180/176/75 175/181/75
o Plane.354_Plane.041
v -1.268571 8.477886 -0.390393
v -1.919176 6.886134 3.245434
v 1.397368 8.737029 0.200110
v 0.746762 7.145278 3.835937
v -0.002111 9.045546 0.012874
v -0.652717 7.453794 3.648701
v -1.635652 7.957199 1.495371
v 1.030286 8.216342 2.085874
v -0.369193 8.524858 1.898639
vt 0.363069 0.500000
vt 0.363069 0.999915
vt 0.000085 0.999915
vt 0.000085 0.500000
vt 0.726052 0.500000
vt 0.726052 0.999915
vt 0.726052 0.000085
vt 0.363069 0.000085
vt 0.000085 0.000085
vn 0.1138 0.8391 0.5320
vn -0.4780 0.7816 0.4009
vn -0.4451 0.8816 0.1568
vn 0.1683 0.9413 0.2927
usemtl Material.358
s off
f 190/182/76 187/183/76 185/184/76 189/185/76
f 188/186/77 183/187/77 187/183/77 190/182/77
f 182/188/78 188/186/78 190/182/78 186/189/78
f 186/189/79 190/182/79 189/185/79 184/190/79
o Plane.353_Plane.040
v 0.945318 8.571973 -0.468522
v -0.361036 7.353296 -2.864822
v -0.800978 8.403340 0.569239
v -2.107332 7.184664 -1.827061
v 0.001383 8.812420 -0.015985
v -1.304970 7.593744 -2.412285
v 0.247676 8.166637 -1.708347
v -1.498620 7.998005 -0.670585
v -0.696259 8.407084 -1.255810
vt 0.363069 0.500000
vt 0.363069 0.999915
vt 0.000085 0.999915
vt 0.000085 0.500000
vt 0.726052 0.500000
vt 0.726052 0.999915
vt 0.726052 0.000085
vt 0.363069 0.000085
vt 0.000085 0.000085
vn -0.5762 0.7797 -0.2450
vn -0.0546 0.8300 -0.5550
vn 0.0722 0.9353 -0.3464
vn -0.4685 0.8831 -0.0251
usemtl Material.357
s off
f 199/191/80 196/192/80 194/193/80 198/194/80
f 197/195/81 192/196/81 196/192/81 199/191/81
f 191/197/82 197/195/82 199/191/82 195/198/82
f 195/198/83 199/191/83 198/194/83 193/199/83
o Plane.352_Plane.039
v -0.374111 9.047862 -1.044183
v -3.085168 7.784016 0.043704
v 0.517478 8.828307 0.922622
v -2.193579 7.564461 2.010510
v -0.000706 9.284383 0.010692
v -2.711763 8.020536 1.098580
v -1.775111 8.633469 -0.455343
v -0.883522 8.413914 1.511462
v -1.401706 8.869990 0.599532
vt 0.363069 0.500000
vt 0.363069 0.999915
vt 0.000085 0.999915
vt 0.000085 0.500000
vt 0.726052 0.500000
vt 0.726052 0.999915
vt 0.726052 0.000085
vt 0.363069 0.000085
vt 0.000085 0.000085
vn -0.2929 0.7781 0.5556
vn -0.5430 0.8397 0.0039
vn -0.3199 0.9424 -0.0980
vn -0.0607 0.8785 0.4738
usemtl Material.356
s off
f 208/200/84 205/201/84 203/202/84 207/203/84
f 206/204/85 201/205/85 205/201/85 208/200/85
f 200/206/86 206/204/86 208/200/86 204/207/86
f 204/207/87 208/200/87 207/203/87 202/208/87
o Plane.351_Plane.038
v 0.400082 7.457178 -1.543905
v -3.599806 5.486111 -2.344894
v -0.077575 7.190764 1.496951
v -4.077463 5.219697 0.695962
v 0.000378 7.811576 -0.006028
v -3.999509 5.840509 -0.807016
v -1.700917 6.777938 -1.933439
v -2.178574 6.511524 1.107417
v -2.100620 7.132336 -0.395561
vt 0.363069 0.500000
vt 0.363069 0.999915
vt 0.000085 0.999915
vt 0.000085 0.500000
vt 0.726052 0.500000
vt 0.726052 0.999915
vt 0.726052 0.000085
vt 0.363069 0.000085
vt 0.000085 0.000085
vn -0.5806 0.7627 0.2849
vn -0.4865 0.8152 -0.3143
vn -0.2483 0.9278 -0.2784
vn -0.3459 0.8734 0.3428
usemtl Material.355
s off
f 217/209/88 214/210/88 212/211/88 216/212/88
f 215/213/89 210/214/89 214/210/89 217/209/89
f 209/215/90 215/213/90 217/209/90 213/216/90
f 213/216/91 217/209/91 216/212/91 211/217/91
o Plane.350_Plane.037
v 0.988239 9.113784 0.785528
v 2.682703 7.500007 -2.121115
v -1.164375 9.279679 -0.561471
v 0.530089 7.665902 -3.468114
v 0.001705 9.599449 0.018162
v 1.696169 7.985672 -2.888481
v 1.891862 8.559866 -0.726756
v -0.260751 8.725761 -2.073755
v 0.905328 9.045531 -1.494122
vt 0.363069 0.500000
vt 0.363069 0.999915
vt 0.000085 0.999915
vt 0.000085 0.500000
vt 0.726052 0.500000
vt 0.726052 0.999915
vt 0.726052 0.000085
vt 0.363069 0.000085
vt 0.000085 0.000085
vn 0.0656 0.8120 -0.5800
vn 0.5806 0.7723 -0.2577
vn 0.4683 0.8825 -0.0435
vn -0.0656 0.9237 -0.3775
usemtl Material.354
s off
f 226/218/92 223/219/92 221/220/92 225/221/92
f 224/222/93 219/223/93 223/219/93 226/218/93
f 218/224/94 224/222/94 226/218/94 222/225/94
f 222/225/95 226/218/95 225/221/95 220/226/95
o Plane.349_Plane.036
v -0.031376 8.305560 -1.404716
v -3.647217 6.670089 -1.088370
v 0.274219 8.150877 1.288545
v -3.341622 6.515407 1.604891
v -0.000242 8.661241 -0.019411
v -3.616083 7.025771 0.296935
v -1.915720 7.759831 -1.222249
v -1.610126 7.605149 1.471012
v -1.884586 8.115513 0.163056
vt 0.363069 0.500000
vt 0.363069 0.999915
vt 0.000085 0.999915
vt 0.000085 0.500000
vt 0.726052 0.500000
vt 0.726052 0.999915
vt 0.726052 0.000085
vt 0.363069 0.000085
vt 0.000085 0.000085
vn -0.4644 0.7877 0.4048
vn -0.5330 0.8224 -0.1992
vn -0.2912 0.9282 -0.2318
vn -0.2202 0.8922 0.3943
usemtl Material.353
s off
f 235/227/96 232/228/96 230/229/96 234/230/96
f 233/231/97 228/232/97 232/228/97 235/227/97
f 227/233/98 233/231/98 235/227/98 231/234/98
f 231/234/99 235/227/99 234/230/99 229/235/99
o Plane.348_Plane.035
v -1.127805 8.496212 0.250193
v -0.435684 6.936625 3.012066
v 0.956431 8.204228 -0.436992
v 1.648552 6.644641 2.324881
v -0.001651 8.691363 0.016532
v 0.690471 7.131776 2.778405
v -0.728956 7.930710 1.700184
v 1.355279 7.638727 1.012999
v 0.397198 8.125862 1.466523
vt 0.363069 0.500000
vt 0.363069 0.999915
vt 0.000085 0.999915
vt 0.000085 0.500000
vt 0.726052 0.500000
vt 0.726052 0.999915
vt 0.726052 0.000085
vt 0.363069 0.000085
vt 0.000085 0.000085
vn 0.5610 0.7154 0.4167
vn -0.0122 0.7956 0.6056
vn -0.0805 0.9209 0.3813
vn 0.5137 0.8377 0.1854
usemtl Material.352
s off
f 244/236/100 241/237/100 239/238/100 243/239/100
f 242/240/101 237/241/101 241/237/101 244/236/101
f 236/242/102 242/240/102 244/236/102 240/243/102
f 240/243/103 244/236/103 243/239/103 238/244/103
o Plane.347_Plane.034
v -0.407852 10.247158 1.103860
v 2.425550 8.674221 1.889962
v 0.148903 10.149201 -1.098896
v 2.982305 8.576264 -0.312794
v -0.000441 10.553234 0.019307
v 2.832961 8.980297 0.805408
v 1.089902 9.683720 1.507479
v 1.646657 9.585763 -0.695277
v 1.497313 9.989797 0.422926
vt 0.363069 0.500000
vt 0.363069 0.999915
vt 0.000085 0.999915
vt 0.000085 0.500000
vt 0.726052 0.500000
vt 0.726052 0.999915
vt 0.726052 0.000085
vt 0.363069 0.000085
vt 0.000085 0.000085
vn 0.6260 0.7564 -0.1897
vn 0.4770 0.7826 0.4000
vn 0.2465 0.9045 0.3479
vn 0.4010 0.8774 -0.2634
usemtl Material.351
s off
f 253/245/104 250/246/104 248/247/104 252/248/104
f 251/249/105 246/250/105 250/246/105 253/245/105
f 245/251/106 251/249/106 253/245/106 249/252/106
f 249/252/107 253/245/107 252/248/107 247/253/107
o Plane.346_Plane.033
v -1.367560 9.729752 -0.336069
v -1.967169 7.746392 3.087559
v 1.330397 9.488864 -0.003103
v 0.730787 7.505505 3.420525
v -0.002137 10.029451 0.001122
v -0.601746 8.046092 3.424750
v -1.657035 9.001988 1.482976
v 1.040922 8.761101 1.815943
v -0.291612 9.301688 1.820167
vt 0.363069 0.500000
vt 0.363069 0.999915
vt 0.000085 0.999915
vt 0.000085 0.500000
vt 0.726052 0.500000
vt 0.726052 0.999915
vt 0.726052 0.000085
vt 0.363069 0.000085
vt 0.000085 0.000085
vn 0.2956 0.7238 0.6235
vn -0.3063 0.7775 0.5492
vn -0.2776 0.9064 0.3185
vn 0.3464 0.8507 0.3955
usemtl Material.350
s off
f 262/254/108 259/255/108 257/256/108 261/257/108
f 260/258/109 255/259/109 259/255/109 262/254/109
f 254/260/110 260/258/110 262/254/110 258/261/110
f 258/261/111 262/254/111 261/257/111 256/262/111
o Plane.345_Plane.032
v 0.784835 11.698719 0.817217
v 2.961618 10.859332 -1.408972
v -0.810070 11.561832 -0.690680
v 1.366713 10.722445 -2.916868
v 0.001263 11.992580 0.015697
v 2.178046 11.153193 -2.210492
v 1.881946 11.506610 -0.325760
v 0.287041 11.369723 -1.833657
v 1.098374 11.800471 -1.127280
vt 0.363069 0.500000
vt 0.363069 0.999915
vt 0.000085 0.999915
vt 0.000085 0.500000
vt 0.726052 0.500000
vt 0.726052 0.999915
vt 0.726052 0.000085
vt 0.363069 0.000085
vt 0.000085 0.000085
vn -0.0049 0.8563 -0.5165
vn 0.4367 0.8942 -0.0991
vn 0.2649 0.9598 0.0929
vn -0.1928 0.9205 -0.3398
usemtl Material.349
s off
f 271/263/112 268/264/112 266/265/112 270/266/112
f 269/267/113 264/268/113 268/264/113 271/263/113
f 263/269/114 269/267/114 271/263/114 267/270/114
f 267/270/115 271/263/115 270/266/115 265/271/115
o Plane.344_Plane.031
v 0.903802 11.655956 -1.175592
v -2.111335 10.299743 -3.600363
v -0.634851 11.047114 1.078215
v -3.649988 9.690902 -1.346556
v 0.001219 11.796009 -0.019592
v -3.013918 10.439795 -2.444363
v -0.687473 11.257050 -2.369700
v -2.226126 10.648208 -0.115893
v -1.590056 11.397102 -1.213700
vt 0.363069 0.500000
vt 0.363069 0.999915
vt 0.000085 0.999915
vt 0.000085 0.500000
vt 0.726052 0.500000
vt 0.726052 0.999915
vt 0.726052 0.000085
vt 0.363069 0.000085
vt 0.000085 0.000085
vn -0.6365 0.7570 0.1476
vn -0.3015 0.8896 -0.3432
vn -0.0983 0.9759 -0.1950
vn -0.4456 0.8384 0.3138
usemtl Material.348
s off
f 280/272/116 277/273/116 275/274/116 279/275/116
f 278/276/117 273/277/117 277/273/117 280/272/117
f 272/278/118 278/276/118 280/272/118 276/279/118
f 276/279/119 280/272/119 279/275/119 274/280/119
o Plane.343_Plane.030
v 0.220759 10.871517 -0.908251
v -2.410299 10.267239 -1.454635
v -0.177693 10.948128 0.925724
v -2.808750 10.343849 0.379340
v 0.000316 11.220935 -0.008869
v -2.630742 10.616657 -0.555253
v -1.108098 10.764806 -1.192502
v -1.506549 10.841416 0.641473
v -1.328541 11.114224 -0.293120
vt 0.363069 0.500000
vt 0.363069 0.999915
vt 0.000085 0.999915
vt 0.000085 0.500000
vt 0.726052 0.500000
vt 0.726052 0.999915
vt 0.726052 0.000085
vt 0.363069 0.000085
vt 0.000085 0.000085
vn -0.3836 0.9036 0.1907
vn -0.2545 0.8787 -0.4038
vn 0.0025 0.9323 -0.3616
vn -0.1314 0.9581 0.2546
usemtl Material.063
s off
f 289/281/120 286/282/120 284/283/120 288/284/120
f 287/285/121 282/286/121 286/282/121 289/281/121
f 281/287/122 287/285/122 289/281/122 285/288/122
f 285/288/123 289/281/123 288/284/123 283/289/123
o Plane.339_Plane.029
v 1.185228 10.925966 0.475543
v 2.065665 8.828356 -2.305315
v -1.187864 10.651915 -0.069075
v -0.307427 8.554304 -2.849933
v 0.001880 11.147104 0.009073
v 0.882317 9.049493 -2.771786
v 1.627455 10.102144 -1.036850
v -0.745637 9.828093 -1.581468
v 0.444107 10.323281 -1.503321
vt 0.363069 0.500000
vt 0.363069 0.999915
vt 0.000085 0.999915
vt 0.000085 0.500000
vt 0.726052 0.500000
vt 0.726052 0.999915
vt 0.726052 0.000085
vt 0.363069 0.000085
vt 0.000085 0.000085
vn -0.2221 0.6486 -0.7280
vn 0.3676 0.7167 -0.5927
vn 0.3131 0.8695 -0.3821
vn -0.2982 0.7989 -0.5224
usemtl Material.062
s off
f 298/290/124 295/291/124 293/292/124 297/293/124
f 296/294/125 291/295/125 295/291/125 298/290/125
f 290/296/126 296/294/126 298/290/126 294/297/126
f 294/297/127 298/290/127 297/293/127 292/298/127
o Plane.338_Plane.028
v -1.098434 10.713633 0.216561
v -0.301037 9.148832 2.915103
v 0.993245 10.635618 -0.446752
v 1.790642 9.070818 2.251791
v -0.001657 11.015479 0.005443
v 0.795741 9.450679 2.703984
v -0.667738 10.145343 1.641549
v 1.423941 10.067327 0.978236
v 0.429039 10.447188 1.430430
vt 0.363069 0.500000
vt 0.363069 0.999915
vt 0.000085 0.999915
vt 0.000085 0.500000
vt 0.726052 0.500000
vt 0.726052 0.999915
vt 0.726052 0.000085
vt 0.363069 0.000085
vt 0.000085 0.000085
vn 0.4889 0.7498 0.4459
vn -0.0911 0.7714 0.6298
vn -0.1682 0.8971 0.4086
vn 0.4330 0.8746 0.2179
usemtl Material.061
s off
f 307/299/128 304/300/128 302/301/128 306/302/128
f 305/303/129 300/304/129 304/300/129 307/299/129
f 299/305/130 305/303/130 307/299/130 303/306/130
f 303/306/131 307/299/131 306/302/131 301/307/131
o Plane.337_Plane.027
v 0.600518 10.039365 -1.332758
v -2.668444 7.761843 -2.498440
v -0.193453 9.793880 1.373432
v -3.462415 7.516359 0.207750
v 0.000629 10.340858 -0.000710
v -3.268334 8.063337 -1.166392
v -1.161419 9.167091 -1.928819
v -1.955390 8.921607 0.777370
v -1.761308 9.468585 -0.596772
vt 0.363069 0.500000
vt 0.363069 0.999915
vt 0.000085 0.999915
vt 0.000085 0.500000
vt 0.726052 0.500000
vt 0.726052 0.999915
vt 0.726052 0.000085
vt 0.363069 0.000085
vt 0.000085 0.000085
vn -0.7059 0.6867 0.1736
vn -0.5352 0.7395 -0.4084
vn -0.3205 0.8825 -0.3441
vn -0.4975 0.8278 0.2592
usemtl Material.055
s off
f 316/308/132 313/309/132 311/310/132 315/311/132
f 314/312/133 309/313/133 313/309/133 316/308/133
f 308/314/134 314/312/134 316/308/134 312/315/134
f 312/315/135 316/308/135 315/311/135 310/316/135
o Plane.331_Plane.026
v -0.571841 12.822989 1.007818
v 1.861544 11.063465 2.223264
v 0.253332 12.560223 -1.024613
v 2.686717 10.800697 0.190833
v -0.000654 13.022255 0.013246
v 2.432732 11.262730 1.228693
v 0.744478 12.150928 1.629137
v 1.569651 11.888160 -0.403294
v 1.315665 12.350193 0.634565
vt 0.363069 0.500000
vt 0.363069 0.999915
vt 0.000085 0.999915
vt 0.000085 0.500000
vt 0.726052 0.500000
vt 0.726052 0.999915
vt 0.726052 0.000085
vt 0.363069 0.000085
vt 0.000085 0.000085
vn 0.7252 0.6772 -0.1240
vn 0.4978 0.7496 0.4361
vn 0.2918 0.8916 0.3462
vn 0.5275 0.8165 -0.2344
usemtl Material.054
s off
f 325/317/136 322/318/136 320/319/136 324/320/136
f 323/321/137 318/322/137 322/318/137 325/317/137
f 317/323/138 323/321/138 325/317/138 321/324/138
f 321/324/139 325/317/139 324/320/139 319/325/139
o Plane.330_Plane.025
v -0.579369 12.456555 -0.643077
v -2.169153 11.075284 0.868453
v 0.717150 12.262134 0.542898
v -0.872634 10.880862 2.054428
v 0.009225 12.625790 0.058817
v -1.580559 11.244519 1.570347
v -1.411740 11.933290 0.181098
v -0.115221 11.738868 1.367073
v -0.823146 12.102525 0.882992
vt 0.363069 0.500000
vt 0.363069 0.999915
vt 0.000085 0.999915
vt 0.000085 0.500000
vt 0.726052 0.500000
vt 0.726052 0.999915
vt 0.726052 0.000085
vt 0.363069 0.000085
vt 0.000085 0.000085
vn -0.1335 0.6887 0.7126
vn -0.5800 0.7557 0.3042
vn -0.4240 0.8948 0.1398
vn 0.0388 0.8254 0.5633
usemtl Material.046
s off
f 334/326/140 331/327/140 329/328/140 333/329/140
f 332/330/141 327/331/141 331/327/141 334/326/141
f 326/332/142 332/330/142 334/326/142 330/333/142
f 330/333/143 334/326/143 333/329/143 328/334/143
o Plane.322_Plane.024
v 0.733296 11.250878 -0.333402
v -0.191826 10.439837 -2.254496
v -0.642285 11.124728 0.382281
v -1.567408 10.313687 -1.538813
v 0.001089 11.439329 -0.016595
v -0.924033 10.628288 -1.937689
v 0.242835 11.003356 -1.319725
v -1.132747 10.877206 -0.604042
v -0.489372 11.191807 -1.002919
vt 0.363069 0.500000
vt 0.363069 0.999915
vt 0.000085 0.999915
vt 0.000085 0.500000
vt 0.726052 0.500000
vt 0.726052 0.999915
vt 0.726052 0.000085
vt 0.363069 0.000085
vt 0.000085 0.000085
vn -0.5408 0.8076 -0.2354
vn -0.0025 0.8569 -0.5154
vn 0.1161 0.9482 -0.2957
vn -0.4419 0.8970 -0.0053
usemtl Material.043
s off
f 343/335/144 340/336/144 338/337/144 342/338/144
f 341/339/145 336/340/145 340/336/145 343/335/145
f 335/341/146 341/339/146 343/335/146 339/342/146
f 339/342/147 343/335/147 342/338/147 337/343/147
o Plane.319_Plane.023
v -0.296247 11.826643 -0.935099
v -2.522994 10.249431 0.242878
v 0.562588 11.980507 0.894380
v -1.664160 10.403296 2.072357
v -0.000680 12.210670 0.016648
v -2.227427 10.633458 1.194625
v -1.493700 11.230941 -0.322864
v -0.634865 11.384806 1.506615
v -1.198133 11.614968 0.628883
vt 0.363069 0.500000
vt 0.363069 0.999915
vt 0.000085 0.999915
vt 0.000085 0.500000
vt 0.726052 0.500000
vt 0.726052 0.999915
vt 0.726052 0.000085
vt 0.363069 0.000085
vt 0.000085 0.000085
vn -0.4491 0.7504 0.4850
vn -0.7070 0.7042 -0.0646
vn -0.5106 0.8407 -0.1806
vn -0.2431 0.8886 0.3890
usemtl Material.042
s off
f 352/344/148 349/345/148 347/346/148 351/347/148
f 350/348/149 345/349/149 349/345/149 352/344/149
f 344/350/150 350/348/150 352/344/150 348/351/150
f 348/351/151 352/344/151 351/347/151 346/352/151
o Plane.318_Plane.022
v 0.372696 12.877827 -0.808668
v -1.764649 11.862328 -1.600599
v -0.139665 12.698467 0.804138
v -2.277010 11.682968 0.012207
v 0.033650 13.058681 0.001496
v -2.103695 12.043181 -0.790435
v -0.748029 12.540014 -1.202271
v -1.260390 12.360656 0.410535
v -1.087076 12.720869 -0.392107
vt 0.363069 0.500000
vt 0.363069 0.999915
vt 0.000085 0.999915
vt 0.000085 0.500000
vt 0.726052 0.500000
vt 0.726052 0.999915
vt 0.726052 0.000085
vt 0.363069 0.000085
vt 0.000085 0.000085
vn -0.5989 0.7710 0.2167
vn -0.4155 0.8352 -0.3603
vn -0.1829 0.9405 -0.2865
vn -0.3729 0.8740 0.3117
usemtl Material.035
s off
f 361/353/152 358/354/152 356/355/152 360/356/152
f 359/357/153 354/358/153 358/354/153 361/353/153
f 353/359/154 359/357/154 361/353/154 357/360/154
f 357/360/155 361/353/155 360/356/155 355/361/155
o Plane.311_Plane.021
v 0.410599 12.423102 0.935586
v 2.509702 10.836053 -0.297898
v -0.633488 12.350271 -0.747498
v 1.465616 10.763222 -1.980983
v 0.000827 12.685335 0.011474
v 2.099931 11.098287 -1.222010
v 1.530675 11.817177 0.266977
v 0.486588 11.744346 -1.416108
v 1.120903 12.079410 -0.657135
vt 0.363069 0.500000
vt 0.363069 0.999915
vt 0.000085 0.999915
vt 0.000085 0.500000
vt 0.726052 0.500000
vt 0.726052 0.999915
vt 0.726052 0.000085
vt 0.363069 0.000085
vt 0.000085 0.000085
vn 0.3567 0.7073 -0.6103
vn 0.6774 0.7297 -0.0933
vn 0.4895 0.8715 0.0302
vn 0.1570 0.8483 -0.5057
usemtl Material.033
s off
f 370/362/156 367/363/156 365/364/156 369/365/156
f 368/366/157 363/367/157 367/363/157 370/362/157
f 362/368/158 368/366/158 370/362/158 366/369/158
f 366/369/159 370/362/159 369/365/159 364/370/159
o Plane.309_Plane.020
v -1.011895 11.537489 -0.545308
v -2.214089 10.004663 2.068678
v 1.042718 11.330750 0.278394
v -0.159476 9.797923 2.892380
v -0.001627 11.780025 -0.004139
v -1.203821 10.247198 2.609848
v -1.623695 10.988358 0.842917
v 0.430918 10.781619 1.666620
v -0.613427 11.230894 1.384086
vt 0.363069 0.500000
vt 0.363069 0.999915
vt 0.000085 0.999915
vt 0.000085 0.500000
vt 0.726052 0.500000
vt 0.726052 0.999915
vt 0.726052 0.000085
vt 0.363069 0.000085
vt 0.000085 0.000085
vn 0.1392 0.7385 0.6597
vn -0.4234 0.7951 0.4341
vn -0.3354 0.9172 0.2150
vn 0.2479 0.8585 0.4489
usemtl Material.030
s off
f 379/371/160 376/372/160 374/373/160 378/374/160
f 377/375/161 372/376/161 376/372/161 379/371/161
f 371/377/162 377/375/162 379/371/162 375/378/162
f 375/378/163 379/371/163 378/374/163 373/379/163
o Plane.306_Plane.019
v -0.244389 13.045245 1.026681
v 2.321564 11.571735 1.401926
v -0.005215 12.947940 -0.990909
v 2.560738 11.474430 -0.615664
v -0.000189 13.311027 0.017494
v 2.565763 11.837516 0.392738
v 1.116864 12.506004 1.214057
v 1.356038 12.408699 -0.803533
v 1.361063 12.771785 0.204869
vt 0.363069 0.500000
vt 0.363069 0.999915
vt 0.000085 0.999915
vt 0.000085 0.500000
vt 0.726052 0.500000
vt 0.726052 0.999915
vt 0.726052 0.000085
vt 0.363069 0.000085
vt 0.000085 0.000085
vn 0.6160 0.7402 -0.2696
vn 0.5445 0.7693 0.3343
vn 0.3125 0.8972 0.3119
vn 0.3867 0.8671 -0.3141
usemtl Material.029
s off
f 388/380/164 385/381/164 383/382/164 387/383/164
f 386/384/165 381/385/165 385/381/165 388/380/165
f 380/386/166 386/384/166 388/380/166 384/387/166
f 384/387/167 388/380/167 387/383/167 382/388/167
o Plane.305_Plane.018
v -0.907727 13.592154 0.229895
v 0.009472 12.197867 2.412207
v 0.828900 13.636208 -0.471842
v 1.746099 12.241920 1.710470
v -0.001375 13.902307 -0.008750
v 0.915824 12.508020 2.173562
v -0.425234 13.075999 1.391545
v 1.311393 13.120053 0.689808
v 0.481118 13.386152 1.152900
vt 0.363069 0.500000
vt 0.363069 0.999915
vt 0.000085 0.999915
vt 0.000085 0.500000
vt 0.726052 0.500000
vt 0.726052 0.999915
vt 0.726052 0.000085
vt 0.363069 0.000085
vt 0.000085 0.000085
vn 0.4874 0.7537 0.4408
vn -0.0769 0.7394 0.6689
vn -0.1766 0.8702 0.4600
vn 0.4084 0.8850 0.2236
usemtl Material.028
s off
f 397/389/168 394/390/168 392/391/168 396/392/168
f 395/393/169 390/394/169 394/390/169 397/389/169
f 389/395/170 395/393/170 397/389/170 393/396/170
f 393/396/171 397/389/171 396/392/171 391/397/171
o Plane.304_Plane.017
v -0.250568 13.015713 -0.546109
v -1.892760 13.134817 0.074171
v 0.175054 13.043377 0.575413
v -1.467138 13.162481 1.195694
v -0.000337 13.224601 -0.004361
v -1.642529 13.343705 0.615920
v -1.048159 13.197791 -0.247912
v -0.622536 13.225455 0.873611
v -0.797927 13.406678 0.293837
vt 0.363069 0.500000
vt 0.363069 0.999915
vt 0.000085 0.999915
vt 0.000085 0.500000
vt 0.726052 0.500000
vt 0.726052 0.999915
vt 0.726052 0.000085
vt 0.363069 0.000085
vt 0.000085 0.000085
vn 0.0383 0.9570 0.2875
vn -0.1777 0.9430 -0.2815
vn 0.0660 0.9204 -0.3854
vn 0.2899 0.9349 0.2045
usemtl Material.022
s off
f 406/398/172 403/399/172 401/400/172 405/401/172
f 404/402/173 399/403/173 403/399/173 406/398/173
f 398/404/174 404/402/174 406/398/174 402/405/174
f 402/405/175 406/398/175 405/401/175 400/406/175
o Plane.298_Plane.016
v 0.809077 13.801671 0.129731
v 0.744795 12.435144 -1.884027
v -0.846549 13.921827 0.101043
v -0.910831 12.555302 -1.912714
v 0.001311 14.109101 -0.005558
v -0.062971 12.742576 -2.019316
v 0.789529 13.273784 -0.953121
v -0.866097 13.393941 -0.981808
v -0.018237 13.581215 -1.088410
vt 0.363069 0.500000
vt 0.363069 0.999915
vt 0.000085 0.999915
vt 0.000085 0.500000
vt 0.726052 0.500000
vt 0.726052 0.999915
vt 0.726052 0.000085
vt 0.363069 0.000085
vt 0.000085 0.000085
vn -0.2414 0.7267 -0.6431
vn 0.3658 0.6827 -0.6326
vn 0.3836 0.8274 -0.4103
vn -0.2458 0.8730 -0.4212
usemtl Material.021
s off
f 415/407/176 412/408/176 410/409/176 414/410/176
f 413/411/177 408/412/177 412/408/177 415/407/177
f 407/413/178 413/411/178 415/407/178 411/414/178
f 411/414/179 415/407/179 414/410/179 409/415/179
o Plane.297_Plane.015
v 0.242313 13.253896 -0.743658
v -1.874396 12.475379 -1.275428
v -0.139918 13.245828 0.789624
v -2.256627 12.467311 0.257854
v 0.000303 13.507401 0.011651
v -2.116406 12.728884 -0.520119
v -0.848011 13.026412 -1.016661
v -1.230243 13.018344 0.516620
v -1.090022 13.279917 -0.261353
vt 0.363069 0.500000
vt 0.363069 0.999915
vt 0.000085 0.999915
vt 0.000085 0.500000
vt 0.726052 0.500000
vt 0.726052 0.999915
vt 0.726052 0.000085
vt 0.363069 0.000085
vt 0.000085 0.000085
vn -0.5015 0.8433 0.1932
vn -0.3542 0.8464 -0.3976
vn -0.1075 0.9316 -0.3471
vn -0.2601 0.9284 0.2653
usemtl Material.015
s off
f 424/416/180 421/417/180 419/418/180 423/419/180
f 422/420/181 417/421/181 421/417/181 424/416/181
f 416/422/182 422/420/182 424/416/182 420/423/182
f 420/423/183 424/416/183 423/419/183 418/424/183
o Plane.252_Plane.014
v -0.392604 14.106795 -0.623729
v -1.795813 13.039817 0.549958
v 0.531101 14.113249 0.486479
v -0.872109 13.046271 1.660166
v -0.000732 14.332586 -0.011695
v -1.403941 13.265608 1.161993
v -1.138167 13.713111 -0.001124
v -0.214462 13.719565 1.109084
v -0.746295 13.938902 0.610910
vt 0.363069 0.500000
vt 0.363069 0.999915
vt 0.000085 0.999915
vt 0.000085 0.500000
vt 0.726052 0.500000
vt 0.726052 0.999915
vt 0.726052 0.000085
vt 0.363069 0.000085
vt 0.000085 0.000085
vn -0.2595 0.7507 0.6075
vn -0.6489 0.7480 0.1395
vn -0.4783 0.8780 -0.0176
vn -0.0747 0.8808 0.4675
usemtl Material.014
s off
f 433/425/184 430/426/184 428/427/184 432/428/184
f 431/429/185 426/430/185 430/426/185 433/425/185
f 425/431/186 431/429/186 433/425/186 429/432/186
f 429/432/187 433/425/187 432/428/187 427/433/187
o Plane.251_Plane.013
v 0.844347 13.218796 0.540944
v 1.605244 11.335680 -1.673199
v -1.029542 13.409907 -0.265563
v -0.268646 11.526791 -2.479706
v 0.001484 13.605668 -0.011873
v 0.762381 11.722552 -2.226017
v 1.283894 12.460231 -0.660078
v -0.589996 12.651342 -1.466584
v 0.441030 12.847103 -1.212895
vt 0.363069 0.500000
vt 0.363069 0.999915
vt 0.000085 0.999915
vt 0.000085 0.500000
vt 0.726052 0.500000
vt 0.726052 0.999915
vt 0.726052 0.000085
vt 0.363069 0.000085
vt 0.000085 0.000085
vn 0.0522 0.6766 -0.7345
vn 0.6091 0.6198 -0.4948
vn 0.5506 0.7819 -0.2923
vn -0.0266 0.8408 -0.5408
usemtl Material.010
s off
f 442/434/188 439/435/188 437/436/188 441/437/188
f 440/438/189 435/439/189 439/435/189 442/434/189
f 434/440/190 440/438/190 442/434/190 438/441/190
f 438/441/191 442/434/191 441/437/191 436/442/191
o Plane.248_Plane.012
v -0.841608 13.900275 -0.296517
v -1.257424 12.578258 1.883720
v 0.887095 13.916390 0.042954
v 0.471279 12.594373 2.223191
v -0.001369 14.178801 -0.016832
v -0.417185 12.856783 2.163405
v -1.064662 13.409163 0.862667
v 0.664041 13.425278 1.202138
v -0.224423 13.687688 1.142352
vt 0.363069 0.500000
vt 0.363069 0.999915
vt 0.000085 0.999915
vt 0.000085 0.500000
vt 0.726052 0.500000
vt 0.726052 0.999915
vt 0.726052 0.000085
vt 0.363069 0.000085
vt 0.000085 0.000085
vn 0.1774 0.7467 0.6411
vn -0.4200 0.7411 0.5238
vn -0.3877 0.8732 0.2953
vn 0.2315 0.8789 0.4169
usemtl Material.008
s off
f 451/443/192 448/444/192 446/445/192 450/446/192
f 449/447/193 444/448/193 448/444/193 451/443/193
f 443/449/194 449/447/194 451/443/194 447/450/194
f 447/450/195 451/443/195 450/446/195 445/451/195
o Plane.246_Plane.011
v 0.457532 13.503736 0.663116
v 2.110320 12.534139 -0.615033
v -0.545995 13.377399 -0.538718
v 1.106793 12.407803 -1.816867
v 0.000795 13.689819 -0.001599
v 1.653583 12.720222 -1.279748
v 1.312209 13.175507 -0.016034
v 0.308683 13.049171 -1.217868
v 0.855473 13.361590 -0.680749
vt 0.363069 0.500000
vt 0.363069 0.999915
vt 0.000085 0.999915
vt 0.000085 0.500000
vt 0.726052 0.500000
vt 0.726052 0.999915
vt 0.726052 0.000085
vt 0.363069 0.000085
vt 0.000085 0.000085
vn 0.1609 0.7731 -0.6135
vn 0.5498 0.8221 -0.1477
vn 0.3652 0.9309 0.0097
vn -0.0380 0.8801 -0.4732
usemtl Material.001
s off
f 460/452/196 457/453/196 455/454/196 459/455/196
f 458/456/197 453/457/197 457/453/197 460/452/197
f 452/458/198 458/456/198 460/452/198 456/459/198
f 456/459/199 460/452/199 459/455/199 454/460/199
