# Blender v3.2.0 OBJ File: 'trees.blend'
# www.blender.org
mtllib Spruce Small 1 Leaves - LOD 1.mtl
o _Joined_Plane.1016
v -0.207508 6.449834 1.767765
v 5.136072 4.859253 2.233357
v 0.017991 6.195841 -1.687974
v 5.361570 4.605260 -1.222381
v 0.821581 18.620981 0.110385
v 0.828609 17.530195 -1.774954
v -0.840829 18.687622 0.065632
v -0.833800 17.596836 -1.819707
v 0.247764 17.850773 -0.734924
v -1.663077 17.538372 -1.417086
v -0.231514 17.691530 0.680532
v -2.142354 17.379129 -0.001629
v 0.459623 17.419304 -0.522031
v -1.196885 16.483801 -1.547430
v -0.364815 17.586391 0.657392
v -2.021324 16.650888 -0.368007
v 0.450878 18.835138 0.605049
v 2.134082 17.959408 -0.701437
v -0.489390 18.596918 -0.446662
v 1.193814 17.721188 -1.753148
v -0.343647 18.969553 -0.734702
v -1.921664 17.941942 0.339349
v 0.508612 19.147243 0.687461
v -1.069405 18.119633 1.761512
v -0.553147 18.990974 0.479626
v 0.794920 17.422508 1.751557
v 0.334114 18.868256 -0.612075
v 1.682181 17.299789 0.659856
v -0.763743 15.643774 0.401488
v 0.342714 15.468649 2.756608
v 0.710862 15.430008 -0.307191
v 1.817319 15.254883 2.047930
v -0.467100 17.065622 -0.672093
v -2.086730 15.581327 1.039478
v 0.684244 17.177870 0.514748
v -0.935386 15.693577 2.226319
v 0.657959 16.357483 0.767443
v 2.689225 15.855856 -0.973569
v -0.647115 16.244019 -0.722515
v 1.384151 15.742392 -2.463528
v 0.838623 17.954151 -0.467560
v -0.464182 16.997055 -2.339864
v -0.779953 18.052408 0.608466
v -2.082758 17.095312 -1.263837
v -0.137145 16.292002 -0.793085
v -2.469910 15.695284 -0.266794
v 0.196093 16.421389 0.830680
v -2.136672 15.824669 1.356972
v 0.877949 17.058020 -0.004052
v 0.498143 15.985342 -2.615382
v -0.936333 17.282944 0.167433
v -1.316139 16.210268 -2.443897
v -0.863815 16.403143 -0.356557
v -1.406187 14.948313 1.951162
v 0.947857 16.477991 0.116416
v 0.405485 15.023161 2.424136
v -0.111333 16.914993 0.989857
v 2.448843 16.452744 1.308058
v 0.083974 16.684278 -0.916699
v 2.644149 16.222029 -0.598498
v -0.103919 16.031857 1.046490
v 2.614719 15.422894 1.270867
v 0.054863 15.975809 -1.029490
v 2.773502 15.366848 -0.805113
v -1.137489 16.034246 -0.268287
v -1.604679 14.331404 2.242921
v 1.080555 15.745808 -0.051227
v 0.613365 14.042967 2.459981
v 0.897682 15.593037 0.191369
v 0.790221 13.848921 -2.561249
v -0.994914 15.847250 0.104180
v -1.102375 14.103134 -2.648438
v -0.014344 15.261259 -0.943687
v -2.593486 14.300824 -0.615801
v 0.156433 15.466162 0.999835
v -2.422709 14.505726 1.327720
v 0.752304 15.313581 -0.759278
v -1.548030 14.471021 -2.709349
v -0.736662 15.582764 0.880825
v -3.036996 14.740202 -1.069245
v 0.700919 15.927881 0.835235
v 2.717806 14.675089 -1.189431
v -0.835337 15.931061 -0.697086
v 1.181550 14.678270 -2.721752
v -0.381607 14.479392 -0.964405
v -3.277735 13.573884 0.268663
v 0.451198 14.318254 0.873284
v -2.444930 13.412746 2.106353
v -0.788820 14.961094 0.746345
v 1.476743 13.864534 2.719818
v 0.717293 15.147915 -0.878877
v 2.982855 14.051356 1.094597
v -1.047230 12.909119 0.696436
v 1.138351 11.350599 3.311948
v 0.915294 12.991923 -0.894151
v 3.100874 11.433403 1.721361
v -0.702225 13.167106 -0.863727
v -3.129079 11.789205 1.585402
v 0.865191 13.286622 0.756675
v -1.561664 11.908720 3.205804
v -0.340156 13.074118 1.078443
v 2.832838 12.002638 1.989028
v 0.185429 12.845299 -1.022243
v 3.358422 11.773819 -0.111658
v 0.661402 13.779033 -0.872784
v -1.856688 13.422209 -2.768386
v -0.732508 14.058823 0.926198
v -3.250597 13.701999 -0.969405
v 0.295801 13.328123 -1.137116
v -2.909067 11.745543 -1.690826
v -0.054887 13.240561 1.142931
v -3.259755 11.657980 0.589221
v 1.141788 14.157283 0.289643
v 1.696075 12.371159 -2.507334
v -1.087693 13.872246 0.029841
v -0.533406 12.086121 -2.767136
v -1.241695 13.854429 -0.110335
v -0.870420 11.941557 2.615499
v 1.300370 14.149073 -0.249812
v 1.671645 12.236201 2.476022
v 0.295137 14.370979 1.136056
v 3.225980 13.143658 0.139206
v -0.462148 14.353039 -1.068355
v 2.468695 13.125717 -2.065204
v -0.015584 11.195525 1.253779
v 3.258041 10.707422 1.362005
v 0.015437 10.871927 -1.143995
v 3.289062 10.383825 -1.035770
v -1.245410 12.011968 0.319123
v -0.376087 10.947535 3.595245
v 1.093903 11.676838 -0.410503
v 1.963226 10.612405 2.865620
v 1.145978 11.752714 0.528768
v 2.294294 10.274696 -2.376927
v -1.152001 11.536667 -0.269486
v -0.003686 10.058649 -3.175181
v -0.146818 12.659670 -1.361947
v -3.760670 11.485771 -0.935659
v 0.273928 12.299422 1.212878
v -3.339924 11.125523 1.639166
v 1.164136 11.074322 -0.482854
v -0.374716 9.812724 -3.205773
v -1.156359 11.366204 0.693332
v -2.695211 10.104608 -2.029586
v 0.847037 11.547190 1.111359
v 3.627146 9.940867 -1.123387
v -0.953320 11.207456 -0.884154
v 1.826790 9.601133 -3.118900
v -0.825235 11.772169 -0.958060
v -3.220738 9.671139 1.431976
v 0.989420 11.487078 0.610128
v -1.406084 9.386047 3.000164
v -0.654480 11.892107 0.903738
v 2.203225 11.576434 3.028018
v 0.775733 12.242205 -0.968241
v 3.633437 11.926533 1.156040
v -0.774616 9.661015 1.126562
v 2.883221 8.110004 3.258874
v 0.582492 9.634313 -1.220887
v 4.240329 8.083302 0.911425
v -0.974107 10.107756 -1.143864
v -3.809362 8.468460 1.540828
v 1.096362 9.899276 0.915422
v -1.738894 8.259981 3.600114
v 0.936895 9.688006 1.098136
v 3.946236 8.913774 -1.665092
v -1.036729 10.029963 -1.147087
v 1.972612 9.255731 -3.910315
v 1.325621 10.419776 0.372144
v 2.111934 9.115179 -3.135386
v -1.328361 10.327639 -0.188553
v -0.542049 9.023042 -3.696082
v 0.267402 9.696157 -1.424639
v -3.358019 7.888798 -1.848372
v 0.046447 9.484339 1.369307
v -3.578974 7.676979 0.945574
v 1.291257 9.728167 0.324422
v 2.004318 8.175257 -3.616487
v -1.282103 9.617752 -0.097688
v -0.569042 8.064843 -4.038597
v -1.463261 9.904200 -0.207915
v -1.726466 8.048987 3.291151
v 1.402464 9.687121 -0.107447
v 1.139259 7.831908 3.391619
v -0.504990 10.617174 1.453569
v 3.433309 8.909843 2.311375
v 0.293241 10.929276 -1.590021
v 4.231540 9.221946 -0.732214
v 0.018729 8.430023 1.523804
v 4.335742 7.897692 1.577625
v 0.039600 8.297001 -1.465954
v 4.356614 7.764669 -1.412133
v -1.562681 7.658601 0.414975
v -0.424951 6.232369 4.248449
v 1.418874 7.387309 -0.570849
v 2.556604 5.961077 3.262625
v 1.323488 8.519020 0.263200
v 1.653570 6.446530 -4.015601
v -1.364259 8.581109 0.025785
v -1.034177 6.508618 -4.253016
v -0.552478 7.416531 -1.481081
v -5.035161 6.106586 0.498080
v 0.701213 7.601221 1.480695
v -3.781471 6.291277 3.459856
v 1.556050 9.058819 -0.824951
v -0.541913 7.735872 -4.585384
v -1.402032 8.793438 0.918739
v -3.499994 7.470491 -2.841695
v 1.171865 8.530121 0.860253
v 3.259525 6.307317 -3.056177
v -1.380537 8.665236 -0.576995
v 0.707123 6.442433 -4.493424
v -1.388602 7.941911 -0.971607
v -3.867601 6.500315 3.142437
v 1.529361 8.154664 0.861219
v -0.949638 6.713068 4.975264
v -0.939347 8.435684 1.501598
v 3.207623 6.880621 4.007180
v 0.698906 8.017009 -1.469709
v 4.845876 6.461946 1.035872
v -1.090134 6.359976 1.279784
v 2.687731 6.034606 4.654045
v 1.171886 6.458807 -1.243273
v 4.949750 6.133437 2.130988
v -1.260841 5.482821 -1.307872
v -4.951535 3.910220 2.651941
v 1.393149 5.539025 1.188067
v -2.297545 3.966425 5.147880
v 1.351462 6.841021 1.038423
v 3.974804 4.578173 -2.896083
v -1.460321 6.590765 -0.692412
v 1.163021 4.327917 -4.626917
v 1.509196 7.254737 -0.780784
v -1.417155 4.753480 -4.955662
v -1.341665 7.420453 1.118223
v -4.268017 4.919196 -3.056655
v 0.426148 7.713105 -1.785715
v -4.745574 5.726567 -2.654552
v -0.169271 7.688355 1.815087
v -5.340993 5.701817 0.946250
v 1.638402 5.982623 0.037496
v 0.965557 3.398277 -4.505691
v -1.660257 6.206641 0.398597
v -2.333102 3.622294 -4.144590
v -1.998371 6.594315 0.075157
v -1.662734 4.945221 4.839394
v 1.887244 6.339058 -0.286936
v 2.222880 4.689964 4.477301
vt 0.726052 0.000085
vt 0.726052 0.999915
vt 0.000085 0.999915
vt 0.000085 0.000085
vt 0.726052 0.000085
vt 0.726052 0.999915
vt 0.000085 0.999915
vt 0.000085 0.000085
vt 0.726052 0.000085
vt 0.726052 0.999915
vt 0.000085 0.999915
vt 0.000085 0.000085
vt 0.726052 0.000085
vt 0.726052 0.999915
vt 0.000085 0.999915
vt 0.000085 0.000085
vt 0.000085 0.999915
vt 0.000085 0.000085
vt 0.726052 0.000085
vt 0.726052 0.999915
vt 0.000085 0.999915
vt 0.000085 0.000085
vt 0.726052 0.000085
vt 0.726052 0.999915
vt 0.726052 0.000085
vt 0.726052 0.999915
vt 0.000085 0.999915
vt 0.000085 0.000085
vt 0.726052 0.000085
vt 0.726052 0.999915
vt 0.000085 0.999915
vt 0.000085 0.000085
vt 0.000085 0.999915
vt 0.000085 0.000085
vt 0.726052 0.000085
vt 0.726052 0.999915
vt 0.000085 0.999915
vt 0.000085 0.000085
vt 0.726052 0.000085
vt 0.726052 0.999915
vt 0.726052 0.000085
vt 0.726052 0.999915
vt 0.000085 0.999915
vt 0.000085 0.000085
vt 0.000085 0.999915
vt 0.000085 0.000085
vt 0.726052 0.000085
vt 0.726052 0.999915
vt 0.726052 0.000085
vt 0.726052 0.999915
vt 0.000085 0.999915
vt 0.000085 0.000085
vt 0.000085 0.999915
vt 0.000085 0.000085
vt 0.726052 0.000085
vt 0.726052 0.999915
vt 0.000085 0.999915
vt 0.000085 0.000085
vt 0.726052 0.000085
vt 0.726052 0.999915
vt 0.726052 0.000085
vt 0.726052 0.999915
vt 0.000085 0.999915
vt 0.000085 0.000085
vt 0.000085 0.999915
vt 0.000085 0.000085
vt 0.726052 0.000085
vt 0.726052 0.999915
vt 0.726052 0.000085
vt 0.726052 0.999915
vt 0.000085 0.999915
vt 0.000085 0.000085
vt 0.000085 0.999915
vt 0.000085 0.000085
vt 0.726052 0.000085
vt 0.726052 0.999915
vt 0.726052 0.000085
vt 0.726052 0.999915
vt 0.000085 0.999915
vt 0.000085 0.000085
vt 0.000085 0.999915
vt 0.000085 0.000085
vt 0.726052 0.000085
vt 0.726052 0.999915
vt 0.000085 0.999915
vt 0.000085 0.000085
vt 0.726052 0.000085
vt 0.726052 0.999915
vt 0.726052 0.000085
vt 0.726052 0.999915
vt 0.000085 0.999915
vt 0.000085 0.000085
vt 0.726052 0.000085
vt 0.726052 0.999915
vt 0.000085 0.999915
vt 0.000085 0.000085
vt 0.000085 0.999915
vt 0.000085 0.000085
vt 0.726052 0.000085
vt 0.726052 0.999915
vt 0.726052 0.000085
vt 0.726052 0.999915
vt 0.000085 0.999915
vt 0.000085 0.000085
vt 0.726052 0.000085
vt 0.726052 0.999915
vt 0.000085 0.999915
vt 0.000085 0.000085
vt 0.726052 0.000085
vt 0.726052 0.999915
vt 0.000085 0.999915
vt 0.000085 0.000085
vt 0.726052 0.000085
vt 0.726052 0.999915
vt 0.000085 0.999915
vt 0.000085 0.000085
vt 0.000085 0.999915
vt 0.000085 0.000085
vt 0.726052 0.000085
vt 0.726052 0.999915
vt 0.000085 0.999915
vt 0.000085 0.000085
vt 0.726052 0.000085
vt 0.726052 0.999915
vt 0.000085 0.999915
vt 0.000085 0.000085
vt 0.726052 0.000085
vt 0.726052 0.999915
vt 0.726052 0.000085
vt 0.726052 0.999915
vt 0.000085 0.999915
vt 0.000085 0.000085
vt 0.000085 0.999915
vt 0.000085 0.000085
vt 0.726052 0.000085
vt 0.726052 0.999915
vt 0.000085 0.999915
vt 0.000085 0.000085
vt 0.726052 0.000085
vt 0.726052 0.999915
vt 0.726052 0.000085
vt 0.726052 0.999915
vt 0.000085 0.999915
vt 0.000085 0.000085
vt 0.000085 0.999915
vt 0.000085 0.000085
vt 0.726052 0.000085
vt 0.726052 0.999915
vt 0.000085 0.999915
vt 0.000085 0.000085
vt 0.726052 0.000085
vt 0.726052 0.999915
vt 0.726052 0.000085
vt 0.726052 0.999915
vt 0.000085 0.999915
vt 0.000085 0.000085
vt 0.726052 0.000085
vt 0.726052 0.999915
vt 0.000085 0.999915
vt 0.000085 0.000085
vt 0.000085 0.999915
vt 0.000085 0.000085
vt 0.726052 0.000085
vt 0.726052 0.999915
vt 0.000085 0.999915
vt 0.000085 0.000085
vt 0.726052 0.000085
vt 0.726052 0.999915
vt 0.726052 0.000085
vt 0.726052 0.999915
vt 0.000085 0.999915
vt 0.000085 0.000085
vt 0.000085 0.999915
vt 0.000085 0.000085
vt 0.726052 0.000085
vt 0.726052 0.999915
vt 0.726052 0.000085
vt 0.726052 0.999915
vt 0.000085 0.999915
vt 0.000085 0.000085
vt 0.000085 0.999915
vt 0.000085 0.000085
vt 0.726052 0.000085
vt 0.726052 0.999915
vt 0.726052 0.000085
vt 0.726052 0.999915
vt 0.000085 0.999915
vt 0.000085 0.000085
vt 0.726052 0.000085
vt 0.726052 0.999915
vt 0.000085 0.999915
vt 0.000085 0.000085
vt 0.726052 0.000085
vt 0.726052 0.999915
vt 0.000085 0.999915
vt 0.000085 0.000085
vt 0.726052 0.000085
vt 0.726052 0.999915
vt 0.000085 0.999915
vt 0.000085 0.000085
vt 0.000085 0.999915
vt 0.000085 0.000085
vt 0.726052 0.000085
vt 0.726052 0.999915
vt 0.726052 0.000085
vt 0.726052 0.999915
vt 0.000085 0.999915
vt 0.000085 0.000085
vt 0.000085 0.999915
vt 0.000085 0.000085
vt 0.726052 0.000085
vt 0.726052 0.999915
vt 0.000085 0.999915
vt 0.000085 0.000085
vt 0.726052 0.000085
vt 0.726052 0.999915
vt 0.726052 0.000085
vt 0.726052 0.999915
vt 0.000085 0.999915
vt 0.000085 0.000085
vt 0.726052 0.000085
vt 0.726052 0.999915
vt 0.000085 0.999915
vt 0.000085 0.000085
vt 0.000085 0.999915
vt 0.000085 0.000085
vt 0.726052 0.000085
vt 0.726052 0.999915
vt 0.000085 0.999915
vt 0.000085 0.000085
vt 0.726052 0.000085
vt 0.726052 0.999915
vt 0.726052 0.000085
vt 0.726052 0.999915
vt 0.000085 0.999915
vt 0.000085 0.000085
vt 0.726052 0.000085
vt 0.726052 0.999915
vt 0.000085 0.999915
vt 0.000085 0.000085
vt 0.726052 0.000085
vt 0.726052 0.999915
vt 0.000085 0.999915
vt 0.000085 0.000085
vt 0.726052 0.000085
vt 0.726052 0.999915
vt 0.000085 0.999915
vt 0.000085 0.000085
vn 0.2890 0.9559 -0.0514
vn 0.0481 0.8646 -0.5001
vn -0.1785 0.9827 0.0501
vn -0.2977 0.8940 -0.3348
vn 0.1850 0.9098 -0.3715
vn -0.4571 0.8740 0.1647
vn 0.5449 0.7584 0.3576
vn 0.1458 0.9893 0.0050
vn -0.4233 0.8434 0.3309
vn 0.1018 0.9812 -0.1639
vn -0.1757 0.9207 -0.3484
vn -0.2531 0.9671 -0.0251
vn 0.0771 0.9183 -0.3884
vn -0.1652 0.8514 0.4979
vn 0.1887 0.9770 -0.0989
vn 0.2193 0.9756 -0.0096
vn 0.0514 0.8221 0.5670
vn 0.1367 0.8344 -0.5340
vn -0.3557 0.9322 -0.0670
vn -0.1226 0.9555 -0.2682
vn 0.2845 0.9159 -0.2833
vn -0.2210 0.9577 0.1841
vn 0.1987 0.9356 0.2917
vn 0.2388 0.9088 0.3420
vn -0.3013 0.9271 0.2230
vn 0.3254 0.9453 -0.0216
vn -0.0153 0.9861 -0.1653
vn -0.4380 0.8984 -0.0329
vn -0.0438 0.8380 -0.5438
vn -0.0625 0.8129 0.5790
vn 0.3462 0.9296 -0.1265
vn 0.1504 0.9800 -0.1303
vn 0.2133 0.9444 0.2502
vn 0.0654 0.8996 -0.4318
vn -0.2849 0.9418 0.1783
vn -0.0781 0.9207 -0.3825
vn 0.2308 0.9031 -0.3620
vn -0.2717 0.8413 0.4673
vn -0.0179 0.9852 0.1705
vn 0.3024 0.9389 0.1642
vn -0.2271 0.9193 0.3214
vn 0.2145 0.9759 -0.0399
vn 0.0393 0.9394 -0.3406
vn -0.4489 0.8930 0.0322
vn 0.0197 0.9314 -0.3635
vn 0.0502 0.8808 0.4708
vn 0.3561 0.9155 0.1873
vn 0.1228 0.9915 -0.0433
vn 0.1828 0.9379 0.2947
vn 0.0589 0.9002 -0.4315
vn -0.2598 0.9644 0.0498
vn -0.2130 0.9528 -0.2164
vn 0.2558 0.8929 -0.3704
vn -0.2032 0.9558 0.2125
vn 0.3259 0.9443 0.0466
vn 0.0283 0.9975 0.0645
vn -0.2019 0.9602 0.1931
vn 0.1689 0.8989 -0.4044
vn -0.2084 0.8965 -0.3910
vn -0.3505 0.9351 -0.0515
vn 0.0048 0.8689 -0.4950
vn 0.0918 0.9430 0.3199
usemtl Material.726
s off
f 1/1/1 2/2/1 4/3/1 3/4/1
usemtl Material.665
f 5/5/2 6/6/2 8/7/2 7/8/2
usemtl Material.666
f 9/9/3 10/10/3 12/11/3 11/12/3
usemtl Material.667
f 13/13/4 14/14/4 16/15/4 15/16/4
usemtl Material.668
f 20/17/5 19/18/5 17/19/5 18/20/5
usemtl Material.669
f 24/21/6 23/22/6 21/23/6 22/24/6
usemtl Material.670
f 25/25/7 26/26/7 28/27/7 27/28/7
usemtl Material.671
f 29/29/8 30/30/8 32/31/8 31/32/8
usemtl Material.672
f 36/33/9 35/34/9 33/35/9 34/36/9
usemtl Material.673
f 40/37/10 39/38/10 37/39/10 38/40/10
usemtl Material.674
f 41/41/11 42/42/11 44/43/11 43/44/11
usemtl Material.675
f 48/45/12 47/46/12 45/47/12 46/48/12
usemtl Material.676
f 49/49/13 50/50/13 52/51/13 51/52/13
usemtl Material.677
f 56/53/14 55/54/14 53/55/14 54/56/14
usemtl Material.678
f 60/57/15 59/58/15 57/59/15 58/60/15
usemtl Material.679
f 61/61/16 62/62/16 64/63/16 63/64/16
usemtl Material.680
f 68/65/17 67/66/17 65/67/17 66/68/17
usemtl Material.681
f 69/69/18 70/70/18 72/71/18 71/72/18
usemtl Material.682
f 76/73/19 75/74/19 73/75/19 74/76/19
usemtl Material.683
f 77/77/20 78/78/20 80/79/20 79/80/20
usemtl Material.684
f 84/81/21 83/82/21 81/83/21 82/84/21
usemtl Material.685
f 88/85/22 87/86/22 85/87/22 86/88/22
usemtl Material.686
f 89/89/23 90/90/23 92/91/23 91/92/23
usemtl Material.687
f 93/93/24 94/94/24 96/95/24 95/96/24
usemtl Material.688
f 100/97/25 99/98/25 97/99/25 98/100/25
usemtl Material.689
f 101/101/26 102/102/26 104/103/26 103/104/26
usemtl Material.690
f 105/105/27 106/106/27 108/107/27 107/108/27
usemtl Material.691
f 109/109/28 110/110/28 112/111/28 111/112/28
usemtl Material.692
f 113/113/29 114/114/29 116/115/29 115/116/29
usemtl Material.693
f 120/117/30 119/118/30 117/119/30 118/120/30
usemtl Material.694
f 124/121/31 123/122/31 121/123/31 122/124/31
usemtl Material.695
f 128/125/32 127/126/32 125/127/32 126/128/32
usemtl Material.696
f 129/129/33 130/130/33 132/131/33 131/132/33
usemtl Material.697
f 136/133/34 135/134/34 133/135/34 134/136/34
usemtl Material.698
f 140/137/35 139/138/35 137/139/35 138/140/35
usemtl Material.699
f 141/141/36 142/142/36 144/143/36 143/144/36
usemtl Material.700
f 148/145/37 147/146/37 145/147/37 146/148/37
usemtl Material.701
f 152/149/38 151/150/38 149/151/38 150/152/38
usemtl Material.702
f 153/153/39 154/154/39 156/155/39 155/156/39
usemtl Material.703
f 157/157/40 158/158/40 160/159/40 159/160/40
usemtl Material.704
f 164/161/41 163/162/41 161/163/41 162/164/41
usemtl Material.705
f 168/165/42 167/166/42 165/167/42 166/168/42
usemtl Material.706
f 169/169/43 170/170/43 172/171/43 171/172/43
usemtl Material.707
f 176/173/44 175/174/44 173/175/44 174/176/44
usemtl Material.708
f 177/177/45 178/178/45 180/179/45 179/180/45
usemtl Material.709
f 184/181/46 183/182/46 181/183/46 182/184/46
usemtl Material.710
f 185/185/47 186/186/47 188/187/47 187/188/47
usemtl Material.711
f 189/189/48 190/190/48 192/191/48 191/192/48
usemtl Material.712
f 193/193/49 194/194/49 196/195/49 195/196/49
usemtl Material.713
f 197/197/50 198/198/50 200/199/50 199/200/50
usemtl Material.714
f 204/201/51 203/202/51 201/203/51 202/204/51
usemtl Material.715
f 205/205/52 206/206/52 208/207/52 207/208/52
usemtl Material.716
f 212/209/53 211/210/53 209/211/53 210/212/53
usemtl Material.717
f 216/213/54 215/214/54 213/215/54 214/216/54
usemtl Material.718
f 217/217/55 218/218/55 220/219/55 219/220/55
usemtl Material.719
f 221/221/56 222/222/56 224/223/56 223/224/56
usemtl Material.720
f 228/225/57 227/226/57 225/227/57 226/228/57
usemtl Material.721
f 232/229/58 231/230/58 229/231/58 230/232/58
usemtl Material.722
f 233/233/59 234/234/59 236/235/59 235/236/59
usemtl Material.723
f 237/237/60 238/238/60 240/239/60 239/240/60
usemtl Material.724
f 241/241/61 242/242/61 244/243/61 243/244/61
usemtl Material.725
f 245/245/62 246/246/62 248/247/62 247/248/62
