# Blender v3.2.0 OBJ File: 'trees.blend'
# www.blender.org
mtllib Pine Leaves 1 Trunk 1.mtl
o Short_twigs_set_Plane.001
v 0.053816 3.875806 0.922159
v 0.053816 5.875806 0.922159
v 0.053816 3.875806 0.243670
v 0.053816 5.875806 0.243670
vt 0.869132 0.583327
vt 0.869132 0.998870
vt 0.728161 0.998870
vt 0.728161 0.583327
vn -1.0000 0.0000 -0.0000
usemtl thing
s off
f 1/1/1 2/2/1 4/3/1 3/4/1
o Long_twig_Plane.143
v -0.298742 6.585434 -0.120589
v -1.173732 7.132769 -0.361565
v -0.119726 6.893321 -0.071287
v -0.994716 7.440656 -0.312263
vt 0.994043 -0.000190
vt 0.994043 0.406109
vt 0.856208 0.406109
vt 0.856208 -0.000190
vn 0.2655 0.0000 -0.9641
usemtl thing
s off
f 5/5/2 6/6/2 8/7/2 7/8/2
o Short_twigs_set_2.001_Plane.144
v -0.048224 4.796614 -0.930388
v -0.048223 6.796614 -0.930388
v -0.048224 4.796614 -0.251899
v -0.048224 6.796614 -0.251899
vt 0.869132 0.583327
vt 0.869132 0.998870
vt 0.728161 0.998870
vt 0.728161 0.583327
vn 1.0000 -0.0000 0.0000
usemtl thing
s off
f 9/9/3 10/10/3 12/11/3 11/12/3
o Long_twig_2_Plane.210
v -0.018331 8.055164 -0.011350
v 0.821351 9.077968 0.002219
v 0.308823 7.788616 -0.164593
v 1.148505 8.811419 -0.151024
vt 0.854803 0.003131
vt 0.854803 0.403285
vt 0.719053 0.403285
vt 0.719053 0.003131
vn -0.2577 0.2240 -0.9399
usemtl Material
s off
f 13/13/4 14/14/4 16/15/4 15/16/4
o Plane_Plane.081
v -0.207508 6.449834 1.767765
v 5.136072 4.859253 2.233357
v 0.017991 6.195841 -1.687974
v 5.361570 4.605260 -1.222381
v -0.000179 6.912371 0.002737
v 5.343401 5.321790 0.468329
v 2.523693 6.024864 1.977219
v 2.749192 5.770871 -1.478519
v 2.731023 6.487401 0.212192
vt 0.363069 0.500000
vt 0.363069 0.999915
vt 0.000085 0.999915
vt 0.000085 0.500000
vt 0.726052 0.500000
vt 0.726052 0.999915
vt 0.726052 0.000085
vt 0.363069 0.000085
vt 0.000085 0.000085
vn 0.4099 0.8414 -0.3522
vn 0.3690 0.8875 0.2759
vn 0.1283 0.9555 0.2655
vn 0.1706 0.9079 -0.3829
usemtl Material.082
s off
f 25/17/5 22/18/5 20/19/5 24/20/5
f 23/21/6 18/22/6 22/18/6 25/17/6
f 17/23/7 23/21/7 25/17/7 21/24/7
f 21/24/8 25/17/8 24/20/8 19/25/8
o Plane.081_Plane.082
v -1.998371 6.594315 0.075157
v -1.662734 4.945221 4.839394
v 1.887244 6.339058 -0.286936
v 2.222881 4.689964 4.477301
v -0.003077 7.115032 0.000287
v 0.332559 5.465939 4.764524
v -1.797583 6.177032 2.523971
v 2.088032 5.921775 2.161878
v 0.197710 6.697749 2.449100
vt 0.363069 0.500000
vt 0.363069 0.999915
vt 0.000085 0.999915
vt 0.000085 0.500000
vt 0.726052 0.500000
vt 0.726052 0.999915
vt 0.726052 0.000085
vt 0.363069 0.000085
vt 0.000085 0.000085
vn 0.3989 0.8190 0.4125
vn -0.2065 0.8588 0.4689
vn -0.2419 0.9530 0.1822
vn 0.3928 0.9113 0.1231
usemtl Material.083
s off
f 34/26/9 31/27/9 29/28/9 33/29/9
f 32/30/10 27/31/10 31/27/10 34/26/10
f 26/32/11 32/30/11 34/26/11 30/33/11
f 30/33/12 34/26/12 33/29/12 28/34/12
o Plane.082_Plane.083
v 1.638402 5.982623 0.037496
v 0.965557 3.398277 -4.505692
v -1.660257 6.206640 0.398597
v -2.333102 3.622294 -4.144591
v 0.002613 6.645947 -0.000286
v -0.670232 4.061600 -4.543474
v 1.310485 5.036763 -2.371245
v -1.988174 5.260780 -2.010145
v -0.325304 5.700086 -2.409027
vt 0.363069 0.500000
vt 0.363069 0.999915
vt 0.000085 0.999915
vt 0.000085 0.500000
vt 0.726052 0.500000
vt 0.726052 0.999915
vt 0.726052 0.000085
vt 0.363069 0.000085
vt 0.000085 0.000085
vn -0.3336 0.7731 -0.5395
vn 0.3098 0.7294 -0.6100
vn 0.3547 0.8529 -0.3832
vn -0.3117 0.8981 -0.3102
usemtl Material.084
s off
f 43/35/13 40/36/13 38/37/13 42/38/13
f 41/39/14 36/40/14 40/36/14 43/35/14
f 35/41/15 41/39/15 43/35/15 39/42/15
f 39/42/16 43/35/16 42/38/16 37/43/16
o Plane.083_Plane.084
v 0.426148 7.713105 -1.785715
v -4.745574 5.726567 -2.654552
v -0.169271 7.688355 1.815087
v -5.340993 5.701817 0.946250
v 0.000472 8.227758 -0.002852
v -5.171251 6.241220 -0.871689
v -2.240097 7.050893 -2.231150
v -2.835516 7.026143 1.369652
v -2.665773 7.565546 -0.448287
vt 0.363069 0.500000
vt 0.363069 0.999915
vt 0.000085 0.999915
vt 0.000085 0.500000
vt 0.726052 0.500000
vt 0.726052 0.999915
vt 0.726052 0.000085
vt 0.363069 0.000085
vt 0.000085 0.000085
vn -0.4843 0.8501 0.2070
vn -0.3938 0.8538 -0.3405
vn -0.1796 0.9329 -0.3122
vn -0.2725 0.9290 0.2502
usemtl Material.085
s off
f 52/44/17 49/45/17 47/46/17 51/47/17
f 50/48/18 45/49/18 49/45/18 52/44/18
f 44/50/19 50/48/19 52/44/19 48/51/19
f 48/51/20 52/44/20 51/47/20 46/52/20
o Plane.084_Plane.085
v 1.509196 7.254737 -0.780784
v -1.417155 4.753480 -4.955663
v -1.341665 7.420453 1.118224
v -4.268017 4.919196 -3.056655
v 0.002258 7.886060 -0.001504
v -2.924094 5.384803 -4.176383
v -0.005179 6.348631 -2.975151
v -2.856041 6.514347 -1.076143
v -1.512118 6.979954 -2.195871
vt 0.363069 0.500000
vt 0.363069 0.999915
vt 0.000085 0.999915
vt 0.000085 0.500000
vt 0.726052 0.500000
vt 0.726052 0.999915
vt 0.726052 0.000085
vt 0.363069 0.000085
vt 0.000085 0.000085
vn -0.5160 0.8084 -0.2832
vn 0.0014 0.7783 -0.6279
vn 0.1333 0.8802 -0.4554
vn -0.3995 0.9112 -0.1006
usemtl Material.086
s off
f 61/53/21 58/54/21 56/55/21 60/56/21
f 59/57/22 54/58/22 58/54/22 61/53/22
f 53/59/23 59/57/23 61/53/23 57/60/23
f 57/60/24 61/53/24 60/56/24 55/61/24
o Plane.085_Plane.086
v 1.351462 6.841021 1.038423
v 3.974804 4.578173 -2.896082
v -1.460321 6.590765 -0.692412
v 1.163021 4.327917 -4.626917
v 0.002227 7.266391 0.001371
v 2.625569 5.003542 -3.933134
v 2.698722 6.055397 -1.036643
v -0.113061 5.805141 -2.767478
v 1.349487 6.480766 -2.073695
vt 0.363069 0.500000
vt 0.363069 0.999915
vt 0.000085 0.999915
vt 0.000085 0.500000
vt 0.726052 0.500000
vt 0.726052 0.999915
vt 0.726052 0.000085
vt 0.363069 0.000085
vt 0.000085 0.000085
vn -0.0491 0.7653 -0.6417
vn 0.4932 0.8136 -0.3079
vn 0.3728 0.9217 -0.1069
vn -0.1882 0.8718 -0.4523
usemtl Material.087
s off
f 70/62/25 67/63/25 65/64/25 69/65/25
f 68/66/26 63/67/26 67/63/26 70/62/26
f 62/68/27 68/66/27 70/62/27 66/69/27
f 66/69/28 70/62/28 69/65/28 64/70/28
o Plane.086_Plane.087
v -1.260841 5.482821 -1.307872
v -4.951536 3.910221 2.651942
v 1.393149 5.539026 1.188067
v -2.297545 3.966425 5.147881
v -0.002102 6.161592 -0.001977
v -3.692796 4.588991 3.957837
v -3.149064 5.105244 0.708421
v -0.495074 5.161448 3.204360
v -1.890324 5.784014 2.014317
vt 0.363069 0.500000
vt 0.363069 0.999915
vt 0.000085 0.999915
vt 0.000085 0.500000
vt 0.726052 0.500000
vt 0.726052 0.999915
vt 0.726052 0.000085
vt 0.363069 0.000085
vt 0.000085 0.000085
vn -0.0379 0.8665 0.4977
vn -0.5138 0.8564 0.0501
vn -0.3448 0.9267 -0.1493
vn 0.1493 0.9372 0.3153
usemtl Material.088
s off
f 79/71/29 76/72/29 74/73/29 78/74/29
f 77/75/30 72/76/30 76/72/30 79/71/30
f 71/77/31 77/75/31 79/71/31 75/78/31
f 75/78/32 79/71/32 78/74/32 73/79/32
o Plane.087_Plane.088
v -1.090134 6.359976 1.279784
v 2.687731 6.034606 4.654046
v 1.171887 6.458807 -1.243273
v 4.949751 6.133437 2.130988
v -0.001792 6.970921 0.001998
v 3.776073 6.645551 3.376259
v 0.771996 6.550021 2.956703
v 3.034017 6.648851 0.433646
v 1.860339 7.160965 1.678916
vt 0.363069 0.500000
vt 0.363069 0.999915
vt 0.000085 0.999915
vt 0.000085 0.500000
vt 0.726052 0.500000
vt 0.726052 0.999915
vt 0.726052 0.000085
vt 0.363069 0.000085
vt 0.000085 0.000085
vn 0.3252 0.9422 -0.0810
vn -0.0814 0.9244 0.3726
vn -0.2823 0.9366 0.2074
vn 0.1386 0.9550 -0.2621
usemtl Material.089
s off
f 88/80/33 85/81/33 83/82/33 87/83/33
f 86/84/34 81/85/34 85/81/34 88/80/34
f 80/86/35 86/84/35 88/80/35 84/87/35
f 84/87/36 88/80/36 87/83/36 82/88/36
o Plane.088_Plane.089
v -0.939347 8.435684 1.501599
v 3.207622 6.880621 4.007180
v 0.698906 8.017008 -1.469709
v 4.845876 6.461946 1.035873
v -0.001298 8.788142 0.002353
v 4.145672 7.233079 2.507935
v 1.208840 8.011049 2.745852
v 2.847094 7.592374 -0.225456
v 2.146890 8.363507 1.246607
vt 0.363069 0.500000
vt 0.363069 0.999915
vt 0.000085 0.999915
vt 0.000085 0.500000
vt 0.726052 0.500000
vt 0.726052 0.999915
vt 0.726052 0.000085
vt 0.363069 0.000085
vt 0.000085 0.000085
vn 0.5603 0.8129 -0.1593
vn 0.2657 0.8881 0.3750
vn 0.0436 0.9661 0.2544
vn 0.3489 0.8881 -0.2993
usemtl Material.090
s off
f 97/89/37 94/90/37 92/91/37 96/92/37
f 95/93/38 90/94/38 94/90/38 97/89/38
f 89/95/39 95/93/39 97/89/39 93/96/39
f 93/96/40 97/89/40 96/92/40 91/97/40
o Plane.089_Plane.090
v -1.388602 7.941911 -0.971607
v -3.867601 6.500316 3.142438
v 1.529361 8.154664 0.861219
v -0.949638 6.713068 4.975265
v -0.002311 8.582282 -0.001452
v -2.481310 7.140687 4.112594
v -2.673763 7.556547 1.119174
v 0.244201 7.769299 2.952001
v -1.287472 8.196918 2.089330
vt 0.363069 0.500000
vt 0.363069 0.999915
vt 0.000085 0.999915
vt 0.000085 0.500000
vt 0.726052 0.500000
vt 0.726052 0.999915
vt 0.726052 0.000085
vt 0.363069 0.000085
vt 0.000085 0.000085
vn -0.0099 0.8888 0.4582
vn -0.4995 0.8531 0.1506
vn -0.3811 0.9223 -0.0642
vn 0.1250 0.9592 0.2536
usemtl Material.091
s off
f 106/98/41 103/99/41 101/100/41 105/101/41
f 104/102/42 99/103/42 103/99/42 106/98/42
f 98/104/43 104/102/43 106/98/43 102/105/43
f 102/105/44 106/98/44 105/101/44 100/106/44
o Plane.090_Plane.091
v 1.171865 8.530121 0.860254
v 3.259525 6.307317 -3.056177
v -1.380537 8.665236 -0.576995
v 0.707123 6.442433 -4.493425
v 0.002022 9.112391 0.001138
v 2.089681 6.889587 -3.915292
v 2.282504 7.742040 -1.186212
v -0.269898 7.877155 -2.623460
v 1.112660 8.324309 -2.045328
vt 0.363069 0.500000
vt 0.363069 0.999915
vt 0.000085 0.999915
vt 0.000085 0.500000
vt 0.726052 0.500000
vt 0.726052 0.999915
vt 0.726052 0.000085
vt 0.363069 0.000085
vt 0.000085 0.000085
vn -0.0017 0.7930 -0.6093
vn 0.5843 0.7619 -0.2793
vn 0.4861 0.8710 -0.0716
vn -0.1195 0.9030 -0.4126
usemtl Material.092
s off
f 115/107/45 112/108/45 110/109/45 114/110/45
f 113/111/46 108/112/46 112/108/46 115/107/46
f 107/113/47 113/111/47 115/107/47 111/114/47
f 111/114/48 115/107/48 114/110/48 109/115/48
o Plane.091_Plane.092
v 1.556050 9.058818 -0.824951
v -0.541913 7.735871 -4.585385
v -1.402032 8.793437 0.918739
v -3.499995 7.470491 -2.841695
v 0.002343 9.441210 -0.001381
v -2.095621 8.118263 -3.761814
v 0.460166 8.720898 -2.735492
v -2.497915 8.455518 -0.991802
v -1.093541 9.103291 -1.911922
vt 0.363069 0.500000
vt 0.363069 0.999915
vt 0.000085 0.999915
vt 0.000085 0.500000
vt 0.726052 0.500000
vt 0.726052 0.999915
vt 0.726052 0.000085
vt 0.363069 0.000085
vt 0.000085 0.000085
vn -0.5051 0.8448 -0.1762
vn -0.0249 0.8879 -0.4593
vn 0.1128 0.9653 -0.2354
vn -0.3862 0.9206 0.0587
usemtl Material.093
s off
f 124/116/49 121/117/49 119/118/49 123/119/49
f 122/120/50 117/121/50 121/117/50 124/116/50
f 116/122/51 122/120/51 124/116/51 120/123/51
f 120/123/52 124/116/52 123/119/52 118/124/52
o Plane.092_Plane.093
v -0.552478 7.416531 -1.481081
v -5.035161 6.106586 0.498080
v 0.701213 7.601221 1.480695
v -3.781471 6.291277 3.459856
v -0.000993 8.054950 -0.002346
v -4.483676 6.745006 1.976816
v -2.841158 7.104579 -0.492852
v -1.587467 7.289270 2.468923
v -2.289673 7.742998 0.985883
vt 0.363069 0.500000
vt 0.363069 0.999915
vt 0.000085 0.999915
vt 0.000085 0.500000
vt 0.726052 0.500000
vt 0.726052 0.999915
vt 0.726052 0.000085
vt 0.363069 0.000085
vt 0.000085 0.000085
vn -0.2331 0.8935 0.3837
vn -0.4770 0.8576 -0.1924
vn -0.2554 0.9187 -0.3014
vn -0.0033 0.9558 0.2940
usemtl Material.094
s off
f 133/125/53 130/126/53 128/127/53 132/128/53
f 131/129/54 126/130/54 130/126/54 133/125/54
f 125/131/55 131/129/55 133/125/55 129/132/55
f 129/132/56 133/125/56 132/128/56 127/133/56
o Plane.093_Plane.094
v 1.323489 8.519021 0.263201
v 1.653571 6.446530 -4.015602
v -1.364259 8.581109 0.025785
v -1.034177 6.508618 -4.253017
v 0.002129 8.972875 0.000188
v 0.332211 6.900384 -4.278615
v 1.502672 7.748367 -1.966847
v -1.185076 7.810455 -2.204262
v 0.181312 8.202222 -2.229859
vt 0.363069 0.500000
vt 0.363069 0.999915
vt 0.000085 0.999915
vt 0.000085 0.500000
vt 0.726052 0.500000
vt 0.726052 0.999915
vt 0.726052 0.000085
vt 0.363069 0.000085
vt 0.000085 0.000085
vn -0.2424 0.8107 -0.5330
vn 0.3689 0.7965 -0.4790
vn 0.3611 0.8900 -0.2785
vn -0.2656 0.9044 -0.3339
usemtl Material.095
s off
f 142/134/57 139/135/57 137/136/57 141/137/57
f 140/138/58 135/139/58 139/135/58 142/134/58
f 134/140/59 140/138/59 142/134/59 138/141/59
f 138/141/60 142/134/60 141/137/60 136/142/60
o Plane.094_Plane.095
v -1.562681 7.658600 0.414975
v -0.424951 6.232369 4.248449
v 1.418874 7.387308 -0.570849
v 2.556604 5.961077 3.262625
v -0.002361 8.001189 0.000781
v 1.135369 6.574958 3.834255
v -0.950133 7.245892 2.381159
v 2.031423 6.974600 1.395335
v 0.610187 7.588481 1.966965
vt 0.363069 0.500000
vt 0.363069 0.999915
vt 0.000085 0.999915
vt 0.000085 0.500000
vt 0.726052 0.500000
vt 0.726052 0.999915
vt 0.726052 0.000085
vt 0.363069 0.000085
vt 0.000085 0.000085
vn 0.4795 0.8208 0.3106
vn -0.0611 0.8699 0.4894
vn -0.1450 0.9583 0.2463
vn 0.4163 0.9072 0.0607
usemtl Material.096
s off
f 151/143/61 148/144/61 146/145/61 150/146/61
f 149/147/62 144/148/62 148/144/62 151/143/62
f 143/149/63 149/147/63 151/143/63 147/150/63
f 147/150/64 151/143/64 150/146/64 145/151/64
o Plane.095_Plane.096
v 0.018729 8.430023 1.523804
v 4.335743 7.897692 1.577625
v 0.039600 8.297001 -1.465954
v 4.356614 7.764670 -1.412133
v -0.000017 8.955821 0.002368
v 4.316998 8.423491 0.056189
v 2.158906 8.535921 1.534033
v 2.179777 8.402900 -1.455725
v 2.140160 9.061720 0.012596
vt 0.363069 0.500000
vt 0.363069 0.999915
vt 0.000085 0.999915
vt 0.000085 0.500000
vt 0.726052 0.500000
vt 0.726052 0.999915
vt 0.726052 0.000085
vt 0.363069 0.000085
vt 0.000085 0.000085
vn 0.2664 0.8821 -0.3886
vn 0.2615 0.9133 0.3124
vn -0.0483 0.9439 0.3268
vn -0.0431 0.9111 -0.4100
usemtl Material.097
s off
f 160/152/65 157/153/65 155/154/65 159/155/65
f 158/156/66 153/157/66 157/153/66 160/152/66
f 152/158/67 158/156/67 160/152/67 156/159/67
f 156/159/68 160/152/68 159/155/68 154/160/68
o Plane.096_Plane.097
v -0.504990 10.617173 1.453569
v 3.433309 8.909843 2.311376
v 0.293241 10.929276 -1.590021
v 4.231540 9.221946 -0.732214
v -0.000632 11.192901 0.002411
v 3.937667 9.485571 0.860218
v 1.530268 10.027131 1.926843
v 2.328500 10.339233 -1.116747
v 2.034626 10.602859 0.475685
vt 0.363069 0.500000
vt 0.363069 0.999915
vt 0.000085 0.999915
vt 0.000085 0.500000
vt 0.726052 0.500000
vt 0.726052 0.999915
vt 0.726052 0.000085
vt 0.363069 0.000085
vt 0.000085 0.000085
vn 0.5128 0.8572 -0.0473
vn 0.3818 0.8060 0.4524
vn 0.1639 0.8961 0.4125
vn 0.2988 0.9489 -0.1019
usemtl Material.098
s off
f 169/161/69 166/162/69 164/163/69 168/164/69
f 167/165/70 162/166/70 166/162/70 169/161/70
f 161/167/71 167/165/71 169/161/71 165/168/71
f 165/168/72 169/161/72 168/164/72 163/169/72
o Plane.097_Plane.098
v -1.463261 9.904200 -0.207915
v -1.726466 8.048987 3.291151
v 1.402464 9.687121 -0.107447
v 1.139259 7.831908 3.391619
v -0.002270 10.239937 -0.000080
v -0.265474 8.384725 3.498986
v -1.577194 9.255670 1.640617
v 1.288531 9.038590 1.741085
v -0.116203 9.591407 1.848452
vt 0.363069 0.500000
vt 0.363069 0.999915
vt 0.000085 0.999915
vt 0.000085 0.500000
vt 0.726052 0.500000
vt 0.726052 0.999915
vt 0.726052 0.000085
vt 0.363069 0.000085
vt 0.000085 0.000085
vn 0.3372 0.7452 0.5753
vn -0.2605 0.7905 0.5543
vn -0.2544 0.9174 0.3062
vn 0.3675 0.8703 0.3280
usemtl Material.099
s off
f 178/170/73 175/171/73 173/172/73 177/173/73
f 176/174/74 171/175/74 175/171/74 178/170/74
f 170/176/75 176/174/75 178/170/75 174/177/75
f 174/177/76 178/170/76 177/173/76 172/178/76
o Plane.098_Plane.099
v 1.291257 9.728167 0.324422
v 2.004318 8.175257 -3.616487
v -1.282103 9.617752 -0.097688
v -0.569042 8.064843 -4.038598
v 0.002038 10.164259 0.000334
v 0.715099 8.611349 -3.940575
v 1.646193 9.260325 -1.717035
v -0.927167 9.149912 -2.139145
v 0.356974 9.696418 -2.041123
vt 0.363069 0.500000
vt 0.363069 0.999915
vt 0.000085 0.999915
vt 0.000085 0.500000
vt 0.726052 0.500000
vt 0.726052 0.999915
vt 0.726052 0.000085
vt 0.363069 0.000085
vt 0.000085 0.000085
vn -0.3020 0.8021 -0.5152
vn 0.3825 0.8315 -0.4029
vn 0.3506 0.9243 -0.1509
vn -0.3600 0.8938 -0.2674
usemtl Material.100
s off
f 187/179/77 184/180/77 182/181/77 186/182/77
f 185/183/78 180/184/78 184/180/78 187/179/78
f 179/185/79 185/183/79 187/179/79 183/186/79
f 183/186/80 187/179/80 186/182/80 181/187/80
o Plane.099_Plane.100
v 0.267402 9.696157 -1.424639
v -3.358019 7.888798 -1.848372
v 0.046448 9.484338 1.369307
v -3.578974 7.676979 0.945574
v 0.000175 10.089489 -0.002213
v -3.625246 8.282130 -0.425946
v -1.643772 9.106080 -1.620517
v -1.864727 8.894261 1.173429
v -1.910999 9.499413 -0.198091
vt 0.363069 0.500000
vt 0.363069 0.999915
vt 0.000085 0.999915
vt 0.000085 0.500000
vt 0.726052 0.500000
vt 0.726052 0.999915
vt 0.726052 0.000085
vt 0.363069 0.000085
vt 0.000085 0.000085
vn -0.5732 0.7423 0.3469
vn -0.5207 0.7927 -0.3170
vn -0.2529 0.9192 -0.3017
vn -0.3078 0.8666 0.3928
usemtl Material.101
s off
f 196/188/81 193/189/81 191/190/81 195/191/81
f 194/192/82 189/193/82 193/189/82 196/188/82
f 188/194/83 194/192/83 196/188/83 192/195/83
f 192/195/84 196/188/84 195/191/84 190/196/84
o Plane.100_Plane.101
v 1.325621 10.419776 0.372144
v 2.111934 9.115179 -3.135386
v -1.328361 10.327639 -0.188553
v -0.542049 9.023042 -3.696082
v 0.002102 10.829611 0.000444
v 0.788415 9.525014 -3.507085
v 1.720959 10.053857 -1.439004
v -0.933024 9.961720 -1.999700
v 0.397439 10.463692 -1.810704
vt 0.363069 0.500000
vt 0.363069 0.999915
vt 0.000085 0.999915
vt 0.000085 0.500000
vt 0.726052 0.500000
vt 0.726052 0.999915
vt 0.726052 0.000085
vt 0.363069 0.000085
vt 0.000085 0.000085
vn -0.2387 0.8253 -0.5117
vn 0.3697 0.8465 -0.3832
vn 0.3240 0.9386 -0.1189
vn -0.3099 0.9165 -0.2528
usemtl Material.102
s off
f 205/197/85 202/198/85 200/199/85 204/200/85
f 203/201/86 198/202/86 202/198/86 205/197/86
f 197/203/87 203/201/87 205/197/87 201/204/87
f 201/204/88 205/197/88 204/200/88 199/205/88
o Plane.101_Plane.102
v 0.936895 9.688005 1.098136
v 3.946237 8.913774 -1.665092
v -1.036729 10.029962 -1.147087
v 1.972612 9.255730 -3.910315
v 0.001563 10.328482 0.001778
v 3.010904 9.554250 -2.761450
v 2.473904 9.595809 -0.266987
v 0.500279 9.937765 -2.512210
v 1.538571 10.236284 -1.363345
vt 0.363069 0.500000
vt 0.363069 0.999915
vt 0.000085 0.999915
vt 0.000085 0.500000
vt 0.726052 0.500000
vt 0.726052 0.999915
vt 0.726052 0.000085
vt 0.363069 0.000085
vt 0.000085 0.000085
vn 0.1088 0.9338 -0.3410
vn 0.4882 0.8680 0.0906
vn 0.3006 0.9127 0.2768
vn -0.0929 0.9809 -0.1709
usemtl Material.103
s off
f 214/206/89 211/207/89 209/208/89 213/209/89
f 212/210/90 207/211/90 211/207/90 214/206/90
f 206/212/91 212/210/91 214/206/91 210/213/91
f 210/213/92 214/206/92 213/209/92 208/214/92
o Plane.102_Plane.103
v -0.974107 10.107755 -1.143864
v -3.809363 8.468460 1.540828
v 1.096362 9.899275 0.915422
v -1.738894 8.259981 3.600115
v -0.001640 10.492281 -0.001631
v -2.836896 8.852986 2.683062
v -2.431163 9.595130 0.269207
v -0.360694 9.386650 2.328493
v -1.458696 9.979656 1.411440
vt 0.363069 0.500000
vt 0.363069 0.999915
vt 0.000085 0.999915
vt 0.000085 0.500000
vt 0.726052 0.500000
vt 0.726052 0.999915
vt 0.726052 0.000085
vt 0.363069 0.000085
vt 0.000085 0.000085
vn -0.0828 0.7887 0.6091
vn -0.5266 0.8334 0.1677
vn -0.3482 0.9372 -0.0191
vn 0.1135 0.8907 0.4401
usemtl Material.104
s off
f 223/215/93 220/216/93 218/217/93 222/218/93
f 221/219/94 216/220/94 220/216/94 223/215/94
f 215/221/95 221/219/95 223/215/95 219/222/95
f 219/222/96 223/215/96 222/218/96 217/223/96
o Plane.103_Plane.104
v -0.774616 9.661015 1.126562
v 2.883222 8.110004 3.258874
v 0.582492 9.634313 -1.220887
v 4.240329 8.083302 0.911425
v -0.001075 10.165691 0.001859
v 3.656762 8.614681 2.134171
v 1.113970 9.210913 2.223511
v 2.471077 9.184211 -0.123938
v 1.887511 9.715590 1.098808
vt 0.363069 0.500000
vt 0.363069 0.999915
vt 0.000085 0.999915
vt 0.000085 0.500000
vt 0.726052 0.500000
vt 0.726052 0.999915
vt 0.726052 0.000085
vt 0.363069 0.000085
vt 0.000085 0.000085
vn 0.5630 0.8217 -0.0884
vn 0.2125 0.8286 0.5180
vn -0.0146 0.9160 0.4010
vn 0.3492 0.9088 -0.2283
usemtl Material.105
s off
f 232/224/97 229/225/97 227/226/97 231/227/97
f 230/228/98 225/229/98 229/225/98 232/224/98
f 224/230/99 230/228/99 232/224/99 228/231/99
f 228/231/100 232/224/100 231/227/100 226/232/100
o Plane.104_Plane.105
v -0.654480 11.892107 0.903738
v 2.203225 11.576434 3.028019
v 0.775733 12.242205 -0.968241
v 3.633437 11.926532 1.156040
v -0.001133 12.499830 0.001483
v 2.856572 12.184157 2.125764
v 0.735578 12.006059 1.987069
v 2.165791 12.356156 0.115090
v 1.388925 12.613782 1.084813
vt 0.363069 0.500000
vt 0.363069 0.999915
vt 0.000085 0.999915
vt 0.000085 0.500000
vt 0.726052 0.500000
vt 0.726052 0.999915
vt 0.726052 0.000085
vt 0.363069 0.000085
vt 0.000085 0.000085
vn 0.2933 0.9558 -0.0190
vn -0.1049 0.8584 0.5022
vn -0.3397 0.8755 0.3437
vn 0.0752 0.9770 -0.1993
usemtl Material.106
s off
f 241/233/101 238/234/101 236/235/101 240/236/101
f 239/237/102 234/238/102 238/234/102 241/233/102
f 233/239/103 239/237/103 241/233/103 237/240/103
f 237/240/104 241/233/104 240/236/104 235/241/104
o Plane.105_Plane.106
v -0.825235 11.772169 -0.958060
v -3.220738 9.671138 1.431976
v 0.989420 11.487078 0.610128
v -1.406084 9.386047 3.000165
v -0.001437 12.048038 -0.001242
v -2.396941 9.947006 2.388794
v -2.075457 10.984484 0.345456
v -0.260802 10.699392 1.913644
v -1.251659 11.260352 1.302274
vt 0.363069 0.500000
vt 0.363069 0.999915
vt 0.000085 0.999915
vt 0.000085 0.500000
vt 0.726052 0.500000
vt 0.726052 0.999915
vt 0.726052 0.000085
vt 0.363069 0.000085
vt 0.000085 0.000085
vn -0.0733 0.6729 0.7361
vn -0.5894 0.7540 0.2901
vn -0.4372 0.8914 0.1194
vn 0.0980 0.8073 0.5819
usemtl Material.107
s off
f 250/242/105 247/243/105 245/244/105 249/245/105
f 248/246/106 243/247/106 247/243/106 250/242/106
f 242/248/107 248/246/107 250/242/107 246/249/107
f 246/249/108 250/242/108 249/245/108 244/250/108
o Plane.106_Plane.107
v 0.847037 11.547190 1.111359
v 3.627147 9.940866 -1.123387
v -0.953320 11.207455 -0.884154
v 1.826790 9.601132 -3.118900
v 0.001426 11.746142 0.001580
v 2.781535 10.139820 -2.233166
v 2.271369 10.975706 -0.076382
v 0.471012 10.635971 -2.071895
v 1.425758 11.174659 -1.186160
vt 0.363069 0.500000
vt 0.363069 0.999915
vt 0.000085 0.999915
vt 0.000085 0.500000
vt 0.726052 0.500000
vt 0.726052 0.999915
vt 0.726052 0.000085
vt 0.363069 0.000085
vt 0.000085 0.000085
vn 0.1253 0.7819 -0.6106
vn 0.4821 0.8493 -0.2151
vn 0.3183 0.9452 -0.0731
vn -0.0489 0.8759 -0.4800
usemtl Material.108
s off
f 259/251/109 256/252/109 254/253/109 258/254/109
f 257/255/110 252/256/110 256/252/110 259/251/110
f 251/257/111 257/255/111 259/251/111 255/258/111
f 255/258/112 259/251/112 258/254/112 253/259/112
o Plane.107_Plane.108
v 1.164137 11.074321 -0.482854
v -0.374716 9.812724 -3.205773
v -1.156358 11.366204 0.693333
v -2.695211 10.104608 -2.029586
v 0.001838 11.631786 -0.000932
v -1.537015 10.370189 -2.723850
v 0.393422 10.702024 -1.911006
v -1.927073 10.993908 -0.734819
v -0.768877 11.259489 -1.429083
vt 0.363069 0.500000
vt 0.363069 0.999915
vt 0.000085 0.999915
vt 0.000085 0.500000
vt 0.726052 0.500000
vt 0.726052 0.999915
vt 0.726052 0.000085
vt 0.363069 0.000085
vt 0.000085 0.000085
vn -0.4013 0.8486 -0.3448
vn 0.1224 0.7827 -0.6102
vn 0.2691 0.8865 -0.3764
vn -0.2783 0.9554 -0.0988
usemtl Material.109
s off
f 268/260/113 265/261/113 263/262/113 267/263/113
f 266/264/114 261/265/114 265/261/114 268/260/114
f 260/266/115 266/264/115 268/260/115 264/267/115
f 264/267/116 268/260/116 267/263/116 262/268/116
o Plane.108_Plane.109
v -0.146817 12.659671 -1.361947
v -3.760670 11.485771 -0.935659
v 0.273928 12.299422 1.212878
v -3.339924 11.125523 1.639166
v -0.000333 12.923079 -0.002039
v -3.614186 11.749179 0.424249
v -1.993876 12.351330 -1.103265
v -1.573130 11.991081 1.471560
v -1.847392 12.614738 0.256643
vt 0.363069 0.500000
vt 0.363069 0.999915
vt 0.000085 0.999915
vt 0.000085 0.500000
vt 0.726052 0.500000
vt 0.726052 0.999915
vt 0.726052 0.000085
vt 0.363069 0.000085
vt 0.000085 0.000085
vn -0.3459 0.8007 0.4891
vn -0.4460 0.8864 -0.1237
vn -0.1851 0.9683 -0.1676
vn -0.0810 0.8792 0.4696
usemtl Material.110
s off
f 277/269/117 274/270/117 272/271/117 276/272/117
f 275/273/118 270/274/118 274/270/118 277/269/118
f 269/275/119 275/273/119 277/269/119 273/276/119
f 273/276/120 277/269/120 276/272/120 271/277/120
o Plane.109_Plane.110
v 1.145978 11.752713 0.528768
v 2.294294 10.274696 -2.376926
v -1.152001 11.536666 -0.269486
v -0.003686 10.058649 -3.175181
v 0.001820 12.069961 0.000632
v 1.150136 10.591944 -2.905062
v 1.723171 11.280843 -1.005117
v -0.574808 11.064795 -1.803372
v 0.579013 11.598090 -1.533253
vt 0.363069 0.500000
vt 0.363069 0.999915
vt 0.000085 0.999915
vt 0.000085 0.500000
vt 0.726052 0.500000
vt 0.726052 0.999915
vt 0.726052 0.000085
vt 0.363069 0.000085
vt 0.000085 0.000085
vn -0.1983 0.7492 -0.6320
vn 0.4169 0.8070 -0.4183
vn 0.3320 0.9294 -0.1610
vn -0.3116 0.8689 -0.3846
usemtl Material.111
s off
f 286/278/121 283/279/121 281/280/121 285/281/121
f 284/282/122 279/283/122 283/279/122 286/278/122
f 278/284/123 284/282/123 286/278/123 282/285/123
f 282/285/124 286/278/124 285/281/124 280/286/124
o Plane.110_Plane.111
v -1.245410 12.011968 0.319123
v -0.376087 10.947535 3.595246
v 1.093903 11.676838 -0.410503
v 1.963226 10.612405 2.865620
v -0.001853 12.259519 0.000578
v 0.867470 11.195086 3.276701
v -0.764327 11.740510 1.986248
v 1.574986 11.405380 1.256622
v 0.479230 11.988061 1.667703
vt 0.363069 0.500000
vt 0.363069 0.999915
vt 0.000085 0.999915
vt 0.000085 0.500000
vt 0.726052 0.500000
vt 0.726052 0.999915
vt 0.726052 0.000085
vt 0.363069 0.000085
vt 0.000085 0.000085
vn 0.5289 0.8049 0.2690
vn -0.0610 0.8894 0.4530
vn -0.1421 0.9697 0.1989
vn 0.4717 0.8817 0.0075
usemtl Material.112
s off
f 295/287/125 292/288/125 290/289/125 294/290/125
f 293/291/126 288/292/126 292/288/126 295/287/126
f 287/293/127 293/291/127 295/287/127 291/294/127
f 291/294/128 295/287/128 294/290/128 289/295/128
o Plane.111_Plane.112
v -0.015584 11.195525 1.253779
v 3.258041 10.707422 1.362005
v 0.015437 10.871927 -1.143995
v 3.289062 10.383824 -1.035770
v -0.000025 11.426396 0.001899
v 3.273600 10.938293 0.110124
v 1.621259 11.198133 1.274604
v 1.652280 10.874535 -1.123171
v 1.636818 11.429004 0.022724
vt 0.363069 0.500000
vt 0.363069 0.999915
vt 0.000085 0.999915
vt 0.000085 0.500000
vt 0.726052 0.500000
vt 0.726052 0.999915
vt 0.726052 0.000085
vt 0.363069 0.000085
vt 0.000085 0.000085
vn 0.2815 0.8652 -0.4149
vn 0.2739 0.9452 0.1777
vn -0.0039 0.9834 0.1813
vn 0.0041 0.9002 -0.4355
usemtl Material.113
s off
f 304/296/129 301/297/129 299/298/129 303/299/129
f 302/300/130 297/301/130 301/297/130 304/296/130
f 296/302/131 302/300/131 304/296/131 300/303/131
f 300/303/132 304/296/132 303/299/132 298/304/132
o Plane.112_Plane.113
v 0.295137 14.370979 1.136056
v 3.225980 13.143658 0.139206
v -0.462148 14.353038 -1.068355
v 2.468695 13.125717 -2.065204
v 0.000600 14.756628 0.001746
v 2.931443 13.529306 -0.995104
v 1.813390 14.005202 0.617464
v 1.056105 13.987261 -1.586946
v 1.518853 14.390851 -0.516846
vt 0.363069 0.500000
vt 0.363069 0.999915
vt 0.000085 0.999915
vt 0.000085 0.500000
vt 0.726052 0.500000
vt 0.726052 0.999915
vt 0.726052 0.000085
vt 0.363069 0.000085
vt 0.000085 0.000085
vn 0.3447 0.8194 -0.4581
vn 0.5493 0.8242 0.1376
vn 0.3029 0.9235 0.2353
vn 0.0897 0.9185 -0.3852
usemtl Material.114
s off
f 313/305/133 310/306/133 308/307/133 312/308/133
f 311/309/134 306/310/134 310/306/134 313/305/134
f 305/311/135 311/309/135 313/305/135 309/312/135
f 309/312/136 313/305/136 312/308/136 307/313/136
o Plane.113_Plane.114
v -1.241695 13.854429 -0.110335
v -0.870420 11.941557 2.615499
v 1.300370 14.149073 -0.249812
v 1.671645 12.236200 2.476022
v -0.002013 14.357526 0.000110
v 0.369262 12.444654 2.725944
v -1.075751 13.121476 1.365766
v 1.466314 13.416120 1.226289
v 0.163931 13.624574 1.476211
vt 0.363069 0.500000
vt 0.363069 0.999915
vt 0.000085 0.999915
vt 0.000085 0.500000
vt 0.726052 0.500000
vt 0.726052 0.999915
vt 0.726052 0.000085
vt 0.363069 0.000085
vt 0.000085 0.000085
vn 0.2399 0.7253 0.6453
vn -0.3279 0.6594 0.6765
vn -0.3704 0.8147 0.4462
vn 0.2208 0.8832 0.4137
usemtl Material.115
s off
f 322/314/137 319/315/137 317/316/137 321/317/137
f 320/318/138 315/319/138 319/315/138 322/314/138
f 314/320/139 320/318/139 322/314/139 318/321/139
f 318/321/140 322/314/140 321/317/140 316/322/140
o Plane.114_Plane.115
v 1.141788 14.157282 0.289643
v 1.696075 12.371158 -2.507334
v -1.087693 13.872245 0.029841
v -0.533406 12.086121 -2.767136
v 0.001766 14.357924 0.000206
v 0.556052 12.571800 -2.796771
v 1.403051 13.479779 -1.209059
v -0.826431 13.194742 -1.468861
v 0.263028 13.680422 -1.498497
vt 0.363069 0.500000
vt 0.363069 0.999915
vt 0.000085 0.999915
vt 0.000085 0.500000
vt 0.726052 0.500000
vt 0.726052 0.999915
vt 0.726052 0.000085
vt 0.363069 0.000085
vt 0.000085 0.000085
vn -0.3222 0.6828 -0.6558
vn 0.2824 0.7601 -0.5853
vn 0.2500 0.8979 -0.3623
vn -0.3764 0.8178 -0.4353
usemtl Material.116
s off
f 331/323/141 328/324/141 326/325/141 330/326/141
f 329/327/142 324/328/142 328/324/142 331/323/142
f 323/329/143 329/327/143 331/323/143 327/330/143
f 327/330/144 331/323/144 330/326/144 325/331/144
o Plane.115_Plane.116
v 0.295801 13.328123 -1.137116
v -2.909066 11.745543 -1.690826
v -0.054887 13.240560 1.142932
v -3.259755 11.657979 0.589221
v 0.000278 13.642916 -0.001806
v -3.204590 12.060335 -0.555516
v -1.382124 12.762074 -1.416932
v -1.732812 12.674511 0.863116
v -1.677647 13.076866 -0.281622
vt 0.363069 0.500000
vt 0.363069 0.999915
vt 0.000085 0.999915
vt 0.000085 0.500000
vt 0.726052 0.500000
vt 0.726052 0.999915
vt 0.726052 0.000085
vt 0.363069 0.000085
vt 0.000085 0.000085
vn -0.5673 0.7851 0.2486
vn -0.4755 0.8080 -0.3478
vn -0.2547 0.9128 -0.3194
vn -0.3493 0.8891 0.2957
usemtl Material.117
s off
f 340/332/145 337/333/145 335/334/145 339/335/145
f 338/336/146 333/337/146 337/333/146 340/332/146
f 332/338/147 338/336/147 340/332/147 336/339/147
f 336/339/148 340/332/148 339/335/148 334/340/148
o Plane.116_Plane.117
v 0.661402 13.779032 -0.872784
v -1.856688 13.422208 -2.768387
v -0.732508 14.058823 0.926198
v -3.250598 13.701998 -0.969405
v 0.001104 14.282433 -0.001425
v -2.516986 13.925608 -1.897027
v -0.574616 13.828959 -1.838256
v -1.968526 14.108748 -0.039275
v -1.234914 14.332358 -0.966897
vt 0.363069 0.500000
vt 0.363069 0.999915
vt 0.000085 0.999915
vt 0.000085 0.500000
vt 0.726052 0.500000
vt 0.726052 0.999915
vt 0.726052 0.000085
vt 0.363069 0.000085
vt 0.000085 0.000085
vn -0.2985 0.9544 -0.0060
vn 0.0580 0.8828 -0.4661
vn 0.2804 0.9078 -0.3120
vn -0.0898 0.9821 0.1657
usemtl Material.118
s off
f 349/341/149 346/342/149 344/343/149 348/344/149
f 347/345/150 342/346/150 346/342/150 349/341/150
f 341/347/151 347/345/151 349/341/151 345/348/151
f 345/348/152 349/341/152 348/344/152 343/349/152
o Plane.117_Plane.118
v -0.340156 13.074119 1.078443
v 2.832838 12.002639 1.989028
v 0.185429 12.845299 -1.022243
v 3.358423 11.773819 -0.111658
v -0.000416 13.379152 0.001664
v 3.172578 12.307673 0.912249
v 1.294676 12.801855 1.517129
v 1.820261 12.573036 -0.583556
v 1.634416 13.106890 0.440350
vt 0.363069 0.500000
vt 0.363069 0.999915
vt 0.000085 0.999915
vt 0.000085 0.500000
vt 0.726052 0.500000
vt 0.726052 0.999915
vt 0.726052 0.000085
vt 0.363069 0.000085
vt 0.000085 0.000085
vn 0.5124 0.7961 -0.3220
vn 0.3431 0.8698 0.3547
vn 0.0795 0.9522 0.2948
vn 0.2558 0.8755 -0.4100
usemtl Material.119
s off
f 358/350/153 355/351/153 353/352/153 357/353/153
f 356/354/154 351/355/154 355/351/154 358/350/154
f 350/356/155 356/354/155 358/350/155 354/357/155
f 354/357/156 358/350/156 357/353/156 352/358/156
o Plane.118_Plane.119
v -0.702225 13.167106 -0.863727
v -3.129080 11.789205 1.585402
v 0.865191 13.286622 0.756675
v -1.561663 11.908720 3.205804
v -0.001241 13.603461 -0.001283
v -2.428096 12.225559 2.447846
v -1.967616 12.714718 0.393654
v -0.400200 12.834234 2.014056
v -1.266633 13.151073 1.256098
vt 0.363069 0.500000
vt 0.363069 0.999915
vt 0.000085 0.999915
vt 0.000085 0.500000
vt 0.726052 0.500000
vt 0.726052 0.999915
vt 0.726052 0.000085
vt 0.363069 0.000085
vt 0.000085 0.000085
vn -0.1430 0.8443 0.5164
vn -0.5819 0.8109 0.0627
vn -0.4273 0.8978 -0.1070
vn 0.0253 0.9323 0.3608
usemtl Material.120
s off
f 367/359/157 364/360/157 362/361/157 366/362/157
f 365/363/158 360/364/158 364/360/158 367/359/158
f 359/365/159 365/363/159 367/359/159 363/366/159
f 363/366/160 367/359/160 366/362/160 361/367/160
o Plane.119_Plane.120
v -1.047229 12.909119 0.696436
v 1.138351 11.350598 3.311948
v 0.915294 12.991923 -0.894151
v 3.100874 11.433403 1.721362
v -0.001554 13.347018 0.001260
v 2.184026 11.788498 2.616772
v 0.086023 12.378922 2.067081
v 2.048546 12.461726 0.476495
v 1.131698 12.816821 1.371905
vt 0.363069 0.500000
vt 0.363069 0.999915
vt 0.000085 0.999915
vt 0.000085 0.500000
vt 0.726052 0.500000
vt 0.726052 0.999915
vt 0.726052 0.000085
vt 0.363069 0.000085
vt 0.000085 0.000085
vn 0.5336 0.8158 0.2228
vn 0.0665 0.7961 0.6015
vn -0.0939 0.9000 0.4257
vn 0.3896 0.9204 0.0339
usemtl Material.121
s off
f 376/368/161 373/369/161 371/370/161 375/371/161
f 374/372/162 369/373/162 373/369/162 376/368/162
f 368/374/163 374/372/163 376/368/163 372/375/163
f 372/375/164 376/368/164 375/371/164 370/376/164
o Plane.120_Plane.121
v -0.788820 14.961093 0.746345
v 1.476743 13.864534 2.719818
v 0.717293 15.147914 -0.878877
v 2.982856 14.051356 1.094597
v -0.001193 15.363469 0.001287
v 2.264370 14.266911 1.974761
v 0.365677 14.606893 1.775516
v 1.871790 14.793715 0.150294
v 1.153304 15.009269 1.030458
vt 0.363069 0.500000
vt 0.363069 0.999915
vt 0.000085 0.999915
vt 0.000085 0.500000
vt 0.726052 0.500000
vt 0.726052 0.999915
vt 0.726052 0.000085
vt 0.363069 0.000085
vt 0.000085 0.000085
vn 0.4539 0.8773 0.1557
vn 0.0917 0.8324 0.5465
vn -0.0819 0.9106 0.4052
vn 0.2908 0.9568 0.0031
usemtl Material.122
s off
f 385/377/165 382/378/165 380/379/165 384/380/165
f 383/381/166 378/382/166 382/378/166 385/377/166
f 377/383/167 383/381/167 385/377/167 381/384/167
f 381/384/168 385/377/168 384/380/168 379/385/168
o Plane.121_Plane.122
v -0.381607 14.479391 -0.964405
v -3.277735 13.573884 0.268664
v 0.451198 14.318253 0.873284
v -2.444931 13.412745 2.106353
v -0.000660 14.718574 -0.001455
v -2.896788 13.813066 1.231613
v -1.851942 14.227491 -0.320166
v -1.019138 14.066354 1.517523
v -1.470995 14.466674 0.642784
vt 0.363069 0.500000
vt 0.363069 0.999915
vt 0.000085 0.999915
vt 0.000085 0.500000
vt 0.726052 0.500000
vt 0.726052 0.999915
vt 0.726052 0.000085
vt 0.363069 0.000085
vt 0.000085 0.000085
vn -0.1892 0.8522 0.4878
vn -0.4338 0.8995 -0.0518
vn -0.2297 0.9619 -0.1481
vn 0.0217 0.9133 0.4067
usemtl Material.123
s off
f 394/386/169 391/387/169 389/388/169 393/389/169
f 392/390/170 387/391/170 391/387/170 394/386/170
f 386/392/171 392/390/171 394/386/171 390/393/171
f 390/393/172 394/386/172 393/389/172 388/394/172
o Plane.122_Plane.123
v 0.700919 15.927879 0.835235
v 2.717806 14.675088 -1.189431
v -0.835337 15.931060 -0.697086
v 1.181549 14.678268 -2.721752
v 0.001217 16.286304 0.001214
v 2.018104 15.033512 -2.023453
v 1.752345 15.525632 -0.219725
v 0.216088 15.528812 -1.752047
v 1.052643 15.884056 -1.053747
vt 0.363069 0.500000
vt 0.363069 0.999915
vt 0.000085 0.999915
vt 0.000085 0.500000
vt 0.726052 0.500000
vt 0.726052 0.999915
vt 0.726052 0.000085
vt 0.363069 0.000085
vt 0.000085 0.000085
vn 0.1357 0.8079 -0.5735
vn 0.5748 0.8070 -0.1355
vn 0.4036 0.9134 0.0540
vn -0.0531 0.9143 -0.4015
usemtl Material.124
s off
f 403/395/173 400/396/173 398/397/173 402/398/173
f 401/399/174 396/400/174 400/396/174 403/395/174
f 395/401/175 401/399/175 403/395/175 399/402/175
f 399/402/176 403/395/176 402/398/176 397/403/176
o Plane.123_Plane.124
v 0.752304 15.313582 -0.759278
v -1.548030 14.471022 -2.709349
v -0.736662 15.582764 0.880825
v -3.036996 14.740203 -1.069245
v 0.001179 15.789635 -0.001299
v -2.299155 14.947074 -1.951369
v -0.402035 15.106794 -1.773305
v -1.891001 15.375976 -0.133201
v -1.153160 15.582847 -1.015326
vt 0.363069 0.500000
vt 0.363069 0.999915
vt 0.000085 0.999915
vt 0.000085 0.500000
vt 0.726052 0.500000
vt 0.726052 0.999915
vt 0.726052 0.000085
vt 0.363069 0.000085
vt 0.000085 0.000085
vn -0.4022 0.9071 -0.1237
vn -0.0194 0.8379 -0.5454
vn 0.1800 0.9035 -0.3891
vn -0.2165 0.9751 0.0476
usemtl Material.125
s off
f 412/404/177 409/405/177 407/406/177 411/407/177
f 410/408/178 405/409/178 409/405/178 412/404/178
f 404/410/179 410/408/179 412/404/179 408/411/179
f 408/411/180 412/404/180 411/407/180 406/412/180
o Plane.124_Plane.125
v -0.014344 15.261259 -0.943687
v -2.593486 14.300825 -0.615801
v 0.156433 15.466161 0.999835
v -2.422709 14.505726 1.327720
v -0.000135 15.703923 -0.001539
v -2.579277 14.743488 0.326346
v -1.348627 14.994749 -0.798346
v -1.177850 15.199651 1.145176
v -1.334418 15.437413 0.143801
vt 0.363069 0.500000
vt 0.363069 0.999915
vt 0.000085 0.999915
vt 0.000085 0.500000
vt 0.726052 0.500000
vt 0.726052 0.999915
vt 0.726052 0.000085
vt 0.363069 0.000085
vt 0.000085 0.000085
vn -0.4378 0.8570 0.2719
vn -0.4937 0.7899 -0.3637
vn -0.2214 0.8839 -0.4120
vn -0.1631 0.9539 0.2520
usemtl Material.126
s off
f 421/413/181 418/414/181 416/415/181 420/416/181
f 419/417/182 414/418/182 418/414/182 421/413/182
f 413/419/183 419/417/183 421/413/183 417/420/183
f 417/420/184 421/413/184 420/416/184 415/421/184
o Plane.125_Plane.126
v 0.897682 15.593037 0.191369
v 0.790221 13.848921 -2.561249
v -0.994914 15.847250 0.104180
v -1.102375 14.103134 -2.648438
v 0.001499 16.042582 0.000069
v -0.105962 14.298467 -2.752549
v 0.875431 14.923521 -1.277723
v -1.017164 15.177734 -1.364911
v -0.020752 15.373067 -1.469022
vt 0.363069 0.500000
vt 0.363069 0.999915
vt 0.000085 0.999915
vt 0.000085 0.500000
vt 0.726052 0.500000
vt 0.726052 0.999915
vt 0.726052 0.000085
vt 0.363069 0.000085
vt 0.000085 0.000085
vn -0.2129 0.7561 -0.6189
vn 0.4595 0.6658 -0.5879
vn 0.4784 0.7963 -0.3701
vn -0.2164 0.8896 -0.4022
usemtl Material.127
s off
f 430/422/185 427/423/185 425/424/185 429/425/185
f 428/426/186 423/427/186 427/423/186 430/422/186
f 422/428/187 428/426/187 430/422/187 426/429/187
f 426/429/188 430/422/188 429/425/188 424/430/188
o Plane.126_Plane.127
v -1.137489 16.034246 -0.268286
v -1.604679 14.331405 2.242921
v 1.080555 15.745808 -0.051227
v 0.613366 14.042967 2.459981
v -0.001757 16.215521 -0.000172
v -0.468946 14.512680 2.511036
v -1.354306 15.387287 1.087562
v 0.863739 15.098848 1.304622
v -0.218573 15.568562 1.355676
vt 0.363069 0.500000
vt 0.363069 0.999915
vt 0.000085 0.999915
vt 0.000085 0.500000
vt 0.726052 0.500000
vt 0.726052 0.999915
vt 0.726052 0.000085
vt 0.363069 0.000085
vt 0.000085 0.000085
vn 0.3200 0.6638 0.6760
vn -0.2642 0.7398 0.6188
vn -0.2339 0.8915 0.3880
vn 0.3737 0.8125 0.4474
usemtl Material.128
s off
f 439/431/189 436/432/189 434/433/189 438/434/189
f 437/435/190 432/436/190 436/432/190 439/431/190
f 431/437/191 437/435/191 439/431/191 435/438/191
f 435/438/192 439/431/192 438/434/192 433/439/192
o Plane.127_Plane.128
v -0.103919 16.031857 1.046490
v 2.614720 15.422894 1.270867
v 0.054863 15.975809 -1.029490
v 2.773502 15.366846 -0.805113
v -0.000126 16.326910 0.001644
v 2.718513 15.717948 0.226021
v 1.270729 15.930319 1.154372
v 1.429511 15.874271 -0.921608
v 1.374522 16.225374 0.109526
vt 0.363069 0.500000
vt 0.363069 0.999915
vt 0.000085 0.999915
vt 0.000085 0.500000
vt 0.726052 0.500000
vt 0.726052 0.999915
vt 0.726052 0.000085
vt 0.363069 0.000085
vt 0.000085 0.000085
vn 0.3601 0.8888 -0.2834
vn 0.3165 0.9042 0.2868
vn 0.0492 0.9599 0.2760
vn 0.0945 0.9439 -0.3164
usemtl Material.129
s off
f 448/440/193 445/441/193 443/442/193 447/443/193
f 446/444/194 441/445/194 445/441/194 448/440/194
f 440/446/195 446/444/195 448/440/195 444/447/195
f 444/447/196 448/440/196 447/443/196 442/448/196
o Plane.128_Plane.129
v -0.111333 16.914993 0.989857
v 2.448843 16.452744 1.308057
v 0.083974 16.684280 -0.916699
v 2.644150 16.222029 -0.598498
v -0.000155 17.100883 0.001510
v 2.560021 16.638632 0.319711
v 1.177251 16.873098 1.126928
v 1.372558 16.642384 -0.779627
v 1.288429 17.058989 0.138582
vt 0.363069 0.500000
vt 0.363069 0.999915
vt 0.000085 0.999915
vt 0.000085 0.500000
vt 0.726052 0.500000
vt 0.726052 0.999915
vt 0.726052 0.000085
vt 0.363069 0.000085
vt 0.000085 0.000085
vn 0.3387 0.8681 -0.3629
vn 0.2802 0.9372 0.2078
vn 0.0121 0.9824 0.1861
vn 0.0729 0.9107 -0.4065
usemtl Material.130
s off
f 457/449/197 454/450/197 452/451/197 456/452/197
f 455/453/198 450/454/198 454/450/198 457/449/198
f 449/455/199 455/453/199 457/449/199 453/456/199
f 453/456/200 457/449/200 456/452/200 451/457/200
o Plane.129_Plane.130
v -0.863816 16.403143 -0.356557
v -1.406187 14.948314 1.951163
v 0.947857 16.477991 0.116416
v 0.405486 15.023162 2.424136
v -0.001435 16.736019 -0.000375
v -0.543806 15.281190 2.307345
v -1.162298 15.861319 0.872491
v 0.649374 15.936167 1.345464
v -0.299917 16.194195 1.228673
vt 0.363069 0.500000
vt 0.363069 0.999915
vt 0.000085 0.999915
vt 0.000085 0.500000
vt 0.726052 0.500000
vt 0.726052 0.999915
vt 0.726052 0.000085
vt 0.363069 0.000085
vt 0.000085 0.000085
vn 0.1214 0.7439 0.6571
vn -0.4837 0.7189 0.4992
vn -0.4417 0.8556 0.2699
vn 0.1862 0.8815 0.4338
usemtl Material.131
s off
f 466/458/201 463/459/201 461/460/201 465/461/201
f 464/462/202 459/463/202 463/459/202 466/458/202
f 458/464/203 464/462/203 466/458/203 462/465/203
f 462/465/204 466/458/204 465/461/204 460/466/204
o Plane.130_Plane.131
v 0.877949 17.058020 -0.004052
v 0.498143 15.985344 -2.615383
v -0.936332 17.282944 0.167433
v -1.316139 16.210268 -2.443898
v 0.001437 17.479923 -0.000136
v -0.378369 16.407246 -2.611467
v 0.707286 16.716059 -1.361117
v -1.106996 16.940985 -1.189632
v -0.169227 17.137962 -1.357201
vt 0.363069 0.500000
vt 0.363069 0.999915
vt 0.000085 0.999915
vt 0.000085 0.500000
vt 0.726052 0.500000
vt 0.726052 0.999915
vt 0.726052 0.000085
vt 0.363069 0.000085
vt 0.000085 0.000085
vn -0.2601 0.8526 -0.4533
vn 0.3705 0.7744 -0.5129
vn 0.4165 0.8678 -0.2710
vn -0.2367 0.9488 -0.2093
usemtl Material.132
s off
f 475/467/205 472/468/205 470/469/205 474/470/205
f 473/471/206 468/472/206 472/468/206 475/467/206
f 467/473/207 473/471/207 475/467/207 471/474/207
f 471/474/208 475/467/208 474/470/208 469/475/208
o Plane.131_Plane.132
v -0.137146 16.292002 -0.793085
v -2.469910 15.695284 -0.266794
v 0.196093 16.421387 0.830681
v -2.136672 15.824669 1.356972
v -0.000264 16.685331 -0.001286
v -2.333029 16.088614 0.525005
v -1.322208 16.200079 -0.542555
v -0.988969 16.329464 1.081210
v -1.185326 16.593409 0.249244
vt 0.363069 0.500000
vt 0.363069 0.999915
vt 0.000085 0.999915
vt 0.000085 0.500000
vt 0.726052 0.500000
vt 0.726052 0.999915
vt 0.726052 0.000085
vt 0.363069 0.000085
vt 0.000085 0.000085
vn -0.3045 0.8849 0.3526
vn -0.4456 0.8301 -0.3353
vn -0.1576 0.8950 -0.4173
vn -0.0095 0.9525 0.3044
usemtl Material.133
s off
f 484/476/209 481/477/209 479/478/209 483/479/209
f 482/480/210 477/481/210 481/477/210 484/476/210
f 476/482/211 482/480/211 484/476/211 480/483/211
f 480/483/212 484/476/212 483/479/212 478/484/212
o Plane.132_Plane.133
v 0.838624 17.954153 -0.467561
v -0.464181 16.997057 -2.339864
v -0.779952 18.052410 0.608466
v -2.082757 17.095314 -1.263838
v 0.001282 18.322021 -0.000852
v -1.301523 17.364925 -1.873155
v 0.169599 17.675823 -1.448503
v -1.448977 17.774082 -0.372477
v -0.667743 18.043694 -0.981795
vt 0.363069 0.500000
vt 0.363069 0.999915
vt 0.000085 0.999915
vt 0.000085 0.500000
vt 0.726052 0.500000
vt 0.726052 0.999915
vt 0.726052 0.000085
vt 0.363069 0.000085
vt 0.000085 0.000085
vn -0.4974 0.8234 -0.2734
vn 0.0085 0.7927 -0.6096
vn 0.1844 0.9053 -0.3827
vn -0.3466 0.9375 -0.0296
usemtl Material.134
s off
f 493/485/213 490/486/213 488/487/213 492/488/213
f 491/489/214 486/490/214 490/486/214 493/485/214
f 485/491/215 491/489/215 493/485/215 489/492/215
f 489/492/216 493/485/216 492/488/216 487/493/216
o Plane.133_Plane.134
v 0.657959 16.357481 0.767443
v 2.689225 15.855855 -0.973569
v -0.647115 16.244019 -0.722515
v 1.384151 15.742391 -2.463528
v 0.001034 16.630714 0.001180
v 2.032300 16.129087 -1.739833
v 1.670835 16.313938 -0.116433
v 0.365761 16.200474 -1.606391
v 1.013910 16.587172 -0.882696
vt 0.363069 0.500000
vt 0.363069 0.999915
vt 0.000085 0.999915
vt 0.000085 0.500000
vt 0.726052 0.500000
vt 0.726052 0.999915
vt 0.726052 0.000085
vt 0.363069 0.000085
vt 0.000085 0.000085
vn 0.0000 0.8820 -0.4713
vn 0.3993 0.9167 -0.0155
vn 0.1954 0.9647 0.1764
vn -0.2206 0.9285 -0.2986
usemtl Material.135
s off
f 502/494/217 499/495/217 497/496/217 501/497/217
f 500/498/218 495/499/218 499/495/218 502/494/218
f 494/500/219 500/498/219 502/494/219 498/501/219
f 498/501/220 502/494/220 501/497/220 496/502/220
o Plane.134_Plane.135
v -0.467100 17.065620 -0.672093
v -2.086730 15.581326 1.039478
v 0.684244 17.177872 0.514748
v -0.935386 15.693576 2.226319
v -0.000912 17.422840 -0.000940
v -1.620542 15.938546 1.710631
v -1.345688 16.512609 0.232521
v -0.194344 16.624859 1.419362
v -0.879500 16.869829 0.903674
vt 0.363069 0.500000
vt 0.363069 0.999915
vt 0.000085 0.999915
vt 0.000085 0.500000
vt 0.726052 0.500000
vt 0.726052 0.999915
vt 0.726052 0.000085
vt 0.363069 0.000085
vt 0.000085 0.000085
vn -0.2216 0.7333 0.6428
vn -0.7162 0.6851 0.1329
vn -0.5654 0.8236 -0.0456
vn -0.0518 0.8736 0.4838
usemtl Material.136
s off
f 511/503/221 508/504/221 506/505/221 510/506/221
f 509/507/222 504/508/222 508/504/222 511/503/222
f 503/509/223 509/507/223 511/503/223 507/510/223
f 507/510/224 511/503/224 510/506/224 505/511/224
o Plane.135_Plane.136
v -0.763743 15.643774 0.401488
v 0.342714 15.468649 2.756608
v 0.710862 15.430007 -0.307191
v 1.817319 15.254882 2.047930
v -0.001168 15.865672 0.000561
v 1.105289 15.690547 2.355682
v -0.194639 15.762738 1.549784
v 1.279966 15.548971 0.841105
v 0.567936 15.984636 1.148857
vt 0.363069 0.500000
vt 0.363069 0.999915
vt 0.000085 0.999915
vt 0.000085 0.500000
vt 0.726052 0.500000
vt 0.726052 0.999915
vt 0.726052 0.000085
vt 0.363069 0.000085
vt 0.000085 0.000085
vn 0.5153 0.8568 -0.0207
vn -0.1253 0.9496 0.2872
vn -0.2642 0.9640 0.0311
vn 0.4049 0.8670 -0.2905
usemtl Material.137
s off
f 520/512/225 517/513/225 515/514/225 519/515/225
f 518/516/226 513/517/226 517/513/226 520/512/226
f 512/518/227 518/516/227 520/512/227 516/519/227
f 516/519/228 520/512/228 519/515/228 514/520/228
o Plane.136_Plane.137
v -0.553147 18.990974 0.479626
v 0.794921 17.422508 1.751557
v 0.334115 18.868256 -0.612075
v 1.682182 17.299789 0.659856
v -0.000703 19.119518 0.000865
v 1.347364 17.551052 1.272795
v 0.189239 18.326031 1.157734
v 1.076500 18.203312 0.066033
v 0.741683 18.454575 0.678972
vt 0.363069 0.500000
vt 0.363069 0.999915
vt 0.000085 0.999915
vt 0.000085 0.500000
vt 0.726052 0.500000
vt 0.726052 0.999915
vt 0.726052 0.000085
vt 0.363069 0.000085
vt 0.000085 0.000085
vn 0.7662 0.6213 0.1638
vn 0.3883 0.6736 0.6289
vn 0.2584 0.8159 0.5172
vn 0.6459 0.7623 0.0403
usemtl Material.138
s off
f 529/521/229 526/522/229 524/523/229 528/524/229
f 527/525/230 522/526/230 526/522/230 529/521/230
f 521/527/231 527/525/231 529/521/231 525/528/231
f 525/528/232 529/521/232 528/524/232 523/529/232
o Plane.137_Plane.138
v -0.343647 18.969551 -0.734702
v -1.921664 17.941940 0.339349
v 0.508612 19.147242 0.687462
v -1.069405 18.119631 1.761513
v -0.000675 19.277216 -0.001126
v -1.578692 18.249605 1.072925
v -1.184892 18.593199 -0.183547
v -0.332633 18.770889 1.238617
v -0.841920 18.900864 0.550029
vt 0.363069 0.500000
vt 0.363069 0.999915
vt 0.000085 0.999915
vt 0.000085 0.500000
vt 0.726052 0.500000
vt 0.726052 0.999915
vt 0.726052 0.000085
vt 0.363069 0.000085
vt 0.000085 0.000085
vn -0.3954 0.8040 0.4442
vn -0.6637 0.7480 -0.0034
vn -0.4791 0.8666 -0.1395
vn -0.2016 0.9245 0.3236
usemtl Material.139
s off
f 538/530/233 535/531/233 533/532/233 537/533/233
f 536/534/234 531/535/234 535/531/234 538/530/234
f 530/536/235 536/534/235 538/530/235 534/537/235
f 534/537/236 538/530/236 537/533/236 532/538/236
o Plane.138_Plane.139
v 0.450878 18.835138 0.605049
v 2.134081 17.959408 -0.701437
v -0.489390 18.596918 -0.446662
v 1.193814 17.721188 -1.753148
v 0.000745 18.983036 0.000833
v 1.683948 18.107307 -1.305654
v 1.305043 18.564997 -0.097417
v 0.364775 18.326777 -1.149128
v 0.854910 18.712894 -0.701633
vt 0.363069 0.500000
vt 0.363069 0.999915
vt 0.000085 0.999915
vt 0.000085 0.500000
vt 0.726052 0.500000
vt 0.726052 0.999915
vt 0.726052 0.000085
vt 0.363069 0.000085
vt 0.000085 0.000085
vn 0.0415 0.7335 -0.6784
vn 0.5006 0.8498 -0.1649
vn 0.3056 0.9522 0.0054
vn -0.1720 0.8312 -0.5288
usemtl Material.140
s off
f 547/539/237 544/540/237 542/541/237 546/542/237
f 545/543/238 540/544/238 544/540/238 547/539/238
f 539/545/239 545/543/239 547/539/239 543/546/239
f 543/546/240 547/539/240 546/542/240 541/547/240
o Plane.139_Plane.140
v 0.459624 17.419304 -0.522031
v -1.196885 16.483801 -1.547430
v -0.364815 17.586391 0.657392
v -2.021323 16.650887 -0.368007
v 0.000653 17.756500 -0.000934
v -1.655855 16.820995 -1.026333
v -0.397998 17.110886 -1.077832
v -1.222436 17.277973 0.101592
v -0.856968 17.448080 -0.556734
vt 0.363069 0.500000
vt 0.363069 0.999915
vt 0.000085 0.999915
vt 0.000085 0.500000
vt 0.726052 0.500000
vt 0.726052 0.999915
vt 0.726052 0.000085
vt 0.363069 0.000085
vt 0.000085 0.000085
vn -0.5735 0.8120 -0.1086
vn -0.1961 0.7355 -0.6486
vn 0.0324 0.8519 -0.5227
vn -0.3611 0.9316 0.0403
usemtl Material.141
s off
f 556/548/241 553/549/241 551/550/241 555/551/241
f 554/552/242 549/553/242 553/549/242 556/548/242
f 548/554/243 554/552/243 556/548/243 552/555/243
f 552/555/244 556/548/244 555/551/244 550/556/244
o Plane.140_Plane.141
v 0.247764 17.850773 -0.734924
v -1.663077 17.538372 -1.417086
v -0.231513 17.691532 0.680532
v -2.142355 17.379129 -0.001629
v 0.000380 18.026236 -0.001121
v -1.910462 17.713835 -0.683283
v -0.712522 17.854805 -1.059626
v -1.191799 17.695564 0.355831
v -0.959907 18.030268 -0.325823
vt 0.363069 0.500000
vt 0.363069 0.999915
vt 0.000085 0.999915
vt 0.000085 0.500000
vt 0.726052 0.500000
vt 0.726052 0.999915
vt 0.726052 0.000085
vt 0.363069 0.000085
vt 0.000085 0.000085
vn -0.3990 0.8695 0.2912
vn -0.2016 0.9351 -0.2916
vn 0.0745 0.9753 -0.2081
vn -0.1316 0.9068 0.4005
usemtl Material.142
s off
f 565/557/245 562/558/245 560/559/245 564/560/245
f 563/561/246 558/562/246 562/558/246 565/557/246
f 557/563/247 563/561/247 565/557/247 561/564/247
f 561/564/248 565/557/248 564/560/248 559/565/248
o Plane.141_Plane.142
v 0.821581 18.620979 0.110385
v 0.828609 17.530195 -1.774954
v -0.840829 18.687622 0.065632
v -0.833800 17.596836 -1.819707
v 0.001317 18.868147 0.000035
v 0.008345 17.777363 -1.885303
v 0.831967 18.209917 -0.887545
v -0.830442 18.276558 -0.932299
v 0.011703 18.457085 -0.997895
vt 0.363069 0.500000
vt 0.363069 0.999915
vt 0.000085 0.999915
vt 0.000085 0.500000
vt 0.726052 0.500000
vt 0.726052 0.999915
vt 0.726052 0.000085
vt 0.363069 0.000085
vt 0.000085 0.000085
vn -0.2126 0.7761 -0.5937
vn 0.3056 0.7553 -0.5797
vn 0.3132 0.8792 -0.3589
vn -0.2222 0.9007 -0.3733
usemtl Material.143
s off
f 574/566/249 571/567/249 569/568/249 573/569/249
f 572/570/250 567/571/250 571/567/250 574/566/250
f 566/572/251 572/570/251 574/566/251 570/573/251
f 570/573/252 574/566/252 573/569/252 568/574/252
