# Blender v3.2.0 OBJ File: 'trees.blend'
# www.blender.org
mtllib Spruce Medium 4 Trunk.mtl
o Cylinder.064_Cylinder.062
v 0.218271 3.566649 0.029407
v 0.082910 3.527652 0.033608
v 0.207782 3.501409 0.002812
v 0.084938 3.422249 -0.009028
v 0.215371 3.556974 -0.041103
v 0.083699 3.511877 -0.079008
v 0.358377 3.480033 -0.017222
v 0.356762 3.435875 -0.053908
v 0.360609 3.489611 -0.073805
v 0.541129 3.572609 -0.053517
v 0.542943 3.554829 -0.066983
v 0.532855 3.573418 -0.074293
vt 1.000000 0.500000
vt 1.000000 1.000000
vt 0.666667 1.000000
vt 0.666667 0.500000
vt 0.333333 1.000000
vt 0.333333 0.500000
vt 0.457846 0.130000
vt 0.250000 0.490000
vt 0.042154 0.130000
vt -0.000000 1.000000
vt -0.000000 0.500000
vt -0.000000 0.500000
vt 0.333333 0.500000
vt -0.000000 0.500000
vt 0.333333 0.500000
vt 0.666667 0.500000
vt 1.000000 0.500000
vt 0.750000 0.490000
vt 0.957846 0.130000
vt 0.542154 0.130000
vt 0.666667 0.500000
vt 1.000000 0.500000
vn 0.1460 -0.3781 0.9142
vn 0.4173 -0.5721 -0.7061
vn -0.9998 -0.0174 -0.0046
vn -0.2830 0.9504 -0.1288
vn 0.4742 0.8804 -0.0032
vn -0.4270 0.8912 0.1530
vn -0.4324 -0.4205 -0.7977
vn 0.0433 -0.5038 0.8627
vn 0.8769 0.3438 -0.3358
vn 0.1550 -0.3361 -0.9290
vn 0.4212 -0.5699 0.7055
usemtl None
s off
f 1/1/1 2/2/1 4/3/1 3/4/1
f 3/4/2 4/3/2 6/5/2 5/6/2
f 4/7/3 2/8/3 6/9/3
f 5/6/4 6/5/4 2/10/4 1/11/4
f 5/6/5 1/11/5 7/12/5 9/13/5
f 9/13/6 7/12/6 10/14/6 12/15/6
f 3/4/7 5/6/7 9/13/7 8/16/7
f 1/1/8 3/4/8 8/16/8 7/17/8
f 10/18/9 11/19/9 12/20/9
f 8/16/10 9/13/10 12/15/10 11/21/10
f 7/17/11 8/16/11 11/21/11 10/22/11
o Cylinder.065
v 0.039270 3.157056 0.252887
v 0.002090 3.117590 0.111271
v 0.079047 3.131021 0.249037
v 0.068325 3.096262 0.103648
v 0.081074 3.178465 0.244587
v 0.053461 3.164660 0.104521
v 0.078478 3.257062 0.432223
v 0.102856 3.243994 0.433095
v 0.099725 3.266388 0.417142
vt 1.000000 0.500000
vt 1.000000 1.000000
vt 0.666667 1.000000
vt 0.666667 0.500000
vt 0.333333 1.000000
vt 0.333333 0.500000
vt 0.457846 0.130000
vt 0.250000 0.490000
vt 0.042154 0.130000
vt -0.000000 1.000000
vt -0.000000 0.500000
vt -0.000000 0.500000
vt 0.333333 0.500000
vt 0.666667 0.500000
vt 1.000000 0.500000
vn -0.3641 -0.8852 0.2897
vn 0.9832 0.1043 -0.1498
vn -0.1185 -0.0131 -0.9929
vn -0.5938 0.8045 -0.0156
vn -0.5107 0.7904 -0.3382
vn 0.9939 -0.0162 -0.1092
vn -0.4300 -0.7444 0.5108
vn 0.2849 0.5823 0.7614
usemtl None
s off
f 13/23/12 14/24/12 16/25/12 15/26/12
f 15/26/13 16/25/13 18/27/13 17/28/13
f 16/29/14 14/30/14 18/31/14
f 17/28/15 18/27/15 14/32/15 13/33/15
f 17/28/16 13/33/16 19/34/16 21/35/16
f 15/26/17 17/28/17 21/35/17 20/36/17
f 13/23/18 15/26/18 20/36/18 19/37/18
f 21/35/19 19/37/19 20/36/19
o Cylinder.066
v -0.013731 1.820950 -0.299502
v -0.027500 1.834977 -0.158089
v -0.044780 1.784399 -0.301662
v -0.065537 1.781346 -0.171107
v -0.060530 1.829553 -0.305867
v -0.093101 1.845720 -0.175352
v 0.041887 1.853552 -0.447999
v 0.014589 1.833599 -0.460785
v 0.008431 1.867209 -0.448984
vt 1.000000 0.500000
vt 1.000000 1.000000
vt 0.666667 1.000000
vt 0.666667 0.500000
vt 0.333333 1.000000
vt 0.333333 0.500000
vt 0.457846 0.130000
vt 0.250000 0.490000
vt 0.042154 0.130000
vt -0.000000 1.000000
vt -0.000000 0.500000
vt -0.000000 0.500000
vt 0.333333 0.500000
vt 1.000000 0.500000
vt 0.666667 0.500000
vn 0.7776 -0.6165 0.1236
vn -0.9123 -0.3737 -0.1676
vn -0.2616 -0.0484 0.9640
vn 0.1849 0.9797 -0.0773
vn 0.2262 0.9206 0.3184
vn 0.1717 0.3542 -0.9193
vn -0.8790 -0.2029 -0.4315
vn 0.6858 -0.7250 0.0636
usemtl None
s off
f 22/38/20 23/39/20 25/40/20 24/41/20
f 24/41/21 25/40/21 27/42/21 26/43/21
f 25/44/22 23/45/22 27/46/22
f 26/43/23 27/42/23 23/47/23 22/48/23
f 26/43/24 22/48/24 28/49/24 30/50/24
f 28/51/25 29/52/25 30/50/25
f 24/41/26 26/43/26 30/50/26 29/52/26
f 22/38/27 24/41/27 29/52/27 28/51/27
o Cylinder.067
v -0.219463 7.415948 -0.185056
v -0.100586 7.430248 -0.025295
v -0.247413 7.487956 -0.182476
v -0.121919 7.539204 -0.033153
v -0.199546 7.467103 -0.239458
v -0.053836 7.490399 -0.106441
v -0.358957 7.449049 -0.383238
v -0.375468 7.480702 -0.362610
v -0.353568 7.487590 -0.396859
vt 1.000000 0.500000
vt 1.000000 1.000000
vt 0.666667 1.000000
vt 0.666667 0.500000
vt 0.333333 1.000000
vt 0.333333 0.500000
vt 0.457846 0.130000
vt 0.250000 0.490000
vt 0.042154 0.130000
vt -0.000000 1.000000
vt -0.000000 0.500000
vt -0.000000 0.500000
vt 0.333333 0.500000
vt 1.000000 0.500000
vt 0.666667 0.500000
vn -0.7512 -0.1861 0.6334
vn 0.1344 0.9186 -0.3716
vn 0.7800 0.1956 0.5944
vn 0.5219 -0.7670 -0.3732
vn 0.5762 -0.5908 -0.5647
vn -0.8329 -0.0773 -0.5481
vn 0.1191 0.9910 -0.0606
vn -0.7495 -0.4335 0.5004
usemtl None
s off
f 31/53/28 32/54/28 34/55/28 33/56/28
f 33/56/29 34/55/29 36/57/29 35/58/29
f 34/59/30 32/60/30 36/61/30
f 35/58/31 36/57/31 32/62/31 31/63/31
f 35/58/32 31/63/32 37/64/32 39/65/32
f 37/66/33 38/67/33 39/65/33
f 33/56/34 35/58/34 39/65/34 38/67/34
f 31/53/35 33/56/35 38/67/35 37/66/35
o Cylinder.068
v -0.032012 2.646616 0.270519
v -0.062560 2.564812 0.143237
v 0.031759 2.640417 0.258646
v 0.010535 2.538068 0.107310
v 0.005045 2.699690 0.263030
v -0.008767 2.621588 0.108143
v -0.042072 2.733552 0.391024
v 0.001394 2.714970 0.399515
v -0.002964 2.754620 0.372763
v -0.023234 2.857769 0.455827
v 0.001895 2.846988 0.463177
v 0.000300 2.873150 0.452467
vt 1.000000 0.500000
vt 1.000000 1.000000
vt 0.666667 1.000000
vt 0.666667 0.500000
vt 0.333333 1.000000
vt 0.333333 0.500000
vt 0.457846 0.130000
vt 0.250000 0.490000
vt 0.042154 0.130000
vt -0.000000 1.000000
vt -0.000000 0.500000
vt -0.000000 0.500000
vt 0.333333 0.500000
vt 0.666667 0.500000
vt 1.000000 0.500000
vt -0.000000 0.500000
vt 0.333333 0.500000
vt 1.000000 0.500000
vt 0.666667 0.500000
vn -0.0077 -0.8336 0.5524
vn 0.9098 0.3035 -0.2830
vn -0.4680 -0.0994 -0.8781
vn -0.7917 0.5764 -0.2022
vn -0.7032 0.5793 -0.4121
vn 0.9545 0.2981 -0.0078
vn -0.1805 -0.8490 0.4966
vn -0.5201 0.4714 -0.7123
vn -0.1106 0.3707 0.9221
vn 0.9950 0.0377 -0.0920
vn -0.3640 -0.3953 0.8433
usemtl None
s off
f 40/68/36 41/69/36 43/70/36 42/71/36
f 42/71/37 43/70/37 45/72/37 44/73/37
f 43/74/38 41/75/38 45/76/38
f 44/73/39 45/72/39 41/77/39 40/78/39
f 44/73/40 40/78/40 46/79/40 48/80/40
f 42/71/41 44/73/41 48/80/41 47/81/41
f 40/68/42 42/71/42 47/81/42 46/82/42
f 48/80/43 46/79/43 49/83/43 51/84/43
f 51/84/44 49/85/44 50/86/44
f 47/81/45 48/80/45 51/84/45 50/86/45
f 46/82/46 47/81/46 50/86/46 49/85/46
o Cylinder.070
v -0.335615 5.869967 0.116145
v -0.154483 5.827315 -0.014991
v -0.301710 5.842122 0.149657
v -0.105982 5.811971 0.054010
v -0.298258 5.897126 0.146391
v -0.126447 5.892539 0.033059
v -0.401136 5.938586 0.210468
v -0.378354 5.911063 0.234004
v -0.370289 5.953013 0.236368
v -0.493693 5.929945 0.366606
v -0.476335 5.904083 0.376224
v -0.470190 5.933472 0.388918
vt 1.000000 0.500000
vt 1.000000 1.000000
vt 0.666667 1.000000
vt 0.666667 0.500000
vt 0.333333 1.000000
vt 0.333333 0.500000
vt 0.457846 0.130000
vt 0.250000 0.490000
vt 0.042154 0.130000
vt -0.000000 1.000000
vt -0.000000 0.500000
vt -0.000000 0.500000
vt 0.333333 0.500000
vt 0.666667 0.500000
vt 1.000000 0.500000
vt -0.000000 0.500000
vt 0.333333 0.500000
vt 1.000000 0.500000
vt 0.666667 0.500000
vn -0.2841 -0.9437 -0.1692
vn 0.4981 0.2127 0.8406
vn 0.8230 0.0622 -0.5646
vn -0.3177 0.7338 -0.6005
vn -0.0272 0.8188 -0.5734
vn 0.7293 -0.0803 0.6795
vn -0.6972 -0.7168 -0.0029
vn -0.2554 0.9642 -0.0712
vn -0.6639 -0.1752 0.7270
vn 0.8103 -0.2711 0.5196
vn -0.5872 -0.6971 -0.4115
usemtl None
s off
f 52/87/47 53/88/47 55/89/47 54/90/47
f 54/90/48 55/89/48 57/91/48 56/92/48
f 55/93/49 53/94/49 57/95/49
f 56/92/50 57/91/50 53/96/50 52/97/50
f 56/92/51 52/97/51 58/98/51 60/99/51
f 54/90/52 56/92/52 60/99/52 59/100/52
f 52/87/53 54/90/53 59/100/53 58/101/53
f 60/99/54 58/98/54 61/102/54 63/103/54
f 63/103/55 61/104/55 62/105/55
f 59/100/56 60/99/56 63/103/56 62/105/56
f 58/101/57 59/100/57 62/105/57 61/104/57
o Cylinder.071
v -0.283365 1.806343 -0.146788
v -0.214032 1.746777 -0.079245
v -0.289209 1.851582 -0.118071
v -0.228541 1.829900 -0.043979
v -0.258492 1.851556 -0.162364
v -0.183245 1.808882 -0.119523
v -0.383886 1.861107 -0.328901
v -0.382786 1.890537 -0.305698
v -0.364522 1.891770 -0.338418
v -0.546269 1.905491 -0.392566
v -0.550632 1.926159 -0.375507
v -0.536638 1.930193 -0.398423
vt 1.000000 0.500000
vt 1.000000 1.000000
vt 0.666667 1.000000
vt 0.666667 0.500000
vt 0.333333 1.000000
vt 0.333333 0.500000
vt 0.457846 0.130000
vt 0.250000 0.490000
vt 0.042154 0.130000
vt -0.000000 1.000000
vt -0.000000 0.500000
vt -0.000000 0.500000
vt 0.333333 0.500000
vt -0.000000 0.500000
vt 0.333333 0.500000
vt 0.666667 0.500000
vt 1.000000 0.500000
vt 1.000000 0.500000
vt 0.666667 0.500000
vn -0.7802 -0.3738 0.5017
vn 0.3736 0.9246 0.0746
vn 0.8456 -0.0766 0.5283
vn 0.2337 -0.5415 -0.8076
vn 0.6507 -0.5519 -0.5216
vn 0.2388 -0.3739 -0.8962
vn 0.1668 0.9785 0.1214
vn -0.8704 -0.3171 0.3765
vn -0.8496 0.2173 -0.4806
vn 0.1448 0.9737 0.1761
vn -0.4218 -0.5845 0.6931
usemtl None
s off
f 64/106/58 65/107/58 67/108/58 66/109/58
f 66/109/59 67/108/59 69/110/59 68/111/59
f 67/112/60 65/113/60 69/114/60
f 68/111/61 69/110/61 65/115/61 64/116/61
f 68/111/62 64/116/62 70/117/62 72/118/62
f 72/118/63 70/117/63 73/119/63 75/120/63
f 66/109/64 68/111/64 72/118/64 71/121/64
f 64/106/65 66/109/65 71/121/65 70/122/65
f 73/123/66 74/124/66 75/120/66
f 71/121/67 72/118/67 75/120/67 74/124/67
f 70/122/68 71/121/68 74/124/68 73/123/68
o Cylinder.072
v 0.192436 1.436016 0.006620
v 0.106290 1.446733 -0.000260
v 0.189129 1.369460 -0.018692
v 0.108050 1.355278 -0.037254
v 0.193789 1.424525 -0.063718
v 0.106974 1.433045 -0.097973
v 0.367922 1.563324 -0.031269
v 0.366565 1.526201 -0.062110
v 0.369799 1.571377 -0.078838
v 0.483550 1.630853 -0.010411
v 0.500195 1.607025 -0.021740
v 0.490482 1.629726 -0.040806
vt 1.000000 0.500000
vt 1.000000 1.000000
vt 0.666667 1.000000
vt 0.666667 0.500000
vt 0.333333 1.000000
vt 0.333333 0.500000
vt 0.457846 0.130000
vt 0.250000 0.490000
vt 0.042154 0.130000
vt -0.000000 1.000000
vt -0.000000 0.500000
vt -0.000000 0.500000
vt 0.333333 0.500000
vt -0.000000 0.500000
vt 0.333333 0.500000
vt 0.666667 0.500000
vt 1.000000 0.500000
vt 0.750000 0.490000
vt 0.957846 0.130000
vt 0.542154 0.130000
vt 0.666667 0.500000
vt 1.000000 0.500000
vn -0.1328 -0.3624 0.9225
vn 0.2572 -0.6061 -0.7526
vn -0.9998 -0.0174 -0.0046
vn 0.1434 0.9790 -0.1449
vn -0.6183 0.7850 -0.0398
vn -0.4748 0.8798 0.0245
vn 0.3112 -0.5161 -0.7980
vn 0.5144 -0.4262 0.7441
vn 0.8442 0.5071 0.1737
vn 0.4563 -0.3806 -0.8043
vn 0.1200 -0.5443 0.8302
usemtl None
s off
f 76/125/69 77/126/69 79/127/69 78/128/69
f 78/128/70 79/127/70 81/129/70 80/130/70
f 79/131/71 77/132/71 81/133/71
f 80/130/72 81/129/72 77/134/72 76/135/72
f 80/130/73 76/135/73 82/136/73 84/137/73
f 84/137/74 82/136/74 85/138/74 87/139/74
f 78/128/75 80/130/75 84/137/75 83/140/75
f 76/125/76 78/128/76 83/140/76 82/141/76
f 85/142/77 86/143/77 87/144/77
f 83/140/78 84/137/78 87/139/78 86/145/78
f 82/141/79 83/140/79 86/145/79 85/146/79
o Cylinder.073
v -0.288035 2.883217 0.031049
v -0.214670 2.827575 -0.031694
v -0.243288 2.909213 0.075865
v -0.165929 2.872927 0.031007
v -0.269800 2.949074 0.026929
v -0.211874 2.907361 -0.039021
v -0.506921 2.911983 0.037277
v -0.458251 2.920258 0.066677
v -0.478661 2.961797 0.032625
v -0.565297 3.029637 0.183835
v -0.540051 3.039023 0.209401
v -0.554271 3.064961 0.186949
vt 1.000000 0.500000
vt 1.000000 1.000000
vt 0.666667 1.000000
vt 0.666667 0.500000
vt 0.333333 1.000000
vt 0.333333 0.500000
vt 0.457846 0.130000
vt 0.250000 0.490000
vt 0.042154 0.130000
vt -0.000000 1.000000
vt -0.000000 0.500000
vt -0.000000 0.500000
vt 0.333333 0.500000
vt -0.000000 0.500000
vt 0.333333 0.500000
vt 0.666667 0.500000
vt 1.000000 0.500000
vt 1.000000 0.500000
vt 0.666667 0.500000
vn -0.0675 -0.8033 0.5917
vn 0.5812 0.8006 0.1460
vn 0.8145 -0.0813 -0.5744
vn -0.6836 0.0414 -0.7287
vn -0.0338 -0.0621 -0.9975
vn -0.7456 0.3336 -0.5769
vn 0.0349 0.7233 0.6897
vn -0.0825 -0.8612 0.5015
vn -0.7317 0.1702 0.6600
vn 0.8592 0.5058 0.0774
vn -0.2182 -0.8048 0.5520
usemtl None
s off
f 88/147/80 89/148/80 91/149/80 90/150/80
f 90/150/81 91/149/81 93/151/81 92/152/81
f 91/153/82 89/154/82 93/155/82
f 92/152/83 93/151/83 89/156/83 88/157/83
f 92/152/84 88/157/84 94/158/84 96/159/84
f 96/159/85 94/158/85 97/160/85 99/161/85
f 90/150/86 92/152/86 96/159/86 95/162/86
f 88/147/87 90/150/87 95/162/87 94/163/87
f 97/164/88 98/165/88 99/161/88
f 95/162/89 96/159/89 99/161/89 98/165/89
f 94/163/90 95/162/90 98/165/90 97/164/90
o Cylinder.074
v -0.017128 7.615470 0.256616
v -0.057204 7.588345 0.076435
v 0.040513 7.560980 0.239690
v 0.035424 7.532522 0.056564
v 0.059277 7.639749 0.244330
v 0.035004 7.642309 0.050424
v 0.029112 7.664160 0.478025
v 0.065908 7.618454 0.464189
v 0.088223 7.673991 0.471411
v 0.197665 7.616312 0.697113
v 0.213643 7.588434 0.679346
v 0.226039 7.622681 0.674697
vt 1.000000 0.500000
vt 1.000000 1.000000
vt 0.666667 1.000000
vt 0.666667 0.500000
vt 0.333333 1.000000
vt 0.333333 0.500000
vt 0.457846 0.130000
vt 0.250000 0.490000
vt 0.042154 0.130000
vt -0.000000 1.000000
vt -0.000000 0.500000
vt -0.000000 0.500000
vt 0.333333 0.500000
vt -0.000000 0.500000
vt 0.333333 0.500000
vt 0.666667 0.500000
vt 1.000000 0.500000
vt 1.000000 0.500000
vt 0.666667 0.500000
vn -0.5496 -0.8129 0.1927
vn 0.9928 -0.0971 -0.0706
vn -0.2411 -0.0551 -0.9689
vn -0.4186 0.9081 0.0124
vn -0.2594 0.9565 -0.1334
vn -0.0826 0.9552 0.2842
vn 0.9561 -0.2874 -0.0567
vn -0.6569 -0.7029 0.2729
vn 0.6322 -0.1250 0.7647
vn 0.7668 -0.2799 -0.5777
vn -0.6704 -0.6412 0.3734
usemtl None
s off
f 100/166/91 101/167/91 103/168/91 102/169/91
f 102/169/92 103/168/92 105/170/92 104/171/92
f 103/172/93 101/173/93 105/174/93
f 104/171/94 105/170/94 101/175/94 100/176/94
f 104/171/95 100/176/95 106/177/95 108/178/95
f 108/178/96 106/177/96 109/179/96 111/180/96
f 102/169/97 104/171/97 108/178/97 107/181/97
f 100/166/98 102/169/98 107/181/98 106/182/98
f 109/183/99 110/184/99 111/180/99
f 107/181/100 108/178/100 111/180/100 110/184/100
f 106/182/101 107/181/101 110/184/101 109/183/101
o Cylinder.063_Cylinder.059
v 0.085992 -0.366871 -0.396718
v 0.334210 -0.374917 0.044219
v -0.066885 -0.367488 0.354336
v -0.386372 -0.379571 0.085451
v -0.386966 -0.374998 -0.248348
v -0.000000 15.000000 0.000000
v -0.075596 -0.160438 -0.320723
v 0.268839 -0.164565 -0.069521
v 0.126042 -0.164314 0.218104
v -0.232964 -0.149429 0.152245
v -0.380548 -0.154360 -0.143320
v -0.134621 0.104445 -0.238220
v 0.147038 0.082948 -0.128913
v 0.115749 0.143722 0.129338
v -0.125625 0.157688 0.182121
v -0.312155 0.134070 -0.052164
vt 0.600000 0.875000
vt 0.400000 1.000000
vt 0.400000 0.875000
vt 0.200000 1.000000
vt 0.200000 0.875000
vt 0.800000 1.000000
vt 0.800000 0.875000
vt 1.000000 0.875000
vt 0.600000 1.000000
vt 0.200000 0.500000
vt 0.200000 0.750000
vt 0.000000 0.750000
vt 0.000000 0.500000
vt 0.400000 0.500000
vt 0.400000 0.750000
vt 0.600000 0.500000
vt 0.600000 0.750000
vt 0.800000 0.500000
vt 0.800000 0.750000
vt 1.000000 0.500000
vt 1.000000 0.750000
vt 0.000000 0.875000
vt 0.000000 1.000000
vn 0.2142 0.0102 0.9767
vn -0.7830 0.0143 0.6219
vn 0.3625 0.0116 -0.9319
vn 0.9929 0.0088 0.1182
vn -0.3753 0.2428 -0.8945
vn -0.9426 0.2497 0.2218
vn -0.3949 0.4445 0.8041
vn 0.7294 0.1748 0.6614
vn 0.7183 0.3360 -0.6092
vn -0.5697 0.2549 -0.7813
vn -0.8407 0.1419 0.5225
vn -0.0170 0.0979 0.9950
vn 0.9210 0.2887 0.2614
vn 0.4941 0.2124 -0.8430
vn -0.7220 0.0176 -0.6917
usemtl None
s off
f 125/185/102 117/186/102 126/187/102
f 126/187/103 117/188/103 127/189/103
f 117/190/104 124/191/104 123/192/104
f 124/191/105 117/193/105 125/185/105
f 116/194/106 122/195/106 118/196/106 112/197/106
f 115/198/107 121/199/107 122/195/107 116/194/107
f 114/200/108 120/201/108 121/199/108 115/198/108
f 113/202/109 119/203/109 120/201/109 114/200/109
f 112/204/110 118/205/110 119/203/110 113/202/110
f 122/195/111 127/189/111 123/206/111 118/196/111
f 121/199/112 126/187/112 127/189/112 122/195/112
f 120/201/113 125/185/113 126/187/113 121/199/113
f 119/203/114 124/191/114 125/185/114 120/201/114
f 118/205/115 123/192/115 124/191/115 119/203/115
f 127/189/116 117/207/116 123/206/116
