# Blender v3.2.0 OBJ File: 'trees.blend'
# www.blender.org
mtllib Spruce Medium 2 Leaves.mtl
o Long_twig.004_Plane.211
v -0.158763 3.383615 -0.031318
v -1.140627 3.975802 -0.019188
v 0.042117 3.716733 -0.033799
v -0.939746 4.308919 -0.021669
vt 0.994043 -0.000190
vt 0.994043 0.406109
vt 0.856208 0.406109
vt 0.856208 -0.000190
vn -0.0124 0.0000 -0.9999
usemtl thing.004
s off
f 1/1/1 2/2/1 4/3/1 3/4/1
o Short_twigs_set_2.023_Plane.256
v -0.193793 1.411695 0.916634
v -0.179491 4.200747 0.902864
v -0.097115 1.406552 -0.024595
v -0.082814 4.195603 -0.038366
vt 0.869132 0.583327
vt 0.869132 0.998870
vt 0.728161 0.998870
vt 0.728161 0.583327
vn -0.9948 0.0046 -0.1022
usemtl thing.004
s off
f 5/5/2 6/6/2 8/7/2 7/8/2
o Short_twigs_set_2.024_Plane.308
v -0.368241 3.359958 -0.517398
v -0.358094 5.338892 -0.527169
v -0.006275 3.360893 0.048025
v 0.003873 5.339828 0.038255
vt 0.869132 0.583327
vt 0.869132 0.998870
vt 0.728161 0.998870
vt 0.728161 0.583327
vn 0.8422 -0.0070 -0.5391
usemtl thing.004
s off
f 9/9/3 10/10/3 12/11/3 11/12/3
o Short_twigs_set.035_Plane.354
v 0.085300 6.272198 0.662539
v 0.085300 8.417895 0.662539
v -0.073556 6.272198 -0.047832
v -0.073555 8.417895 -0.047832
vt 0.869132 0.583327
vt 0.869132 0.998870
vt 0.728161 0.998870
vt 0.728161 0.583327
vn -0.9759 0.0000 0.2182
usemtl thing.004
s off
f 13/13/4 14/14/4 16/15/4 15/16/4
o Short_twigs_set_2.025_Plane.516
v 0.479342 0.960408 -0.604898
v 0.499219 3.073520 -0.605232
v -0.013214 0.965123 -0.084030
v 0.006663 3.078235 -0.084364
vt 0.869132 0.583327
vt 0.869132 0.998870
vt 0.728161 0.998870
vt 0.728161 0.583327
vn 0.7265 -0.0067 0.6871
usemtl thing.004
s off
f 17/17/5 18/18/5 20/19/5 19/20/5
o Short_twigs_set_2.026_Plane.517
v 0.429455 3.023393 -0.540412
v 0.445515 4.730777 -0.540682
v 0.031472 3.027203 -0.119553
v 0.047533 4.734587 -0.119822
vt 0.869132 0.583327
vt 0.869132 0.998870
vt 0.728161 0.998870
vt 0.728161 0.583327
vn 0.7265 -0.0067 0.6871
usemtl thing.004
s off
f 21/21/6 22/22/6 24/23/6 23/24/6
o Short_twigs_set_2.027_Plane.518
v 0.338857 4.699253 -0.443530
v 0.351811 6.076486 -0.443748
v 0.017831 4.702326 -0.104051
v 0.030785 6.079559 -0.104269
vt 0.869132 0.583327
vt 0.869132 0.998870
vt 0.728161 0.998870
vt 0.728161 0.583327
vn 0.7265 -0.0067 0.6871
usemtl thing.004
s off
f 25/25/7 26/26/7 28/27/7 27/28/7
o Short_twigs_set_2.028_Plane.519
v 0.353303 6.933300 -0.441279
v 0.366258 8.310534 -0.441497
v 0.032277 6.936374 -0.101800
v 0.045232 8.313606 -0.102018
vt 0.869132 0.583327
vt 0.869132 0.998870
vt 0.728161 0.998870
vt 0.728161 0.583327
vn 0.7265 -0.0067 0.6871
usemtl thing.004
s off
f 29/29/8 30/30/8 32/31/8 31/32/8
o Short_twigs_set_2.029_Plane.584
v 0.726246 5.489241 -0.006155
v 0.745688 7.556061 -0.006481
v 0.025733 5.495835 0.023896
v 0.045174 7.562654 0.023570
vt 0.869132 0.583327
vt 0.869132 0.998870
vt 0.728161 0.998870
vt 0.728161 0.583327
vn 0.0429 -0.0002 0.9991
usemtl thing.004
s off
f 33/33/9 34/34/9 36/35/9 35/36/9
o Short_twigs_set_2.030_Plane.585
v 0.563500 3.691025 -0.020144
v 0.577671 5.197587 -0.020382
v 0.052876 3.695831 0.001761
v 0.067047 5.202394 0.001523
vt 0.869132 0.583327
vt 0.869132 0.998870
vt 0.728161 0.998870
vt 0.728161 0.583327
vn 0.0429 -0.0002 0.9991
usemtl thing.004
s off
f 37/37/10 38/38/10 40/39/10 39/40/10
o Short_twigs_set.033_Plane.586
v 0.644252 7.867054 0.347164
v 0.644269 10.012753 0.346936
v 0.020241 7.867020 -0.027634
v 0.020259 10.012717 -0.027862
vt 0.869132 0.583327
vt 0.869132 0.998870
vt 0.728161 0.998870
vt 0.728161 0.583327
vn -0.5149 0.0001 0.8573
usemtl thing.004
s off
f 41/41/11 42/42/11 44/43/11 43/44/11
o Short_twigs_set.034_Plane.587
v 0.759234 1.578747 0.292994
v 0.759252 3.724445 0.292766
v 0.081411 1.578725 0.027632
v 0.081428 3.724422 0.027403
vt 0.869132 0.583327
vt 0.869132 0.998870
vt 0.728161 0.998870
vt 0.728161 0.583327
vn -0.3646 0.0001 0.9312
usemtl thing.004
s off
f 45/45/12 46/46/12 48/47/12 47/48/12
o Plane.372_Plane.520
v 0.058948 13.722163 -0.764568
v -1.972396 12.479461 -0.465830
v 0.160228 13.945615 0.853634
v -1.871116 12.702911 1.152372
v -0.000080 14.081465 0.017210
v -2.031424 12.838762 0.315948
v -1.025613 13.256329 -0.632362
v -0.924333 13.479780 0.985840
v -1.084641 13.615630 0.149416
vt 0.363069 0.500000
vt 0.363069 0.999915
vt 0.000085 0.999915
vt 0.000085 0.500000
vt 0.726052 0.500000
vt 0.726052 0.999915
vt 0.726052 0.000085
vt 0.363069 0.000085
vt 0.000085 0.000085
vn -0.5906 0.7709 0.2384
vn -0.6283 0.6878 -0.3635
vn -0.4019 0.8201 -0.4073
vn -0.3628 0.9063 0.2167
usemtl Material.392
s off
f 57/49/13 54/50/13 52/51/13 56/52/13
f 55/53/14 50/54/14 54/50/14 57/49/14
f 49/55/15 55/53/15 57/49/15 53/56/15
f 53/56/16 57/49/16 56/52/16 51/57/16
o Plane.373_Plane.521
v -0.503340 12.519308 -0.145940
v -0.715610 11.845600 1.236365
v 0.537353 12.573586 0.040326
v 0.325083 11.899879 1.422631
v -0.000824 12.714047 -0.002022
v -0.213094 12.040339 1.380282
v -0.620676 12.287733 0.577113
v 0.420018 12.342012 0.763379
v -0.118160 12.482472 0.721030
vt 0.363069 0.500000
vt 0.363069 0.999915
vt 0.000085 0.999915
vt 0.000085 0.500000
vt 0.726052 0.500000
vt 0.726052 0.999915
vt 0.726052 0.000085
vt 0.363069 0.000085
vt 0.000085 0.000085
vn 0.1663 0.8077 0.5656
vn -0.4322 0.7765 0.4585
vn -0.4063 0.8873 0.2182
vn 0.2141 0.9196 0.3293
usemtl Material.393
s off
f 66/58/17 63/59/17 61/60/17 65/61/17
f 64/62/18 59/63/18 63/59/18 66/58/18
f 58/64/19 64/62/19 66/58/19 62/65/19
f 62/65/20 66/58/20 65/61/20 60/66/20
o Plane.374_Plane.522
v 0.097893 12.846658 0.467687
v 1.286939 12.305657 0.079722
v -0.177779 12.876847 -0.419298
v 1.011267 12.335847 -0.807264
v 0.000218 13.010789 0.016785
v 1.189264 12.469789 -0.371180
v 0.717644 12.669776 0.269050
v 0.441971 12.699965 -0.617935
v 0.619969 12.833907 -0.181852
vt 0.363069 0.500000
vt 0.363069 0.999915
vt 0.000085 0.999915
vt 0.000085 0.500000
vt 0.726052 0.500000
vt 0.726052 0.999915
vt 0.726052 0.000085
vt 0.363069 0.000085
vt 0.000085 0.000085
vn 0.3897 0.8236 -0.4120
vn 0.5703 0.8038 0.1691
vn 0.3402 0.9049 0.2557
vn 0.1530 0.9254 -0.3467
usemtl Material.394
s off
f 75/67/21 72/68/21 70/69/21 74/70/21
f 73/71/22 68/72/22 72/68/22 75/67/22
f 67/73/23 73/71/23 75/67/23 71/74/23
f 71/74/24 75/67/24 74/70/24 69/75/24
o Plane.375_Plane.523
v -0.353588 11.994292 -0.566615
v -1.882765 11.461878 0.496887
v 0.400933 11.993410 0.517846
v -1.128244 11.460995 1.581348
v -0.000598 12.211517 -0.007321
v -1.529775 11.679103 1.056181
v -1.133422 11.864814 -0.024145
v -0.378901 11.863932 1.060315
v -0.780432 12.082039 0.535148
vt 0.363069 0.500000
vt 0.363069 0.999915
vt 0.000085 0.999915
vt 0.000085 0.500000
vt 0.726052 0.500000
vt 0.726052 0.999915
vt 0.726052 0.000085
vt 0.363069 0.000085
vt 0.000085 0.000085
vn -0.1416 0.8712 0.4701
vn -0.4893 0.8716 -0.0297
vn -0.2851 0.9404 -0.1853
vn 0.0754 0.9400 0.3327
usemtl Material.395
s off
f 84/76/25 81/77/25 79/78/25 83/79/25
f 82/80/26 77/81/26 81/77/26 84/76/26
f 76/82/27 82/80/27 84/76/27 80/83/27
f 80/83/28 84/76/28 83/79/28 78/84/28
o Plane.376_Plane.524
v 0.639640 13.567580 -0.101478
v 0.013042 12.443546 -1.579019
v -0.621613 13.732754 0.307741
v -1.248211 12.608720 -1.169800
v 0.000999 13.846401 -0.000777
v -0.625599 12.722366 -1.478317
v 0.321306 13.128829 -0.905519
v -0.939946 13.294003 -0.496300
v -0.317335 13.407650 -0.804818
vt 0.363069 0.500000
vt 0.363069 0.999915
vt 0.000085 0.999915
vt 0.000085 0.500000
vt 0.726052 0.500000
vt 0.726052 0.999915
vt 0.726052 0.000085
vt 0.363069 0.000085
vt 0.000085 0.000085
vn -0.4069 0.7268 -0.5533
vn 0.1678 0.6516 -0.7398
vn 0.2636 0.7990 -0.5404
vn -0.3321 0.8771 -0.3471
usemtl Material.396
s off
f 93/85/29 90/86/29 88/87/29 92/88/29
f 91/89/30 86/90/30 90/86/30 93/85/30
f 85/91/31 91/89/31 93/85/31 89/92/31
f 89/92/32 93/85/32 92/88/32 87/93/32
o Plane.377_Plane.525
v 0.810203 11.319424 0.109037
v 0.751228 9.639660 -1.526958
v -0.787445 11.301281 0.185257
v -0.846419 9.621517 -1.450737
v 0.001265 11.521211 -0.014661
v -0.057709 9.841447 -1.650655
v 0.774363 10.611994 -0.810602
v -0.823285 10.593851 -0.734381
v -0.034575 10.813781 -0.934299
vt 0.363069 0.500000
vt 0.363069 0.999915
vt 0.000085 0.999915
vt 0.000085 0.500000
vt 0.726052 0.500000
vt 0.726052 0.999915
vt 0.726052 0.000085
vt 0.363069 0.000085
vt 0.000085 0.000085
vn -0.3470 0.5616 -0.7511
vn 0.2611 0.5685 -0.7801
vn 0.2791 0.7558 -0.5923
vn -0.3513 0.7487 -0.5622
usemtl Material.397
s off
f 102/94/33 99/95/33 97/96/33 101/97/33
f 100/98/34 95/99/34 99/95/34 102/94/34
f 94/100/35 100/98/35 102/94/35 98/101/35
f 98/101/36 102/94/36 101/97/36 96/102/36
o Plane.378_Plane.526
v -0.426359 13.151916 -0.126014
v -0.630468 12.654831 1.043849
v 0.438352 13.154132 0.025796
v 0.234243 12.657048 1.195659
v -0.000685 13.294344 -0.014113
v -0.204794 12.797260 1.155750
v -0.532610 12.992145 0.481528
v 0.332101 12.994362 0.633339
v -0.106937 13.134574 0.593429
vt 0.363069 0.500000
vt 0.363069 0.999915
vt 0.000085 0.999915
vt 0.000085 0.500000
vt 0.726052 0.500000
vt 0.726052 0.999915
vt 0.726052 0.000085
vt 0.363069 0.000085
vt 0.000085 0.000085
vn 0.2140 0.8208 0.5296
vn -0.3857 0.8193 0.4243
vn -0.3542 0.9178 0.1794
vn 0.2674 0.9194 0.2885
usemtl Material.398
s off
f 111/103/37 108/104/37 106/105/37 110/106/37
f 109/107/38 104/108/38 108/104/38 111/103/38
f 103/109/39 109/107/39 111/103/39 107/110/39
f 107/110/40 111/103/40 110/106/40 105/111/40
o Plane.379_Plane.527
v -0.080083 12.808741 -0.757040
v -1.860993 11.613256 -0.195065
v 0.292012 12.940611 0.702665
v -1.488897 11.745128 1.264640
v -0.000295 13.102469 -0.020680
v -1.781204 11.906986 0.541295
v -1.037285 12.354090 -0.471965
v -0.665190 12.485960 0.987740
v -0.957497 12.647820 0.264396
vt 0.363069 0.500000
vt 0.363069 0.999915
vt 0.000085 0.999915
vt 0.000085 0.500000
vt 0.726052 0.500000
vt 0.726052 0.999915
vt 0.726052 0.000085
vt 0.363069 0.000085
vt 0.000085 0.000085
vn -0.5418 0.7467 0.3860
vn -0.6916 0.6936 -0.2017
vn -0.4787 0.8321 -0.2801
vn -0.3234 0.8872 0.3292
usemtl Material.399
s off
f 120/112/41 117/113/41 115/114/41 119/115/41
f 118/116/42 113/117/42 117/113/42 120/112/42
f 112/118/43 118/116/43 120/112/43 116/119/43
f 116/119/44 120/112/44 119/115/44 114/120/44
o Plane.380_Plane.528
v -0.123928 10.271392 -0.636346
v -2.047521 10.520001 -0.469861
v 0.011249 10.440147 0.673518
v -1.912343 10.688757 0.840003
v -0.000107 10.566680 -0.014390
v -1.923700 10.815289 0.152095
v -1.050402 10.528182 -0.573818
v -0.915224 10.696937 0.736046
v -0.926581 10.823470 0.048139
vt 0.363069 0.500000
vt 0.363069 0.999915
vt 0.000085 0.999915
vt 0.000085 0.500000
vt 0.726052 0.500000
vt 0.726052 0.999915
vt 0.726052 0.000085
vt 0.363069 0.000085
vt 0.000085 0.000085
vn 0.0108 0.9835 0.1807
vn -0.0512 0.9061 -0.4200
vn 0.2096 0.8665 -0.4531
vn 0.2738 0.9467 0.1696
usemtl Material.400
s off
f 129/121/45 126/122/45 124/123/45 128/124/45
f 127/125/46 122/126/46 126/122/46 129/121/46
f 121/127/47 127/125/47 129/121/47 125/128/47
f 125/128/48 129/121/48 128/124/48 123/129/48
o Plane.381_Plane.529
v -0.415911 10.976058 -0.621316
v -1.911487 10.065178 0.543643
v 0.502943 10.869325 0.474856
v -0.992633 9.958445 1.639814
v -0.000728 11.149463 -0.014062
v -1.496304 10.238583 1.150896
v -1.191491 10.663067 -0.001670
v -0.272637 10.556333 1.094502
v -0.776308 10.836471 0.605584
vt 0.363069 0.500000
vt 0.363069 0.999915
vt 0.000085 0.999915
vt 0.000085 0.500000
vt 0.726052 0.500000
vt 0.726052 0.999915
vt 0.726052 0.000085
vt 0.363069 0.000085
vt 0.000085 0.000085
vn -0.1711 0.7685 0.6166
vn -0.5612 0.8138 0.1513
vn -0.3782 0.9257 -0.0058
vn 0.0261 0.8787 0.4766
usemtl Material.401
s off
f 138/130/49 135/131/49 133/132/49 137/133/49
f 136/134/50 131/135/50 135/131/50 138/130/50
f 130/136/51 136/134/51 138/130/51 134/137/51
f 134/137/52 138/130/52 137/133/52 132/138/52
o Plane.382_Plane.530
v 0.734511 11.833393 -0.286446
v -0.037949 10.589653 -1.953430
v -0.592608 11.700201 0.427900
v -1.365068 10.456460 -1.239085
v 0.001051 11.991939 -0.017156
v -0.771409 10.748198 -1.684141
v 0.304372 11.352947 -1.175143
v -1.022746 11.219754 -0.460797
v -0.429087 11.511493 -0.905853
vt 0.363069 0.500000
vt 0.363069 0.999915
vt 0.000085 0.999915
vt 0.000085 0.500000
vt 0.726052 0.500000
vt 0.726052 0.999915
vt 0.726052 0.000085
vt 0.363069 0.000085
vt 0.000085 0.000085
vn -0.6246 0.6770 -0.3893
vn -0.0905 0.7306 -0.6767
vn 0.0132 0.8769 -0.4805
vn -0.5404 0.8214 -0.1825
usemtl Material.402
s off
f 147/139/53 144/140/53 142/141/53 146/142/53
f 145/143/54 140/144/54 144/140/54 147/139/54
f 139/145/55 145/143/55 147/139/55 143/146/55
f 143/146/56 147/139/56 146/142/56 141/147/56
o Plane.383_Plane.531
v -0.318678 11.698097 0.598199
v 1.134562 10.363546 1.006939
v 0.080575 11.730277 -0.716240
v 1.533815 10.395726 -0.307500
v -0.000316 11.905107 -0.018281
v 1.452924 10.570556 0.390459
v 0.482527 11.150749 0.828160
v 0.881779 11.182929 -0.486279
v 0.800888 11.357759 0.211679
vt 0.363069 0.500000
vt 0.363069 0.999915
vt 0.000085 0.999915
vt 0.000085 0.500000
vt 0.726052 0.500000
vt 0.726052 0.999915
vt 0.726052 0.000085
vt 0.363069 0.000085
vt 0.000085 0.000085
vn 0.7758 0.6273 -0.0672
vn 0.5989 0.6131 0.5152
vn 0.4014 0.7855 0.4711
vn 0.5848 0.8003 -0.1327
usemtl Material.403
s off
f 156/148/57 153/149/57 151/150/57 155/151/57
f 154/152/58 149/153/58 153/149/58 156/148/58
f 148/154/59 154/152/59 156/148/59 152/155/59
f 152/155/60 156/148/60 155/151/60 150/156/60
o Plane.384_Plane.532
v -0.313554 10.291911 -0.976728
v -2.570776 8.764967 -0.098845
v 0.523018 10.060797 0.772287
v -1.734203 8.533852 1.650170
v -0.000663 10.470188 -0.012982
v -2.257884 8.943243 0.864901
v -1.508370 9.713014 -0.481730
v -0.671797 9.481898 1.267284
v -1.195478 9.891290 0.482016
vt 0.363069 0.500000
vt 0.363069 0.999915
vt 0.000085 0.999915
vt 0.000085 0.500000
vt 0.726052 0.500000
vt 0.726052 0.999915
vt 0.726052 0.000085
vt 0.363069 0.000085
vt 0.000085 0.000085
vn -0.3889 0.6847 0.6163
vn -0.6498 0.7568 0.0710
vn -0.4432 0.8961 -0.0219
vn -0.1728 0.8214 0.5435
usemtl Material.404
s off
f 165/157/61 162/158/61 160/159/61 164/160/61
f 163/161/62 158/162/62 162/158/62 165/157/62
f 157/163/63 163/161/63 165/157/63 161/164/63
f 161/164/64 165/157/64 164/160/64 159/165/64
o Plane.385_Plane.533
v 0.580655 11.990664 0.080079
v 0.621713 11.243095 -1.474385
v -0.594507 12.025206 0.032428
v -0.553449 11.277637 -1.522036
v 0.000931 12.194455 -0.002302
v 0.041988 11.446887 -1.556766
v 0.606120 11.734044 -0.733935
v -0.569043 11.768585 -0.781586
v 0.026395 11.937836 -0.816316
vt 0.363069 0.500000
vt 0.363069 0.999915
vt 0.000085 0.999915
vt 0.000085 0.500000
vt 0.726052 0.500000
vt 0.726052 0.999915
vt 0.726052 0.000085
vt 0.363069 0.000085
vt 0.000085 0.000085
vn -0.2594 0.8024 -0.5375
vn 0.3487 0.7845 -0.5128
vn 0.3533 0.8953 -0.2712
vn -0.2771 0.9139 -0.2968
usemtl Material.405
s off
f 174/166/65 171/167/65 169/168/65 173/169/65
f 172/170/66 167/171/66 171/167/66 174/166/66
f 166/172/67 172/170/67 174/166/67 170/173/67
f 170/173/68 174/166/68 173/169/68 168/174/68
o Plane.386_Plane.534
v -0.688184 10.865935 -0.098936
v -0.754579 10.179883 1.854107
v 0.719361 10.952926 -0.020528
v 0.652966 10.266873 1.932515
v -0.001115 11.139385 -0.015004
v -0.067510 10.453333 1.938039
v -0.731874 10.667357 0.905682
v 0.675672 10.754348 0.984090
v -0.044805 10.940806 0.989613
vt 0.363069 0.500000
vt 0.363069 0.999915
vt 0.000085 0.999915
vt 0.000085 0.500000
vt 0.726052 0.500000
vt 0.726052 0.999915
vt 0.726052 0.000085
vt 0.363069 0.000085
vt 0.000085 0.000085
vn 0.2270 0.8640 0.4495
vn -0.3797 0.8265 0.4157
vn -0.3820 0.9097 0.1632
vn 0.2470 0.9485 0.1982
usemtl Material.406
s off
f 183/175/69 180/176/69 178/177/69 182/178/69
f 181/179/70 176/180/70 180/176/70 183/175/70
f 175/181/71 181/179/71 183/175/71 179/182/71
f 179/182/72 183/175/72 182/178/72 177/183/72
o Plane.387_Plane.535
v -0.288790 12.179697 0.466619
v 1.011588 11.669072 1.201432
v 0.218222 12.108231 -0.480289
v 1.518600 11.597606 0.254524
v -0.000402 12.319447 -0.001402
v 1.299977 11.808823 0.733411
v 0.383311 12.034616 0.837438
v 0.890323 11.963149 -0.109469
v 0.671699 12.174366 0.369418
vt 0.363069 0.500000
vt 0.363069 0.999915
vt 0.000085 0.999915
vt 0.000085 0.500000
vt 0.726052 0.500000
vt 0.726052 0.999915
vt 0.726052 0.000085
vt 0.363069 0.000085
vt 0.000085 0.000085
vn 0.5485 0.8282 -0.1149
vn 0.2617 0.8687 0.4206
vn 0.0363 0.9512 0.3064
vn 0.3335 0.9093 -0.2488
usemtl Material.407
s off
f 192/184/73 189/185/73 187/186/73 191/187/73
f 190/188/74 185/189/74 189/185/74 192/184/74
f 184/190/75 190/188/75 192/184/75 188/191/75
f 188/191/76 192/184/76 191/187/76 186/192/76
o Plane.389_Plane.537
v 0.509160 9.085077 -0.962504
v -2.330482 7.928181 -2.086471
v -0.391707 9.332064 1.059263
v -3.231348 8.175168 -0.064704
v 0.000714 9.567626 -0.021334
v -2.838928 8.410730 -1.145301
v -0.947102 8.732173 -1.568279
v -1.847969 8.979159 0.453488
v -1.455548 9.214722 -0.627108
vt 0.363069 0.500000
vt 0.363069 0.999915
vt 0.000085 0.999915
vt 0.000085 0.500000
vt 0.726052 0.500000
vt 0.726052 0.999915
vt 0.726052 0.000085
vt 0.363069 0.000085
vt 0.000085 0.000085
vn -0.5039 0.8637 0.0053
vn -0.2577 0.7962 -0.5474
vn -0.0210 0.8850 -0.4651
vn -0.2763 0.9550 0.1078
usemtl Material.409
s off
f 201/193/77 198/194/77 196/195/77 200/196/77
f 199/197/78 194/198/78 198/194/78 201/193/78
f 193/199/79 199/197/79 201/193/79 197/200/79
f 197/200/80 201/193/80 200/196/80 195/201/80
o Plane.390_Plane.538
v 0.884304 9.772057 0.064920
v 0.584550 8.590244 -2.370627
v -0.952425 10.029532 0.166038
v -1.252179 8.847721 -2.269509
v 0.001455 10.192039 0.018992
v -0.298299 9.010227 -2.416554
v 0.756736 9.364099 -1.213462
v -1.079993 9.621574 -1.112344
v -0.126113 9.784081 -1.259390
vt 0.363069 0.500000
vt 0.363069 0.999915
vt 0.000085 0.999915
vt 0.000085 0.500000
vt 0.726052 0.500000
vt 0.726052 0.999915
vt 0.726052 0.000085
vt 0.363069 0.000085
vt 0.000085 0.000085
vn -0.2207 0.8256 -0.5193
vn 0.3813 0.7412 -0.5524
vn 0.4212 0.8510 -0.3136
vn -0.2029 0.9385 -0.2793
usemtl Material.410
s off
f 210/202/81 207/203/81 205/204/81 209/205/81
f 208/206/82 203/207/82 207/203/82 210/202/82
f 202/208/83 208/206/83 210/202/83 206/209/83
f 206/209/84 210/202/84 209/205/84 204/210/84
o Plane.391_Plane.539
v -0.310347 11.470238 -0.703662
v -1.965837 10.280546 0.242994
v 0.477488 11.419440 0.610245
v -1.178002 10.229749 1.556902
v -0.000624 11.677944 0.012788
v -1.656113 10.488253 0.959444
v -1.190979 11.021819 -0.192961
v -0.403144 10.971022 1.120946
v -0.881256 11.229526 0.523489
vt 0.363069 0.500000
vt 0.363069 0.999915
vt 0.000085 0.999915
vt 0.000085 0.500000
vt 0.726052 0.500000
vt 0.726052 0.999915
vt 0.726052 0.000085
vt 0.363069 0.000085
vt 0.000085 0.000085
vn -0.3545 0.7208 0.5956
vn -0.6674 0.7410 0.0737
vn -0.4756 0.8783 -0.0490
vn -0.1512 0.8574 0.4920
usemtl Material.411
s off
f 219/211/85 216/212/85 214/213/85 218/214/85
f 217/215/86 212/216/86 216/212/86 219/211/86
f 211/217/87 217/215/87 219/211/87 215/218/87
f 215/218/88 219/211/88 218/214/88 213/219/88
o Plane.392_Plane.540
v 0.527288 8.440980 -0.568133
v -1.193834 7.465816 -1.787875
v -0.423401 8.537372 0.696277
v -2.144523 7.562208 -0.523465
v 0.000753 8.741172 0.006372
v -1.720369 7.766009 -1.213370
v -0.365429 8.111691 -1.214249
v -1.316118 8.208083 0.050162
v -0.891964 8.411884 -0.639744
vt 0.363069 0.500000
vt 0.363069 0.999915
vt 0.000085 0.999915
vt 0.000085 0.500000
vt 0.726052 0.500000
vt 0.726052 0.999915
vt 0.726052 0.000085
vt 0.363069 0.000085
vt 0.000085 0.000085
vn -0.5649 0.8184 -0.1056
vn -0.1997 0.7813 -0.5913
vn 0.0050 0.8882 -0.4595
vn -0.3736 0.9265 0.0440
usemtl Material.412
s off
f 228/220/89 225/221/89 223/222/89 227/223/89
f 226/224/90 221/225/90 225/221/90 228/220/90
f 220/226/91 226/224/91 228/220/91 224/227/91
f 224/227/92 228/220/92 227/223/92 222/228/92
o Plane.393_Plane.541
v -0.395834 10.326808 0.373791
v 0.839852 9.570148 1.249074
v 0.347207 10.551990 -0.480538
v 1.582893 9.795329 0.394745
v -0.000589 10.617497 0.014205
v 1.235098 9.860837 0.889487
v 0.236912 10.060352 0.853882
v 0.979953 10.285534 -0.000447
v 0.632158 10.351042 0.494295
vt 0.363069 0.500000
vt 0.363069 0.999915
vt 0.000085 0.999915
vt 0.000085 0.500000
vt 0.726052 0.500000
vt 0.726052 0.999915
vt 0.726052 0.000085
vt 0.363069 0.000085
vt 0.000085 0.000085
vn 0.5081 0.8248 0.2480
vn 0.1162 0.7061 0.6985
vn -0.0858 0.8188 0.5676
vn 0.3204 0.9419 0.1005
usemtl Material.413
s off
f 237/229/93 234/230/93 232/231/93 236/232/93
f 235/233/94 230/234/94 234/230/94 237/229/94
f 229/235/95 235/233/95 237/229/95 233/236/95
f 233/236/96 237/229/96 236/232/96 231/237/96
o Plane.394_Plane.542
v -0.784237 8.823725 -0.264240
v -1.193037 7.654112 1.790544
v 0.820418 8.825617 0.056084
v 0.411618 7.656004 2.110868
v -0.001271 9.078717 -0.008588
v -0.410071 7.909105 2.046196
v -1.000799 8.398500 0.823135
v 0.603856 8.400393 1.143459
v -0.217833 8.653493 1.078787
vt 0.363069 0.500000
vt 0.363069 0.999915
vt 0.000085 0.999915
vt 0.000085 0.500000
vt 0.726052 0.500000
vt 0.726052 0.999915
vt 0.726052 0.000085
vt 0.363069 0.000085
vt 0.000085 0.000085
vn 0.1853 0.7607 0.6221
vn -0.4117 0.7600 0.5029
vn -0.3770 0.8856 0.2712
vn 0.2419 0.8863 0.3948
usemtl Material.414
s off
f 246/238/97 243/239/97 241/240/97 245/241/97
f 244/242/98 239/243/98 243/239/98 246/238/98
f 238/244/99 244/242/99 246/238/99 242/245/99
f 242/245/100 246/238/100 245/241/100 240/246/100
o Plane.395_Plane.543
v 0.083622 10.166107 -0.756702
v -2.183962 9.634754 -0.888831
v -0.040804 10.304224 0.823245
v -2.308388 9.772872 0.691116
v 0.000099 10.497683 0.008644
v -2.267485 9.966331 -0.123485
v -1.063556 10.065333 -0.838236
v -1.187982 10.203450 0.741710
v -1.147080 10.396909 -0.072890
vt 0.363069 0.500000
vt 0.363069 0.999915
vt 0.000085 0.999915
vt 0.000085 0.500000
vt 0.726052 0.500000
vt 0.726052 0.999915
vt 0.726052 0.000085
vt 0.363069 0.000085
vt 0.000085 0.000085
vn -0.3594 0.9118 0.1985
vn -0.3118 0.8590 -0.4062
vn -0.0518 0.9143 -0.4017
vn -0.1011 0.9691 0.2251
usemtl Material.415
s off
f 255/247/101 252/248/101 250/249/101 254/250/101
f 253/251/102 248/252/102 252/248/102 255/247/102
f 247/253/103 253/251/103 255/247/103 251/254/103
f 251/254/104 255/247/104 254/250/104 249/255/104
o Plane.396_Plane.544
v 0.002712 7.506152 -0.703298
v -1.834337 6.428200 -0.331507
v 0.186370 7.693608 0.747674
v -1.650679 6.615656 1.119465
v -0.000145 7.825394 0.005038
v -1.837195 6.747441 0.376829
v -0.975291 7.108834 -0.528175
v -0.791633 7.296290 0.922796
v -0.978148 7.428075 0.180161
vt 0.363069 0.500000
vt 0.363069 0.999915
vt 0.000085 0.999915
vt 0.000085 0.500000
vt 0.726052 0.500000
vt 0.726052 0.999915
vt 0.726052 0.000085
vt 0.363069 0.000085
vt 0.000085 0.000085
vn -0.5564 0.7828 0.2787
vn -0.6323 0.7054 -0.3205
vn -0.4058 0.8326 -0.3769
vn -0.3271 0.9129 0.2442
usemtl Material.416
s off
f 264/256/105 261/257/105 259/258/105 263/259/105
f 262/260/106 257/261/106 261/257/106 264/256/106
f 256/262/107 262/260/107 264/256/107 260/263/107
f 260/263/108 264/256/108 263/259/108 258/264/108
o Plane.397_Plane.545
v 0.003319 6.532335 -0.976725
v -2.495596 5.053076 -0.503347
v 0.254272 6.741920 1.002961
v -2.244643 5.262661 1.476339
v -0.000199 6.944404 -0.003060
v -2.499114 5.465145 0.470317
v -1.327167 5.985723 -0.750198
v -1.076214 6.195308 1.229487
v -1.330685 6.397792 0.223466
vt 0.363069 0.500000
vt 0.363069 0.999915
vt 0.000085 0.999915
vt 0.000085 0.500000
vt 0.726052 0.500000
vt 0.726052 0.999915
vt 0.726052 0.000085
vt 0.363069 0.000085
vt 0.000085 0.000085
vn -0.5566 0.7759 0.2970
vn -0.6327 0.7123 -0.3037
vn -0.4063 0.8409 -0.3574
vn -0.3274 0.9069 0.2653
usemtl Material.417
s off
f 273/265/109 270/266/109 268/267/109 272/268/109
f 271/269/110 266/270/110 270/266/110 273/265/110
f 265/271/111 271/269/111 273/265/111 269/272/111
f 269/272/112 273/265/112 272/268/112 267/273/112
o Plane.398_Plane.546
v -0.926603 6.340480 -0.597810
v -2.204397 5.070256 2.178188
v 1.072963 6.563666 0.424716
v -0.204831 5.293443 3.200715
v -0.001584 6.813627 -0.019262
v -1.279378 5.543404 2.756737
v -1.612464 5.932481 0.832455
v 0.387103 6.155667 1.854981
v -0.687444 6.405628 1.411004
vt 0.363069 0.500000
vt 0.363069 0.999915
vt 0.000085 0.999915
vt 0.000085 0.500000
vt 0.726052 0.500000
vt 0.726052 0.999915
vt 0.726052 0.000085
vt 0.363069 0.000085
vt 0.000085 0.000085
vn -0.0230 0.8463 0.5321
vn -0.5624 0.7861 0.2563
vn -0.4686 0.8830 0.0272
vn 0.0905 0.9454 0.3131
usemtl Material.418
s off
f 282/274/113 279/275/113 277/276/113 281/277/113
f 280/278/114 275/279/114 279/275/114 282/274/114
f 274/280/115 280/278/115 282/274/115 278/281/115
f 278/281/116 282/274/116 281/277/116 276/282/116
o Plane.399_Plane.547
v 0.726506 8.618155 0.013244
v 0.706414 8.071556 -2.039459
v -0.722114 8.613616 0.028632
v -0.742206 8.067017 -2.024071
v 0.001147 8.855124 -0.007240
v -0.018945 8.308525 -2.059944
v 0.715801 8.495135 -1.030808
v -0.732819 8.490596 -1.015420
v -0.009558 8.732104 -1.051292
vt 0.363069 0.500000
vt 0.363069 0.999915
vt 0.000085 0.999915
vt 0.000085 0.500000
vt 0.726052 0.500000
vt 0.726052 0.999915
vt 0.726052 0.000085
vt 0.363069 0.000085
vt 0.000085 0.000085
vn -0.3111 0.8773 -0.3655
vn 0.2977 0.8792 -0.3720
vn 0.3114 0.9434 -0.1143
vn -0.3197 0.9414 -0.1076
usemtl Material.419
s off
f 291/283/117 288/284/117 286/285/117 290/286/117
f 289/287/118 284/288/118 288/284/118 291/283/118
f 283/289/119 289/287/119 291/283/119 287/290/119
f 287/290/120 291/283/120 290/286/120 285/291/120
o Plane.401_Plane.549
v 0.891276 9.152022 -0.411831
v -0.382386 8.152438 -2.773401
v -0.832375 9.181709 0.505218
v -2.106038 8.182125 -1.856353
v 0.001365 9.484134 -0.016366
v -1.272297 8.484550 -2.377936
v 0.236803 8.851524 -1.632227
v -1.486849 8.881212 -0.715178
v -0.653108 9.183637 -1.236762
vt 0.363069 0.500000
vt 0.363069 0.999915
vt 0.000085 0.999915
vt 0.000085 0.500000
vt 0.726052 0.500000
vt 0.726052 0.999915
vt 0.726052 0.000085
vt 0.363069 0.000085
vt 0.000085 0.000085
vn -0.4696 0.8432 -0.2617
vn 0.0678 0.8339 -0.5477
vn 0.1965 0.9224 -0.3325
vn -0.3606 0.9320 -0.0361
usemtl Material.421
s off
f 300/292/121 297/293/121 295/294/121 299/295/121
f 298/296/122 293/297/122 297/293/122 300/292/122
f 292/298/123 298/296/123 300/292/123 296/299/123
f 296/299/124 300/292/124 299/295/124 294/300/124
o Plane.402_Plane.550
v 0.399207 7.874775 -0.594909
v -1.269867 6.672423 -1.238164
v -0.225354 8.035137 0.725913
v -1.894427 6.832786 0.082658
v 0.000495 8.173409 -0.001890
v -1.668579 6.971057 -0.645145
v -0.489623 7.410822 -0.958869
v -1.114183 7.571184 0.361953
v -0.888335 7.709455 -0.365851
vt 0.363069 0.500000
vt 0.363069 0.999915
vt 0.000085 0.999915
vt 0.000085 0.500000
vt 0.726052 0.500000
vt 0.726052 0.999915
vt 0.726052 0.000085
vt 0.363069 0.000085
vt 0.000085 0.000085
vn -0.6726 0.7368 -0.0688
vn -0.4139 0.6703 -0.6159
vn -0.2015 0.8137 -0.5452
vn -0.4697 0.8826 0.0219
usemtl Material.422
s off
f 309/301/125 306/302/125 304/303/125 308/304/125
f 307/305/126 302/306/126 306/302/126 309/301/126
f 301/307/127 307/305/127 309/301/127 305/308/127
f 305/308/128 309/301/128 308/304/128 303/309/128
o Plane.403_Plane.551
v -0.530912 9.067552 -0.665070
v -2.460691 8.496296 1.017663
v 0.605413 9.259684 0.703307
v -1.324366 8.688427 2.386040
v -0.000900 9.458484 0.009398
v -1.930680 8.887228 1.692131
v -1.519766 8.967147 0.170191
v -0.383441 9.159278 1.538568
v -0.989754 9.358079 0.844659
vt 0.363069 0.500000
vt 0.363069 0.999915
vt 0.000085 0.999915
vt 0.000085 0.500000
vt 0.726052 0.500000
vt 0.726052 0.999915
vt 0.726052 0.000085
vt 0.363069 0.000085
vt 0.000085 0.000085
vn -0.1247 0.9196 0.3725
vn -0.5114 0.8542 -0.0932
vn -0.3221 0.9067 -0.2724
vn 0.0787 0.9744 0.2104
usemtl Material.423
s off
f 318/310/129 315/311/129 313/312/129 317/313/129
f 316/314/130 311/315/130 315/311/130 318/310/130
f 310/316/131 316/314/131 318/310/131 314/317/131
f 314/317/132 318/310/132 317/313/132 312/318/132
o Plane.404_Plane.552
v -0.306757 5.352629 -1.162247
v -3.339920 3.817630 0.022105
v 0.541313 5.452716 1.139407
v -2.491849 3.917717 2.323759
v -0.000672 5.792579 0.015085
v -3.033834 4.257579 1.199437
v -1.897429 4.830052 -0.553421
v -1.049359 4.930140 1.748232
v -1.591344 5.270002 0.623910
vt 0.363069 0.500000
vt 0.363069 0.999915
vt 0.000085 0.999915
vt 0.000085 0.500000
vt 0.726052 0.500000
vt 0.726052 0.999915
vt 0.726052 0.000085
vt 0.363069 0.000085
vt 0.000085 0.000085
vn -0.3946 0.8094 0.4349
vn -0.6049 0.7846 -0.1359
vn -0.3832 0.8935 -0.2343
vn -0.1652 0.9192 0.3575
usemtl Material.424
s off
f 327/319/133 324/320/133 322/321/133 326/322/133
f 325/323/134 320/324/134 324/320/134 327/319/134
f 319/325/135 325/323/135 327/319/135 323/326/135
f 323/326/136 327/319/136 326/322/136 321/327/136
o Plane.406_Plane.554
v -0.849169 5.251831 -0.408396
v -1.851915 4.428599 2.066479
v 0.906957 5.325844 0.327754
v -0.095789 4.502613 2.802629
v -0.001391 5.601608 0.000477
v -1.004137 4.778377 2.475353
v -1.369566 5.036685 0.854669
v 0.386560 5.110698 1.590819
v -0.521787 5.386461 1.263543
vt 0.363069 0.500000
vt 0.363069 0.999915
vt 0.000085 0.999915
vt 0.000085 0.500000
vt 0.726052 0.500000
vt 0.726052 0.999915
vt 0.726052 0.000085
vt 0.363069 0.000085
vt 0.000085 0.000085
vn 0.0939 0.8744 0.4761
vn -0.4672 0.8507 0.2409
vn -0.3815 0.9244 0.0003
vn 0.2001 0.9489 0.2441
usemtl Material.426
s off
f 336/328/137 333/329/137 331/330/137 335/331/137
f 334/332/138 329/333/138 333/329/138 336/328/138
f 328/334/139 334/332/139 336/328/139 332/335/139
f 332/335/140 336/328/140 335/331/140 330/336/140
o Plane.408_Plane.556
v 0.888947 7.388119 -0.264676
v -0.084649 5.985922 -2.363050
v -0.782041 7.378844 0.516821
v -1.755637 5.976648 -1.581554
v 0.001323 7.665771 0.017960
v -0.972272 6.263575 -2.080415
v 0.369404 6.864343 -1.381775
v -1.301585 6.855069 -0.600279
v -0.518220 7.141995 -1.099140
vt 0.363069 0.500000
vt 0.363069 0.999915
vt 0.000085 0.999915
vt 0.000085 0.500000
vt 0.726052 0.500000
vt 0.726052 0.999915
vt 0.726052 0.000085
vt 0.363069 0.000085
vt 0.000085 0.000085
vn -0.5336 0.7378 -0.4135
vn 0.0179 0.7408 -0.6715
vn 0.1246 0.8748 -0.4681
vn -0.4471 0.8717 -0.2008
usemtl Material.428
s off
f 345/337/141 342/338/141 340/339/141 344/340/141
f 343/341/142 338/342/142 342/338/142 345/337/142
f 337/343/143 343/341/143 345/337/143 341/344/143
f 341/344/144 345/337/144 344/340/144 339/345/144
o Plane.409_Plane.557
v -0.721439 7.758117 -0.281045
v -1.285182 6.848288 1.858891
v 0.821412 7.958786 0.210721
v 0.257670 7.048958 2.350657
v -0.001222 8.119328 0.019044
v -0.564965 7.209500 2.158981
v -1.035478 7.467074 0.822974
v 0.507374 7.667744 1.314739
v -0.315260 7.828287 1.123063
vt 0.363069 0.500000
vt 0.363069 0.999915
vt 0.000085 0.999915
vt 0.000085 0.500000
vt 0.726052 0.500000
vt 0.726052 0.999915
vt 0.726052 0.000085
vt 0.363069 0.000085
vt 0.000085 0.000085
vn 0.0452 0.8528 0.5203
vn -0.5305 0.7779 0.3368
vn -0.4775 0.8736 0.0945
vn 0.1193 0.9512 0.2847
usemtl Material.429
s off
f 354/346/145 351/347/145 349/348/145 353/349/145
f 352/350/146 347/351/146 351/347/146 354/346/146
f 346/352/147 352/350/147 354/346/147 350/353/147
f 350/353/148 354/346/148 353/349/148 348/354/148
o Plane.411_Plane.559
v 0.223070 6.790263 -0.920543
v -2.053167 5.551059 -1.361804
v -0.011202 6.591615 0.845819
v -2.287439 5.352410 0.404559
v 0.000186 6.969141 -0.020101
v -2.276051 5.729937 -0.461361
v -0.981475 6.345416 -1.130330
v -1.215747 6.146768 0.636032
v -1.204360 6.524294 -0.229888
vt 0.363069 0.500000
vt 0.363069 0.999915
vt 0.000085 0.999915
vt 0.000085 0.500000
vt 0.726052 0.500000
vt 0.726052 0.999915
vt 0.726052 0.000085
vt 0.363069 0.000085
vt 0.000085 0.000085
vn -0.6084 0.7304 0.3104
vn -0.5289 0.7978 -0.2894
vn -0.2954 0.9205 -0.2560
vn -0.3778 0.8505 0.3658
usemtl Material.431
s off
f 363/355/149 360/356/149 358/357/149 362/358/149
f 361/359/150 356/360/150 360/356/150 363/355/150
f 355/361/151 361/359/151 363/355/151 359/362/151
f 359/362/152 363/355/152 362/358/152 357/363/152
o Plane.412_Plane.560
v 0.826482 5.274784 -1.069339
v -2.090789 3.577376 -3.003395
v -0.567722 5.106516 1.181315
v -3.484993 3.409109 -0.752741
v 0.001104 5.609956 0.007874
v -2.916167 3.912549 -1.926181
v -0.712731 4.689471 -2.066590
v -2.106935 4.521203 0.184064
v -1.538109 5.024643 -0.989376
vt 0.363069 0.500000
vt 0.363069 0.999915
vt 0.000085 0.999915
vt 0.000085 0.500000
vt 0.726052 0.500000
vt 0.726052 0.999915
vt 0.726052 0.000085
vt 0.363069 0.000085
vt 0.000085 0.000085
vn -0.6368 0.7707 0.0219
vn -0.3169 0.8093 -0.4946
vn -0.1101 0.9220 -0.3712
vn -0.4418 0.8820 0.1642
usemtl Material.432
s off
f 372/364/153 369/365/153 367/366/153 371/367/153
f 370/368/154 365/369/154 369/365/154 372/364/154
f 364/370/155 370/368/155 372/364/155 368/371/155
f 368/371/156 372/364/156 371/367/156 366/372/156
o Plane.413_Plane.561
v -0.509278 5.984712 -1.033957
v -2.998782 4.366820 0.605721
v 0.740251 6.034062 0.911884
v -1.749253 4.416171 2.551562
v -0.000990 6.370014 0.004613
v -2.490493 4.752122 1.644290
v -1.827195 5.402297 -0.172880
v -0.577666 5.451647 1.772961
v -1.318907 5.787599 0.865690
vt 0.363069 0.500000
vt 0.363069 0.999915
vt 0.000085 0.999915
vt 0.000085 0.500000
vt 0.726052 0.500000
vt 0.726052 0.999915
vt 0.726052 0.000085
vt 0.363069 0.000085
vt 0.000085 0.000085
vn -0.3196 0.7733 0.5475
vn -0.6485 0.7604 0.0353
vn -0.4578 0.8830 -0.1035
vn -0.1169 0.8965 0.4274
usemtl Material.433
s off
f 381/373/157 378/374/157 376/375/157 380/376/157
f 379/377/158 374/378/158 378/374/158 381/373/158
f 373/379/159 379/377/159 381/373/159 377/380/159
f 377/380/160 381/373/160 380/376/160 375/381/160
o Plane.414_Plane.562
v -0.840100 5.206638 -0.195562
v -1.340241 4.137240 1.904411
v 0.753831 4.866095 0.010638
v 0.253690 3.796698 2.110611
v -0.001262 5.289368 0.001702
v -0.501404 4.219970 2.101676
v -1.063868 4.830864 0.913575
v 0.530063 4.490321 1.119775
v -0.225031 4.913594 1.110839
vt 0.363069 0.500000
vt 0.363069 0.999915
vt 0.000085 0.999915
vt 0.000085 0.500000
vt 0.726052 0.500000
vt 0.726052 0.999915
vt 0.726052 0.000085
vt 0.363069 0.000085
vt 0.000085 0.000085
vn 0.3862 0.7016 0.5989
vn -0.2045 0.8278 0.5224
vn -0.1607 0.9442 0.2875
vn 0.4516 0.8134 0.3667
usemtl Material.434
s off
f 390/382/161 387/383/161 385/384/161 389/385/161
f 388/386/162 383/387/162 387/383/162 390/382/162
f 382/388/163 388/386/163 390/382/163 386/389/163
f 386/389/164 390/382/164 389/385/164 384/390/164
o Plane.415_Plane.563
v 0.757839 4.975485 -0.088947
v 0.179655 3.947675 -2.074626
v -0.766807 5.136379 0.271715
v -1.344991 4.108569 -1.713965
v 0.001208 5.303153 0.005156
v -0.576977 4.275342 -1.980523
v 0.472322 4.616874 -1.135951
v -1.052324 4.777768 -0.775290
v -0.284310 4.944541 -1.041848
vt 0.363069 0.500000
vt 0.363069 0.999915
vt 0.000085 0.999915
vt 0.000085 0.500000
vt 0.726052 0.500000
vt 0.726052 0.999915
vt 0.726052 0.000085
vt 0.363069 0.000085
vt 0.000085 0.000085
vn -0.3406 0.8125 -0.4731
vn 0.2488 0.7503 -0.6125
vn 0.3261 0.8635 -0.3847
vn -0.2849 0.9280 -0.2402
usemtl Material.435
s off
f 399/391/165 396/392/165 394/393/165 398/394/165
f 397/395/166 392/396/166 396/392/166 399/391/166
f 391/397/167 397/395/167 399/391/167 395/398/167
f 395/398/168 399/391/168 398/394/168 393/399/168
o Plane.416_Plane.564
v -0.138598 4.914544 -0.721700
v -2.294250 4.440458 -0.233915
v 0.179565 5.016256 0.783199
v -1.976088 4.542170 1.270984
v -0.000252 5.220564 0.017887
v -2.155905 4.746478 0.505673
v -1.229449 4.837784 -0.485887
v -0.911287 4.939497 1.019012
v -1.091104 5.143805 0.253701
vt 0.363069 0.500000
vt 0.363069 0.999915
vt 0.000085 0.999915
vt 0.000085 0.500000
vt 0.726052 0.500000
vt 0.726052 0.999915
vt 0.726052 0.000085
vt 0.363069 0.000085
vt 0.000085 0.000085
vn -0.2682 0.9132 0.3068
vn -0.3938 0.8730 -0.2876
vn -0.1419 0.9238 -0.3557
vn -0.0116 0.9654 0.2605
usemtl Material.436
s off
f 408/400/169 405/401/169 403/402/169 407/403/169
f 406/404/170 401/405/170 405/401/170 408/400/170
f 400/406/171 406/404/171 408/400/171 404/407/171
f 404/407/172 408/400/172 407/403/172 402/408/172
o Plane.418_Plane.566
v -0.943836 4.468216 -0.809635
v -2.383650 2.097562 1.486721
v 1.158564 4.419577 0.458358
v -0.281251 2.048923 2.754713
v -0.001665 4.786310 0.018272
v -1.441480 2.415656 2.314628
v -1.732231 3.497978 0.460350
v 0.370169 3.449340 1.728342
v -0.790060 3.816072 1.288257
vt 0.363069 0.500000
vt 0.363069 0.999915
vt 0.000085 0.999915
vt 0.000085 0.500000
vt 0.726052 0.500000
vt 0.726052 0.999915
vt 0.726052 0.000085
vt 0.363069 0.000085
vt 0.000085 0.000085
vn -0.1004 0.6181 0.7797
vn -0.6216 0.6302 0.4653
vn -0.5235 0.8020 0.2877
vn 0.0168 0.7895 0.6136
usemtl Material.438
s off
f 417/409/173 414/410/173 412/411/173 416/412/173
f 415/413/174 410/414/174 414/410/174 417/409/174
f 409/415/175 415/413/175 417/409/175 413/416/175
f 413/416/176 417/409/176 416/412/176 411/417/176
o Plane.419_Plane.567
v -0.022918 8.700531 -0.795550
v -2.196059 7.983474 -0.657943
v 0.110411 8.594703 0.758565
v -2.062730 7.877645 0.896172
v -0.000106 8.902985 0.002659
v -2.173247 8.185927 0.140266
v -1.137034 8.502414 -0.713460
v -1.003706 8.396585 0.840655
v -1.114222 8.704867 0.084749
vt 0.363069 0.500000
vt 0.363069 0.999915
vt 0.000085 0.999915
vt 0.000085 0.500000
vt 0.726052 0.500000
vt 0.726052 0.999915
vt 0.726052 0.000085
vt 0.363069 0.000085
vt 0.000085 0.000085
vn -0.3872 0.8326 0.3962
vn -0.4391 0.8738 -0.2091
vn -0.1870 0.9535 -0.2365
vn -0.1332 0.9108 0.3909
usemtl Material.439
s off
f 426/418/177 423/419/177 421/420/177 425/421/177
f 424/422/178 419/423/178 423/419/178 426/418/178
f 418/424/179 424/422/179 426/418/179 422/425/179
f 422/425/180 426/418/180 425/421/180 420/426/180
