# Blender v3.2.0 OBJ File: 'trees.blend'
# www.blender.org
mtllib Spruce Branch.mtl
o Plane.578_Plane.061
v 0.000000 0.000000 1.220959
v 3.538602 0.000000 1.220959
v 0.000000 0.000000 -1.217098
v 3.538602 0.000000 -1.217098
v 0.000000 0.331785 0.001931
v 3.538602 0.233195 0.001931
v 1.769301 0.000000 1.220959
v 1.769301 0.000000 -1.217098
v 1.769301 0.543932 0.001931
vt 0.363069 0.500000
vt 0.363069 0.999915
vt 0.000085 0.999915
vt 0.000085 0.500000
vt 0.726052 0.500000
vt 0.726052 0.999915
vt 0.726052 0.000085
vt 0.363069 0.000085
vt 0.000085 0.000085
vn 0.0834 0.9495 -0.3026
vn 0.0834 0.9495 0.3026
vn -0.0563 0.9396 0.3375
vn -0.0563 0.9396 -0.3375
usemtl Material.068
s off
f 9/1/1 6/2/1 4/3/1 8/4/1
f 7/5/2 2/6/2 6/2/2 9/1/2
f 1/7/3 7/5/3 9/1/3 5/8/3
f 5/8/4 9/1/4 8/4/4 3/9/4
