# Blender v3.2.0 OBJ File: 'trees.blend'
# www.blender.org
mtllib Spruce Small 3 Leaves.mtl
o Short_twigs_set.058_Plane.846
v -0.031365 2.105444 0.831154
v -0.031364 4.630830 0.831154
v -0.031364 2.105444 -0.025570
v -0.031364 4.630830 -0.025570
vt 0.869132 0.583327
vt 0.869132 0.998870
vt 0.728161 0.998870
vt 0.728161 0.583327
vn -1.0000 0.0000 -0.0000
usemtl thing.005
s off
f 1/1/1 2/2/1 4/3/1 3/4/1
o Short_twigs_set_2.059_Plane.847
v -0.708276 2.401576 0.276107
v -0.694980 4.332348 0.258314
v -0.099539 2.395155 0.034268
v -0.086243 4.325927 0.016475
vt 0.869132 0.583327
vt 0.869132 0.998870
vt 0.728161 0.998870
vt 0.728161 0.583327
vn -0.3693 -0.0060 -0.9293
usemtl thing.005
s off
f 5/5/2 6/6/2 8/7/2 7/8/2
o Short_twigs_set.059_Plane.848
v -0.413946 2.849504 0.614130
v -0.413946 4.995202 0.614130
v -0.036491 2.849504 -0.008277
v -0.036491 4.995201 -0.008277
vt 0.869132 0.583327
vt 0.869132 0.998870
vt 0.728161 0.998870
vt 0.728161 0.583327
vn -0.8551 0.0000 -0.5185
usemtl thing.005
s off
f 9/9/3 10/10/3 12/11/3 11/12/3
o Short_twigs_set_2.060_Plane.849
v -0.459567 2.323826 -0.709296
v -0.447415 4.693541 -0.720996
v -0.026123 2.324946 -0.032217
v -0.013971 4.694661 -0.043918
vt 0.869132 0.583327
vt 0.869132 0.998870
vt 0.728161 0.998870
vt 0.728161 0.583327
vn 0.8422 -0.0070 -0.5391
usemtl thing.005
s off
f 13/13/4 14/14/4 16/15/4 15/16/4
o Short_twigs_set.060_Plane.850
v 0.122887 4.676896 0.592075
v 0.122887 6.470966 0.592075
v -0.009937 4.676896 -0.001883
v -0.009937 6.470966 -0.001883
vt 0.869132 0.583327
vt 0.869132 0.998870
vt 0.728161 0.998870
vt 0.728161 0.583327
vn -0.9759 0.0000 0.2182
usemtl thing.005
s off
f 17/17/5 18/18/5 20/19/5 19/20/5
o Short_twigs_set.061_Plane.851
v 0.636625 3.237256 -0.088297
v 0.636625 5.260048 -0.088297
v -0.047206 3.237256 -0.031066
v -0.047206 5.260047 -0.031066
vt 0.869132 0.583327
vt 0.869132 0.998870
vt 0.728161 0.998870
vt 0.728161 0.583327
vn 0.0834 -0.0000 0.9965
usemtl thing.006
s off
f 21/21/6 22/22/6 24/23/6 23/24/6
o Short_twigs_set_2.061_Plane.852
v -0.414868 0.511741 -0.565500
v -0.405701 2.299491 -0.574327
v -0.087871 0.512586 -0.054701
v -0.078704 2.300336 -0.063528
vt 0.869132 0.583327
vt 0.869132 0.998870
vt 0.728161 0.998870
vt 0.728161 0.583327
vn 0.8422 -0.0070 -0.5391
usemtl thing.005
s off
f 25/25/7 26/26/7 28/27/7 27/28/7
o Short_twigs_set_2.062_Plane.853
v -0.594882 0.797795 0.238433
v -0.583448 2.458267 0.223131
v -0.071366 0.792273 0.030450
v -0.059932 2.452744 0.015148
vt 0.869132 0.583327
vt 0.869132 0.998870
vt 0.728161 0.998870
vt 0.728161 0.583327
vn -0.3693 -0.0060 -0.9293
usemtl thing.005
s off
f 29/29/8 30/30/8 32/31/8 31/32/8
o Short_twigs_set_2.063_Plane.854
v -0.109708 0.456192 0.670985
v -0.097740 2.194138 0.654969
v -0.041353 0.450325 0.085361
v -0.029385 2.188271 0.069345
vt 0.869132 0.583327
vt 0.869132 0.998870
vt 0.728161 0.998870
vt 0.728161 0.583327
vn -0.9932 0.0058 -0.1160
usemtl thing.005
s off
f 33/33/9 34/34/9 36/35/9 35/36/9
o Short_twigs_set.062_Plane.887
v 0.888214 0.533969 -0.087088
v 0.888214 3.251384 -0.087088
v -0.030443 0.533969 -0.010203
v -0.030443 3.251384 -0.010203
vt 0.869132 0.583327
vt 0.869132 0.998870
vt 0.728161 0.998870
vt 0.728161 0.583327
vn 0.0834 -0.0000 0.9965
usemtl thing.006
s off
f 37/37/10 38/38/10 40/39/10 39/40/10
o Short_twigs_set_2.064_Plane.888
v 0.452353 0.278097 0.330722
v 0.463147 1.845448 0.316278
v 0.010101 0.278422 0.035473
v 0.020895 1.845773 0.021029
vt 0.869132 0.583327
vt 0.869132 0.998870
vt 0.728161 0.998870
vt 0.728161 0.583327
vn -0.5552 0.0115 0.8316
usemtl thing.005
s off
f 41/41/11 42/42/11 44/43/11 43/44/11
o Short_twigs_set_2.065_Plane.889
v 0.449544 1.989790 0.333079
v 0.460337 3.557141 0.318636
v 0.007292 1.990114 0.037830
v 0.018085 3.557465 0.023386
vt 0.869132 0.583327
vt 0.869132 0.998870
vt 0.728161 0.998870
vt 0.728161 0.583327
vn -0.5552 0.0115 0.8316
usemtl thing.005
s off
f 45/45/12 46/46/12 48/47/12 47/48/12
o Plane.530_Plane.890
v -0.216802 7.371562 0.691414
v 1.396254 6.215645 1.128999
v 0.000501 7.162734 -0.661256
v 1.613557 6.006817 -0.223670
v -0.000172 7.470242 0.001071
v 1.612884 6.314325 0.438657
v 0.657554 6.921178 0.901408
v 0.874857 6.712351 -0.451262
v 0.874184 7.019859 0.211065
vt 0.363069 0.500000
vt 0.363069 0.999915
vt 0.000085 0.999915
vt 0.000085 0.500000
vt 0.726052 0.500000
vt 0.726052 0.999915
vt 0.726052 0.000085
vt 0.363069 0.000085
vt 0.000085 0.000085
vn 0.7057 0.6429 -0.2978
vn 0.6103 0.7346 0.2965
vn 0.3951 0.8838 0.2503
vn 0.4941 0.7887 -0.3657
usemtl Material.601
s off
f 57/49/13 54/50/13 52/51/13 56/52/13
f 55/53/14 50/54/14 54/50/14 57/49/14
f 49/55/15 55/53/15 57/49/15 53/56/15
f 53/56/16 57/49/16 56/52/16 51/57/16
o Plane.540_Plane.891
v -0.628593 7.194576 -0.364393
v -1.432895 6.104242 1.162582
v 0.644116 6.994622 0.163203
v -0.160186 5.904288 1.690178
v -0.001008 7.303109 -0.000418
v -0.805310 6.212775 1.526557
v -1.036253 6.780386 0.462022
v 0.236457 6.580432 0.989617
v -0.408667 6.888920 0.825997
vt 0.363069 0.500000
vt 0.363069 0.999915
vt 0.000085 0.999915
vt 0.000085 0.500000
vt 0.726052 0.500000
vt 0.726052 0.999915
vt 0.726052 0.000085
vt 0.363069 0.000085
vt 0.000085 0.000085
vn 0.1373 0.6727 0.7270
vn -0.4193 0.7602 0.4963
vn -0.3244 0.9000 0.2910
vn 0.2525 0.8094 0.5302
usemtl Material.602
s off
f 66/58/17 63/59/17 61/60/17 65/61/17
f 64/62/18 59/63/18 63/59/18 66/58/18
f 58/64/19 64/62/19 66/58/19 62/65/19
f 62/65/20 66/58/20 65/61/20 60/66/20
o Plane.546_Plane.892
v 0.659860 7.124886 -0.172266
v -0.039493 5.771485 -1.460668
v -0.566342 7.201927 0.412398
v -1.265695 5.848526 -0.876004
v 0.000971 7.349324 -0.000463
v -0.698383 5.995924 -1.288864
v 0.281421 6.564971 -0.892178
v -0.944781 6.642012 -0.307514
v -0.377468 6.789410 -0.720375
vt 0.363069 0.500000
vt 0.363069 0.999915
vt 0.000085 0.999915
vt 0.000085 0.500000
vt 0.726052 0.500000
vt 0.726052 0.999915
vt 0.726052 0.000085
vt 0.363069 0.000085
vt 0.000085 0.000085
vn -0.5606 0.6200 -0.5489
vn -0.0119 0.5855 -0.8106
vn 0.0924 0.7619 -0.6411
vn -0.4764 0.7976 -0.3699
usemtl Material.603
s off
f 75/67/21 72/68/21 70/69/21 74/70/21
f 73/71/22 68/72/22 72/68/22 75/67/22
f 67/73/23 73/71/23 75/67/23 71/74/23
f 71/74/24 75/67/24 74/70/24 69/75/24
o Plane.547_Plane.893
v -0.311294 6.953798 -0.605706
v -1.885715 6.226611 0.351739
v 0.395885 6.938113 0.545264
v -1.178537 6.210926 1.502709
v -0.000560 7.164514 -0.000912
v -1.574981 6.437326 0.956534
v -1.125425 6.727493 -0.108573
v -0.418246 6.711808 1.042398
v -0.814691 6.938209 0.496222
vt 0.363069 0.500000
vt 0.363069 0.999915
vt 0.000085 0.999915
vt 0.000085 0.500000
vt 0.726052 0.500000
vt 0.726052 0.999915
vt 0.726052 0.000085
vt 0.363069 0.000085
vt 0.000085 0.000085
vn -0.2341 0.8262 0.5124
vn -0.5528 0.8333 -0.0063
vn -0.3462 0.9269 -0.1450
vn -0.0158 0.9195 0.3927
usemtl Material.604
s off
f 84/76/25 81/77/25 79/78/25 83/79/25
f 82/80/26 77/81/26 81/77/26 84/76/26
f 76/82/27 82/80/27 84/76/27 80/83/27
f 80/83/28 84/76/28 83/79/28 78/84/28
o Plane.551_Plane.894
v 0.492342 7.441576 -0.271686
v -0.488174 6.405834 -1.235065
v -0.412718 7.624352 0.452970
v -1.393235 6.588610 -0.510409
v 0.000717 7.701022 -0.000574
v -0.979800 6.665280 -0.963953
v -0.022474 7.029273 -0.810673
v -0.927534 7.212048 -0.086018
v -0.514099 7.288718 -0.539562
vt 0.363069 0.500000
vt 0.363069 0.999915
vt 0.000085 0.999915
vt 0.000085 0.500000
vt 0.726052 0.500000
vt 0.726052 0.999915
vt 0.726052 0.000085
vt 0.363069 0.000085
vt 0.000085 0.000085
vn -0.5774 0.7081 -0.4066
vn -0.1079 0.6132 -0.7825
vn 0.0533 0.7679 -0.6383
vn -0.4334 0.8662 -0.2486
usemtl Material.605
s off
f 93/85/29 90/86/29 88/87/29 92/88/29
f 91/89/30 86/90/30 90/86/30 93/85/30
f 85/91/31 91/89/31 93/85/31 89/92/31
f 89/92/32 93/85/32 92/88/32 87/93/32
o Plane.553_Plane.895
v 0.230299 6.920264 0.547736
v 1.554344 6.093304 -0.012187
v -0.319129 6.691810 -0.414085
v 1.004915 5.864851 -0.974008
v 0.000435 6.976309 0.000762
v 1.324480 6.149350 -0.559161
v 0.920495 6.613742 0.226276
v 0.371066 6.385288 -0.735545
v 0.690631 6.669788 -0.320698
vt 0.363069 0.500000
vt 0.363069 0.999915
vt 0.000085 0.999915
vt 0.000085 0.500000
vt 0.726052 0.500000
vt 0.726052 0.999915
vt 0.726052 0.000085
vt 0.363069 0.000085
vt 0.000085 0.000085
vn 0.2920 0.6689 -0.6836
vn 0.5878 0.7918 -0.1659
vn 0.3796 0.9229 -0.0650
vn 0.0730 0.7954 -0.6017
usemtl Material.606
s off
f 102/94/33 99/95/33 97/96/33 101/97/33
f 100/98/34 95/99/34 99/95/34 102/94/34
f 94/100/35 100/98/35 102/94/35 98/101/35
f 98/101/36 102/94/36 101/97/36 96/102/36
o Plane.554_Plane.896
v -0.245999 7.394433 -0.463588
v -1.533092 7.086848 0.208371
v 0.243335 7.259941 0.412138
v -1.043757 6.952357 1.084096
v -0.000388 7.493614 -0.000694
v -1.287480 7.186029 0.671265
v -0.888952 7.345183 -0.111885
v -0.399618 7.210691 0.763841
v -0.643340 7.444364 0.351010
vt 0.363069 0.500000
vt 0.363069 0.999915
vt 0.000085 0.999915
vt 0.000085 0.500000
vt 0.726052 0.500000
vt 0.726052 0.999915
vt 0.726052 0.000085
vt 0.363069 0.000085
vt 0.000085 0.000085
vn -0.0783 0.8471 0.5257
vn -0.3727 0.9280 -0.0011
vn -0.1472 0.9803 -0.1319
vn 0.1579 0.8964 0.4142
usemtl Material.607
s off
f 111/103/37 108/104/37 106/105/37 110/106/37
f 109/107/38 104/108/38 108/104/38 111/103/38
f 103/109/39 109/107/39 111/103/39 107/110/39
f 107/110/40 111/103/40 110/106/40 105/111/40
o Plane.556_Plane.897
v -0.359479 6.998714 0.508129
v 0.826630 6.033611 1.332562
v 0.172078 6.769070 -0.525447
v 1.358186 5.803967 0.298986
v -0.000421 7.057148 0.000819
v 1.185688 6.092045 0.825252
v 0.292170 6.624995 0.926299
v 0.823726 6.395350 -0.107277
v 0.651228 6.683428 0.418989
vt 0.363069 0.500000
vt 0.363069 0.999915
vt 0.000085 0.999915
vt 0.000085 0.500000
vt 0.726052 0.500000
vt 0.726052 0.999915
vt 0.726052 0.000085
vt 0.363069 0.000085
vt 0.000085 0.000085
vn 0.7697 0.6315 -0.0934
vn 0.4966 0.7495 0.4378
vn 0.3077 0.8957 0.3210
vn 0.5909 0.7734 -0.2297
usemtl Material.608
s off
f 120/112/41 117/113/41 115/114/41 119/115/41
f 118/116/42 113/117/42 117/113/42 120/112/42
f 112/118/43 118/116/43 120/112/43 116/119/43
f 116/119/44 120/112/44 119/115/44 114/120/44
o Plane.561_Plane.898
v -0.212071 5.947269 0.704492
v 1.840316 5.201349 1.105489
v 0.123016 6.078616 -0.766231
v 2.175403 5.332696 -0.365234
v -0.000265 6.258714 0.001165
v 2.052122 5.512794 0.402161
v 0.841926 5.728692 0.925113
v 1.177013 5.860039 -0.545610
v 1.053732 6.040137 0.221785
vt 0.363069 0.500000
vt 0.363069 0.999915
vt 0.000085 0.999915
vt 0.000085 0.500000
vt 0.726052 0.500000
vt 0.726052 0.999915
vt 0.726052 0.000085
vt 0.363069 0.000085
vt 0.000085 0.000085
vn 0.4811 0.8675 -0.1263
vn 0.3463 0.8147 0.4651
vn 0.0970 0.8989 0.4273
vn 0.2367 0.9537 -0.1858
usemtl Material.609
s off
f 129/121/45 126/122/45 124/123/45 128/124/45
f 127/125/46 122/126/46 126/122/46 129/121/46
f 121/127/47 127/125/47 129/121/47 125/128/47
f 125/128/48 129/121/48 128/124/48 123/129/48
o Plane.562_Plane.899
v -0.576038 7.084848 -0.568995
v -1.702261 5.696391 0.905212
v 0.706356 7.022867 0.352315
v -0.419868 5.634410 1.826523
v -0.001016 7.284266 -0.000730
v -1.127239 5.895808 1.473478
v -1.180718 6.535352 0.235705
v 0.101676 6.473372 1.157016
v -0.605695 6.734770 0.803971
vt 0.363069 0.500000
vt 0.363069 0.999915
vt 0.000085 0.999915
vt 0.000085 0.500000
vt 0.726052 0.500000
vt 0.726052 0.999915
vt 0.726052 0.000085
vt 0.363069 0.000085
vt 0.000085 0.000085
vn -0.1224 0.6644 0.7372
vn -0.6165 0.6883 0.3823
vn -0.4951 0.8444 0.2046
vn 0.0171 0.8197 0.5726
usemtl Material.610
s off
f 138/130/49 135/131/49 133/132/49 137/133/49
f 136/134/50 131/135/50 135/131/50 138/130/50
f 130/136/51 136/134/51 138/130/51 134/137/51
f 134/137/52 138/130/52 137/133/52 132/138/52
o Plane.563_Plane.900
v 0.091914 6.477633 0.430524
v 1.478881 6.400472 0.163696
v -0.075812 6.675611 -0.498562
v 1.311156 6.598449 -0.765390
v 0.000133 6.733014 0.000736
v 1.387100 6.655852 -0.266092
v 0.780424 6.537292 0.318941
v 0.612698 6.735269 -0.610144
v 0.688642 6.792672 -0.110847
vt 0.363069 0.500000
vt 0.363069 0.999915
vt 0.000085 0.999915
vt 0.000085 0.500000
vt 0.726052 0.500000
vt 0.726052 0.999915
vt 0.726052 0.000085
vt 0.363069 0.000085
vt 0.000085 0.000085
vn 0.1610 0.9774 -0.1369
vn 0.2669 0.8525 0.4495
vn 0.0080 0.8604 0.5095
vn -0.1017 0.9899 -0.0983
usemtl Material.611
s off
f 147/139/53 144/140/53 142/141/53 146/142/53
f 145/143/54 140/144/54 144/140/54 147/139/54
f 139/145/55 145/143/55 147/139/55 143/146/55
f 143/146/56 147/139/56 146/142/56 141/147/56
o Plane.567_Plane.901
v 0.437325 6.088499 -0.115869
v -0.203479 5.285243 -1.112515
v -0.432538 6.297975 0.274589
v -1.073342 5.494720 -0.722057
v 0.000689 6.334659 -0.000309
v -0.640115 5.531404 -0.996955
v 0.115853 5.775706 -0.664237
v -0.754011 5.985183 -0.273779
v -0.320784 6.021867 -0.548677
vt 0.363069 0.500000
vt 0.363069 0.999915
vt 0.000085 0.999915
vt 0.000085 0.500000
vt 0.726052 0.500000
vt 0.726052 0.999915
vt 0.726052 0.000085
vt 0.363069 0.000085
vt 0.000085 0.000085
vn -0.4004 0.7465 -0.5315
vn 0.1421 0.6158 -0.7750
vn 0.2712 0.7590 -0.5919
vn -0.2912 0.8944 -0.3395
usemtl Material.612
s off
f 156/148/57 153/149/57 151/150/57 155/151/57
f 154/152/58 149/153/58 153/149/58 156/148/58
f 148/154/59 154/152/59 156/148/59 152/155/59
f 152/155/60 156/148/60 155/151/60 150/156/60
o Plane.569_Plane.902
v -0.321946 6.088983 -0.402132
v -1.535101 6.064868 0.488150
v 0.285319 6.084714 0.425251
v -0.927835 6.060600 1.315533
v -0.000481 6.256135 -0.000655
v -1.213635 6.232020 0.889627
v -0.917322 6.183264 0.035336
v -0.310056 6.178996 0.862719
v -0.595857 6.350416 0.436813
vt 0.363069 0.500000
vt 0.363069 0.999915
vt 0.000085 0.999915
vt 0.000085 0.500000
vt 0.726052 0.500000
vt 0.726052 0.999915
vt 0.726052 0.000085
vt 0.363069 0.000085
vt 0.000085 0.000085
vn 0.0651 0.9401 0.3347
vn -0.2951 0.9426 -0.1562
vn -0.0876 0.9426 -0.3223
vn 0.2859 0.9399 0.1865
usemtl Material.613
s off
f 165/157/61 162/158/61 160/159/61 164/160/61
f 163/161/62 158/162/62 162/158/62 165/157/62
f 157/163/63 163/161/63 165/157/63 161/164/63
f 161/164/64 165/157/64 164/160/64 159/165/64
o Plane.570_Plane.903
v 0.537008 6.757236 0.380178
v 1.549416 6.194335 -1.067427
v -0.520774 6.568709 -0.286292
v 0.491634 6.005809 -1.733897
v 0.000838 6.867898 0.000528
v 1.013246 6.304997 -1.447077
v 1.038640 6.604511 -0.372780
v -0.019143 6.415985 -1.039251
v 0.502469 6.715173 -0.752430
vt 0.363069 0.500000
vt 0.363069 0.999915
vt 0.000085 0.999915
vt 0.000085 0.500000
vt 0.726052 0.500000
vt 0.726052 0.999915
vt 0.726052 0.000085
vt 0.363069 0.000085
vt 0.000085 0.000085
vn -0.1423 0.8030 -0.5788
vn 0.3670 0.8938 -0.2579
vn 0.2312 0.9720 -0.0431
vn -0.2969 0.8779 -0.3758
usemtl Material.614
s off
f 174/166/65 171/167/65 169/168/65 173/169/65
f 172/170/66 167/171/66 171/167/66 174/166/66
f 166/172/67 172/170/67 174/166/67 170/173/67
f 170/173/68 174/166/68 173/169/68 168/174/68
o Plane.572_Plane.904
v -0.541057 6.121631 -0.193847
v -1.157784 6.102380 1.317513
v 0.484082 6.000082 0.222924
v -0.132645 5.980832 1.734284
v -0.000812 6.243289 -0.000330
v -0.617539 6.224039 1.511030
v -0.832036 6.226602 0.552493
v 0.193103 6.105053 0.969264
v -0.291791 6.348260 0.746010
vt 0.363069 0.500000
vt 0.363069 0.999915
vt 0.000085 0.999915
vt 0.000085 0.500000
vt 0.726052 0.500000
vt 0.726052 0.999915
vt 0.726052 0.000085
vt 0.363069 0.000085
vt 0.000085 0.000085
vn 0.3223 0.9031 0.2839
vn -0.2384 0.9696 0.0559
vn -0.1487 0.9696 -0.1944
vn 0.4325 0.9007 0.0419
usemtl Material.615
s off
f 183/175/69 180/176/69 178/177/69 182/178/69
f 181/179/70 176/180/70 180/176/70 183/175/70
f 175/181/71 181/179/71 183/175/71 179/182/71
f 179/182/72 183/175/72 182/178/72 177/183/72
o Plane.577_Plane.905
v 0.244471 6.616702 0.621123
v 1.684025 5.515933 -0.490153
v -0.460391 6.933237 -0.605501
v 0.979164 5.832467 -1.716777
v 0.000558 6.990113 0.000972
v 1.440113 5.889343 -1.110305
v 1.032415 6.201462 0.061189
v 0.327553 6.517996 -1.165435
v 0.788502 6.574872 -0.558963
vt 0.363069 0.500000
vt 0.363069 0.999915
vt 0.000085 0.999915
vt 0.000085 0.500000
vt 0.726052 0.500000
vt 0.726052 0.999915
vt 0.726052 0.000085
vt 0.363069 0.000085
vt 0.000085 0.000085
vn 0.4614 0.7794 -0.4238
vn 0.7574 0.6465 0.0914
vn 0.5806 0.7780 0.2401
vn 0.2737 0.9158 -0.2939
usemtl Material.616
s off
f 192/184/73 189/185/73 187/186/73 191/187/73
f 190/188/74 185/189/74 189/185/74 192/184/74
f 184/190/75 190/188/75 192/184/75 188/191/75
f 188/191/76 192/184/76 191/187/76 186/192/76
o Plane.586_Plane.914
v -0.241080 5.606158 0.658241
v 1.775141 4.868294 1.107956
v 0.165017 5.851101 -0.760537
v 2.181238 5.113236 -0.310821
v -0.000322 5.968883 0.001124
v 2.015899 5.231019 0.450839
v 0.790718 5.388143 0.915934
v 1.196815 5.633086 -0.502844
v 1.031476 5.750867 0.258816
vt 0.363069 0.500000
vt 0.363069 0.999915
vt 0.000085 0.999915
vt 0.000085 0.500000
vt 0.726052 0.500000
vt 0.726052 0.999915
vt 0.726052 0.000085
vt 0.363069 0.000085
vt 0.000085 0.000085
vn 0.4718 0.8810 -0.0338
vn 0.3066 0.7813 0.5436
vn 0.0582 0.8648 0.4987
vn 0.2295 0.9682 -0.0999
usemtl Material.625
s off
f 201/193/77 198/194/77 196/195/77 200/196/77
f 199/197/78 194/198/78 198/194/78 201/193/78
f 193/199/79 199/197/79 201/193/79 197/200/79
f 197/200/80 201/193/80 200/196/80 195/201/80
o Plane.587_Plane.915
v -0.317004 6.044693 -0.983710
v -2.353617 4.131512 0.236271
v 0.647884 6.188476 0.852538
v -1.388729 4.275295 2.072519
v -0.000764 6.412907 -0.001454
v -2.037378 4.499726 1.218527
v -1.439713 5.274240 -0.333434
v -0.474825 5.418023 1.502813
v -1.123474 5.642454 0.648821
vt 0.363069 0.500000
vt 0.363069 0.999915
vt 0.000085 0.999915
vt 0.000085 0.500000
vt 0.726052 0.500000
vt 0.726052 0.999915
vt 0.726052 0.000085
vt 0.363069 0.000085
vt 0.000085 0.000085
vn -0.4948 0.6710 0.5522
vn -0.7773 0.6289 0.0145
vn -0.6026 0.7914 -0.1027
vn -0.3097 0.8351 0.4547
usemtl Material.626
s off
f 210/202/81 207/203/81 205/204/81 209/205/81
f 208/206/82 203/207/82 207/203/82 210/202/82
f 202/208/83 208/206/83 210/202/83 206/209/83
f 206/209/84 210/202/84 209/205/84 204/210/84
o Plane.588_Plane.916
v 0.224893 6.516237 1.094463
v 2.704906 4.703450 0.573719
v -0.494587 6.093262 -0.859576
v 1.985426 4.280475 -1.380320
v 0.000570 6.609815 0.001548
v 2.480582 4.797028 -0.519196
v 1.549962 5.801473 0.761290
v 0.830483 5.378497 -1.192749
v 1.325639 5.895050 -0.331625
vt 0.363069 0.500000
vt 0.363069 0.999915
vt 0.000085 0.999915
vt 0.000085 0.500000
vt 0.726052 0.500000
vt 0.726052 0.999915
vt 0.726052 0.000085
vt 0.363069 0.000085
vt 0.000085 0.000085
vn 0.4742 0.6076 -0.6371
vn 0.6803 0.7288 -0.0772
vn 0.4705 0.8821 -0.0210
vn 0.2568 0.7565 -0.6015
usemtl Material.627
s off
f 219/211/85 216/212/85 214/213/85 218/214/85
f 217/215/86 212/216/86 216/212/86 219/211/86
f 211/217/87 217/215/87 219/211/87 215/218/87
f 215/218/88 219/211/88 218/214/88 213/219/88
o Plane.589_Plane.917
v 0.530793 6.219815 -0.180965
v -0.155700 5.621194 -1.624893
v -0.533864 6.345481 0.273111
v -1.220357 5.746861 -1.170817
v 0.000843 6.470576 -0.000360
v -0.685650 5.871955 -1.444288
v 0.189040 6.038553 -0.932096
v -0.875616 6.164219 -0.478020
v -0.340910 6.289314 -0.751491
vt 0.363069 0.500000
vt 0.363069 0.999915
vt 0.000085 0.999915
vt 0.000085 0.500000
vt 0.726052 0.500000
vt 0.726052 0.999915
vt 0.726052 0.000085
vt 0.363069 0.000085
vt 0.000085 0.000085
vn -0.3737 0.8649 -0.3351
vn 0.1830 0.7992 -0.5725
vn 0.3002 0.8871 -0.3507
vn -0.2769 0.9552 -0.1045
usemtl Material.628
s off
f 228/220/89 225/221/89 223/222/89 227/223/89
f 226/224/90 221/225/90 225/221/90 228/220/90
f 220/226/91 226/224/91 228/220/91 224/227/91
f 224/227/92 228/220/92 227/223/92 222/228/92
o Plane.590_Plane.918
v 0.131859 6.391011 -0.981138
v -2.190582 4.544730 -0.655998
v 0.212962 6.644365 1.036826
v -2.109479 4.798085 1.361966
v -0.000064 6.807407 -0.001598
v -2.322505 4.961127 0.323542
v -1.137703 5.649860 -0.837062
v -1.056600 5.903215 1.180902
v -1.269626 6.066257 0.142477
vt 0.363069 0.500000
vt 0.363069 0.999915
vt 0.000085 0.999915
vt 0.000085 0.500000
vt 0.726052 0.500000
vt 0.726052 0.999915
vt 0.726052 0.000085
vt 0.363069 0.000085
vt 0.000085 0.000085
vn -0.6808 0.6892 0.2479
vn -0.7051 0.6135 -0.3557
vn -0.4961 0.7730 -0.3954
vn -0.4710 0.8515 0.2303
usemtl Material.629
s off
f 237/229/93 234/230/93 232/231/93 236/232/93
f 235/233/94 230/234/94 234/230/94 237/229/94
f 229/235/95 235/233/95 237/229/95 233/236/95
f 233/236/96 237/229/96 236/232/96 231/237/96
o Plane.591_Plane.919
v 0.466910 6.571995 0.381410
v 1.391438 5.899040 -0.946359
v -0.517320 6.556702 -0.296160
v 0.407208 5.883747 -1.623928
v 0.000780 6.756802 0.000537
v 0.925307 6.083847 -1.327232
v 0.945496 6.356409 -0.308913
v -0.038733 6.341116 -0.986482
v 0.479366 6.541216 -0.689786
vt 0.363069 0.500000
vt 0.363069 0.999915
vt 0.000085 0.999915
vt 0.000085 0.500000
vt 0.726052 0.500000
vt 0.726052 0.999915
vt 0.726052 0.000085
vt 0.363069 0.000085
vt 0.000085 0.000085
vn 0.0144 0.8172 -0.5762
vn 0.5158 0.8249 -0.2310
vn 0.3840 0.9231 -0.0221
vn -0.1358 0.9150 -0.3799
usemtl Material.630
s off
f 246/238/97 243/239/97 241/240/97 245/241/97
f 244/242/98 239/243/98 243/239/98 246/238/98
f 238/244/99 244/242/99 246/238/99 242/245/99
f 242/245/100 246/238/100 245/241/100 240/246/100
o Plane.592_Plane.920
v -0.597943 5.711272 -0.003851
v -0.564695 5.239825 1.647681
v 0.570529 5.639650 -0.047820
v 0.603777 5.168203 1.603712
v -0.000925 5.868110 0.000035
v 0.032323 5.396663 1.651567
v -0.573290 5.596562 0.838165
v 0.595182 5.524941 0.794197
v 0.023728 5.753401 0.842052
vt 0.363069 0.500000
vt 0.363069 0.999915
vt 0.000085 0.999915
vt 0.000085 0.500000
vt 0.726052 0.500000
vt 0.726052 0.999915
vt 0.726052 0.000085
vt 0.363069 0.000085
vt 0.000085 0.000085
vn 0.3713 0.8511 0.3711
vn -0.2359 0.8883 0.3940
vn -0.2525 0.9577 0.1379
vn 0.3770 0.9191 0.1142
usemtl Material.631
s off
f 255/247/101 252/248/101 250/249/101 254/250/101
f 253/251/102 248/252/102 252/248/102 255/247/102
f 247/253/103 253/251/103 255/247/103 251/254/103
f 251/254/104 255/247/104 254/250/104 249/255/104
o Plane.593_Plane.921
v -0.397546 5.876685 0.697355
v 1.363842 4.271956 1.075271
v 0.126136 6.087549 -0.848033
v 1.887523 4.482819 -0.470116
v -0.000415 6.207241 0.001224
v 1.760973 4.602511 0.379140
v 0.568132 5.215734 0.934407
v 1.091813 5.426598 -0.610981
v 0.965263 5.546290 0.238276
vt 0.363069 0.500000
vt 0.363069 0.999915
vt 0.000085 0.999915
vt 0.000085 0.500000
vt 0.726052 0.500000
vt 0.726052 0.999915
vt 0.726052 0.000085
vt 0.363069 0.000085
vt 0.000085 0.000085
vn 0.7627 0.6464 0.0225
vn 0.5689 0.5684 0.5944
vn 0.3688 0.7404 0.5620
vn 0.5697 0.8213 -0.0309
usemtl Material.632
s off
f 264/256/105 261/257/105 259/258/105 263/259/105
f 262/260/106 257/261/106 261/257/106 264/256/106
f 256/262/107 262/260/107 264/256/107 260/263/107
f 260/263/108 264/256/108 263/259/108 258/264/108
o Plane.594_Plane.922
v 0.284425 5.620261 1.022880
v 2.309955 3.558081 0.016885
v -0.634434 5.631951 -0.851169
v 1.391096 3.569772 -1.857164
v 0.000728 5.913258 0.001484
v 2.026257 3.851078 -1.004511
v 1.407577 4.769547 0.466884
v 0.488719 4.781238 -1.407165
v 1.123880 5.062545 -0.554512
vt 0.363069 0.500000
vt 0.363069 0.999915
vt 0.000085 0.999915
vt 0.000085 0.500000
vt 0.726052 0.500000
vt 0.726052 0.999915
vt 0.726052 0.000085
vt 0.363069 0.000085
vt 0.000085 0.000085
vn 0.5249 0.6111 -0.5926
vn 0.7929 0.6076 -0.0459
vn 0.6194 0.7833 0.0527
vn 0.3415 0.7869 -0.5140
usemtl Material.633
s off
f 273/265/109 270/266/109 268/267/109 272/268/109
f 271/269/110 266/270/110 270/266/110 273/265/110
f 265/271/111 271/269/111 273/265/111 269/272/111
f 269/272/112 273/265/112 272/268/112 267/273/112
o Plane.595_Plane.923
v -0.930511 5.578636 -0.633545
v -1.973604 3.444085 1.531782
v 1.071438 5.503160 0.256442
v 0.028345 3.368609 2.421768
v -0.001586 5.844865 -0.000705
v -1.044678 3.710314 2.164621
v -1.497315 4.702300 0.567116
v 0.504633 4.626824 1.457102
v -0.568390 4.968529 1.199955
vt 0.363069 0.500000
vt 0.363069 0.999915
vt 0.000085 0.999915
vt 0.000085 0.500000
vt 0.726052 0.500000
vt 0.726052 0.999915
vt 0.726052 0.000085
vt 0.363069 0.000085
vt 0.000085 0.000085
vn 0.0032 0.6077 0.7942
vn -0.5528 0.6286 0.5470
vn -0.4757 0.8021 0.3609
vn 0.1006 0.7804 0.6171
usemtl Material.634
s off
f 282/274/113 279/275/113 277/276/113 281/277/113
f 280/278/114 275/279/114 279/275/114 282/274/114
f 274/280/115 280/278/115 282/274/115 278/281/115
f 278/281/116 282/274/116 281/277/116 276/282/116
o Plane.596_Plane.924
v 0.568449 5.031386 0.467156
v 1.849112 4.461993 -1.392444
v -0.676045 5.316453 -0.477183
v 0.604617 4.747060 -2.336782
v 0.000986 5.432169 0.000748
v 1.281648 4.862777 -1.858852
v 1.243193 4.908911 -0.459025
v -0.001302 5.193978 -1.403364
v 0.675730 5.309695 -0.925433
vt 0.363069 0.500000
vt 0.363069 0.999915
vt 0.000085 0.999915
vt 0.000085 0.500000
vt 0.726052 0.500000
vt 0.726052 0.999915
vt 0.726052 0.000085
vt 0.363069 0.000085
vt 0.000085 0.000085
vn 0.1056 0.9219 -0.3728
vn 0.5828 0.8126 -0.0108
vn 0.4442 0.8714 0.2084
vn -0.0504 0.9847 -0.1670
usemtl Material.635
s off
f 291/283/117 288/284/117 286/285/117 290/286/117
f 289/287/118 284/288/118 288/284/118 291/283/118
f 283/289/119 289/287/119 291/283/119 287/290/119
f 287/290/120 291/283/120 290/286/120 285/291/120
o Plane.597_Plane.925
v 0.339836 5.236952 -1.025705
v -2.006668 3.390060 -1.621468
v 0.006460 5.003645 1.010609
v -2.340044 3.156753 0.414846
v 0.000264 5.419140 -0.001613
v -2.346240 3.572248 -0.597376
v -0.942014 4.501226 -1.319858
v -1.275390 4.267919 0.716456
v -1.281586 4.683414 -0.295766
vt 0.363069 0.500000
vt 0.363069 0.999915
vt 0.000085 0.999915
vt 0.000085 0.500000
vt 0.726052 0.500000
vt 0.726052 0.999915
vt 0.726052 0.000085
vt 0.363069 0.000085
vt 0.000085 0.000085
vn -0.7313 0.6294 0.2628
vn -0.6336 0.6978 -0.3342
vn -0.4244 0.8567 -0.2931
vn -0.5258 0.7858 0.3258
usemtl Material.636
s off
f 300/292/121 297/293/121 295/294/121 299/295/121
f 298/296/122 293/297/122 297/293/122 300/292/122
f 292/298/123 298/296/123 300/292/123 296/299/123
f 296/299/124 300/292/124 299/295/124 294/300/124
o Plane.598_Plane.926
v 0.329958 4.751554 -0.676220
v -1.409870 3.227301 -0.840319
v -0.067195 5.043097 0.826473
v -1.807023 3.518845 0.662374
v 0.000315 5.112138 -0.001190
v -1.739513 3.587885 -0.165289
v -0.622287 4.124363 -0.806208
v -1.019440 4.415907 0.696484
v -0.951930 4.484948 -0.131179
vt 0.363069 0.500000
vt 0.363069 0.999915
vt 0.000085 0.999915
vt 0.000085 0.500000
vt 0.726052 0.500000
vt 0.726052 0.999915
vt 0.726052 0.000085
vt 0.363069 0.000085
vt 0.000085 0.000085
vn -0.7513 0.6599 -0.0062
vn -0.5984 0.5476 -0.5848
vn -0.3937 0.7170 -0.5753
vn -0.5522 0.8333 0.0245
usemtl Material.637
s off
f 309/301/125 306/302/125 304/303/125 308/304/125
f 307/305/126 302/306/126 306/302/126 309/301/126
f 301/307/127 307/305/127 309/301/127 305/308/127
f 305/308/128 309/301/128 308/304/128 303/309/128
o Plane.599_Plane.927
v 0.569338 4.556108 0.345953
v 1.656892 4.408444 -1.382386
v -0.597132 4.725288 -0.402499
v 0.490423 4.577624 -2.130839
v 0.000924 4.870587 0.000593
v 1.088478 4.722924 -1.727747
v 1.122424 4.626683 -0.500084
v -0.044045 4.795863 -1.248537
v 0.554011 4.941163 -0.845445
vt 0.363069 0.500000
vt 0.363069 0.999915
vt 0.000085 0.999915
vt 0.000085 0.500000
vt 0.726052 0.500000
vt 0.726052 0.999915
vt 0.726052 0.000085
vt 0.363069 0.000085
vt 0.000085 0.000085
vn -0.0521 0.9616 -0.2694
vn 0.4566 0.8878 0.0570
vn 0.3242 0.9014 0.2871
vn -0.2031 0.9778 -0.0512
usemtl Material.638
s off
f 318/310/129 315/311/129 313/312/129 317/313/129
f 316/314/130 311/315/130 315/311/130 318/310/130
f 310/316/131 316/314/131 318/310/131 314/317/131
f 314/317/132 318/310/132 317/313/132 312/318/132
o Plane.600_Plane.928
v -0.416232 5.715971 -0.896941
v -2.299602 3.973993 0.262523
v 0.661558 5.605700 0.688090
v -1.221812 3.863722 1.847554
v -0.000854 5.936553 -0.001255
v -1.884223 4.194575 1.158209
v -1.435505 5.018176 -0.252402
v -0.357715 4.907906 1.332630
v -1.020126 5.238759 0.643284
vt 0.363069 0.500000
vt 0.363069 0.999915
vt 0.000085 0.999915
vt 0.000085 0.500000
vt 0.726052 0.500000
vt 0.726052 0.999915
vt 0.726052 0.000085
vt 0.363069 0.000085
vt 0.000085 0.000085
vn -0.3760 0.6411 0.6690
vn -0.7178 0.6761 0.1664
vn -0.5443 0.8376 0.0461
vn -0.1900 0.8014 0.5672
usemtl Material.639
s off
f 327/319/133 324/320/133 322/321/133 326/322/133
f 325/323/134 320/324/134 324/320/134 327/319/134
f 319/325/135 325/323/135 327/319/135 323/326/135
f 323/326/136 327/319/136 326/322/136 321/327/136
o Plane.601_Plane.929
v -0.639683 5.428903 0.131759
v -0.329038 5.351066 1.973275
v 0.612789 5.330251 -0.083690
v 0.923434 5.252414 1.757826
v -0.000992 5.589819 0.000171
v 0.309653 5.511982 1.841686
v -0.476537 5.522050 1.037526
v 0.775935 5.423398 0.822078
v 0.162154 5.682966 0.905938
vt 0.363069 0.500000
vt 0.363069 0.999915
vt 0.000085 0.999915
vt 0.000085 0.500000
vt 0.726052 0.500000
vt 0.726052 0.999915
vt 0.726052 0.000085
vt 0.363069 0.000085
vt 0.000085 0.000085
vn 0.3994 0.9109 0.1035
vn -0.1989 0.9580 0.2064
vn -0.2543 0.9656 -0.0535
vn 0.3658 0.9168 -0.1602
usemtl Material.640
s off
f 336/328/137 333/329/137 331/330/137 335/331/137
f 334/332/138 329/333/138 333/329/138 336/328/138
f 328/334/139 334/332/139 336/328/139 332/335/139
f 332/335/140 336/328/140 335/331/140 330/336/140
o Plane.610_Plane.938
v -0.223367 5.027067 1.161447
v 2.118162 2.721965 1.516376
v -0.224529 4.682926 -1.065923
v 2.117000 2.377824 -0.710994
v 0.000001 5.151950 0.001764
v 2.341531 2.846848 0.356694
v 1.088073 4.061049 1.310017
v 1.086911 3.716908 -0.917352
v 1.311441 4.185933 0.150335
vt 0.363069 0.500000
vt 0.363069 0.999915
vt 0.000085 0.999915
vt 0.000085 0.500000
vt 0.726052 0.500000
vt 0.726052 0.999915
vt 0.726052 0.000085
vt 0.363069 0.000085
vt 0.000085 0.000085
vn 0.7581 0.5232 -0.3893
vn 0.7584 0.6162 0.2124
vn 0.5672 0.8001 0.1954
vn 0.5669 0.7037 -0.4283
usemtl Material.649
s off
f 345/337/141 342/338/141 340/339/141 344/340/141
f 343/341/142 338/342/142 342/338/142 345/337/142
f 337/343/143 343/341/143 345/337/143 341/344/143
f 341/344/144 345/337/144 344/340/144 339/345/144
o Plane.611_Plane.939
v -1.298857 4.928545 -0.127877
v -0.749463 1.870114 2.048295
v 1.254989 5.130625 -0.488613
v 1.804384 2.072193 1.687560
v -0.002023 5.328710 0.000286
v 0.547372 2.270278 2.176458
v -1.011652 3.587227 1.154015
v 1.542194 3.789307 0.793280
v 0.285182 3.987391 1.282178
vt 0.363069 0.500000
vt 0.363069 0.999915
vt 0.000085 0.999915
vt 0.000085 0.500000
vt 0.726052 0.500000
vt 0.726052 0.999915
vt 0.726052 0.000085
vt 0.363069 0.000085
vt 0.000085 0.000085
vn 0.3832 0.4720 0.7940
vn -0.2178 0.4245 0.8789
vn -0.2676 0.6352 0.7246
vn 0.3554 0.6845 0.6365
usemtl Material.650
s off
f 354/346/145 351/347/145 349/348/145 353/349/145
f 352/350/146 347/351/146 351/347/146 354/346/146
f 346/352/147 352/350/147 354/346/147 350/353/147
f 350/353/148 354/346/148 353/349/148 348/354/148
o Plane.612_Plane.940
v 0.836618 4.702497 0.451835
v 1.441132 3.025943 -1.753454
v -0.982267 4.878287 -0.180402
v -0.377752 3.201734 -2.385690
v 0.001441 5.072497 0.000501
v 0.605955 3.395944 -2.204788
v 1.185525 4.041427 -0.735746
v -0.633359 4.217217 -1.367983
v 0.350348 4.411427 -1.187080
vt 0.363069 0.500000
vt 0.363069 0.999915
vt 0.000085 0.999915
vt 0.000085 0.500000
vt 0.726052 0.500000
vt 0.726052 0.999915
vt 0.726052 0.000085
vt 0.363069 0.000085
vt 0.000085 0.000085
vn -0.0094 0.7067 -0.7075
vn 0.5633 0.6513 -0.5084
vn 0.5160 0.8039 -0.2959
vn -0.0777 0.8612 -0.5022
usemtl Material.651
s off
f 363/355/149 360/356/149 358/357/149 362/358/149
f 361/359/150 356/360/150 360/356/150 363/355/150
f 355/361/151 361/359/151 363/355/151 359/362/151
f 359/362/152 363/355/152 362/358/152 357/363/152
o Plane.613_Plane.941
v 0.244847 4.087408 -0.711025
v -1.161368 2.347107 -0.598204
v 0.098460 4.303282 0.794323
v -1.307755 2.562982 0.907144
v 0.000116 4.377765 -0.001192
v -1.406100 2.637465 0.111629
v -0.566013 3.331846 -0.681526
v -0.712401 3.547721 0.823823
v -0.810745 3.622203 0.028307
vt 0.363069 0.500000
vt 0.363069 0.999915
vt 0.000085 0.999915
vt 0.000085 0.500000
vt 0.726052 0.500000
vt 0.726052 0.999915
vt 0.726052 0.000085
vt 0.363069 0.000085
vt 0.000085 0.000085
vn -0.8400 0.5207 0.1526
vn -0.7816 0.4347 -0.4473
vn -0.6105 0.6368 -0.4710
vn -0.6710 0.7260 0.1509
usemtl Material.652
s off
f 372/364/153 369/365/153 367/366/153 371/367/153
f 370/368/154 365/369/154 369/365/154 372/364/154
f 364/370/155 370/368/155 372/364/155 368/371/155
f 368/371/156 372/364/156 371/367/156 366/372/156
o Plane.614_Plane.942
v 0.735263 3.934274 -0.128487
v -0.150111 2.614408 -1.851145
v -0.743712 4.254848 0.386026
v -1.629085 2.934982 -1.336631
v 0.001171 4.326780 -0.000408
v -0.884202 3.006914 -1.723065
v 0.295965 3.420211 -1.070960
v -1.183009 3.740785 -0.556446
v -0.438126 3.812717 -0.942880
vt 0.363069 0.500000
vt 0.363069 0.999915
vt 0.000085 0.999915
vt 0.000085 0.500000
vt 0.726052 0.500000
vt 0.726052 0.999915
vt 0.726052 0.000085
vt 0.363069 0.000085
vt 0.000085 0.000085
vn -0.3629 0.7440 -0.5610
vn 0.2005 0.6219 -0.7570
vn 0.3113 0.7658 -0.5628
vn -0.2727 0.8924 -0.3596
usemtl Material.653
s off
f 381/373/157 378/374/157 376/375/157 380/376/157
f 379/377/158 374/378/158 378/374/158 381/373/158
f 373/379/159 379/377/159 381/373/159 377/380/159
f 377/380/160 381/373/160 380/376/160 375/381/160
o Plane.615_Plane.943
v 0.277292 4.765476 1.401879
v 2.825052 1.751735 0.902958
v -0.783477 4.273956 -1.045941
v 1.764284 1.260215 -1.544863
v 0.000840 4.848344 0.001939
v 2.548601 1.834604 -0.496983
v 1.710682 3.465036 1.041844
v 0.649913 2.973516 -1.405977
v 1.434230 3.547905 -0.358097
vt 0.363069 0.500000
vt 0.363069 0.999915
vt 0.000085 0.999915
vt 0.000085 0.500000
vt 0.726052 0.500000
vt 0.726052 0.999915
vt 0.726052 0.000085
vt 0.363069 0.000085
vt 0.000085 0.000085
vn 0.5881 0.4377 -0.6801
vn 0.8262 0.5480 -0.1307
vn 0.6576 0.7485 -0.0855
vn 0.4108 0.6341 -0.6551
usemtl Material.654
s off
f 390/382/161 387/383/161 385/384/161 389/385/161
f 388/386/162 383/387/162 387/383/162 390/382/162
f 382/388/163 388/386/163 390/382/163 386/389/163
f 386/389/164 390/382/164 389/385/164 384/390/164
o Plane.616_Plane.944
v -0.965540 3.640938 -0.554143
v -1.749286 1.860275 2.364614
v 1.211558 4.112151 0.317929
v 0.427812 2.331488 3.236686
v -0.001724 4.235537 -0.000691
v -0.785471 2.454874 2.918067
v -1.435766 2.976111 0.978992
v 0.741333 3.447324 1.851063
v -0.471950 3.570710 1.532444
vt 0.363069 0.500000
vt 0.363069 0.999915
vt 0.000085 0.999915
vt 0.000085 0.500000
vt 0.726052 0.500000
vt 0.726052 0.999915
vt 0.726052 0.000085
vt 0.363069 0.000085
vt 0.000085 0.000085
vn -0.0814 0.7852 0.6139
vn -0.6355 0.6653 0.3919
vn -0.5848 0.7942 0.1651
vn -0.0104 0.9186 0.3951
usemtl Material.655
s off
f 399/391/165 396/392/165 394/393/165 398/394/165
f 397/395/166 392/396/166 396/392/166 399/391/166
f 391/397/167 397/395/167 399/391/167 395/398/167
f 395/398/168 399/391/168 398/394/168 393/399/168
o Plane.617_Plane.945
v -0.727403 3.918600 0.481443
v 0.495160 4.153503 2.587460
v 0.707125 3.626407 -0.318724
v 1.929689 3.861310 1.787292
v -0.001136 4.037770 0.000634
v 1.221427 4.272673 2.106650
v -0.110467 4.202681 1.483743
v 1.324062 3.910488 0.683576
v 0.615801 4.321850 1.002934
vt 0.363069 0.500000
vt 0.363069 0.999915
vt 0.000085 0.999915
vt 0.000085 0.500000
vt 0.726052 0.500000
vt 0.726052 0.999915
vt 0.726052 0.000085
vt 0.363069 0.000085
vt 0.000085 0.000085
vn 0.4257 0.8838 -0.1942
vn -0.0978 0.9904 0.0978
vn -0.2405 0.9626 -0.1248
vn 0.3021 0.8521 -0.4275
usemtl Material.656
s off
f 408/400/169 405/401/169 403/402/169 407/403/169
f 406/404/170 401/405/170 405/401/170 408/400/170
f 400/406/171 406/404/171 408/400/171 404/407/171
f 404/407/172 408/400/172 407/403/172 402/408/172
