# Blender v3.2.0 OBJ File: 'trees.blend'
# www.blender.org
mtllib Pine Leaves 2 Trunk 2.mtl
o Short_twigs_set.001_Plane.343
v 0.053816 3.324381 1.015350
v 0.053816 5.691178 1.015350
v 0.053816 3.324381 0.212426
v 0.053816 5.691178 0.212426
vt 0.869132 0.583327
vt 0.869132 0.998870
vt 0.728161 0.998870
vt 0.728161 0.583327
vn -1.0000 0.0000 -0.0000
usemtl thing.001
s off
f 1/1/1 2/2/1 4/3/1 3/4/1
o Short_twigs_set_2.002_Plane.341
v -0.475346 4.952265 -0.846185
v -0.475346 6.952265 -0.846185
v -0.086181 4.952265 -0.290398
v -0.086180 6.952265 -0.290398
vt 0.869132 0.583327
vt 0.869132 0.998870
vt 0.728161 0.998870
vt 0.728161 0.583327
vn 0.8192 -0.0000 -0.5736
usemtl thing.001
s off
f 5/5/2 6/6/2 8/7/2 7/8/2
o Long_twig_2.001_Plane.340
v -0.021576 7.754218 0.010655
v 0.795891 8.786236 0.145055
v 0.330735 7.483589 -0.054136
v 1.148202 8.515607 0.080263
vt 0.854803 0.003131
vt 0.854803 0.403285
vt 0.719053 0.403285
vt 0.719053 0.003131
vn -0.0513 0.1688 -0.9843
usemtl Material.208
s off
f 9/9/3 10/10/3 12/11/3 11/12/3
o Short_twigs_set.002_Plane.344
v 0.052087 4.661253 0.921611
v 0.052087 6.661253 0.921611
v 0.052087 4.661253 0.243122
v 0.052087 6.661253 0.243122
vt 0.869132 0.583327
vt 0.869132 0.998870
vt 0.728161 0.998870
vt 0.728161 0.583327
vn -1.0000 0.0000 -0.0000
usemtl thing.001
s off
f 13/13/4 14/14/4 16/15/4 15/16/4
o Short_twigs_set_2.003_Plane.345
v -0.506018 3.527860 -0.915820
v -0.506017 5.992613 -0.915820
v -0.026419 3.527860 -0.230882
v -0.026419 5.992612 -0.230882
vt 0.869132 0.583327
vt 0.869132 0.998870
vt 0.728161 0.998870
vt 0.728161 0.583327
vn 0.8192 -0.0000 -0.5736
usemtl thing.001
s off
f 17/17/5 18/18/5 20/19/5 19/20/5
o Long_twig_2.002_Plane.346
v 0.030949 6.941331 0.036337
v 0.664536 7.742688 -0.055757
v 0.304011 6.725658 0.038264
v 0.937598 7.527015 -0.053830
vt 0.854803 0.003131
vt 0.854803 0.403285
vt 0.719053 0.403285
vt 0.719053 0.003131
vn -0.0513 -0.0739 -0.9959
usemtl Material.208
s off
f 21/21/6 22/22/6 24/23/6 23/24/6
o Short_twigs_set_2.004_Plane.347
v 0.992330 2.928448 0.155502
v 0.992330 5.393201 0.155502
v 0.169712 2.928448 0.005653
v 0.169713 5.393201 0.005653
vt 0.869132 0.583327
vt 0.869132 0.998870
vt 0.728161 0.998870
vt 0.728161 0.583327
vn -0.1792 0.0000 0.9838
usemtl thing.001
s off
f 25/25/7 26/26/7 28/27/7 27/28/7
o Short_twigs_set_2.005_Plane.348
v 1.164028 4.570554 0.178016
v 1.164028 7.437517 0.178016
v 0.207172 4.570554 0.003715
v 0.207172 7.437516 0.003715
vt 0.869132 0.583327
vt 0.869132 0.998870
vt 0.728161 0.998870
vt 0.728161 0.583327
vn -0.1792 0.0000 0.9838
usemtl thing.001
s off
f 29/29/8 30/30/8 32/31/8 31/32/8
o Short_twigs_set.003_Plane.349
v 0.894479 8.118395 0.331575
v 0.894479 10.485193 0.331575
v 0.137881 8.118395 0.062788
v 0.137881 10.485193 0.062788
vt 0.869132 0.583327
vt 0.869132 0.998870
vt 0.728161 0.998870
vt 0.728161 0.583327
vn -0.3348 0.0000 0.9423
usemtl thing.001
s off
f 33/33/9 34/34/9 36/35/9 35/36/9
o Short_twigs_set.004_Plane.350
v 0.894479 9.714754 0.331575
v 0.894479 12.081553 0.331575
v 0.137881 9.714754 0.062788
v 0.137881 12.081553 0.062788
vt 0.869132 0.583327
vt 0.869132 0.998870
vt 0.728161 0.998870
vt 0.728161 0.583327
vn -0.3348 0.0000 0.9423
usemtl thing.001
s off
f 37/37/10 38/38/10 40/39/10 39/40/10
o Short_twigs_set.005_Plane.351
v 0.381469 7.392540 0.766099
v 0.381469 9.400808 0.766099
v 0.054459 7.392540 0.168415
v 0.054459 9.400808 0.168415
vt 0.869132 0.583327
vt 0.869132 0.998870
vt 0.728161 0.998870
vt 0.728161 0.583327
vn -0.8773 0.0000 0.4800
usemtl thing.001
s off
f 41/41/11 42/42/11 44/43/11 43/44/11
o Plane.063_Plane.338
v 0.977608 9.366837 -0.133905
v -0.113809 7.778020 -3.707814
v -0.987578 9.530789 0.393346
v -2.078994 7.941973 -3.180562
v 0.001556 9.945728 -0.000418
v -1.089860 8.356912 -3.574326
v 0.436008 8.884570 -2.002607
v -1.529177 9.048522 -1.475356
v -0.540043 9.463461 -1.869119
vt 0.363069 0.500000
vt 0.363069 0.999915
vt 0.000085 0.999915
vt 0.000085 0.500000
vt 0.726052 0.500000
vt 0.726052 0.999915
vt 0.726052 0.000085
vt 0.363069 0.000085
vt 0.000085 0.000085
vn -0.4797 0.7986 -0.3635
vn 0.3522 0.7292 -0.5867
vn 0.4442 0.8279 -0.3424
vn -0.4215 0.9001 -0.1102
usemtl Material.206
s off
f 53/45/12 50/46/12 48/47/12 52/48/12
f 51/49/13 46/50/13 50/46/13 53/45/13
f 45/51/14 51/49/14 53/45/14 49/52/14
f 49/52/15 53/45/15 52/48/15 47/53/15
o Plane.062_Plane.337
v 1.154013 8.823743 0.150774
v 1.275445 7.556568 -2.521005
v -1.166836 8.853701 0.031083
v -1.045403 7.586526 -2.640696
v 0.001838 9.114899 0.000095
v 0.123270 7.847725 -2.671684
v 1.219911 8.363639 -1.242173
v -1.100937 8.393597 -1.361865
v 0.067736 8.654795 -1.392853
vt 0.363069 0.500000
vt 0.363069 0.999915
vt 0.000085 0.999915
vt 0.000085 0.500000
vt 0.726052 0.500000
vt 0.726052 0.999915
vt 0.726052 0.000085
vt 0.363069 0.000085
vt 0.000085 0.000085
vn -0.1984 0.8249 -0.5292
vn 0.2730 0.8189 -0.5049
vn 0.2700 0.9180 -0.2905
vn -0.2149 0.9243 -0.3155
usemtl Material.205
s off
f 62/54/16 59/55/16 57/56/16 61/57/16
f 60/58/17 55/59/17 59/55/17 62/54/17
f 54/60/18 60/58/18 62/54/18 58/61/18
f 58/61/19 62/54/19 61/57/19 56/62/19
o Plane.061_Plane.336
v 0.194274 7.119542 -1.085543
v -2.459775 4.920563 -1.503168
v 0.129812 6.797551 1.019540
v -2.524236 4.598571 0.601915
v 0.000051 7.195832 -0.001667
v -2.653998 4.996852 -0.419292
v -1.234507 6.169105 -1.274673
v -1.298969 5.847114 0.830410
v -1.428730 6.245395 -0.190797
vt 0.363069 0.500000
vt 0.363069 0.999915
vt 0.000085 0.999915
vt 0.000085 0.500000
vt 0.726052 0.500000
vt 0.726052 0.999915
vt 0.726052 0.000085
vt 0.363069 0.000085
vt 0.000085 0.000085
vn -0.7025 0.6283 0.3343
vn -0.6870 0.7058 -0.1728
vn -0.5330 0.8320 -0.1541
vn -0.5489 0.7528 0.3633
usemtl Material.204
s off
f 71/63/20 68/64/20 66/65/20 70/66/20
f 69/67/21 64/68/21 68/64/21 71/63/21
f 63/69/22 69/67/22 71/63/22 67/70/22
f 67/70/23 71/63/23 70/66/23 65/71/23
o Plane.060_Plane.335
v 0.779021 7.172174 -0.840659
v -1.075432 5.678041 -2.301674
v -0.464509 6.961014 0.953689
v -2.318962 5.466881 -0.507325
v 0.000985 7.494567 -0.001421
v -1.853469 6.000434 -1.462435
v -0.246369 6.693942 -1.607560
v -1.489898 6.482782 0.186789
v -1.024405 7.016336 -0.768321
vt 0.363069 0.500000
vt 0.363069 0.999915
vt 0.000085 0.999915
vt 0.000085 0.500000
vt 0.726052 0.500000
vt 0.726052 0.999915
vt 0.726052 0.000085
vt 0.363069 0.000085
vt 0.000085 0.000085
vn -0.7687 0.6393 -0.0175
vn -0.3606 0.7086 -0.6065
vn -0.0948 0.8967 -0.4324
vn -0.5329 0.8223 0.1997
usemtl Material.203
s off
f 80/72/24 77/73/24 75/74/24 79/75/24
f 78/76/25 73/77/25 77/73/25 80/72/25
f 72/78/26 78/76/26 80/72/26 76/79/26
f 76/79/27 80/72/27 79/75/27 74/80/27
o Plane.059_Plane.334
v -0.987756 9.280232 -1.050212
v -3.435442 8.214226 1.618701
v 1.143698 9.601398 1.032843
v -1.303988 8.535392 3.701757
v -0.001688 9.923857 -0.001650
v -2.449374 8.857850 2.667264
v -2.261638 9.050655 0.288664
v -0.130183 9.371821 2.371719
v -1.275570 9.694280 1.337226
vt 0.363069 0.500000
vt 0.363069 0.999915
vt 0.000085 0.999915
vt 0.000085 0.500000
vt 0.726052 0.500000
vt 0.726052 0.999915
vt 0.726052 0.000085
vt 0.363069 0.000085
vt 0.000085 0.000085
vn -0.1418 0.8895 0.4343
vn -0.5631 0.8261 0.0225
vn -0.3755 0.9045 -0.2021
vn 0.0661 0.9711 0.2294
usemtl Material.202
s off
f 89/81/28 86/82/28 84/83/28 88/84/28
f 87/85/29 82/86/29 86/82/29 89/81/29
f 81/87/30 87/85/30 89/81/30 85/88/30
f 85/88/31 89/81/31 88/84/31 83/89/31
o Plane.058_Plane.333
v -0.826554 8.794169 -0.993907
v -2.800722 7.628907 0.784175
v 0.913357 8.587721 0.802584
v -1.060811 7.422458 2.580666
v -0.001378 9.133609 -0.001423
v -1.975546 7.968347 1.776659
v -1.841767 8.489601 -0.045669
v -0.101855 8.283153 1.750822
v -1.016590 8.829041 0.946815
vt 0.363069 0.500000
vt 0.363069 0.999915
vt 0.000085 0.999915
vt 0.000085 0.500000
vt 0.726052 0.500000
vt 0.726052 0.999915
vt 0.726052 0.000085
vt 0.363069 0.000085
vt 0.000085 0.000085
vn -0.1178 0.7541 0.6461
vn -0.5599 0.8066 0.1896
vn -0.3288 0.9431 -0.0491
vn 0.1437 0.8870 0.4388
usemtl Material.201
s off
f 98/90/32 95/91/32 93/92/32 97/93/32
f 96/94/33 91/95/33 95/91/33 98/90/33
f 90/96/34 96/94/34 98/90/34 94/97/34
f 94/97/35 98/90/35 97/93/35 92/98/35
o Plane.057_Plane.332
v 0.802911 9.670155 -0.910618
v -1.675590 8.647336 -2.888907
v -0.710257 9.676710 0.981765
v -3.188758 8.653892 -0.996524
v 0.001198 9.958489 -0.001499
v -2.477303 8.935671 -1.979788
v -0.464688 9.337806 -1.923050
v -1.977855 9.344361 -0.030667
v -1.266400 9.626141 -1.013931
vt 0.363069 0.500000
vt 0.363069 0.999915
vt 0.000085 0.999915
vt 0.000085 0.500000
vt 0.726052 0.500000
vt 0.726052 0.999915
vt 0.726052 0.000085
vt 0.363069 0.000085
vt 0.000085 0.000085
vn -0.4507 0.8898 -0.0711
vn -0.1655 0.8886 -0.4278
vn -0.0050 0.9519 -0.3063
vn -0.2967 0.9532 0.0585
usemtl Material.200
s off
f 107/99/36 104/100/36 102/101/36 106/102/36
f 105/103/37 100/104/37 104/100/37 107/99/37
f 99/105/38 105/103/38 107/99/38 103/106/38
f 103/106/39 107/99/39 106/102/39 101/107/39
o Plane.056_Plane.331
v 1.052161 12.753842 -0.893668
v -0.948244 12.473574 -3.349764
v -1.108939 12.838558 0.856806
v -3.109344 12.558290 -1.599290
v 0.001712 13.211875 -0.001386
v -1.998693 12.931606 -2.457483
v 0.070867 12.874817 -2.111009
v -2.090234 12.959534 -0.360536
v -0.979583 13.332850 -1.218728
vt 0.363069 0.500000
vt 0.363069 0.999915
vt 0.000085 0.999915
vt 0.000085 0.500000
vt 0.726052 0.500000
vt 0.726052 0.999915
vt 0.726052 0.000085
vt 0.363069 0.000085
vt 0.000085 0.000085
vn -0.3373 0.9410 -0.0273
vn 0.0875 0.9243 -0.3714
vn 0.2922 0.9458 -0.1415
vn -0.1539 0.9633 0.2198
usemtl Material.199
s off
f 116/108/40 113/109/40 111/110/40 115/111/40
f 114/112/41 109/113/41 113/109/41 116/108/41
f 108/114/42 114/112/42 116/108/42 112/115/42
f 112/115/43 116/108/43 115/111/43 110/116/43
o Plane.055_Plane.330
v -0.594809 6.527898 -0.724335
v -2.471715 5.103474 1.275589
v 0.758180 6.535843 0.551088
v -1.118726 5.111418 2.551013
v -0.001072 6.881340 -0.001010
v -1.877978 5.456914 1.998914
v -1.585247 6.035208 0.329406
v -0.232258 6.043152 1.604829
v -0.991509 6.388649 1.052731
vt 0.363069 0.500000
vt 0.363069 0.999915
vt 0.000085 0.999915
vt 0.000085 0.500000
vt 0.726052 0.500000
vt 0.726052 0.999915
vt 0.726052 0.000085
vt 0.363069 0.000085
vt 0.000085 0.000085
vn -0.1181 0.7606 0.6384
vn -0.6350 0.7576 0.1511
vn -0.4769 0.8782 -0.0376
vn 0.0602 0.8813 0.4687
usemtl Material.198
s off
f 125/117/44 122/118/44 120/119/44 124/120/44
f 123/121/45 118/122/45 122/118/45 125/117/45
f 117/123/46 123/121/46 125/117/46 121/124/46
f 121/124/47 125/117/47 124/120/47 119/125/47
o Plane.054_Plane.329
v -0.893055 12.339185 -0.564298
v -2.302280 10.865346 2.574068
v 1.047200 12.559084 0.410206
v -0.362025 11.085244 3.548573
v -0.001537 12.804721 -0.000772
v -1.410762 11.330882 3.137595
v -1.647047 11.825630 1.052797
v 0.293208 12.045528 2.027302
v -0.755529 12.291166 1.616324
vt 0.363069 0.500000
vt 0.363069 0.999915
vt 0.000085 0.999915
vt 0.000085 0.500000
vt 0.726052 0.500000
vt 0.726052 0.999915
vt 0.726052 0.000085
vt 0.363069 0.000085
vt 0.000085 0.000085
vn -0.0095 0.8474 0.5308
vn -0.5678 0.7842 0.2504
vn -0.4869 0.8720 0.0499
vn 0.0870 0.9371 0.3381
usemtl Material.197
s off
f 134/126/48 131/127/48 129/128/48 133/129/48
f 132/130/49 127/131/49 131/127/49 134/126/49
f 126/132/50 132/130/50 134/126/50 130/133/50
f 130/133/51 134/126/51 133/129/51 128/134/51
o Plane.053_Plane.328
v 0.638468 7.842458 -0.747521
v -1.577817 8.113834 -2.942243
v -0.746531 7.886646 0.656549
v -2.962816 8.158023 -1.538173
v 0.001097 8.182491 -0.001112
v -2.215188 8.453869 -2.195834
v -0.435045 8.177863 -1.817008
v -1.820044 8.222051 -0.412938
v -1.072416 8.517897 -1.070599
vt 0.363069 0.500000
vt 0.363069 0.999915
vt 0.000085 0.999915
vt 0.000085 0.500000
vt 0.726052 0.500000
vt 0.726052 0.999915
vt 0.726052 0.000085
vt 0.363069 0.000085
vt 0.000085 0.000085
vn -0.2256 0.9584 0.1746
vn 0.2015 0.9448 -0.2584
vn 0.3809 0.9199 -0.0938
vn -0.0594 0.9339 0.3525
usemtl Material.196
s off
f 143/135/52 140/136/52 138/137/52 142/138/52
f 141/139/53 136/140/53 140/136/53 143/135/53
f 135/141/54 141/139/54 143/135/54 139/142/54
f 139/142/55 143/135/55 142/138/55 137/143/55
o Plane.052_Plane.327
v -0.018003 7.260592 -1.150023
v -2.565546 7.592369 -1.432768
v -0.271882 7.231294 1.103050
v -2.819425 7.563071 0.820304
v 0.000201 7.657133 -0.001784
v -2.547342 7.988910 -0.284530
v -1.200602 7.684773 -1.277763
v -1.454480 7.655474 0.975309
v -1.182397 8.081313 -0.129525
vt 0.363069 0.500000
vt 0.363069 0.999915
vt 0.000085 0.999915
vt 0.000085 0.500000
vt 0.726052 0.500000
vt 0.726052 0.999915
vt 0.726052 0.000085
vt 0.363069 0.000085
vt 0.000085 0.000085
vn -0.1015 0.9364 0.3359
vn -0.0270 0.9450 -0.3259
vn 0.3505 0.8835 -0.3107
vn 0.2700 0.8743 0.4035
usemtl Material.195
s off
f 152/144/56 149/145/56 147/146/56 151/147/56
f 150/148/57 145/149/57 149/145/57 152/144/57
f 144/150/58 150/148/58 152/144/58 148/151/58
f 148/151/59 152/144/59 151/147/59 146/152/59
o Plane.051_Plane.326
v 0.786667 7.887076 -0.007025
v 0.660842 7.001685 -2.202590
v -0.735029 7.768060 0.128176
v -0.860854 6.882669 -2.067389
v 0.001205 8.073333 -0.000107
v -0.124620 7.187942 -2.195672
v 0.708293 7.598760 -1.142926
v -0.813403 7.479743 -1.007725
v -0.077168 7.785016 -1.136007
vt 0.363069 0.500000
vt 0.363069 0.999915
vt 0.000085 0.999915
vt 0.000085 0.500000
vt 0.726052 0.500000
vt 0.726052 0.999915
vt 0.726052 0.000085
vt 0.363069 0.000085
vt 0.000085 0.000085
vn -0.4086 0.8029 -0.4341
vn 0.1973 0.8503 -0.4879
vn 0.2210 0.9415 -0.2542
vn -0.4047 0.8926 -0.1986
usemtl Material.194
s off
f 161/153/60 158/154/60 156/155/60 160/156/60
f 159/157/61 154/158/61 158/154/61 161/153/61
f 153/159/62 159/157/62 161/153/62 157/160/62
f 157/160/63 161/153/63 160/156/63 155/161/63
o Plane.050_Plane.325
v -1.076353 11.099617 -0.148239
v -1.490943 11.021971 2.334853
v 1.085062 11.188754 0.215430
v 0.670472 11.111108 2.698521
v -0.001712 11.429525 -0.000288
v -0.416302 11.351879 2.482804
v -1.287458 11.240032 1.072023
v 0.873956 11.329169 1.435691
v -0.212818 11.569941 1.219974
vt 0.363069 0.500000
vt 0.363069 0.999915
vt 0.000085 0.999915
vt 0.000085 0.500000
vt 0.726052 0.500000
vt 0.726052 0.999915
vt 0.726052 0.000085
vt 0.363069 0.000085
vt 0.000085 0.000085
vn 0.1751 0.9651 0.1949
vn -0.3059 0.9452 0.1139
vn -0.2702 0.9501 -0.1561
vn 0.2293 0.9707 -0.0720
usemtl Material.193
s off
f 170/162/64 167/163/64 165/164/64 169/165/64
f 168/166/65 163/167/65 167/163/65 170/162/65
f 162/168/66 168/166/66 170/162/66 166/169/66
f 166/169/67 170/162/67 169/165/67 164/170/67
o Plane.049_Plane.324
v 0.076109 11.939345 -1.049450
v -2.298827 10.203516 -1.001858
v 0.204751 11.819496 0.998769
v -2.170185 10.083668 1.046361
v -0.000102 12.133925 -0.001622
v -2.375038 10.398096 0.045970
v -1.199635 11.231299 -1.010755
v -1.070993 11.111451 1.037464
v -1.275846 11.425879 0.037073
vt 0.363069 0.500000
vt 0.363069 0.999915
vt 0.000085 0.999915
vt 0.000085 0.500000
vt 0.726052 0.500000
vt 0.726052 0.999915
vt 0.726052 0.000085
vt 0.363069 0.000085
vt 0.000085 0.000085
vn -0.6391 0.6865 0.3467
vn -0.6723 0.7175 -0.1821
vn -0.4806 0.8553 -0.1938
vn -0.4464 0.8235 0.3502
usemtl Material.192
s off
f 179/171/68 176/172/68 174/173/68 178/174/68
f 177/175/69 172/176/69 176/172/69 179/171/69
f 171/177/70 177/175/70 179/171/70 175/178/70
f 175/178/71 179/171/71 178/174/71 173/179/71
o Plane.048_Plane.323
v 0.074491 13.918948 0.700071
v 2.017376 13.453437 0.483959
v -0.106216 13.789473 -0.645622
v 1.836669 13.323961 -0.861734
v 0.000143 14.103753 0.001066
v 1.943028 13.638242 -0.215046
v 1.055987 13.842944 0.575583
v 0.875280 13.713470 -0.770110
v 0.981640 14.027749 -0.123422
vt 0.363069 0.500000
vt 0.363069 0.999915
vt 0.000085 0.999915
vt 0.000085 0.500000
vt 0.726052 0.500000
vt 0.726052 0.999915
vt 0.726052 0.000085
vt 0.363069 0.000085
vt 0.000085 0.000085
vn 0.2964 0.8389 -0.4565
vn 0.3842 0.9019 0.1976
vn 0.1056 0.9641 0.2437
vn 0.0139 0.8984 -0.4389
usemtl Material.191
s off
f 188/180/72 185/181/72 183/182/72 187/183/72
f 186/184/73 181/185/73 185/181/73 188/180/73
f 180/186/74 186/184/74 188/180/74 184/187/74
f 184/187/75 188/180/75 187/183/75 182/188/75
o Plane.047_Plane.322
v -1.088296 14.163391 -0.298531
v -1.272156 11.895370 2.495031
v 1.155432 14.295350 -0.043724
v 0.971572 12.027328 2.749837
v -0.001777 14.500304 -0.000202
v -0.185637 12.232283 2.793360
v -1.202428 13.199570 1.205618
v 1.041300 13.331529 1.460425
v -0.115909 13.536483 1.503947
vt 0.363069 0.500000
vt 0.363069 0.999915
vt 0.000085 0.999915
vt 0.000085 0.500000
vt 0.726052 0.500000
vt 0.726052 0.999915
vt 0.726052 0.000085
vt 0.363069 0.000085
vt 0.000085 0.000085
vn 0.1490 0.6912 0.7072
vn -0.3822 0.6599 0.6468
vn -0.3773 0.7925 0.4792
vn 0.1664 0.8245 0.5409
usemtl Material.190
s off
f 197/189/76 194/190/76 192/191/76 196/192/76
f 195/193/77 190/194/77 194/190/77 197/189/77
f 189/195/78 195/193/78 197/189/78 193/196/78
f 193/196/79 197/189/79 196/192/79 191/197/79
o Plane.046_Plane.321
v 0.607126 8.644108 -0.575236
v -0.740781 8.400054 -2.181949
v -0.688163 8.685695 0.505094
v -2.036071 8.441641 -1.101619
v 0.001026 9.070040 -0.000856
v -1.346882 8.825987 -1.607569
v -0.040731 8.776572 -1.357100
v -1.336020 8.818159 -0.276770
v -0.646831 9.202505 -0.782720
vt 0.363069 0.500000
vt 0.363069 0.999915
vt 0.000085 0.999915
vt 0.000085 0.500000
vt 0.726052 0.500000
vt 0.726052 0.999915
vt 0.726052 0.000085
vt 0.363069 0.000085
vt 0.000085 0.000085
vn -0.4819 0.8762 0.0091
vn 0.1283 0.8566 -0.4998
vn 0.4262 0.8814 -0.2038
vn -0.2432 0.9029 0.3545
usemtl Material.189
s off
f 206/198/80 203/199/80 201/200/80 205/201/80
f 204/202/81 199/203/81 203/199/81 206/198/81
f 198/204/82 204/202/82 206/198/82 202/205/82
f 202/205/83 206/198/83 205/201/83 200/206/83
o Plane.045_Plane.320
v -0.026278 9.850866 -0.832028
v -2.440142 8.753866 -0.614707
v 0.163376 9.754484 0.788003
v -2.250488 8.657484 1.005324
v -0.000150 10.015926 -0.001283
v -2.414014 8.918926 0.216038
v -1.276364 9.436322 -0.710346
v -1.086710 9.339939 0.909685
v -1.250236 9.601382 0.120399
vt 0.363069 0.500000
vt 0.363069 0.999915
vt 0.000085 0.999915
vt 0.000085 0.500000
vt 0.726052 0.500000
vt 0.726052 0.999915
vt 0.726052 0.000085
vt 0.363069 0.000085
vt 0.000085 0.000085
vn -0.4489 0.8164 0.3634
vn -0.5092 0.8470 -0.1523
vn -0.3252 0.9294 -0.1744
vn -0.2635 0.8981 0.3521
usemtl Material.188
s off
f 215/207/84 212/208/84 210/209/84 214/210/84
f 213/211/85 208/212/85 212/208/85 215/207/85
f 207/213/86 213/211/86 215/207/86 211/214/86
f 211/214/87 215/207/87 214/210/87 209/215/87
o Plane.044_Plane.319
v 0.941747 9.396444 -0.688177
v -1.165917 8.778861 -3.322357
v -1.002441 9.767916 0.780317
v -3.110105 9.150332 -1.853863
v 0.001540 9.935791 -0.001163
v -2.106124 9.318208 -2.635343
v -0.092055 9.309776 -2.034937
v -2.036243 9.681248 -0.566443
v -1.032262 9.849123 -1.347923
vt 0.363069 0.500000
vt 0.363069 0.999915
vt 0.000085 0.999915
vt 0.000085 0.500000
vt 0.726052 0.500000
vt 0.726052 0.999915
vt 0.726052 0.000085
vt 0.363069 0.000085
vt 0.000085 0.000085
vn -0.2803 0.9470 -0.1567
vn 0.1464 0.8655 -0.4791
vn 0.3057 0.9060 -0.2929
vn -0.1347 0.9901 0.0397
usemtl Material.187
s off
f 224/216/88 221/217/88 219/218/88 223/219/88
f 222/220/89 217/221/89 221/217/89 224/216/89
f 216/222/90 222/220/90 224/216/90 220/223/90
f 220/223/91 224/216/91 223/219/91 218/224/91
o Plane.043_Plane.318
v -0.513539 13.494300 -0.565864
v -2.103444 12.772369 0.956375
v 0.526636 13.354488 0.454242
v -1.063269 12.632558 1.976480
v -0.000824 13.770864 -0.000808
v -1.590728 13.048933 1.521430
v -1.313122 13.350972 0.229806
v -0.272947 13.211161 1.249912
v -0.800407 13.627536 0.794862
vt 0.363069 0.500000
vt 0.363069 0.999915
vt 0.000085 0.999915
vt 0.000085 0.500000
vt 0.726052 0.500000
vt 0.726052 0.999915
vt 0.726052 0.000085
vt 0.363069 0.000085
vt 0.000085 0.000085
vn 0.0401 0.7599 0.6488
vn -0.5400 0.8379 0.0799
vn -0.3262 0.9317 -0.1600
vn 0.2883 0.8491 0.4427
usemtl Material.186
s off
f 233/225/92 230/226/92 228/227/92 232/228/92
f 231/229/93 226/230/93 230/226/93 233/225/93
f 225/231/94 231/229/94 233/225/94 229/232/94
f 229/232/95 233/225/95 232/228/95 227/233/95
o Plane.042_Plane.317
v -0.328575 8.435642 -0.749710
v -1.986752 7.289268 0.445212
v 0.577264 8.635990 0.699517
v -1.080913 7.489615 1.894439
v -0.000717 8.928028 -0.001148
v -1.658895 7.781654 1.193775
v -1.236222 8.108827 -0.137205
v -0.330384 8.309174 1.312022
v -0.908365 8.601212 0.611357
vt 0.363069 0.500000
vt 0.363069 0.999915
vt 0.000085 0.999915
vt 0.000085 0.500000
vt 0.726052 0.500000
vt 0.726052 0.999915
vt 0.726052 0.000085
vt 0.363069 0.000085
vt 0.000085 0.000085
vn -0.3431 0.7323 0.5883
vn -0.7643 0.6391 -0.0856
vn -0.5010 0.8074 -0.3116
vn -0.0460 0.9080 0.4164
usemtl Material.185
s off
f 242/234/96 239/235/96 237/236/96 241/237/96
f 240/238/97 235/239/97 239/235/97 242/234/97
f 234/240/98 240/238/98 242/234/98 238/241/98
f 238/241/99 242/234/99 241/237/99 236/242/99
o Plane.041_Plane.316
v 0.729335 13.088318 -0.906995
v -1.231087 12.043949 -2.186647
v -0.606802 13.219130 1.033203
v -2.567224 12.174761 -0.246449
v 0.001058 13.497491 -0.001537
v -1.959364 12.453123 -1.281188
v -0.288696 12.782074 -1.587426
v -1.624833 12.912886 0.352773
v -1.016973 13.191247 -0.681967
vt 0.363069 0.500000
vt 0.363069 0.999915
vt 0.000085 0.999915
vt 0.000085 0.500000
vt 0.726052 0.500000
vt 0.726052 0.999915
vt 0.726052 0.000085
vt 0.363069 0.000085
vt 0.000085 0.000085
vn -0.5669 0.8159 -0.1135
vn -0.2578 0.7857 -0.5624
vn 0.0007 0.9115 -0.4113
vn -0.3256 0.9434 0.0625
usemtl Material.184
s off
f 251/243/100 248/244/100 246/245/100 250/246/100
f 249/247/101 244/248/101 248/244/101 251/243/101
f 243/249/102 249/247/102 251/243/102 247/250/102
f 247/250/103 251/243/103 250/246/103 245/251/103
o Plane.040_Plane.315
v 0.483760 10.354645 -0.532964
v -2.035065 9.287077 -2.319905
v -0.400727 10.459124 0.651367
v -2.919552 9.391556 -1.135574
v 0.000701 10.743065 -0.000938
v -2.518124 9.675498 -1.787879
v -0.801292 10.032036 -1.464211
v -1.685778 10.136515 -0.279881
v -1.284351 10.420456 -0.932185
vt 0.363069 0.500000
vt 0.363069 0.999915
vt 0.000085 0.999915
vt 0.000085 0.500000
vt 0.726052 0.500000
vt 0.726052 0.999915
vt 0.726052 0.000085
vt 0.363069 0.000085
vt 0.000085 0.000085
vn -0.5355 0.8437 0.0377
vn -0.0470 0.7860 -0.6165
vn 0.1437 0.8569 -0.4951
vn -0.3590 0.9162 0.1779
usemtl Material.183
s off
f 260/252/104 257/253/104 255/254/104 259/255/104
f 258/256/105 253/257/105 257/253/105 260/252/105
f 252/258/106 258/256/106 260/252/106 256/259/106
f 256/259/107 260/252/107 259/255/107 254/260/107
o Plane.039_Plane.314
v -0.957392 10.712297 -0.653946
v -2.645976 10.673977 1.577419
v 0.857735 10.594459 0.717627
v -0.830848 10.556137 2.948991
v -0.001438 11.015514 -0.001086
v -1.690021 10.977193 2.230278
v -1.771287 10.920616 0.441053
v 0.043841 10.802776 1.812626
v -0.815332 11.223832 1.093913
vt 0.363069 0.500000
vt 0.363069 0.999915
vt 0.000085 0.999915
vt 0.000085 0.500000
vt 0.726052 0.500000
vt 0.726052 0.999915
vt 0.726052 0.000085
vt 0.363069 0.000085
vt 0.000085 0.000085
vn 0.1738 0.9261 0.3348
vn -0.2917 0.9563 -0.0170
vn -0.1187 0.9555 -0.2700
vn 0.3698 0.9238 0.0991
usemtl Material.182
s off
f 269/261/108 266/262/108 264/263/108 268/264/108
f 267/265/109 262/266/109 266/262/109 269/261/109
f 261/267/110 267/265/110 269/261/110 265/268/110
f 265/268/111 269/261/111 268/264/111 263/269/111
o Plane.038_Plane.313
v -1.032346 10.377495 -0.385431
v -2.211377 10.987858 2.378310
v 0.893094 10.070355 0.503806
v -0.285937 10.680717 3.267547
v -0.001525 10.477446 -0.000704
v -1.180556 11.087808 2.763036
v -1.579083 10.841928 0.958818
v 0.346357 10.534787 1.848055
v -0.548262 10.941878 1.343544
vt 0.363069 0.500000
vt 0.363069 0.999915
vt 0.000085 0.999915
vt 0.000085 0.500000
vt 0.726052 0.500000
vt 0.726052 0.999915
vt 0.726052 0.000085
vt 0.363069 0.000085
vt 0.000085 0.000085
vn 0.3783 0.9227 0.0737
vn -0.0498 0.9910 -0.1241
vn 0.0263 0.9481 -0.3169
vn 0.4643 0.8782 -0.1146
usemtl Material.181
s off
f 278/270/112 275/271/112 273/272/112 277/273/112
f 276/274/113 271/275/113 275/271/113 278/270/113
f 270/276/114 276/274/114 278/270/114 274/277/114
f 274/277/115 278/270/115 277/273/115 272/278/115
o Plane.037_Plane.312
v 0.856605 10.707619 -0.692054
v -0.466096 10.772115 -2.533365
v -0.936881 10.757856 0.598053
v -2.259583 10.822352 -1.243258
v 0.001420 11.035642 -0.001022
v -1.321281 11.100138 -1.842333
v 0.221360 10.930139 -1.583827
v -1.572127 10.980376 -0.293721
v -0.633825 11.258162 -0.892796
vt 0.363069 0.500000
vt 0.363069 0.999915
vt 0.000085 0.999915
vt 0.000085 0.500000
vt 0.726052 0.500000
vt 0.726052 0.999915
vt 0.726052 0.000085
vt 0.363069 0.000085
vt 0.000085 0.000085
vn -0.2651 0.9637 0.0316
vn 0.1496 0.9521 -0.2668
vn 0.3481 0.9373 -0.0141
vn -0.0893 0.9496 0.3005
usemtl Material.180
s off
f 287/279/116 284/280/116 282/281/116 286/282/116
f 285/283/117 280/284/117 284/280/117 287/279/117
f 279/285/118 285/283/118 287/279/118 283/286/118
f 283/286/119 287/279/119 286/282/119 281/287/119
o Plane.036_Plane.311
v 0.193187 10.546646 -0.626874
v -2.476832 9.593567 -1.124034
v -0.095633 10.670033 0.687705
v -2.765652 9.716955 0.190545
v 0.000229 10.829837 -0.001041
v -2.669791 9.876759 -0.498200
v -1.172319 10.209242 -0.895214
v -1.461138 10.332629 0.419366
v -1.365277 10.492433 -0.269380
vt 0.363069 0.500000
vt 0.363069 0.999915
vt 0.000085 0.999915
vt 0.000085 0.500000
vt 0.726052 0.500000
vt 0.726052 0.999915
vt 0.726052 0.000085
vt 0.363069 0.000085
vt 0.000085 0.000085
vn -0.4429 0.8850 0.1437
vn -0.3082 0.8274 -0.4694
vn -0.1323 0.8871 -0.4422
vn -0.2694 0.9457 0.1819
usemtl Material.179
s off
f 296/288/120 293/289/120 291/290/120 295/291/120
f 294/292/121 289/293/121 293/289/121 296/288/121
f 288/294/122 294/292/122 296/288/122 292/295/122
f 292/295/123 296/288/123 295/291/123 290/296/123
o Plane.034_Plane.309
v -0.827480 10.692587 -0.173476
v -0.950575 9.776182 1.857970
v 0.904689 10.951772 0.048405
v 0.781594 10.035367 2.079851
v -0.001372 11.035962 -0.000176
v -0.124466 10.119557 2.031270
v -0.914139 10.368673 0.881419
v 0.818030 10.627859 1.103300
v -0.088031 10.712049 1.054719
vt 0.363069 0.500000
vt 0.363069 0.999915
vt 0.000085 0.999915
vt 0.000085 0.500000
vt 0.726052 0.500000
vt 0.726052 0.999915
vt 0.726052 0.000085
vt 0.363069 0.000085
vt 0.000085 0.000085
vn 0.0514 0.8530 0.5194
vn -0.4214 0.7822 0.4589
vn -0.4148 0.8789 0.2358
vn 0.0724 0.9518 0.2982
usemtl Material.177
s off
f 305/297/124 302/298/124 300/299/124 304/300/124
f 303/301/125 298/302/125 302/298/125 305/297/125
f 297/303/126 303/301/126 305/297/126 301/304/126
f 301/304/127 305/297/127 304/300/127 299/305/127
o Plane.032_Plane.307
v -0.099068 14.059215 0.881209
v 2.047885 11.791468 0.784262
v -0.286038 13.954353 -0.806492
v 1.860914 11.686606 -0.903440
v 0.000148 14.242949 0.001337
v 2.147100 11.975203 -0.095610
v 1.095455 13.073690 0.810108
v 0.908485 12.968829 -0.877593
v 1.194671 13.257425 -0.069764
vt 0.363069 0.500000
vt 0.363069 0.999915
vt 0.000085 0.999915
vt 0.000085 0.500000
vt 0.726052 0.500000
vt 0.726052 0.999915
vt 0.726052 0.000085
vt 0.363069 0.000085
vt 0.000085 0.000085
vn 0.7143 0.5395 -0.4458
vn 0.7869 0.5803 0.2099
vn 0.6279 0.7447 0.2263
vn 0.5533 0.7029 -0.4471
usemtl Material.175
s off
f 314/306/128 311/307/128 309/308/128 313/309/128
f 312/310/129 307/311/129 311/307/129 314/306/129
f 306/312/130 312/310/130 314/306/130 310/313/130
f 310/313/131 314/306/131 313/309/131 308/314/131
o Plane.031_Plane.306
v -1.077214 13.173701 -0.144196
v -1.449077 13.226995 1.939601
v 1.024444 13.040946 0.234251
v 0.652580 13.094241 2.318048
v -0.001665 13.369455 -0.000300
v -0.373528 13.422750 2.083498
v -1.247617 13.365008 0.869230
v 0.854041 13.232254 1.247677
v -0.172068 13.560763 1.013126
vt 0.363069 0.500000
vt 0.363069 0.999915
vt 0.000085 0.999915
vt 0.000085 0.500000
vt 0.726052 0.500000
vt 0.726052 0.999915
vt 0.726052 0.000085
vt 0.363069 0.000085
vt 0.000085 0.000085
vn 0.2645 0.9489 0.1721
vn -0.1900 0.9776 0.0903
vn -0.1482 0.9669 -0.2075
vn 0.3278 0.9369 -0.1217
usemtl Material.174
s off
f 323/315/132 320/316/132 318/317/132 322/318/132
f 321/319/133 316/320/133 320/316/133 323/315/133
f 315/321/134 321/319/134 323/315/134 319/322/134
f 319/322/135 323/315/135 322/318/135 317/323/135
o Plane.030_Plane.305
v 1.015704 13.881907 0.027256
v 1.180880 13.757541 -2.147863
v -0.981587 13.810688 -0.120344
v -0.816411 13.686322 -2.295463
v 0.001582 14.183637 0.000117
v 0.166757 14.059271 -2.175002
v 1.088570 14.031627 -1.030993
v -0.908721 13.960407 -1.178593
v 0.074448 14.333357 -1.058132
vt 0.363069 0.500000
vt 0.363069 0.999915
vt 0.000085 0.999915
vt 0.000085 0.500000
vt 0.726052 0.500000
vt 0.726052 0.999915
vt 0.726052 0.000085
vt 0.363069 0.000085
vt 0.000085 0.000085
vn -0.3163 0.9149 -0.2507
vn 0.2841 0.9363 -0.2063
vn 0.2780 0.9483 0.1533
vn -0.3640 0.9254 0.1059
usemtl Material.173
s off
f 332/324/136 329/325/136 327/326/136 331/327/136
f 330/328/137 325/329/137 329/325/137 332/324/137
f 324/330/138 330/328/138 332/324/138 328/331/138
f 328/331/139 332/324/139 331/327/139 326/332/139
o Plane.029_Plane.304
v 0.086062 13.152095 -0.692194
v -1.598333 12.775933 -0.856936
v -0.058531 13.188340 0.703431
v -1.742926 12.812178 0.538689
v 0.000115 13.374673 -0.001105
v -1.684280 12.998510 -0.165847
v -0.764710 13.092444 -0.778789
v -0.909303 13.128690 0.616837
v -0.850658 13.315022 -0.087700
vt 0.363069 0.500000
vt 0.363069 0.999915
vt 0.000085 0.999915
vt 0.000085 0.500000
vt 0.726052 0.500000
vt 0.726052 0.999915
vt 0.726052 0.000085
vt 0.363069 0.000085
vt 0.000085 0.000085
vn -0.3642 0.9074 0.2097
vn -0.3087 0.8935 -0.3262
vn -0.0350 0.9500 -0.3103
vn -0.0928 0.9645 0.2474
usemtl Material.172
s off
f 341/333/140 338/334/140 336/335/140 340/336/140
f 339/337/141 334/338/141 338/334/141 341/333/141
f 333/339/142 339/337/142 341/333/142 337/340/142
f 337/340/143 341/333/143 340/336/143 335/341/143
o Plane.028_Plane.303
v 0.589472 12.157561 -0.809546
v -1.309506 12.248950 -2.295796
v -0.651333 12.246114 0.781273
v -2.550311 12.337502 -0.704977
v 0.000983 12.417676 -0.001260
v -1.897996 12.509065 -1.487509
v -0.339971 12.338837 -1.544582
v -1.580775 12.427389 0.046237
v -0.928460 12.598951 -0.736296
vt 0.363069 0.500000
vt 0.363069 0.999915
vt 0.000085 0.999915
vt 0.000085 0.500000
vt 0.726052 0.500000
vt 0.726052 0.999915
vt 0.726052 0.000085
vt 0.363069 0.000085
vt 0.000085 0.000085
vn -0.1570 0.9839 0.0849
vn 0.0967 0.9658 -0.2404
vn 0.2727 0.9559 -0.1091
vn 0.0127 0.9745 0.2242
usemtl Material.171
s off
f 350/342/144 347/343/144 345/344/144 349/345/144
f 348/346/145 343/347/145 347/343/145 350/342/145
f 342/348/146 348/346/146 350/342/146 346/349/146
f 346/349/147 350/342/147 349/345/147 344/350/147
o Plane.027_Plane.302
v -0.806157 12.043982 -0.499640
v -2.644690 12.476884 1.987324
v 0.791732 12.326138 0.632513
v -1.046801 12.759040 3.119478
v -0.001266 12.421557 -0.000897
v -1.839799 12.854460 2.486068
v -1.721688 12.408991 0.701546
v -0.123799 12.691146 1.833700
v -0.916797 12.786567 1.200290
vt 0.363069 0.500000
vt 0.363069 0.999915
vt 0.000085 0.999915
vt 0.000085 0.500000
vt 0.726052 0.500000
vt 0.726052 0.999915
vt 0.726052 0.000085
vt 0.363069 0.000085
vt 0.000085 0.000085
vn 0.1027 0.9945 0.0212
vn -0.2800 0.9269 -0.2499
vn -0.1714 0.8987 -0.4037
vn 0.2183 0.9675 -0.1276
usemtl Material.170
s off
f 359/351/148 356/352/148 354/353/148 358/354/148
f 357/355/149 352/356/149 356/352/149 359/351/149
f 351/357/150 357/355/150 359/351/150 355/358/150
f 355/358/151 359/351/151 358/354/151 353/359/151
o Plane.026_Plane.301
v -0.321027 13.943863 -0.524767
v -2.568093 12.803124 1.132062
v 0.410433 13.866470 0.413988
v -1.836632 12.725732 2.070817
v -0.000579 14.140031 -0.000744
v -2.247645 12.999293 1.656085
v -1.473005 13.521026 0.337974
v -0.741544 13.443633 1.276728
v -1.152557 13.717195 0.861997
vt 0.363069 0.500000
vt 0.363069 0.999915
vt 0.000085 0.999915
vt 0.000085 0.500000
vt 0.726052 0.500000
vt 0.726052 0.999915
vt 0.726052 0.000085
vt 0.363069 0.000085
vt 0.000085 0.000085
vn -0.0818 0.7928 0.6040
vn -0.5403 0.8413 0.0155
vn -0.4041 0.9099 -0.0935
vn 0.0627 0.8606 0.5055
usemtl Material.169
s off
f 368/360/152 365/361/152 363/362/152 367/363/152
f 366/364/153 361/365/153 365/361/153 368/360/153
f 360/366/154 366/364/154 368/360/154 364/367/154
f 364/367/155 368/360/155 367/363/155 362/368/155
o Plane.025_Plane.300
v -0.541666 13.813317 0.546647
v 0.891098 13.198850 1.737564
v 0.513126 13.987864 -0.632289
v 1.945890 13.373396 0.558627
v -0.000835 14.114938 0.000934
v 1.431929 13.500470 1.191850
v 0.183155 13.640727 1.169591
v 1.237947 13.815273 -0.009346
v 0.723985 13.942348 0.623877
vt 0.363069 0.500000
vt 0.363069 0.999915
vt 0.000085 0.999915
vt 0.000085 0.500000
vt 0.726052 0.500000
vt 0.726052 0.999915
vt 0.726052 0.000085
vt 0.363069 0.000085
vt 0.000085 0.000085
vn 0.4236 0.8907 0.1650
vn 0.0840 0.8345 0.5445
vn -0.1169 0.9137 0.3892
vn 0.2351 0.9720 -0.0042
usemtl Material.168
s off
f 377/369/156 374/370/156 372/371/156 376/372/156
f 375/373/157 370/374/157 374/370/157 377/369/157
f 369/375/158 375/373/158 377/369/158 373/376/158
f 373/376/159 377/369/159 376/372/159 371/377/159
o Plane.024_Plane.299
v -0.551768 14.550775 0.604030
v 1.005721 13.442114 1.889031
v 0.339198 14.341556 -0.656376
v 1.896687 13.232895 0.628625
v -0.000706 14.732088 0.000998
v 1.556783 13.623427 1.285999
v 0.293297 14.176049 1.263598
v 1.184263 13.966830 0.003192
v 0.844359 14.357363 0.660567
vt 0.363069 0.500000
vt 0.363069 0.999915
vt 0.000085 0.999915
vt 0.000085 0.500000
vt 0.726052 0.500000
vt 0.726052 0.999915
vt 0.726052 0.000085
vt 0.363069 0.000085
vt 0.000085 0.000085
vn 0.7294 0.6835 -0.0289
vn 0.3304 0.7771 0.5356
vn 0.1120 0.9188 0.3786
vn 0.5303 0.8205 -0.2133
usemtl Material.167
s off
f 386/378/160 383/379/160 381/380/160 385/381/160
f 384/382/161 379/383/161 383/379/161 386/378/161
f 378/384/162 384/382/162 386/378/162 382/385/162
f 382/385/163 386/378/163 385/381/163 380/386/163
o Plane.023_Plane.298
v -0.629547 14.791877 -0.504484
v -2.006814 15.281284 1.015524
v 0.522095 14.673730 0.577051
v -0.855172 15.163137 2.097058
v -0.000912 14.907624 -0.000857
v -1.378179 15.397032 1.519151
v -1.285005 15.146396 0.232190
v -0.133363 15.028249 1.313725
v -0.656370 15.262143 0.735817
vt 0.363069 0.500000
vt 0.363069 0.999915
vt 0.000085 0.999915
vt 0.000085 0.500000
vt 0.726052 0.500000
vt 0.726052 0.999915
vt 0.726052 0.000085
vt 0.363069 0.000085
vt 0.000085 0.000085
vn 0.2993 0.9475 0.1126
vn -0.0261 0.9809 -0.1929
vn 0.1094 0.9302 -0.3503
vn 0.4423 0.8961 -0.0377
usemtl Material.166
s off
f 395/387/164 392/388/164 390/389/164 394/390/164
f 393/391/165 388/392/165 392/388/165 395/387/165
f 387/393/166 393/391/166 395/387/166 391/394/166
f 391/394/167 395/387/167 394/390/167 389/395/167
o Plane.022_Plane.297
v 0.534671 14.328516 0.631516
v 1.985169 13.579493 -0.676934
v -0.583796 14.204176 -0.537196
v 0.866702 13.455153 -1.845645
v 0.000886 14.472007 0.000926
v 1.451383 13.722984 -1.307524
v 1.275905 14.083192 -0.051752
v 0.157438 13.958852 -1.220463
v 0.742120 14.226684 -0.682342
vt 0.363069 0.500000
vt 0.363069 0.999915
vt 0.000085 0.999915
vt 0.000085 0.500000
vt 0.726052 0.500000
vt 0.726052 0.999915
vt 0.726052 0.000085
vt 0.363069 0.000085
vt 0.000085 0.000085
vn 0.1156 0.8334 -0.5404
vn 0.4544 0.8711 -0.1864
vn 0.2905 0.9565 -0.0283
vn -0.0586 0.9176 -0.3931
usemtl Material.165
s off
f 404/396/168 401/397/168 399/398/168 403/399/168
f 402/400/169 397/401/169 401/397/169 404/396/169
f 396/402/170 402/400/170 404/396/170 400/403/170
f 400/403/171 404/396/171 403/399/171 398/404/171
o Plane.021_Plane.296
v 0.400723 14.955787 -0.484503
v -1.521463 14.752330 -2.120240
v -0.432510 15.018209 0.486881
v -2.354695 14.814752 -1.148856
v 0.000660 15.238431 -0.000769
v -1.921526 15.034974 -1.636506
v -0.549972 15.011998 -1.303601
v -1.383204 15.074420 -0.332218
v -0.950035 15.294642 -0.819868
vt 0.363069 0.500000
vt 0.363069 0.999915
vt 0.000085 0.999915
vt 0.000085 0.500000
vt 0.726052 0.500000
vt 0.726052 0.999915
vt 0.726052 0.000085
vt 0.363069 0.000085
vt 0.000085 0.000085
vn -0.3450 0.9316 0.1142
vn 0.1184 0.8969 -0.4261
vn 0.2992 0.9107 -0.2847
vn -0.1769 0.9464 0.2703
usemtl Material.164
s off
f 413/405/172 410/406/172 408/407/172 412/408/172
f 411/409/173 406/410/173 410/406/173 413/405/173
f 405/411/174 411/409/174 413/405/174 409/412/174
f 409/412/175 413/405/175 412/408/175 407/413/175
o Plane.020_Plane.295
v -0.078798 14.865732 -0.822509
v -1.812311 14.088902 -0.527034
v 0.185321 14.897051 0.809379
v -1.548193 14.120220 1.104854
v -0.000209 15.057603 -0.001292
v -1.733723 14.280773 0.294182
v -0.979142 14.588006 -0.671459
v -0.715024 14.619324 0.960428
v -0.900554 14.779877 0.149757
vt 0.363069 0.500000
vt 0.363069 0.999915
vt 0.000085 0.999915
vt 0.000085 0.500000
vt 0.726052 0.500000
vt 0.726052 0.999915
vt 0.726052 0.000085
vt 0.363069 0.000085
vt 0.000085 0.000085
vn -0.4592 0.8455 0.2725
vn -0.5269 0.8375 -0.1452
vn -0.3180 0.9295 -0.1867
vn -0.2486 0.9377 0.2426
usemtl Material.163
s off
f 422/414/176 419/415/176 417/416/176 421/417/176
f 420/418/177 415/419/177 419/415/177 422/414/177
f 414/420/178 420/418/178 422/414/178 418/421/178
f 418/421/179 422/414/179 421/417/179 416/422/179
o Plane.019_Plane.294
v 0.873770 15.801302 -0.093611
v 0.635580 15.051332 -1.926006
v -0.786144 15.615956 0.198017
v -1.024334 14.865987 -1.634378
v 0.001315 16.006737 -0.000231
v -0.236875 15.256767 -1.832626
v 0.727979 15.613576 -1.042746
v -0.931934 15.428230 -0.751117
v -0.144476 15.819011 -0.949365
vt 0.363069 0.500000
vt 0.363069 0.999915
vt 0.000085 0.999915
vt 0.000085 0.500000
vt 0.726052 0.500000
vt 0.726052 0.999915
vt 0.726052 0.000085
vt 0.363069 0.000085
vt 0.000085 0.000085
vn -0.4858 0.7595 -0.4326
vn 0.1372 0.8290 -0.5421
vn 0.2013 0.9546 -0.2197
vn -0.4629 0.8804 -0.1030
usemtl Material.162
s off
f 431/423/180 428/424/180 426/425/180 430/426/180
f 429/427/181 424/428/181 428/424/181 431/423/181
f 423/429/182 429/427/182 431/423/182 427/430/182
f 427/430/183 431/423/183 430/426/183 425/431/183
o Plane.018_Plane.293
v -0.786378 15.498377 0.066082
v -0.361108 14.531429 2.687819
v 0.780005 15.545867 -0.170484
v 1.205274 14.578920 2.451252
v -0.001241 15.718902 0.000187
v 0.424029 14.751954 2.621924
v -0.572521 15.138512 1.409859
v 0.993862 15.186002 1.173292
v 0.212617 15.359036 1.343964
vt 0.363069 0.500000
vt 0.363069 0.999915
vt 0.000085 0.999915
vt 0.000085 0.500000
vt 0.726052 0.500000
vt 0.726052 0.999915
vt 0.726052 0.000085
vt 0.363069 0.000085
vt 0.000085 0.000085
vn 0.2777 0.8847 0.3743
vn -0.2068 0.8700 0.4475
vn -0.2367 0.9284 0.2863
vn 0.2553 0.9433 0.2120
usemtl Material.161
s off
f 440/432/184 437/433/184 435/434/184 439/435/184
f 438/436/185 433/437/185 437/433/185 440/432/185
f 432/438/186 438/436/186 440/432/186 436/439/186
f 436/439/187 440/432/187 439/435/187 434/440/187
o Plane.017_Plane.292
v -0.134400 15.076055 0.658792
v 1.809611 13.495381 0.453828
v -0.136073 15.251651 -0.711267
v 1.807938 13.670977 -0.916231
v 0.000001 15.378322 0.001085
v 1.944012 13.797648 -0.203879
v 0.922556 14.420439 0.573473
v 0.920883 14.596034 -0.796586
v 1.056957 14.722706 -0.084234
vt 0.363069 0.500000
vt 0.363069 0.999915
vt 0.000085 0.999915
vt 0.000085 0.500000
vt 0.726052 0.500000
vt 0.726052 0.999915
vt 0.726052 0.000085
vt 0.363069 0.000085
vt 0.000085 0.000085
vn 0.6819 0.6865 -0.2523
vn 0.6827 0.6009 0.4157
vn 0.4979 0.7449 0.4441
vn 0.4971 0.8330 -0.2431
usemtl Material.160
s off
f 449/441/188 446/442/188 444/443/188 448/444/188
f 447/445/189 442/446/189 446/442/189 449/441/189
f 441/447/190 447/445/190 449/441/190 445/448/190
f 445/448/191 449/441/191 448/444/191 443/449/191
o Plane.016_Plane.291
v -0.050780 15.474510 0.778332
v 1.483234 14.766592 0.644229
v -0.076762 15.728139 -0.857765
v 1.457251 15.020221 -0.991868
v 0.000021 15.872420 0.001296
v 1.534034 15.164503 -0.132807
v 0.756298 15.290843 0.737043
v 0.730316 15.544471 -0.899054
v 0.807099 15.688753 -0.039993
vt 0.363069 0.500000
vt 0.363069 0.999915
vt 0.000085 0.999915
vt 0.000085 0.500000
vt 0.726052 0.500000
vt 0.726052 0.999915
vt 0.726052 0.000085
vt 0.363069 0.000085
vt 0.000085 0.000085
vn 0.5591 0.8081 -0.1857
vn 0.5684 0.7166 0.4041
vn 0.2196 0.8625 0.4560
vn 0.2095 0.9611 -0.1801
usemtl Material.159
s off
f 458/450/192 455/451/192 453/452/192 457/453/192
f 456/454/193 451/455/193 455/451/193 458/450/193
f 450/456/194 456/454/194 458/450/194 454/457/194
f 454/457/195 458/450/195 457/453/195 452/458/195
o Plane.015_Plane.290
v -0.839607 17.260324 -0.054516
v -0.877583 16.655512 2.298934
v 0.859672 17.348459 -0.004446
v 0.821697 16.743649 2.349004
v -0.001346 17.507044 -0.000040
v -0.039321 16.902233 2.353410
v -0.865742 17.085217 1.140703
v 0.833537 17.173353 1.190773
v -0.027481 17.331938 1.195179
vt 0.363069 0.500000
vt 0.363069 0.999915
vt 0.000085 0.999915
vt 0.000085 0.500000
vt 0.726052 0.500000
vt 0.726052 0.999915
vt 0.726052 0.000085
vt 0.363069 0.000085
vt 0.000085 0.000085
vn 0.1718 0.9230 0.3442
vn -0.2862 0.8993 0.3307
vn -0.2878 0.9485 0.1327
vn 0.1799 0.9727 0.1464
usemtl Material.158
s off
f 467/459/196 464/460/196 462/461/196 466/462/196
f 465/463/197 460/464/197 464/460/197 467/459/197
f 459/465/198 465/463/198 467/459/198 463/466/198
f 463/466/199 467/459/199 466/462/199 461/467/199
o Plane.014_Plane.289
v 0.509484 15.928838 -0.139095
v 0.129848 16.304232 -2.555445
v -0.501752 15.872436 0.011019
v -0.881388 16.247829 -2.405331
v 0.000801 16.125719 -0.000119
v -0.378836 16.501114 -2.416469
v 0.317740 16.257923 -1.307119
v -0.693495 16.201521 -1.157004
v -0.190943 16.454805 -1.168142
vt 0.363069 0.500000
vt 0.363069 0.999915
vt 0.000085 0.999915
vt 0.000085 0.500000
vt 0.726052 0.500000
vt 0.726052 0.999915
vt 0.726052 0.000085
vt 0.363069 0.000085
vt 0.000085 0.000085
vn -0.4460 0.8894 0.1001
vn 0.3564 0.9342 -0.0190
vn 0.3987 0.8977 0.1875
vn -0.4225 0.8519 0.3094
usemtl Material.157
s off
f 476/468/200 473/469/200 471/470/200 475/471/200
f 474/472/201 469/473/201 473/469/201 476/468/201
f 468/474/202 474/472/202 476/468/202 472/475/202
f 472/475/203 476/468/203 475/471/203 470/476/203
o Plane.013_Plane.288
v 0.146011 16.290098 -0.634659
v -1.328137 15.814035 -0.946061
v -0.085197 16.186443 0.618323
v -1.559345 15.710380 0.306921
v 0.000183 16.392427 -0.000992
v -1.473965 15.916365 -0.312394
v -0.610048 16.148903 -0.785853
v -0.841256 16.045246 0.467129
v -0.755877 16.251232 -0.152186
vt 0.363069 0.500000
vt 0.363069 0.999915
vt 0.000085 0.999915
vt 0.000085 0.500000
vt 0.726052 0.500000
vt 0.726052 0.999915
vt 0.726052 0.000085
vt 0.363069 0.000085
vt 0.000085 0.000085
vn -0.4526 0.8630 0.2246
vn -0.3686 0.9006 -0.2303
vn -0.1434 0.9713 -0.1899
vn -0.2298 0.9325 0.2785
usemtl Material.156
s off
f 485/477/204 482/478/204 480/479/204 484/480/204
f 483/481/205 478/482/205 482/478/205 485/477/205
f 477/483/206 483/481/206 485/477/206 481/484/206
f 481/484/207 485/477/207 484/480/207 479/485/207
o Plane.012_Plane.287
v 0.482617 17.375387 -0.525953
v -0.709664 17.402386 -1.710212
v -0.497795 17.243036 0.458082
v -1.690076 17.270035 -0.726177
v 0.000777 17.493759 -0.000779
v -1.191504 17.520758 -1.185039
v -0.108269 17.504810 -1.097255
v -1.088680 17.372461 -0.113220
v -0.590109 17.623184 -0.572082
vt 0.363069 0.500000
vt 0.363069 0.999915
vt 0.000085 0.999915
vt 0.000085 0.500000
vt 0.726052 0.500000
vt 0.726052 0.999915
vt 0.726052 0.000085
vt 0.363069 0.000085
vt 0.000085 0.000085
vn -0.3220 0.9331 0.1600
vn 0.0301 0.9807 -0.1934
vn 0.2256 0.9741 -0.0126
vn -0.1395 0.9249 0.3538
usemtl Material.155
s off
f 494/486/208 491/487/208 489/488/208 493/489/208
f 492/490/209 487/491/209 491/487/209 494/486/209
f 486/492/210 492/490/210 494/486/210 490/493/210
f 490/493/211 494/486/211 493/489/211 488/494/211
o Plane.011_Plane.286
v 0.415116 17.139328 0.621661
v 1.436624 15.511087 -0.739037
v -0.652159 17.377516 -0.464588
v 0.369349 15.749275 -1.825285
v 0.000845 17.439043 0.000860
v 1.022353 15.810802 -1.359837
v 1.000851 16.438667 -0.107481
v -0.066424 16.676853 -1.193729
v 0.586581 16.738382 -0.728281
vt 0.363069 0.500000
vt 0.363069 0.999915
vt 0.000085 0.999915
vt 0.000085 0.500000
vt 0.726052 0.500000
vt 0.726052 0.999915
vt 0.726052 0.000085
vt 0.363069 0.000085
vt 0.000085 0.000085
vn 0.4068 0.6370 -0.6549
vn 0.7921 0.5510 -0.2626
vn 0.6953 0.7083 -0.1220
vn 0.2993 0.7967 -0.5251
usemtl Material.154
s off
f 503/495/212 500/496/212 498/497/212 502/498/212
f 501/499/213 496/500/213 500/496/213 503/495/213
f 495/501/214 501/499/214 503/495/214 499/502/214
f 499/502/215 503/495/215 502/498/215 497/503/215
o Plane.010_Plane.285
v -0.555250 15.730277 -0.633246
v -1.260481 14.244656 0.512539
v 0.780010 15.894568 0.401627
v 0.074779 14.408946 1.547411
v -0.001058 16.010050 -0.000820
v -0.706289 14.524427 1.144965
v -0.979122 15.111607 0.011878
v 0.356138 15.275898 1.046751
v -0.424930 15.391379 0.644305
vt 0.363069 0.500000
vt 0.363069 0.999915
vt 0.000085 0.999915
vt 0.000085 0.500000
vt 0.726052 0.500000
vt 0.726052 0.999915
vt 0.726052 0.000085
vt 0.363069 0.000085
vt 0.000085 0.000085
vn -0.3171 0.5494 0.7731
vn -0.7499 0.4961 0.4377
vn -0.6522 0.7136 0.2558
vn -0.1990 0.7694 0.6070
usemtl Material.153
s off
f 512/504/216 509/505/216 507/506/216 511/507/216
f 510/508/217 505/509/217 509/505/217 512/504/217
f 504/510/218 510/508/218 512/504/218 508/511/218
f 508/511/219 512/504/219 511/507/219 506/512/219
o Plane.009_Plane.284
v -0.458146 16.641314 0.492241
v 0.798699 16.689400 1.739531
v 0.491714 16.673119 -0.466122
v 1.748560 16.721205 0.781168
v -0.000752 16.810308 0.000759
v 1.256093 16.858395 1.248049
v 0.159261 16.761522 1.108160
v 1.109121 16.793327 0.149796
v 0.616655 16.930517 0.616678
vt 0.363069 0.500000
vt 0.363069 0.999915
vt 0.000085 0.999915
vt 0.000085 0.500000
vt 0.726052 0.500000
vt 0.726052 0.999915
vt 0.726052 0.000085
vt 0.363069 0.000085
vt 0.000085 0.000085
vn 0.1930 0.9776 -0.0837
vn -0.1143 0.9673 0.2263
vn -0.2677 0.9601 0.0810
vn 0.0466 0.9706 -0.2361
usemtl Material.152
s off
f 521/513/220 518/514/220 516/515/220 520/516/220
f 519/517/221 514/518/221 518/514/221 521/513/221
f 513/519/222 519/517/222 521/513/222 517/520/222
f 517/520/223 521/513/223 520/516/223 515/521/223
o Plane.008_Plane.283
v -0.421561 17.980551 0.441040
v 0.726645 17.444180 1.442122
v 0.360287 17.941624 -0.476568
v 1.508493 17.405251 0.524514
v -0.000619 18.128109 0.000727
v 1.147587 17.591738 1.001809
v 0.171398 17.817282 0.953196
v 0.953246 17.778355 0.035588
v 0.592340 17.964840 0.512883
vt 0.363069 0.500000
vt 0.363069 0.999915
vt 0.000085 0.999915
vt 0.000085 0.500000
vt 0.726052 0.500000
vt 0.726052 0.999915
vt 0.726052 0.000085
vt 0.363069 0.000085
vt 0.000085 0.000085
vn 0.5198 0.8522 0.0600
vn 0.1779 0.8692 0.4613
vn -0.0073 0.9502 0.3114
vn 0.3457 0.9327 -0.1030
usemtl Material.151
s off
f 530/522/224 527/523/224 525/524/224 529/525/224
f 528/526/225 523/527/225 527/523/225 530/522/225
f 522/528/226 528/526/226 530/522/226 526/529/226
f 526/529/227 530/522/227 529/525/227 524/530/227
o Plane.007_Plane.282
v -0.530257 17.877407 -0.476668
v -1.434487 17.217379 0.714162
v 0.597538 17.921711 0.404254
v -0.306693 17.261683 1.595084
v -0.000893 18.072601 -0.000698
v -0.905124 17.412573 1.190132
v -1.004065 17.656092 0.141053
v 0.123730 17.700396 1.021975
v -0.474701 17.851284 0.617022
vt 0.363069 0.500000
vt 0.363069 0.999915
vt 0.000085 0.999915
vt 0.000085 0.500000
vt 0.726052 0.500000
vt 0.726052 0.999915
vt 0.726052 0.000085
vt 0.363069 0.000085
vt 0.000085 0.000085
vn -0.1473 0.8357 0.5291
vn -0.5181 0.8211 0.2395
vn -0.3781 0.9248 0.0413
vn 0.0060 0.9399 0.3413
usemtl Material.150
s off
f 539/531/228 536/532/228 534/533/228 538/534/228
f 537/535/229 532/536/229 536/532/229 539/531/229
f 531/537/230 537/535/230 539/531/230 535/538/230
f 535/538/231 539/531/231 538/534/231 533/539/231
o Plane.006_Plane.281
v 0.134772 18.612871 0.399490
v 1.252534 17.842178 -0.683822
v -0.324621 19.167746 -0.469261
v 0.793141 18.397053 -1.552574
v 0.000364 19.024897 0.000688
v 1.118125 18.254204 -1.082624
v 0.753509 18.312067 -0.119820
v 0.294116 18.866941 -0.988572
v 0.619101 18.724092 -0.518622
vt 0.363069 0.500000
vt 0.363069 0.999915
vt 0.000085 0.999915
vt 0.000085 0.500000
vt 0.726052 0.500000
vt 0.726052 0.999915
vt 0.726052 0.000085
vt 0.363069 0.000085
vt 0.000085 0.000085
vn 0.5779 0.8011 -0.1561
vn 0.8048 0.5269 0.2731
vn 0.6578 0.6235 0.4225
vn 0.4246 0.9052 -0.0185
usemtl Material.149
s off
f 548/540/232 545/541/232 543/542/232 547/543/232
f 546/544/233 541/545/233 545/541/233 548/540/233
f 540/546/234 546/544/234 548/540/234 544/547/234
f 544/547/235 548/540/235 547/543/235 542/548/235
o Plane.005_Plane.280
v 0.509713 18.191271 -0.472955
v -0.728026 17.459227 -1.641507
v -0.419131 18.150110 0.536669
v -1.656870 17.418066 -0.631883
v 0.000736 18.375095 -0.000800
v -1.237003 17.643051 -1.169352
v -0.137144 17.953648 -1.077744
v -1.065988 17.912487 -0.068121
v -0.646122 18.137472 -0.605590
vt 0.363069 0.500000
vt 0.363069 0.999915
vt 0.000085 0.999915
vt 0.000085 0.500000
vt 0.726052 0.500000
vt 0.726052 0.999915
vt 0.726052 0.000085
vt 0.363069 0.000085
vt 0.000085 0.000085
vn -0.5745 0.8112 -0.1092
vn -0.1900 0.8282 -0.5272
vn -0.0015 0.9313 -0.3643
vn -0.4006 0.9136 0.0695
usemtl Material.148
s off
f 557/549/236 554/550/236 552/551/236 556/552/236
f 555/553/237 550/554/237 554/550/237 557/549/237
f 549/555/238 555/553/238 557/549/238 553/556/238
f 553/556/239 557/549/239 556/552/239 551/557/239
o Plane.004_Plane.279
v 0.158962 18.601313 -0.586035
v -1.149981 17.429794 -0.634623
v 0.088372 18.630644 0.608410
v -1.220571 17.459127 0.559823
v 0.000056 18.812592 -0.000946
v -1.308887 17.641073 -0.049534
v -0.573156 18.139057 -0.617951
v -0.643747 18.168390 0.576495
v -0.732063 18.350336 -0.032862
vt 0.363069 0.500000
vt 0.363069 0.999915
vt 0.000085 0.999915
vt 0.000085 0.500000
vt 0.726052 0.500000
vt 0.726052 0.999915
vt 0.726052 0.000085
vt 0.363069 0.000085
vt 0.000085 0.000085
vn -0.7464 0.6003 0.2874
vn -0.7056 0.5833 -0.4023
vn -0.4741 0.7791 -0.4101
vn -0.5168 0.7969 0.3128
usemtl Material.147
s off
f 566/558/240 563/559/240 561/560/240 565/561/240
f 564/562/241 559/563/241 563/559/241 566/558/241
f 558/564/242 564/562/242 566/558/242 562/565/242
f 562/565/243 566/558/243 565/561/243 560/566/243
o Plane.003_Plane.278
v 0.595127 18.784071 0.057815
v 0.647093 18.397425 -1.296892
v -0.641684 18.912275 -0.026219
v -0.589719 18.525629 -1.380926
v 0.000980 19.071888 0.000067
v 0.052945 18.685242 -1.354640
v 0.636348 18.731276 -0.629421
v -0.600464 18.859480 -0.713454
v 0.042200 19.019093 -0.687169
vt 0.363069 0.500000
vt 0.363069 0.999915
vt 0.000085 0.999915
vt 0.000085 0.500000
vt 0.726052 0.500000
vt 0.726052 0.999915
vt 0.726052 0.000085
vt 0.363069 0.000085
vt 0.000085 0.000085
vn -0.1993 0.8751 -0.4409
vn 0.4310 0.8098 -0.3981
vn 0.4389 0.8975 -0.0426
vn -0.2367 0.9675 -0.0885
usemtl Material.146
s off
f 575/567/244 572/568/244 570/569/244 574/570/244
f 573/571/245 568/572/245 572/568/245 575/567/245
f 567/573/246 573/571/246 575/567/246 571/574/246
f 571/574/247 575/567/247 574/570/247 569/575/247
o Plane.002_Plane.277
v -0.627575 19.134663 -0.192173
v -0.920662 18.027290 0.971714
v 0.622335 18.991629 -0.013513
v 0.329249 17.884256 1.150374
v -0.000990 19.205671 -0.000142
v -0.294076 18.098299 1.163745
v -0.773095 18.670506 0.454283
v 0.476816 18.527472 0.632943
v -0.146509 18.741516 0.646315
vt 0.363069 0.500000
vt 0.363069 0.999915
vt 0.000085 0.999915
vt 0.000085 0.500000
vt 0.726052 0.500000
vt 0.726052 0.999915
vt 0.726052 0.000085
vt 0.363069 0.000085
vt 0.000085 0.000085
vn 0.2164 0.5813 0.7844
vn -0.2906 0.6393 0.7119
vn -0.2532 0.8119 0.5260
vn 0.2711 0.7519 0.6009
usemtl Material.012
s off
f 584/576/248 581/577/248 579/578/248 583/579/248
f 582/580/249 577/581/249 581/577/249 584/576/249
f 576/582/250 582/580/250 584/576/250 580/583/250
f 580/583/251 584/576/251 583/579/251 578/584/251
o Plane.001_Plane.276
v -0.015848 17.359518 0.620280
v 1.336809 16.644766 0.516992
v -0.108326 17.362263 -0.609814
v 1.244331 16.647512 -0.713103
v 0.000073 17.546560 0.000974
v 1.352730 16.831808 -0.102314
v 0.699527 17.118771 0.565961
v 0.607049 17.121517 -0.664134
v 0.715448 17.305815 -0.053345
vt 0.363069 0.500000
vt 0.363069 0.999915
vt 0.000085 0.999915
vt 0.000085 0.500000
vt 0.726052 0.500000
vt 0.726052 0.999915
vt 0.726052 0.000085
vt 0.363069 0.000085
vt 0.000085 0.000085
vn 0.5471 0.7696 -0.3293
vn 0.5904 0.7683 0.2472
vn 0.3252 0.9029 0.2811
vn 0.2798 0.9043 -0.3225
usemtl Material.002
s off
f 593/585/252 590/586/252 588/587/252 592/588/252
f 591/589/253 586/590/253 590/586/253 593/585/253
f 585/591/254 591/589/254 593/585/254 589/592/254
f 589/592/255 593/585/255 592/588/255 587/593/255
