# Blender v3.2.0 OBJ File: 'trees.blend'
# www.blender.org
mtllib Spruce Large 5 Leaves - LOD 1.mtl
o _Joined.004_Plane.1171
v -0.835795 12.099318 -0.616346
v -2.379668 11.109262 2.042025
v 0.991813 12.428921 0.567807
v -0.552061 11.438866 3.226178
v 1.184360 10.370857 -1.126732
v -1.690688 7.348534 -3.295756
v -0.723972 10.337241 1.449609
v -3.599020 7.314918 -0.719415
v -0.802567 12.200357 -1.498685
v -4.733612 10.534747 0.736625
v 0.930212 11.824345 1.268422
v -3.000833 10.158735 3.503731
v 0.920054 12.086475 -1.592876
v -3.129790 9.702875 -3.764140
v -0.494551 11.580008 1.601645
v -4.544395 9.196407 -0.569619
v -0.671440 11.156726 -1.736167
v -4.185239 7.639979 1.115901
v 1.329023 11.826423 1.554209
v -2.184776 8.309676 4.406278
v 0.161799 13.272104 -1.044448
v -2.810440 12.785595 -1.512054
v -0.144217 13.168179 1.008806
v -3.116456 12.681670 0.541200
v -1.337433 10.986319 -1.181924
v -3.362961 7.195940 1.343411
v 1.599808 10.512148 0.462285
v -0.425721 6.721770 2.987620
v 0.537092 13.173543 -1.469693
v -3.300340 11.305447 -2.683938
v -0.227690 12.852917 1.440561
v -4.065122 10.984820 0.226317
v -1.070506 13.860009 -0.850797
v -3.231714 12.441319 2.033089
v 1.099259 13.551094 0.623275
v -1.061949 12.132404 3.507162
v -0.356442 13.457470 -1.207705
v -3.309821 11.628363 0.217725
v 0.658591 13.644850 1.135810
v -2.294788 11.815743 2.561240
v 1.158875 13.981924 -0.278869
v 0.106690 11.818265 -2.738409
v -0.998208 13.981380 0.644405
v -2.050393 11.817720 -1.815136
v -0.564587 12.127628 -0.926598
v -3.151943 11.294197 0.860712
v 0.661188 12.275253 0.916704
v -1.926168 11.441821 2.704013
v 1.266274 12.029864 -0.292164
v 0.299165 10.384192 -3.479383
v -1.126738 11.858994 0.522183
v -2.093848 10.213322 -2.665037
v 0.874328 11.294434 -0.618216
v -1.104701 9.455265 -2.370478
v -0.692605 11.532248 0.901891
v -2.671634 9.693079 -0.850371
v -1.360117 12.050556 -0.550062
v -2.650103 10.822651 3.597994
v 1.521690 12.438343 0.460931
v 0.231704 11.210438 4.608987
v -1.106319 15.132433 -0.786024
v -2.858845 13.447787 2.405937
v 1.264119 15.246833 0.575827
v -0.488406 13.562187 3.767789
v 0.959559 14.680418 -0.695538
v -1.128004 13.801908 -3.341826
v -0.910275 14.711699 0.769123
v -2.997838 13.833187 -1.877165
v -1.102023 12.297619 -0.934620
v -3.012021 10.084383 2.101014
v 1.315584 12.342105 0.618954
v -0.594414 10.128868 3.654587
v -1.118716 13.764606 -0.978942
v -3.843918 12.882670 2.109564
v 1.068174 13.412121 0.850049
v -1.657028 12.530186 3.938555
v 0.432974 12.336531 -0.808452
v -1.799259 11.851023 -2.035057
v -0.370822 12.098655 0.748489
v -2.603055 11.613146 -0.478116
v 0.574036 12.754938 -1.360896
v -2.974173 10.813675 -2.565382
v -0.252680 12.559890 1.388826
v -3.800889 10.618627 0.184340
v 0.292221 13.488766 -1.096250
v -2.846711 13.441112 -2.077749
v -0.376018 13.424005 1.043991
v -3.514950 13.376350 0.062492
v 0.614015 13.481919 -0.539083
v -0.904843 12.695846 -2.136247
v -0.511832 13.370528 0.586388
v -2.030690 12.584455 -1.010777
v 0.665027 15.958019 -0.882312
v -1.725108 14.955869 -2.626680
v -0.504098 15.683327 0.877438
v -2.894233 14.681175 -0.866929
v 1.138677 14.065298 -0.102687
v 0.371867 12.477814 -3.062475
v -1.151649 14.289989 0.370169
v -1.918459 12.702504 -2.589619
v 0.662042 14.997126 -1.000545
v -2.408100 13.701243 -2.535508
v -0.547724 15.292736 1.169591
v -3.617866 13.996853 -0.365372
v -1.117279 12.586970 -0.236732
v -1.546642 11.197885 2.687544
v 1.090330 12.434838 0.015140
v 0.660967 11.045753 2.939415
v -0.908895 16.488041 -0.455666
v -1.983360 15.411600 2.052430
v 0.940482 16.408625 0.302521
v -0.133983 15.332185 2.810617
v 0.706914 16.652319 -0.516407
v -0.814200 16.301905 -2.589003
v -0.723644 16.713400 0.523177
v -2.244758 16.362986 -1.549419
v -0.742905 14.878481 -0.243309
v -1.055680 13.847618 1.910087
v 0.846488 15.109720 0.098244
v 0.533714 14.078858 2.251640
v 0.112680 16.311615 -0.786451
v -2.115665 16.196259 -1.184191
v -0.150730 16.170975 0.730096
v -2.379075 16.055618 0.332356
v -0.642736 16.228474 -0.547153
v -2.049899 15.295877 1.102433
v 0.641789 15.912382 0.369896
v -0.765374 14.979785 2.019481
v -0.272050 16.160496 -0.865265
v -2.174844 14.590968 0.218894
v 0.543020 16.305449 0.775102
v -1.359775 14.735923 1.859260
v 0.403055 17.689215 -0.499132
v -1.152650 16.586109 -1.143228
v -0.270352 17.958359 0.666420
v -1.826056 16.855253 0.022325
v 0.712587 17.809952 -0.378410
v -0.450442 16.854198 -2.177189
v -0.626774 17.794147 0.495973
v -1.789804 16.838394 -1.302806
v -0.540331 16.508619 -0.482366
v -1.710428 15.670458 1.031513
v 0.600304 16.454548 0.369309
v -0.569792 15.616387 1.883188
v -0.182655 18.056053 -0.731454
v -2.003764 17.053932 -0.095162
v 0.329395 18.008366 0.658958
v -1.491713 17.006241 1.295251
v 0.801118 18.285496 -0.485343
v -0.552725 17.116718 -2.460966
v -0.646324 18.124458 0.601820
v -2.000166 16.955681 -1.373804
v -0.422220 19.163666 -0.440666
v -1.508771 18.439299 0.695560
v 0.464767 19.039358 0.328294
v -0.621784 18.314991 1.464520
v -0.550754 17.785969 -0.708854
v -2.141954 16.437485 0.780755
v 0.689295 17.678280 0.518278
v -0.901905 16.329794 2.007887
v 0.710578 18.743668 -0.260522
v -0.152657 17.721792 -2.006433
v -0.632359 18.736721 0.407537
v -1.495595 17.714846 -1.338375
v 0.318328 18.980053 -0.438459
v -0.832158 18.267544 -1.172891
v -0.201399 18.884037 0.468843
v -1.351885 18.171528 -0.265589
v -0.750568 17.822971 -0.038697
v -0.736394 16.879612 1.882541
v 0.702208 17.700363 -0.109618
v 0.716382 16.757004 1.811620
v -0.613605 17.985670 0.114414
v -0.114565 17.485325 1.930145
v 0.665627 18.190630 -0.180694
v 1.164666 17.690285 1.635037
v -0.531413 18.986946 0.121435
v 0.175712 18.108919 1.434964
v 0.545870 19.236404 -0.291758
v 1.252995 18.358377 1.021770
vt 0.726052 0.000085
vt 0.726052 0.999915
vt 0.000085 0.999915
vt 0.000085 0.000085
vt 0.000085 0.999915
vt 0.000085 0.000085
vt 0.726052 0.000085
vt 0.726052 0.999915
vt 0.726052 0.000085
vt 0.726052 0.999915
vt 0.000085 0.999915
vt 0.000085 0.000085
vt 0.726052 0.000085
vt 0.726052 0.999915
vt 0.000085 0.999915
vt 0.000085 0.000085
vt 0.726052 0.000085
vt 0.726052 0.999915
vt 0.000085 0.999915
vt 0.000085 0.000085
vt 0.000085 0.999915
vt 0.000085 0.000085
vt 0.726052 0.000085
vt 0.726052 0.999915
vt 0.000085 0.999915
vt 0.000085 0.000085
vt 0.726052 0.000085
vt 0.726052 0.999915
vt 0.000085 0.999915
vt 0.000085 0.000085
vt 0.726052 0.000085
vt 0.726052 0.999915
vt 0.000085 0.999915
vt 0.000085 0.000085
vt 0.726052 0.000085
vt 0.726052 0.999915
vt 0.726052 0.000085
vt 0.726052 0.999915
vt 0.000085 0.999915
vt 0.000085 0.000085
vt 0.726052 0.000085
vt 0.726052 0.999915
vt 0.000085 0.999915
vt 0.000085 0.000085
vt 0.000085 0.999915
vt 0.000085 0.000085
vt 0.726052 0.000085
vt 0.726052 0.999915
vt 0.726052 0.000085
vt 0.726052 0.999915
vt 0.000085 0.999915
vt 0.000085 0.000085
vt 0.726052 0.000085
vt 0.726052 0.999915
vt 0.000085 0.999915
vt 0.000085 0.000085
vt 0.000085 0.999915
vt 0.000085 0.000085
vt 0.726052 0.000085
vt 0.726052 0.999915
vt 0.000085 0.999915
vt 0.000085 0.000085
vt 0.726052 0.000085
vt 0.726052 0.999915
vt 0.726052 0.000085
vt 0.726052 0.999915
vt 0.000085 0.999915
vt 0.000085 0.000085
vt 0.000085 0.999915
vt 0.000085 0.000085
vt 0.726052 0.000085
vt 0.726052 0.999915
vt 0.726052 0.000085
vt 0.726052 0.999915
vt 0.000085 0.999915
vt 0.000085 0.000085
vt 0.000085 0.999915
vt 0.000085 0.000085
vt 0.726052 0.000085
vt 0.726052 0.999915
vt 0.726052 0.000085
vt 0.726052 0.999915
vt 0.000085 0.999915
vt 0.000085 0.000085
vt 0.000085 0.999915
vt 0.000085 0.000085
vt 0.726052 0.000085
vt 0.726052 0.999915
vt 0.726052 0.000085
vt 0.726052 0.999915
vt 0.000085 0.999915
vt 0.000085 0.000085
vt 0.000085 0.999915
vt 0.000085 0.000085
vt 0.726052 0.000085
vt 0.726052 0.999915
vt 0.000085 0.999915
vt 0.000085 0.000085
vt 0.726052 0.000085
vt 0.726052 0.999915
vt 0.000085 0.999915
vt 0.000085 0.000085
vt 0.726052 0.000085
vt 0.726052 0.999915
vt 0.726052 0.000085
vt 0.726052 0.999915
vt 0.000085 0.999915
vt 0.000085 0.000085
vt 0.726052 0.000085
vt 0.726052 0.999915
vt 0.000085 0.999915
vt 0.000085 0.000085
vt 0.726052 0.000085
vt 0.726052 0.999915
vt 0.000085 0.999915
vt 0.000085 0.000085
vt 0.000085 0.999915
vt 0.000085 0.000085
vt 0.726052 0.000085
vt 0.726052 0.999915
vt 0.000085 0.999915
vt 0.000085 0.000085
vt 0.726052 0.000085
vt 0.726052 0.999915
vt 0.726052 0.000085
vt 0.726052 0.999915
vt 0.000085 0.999915
vt 0.000085 0.000085
vt 0.000085 0.999915
vt 0.000085 0.000085
vt 0.726052 0.000085
vt 0.726052 0.999915
vt 0.726052 0.000085
vt 0.726052 0.999915
vt 0.000085 0.999915
vt 0.000085 0.000085
vt 0.726052 0.000085
vt 0.726052 0.999915
vt 0.000085 0.999915
vt 0.000085 0.000085
vt 0.726052 0.000085
vt 0.726052 0.999915
vt 0.000085 0.999915
vt 0.000085 0.000085
vt 0.726052 0.000085
vt 0.726052 0.999915
vt 0.000085 0.999915
vt 0.000085 0.000085
vt 0.000085 0.999915
vt 0.000085 0.000085
vt 0.726052 0.000085
vt 0.726052 0.999915
vt 0.726052 0.000085
vt 0.726052 0.999915
vt 0.000085 0.999915
vt 0.000085 0.000085
vt 0.000085 0.999915
vt 0.000085 0.000085
vt 0.726052 0.000085
vt 0.726052 0.999915
vt 0.726052 0.000085
vt 0.726052 0.999915
vt 0.000085 0.999915
vt 0.000085 0.000085
vt 0.000085 0.999915
vt 0.000085 0.000085
vt 0.726052 0.000085
vt 0.726052 0.999915
vt 0.726052 0.000085
vt 0.726052 0.999915
vt 0.000085 0.999915
vt 0.000085 0.000085
vt 0.000085 0.999915
vt 0.000085 0.000085
vt 0.726052 0.000085
vt 0.726052 0.999915
vt 0.000085 0.999915
vt 0.000085 0.000085
vt 0.726052 0.000085
vt 0.726052 0.999915
vn -0.2880 0.9400 0.1828
vn -0.5214 0.7659 -0.3762
vn -0.2379 0.9314 0.2756
vn -0.4768 0.8760 -0.0723
vn -0.6018 0.7708 0.2090
vn -0.1654 0.9859 0.0253
vn -0.2971 0.6343 0.7137
vn -0.4339 0.9009 -0.0148
vn -0.1173 0.9231 0.3662
vn -0.4736 0.8703 0.1355
vn -0.2476 0.7775 -0.5781
vn -0.2494 0.9643 0.0886
vn -0.2002 0.8940 -0.4008
vn -0.3364 0.8137 -0.4741
vn -0.2051 0.9540 0.2186
vn -0.2422 0.9066 0.3455
vn -0.1455 0.9676 -0.2064
vn -0.2950 0.8509 0.4347
vn -0.0433 0.9701 0.2388
vn -0.2285 0.9731 0.0307
vn -0.4589 0.8853 -0.0752
vn -0.0224 0.9995 0.0232
vn -0.2846 0.9393 -0.1917
vn -0.3370 0.9383 -0.0774
vn -0.0106 0.8823 -0.4705
vn -0.2569 0.9281 -0.2696
vn 0.0131 0.9024 0.4306
vn -0.1052 0.9294 0.3538
vn -0.0518 0.9902 -0.1294
vn -0.2150 0.8927 0.3961
vn -0.0659 0.9946 0.0808
vn -0.0879 0.8974 0.4324
vn -0.5518 0.8090 0.2027
vn -0.4026 0.8132 -0.4204
vn -0.2303 0.9132 -0.3363
vn -0.2124 0.9152 0.3425
vn -0.4230 0.8868 0.1862
vn -0.3280 0.8943 -0.3043
vn 0.0172 0.8355 0.5492
vn -0.2035 0.9021 0.3805
vn -0.3336 0.8482 0.4115
vn -0.2106 0.8855 -0.4142
vn -0.4435 0.8818 -0.1607
vn 0.0968 0.8937 0.4381
vn -0.0867 0.9541 0.2867
usemtl Material.880
s off
f 1/1/1 2/2/1 4/3/1 3/4/1
usemtl Material.881
f 8/5/2 7/6/2 5/7/2 6/8/2
usemtl Material.882
f 9/9/3 10/10/3 12/11/3 11/12/3
usemtl Material.883
f 13/13/4 14/14/4 16/15/4 15/16/4
usemtl Material.884
f 17/17/5 18/18/5 20/19/5 19/20/5
usemtl Material.885
f 24/21/6 23/22/6 21/23/6 22/24/6
usemtl Material.886
f 28/25/7 27/26/7 25/27/7 26/28/7
usemtl Material.887
f 32/29/8 31/30/8 29/31/8 30/32/8
usemtl Material.888
f 36/33/9 35/34/9 33/35/9 34/36/9
usemtl Material.889
f 37/37/10 38/38/10 40/39/10 39/40/10
usemtl Material.890
f 41/41/11 42/42/11 44/43/11 43/44/11
usemtl Material.891
f 48/45/12 47/46/12 45/47/12 46/48/12
usemtl Material.892
f 49/49/13 50/50/13 52/51/13 51/52/13
usemtl Material.893
f 53/53/14 54/54/14 56/55/14 55/56/14
usemtl Material.894
f 60/57/15 59/58/15 57/59/15 58/60/15
usemtl Material.895
f 64/61/16 63/62/16 61/63/16 62/64/16
usemtl Material.896
f 65/65/17 66/66/17 68/67/17 67/68/17
usemtl Material.897
f 72/69/18 71/70/18 69/71/18 70/72/18
usemtl Material.898
f 73/73/19 74/74/19 76/75/19 75/76/19
usemtl Material.899
f 80/77/20 79/78/20 77/79/20 78/80/20
usemtl Material.900
f 81/81/21 82/82/21 84/83/21 83/84/21
usemtl Material.901
f 88/85/22 87/86/22 85/87/22 86/88/22
usemtl Material.902
f 89/89/23 90/90/23 92/91/23 91/92/23
usemtl Material.903
f 96/93/24 95/94/24 93/95/24 94/96/24
usemtl Material.904
f 100/97/25 99/98/25 97/99/25 98/100/25
usemtl Material.905
f 104/101/26 103/102/26 101/103/26 102/104/26
usemtl Material.906
f 105/105/27 106/106/27 108/107/27 107/108/27
usemtl Material.907
f 109/109/28 110/110/28 112/111/28 111/112/28
usemtl Material.908
f 113/113/29 114/114/29 116/115/29 115/116/29
usemtl Material.909
f 120/117/30 119/118/30 117/119/30 118/120/30
usemtl Material.910
f 124/121/31 123/122/31 121/123/31 122/124/31
usemtl Material.911
f 125/125/32 126/126/32 128/127/32 127/128/32
usemtl Material.912
f 132/129/33 131/130/33 129/131/33 130/132/33
usemtl Material.913
f 133/133/34 134/134/34 136/135/34 135/136/34
usemtl Material.914
f 137/137/35 138/138/35 140/139/35 139/140/35
usemtl Material.915
f 141/141/36 142/142/36 144/143/36 143/144/36
usemtl Material.916
f 145/145/37 146/146/37 148/147/37 147/148/37
usemtl Material.917
f 152/149/38 151/150/38 149/151/38 150/152/38
usemtl Material.918
f 177/153/39 178/154/39 180/155/39 179/156/39
f 156/157/40 155/158/40 153/159/40 154/160/40
usemtl Material.919
f 157/161/41 158/162/41 160/163/41 159/164/41
usemtl Material.920
f 164/165/42 163/166/42 161/167/42 162/168/42
usemtl Material.921
f 165/169/43 166/170/43 168/171/43 167/172/43
usemtl Material.922
f 172/173/44 171/174/44 169/175/44 170/176/44
usemtl Material.923
f 176/177/45 175/178/45 173/179/45 174/180/45
