# Blender v3.2.0 OBJ File: 'trees.blend'
# www.blender.org
mtllib Spruce Small 2 Leaves - LOD 1.mtl
o _Joined.011_Plane.1421
v -0.682505 2.922313 -0.217127
v -1.103020 2.169233 1.739103
v 0.732816 3.011555 0.121469
v 0.312301 2.258474 2.077698
v 0.767838 2.963079 0.221765
v 1.008471 1.273965 -1.246521
v -0.758438 2.840823 0.112272
v -0.517806 1.151709 -1.356014
v 0.344465 2.847116 -0.789195
v -1.773390 2.004221 -1.655145
v -0.211881 2.648116 0.765163
v -2.329736 1.805221 -0.100787
v 0.566974 2.730333 -0.641059
v -1.411897 1.359834 -1.701240
v -0.411109 2.998036 0.838513
v -2.389980 1.627537 -0.221668
v -0.525649 2.920363 -0.641786
v -1.708994 1.453258 1.171380
v 0.782967 3.290905 0.512091
v -0.400378 1.823801 2.325256
v -0.914254 3.611296 -0.477979
v -2.083900 2.157459 1.708549
v 0.876383 3.177283 0.191314
v -0.293263 1.723446 2.377842
v 0.484169 4.375737 -0.860182
v -1.933417 2.609358 -1.417293
v -0.214877 4.725612 1.064018
v -2.632463 2.959233 0.506907
v 0.013148 3.840444 -1.052188
v -2.262308 1.785323 -0.460000
v 0.377635 4.038776 1.036626
v -1.897821 1.983655 1.628814
v 0.820791 4.310403 0.040750
v 0.249971 2.459796 -1.495201
v -0.818366 4.573346 0.333117
v -1.389187 2.722740 -1.202834
v -0.622452 5.282283 -0.072409
v -0.486187 4.235595 1.466325
v 0.645164 5.385649 -0.114352
v 0.781429 4.338962 1.424381
v 1.095225 5.110945 -0.279528
v 0.605826 2.737943 -2.284730
v -0.789424 4.705254 0.660552
v -1.278823 2.332252 -1.344650
v 0.052399 4.698367 -0.920949
v -2.269508 3.067661 -0.341679
v 0.254972 5.093491 1.003351
v -2.066935 3.462784 1.582621
v 0.391321 4.765701 -0.845726
v -1.981369 3.084939 -1.138145
v -0.123777 5.165193 1.037580
v -2.496466 3.484432 0.745161
v -0.111675 4.996332 -1.043593
v -2.680871 3.599577 -0.713731
v 0.317529 4.663112 0.888374
v -2.251667 3.266357 1.218235
v -0.299155 6.267279 -0.469756
v -1.504272 5.669085 0.369249
v 0.348748 6.168252 0.390265
v -0.856369 5.570058 1.229270
v 0.395356 5.627355 -0.881175
v -1.823239 3.905673 -1.355310
v -0.100045 5.749657 0.992827
v -2.318640 4.027975 0.518692
v 0.347796 5.441303 -0.486912
v -1.075784 4.561295 -1.158016
v -0.235020 5.563654 0.588949
v -1.658600 4.683645 -0.082155
v 0.612983 6.117454 0.351523
v 0.923681 4.678518 -1.182049
v -0.748814 6.311285 -0.106244
v -0.438117 4.872350 -1.639816
v -0.195608 6.607751 -0.612023
v -1.800824 5.957287 -0.049647
v 0.263218 6.465572 0.533175
v -1.341998 5.815108 1.095551
v 0.651664 7.292690 -0.208524
v 0.153078 6.048096 -1.574771
v -0.490664 7.092462 0.390747
v -0.989249 5.847867 -0.975501
v 0.493747 6.367900 0.324822
v 1.240341 5.699164 -1.116944
v -0.556326 6.429402 -0.247467
v 0.190267 5.760666 -1.689233
v -0.074428 7.149827 -0.640414
v -1.676619 6.334097 -0.411674
v 0.191140 6.962611 0.552090
v -1.411051 6.146881 0.780830
v 0.880362 6.506410 -0.084404
v 0.612795 4.907801 -1.957140
v -0.731202 6.259280 0.356804
v -0.998769 4.660671 -1.515932
v -0.368538 6.916515 -0.292302
v -0.601202 5.860342 0.644489
v 0.497857 7.092055 0.120789
v 0.265193 6.035882 1.057579
v 0.585899 6.828222 -0.341696
v -0.422102 5.793485 -1.666237
v -0.469882 6.807904 0.477646
v -1.477883 5.773167 -0.846894
v 0.023364 6.971860 -0.509971
v -1.350606 6.547663 -0.566215
v 0.028280 6.827238 0.460686
v -1.345689 6.403040 0.404442
v -0.585458 7.474618 -0.263399
v -0.953444 6.286289 1.096207
v 0.632171 7.452620 0.046933
v 0.264186 6.264291 1.406539
v -0.487645 7.288556 -0.540069
v -1.732560 6.196816 0.649536
v 0.558681 7.062205 0.347177
v -0.686234 5.970467 1.536782
v 0.220188 7.154477 -0.413515
v -1.099983 6.754172 -0.955491
v -0.204136 7.336462 0.485659
v -1.524307 6.936157 -0.056318
v 0.096343 6.696405 -0.735553
v -1.700181 5.591698 -0.823488
v 0.094386 6.585344 0.699660
v -1.702138 5.480637 0.611725
v 0.525281 6.817952 0.122566
v 0.912054 6.634507 -1.323128
v -0.452237 6.601337 -0.111466
v -0.065465 6.417892 -1.557162
v 0.669662 6.805682 -0.260285
v -0.233313 5.570301 -1.708799
v -0.571765 6.867725 0.460683
v -1.474740 5.632344 -0.987831
vt 0.726052 0.000085
vt 0.726052 0.999915
vt 0.000085 0.999915
vt 0.000085 0.000085
vt 0.000085 0.999915
vt 0.000085 0.000085
vt 0.726052 0.000085
vt 0.726052 0.999915
vt 0.000085 0.999915
vt 0.000085 0.000085
vt 0.726052 0.000085
vt 0.726052 0.999915
vt 0.726052 0.000085
vt 0.726052 0.999915
vt 0.000085 0.999915
vt 0.000085 0.000085
vt 0.726052 0.000085
vt 0.726052 0.999915
vt 0.000085 0.999915
vt 0.000085 0.000085
vt 0.726052 0.000085
vt 0.726052 0.999915
vt 0.000085 0.999915
vt 0.000085 0.000085
vt 0.726052 0.000085
vt 0.726052 0.999915
vt 0.000085 0.999915
vt 0.000085 0.000085
vt 0.000085 0.999915
vt 0.000085 0.000085
vt 0.726052 0.000085
vt 0.726052 0.999915
vt 0.726052 0.000085
vt 0.726052 0.999915
vt 0.000085 0.999915
vt 0.000085 0.000085
vt 0.000085 0.999915
vt 0.000085 0.000085
vt 0.726052 0.000085
vt 0.726052 0.999915
vt 0.726052 0.000085
vt 0.726052 0.999915
vt 0.000085 0.999915
vt 0.000085 0.000085
vt 0.000085 0.999915
vt 0.000085 0.000085
vt 0.726052 0.000085
vt 0.726052 0.999915
vt 0.000085 0.999915
vt 0.000085 0.000085
vt 0.726052 0.000085
vt 0.726052 0.999915
vt 0.726052 0.000085
vt 0.726052 0.999915
vt 0.000085 0.999915
vt 0.000085 0.000085
vt 0.000085 0.999915
vt 0.000085 0.000085
vt 0.726052 0.000085
vt 0.726052 0.999915
vt 0.000085 0.999915
vt 0.000085 0.000085
vt 0.726052 0.000085
vt 0.726052 0.999915
vt 0.000085 0.999915
vt 0.000085 0.000085
vt 0.726052 0.000085
vt 0.726052 0.999915
vt 0.000085 0.999915
vt 0.000085 0.000085
vt 0.726052 0.000085
vt 0.726052 0.999915
vt 0.000085 0.999915
vt 0.000085 0.000085
vt 0.726052 0.000085
vt 0.726052 0.999915
vt 0.726052 0.000085
vt 0.726052 0.999915
vt 0.000085 0.999915
vt 0.000085 0.000085
vt 0.726052 0.000085
vt 0.726052 0.999915
vt 0.000085 0.999915
vt 0.000085 0.000085
vt 0.726052 0.000085
vt 0.726052 0.999915
vt 0.000085 0.999915
vt 0.000085 0.000085
vt 0.000085 0.999915
vt 0.000085 0.000085
vt 0.726052 0.000085
vt 0.726052 0.999915
vt 0.726052 0.000085
vt 0.726052 0.999915
vt 0.000085 0.999915
vt 0.000085 0.000085
vt 0.726052 0.000085
vt 0.726052 0.999915
vt 0.000085 0.999915
vt 0.000085 0.000085
vt 0.726052 0.000085
vt 0.726052 0.999915
vt 0.000085 0.999915
vt 0.000085 0.000085
vt 0.726052 0.000085
vt 0.726052 0.999915
vt 0.000085 0.999915
vt 0.000085 0.000085
vt 0.726052 0.000085
vt 0.726052 0.999915
vt 0.000085 0.999915
vt 0.000085 0.000085
vt 0.000085 0.999915
vt 0.000085 0.000085
vt 0.726052 0.000085
vt 0.726052 0.999915
vt 0.726052 0.000085
vt 0.726052 0.999915
vt 0.000085 0.999915
vt 0.000085 0.000085
vt 0.726052 0.000085
vt 0.726052 0.999915
vt 0.000085 0.999915
vt 0.000085 0.000085
vt 0.726052 0.000085
vt 0.726052 0.999915
vt 0.000085 0.999915
vt 0.000085 0.000085
vn -0.1378 0.9339 0.3299
vn 0.0016 0.6562 -0.7546
vn -0.3656 0.9307 -0.0117
vn -0.3696 0.8404 -0.3964
vn -0.5069 0.8014 0.3176
vn -0.0043 0.8338 0.5521
vn -0.5065 0.7970 -0.3289
vn -0.6631 0.7471 0.0448
vn -0.0329 0.6443 -0.7641
vn -0.0485 0.8239 0.5647
vn -0.4513 0.6284 -0.6336
vn -0.5887 0.8018 -0.1027
vn -0.5234 0.7931 -0.3114
vn -0.4383 0.8644 0.2465
vn -0.2516 0.9216 0.2957
vn -0.5728 0.7941 -0.2032
vn -0.3900 0.8671 -0.3099
vn 0.3102 0.7238 -0.6163
vn -0.2940 0.9270 0.2329
vn -0.4079 0.7441 -0.5290
vn 0.2242 0.9232 -0.3121
vn -0.4151 0.8800 0.2306
vn -0.2792 0.7497 -0.6000
vn -0.4303 0.6502 0.6262
vn -0.3339 0.8491 -0.4092
vn -0.2973 0.9441 0.1422
vn -0.1463 0.7641 0.6283
vn -0.2467 0.8287 0.5024
vn -0.1744 0.9459 -0.2737
vn -0.5250 0.8486 0.0650
vn -0.1743 0.9700 -0.1697
vn -0.2645 0.8089 -0.5250
usemtl Material.1130
s off
f 1/1/1 2/2/1 4/3/1 3/4/1
usemtl Material.1131
f 8/5/2 7/6/2 5/7/2 6/8/2
usemtl Material.1132
f 12/9/3 11/10/3 9/11/3 10/12/3
usemtl Material.1133
f 13/13/4 14/14/4 16/15/4 15/16/4
usemtl Material.1134
f 17/17/5 18/18/5 20/19/5 19/20/5
usemtl Material.1135
f 21/21/6 22/22/6 24/23/6 23/24/6
usemtl Material.1136
f 25/25/7 26/26/7 28/27/7 27/28/7
usemtl Material.1137
f 32/29/8 31/30/8 29/31/8 30/32/8
usemtl Material.1138
f 33/33/9 34/34/9 36/35/9 35/36/9
usemtl Material.1139
f 40/37/10 39/38/10 37/39/10 38/40/10
usemtl Material.1140
f 41/41/11 42/42/11 44/43/11 43/44/11
usemtl Material.1141
f 48/45/12 47/46/12 45/47/12 46/48/12
usemtl Material.1142
f 52/49/13 51/50/13 49/51/13 50/52/13
usemtl Material.1143
f 53/53/14 54/54/14 56/55/14 55/56/14
usemtl Material.1144
f 60/57/15 59/58/15 57/59/15 58/60/15
usemtl Material.1145
f 64/61/16 63/62/16 61/63/16 62/64/16
usemtl Material.1146
f 68/65/17 67/66/17 65/67/17 66/68/17
usemtl Material.1147
f 72/69/18 71/70/18 69/71/18 70/72/18
usemtl Material.1148
f 76/73/19 75/74/19 73/75/19 74/76/19
usemtl Material.1149
f 77/77/20 78/78/20 80/79/20 79/80/20
usemtl Material.1150
f 81/81/21 82/82/21 84/83/21 83/84/21
usemtl Material.1151
f 85/85/22 86/86/22 88/87/22 87/88/22
usemtl Material.1152
f 92/89/23 91/90/23 89/91/23 90/92/23
usemtl Material.1153
f 93/93/24 94/94/24 96/95/24 95/96/24
usemtl Material.1154
f 97/97/25 98/98/25 100/99/25 99/100/25
usemtl Material.1155
f 101/101/26 102/102/26 104/103/26 103/104/26
usemtl Material.1156
f 105/105/27 106/106/27 108/107/27 107/108/27
usemtl Material.1157
f 109/109/28 110/110/28 112/111/28 111/112/28
usemtl Material.1158
f 116/113/29 115/114/29 113/115/29 114/116/29
usemtl Material.1159
f 117/117/30 118/118/30 120/119/30 119/120/30
usemtl Material.1160
f 121/121/31 122/122/31 124/123/31 123/124/31
usemtl Material.1161
f 125/125/32 126/126/32 128/127/32 127/128/32
