# Blender v3.2.0 OBJ File: 'trees.blend'
# www.blender.org
mtllib Pine Trunk 2.mtl
o Sphere.002
v -0.149580 4.131870 -0.269247
v 0.062375 4.473287 -0.214027
v 0.091059 4.251260 -0.392609
v 0.246357 4.136383 -0.181196
vt 0.500000 0.000000
vt 0.666667 0.333333
vt 0.333333 0.333333
vt 0.166667 0.000000
vt 0.000000 0.333333
vt 0.833333 0.000000
vt 1.000000 0.333333
vn -0.5757 0.4660 -0.6719
vn 0.8263 0.4140 -0.3820
vn -0.2168 -0.0233 0.9759
vn 0.1308 -0.8276 -0.5458
usemtl None
s off
f 3/1/1 1/2/1 2/3/1
f 3/4/2 2/3/2 4/5/2
f 2/3/3 1/2/3 4/5/3
f 3/6/4 4/7/4 1/2/4
o Sphere.003
v -0.320148 5.847826 0.028441
v -0.238924 6.187804 -0.022996
v -0.406334 6.015289 -0.214199
v -0.109501 5.940525 -0.239630
vt 0.500000 0.000000
vt 0.666667 0.333333
vt 0.333333 0.333333
vt 0.166667 0.000000
vt 0.000000 0.333333
vt 0.833333 0.000000
vt 1.000000 0.333333
vn -0.8322 0.2719 0.4833
vn 0.1116 0.6873 -0.7178
vn 0.7990 -0.1012 0.5928
vn -0.2523 -0.8360 -0.4873
usemtl None
s off
f 7/8/5 5/9/5 6/10/5
f 7/11/6 6/10/6 8/12/6
f 6/10/7 5/9/7 8/12/7
f 7/13/8 8/14/8 5/9/8
o Cylinder.005
v 0.335706 3.369956 0.137289
v 0.203591 3.333941 0.079572
v 0.330429 3.263779 0.096910
v 0.198314 3.227764 0.039193
v 0.337863 3.351625 0.025079
v 0.205748 3.315610 -0.032638
v 0.513537 3.472308 0.040621
v 0.511157 3.407196 -0.013472
v 0.516829 3.486432 -0.042811
v 0.670776 3.725027 0.017386
v 0.669672 3.694817 -0.007711
v 0.672303 3.731580 -0.021324
vt 1.000000 0.500000
vt 1.000000 1.000000
vt 0.666667 1.000000
vt 0.666667 0.500000
vt 0.333333 1.000000
vt 0.333333 0.500000
vt 0.457846 0.130000
vt 0.250000 0.490000
vt 0.042154 0.130000
vt -0.000000 1.000000
vt -0.000000 0.500000
vt -0.000000 0.500000
vt 0.333333 0.500000
vt -0.000000 0.500000
vt 0.333333 0.500000
vt 0.666667 0.500000
vt 1.000000 0.500000
vt 0.750000 0.490000
vt 0.957846 0.130000
vt 0.542154 0.130000
vt 0.666667 0.500000
vt 1.000000 0.500000
vn -0.3026 -0.3256 0.8958
vn 0.4531 -0.5870 -0.6709
vn -0.9977 0.0606 -0.0291
vn -0.1931 0.9677 -0.1618
vn -0.5639 0.8252 -0.0335
vn -0.8454 0.5312 0.0566
vn -0.0248 -0.5164 -0.8560
vn 0.6463 -0.3905 0.6556
vn 0.9977 -0.0606 0.0291
vn 0.5990 -0.3154 -0.7360
vn 0.7623 -0.4298 0.4838
usemtl None
s off
f 9/15/9 10/16/9 12/17/9 11/18/9
f 11/18/10 12/17/10 14/19/10 13/20/10
f 12/21/11 10/22/11 14/23/11
f 13/20/12 14/19/12 10/24/12 9/25/12
f 13/20/13 9/25/13 15/26/13 17/27/13
f 17/27/14 15/26/14 18/28/14 20/29/14
f 11/18/15 13/20/15 17/27/15 16/30/15
f 9/15/16 11/18/16 16/30/16 15/31/16
f 18/32/17 19/33/17 20/34/17
f 16/30/18 17/27/18 20/29/18 19/35/18
f 15/31/19 16/30/19 19/35/19 18/36/19
o Cylinder.006
v -0.477023 3.452779 0.236143
v -0.308727 3.478019 0.052691
v -0.407185 3.395424 0.305173
v -0.227689 3.452006 0.128111
v -0.400076 3.508721 0.298446
v -0.245870 3.560512 0.099337
v -0.661760 3.773685 0.412254
v -0.623279 3.727195 0.452009
v -0.609656 3.798054 0.456002
v -0.829747 3.930060 0.624315
v -0.805387 3.900630 0.649482
v -0.796763 3.945487 0.652009
vt 1.000000 0.500000
vt 1.000000 1.000000
vt 0.666667 1.000000
vt 0.666667 0.500000
vt 0.333333 1.000000
vt 0.333333 0.500000
vt 0.457846 0.130000
vt 0.250000 0.490000
vt 0.042154 0.130000
vt -0.000000 1.000000
vt -0.000000 0.500000
vt -0.000000 0.500000
vt 0.333333 0.500000
vt 0.666667 0.500000
vt 1.000000 0.500000
vt -0.000000 0.500000
vt 0.333333 0.500000
vt 1.000000 0.500000
vt 0.666667 0.500000
vn -0.1600 -0.9181 -0.3627
vn 0.7191 0.1447 0.6796
vn 0.6639 -0.0858 -0.7429
vn -0.5430 0.7844 -0.2998
vn 0.2627 0.5880 -0.7650
vn 0.5341 -0.0476 0.8441
vn -0.7803 -0.5866 0.2170
vn 0.0755 0.8302 -0.5524
vn -0.6639 0.0858 0.7429
vn 0.6477 -0.1664 0.7435
vn -0.7324 -0.6760 -0.0816
usemtl None
s off
f 21/37/20 22/38/20 24/39/20 23/40/20
f 23/40/21 24/39/21 26/41/21 25/42/21
f 24/43/22 22/44/22 26/45/22
f 25/42/23 26/41/23 22/46/23 21/47/23
f 25/42/24 21/47/24 27/48/24 29/49/24
f 23/40/25 25/42/25 29/49/25 28/50/25
f 21/37/26 23/40/26 28/50/26 27/51/26
f 29/49/27 27/48/27 30/52/27 32/53/27
f 32/53/28 30/54/28 31/55/28
f 28/50/29 29/49/29 32/53/29 31/55/29
f 27/51/30 28/50/30 31/55/30 30/54/30
o Cylinder.007
v 0.245203 2.393704 -0.345352
v 0.164463 2.370688 -0.193887
v 0.177330 2.268340 -0.388336
v 0.072488 2.268191 -0.250501
v 0.116943 2.400546 -0.420670
v 0.040968 2.412935 -0.265542
v 0.385407 2.533878 -0.515355
v 0.309047 2.468045 -0.561891
v 0.297261 2.578378 -0.566153
vt 1.000000 0.500000
vt 1.000000 1.000000
vt 0.666667 1.000000
vt 0.666667 0.500000
vt 0.333333 1.000000
vt 0.333333 0.500000
vt 0.457846 0.130000
vt 0.250000 0.490000
vt 0.042154 0.130000
vt -0.000000 1.000000
vt -0.000000 0.500000
vt -0.000000 0.500000
vt 0.333333 0.500000
vt 1.000000 0.500000
vt 0.666667 0.500000
vn 0.6712 -0.6368 0.3796
vn -0.8039 -0.3491 -0.4816
vn -0.5071 -0.0209 0.8616
vn 0.1327 0.9859 0.1020
vn -0.1705 0.7752 0.6082
vn 0.5071 0.0209 -0.8616
vn -0.5053 -0.2738 -0.8183
vn 0.7925 -0.6093 0.0245
usemtl None
s off
f 33/56/31 34/57/31 36/58/31 35/59/31
f 35/59/32 36/58/32 38/60/32 37/61/32
f 36/62/33 34/63/33 38/64/33
f 37/61/34 38/60/34 34/65/34 33/66/34
f 37/61/35 33/66/35 39/67/35 41/68/35
f 39/69/36 40/70/36 41/68/36
f 35/59/37 37/61/37 41/68/37 40/70/37
f 33/56/38 35/59/38 40/70/38 39/69/38
o Sphere.004
v -0.371798 2.803319 -0.023950
v -0.183200 3.005887 -0.243552
v -0.432724 2.844917 -0.322118
v -0.192745 2.655832 -0.290437
vt 0.500000 0.000000
vt 0.666667 0.333333
vt 0.333333 0.333333
vt 0.166667 0.000000
vt 0.000000 0.333333
vt 0.833333 0.000000
vt 1.000000 0.333333
vn -0.5774 0.7841 0.2274
vn 0.2248 0.1233 -0.9666
vn 0.7990 -0.1012 0.5928
vn -0.6202 -0.7842 0.0173
usemtl None
s off
f 44/71/39 42/72/39 43/73/39
f 44/74/40 43/73/40 45/75/40
f 43/73/41 42/72/41 45/75/41
f 44/76/42 45/77/42 42/72/42
o Sphere.005
v 0.131393 4.428406 0.194065
v -0.112133 4.398803 0.313616
v 0.064132 4.332983 0.355062
v 0.015953 4.185573 0.240747
vt 0.500000 0.000000
vt 0.666667 0.333333
vt 0.333333 0.333333
vt 0.166667 0.000000
vt 0.000000 0.333333
vt 0.833333 0.000000
vt 1.000000 0.333333
vn 0.1734 0.8137 0.5548
vn -0.3690 -0.4913 0.7890
vn -0.4442 0.0391 -0.8951
vn 0.9045 -0.4033 0.1388
usemtl None
s off
f 48/78/43 46/79/43 47/80/43
f 48/81/44 47/80/44 49/82/44
f 47/80/45 46/79/45 49/82/45
f 48/83/46 49/84/46 46/79/46
o Sphere.006
v 0.144642 2.098343 0.236636
v -0.039899 1.915502 0.320227
v 0.146444 1.942963 0.360745
v 0.177404 1.828872 0.208613
vt 0.500000 0.000000
vt 0.666667 0.333333
vt 0.333333 0.333333
vt 0.166667 0.000000
vt 0.000000 0.333333
vt 0.833333 0.000000
vt 1.000000 0.333333
vn -0.2534 0.6019 0.7573
vn -0.0120 -0.8011 0.5984
vn -0.4442 0.0391 -0.8951
vn 0.9869 0.1075 0.1202
usemtl None
s off
f 52/85/47 50/86/47 51/87/47
f 52/88/48 51/87/48 53/89/48
f 51/87/49 50/86/49 53/89/49
f 52/90/50 53/91/50 50/86/50
o Cylinder.008
v 0.239902 5.635848 -0.311222
v 0.150611 5.612272 -0.192264
v 0.190053 5.505743 -0.313473
v 0.116087 5.476128 -0.166418
v 0.104966 5.613385 -0.337774
v 0.028686 5.558531 -0.243658
v 0.182973 5.732234 -0.521900
v 0.101471 5.648896 -0.529629
v 0.073359 5.754421 -0.488136
v 0.183108 5.993558 -0.654525
v 0.144072 5.931701 -0.662460
v 0.116647 5.995783 -0.686008
vt 1.000000 0.500000
vt 1.000000 1.000000
vt 0.666667 1.000000
vt 0.666667 0.500000
vt 0.333333 1.000000
vt 0.333333 0.500000
vt 0.457846 0.130000
vt 0.250000 0.490000
vt 0.042154 0.130000
vt -0.000000 1.000000
vt -0.000000 0.500000
vt -0.000000 0.500000
vt 0.333333 0.500000
vt -0.000000 0.500000
vt 0.333333 0.500000
vt 0.666667 0.500000
vt 1.000000 0.500000
vt 0.750000 0.490000
vt 0.957846 0.130000
vt 0.542154 0.130000
vt 0.666667 0.500000
vt 1.000000 0.500000
vn 0.8496 -0.2271 0.4760
vn -0.4628 -0.7063 -0.5357
vn -0.4748 0.2789 0.8347
vn -0.3120 0.9442 0.1051
vn 0.0152 0.8371 0.5468
vn 0.0860 0.5421 0.8359
vn -0.8834 -0.4635 -0.0697
vn 0.7478 -0.4368 -0.5000
vn 0.4192 -0.1497 -0.8955
vn -0.8136 -0.2090 -0.5426
vn 0.5704 -0.3959 -0.7197
usemtl None
s off
f 54/92/51 55/93/51 57/94/51 56/95/51
f 56/95/52 57/94/52 59/96/52 58/97/52
f 57/98/53 55/99/53 59/100/53
f 58/97/54 59/96/54 55/101/54 54/102/54
f 58/97/55 54/102/55 60/103/55 62/104/55
f 62/104/56 60/103/56 63/105/56 65/106/56
f 56/95/57 58/97/57 62/104/57 61/107/57
f 54/92/58 56/95/58 61/107/58 60/108/58
f 63/109/59 64/110/59 65/111/59
f 61/107/60 62/104/60 65/106/60 64/112/60
f 60/108/61 61/107/61 64/112/61 63/113/61
o Cylinder.009
v 0.205863 5.867765 0.373716
v 0.051012 5.893071 0.171927
v 0.278660 5.810314 0.307899
v 0.139393 5.867058 0.105264
v 0.277413 5.924001 0.305525
v 0.107893 5.975563 0.118155
v 0.350917 6.034658 0.593304
v 0.396767 5.988168 0.562335
v 0.403071 6.059027 0.549615
v 0.453127 6.193459 0.697045
v 0.491280 6.158044 0.701781
v 0.499297 6.201529 0.673904
vt 1.000000 0.500000
vt 1.000000 1.000000
vt 0.666667 1.000000
vt 0.666667 0.500000
vt 0.333333 1.000000
vt 0.333333 0.500000
vt 0.457846 0.130000
vt 0.250000 0.490000
vt 0.042154 0.130000
vt -0.000000 1.000000
vt -0.000000 0.500000
vt -0.000000 0.500000
vt 0.333333 0.500000
vt 0.666667 0.500000
vt 1.000000 0.500000
vt -0.000000 0.500000
vt 0.333333 0.500000
vt 1.000000 0.500000
vt 0.666667 0.500000
vn -0.3919 -0.9146 0.0994
vn 0.7949 0.1450 -0.5891
vn -0.6159 -0.0858 -0.7831
vn -0.3910 0.7848 0.4809
vn -0.6244 0.7691 -0.1363
vn 0.9108 -0.0584 -0.4087
vn -0.1477 -0.7590 0.6341
vn -0.5432 0.7040 -0.4575
vn 0.3302 0.4655 0.8211
vn 0.8994 -0.2419 -0.3640
vn -0.2176 -0.4930 0.8424
usemtl None
s off
f 66/114/62 67/115/62 69/116/62 68/117/62
f 68/117/63 69/116/63 71/118/63 70/119/63
f 69/120/64 67/121/64 71/122/64
f 70/119/65 71/118/65 67/123/65 66/124/65
f 70/119/66 66/124/66 72/125/66 74/126/66
f 68/117/67 70/119/67 74/126/67 73/127/67
f 66/114/68 68/117/68 73/127/68 72/128/68
f 74/126/69 72/125/69 75/129/69 77/130/69
f 77/130/70 75/131/70 76/132/70
f 73/127/71 74/126/71 77/130/71 76/132/71
f 72/128/72 73/127/72 76/132/72 75/131/72
o Cylinder.010
v -0.414806 4.728735 -0.384325
v -0.169250 4.782447 -0.228753
v -0.468955 4.603372 -0.324976
v -0.241019 4.679950 -0.148044
v -0.511312 4.735577 -0.271143
v -0.261319 4.824693 -0.119626
v -0.557792 4.868909 -0.551996
v -0.616916 4.803077 -0.484908
v -0.623165 4.913409 -0.474044
vt 1.000000 0.500000
vt 1.000000 1.000000
vt 0.666667 1.000000
vt 0.666667 0.500000
vt 0.333333 1.000000
vt 0.333333 0.500000
vt 0.457846 0.130000
vt 0.250000 0.490000
vt 0.042154 0.130000
vt -0.000000 1.000000
vt -0.000000 0.500000
vt -0.000000 0.500000
vt 0.333333 0.500000
vt 1.000000 0.500000
vt 0.666667 0.500000
vn 0.5529 -0.6363 -0.5380
vn -0.4469 -0.3461 0.8249
vn 0.7601 -0.0209 0.6494
vn -0.0945 0.9522 -0.2904
vn 0.5692 0.7752 0.2738
vn -0.7601 0.0209 -0.6494
vn -0.8938 -0.2738 0.3551
vn 0.1621 -0.6093 -0.7762
usemtl None
s off
f 78/133/73 79/134/73 81/135/73 80/136/73
f 80/136/74 81/135/74 83/137/74 82/138/74
f 81/139/75 79/140/75 83/141/75
f 82/138/76 83/137/76 79/142/76 78/143/76
f 82/138/77 78/143/77 84/144/77 86/145/77
f 84/146/78 85/147/78 86/145/78
f 80/136/79 82/138/79 86/145/79 85/147/79
f 78/133/80 80/136/80 85/147/80 84/146/80
o Cylinder.004
v 0.311442 -0.178061 -0.537555
v 0.492782 -0.196895 0.146771
v -0.064941 -0.160960 0.559213
v -0.758403 -0.326225 0.238703
v -0.478857 -0.190822 -0.508927
v -0.000000 20.000000 0.000000
v -0.185469 0.072167 -0.481229
v 0.293938 0.035093 -0.295597
v 0.339364 0.018019 0.298722
v -0.294196 0.086688 0.529099
v -0.488073 0.256916 -0.044755
v -0.161456 0.639083 -0.422549
v 0.306735 0.533784 -0.250783
v 0.292461 0.589552 0.249404
v -0.186181 0.681889 0.387579
v -0.468959 0.647271 -0.026600
v -0.105227 -0.601614 -0.937573
v 0.733736 -0.573143 -0.383041
v 0.427148 -0.605272 0.721890
v -1.033836 -0.674282 -0.337514
v -0.600418 -0.616490 0.722764
vt 0.600000 0.875000
vt 0.400000 1.000000
vt 0.400000 0.875000
vt 0.200000 1.000000
vt 0.200000 0.875000
vt 0.800000 1.000000
vt 0.800000 0.875000
vt 1.000000 0.875000
vt 0.600000 1.000000
vt 0.200000 0.500000
vt 0.200000 0.750000
vt 0.000000 0.750000
vt 0.000000 0.500000
vt 0.400000 0.500000
vt 0.400000 0.750000
vt 0.600000 0.500000
vt 0.600000 0.750000
vt 0.800000 0.500000
vt 0.800000 0.750000
vt 1.000000 0.500000
vt 1.000000 0.750000
vt 0.000000 0.875000
vt 0.000000 1.000000
vt 0.700000 0.500000
vt 0.900000 0.500000
vt 0.500000 0.500000
vt 0.100000 0.500000
vt 0.300000 0.500000
vt 1.000000 0.500000
vn 0.2803 0.0166 0.9598
vn -0.8265 0.0193 0.5627
vn 0.3478 0.0176 -0.9374
vn 0.9995 0.0154 0.0268
vn -0.2978 0.4224 -0.8561
vn -0.8983 0.4373 0.0429
vn -0.0716 0.0548 0.9959
vn 0.8510 0.3054 0.4273
vn 0.6639 0.5843 -0.4667
vn -0.7943 0.0841 -0.6017
vn -0.8784 0.1693 0.4470
vn 0.3293 0.1356 0.9344
vn 0.9991 0.0317 -0.0296
vn 0.3620 0.0777 -0.9289
vn -0.7894 0.0200 -0.6135
vn -0.9372 -0.2248 -0.2666
vn 0.0029 -0.3410 -0.9401
vn -0.0370 0.7052 -0.7081
vn 0.4521 0.7021 0.5501
vn 0.7056 0.6884 -0.1680
vn -0.6729 0.7301 -0.1194
vn 0.9216 -0.1161 -0.3704
vn -0.5284 -0.2472 0.8122
vn 0.5302 -0.3319 0.7802
vn -0.4287 0.7062 0.5634
vn 0.0638 -0.9979 -0.0109
usemtl None
s off
f 100/148/81 92/149/81 101/150/81
f 101/150/82 92/151/82 102/152/82
f 92/153/83 99/154/83 98/155/83
f 99/154/84 92/156/84 100/148/84
f 91/157/85 97/158/85 93/159/85 87/160/85
f 90/161/86 96/162/86 97/158/86 91/157/86
f 89/163/87 95/164/87 96/162/87 90/161/87
f 88/165/88 94/166/88 95/164/88 89/163/88
f 87/167/89 93/168/89 94/166/89 88/165/89
f 97/158/90 102/152/90 98/169/90 93/159/90
f 96/162/91 101/150/91 102/152/91 97/158/91
f 95/164/92 100/148/92 101/150/92 96/162/92
f 94/166/93 99/154/93 100/148/93 95/164/93
f 93/168/94 98/155/94 99/154/94 94/166/94
f 102/152/95 92/170/95 98/169/95
f 105/171/96 88/165/96 104/172/96
f 89/163/97 105/171/97 107/173/97
f 91/157/98 87/160/98 103/174/98
f 88/165/99 89/163/99 105/171/99
f 87/167/100 88/165/100 104/172/100
f 90/161/101 91/157/101 106/175/101
f 106/175/102 90/161/102 107/173/102
f 87/160/103 103/174/103 104/172/103
f 91/157/104 106/175/104 103/174/104
f 89/163/105 90/161/105 107/173/105
f 88/165/106 105/171/106 89/163/106 107/173/106 90/161/106 106/175/106 91/157/106 103/176/106 87/167/106 104/172/106
