# Blender v3.2.0 OBJ File: 'trees.blend'
# www.blender.org
mtllib Spruce Medium 3 Leaves - LOD 1.mtl
o _Joined.007_Plane.1305
v 0.142587 10.780081 1.342760
v 3.355014 8.731325 0.854065
v -0.466091 10.427607 -1.180692
v 2.746336 8.378851 -1.669387
v -0.565009 10.748068 -0.669644
v -2.035230 9.422148 0.956307
v 0.721543 10.770738 0.512170
v -0.748679 9.444818 2.138122
v 1.334174 10.977590 0.696124
v 2.732183 8.675104 -2.607883
v -1.392561 10.720998 -0.278814
v 0.005449 8.418512 -3.582821
v -0.693142 10.402367 -0.876362
v -2.100272 8.083808 0.875317
v 0.989560 10.453279 0.542747
v -0.417570 8.134720 2.294425
v 1.101961 10.794951 -0.212160
v 0.156341 8.780777 -2.601591
v -0.981380 10.842484 0.572256
v -1.927000 8.828310 -1.817174
v -0.048690 10.618910 0.980295
v 2.523545 9.421236 0.826154
v -0.137555 10.677081 -0.954639
v 2.434680 9.479407 -1.108780
v -0.396459 10.562123 -1.015658
v -2.661398 8.692978 0.051616
v 0.657799 10.333892 0.821951
v -1.607140 8.464747 1.889226
v -1.064606 10.324656 0.578048
v 0.849797 8.103827 2.673222
v 0.869956 10.583368 -0.915373
v 2.784359 8.362539 1.179801
v -0.512986 11.528121 0.767928
v 1.625056 10.605697 2.042878
v 0.389472 11.453100 -0.799735
v 2.527514 10.530676 0.475215
v -0.915042 12.101162 0.013223
v -0.737125 10.614200 2.112221
v 0.805577 11.890445 -0.281897
v 0.983494 10.403482 1.817102
v 0.844975 11.687831 -0.272313
v -0.093514 10.291489 -2.225673
v -0.748063 11.719003 0.470778
v -1.686553 10.322660 -1.482581
v 0.145397 11.931480 -0.774256
v -1.835249 10.778831 -0.944939
v 0.050453 11.863215 0.788505
v -1.930193 10.710566 0.617822
v 0.548090 11.486997 -0.899245
v -1.809857 10.120611 -2.152404
v -0.320439 11.296265 0.942948
v -2.678386 9.929878 -0.310212
v -0.139250 11.476716 1.157237
v 2.768484 9.502754 0.886461
v -0.213292 11.695861 -1.235436
v 2.694442 9.721899 -1.506212
v -0.799806 11.035632 -0.850406
v -2.474448 9.118680 1.435923
v 1.033402 11.150342 0.588520
v -0.641240 9.233390 2.874849
v -0.680363 11.183601 0.748382
v 1.299876 9.924160 2.370047
v 0.488875 11.029886 -0.798773
v 2.469115 9.770446 0.822892
v -0.116718 13.060459 0.750931
v 1.869495 12.298598 0.978625
v 0.006896 12.949508 -0.698616
v 1.993109 12.187647 -0.470922
v -0.617234 12.478909 -0.516716
v -1.868344 11.674293 1.214047
v 0.659001 12.403631 0.370837
v -0.592109 11.599015 2.101599
v 0.976660 12.381041 0.222109
v 1.042265 10.794751 -2.290917
v -1.039417 12.532187 0.074070
v -0.973812 10.945899 -2.438957
v 0.757913 12.399495 -0.448914
v -0.620042 10.762785 -1.906382
v -0.583103 12.510817 0.693931
v -1.961058 10.874106 -0.763538
v 0.483000 12.452045 -0.877029
v -1.722575 10.627407 -1.512715
v -0.177990 12.595429 1.004778
v -2.383566 10.770791 0.369091
v 0.643512 12.674597 -0.064785
v 0.220144 11.778322 -1.741755
v -0.653194 12.805345 0.192702
v -1.076562 11.909070 -1.484268
v -0.776076 12.632158 0.037678
v -0.601425 11.984017 2.191785
v 0.756424 12.599728 -0.096332
v 0.931075 11.951587 2.057775
v -0.793661 12.195955 0.889715
v 1.638538 10.784750 2.822270
v 0.580136 12.005156 -0.978592
v 3.012336 10.593949 0.953964
v 0.108032 13.975596 0.624172
v 1.717329 13.132564 0.039250
v -0.252814 14.146315 -0.614677
v 1.356483 13.303282 -1.199599
v -0.827974 13.721686 0.361160
v 0.553956 12.283541 2.255175
v 0.757015 13.962186 -0.612680
v 2.138944 12.524041 1.281335
v 0.957990 14.155360 -0.154968
v 0.608222 12.712885 -2.416308
v -0.758488 13.738274 0.376578
v -1.108255 12.295797 -1.884762
v 0.234174 13.558229 -0.932803
v -1.913329 11.832993 -1.135811
v 0.083467 13.524918 0.944535
v -2.064035 11.799682 0.741527
v 0.647221 13.310781 -0.067649
v 0.493750 12.993323 -1.871267
v -0.586664 13.137858 0.067780
v -0.740136 12.820401 -1.735838
v 0.561609 13.519448 0.617772
v 2.001162 12.400461 -0.969326
v -0.671834 13.483023 -0.475321
v 0.767719 12.364037 -2.062419
v -0.828059 13.809000 -0.231298
v -1.258348 12.536288 1.831098
v 0.824213 13.688226 0.038894
v 0.393925 12.415514 2.101290
v -0.549036 13.165444 0.262960
v 0.332511 12.538446 1.725396
v 0.525085 13.238007 -0.353403
v 1.406632 12.611009 1.109033
v -0.399941 13.978427 0.520113
v 1.111828 13.246538 1.486283
v 0.306261 13.962877 -0.596662
v 1.818030 13.230988 0.369508
v -0.289489 14.012251 -0.438027
v -1.444789 13.577196 0.484215
v 0.344909 14.094865 0.395660
v -0.810391 13.659809 1.317902
v 0.373317 14.232586 0.333074
v 1.197090 13.737803 -0.821367
v -0.436895 14.328711 -0.286267
v 0.386878 13.833928 -1.440708
v 0.383041 14.455813 0.355180
v 1.399102 14.073820 -0.736876
v -0.394001 14.402308 -0.349073
v 0.622061 14.020314 -1.441129
v 0.207011 13.905872 -0.650030
v -1.504049 12.861771 -0.833846
v -0.038004 14.071407 0.690446
v -1.749065 13.027306 0.506630
v 0.677220 14.194723 -0.215037
v -0.114191 13.203327 -1.882283
v -0.625953 14.255592 0.367360
v -1.417364 13.264198 -1.299886
v -0.501637 14.277646 0.251052
v 0.440789 13.457055 1.440637
v 0.460955 14.426291 -0.409005
v 1.403380 13.605700 0.780581
v 0.254707 14.451621 0.564419
v 1.689983 13.718527 -0.177701
v -0.337262 14.356621 -0.486617
v 1.098013 13.623526 -1.228737
vt 0.000085 0.999915
vt 0.000085 0.000085
vt 0.726052 0.000085
vt 0.726052 0.999915
vt 0.726052 0.000085
vt 0.726052 0.999915
vt 0.000085 0.999915
vt 0.000085 0.000085
vt 0.000085 0.999915
vt 0.000085 0.000085
vt 0.726052 0.000085
vt 0.726052 0.999915
vt 0.000085 0.999915
vt 0.000085 0.000085
vt 0.726052 0.000085
vt 0.726052 0.999915
vt 0.726052 0.000085
vt 0.726052 0.999915
vt 0.000085 0.999915
vt 0.000085 0.000085
vt 0.000085 0.999915
vt 0.000085 0.000085
vt 0.726052 0.000085
vt 0.726052 0.999915
vt 0.726052 0.000085
vt 0.726052 0.999915
vt 0.000085 0.999915
vt 0.000085 0.000085
vt 0.000085 0.999915
vt 0.000085 0.000085
vt 0.726052 0.000085
vt 0.726052 0.999915
vt 0.000085 0.999915
vt 0.000085 0.000085
vt 0.726052 0.000085
vt 0.726052 0.999915
vt 0.726052 0.000085
vt 0.726052 0.999915
vt 0.000085 0.999915
vt 0.000085 0.000085
vt 0.726052 0.000085
vt 0.726052 0.999915
vt 0.000085 0.999915
vt 0.000085 0.000085
vt 0.000085 0.999915
vt 0.000085 0.000085
vt 0.726052 0.000085
vt 0.726052 0.999915
vt 0.726052 0.000085
vt 0.726052 0.999915
vt 0.000085 0.999915
vt 0.000085 0.000085
vt 0.000085 0.999915
vt 0.000085 0.000085
vt 0.726052 0.000085
vt 0.726052 0.999915
vt 0.726052 0.000085
vt 0.726052 0.999915
vt 0.000085 0.999915
vt 0.000085 0.000085
vt 0.000085 0.999915
vt 0.000085 0.000085
vt 0.726052 0.000085
vt 0.726052 0.999915
vt 0.000085 0.999915
vt 0.000085 0.000085
vt 0.726052 0.000085
vt 0.726052 0.999915
vt 0.000085 0.999915
vt 0.000085 0.000085
vt 0.726052 0.000085
vt 0.726052 0.999915
vt 0.000085 0.999915
vt 0.000085 0.000085
vt 0.726052 0.000085
vt 0.726052 0.999915
vt 0.726052 0.000085
vt 0.726052 0.999915
vt 0.000085 0.999915
vt 0.000085 0.000085
vt 0.726052 0.000085
vt 0.726052 0.999915
vt 0.000085 0.999915
vt 0.000085 0.000085
vt 0.000085 0.999915
vt 0.000085 0.000085
vt 0.726052 0.000085
vt 0.726052 0.999915
vt 0.000085 0.999915
vt 0.000085 0.000085
vt 0.726052 0.000085
vt 0.726052 0.999915
vt 0.000085 0.999915
vt 0.000085 0.000085
vt 0.726052 0.000085
vt 0.726052 0.999915
vt 0.000085 0.999915
vt 0.000085 0.000085
vt 0.726052 0.000085
vt 0.726052 0.999915
vt 0.726052 0.000085
vt 0.726052 0.999915
vt 0.000085 0.999915
vt 0.000085 0.000085
vt 0.726052 0.000085
vt 0.726052 0.999915
vt 0.000085 0.999915
vt 0.000085 0.000085
vt 0.000085 0.999915
vt 0.000085 0.000085
vt 0.726052 0.000085
vt 0.726052 0.999915
vt 0.000085 0.999915
vt 0.000085 0.000085
vt 0.726052 0.000085
vt 0.726052 0.999915
vt 0.726052 0.000085
vt 0.726052 0.999915
vt 0.000085 0.999915
vt 0.000085 0.000085
vt 0.726052 0.000085
vt 0.726052 0.999915
vt 0.000085 0.999915
vt 0.000085 0.000085
vt 0.726052 0.000085
vt 0.726052 0.999915
vt 0.000085 0.999915
vt 0.000085 0.000085
vt 0.726052 0.000085
vt 0.726052 0.999915
vt 0.000085 0.999915
vt 0.000085 0.000085
vt 0.726052 0.000085
vt 0.726052 0.999915
vt 0.000085 0.999915
vt 0.000085 0.000085
vt 0.000085 0.999915
vt 0.000085 0.000085
vt 0.726052 0.000085
vt 0.726052 0.999915
vt 0.000085 0.999915
vt 0.000085 0.000085
vt 0.726052 0.000085
vt 0.726052 0.999915
vt 0.726052 0.000085
vt 0.726052 0.999915
vt 0.000085 0.999915
vt 0.000085 0.000085
vt 0.000085 0.999915
vt 0.000085 0.000085
vt 0.726052 0.000085
vt 0.726052 0.999915
vt 0.000085 0.999915
vt 0.000085 0.000085
vt 0.726052 0.000085
vt 0.726052 0.999915
vt 0.726052 0.000085
vt 0.726052 0.999915
vt 0.000085 0.999915
vt 0.000085 0.000085
vn 0.4966 0.8351 -0.2364
vn -0.3583 0.8556 0.3737
vn 0.1127 0.8369 -0.5356
vn -0.4754 0.6955 0.5387
vn -0.2017 0.7868 -0.5834
vn 0.4225 0.9063 0.0078
vn -0.4793 0.7941 0.3736
vn 0.3133 0.7805 0.5410
vn 0.3208 0.9368 0.1398
vn 0.1943 0.8081 0.5560
vn -0.2155 0.8404 -0.4972
vn -0.5034 0.8640 0.0072
vn -0.4492 0.8853 -0.1201
vn 0.5644 0.8235 0.0580
vn -0.3784 0.8268 0.4161
vn 0.3961 0.8938 0.2105
vn 0.3619 0.9313 -0.0404
vn -0.1644 0.9345 0.3156
vn 0.1020 0.8424 -0.5291
vn -0.3738 0.7722 -0.5138
vn -0.5700 0.7795 -0.2596
vn -0.0045 0.8824 -0.4705
vn 0.0451 0.9576 0.2845
vn 0.3785 0.9068 0.1857
vn 0.4606 0.8875 -0.0119
vn 0.1832 0.8427 0.5062
vn -0.3427 0.8152 -0.4670
vn -0.6238 0.7807 -0.0362
vn -0.1541 0.9753 -0.1585
vn 0.2924 0.8861 -0.3595
vn -0.0229 0.8529 0.5215
vn 0.1242 0.9369 0.3268
vn 0.3251 0.9258 0.1927
vn -0.2710 0.9561 0.1115
vn 0.2713 0.9395 -0.2091
vn 0.1302 0.9674 -0.2172
vn -0.4955 0.8464 -0.1951
vn -0.1590 0.8799 -0.4477
vn 0.1797 0.8705 0.4581
vn 0.3260 0.9073 -0.2656
usemtl Material.1014
s off
f 4/1/1 3/2/1 1/3/1 2/4/1
usemtl Material.1015
f 5/5/2 6/6/2 8/7/2 7/8/2
usemtl Material.1016
f 12/9/3 11/10/3 9/11/3 10/12/3
usemtl Material.1017
f 16/13/4 15/14/4 13/15/4 14/16/4
usemtl Material.1018
f 17/17/5 18/18/5 20/19/5 19/20/5
usemtl Material.1019
f 24/21/6 23/22/6 21/23/6 22/24/6
usemtl Material.1020
f 25/25/7 26/26/7 28/27/7 27/28/7
usemtl Material.1021
f 32/29/8 31/30/8 29/31/8 30/32/8
usemtl Material.1022
f 36/33/9 35/34/9 33/35/9 34/36/9
usemtl Material.1023
f 37/37/10 38/38/10 40/39/10 39/40/10
usemtl Material.1024
f 41/41/11 42/42/11 44/43/11 43/44/11
usemtl Material.1025
f 48/45/12 47/46/12 45/47/12 46/48/12
usemtl Material.1026
f 49/49/13 50/50/13 52/51/13 51/52/13
usemtl Material.1027
f 56/53/14 55/54/14 53/55/14 54/56/14
usemtl Material.1028
f 57/57/15 58/58/15 60/59/15 59/60/15
usemtl Material.1029
f 64/61/16 63/62/16 61/63/16 62/64/16
usemtl Material.1030
f 68/65/17 67/66/17 65/67/17 66/68/17
usemtl Material.1031
f 72/69/18 71/70/18 69/71/18 70/72/18
usemtl Material.1032
f 76/73/19 75/74/19 73/75/19 74/76/19
usemtl Material.1033
f 77/77/20 78/78/20 80/79/20 79/80/20
usemtl Material.1034
f 81/81/21 82/82/21 84/83/21 83/84/21
usemtl Material.1035
f 88/85/22 87/86/22 85/87/22 86/88/22
usemtl Material.1036
f 92/89/23 91/90/23 89/91/23 90/92/23
usemtl Material.1037
f 96/93/24 95/94/24 93/95/24 94/96/24
usemtl Material.1038
f 100/97/25 99/98/25 97/99/25 98/100/25
usemtl Material.1039
f 101/101/26 102/102/26 104/103/26 103/104/26
usemtl Material.1040
f 105/105/27 106/106/27 108/107/27 107/108/27
usemtl Material.1041
f 112/109/28 111/110/28 109/111/28 110/112/28
usemtl Material.1042
f 116/113/29 115/114/29 113/115/29 114/116/29
usemtl Material.1043
f 117/117/30 118/118/30 120/119/30 119/120/30
usemtl Material.1044
f 121/121/31 122/122/31 124/123/31 123/124/31
usemtl Material.1045
f 125/125/32 126/126/32 128/127/32 127/128/32
usemtl Material.1046
f 129/129/33 130/130/33 132/131/33 131/132/33
usemtl Material.1047
f 133/133/34 134/134/34 136/135/34 135/136/34
usemtl Material.1048
f 140/137/35 139/138/35 137/139/35 138/140/35
usemtl Material.1049
f 144/141/36 143/142/36 141/143/36 142/144/36
usemtl Material.1050
f 145/145/37 146/146/37 148/147/37 147/148/37
usemtl Material.1051
f 152/149/38 151/150/38 149/151/38 150/152/38
usemtl Material.1052
f 156/153/39 155/154/39 153/155/39 154/156/39
usemtl Material.1053
f 157/157/40 158/158/40 160/159/40 159/160/40
