# Blender v3.2.0 OBJ File: 'trees.blend'
# www.blender.org
mtllib Spruce Small 1 Leaves - LOD 1.mtl
o _Joined_Plane.1373
v -0.113314 3.761930 0.699558
v 1.872773 3.356073 0.999924
v 0.084366 3.706244 -0.682786
v 2.070452 3.300388 -0.382420
v -0.981105 3.622198 -0.193528
v -1.534840 2.865053 2.444970
v 0.871206 3.253791 0.089493
v 0.317471 2.496647 2.727991
v 1.031788 3.277147 0.341468
v 0.767936 0.863088 -1.948065
v -1.189340 3.724851 0.125383
v -1.453192 1.310793 -2.164150
v -0.076938 3.082721 -0.626603
v -1.917020 2.515774 -0.208772
v 0.155472 3.291510 0.680208
v -1.684609 2.724564 1.098039
v 0.693133 3.130220 -0.648050
v -1.492591 1.869273 -2.234385
v -0.614890 3.494649 0.864524
v -2.800613 2.233702 -0.721811
v 0.605545 3.640559 0.813471
v 2.303186 1.960061 -0.898398
v -0.815334 3.644968 -0.599926
v 0.882306 1.964470 -2.311796
v -0.060205 2.411566 -1.198645
v -3.146234 1.021799 -0.934506
v 0.259595 2.134031 1.077437
v -2.826435 0.744264 1.341576
v -0.715269 2.455227 0.748898
v 1.673869 1.469577 2.605784
v 0.674909 2.727401 -0.895284
v 3.064047 1.741751 0.961602
v -0.997825 3.447932 0.533700
v 0.747037 2.028175 3.020858
v 0.901612 3.559528 -0.735144
v 2.646474 2.139771 1.752014
v -0.601677 3.760606 -0.937515
v -2.200967 1.514781 0.842662
v 0.942066 3.938033 0.673204
v -0.657224 1.692209 2.453381
v 0.583829 3.732230 0.760224
v 2.798933 3.763497 -0.779866
v -0.450862 3.444524 -0.733810
v 1.764241 3.475791 -2.273899
v 0.332146 4.217023 -0.545793
v -1.398714 3.982410 -1.569907
v -0.384307 4.465585 0.608147
v -2.115169 4.230972 -0.415968
v 0.385454 3.900637 -0.994419
v -2.308310 2.737426 -1.867868
v -0.210499 3.780961 1.002909
v -2.904262 2.617750 0.129460
v 0.921469 4.514865 0.222253
v 1.535619 3.724109 -2.236641
v -0.826027 4.171154 -0.103679
v -0.211878 3.380397 -2.562573
v -0.772173 4.205150 0.036630
v -0.345832 3.365624 2.275731
v 0.847085 4.490566 -0.164675
v 1.273426 3.651041 2.074426
v 0.428091 4.600220 0.695522
v 2.288556 3.862476 -0.590106
v -0.499073 4.581556 -0.635490
v 1.361393 3.843812 -1.921118
v 0.031241 4.844798 0.644709
v 1.836637 4.884522 0.643577
v 0.035874 4.599834 -0.562181
v 1.841270 4.639559 -0.563313
v -0.674360 5.374990 0.351890
v 0.211368 4.460668 2.053296
v 0.514172 5.082695 -0.423921
v 1.399900 4.168372 1.277485
v 0.547598 5.207482 0.402467
v 1.682698 4.852329 -1.108360
v -0.510801 5.036036 -0.352417
v 0.624299 4.680883 -1.863244
v -0.120119 5.785393 -0.946390
v -2.232060 4.192990 -0.676377
v 0.374975 5.417892 0.758716
v -1.736965 3.825489 1.028729
v 0.546086 4.775170 -0.128786
v 0.203033 4.724264 -1.856079
v -0.617257 4.973699 0.096412
v -0.960310 4.922792 -1.630882
v 0.611016 5.008767 0.817120
v 2.780662 4.075689 -0.793403
v -0.628692 4.646632 -0.643167
v 1.540954 3.713554 -2.253691
v -0.756820 5.210705 -0.749817
v -2.420795 3.470968 1.001964
v 0.857709 4.852575 0.428119
v -0.806266 3.112838 2.179900
v -0.637389 5.210861 0.220021
v 0.211154 4.717206 2.148316
v 0.711808 5.510715 -0.296927
v 1.560351 5.017061 1.631368
v -0.317721 5.690391 0.851975
v 2.090554 4.910201 1.623605
v 0.225118 5.663875 -0.869051
v 2.633394 4.883685 -0.097421
v -0.519163 5.997472 -0.580899
v -2.014307 5.202616 0.841884
v 0.558562 5.837079 0.462032
v -0.936581 5.042222 1.884815
v 0.407635 5.712152 0.527347
v 1.986760 5.346106 -0.804602
v -0.468854 5.952178 -0.577760
v 1.110271 5.586132 -1.909709
v 0.297512 6.388561 -0.452774
v -0.984939 6.233412 -1.331142
v -0.299301 6.335040 0.428050
v -1.581752 6.179891 -0.450317
v 0.159846 5.791897 -0.667325
v -1.614475 5.086488 -1.038061
v -0.052117 5.641431 0.633412
v -1.826438 4.936022 0.262676
v 0.752728 5.764941 0.284784
v 1.457995 5.052781 -1.796174
v -0.746145 5.665395 -0.189138
v -0.040879 4.953235 -2.270096
v -0.629360 5.882370 -0.052872
v -0.787090 5.541821 1.701305
v 0.583540 5.745800 0.029675
v 0.425811 5.405252 1.783852
v -0.399286 6.166996 0.684698
v 1.728348 5.316904 1.579144
v 0.326918 6.415290 -0.806754
v 2.454553 5.565197 0.087691
v 0.022718 6.889925 0.490467
v 1.430625 6.916766 0.497430
v 0.028671 6.826229 -0.467723
v 1.436578 6.853069 -0.460760
v -0.424269 6.189461 0.247001
v 0.255892 5.787243 1.389093
v 0.363347 6.068080 -0.264803
v 1.043508 5.665862 0.877288
v 0.825360 6.651331 0.195905
v 1.179367 5.787815 -2.130967
v -0.860576 6.709569 -0.082203
v -0.506569 5.846053 -2.409075
v -0.003253 5.983752 -0.807439
v -2.137676 4.884984 -0.466419
v 0.184730 6.126539 0.829200
v -1.949693 5.027771 1.170220
v 0.549548 7.174771 -0.154198
v 0.115567 6.759869 -1.658411
v -0.494938 7.048420 0.181998
v -0.928920 6.633517 -1.322214
v 0.716674 6.435183 0.267270
v 1.225987 5.557578 -1.783971
v -0.782797 6.543920 -0.151563
v -0.273484 5.666315 -2.202804
v -0.691508 6.331483 -0.364982
v -1.379743 5.284940 1.628178
v 0.794219 6.478375 0.225165
v 0.105985 5.431832 2.218325
v -0.276564 6.658394 0.825041
v 1.945914 6.005684 1.593045
v 0.177915 6.356045 -0.747108
v 2.400393 5.703336 0.020895
v -0.295528 7.267695 0.375398
v 0.802349 7.147680 1.268454
v 0.317865 7.309510 -0.373056
v 1.415742 7.189495 0.520000
v -0.473591 6.746115 -0.452187
v -1.710514 6.273201 0.953555
v 0.509865 6.776280 0.423311
v -0.727059 6.303367 1.829053
v 0.500699 7.509704 0.240360
v 1.093487 6.928215 -1.096763
v -0.492887 7.387448 -0.146961
v 0.099901 6.805960 -1.484084
v 0.527414 7.201462 -0.407911
v -0.725534 6.146886 -1.526160
v -0.416021 7.300294 0.555962
v -1.668969 6.245718 -0.562287
v 0.234781 7.452306 -0.616590
v -1.500148 6.833635 -1.165726
v -0.156423 7.438999 0.634364
v -1.891352 6.820328 0.085228
v 0.520700 7.028862 -0.075571
v 0.148774 6.490243 -1.532870
v -0.538582 7.138874 0.154114
v -0.910507 6.600255 -1.303185
v -0.481502 7.424028 0.058811
v -0.300724 7.053370 1.377315
v 0.443683 7.332610 -0.093739
v 0.624461 6.961951 1.224765
v -0.081588 7.270936 0.663861
v 1.781512 6.990920 0.920005
v 0.073286 7.130777 -0.615855
v 1.936386 6.850762 -0.359711
vt 0.726052 0.000085
vt 0.726052 0.999915
vt 0.000085 0.999915
vt 0.000085 0.000085
vt 0.000085 0.999915
vt 0.000085 0.000085
vt 0.726052 0.000085
vt 0.726052 0.999915
vt 0.726052 0.000085
vt 0.726052 0.999915
vt 0.000085 0.999915
vt 0.000085 0.000085
vt 0.000085 0.999915
vt 0.000085 0.000085
vt 0.726052 0.000085
vt 0.726052 0.999915
vt 0.000085 0.999915
vt 0.000085 0.000085
vt 0.726052 0.000085
vt 0.726052 0.999915
vt 0.726052 0.000085
vt 0.726052 0.999915
vt 0.000085 0.999915
vt 0.000085 0.000085
vt 0.000085 0.999915
vt 0.000085 0.000085
vt 0.726052 0.000085
vt 0.726052 0.999915
vt 0.726052 0.000085
vt 0.726052 0.999915
vt 0.000085 0.999915
vt 0.000085 0.000085
vt 0.726052 0.000085
vt 0.726052 0.999915
vt 0.000085 0.999915
vt 0.000085 0.000085
vt 0.726052 0.000085
vt 0.726052 0.999915
vt 0.000085 0.999915
vt 0.000085 0.000085
vt 0.000085 0.999915
vt 0.000085 0.000085
vt 0.726052 0.000085
vt 0.726052 0.999915
vt 0.000085 0.999915
vt 0.000085 0.000085
vt 0.726052 0.000085
vt 0.726052 0.999915
vt 0.726052 0.000085
vt 0.726052 0.999915
vt 0.000085 0.999915
vt 0.000085 0.000085
vt 0.000085 0.999915
vt 0.000085 0.000085
vt 0.726052 0.000085
vt 0.726052 0.999915
vt 0.000085 0.999915
vt 0.000085 0.000085
vt 0.726052 0.000085
vt 0.726052 0.999915
vt 0.000085 0.999915
vt 0.000085 0.000085
vt 0.726052 0.000085
vt 0.726052 0.999915
vt 0.000085 0.999915
vt 0.000085 0.000085
vt 0.726052 0.000085
vt 0.726052 0.999915
vt 0.000085 0.999915
vt 0.000085 0.000085
vt 0.726052 0.000085
vt 0.726052 0.999915
vt 0.000085 0.999915
vt 0.000085 0.000085
vt 0.726052 0.000085
vt 0.726052 0.999915
vt 0.000085 0.999915
vt 0.000085 0.000085
vt 0.726052 0.000085
vt 0.726052 0.999915
vt 0.726052 0.000085
vt 0.726052 0.999915
vt 0.000085 0.999915
vt 0.000085 0.000085
vt 0.726052 0.000085
vt 0.726052 0.999915
vt 0.000085 0.999915
vt 0.000085 0.000085
vt 0.000085 0.999915
vt 0.000085 0.000085
vt 0.726052 0.000085
vt 0.726052 0.999915
vt 0.000085 0.999915
vt 0.000085 0.000085
vt 0.726052 0.000085
vt 0.726052 0.999915
vt 0.000085 0.999915
vt 0.000085 0.000085
vt 0.726052 0.000085
vt 0.726052 0.999915
vt 0.726052 0.000085
vt 0.726052 0.999915
vt 0.000085 0.999915
vt 0.000085 0.000085
vt 0.726052 0.000085
vt 0.726052 0.999915
vt 0.000085 0.999915
vt 0.000085 0.000085
vt 0.000085 0.999915
vt 0.000085 0.000085
vt 0.726052 0.000085
vt 0.726052 0.999915
vt 0.726052 0.000085
vt 0.726052 0.999915
vt 0.000085 0.999915
vt 0.000085 0.000085
vt 0.000085 0.999915
vt 0.000085 0.000085
vt 0.726052 0.000085
vt 0.726052 0.999915
vt 0.726052 0.000085
vt 0.726052 0.999915
vt 0.000085 0.999915
vt 0.000085 0.000085
vt 0.000085 0.999915
vt 0.000085 0.000085
vt 0.726052 0.000085
vt 0.726052 0.999915
vt 0.000085 0.999915
vt 0.000085 0.000085
vt 0.726052 0.000085
vt 0.726052 0.999915
vt 0.000085 0.999915
vt 0.000085 0.000085
vt 0.726052 0.000085
vt 0.726052 0.999915
vt 0.726052 0.000085
vt 0.726052 0.999915
vt 0.000085 0.999915
vt 0.000085 0.000085
vt 0.726052 0.000085
vt 0.726052 0.999915
vt 0.000085 0.999915
vt 0.000085 0.000085
vt 0.726052 0.000085
vt 0.726052 0.999915
vt 0.000085 0.999915
vt 0.000085 0.000085
vt 0.726052 0.000085
vt 0.726052 0.999915
vt 0.000085 0.999915
vt 0.000085 0.000085
vt 0.000085 0.999915
vt 0.000085 0.000085
vt 0.726052 0.000085
vt 0.726052 0.999915
vt 0.000085 0.999915
vt 0.000085 0.000085
vt 0.726052 0.000085
vt 0.726052 0.999915
vt 0.726052 0.000085
vt 0.726052 0.999915
vt 0.000085 0.999915
vt 0.000085 0.000085
vt 0.000085 0.999915
vt 0.000085 0.000085
vt 0.726052 0.000085
vt 0.726052 0.999915
vt 0.726052 0.000085
vt 0.726052 0.999915
vt 0.000085 0.999915
vt 0.000085 0.000085
vt 0.726052 0.000085
vt 0.726052 0.999915
vt 0.000085 0.999915
vt 0.000085 0.000085
vt 0.726052 0.000085
vt 0.726052 0.999915
vt 0.000085 0.999915
vt 0.000085 0.000085
vt 0.726052 0.000085
vt 0.726052 0.999915
vt 0.000085 0.999915
vt 0.000085 0.000085
vt 0.000085 0.999915
vt 0.000085 0.000085
vt 0.726052 0.000085
vt 0.726052 0.999915
vt 0.000085 0.999915
vt 0.000085 0.000085
vt 0.726052 0.000085
vt 0.726052 0.999915
vn 0.2017 0.9794 -0.0106
vn 0.1417 0.9432 0.3004
vn 0.2036 0.6619 -0.7214
vn -0.3128 0.9450 -0.0954
vn -0.2194 0.8882 -0.4037
vn 0.4046 0.8204 -0.4041
vn -0.3931 0.9045 0.1655
vn 0.1615 0.9425 0.2925
vn 0.1987 0.9046 0.3770
vn -0.5355 0.7249 0.4334
vn -0.0987 0.9876 -0.1219
vn -0.0058 0.9768 -0.2140
vn -0.3799 0.9232 -0.0580
vn -0.1222 0.9355 -0.3314
vn -0.1168 0.9224 0.3681
vn 0.2482 0.9506 -0.1863
vn -0.0217 0.9798 -0.1989
vn 0.3919 0.8799 0.2688
vn 0.0036 0.9741 -0.2263
vn -0.5427 0.7747 0.3245
vn 0.1566 0.9858 -0.0602
vn 0.1398 0.9268 -0.3486
vn -0.2352 0.7921 0.5632
vn -0.1012 0.9522 0.2883
vn 0.2854 0.9554 0.0753
vn -0.1801 0.9271 0.3287
vn 0.2413 0.9703 0.0194
vn -0.1104 0.9938 -0.0144
vn -0.3773 0.9250 0.0455
vn 0.0358 0.9492 -0.3127
vn 0.0964 0.9754 0.1980
vn 0.2535 0.9266 0.2777
vn -0.0187 0.9976 -0.0664
vn 0.2619 0.9485 0.1781
vn 0.0876 0.9382 -0.3348
vn -0.4607 0.8872 -0.0245
vn -0.1842 0.9598 -0.2116
vn 0.1654 0.9209 -0.3529
vn -0.2409 0.8911 0.3847
vn 0.3098 0.9463 -0.0924
vn 0.0381 0.9955 0.0869
vn -0.1795 0.9693 0.1682
vn 0.0366 0.9222 -0.3849
vn -0.3378 0.8437 -0.4172
vn -0.3101 0.9467 -0.0869
vn 0.0210 0.9360 -0.3513
vn 0.1361 0.9584 0.2508
vn 0.1599 0.9832 -0.0883
usemtl Material.1082
s off
f 1/1/1 2/2/1 4/3/1 3/4/1
usemtl Material.1083
f 8/5/2 7/6/2 5/7/2 6/8/2
usemtl Material.1084
f 9/9/3 10/10/3 12/11/3 11/12/3
usemtl Material.1085
f 16/13/4 15/14/4 13/15/4 14/16/4
usemtl Material.1086
f 20/17/5 19/18/5 17/19/5 18/20/5
usemtl Material.1087
f 21/21/6 22/22/6 24/23/6 23/24/6
usemtl Material.1088
f 28/25/7 27/26/7 25/27/7 26/28/7
usemtl Material.1089
f 29/29/8 30/30/8 32/31/8 31/32/8
usemtl Material.1090
f 33/33/9 34/34/9 36/35/9 35/36/9
usemtl Material.1091
f 37/37/10 38/38/10 40/39/10 39/40/10
usemtl Material.1092
f 44/41/11 43/42/11 41/43/11 42/44/11
usemtl Material.1093
f 48/45/12 47/46/12 45/47/12 46/48/12
usemtl Material.1094
f 49/49/13 50/50/13 52/51/13 51/52/13
usemtl Material.1095
f 56/53/14 55/54/14 53/55/14 54/56/14
usemtl Material.1096
f 60/57/15 59/58/15 57/59/15 58/60/15
usemtl Material.1097
f 64/61/16 63/62/16 61/63/16 62/64/16
usemtl Material.1098
f 68/65/17 67/66/17 65/67/17 66/68/17
usemtl Material.1099
f 72/69/18 71/70/18 69/71/18 70/72/18
usemtl Material.1100
f 76/73/19 75/74/19 73/75/19 74/76/19
usemtl Material.1101
f 80/77/20 79/78/20 77/79/20 78/80/20
usemtl Material.1102
f 81/81/21 82/82/21 84/83/21 83/84/21
usemtl Material.1103
f 85/85/22 86/86/22 88/87/22 87/88/22
usemtl Material.1104
f 92/89/23 91/90/23 89/91/23 90/92/23
usemtl Material.1105
f 96/93/24 95/94/24 93/95/24 94/96/24
usemtl Material.1106
f 100/97/25 99/98/25 97/99/25 98/100/25
usemtl Material.1107
f 101/101/26 102/102/26 104/103/26 103/104/26
usemtl Material.1108
f 105/105/27 106/106/27 108/107/27 107/108/27
usemtl Material.1109
f 112/109/28 111/110/28 109/111/28 110/112/28
usemtl Material.1110
f 113/113/29 114/114/29 116/115/29 115/116/29
usemtl Material.1111
f 120/117/30 119/118/30 117/119/30 118/120/30
usemtl Material.1112
f 121/121/31 122/122/31 124/123/31 123/124/31
usemtl Material.1113
f 128/125/32 127/126/32 125/127/32 126/128/32
usemtl Material.1114
f 132/129/33 131/130/33 129/131/33 130/132/33
usemtl Material.1115
f 136/133/34 135/134/34 133/135/34 134/136/34
usemtl Material.1116
f 137/137/35 138/138/35 140/139/35 139/140/35
usemtl Material.1117
f 141/141/36 142/142/36 144/143/36 143/144/36
usemtl Material.1118
f 145/145/37 146/146/37 148/147/37 147/148/37
usemtl Material.1119
f 149/149/38 150/150/38 152/151/38 151/152/38
usemtl Material.1120
f 156/153/39 155/154/39 153/155/39 154/156/39
usemtl Material.1121
f 160/157/40 159/158/40 157/159/40 158/160/40
usemtl Material.1122
f 161/161/41 162/162/41 164/163/41 163/164/41
usemtl Material.1123
f 168/165/42 167/166/42 165/167/42 166/168/42
usemtl Material.1124
f 169/169/43 170/170/43 172/171/43 171/172/43
usemtl Material.1125
f 173/173/44 174/174/44 176/175/44 175/176/44
usemtl Material.1126
f 177/177/45 178/178/45 180/179/45 179/180/45
usemtl Material.1127
f 181/181/46 182/182/46 184/183/46 183/184/46
usemtl Material.1128
f 188/185/47 187/186/47 185/187/47 186/188/47
usemtl Material.1129
f 192/189/48 191/190/48 189/191/48 190/192/48
