# Blender v3.2.0 OBJ File: 'trees.blend'
# www.blender.org
mtllib Spruce 5 Trunk.mtl
o Sphere.018
v -0.149581 4.131870 -0.269247
v 0.062374 4.473287 -0.214027
v 0.091058 4.251260 -0.392609
v 0.246356 4.136383 -0.181196
vt 0.500000 0.000000
vt 0.666667 0.333333
vt 0.333333 0.333333
vt 0.166667 0.000000
vt 0.000000 0.333333
vt 0.833333 0.000000
vt 1.000000 0.333333
vn -0.5757 0.4660 -0.6719
vn 0.8263 0.4140 -0.3820
vn -0.2168 -0.0233 0.9759
vn 0.1308 -0.8276 -0.5458
usemtl None
s off
f 3/1/1 1/2/1 2/3/1
f 3/4/2 2/3/2 4/5/2
f 2/3/3 1/2/3 4/5/3
f 3/6/4 4/7/4 1/2/4
o Sphere.019
v -0.339116 4.951451 -0.009476
v -0.159763 5.103031 -0.225320
v -0.395440 4.967744 -0.280497
v -0.190534 4.785817 -0.237995
vt 0.500000 0.000000
vt 0.666667 0.333333
vt 0.333333 0.333333
vt 0.166667 0.000000
vt 0.000000 0.333333
vt 0.833333 0.000000
vt 1.000000 0.333333
vn -0.5192 0.8399 0.1584
vn 0.2182 0.0178 -0.9757
vn 0.7990 -0.1012 0.5928
vn -0.6719 -0.7345 0.0955
usemtl None
s off
f 7/8/5 5/9/5 6/10/5
f 7/11/6 6/10/6 8/12/6
f 6/10/7 5/9/7 8/12/7
f 7/13/8 8/14/8 5/9/8
o Cylinder.032
v 0.311374 3.295001 0.149272
v 0.194627 3.333941 0.064681
v 0.314840 3.188823 0.108697
v 0.198093 3.227764 0.024106
v 0.337438 3.276670 0.040109
v 0.220690 3.315610 -0.044482
v 0.505744 3.266349 0.092797
v 0.514966 3.201237 0.039443
v 0.526771 3.280473 0.011990
v 0.661944 3.427037 0.103683
v 0.680953 3.402196 0.079906
v 0.664092 3.434477 0.065163
v 0.755227 3.480767 0.168759
v 0.773502 3.467591 0.159135
v 0.766766 3.488684 0.148650
vt 1.000000 0.500000
vt 1.000000 1.000000
vt 0.666667 1.000000
vt 0.666667 0.500000
vt 0.333333 1.000000
vt 0.333333 0.500000
vt 0.457846 0.130000
vt 0.250000 0.490000
vt 0.042154 0.130000
vt -0.000000 1.000000
vt -0.000000 0.500000
vt -0.000000 0.500000
vt 0.333333 0.500000
vt -0.000000 0.500000
vt 0.333333 0.500000
vt 0.666667 0.500000
vt 1.000000 0.500000
vt -0.000000 0.500000
vt 0.333333 0.500000
vt 0.666667 0.500000
vt 1.000000 0.500000
vt 0.750000 0.490000
vt 0.957846 0.130000
vt 0.542154 0.130000
vt 0.666667 0.500000
vt 1.000000 0.500000
vn -0.6232 -0.2968 0.7235
vn 0.3041 -0.6336 -0.7114
vn -0.9685 0.0606 -0.2414
vn 0.3609 0.9300 -0.0700
vn 0.0632 0.9980 -0.0064
vn -0.7293 0.6839 -0.0181
vn -0.1977 -0.4576 -0.8669
vn 0.2542 -0.4505 0.8558
vn -0.5346 0.8397 0.0951
vn 0.5591 -0.2711 -0.7835
vn 0.4423 -0.4998 0.7447
vn 0.6563 0.4934 0.5709
vn 0.6610 -0.0613 -0.7479
vn -0.0919 -0.7066 0.7016
usemtl None
s off
f 9/15/9 10/16/9 12/17/9 11/18/9
f 11/18/10 12/17/10 14/19/10 13/20/10
f 12/21/11 10/22/11 14/23/11
f 13/20/12 14/19/12 10/24/12 9/25/12
f 13/20/13 9/25/13 15/26/13 17/27/13
f 17/27/14 15/26/14 18/28/14 20/29/14
f 11/18/15 13/20/15 17/27/15 16/30/15
f 9/15/16 11/18/16 16/30/16 15/31/16
f 20/29/17 18/28/17 21/32/17 23/33/17
f 16/30/18 17/27/18 20/29/18 19/34/18
f 15/31/19 16/30/19 19/34/19 18/35/19
f 21/36/20 22/37/20 23/38/20
f 19/34/21 20/29/21 23/33/21 22/39/21
f 18/35/22 19/34/22 22/39/22 21/40/22
o Cylinder.033
v -0.518620 3.573326 0.126426
v -0.314277 3.519717 0.062990
v -0.462349 3.478803 0.155253
v -0.255666 3.432858 0.107172
v -0.435281 3.578085 0.203652
v -0.212340 3.537962 0.109976
v -0.729859 3.757175 0.316428
v -0.701519 3.691484 0.326632
v -0.675846 3.748047 0.363565
v -0.875142 3.817183 0.586492
v -0.857202 3.775598 0.592951
v -0.840950 3.811405 0.616332
vt 1.000000 0.500000
vt 1.000000 1.000000
vt 0.666667 1.000000
vt 0.666667 0.500000
vt 0.333333 1.000000
vt 0.333333 0.500000
vt 0.457846 0.130000
vt 0.250000 0.490000
vt 0.042154 0.130000
vt -0.000000 1.000000
vt -0.000000 0.500000
vt -0.000000 0.500000
vt 0.333333 0.500000
vt 0.666667 0.500000
vt 1.000000 0.500000
vt -0.000000 0.500000
vt 0.333333 0.500000
vt 1.000000 0.500000
vt 0.666667 0.500000
vn -0.3391 -0.5282 -0.7785
vn 0.2405 -0.3130 0.9188
vn 0.4364 -0.1562 -0.8861
vn 0.0923 0.9453 -0.3128
vn 0.3703 0.8480 -0.3792
vn 0.1678 -0.5165 0.8396
vn -0.7652 -0.5022 -0.4027
vn 0.2389 0.9672 -0.0864
vn -0.6640 -0.1735 0.7273
vn 0.5823 -0.6130 0.5340
vn -0.8361 -0.4162 -0.3573
usemtl None
s off
f 24/41/23 25/42/23 27/43/23 26/44/23
f 26/44/24 27/43/24 29/45/24 28/46/24
f 27/47/25 25/48/25 29/49/25
f 28/46/26 29/45/26 25/50/26 24/51/26
f 28/46/27 24/51/27 30/52/27 32/53/27
f 26/44/28 28/46/28 32/53/28 31/54/28
f 24/41/29 26/44/29 31/54/29 30/55/29
f 32/53/30 30/52/30 33/56/30 35/57/30
f 35/57/31 33/58/31 34/59/31
f 31/54/32 32/53/32 35/57/32 34/59/32
f 30/55/33 31/54/33 34/59/33 33/58/33
o Cylinder.034
v 0.132455 2.374614 -0.477488
v 0.088124 2.331969 -0.254115
v 0.033326 2.205841 -0.514521
v -0.047915 2.193198 -0.297912
v -0.061049 2.380995 -0.524368
v -0.099095 2.385705 -0.295873
v 0.241754 2.577782 -0.739899
v 0.128324 2.488281 -0.774434
v 0.107761 2.635284 -0.768345
v 0.377036 2.815191 -0.903012
v 0.316670 2.762309 -0.951474
v 0.289463 2.845353 -0.917521
vt 1.000000 0.500000
vt 1.000000 1.000000
vt 0.666667 1.000000
vt 0.666667 0.500000
vt 0.333333 1.000000
vt 0.333333 0.500000
vt 0.457846 0.130000
vt 0.250000 0.490000
vt 0.042154 0.130000
vt -0.000000 1.000000
vt -0.000000 0.500000
vt -0.000000 0.500000
vt 0.333333 0.500000
vt -0.000000 0.500000
vt 0.333333 0.500000
vt 0.666667 0.500000
vt 1.000000 0.500000
vt 1.000000 0.500000
vt 0.666667 0.500000
vn 0.7683 -0.6245 0.1408
vn -0.8991 -0.3612 -0.2474
vn -0.2371 -0.0733 0.9687
vn 0.1308 0.9857 0.1066
vn -0.0084 0.7443 0.6678
vn 0.0537 0.5456 0.8363
vn -0.7121 -0.2617 -0.6515
vn 0.7816 -0.5788 -0.2324
vn 0.2928 0.4425 -0.8476
vn -0.6573 -0.0053 -0.7536
vn 0.6873 -0.6502 -0.3237
usemtl None
s off
f 36/60/34 37/61/34 39/62/34 38/63/34
f 38/63/35 39/62/35 41/64/35 40/65/35
f 39/66/36 37/67/36 41/68/36
f 40/65/37 41/64/37 37/69/37 36/70/37
f 40/65/38 36/70/38 42/71/38 44/72/38
f 44/72/39 42/71/39 45/73/39 47/74/39
f 38/63/40 40/65/40 44/72/40 43/75/40
f 36/60/41 38/63/41 43/75/41 42/76/41
f 45/77/42 46/78/42 47/74/42
f 43/75/43 44/72/43 47/74/43 46/78/43
f 42/76/44 43/75/44 46/78/44 45/77/44
o Sphere.020
v -0.371799 2.803319 -0.023950
v -0.183201 3.005887 -0.243552
v -0.432725 2.844917 -0.322118
v -0.192746 2.655832 -0.290437
vt 0.500000 0.000000
vt 0.666667 0.333333
vt 0.333333 0.333333
vt 0.166667 0.000000
vt 0.000000 0.333333
vt 0.833333 0.000000
vt 1.000000 0.333333
vn -0.5774 0.7841 0.2274
vn 0.2248 0.1233 -0.9666
vn 0.7990 -0.1012 0.5928
vn -0.6202 -0.7842 0.0173
usemtl None
s off
f 50/79/45 48/80/45 49/81/45
f 50/82/46 49/81/46 51/83/46
f 49/81/47 48/80/47 51/83/47
f 50/84/48 51/85/48 48/80/48
o Sphere.021
v 0.131391 4.428406 0.194065
v -0.112135 4.398803 0.313616
v 0.064130 4.332983 0.355062
v 0.015951 4.185573 0.240747
vt 0.500000 0.000000
vt 0.666667 0.333333
vt 0.333333 0.333333
vt 0.166667 0.000000
vt 0.000000 0.333333
vt 0.833333 0.000000
vt 1.000000 0.333333
vn 0.1734 0.8137 0.5548
vn -0.3690 -0.4913 0.7890
vn -0.4442 0.0391 -0.8951
vn 0.9045 -0.4033 0.1388
usemtl None
s off
f 54/86/49 52/87/49 53/88/49
f 54/89/50 53/88/50 55/90/50
f 53/88/51 52/87/51 55/90/51
f 54/91/52 55/92/52 52/87/52
o Sphere.022
v 0.144642 2.098343 0.236636
v -0.039899 1.915502 0.320227
v 0.146444 1.942963 0.360745
v 0.177404 1.828872 0.208613
vt 0.500000 0.000000
vt 0.666667 0.333333
vt 0.333333 0.333333
vt 0.166667 0.000000
vt 0.000000 0.333333
vt 0.833333 0.000000
vt 1.000000 0.333333
vn -0.2534 0.6019 0.7573
vn -0.0120 -0.8011 0.5984
vn -0.4442 0.0391 -0.8951
vn 0.9869 0.1075 0.1202
usemtl None
s off
f 58/93/53 56/94/53 57/95/53
f 58/96/54 57/95/54 59/97/54
f 57/95/55 56/94/55 59/97/55
f 58/98/56 59/99/56 56/94/56
o Cylinder.035
v 0.239902 5.635848 -0.311222
v 0.153174 5.609104 -0.165933
v 0.190053 5.505743 -0.313473
v 0.119709 5.470275 -0.167338
v 0.104966 5.613385 -0.337774
v 0.022502 5.567552 -0.205854
v 0.288911 5.715480 -0.500725
v 0.240284 5.610726 -0.483126
v 0.172728 5.705439 -0.493775
v 0.248760 5.886762 -0.599490
v 0.244704 5.829721 -0.645782
v 0.183112 5.861085 -0.620565
vt 1.000000 0.500000
vt 1.000000 1.000000
vt 0.666667 1.000000
vt 0.666667 0.500000
vt 0.333333 1.000000
vt 0.333333 0.500000
vt 0.457846 0.130000
vt 0.250000 0.490000
vt 0.042154 0.130000
vt -0.000000 1.000000
vt -0.000000 0.500000
vt -0.000000 0.500000
vt 0.333333 0.500000
vt -0.000000 0.500000
vt 0.333333 0.500000
vt 0.666667 0.500000
vt 1.000000 0.500000
vt 0.750000 0.490000
vt 0.957846 0.130000
vt 0.542154 0.130000
vt 0.666667 0.500000
vt 1.000000 0.500000
vn 0.8696 -0.2750 0.4100
vn -0.5642 -0.6557 -0.5018
vn -0.3105 0.0652 0.9483
vn -0.2558 0.9620 0.0957
vn -0.1483 0.9047 0.3994
vn -0.1714 0.5489 0.8182
vn -0.6122 -0.5585 -0.5597
vn 0.9220 -0.3828 0.0580
vn 0.0029 0.6300 -0.7766
vn -0.5573 -0.4937 -0.6676
vn 0.8773 -0.2091 -0.4320
usemtl None
s off
f 60/100/57 61/101/57 63/102/57 62/103/57
f 62/103/58 63/102/58 65/104/58 64/105/58
f 63/106/59 61/107/59 65/108/59
f 64/105/60 65/104/60 61/109/60 60/110/60
f 64/105/61 60/110/61 66/111/61 68/112/61
f 68/112/62 66/111/62 69/113/62 71/114/62
f 62/103/63 64/105/63 68/112/63 67/115/63
f 60/100/64 62/103/64 67/115/64 66/116/64
f 69/117/65 70/118/65 71/119/65
f 67/115/66 68/112/66 71/114/66 70/120/66
f 66/116/67 67/115/67 70/120/67 69/121/67
o Cylinder.036
v 0.205861 5.928742 0.373716
v 0.051010 5.893071 0.171927
v 0.278658 5.871291 0.307899
v 0.139391 5.867058 0.105264
v 0.277411 5.984978 0.305525
v 0.107891 5.975563 0.118155
v 0.350915 6.034658 0.593304
v 0.396765 5.988168 0.562335
v 0.403069 6.059027 0.549615
vt 1.000000 0.500000
vt 1.000000 1.000000
vt 0.666667 1.000000
vt 0.666667 0.500000
vt 0.333333 1.000000
vt 0.333333 0.500000
vt 0.457846 0.130000
vt 0.250000 0.490000
vt 0.042154 0.130000
vt -0.000000 1.000000
vt -0.000000 0.500000
vt -0.000000 0.500000
vt 0.333333 0.500000
vt 0.666667 0.500000
vt 1.000000 0.500000
vn -0.2534 -0.9272 0.2758
vn 0.7735 0.1432 -0.6174
vn -0.6159 -0.0858 -0.7831
vn -0.5199 0.7825 0.3427
vn -0.5486 0.8361 -0.0042
vn 0.9055 -0.0592 -0.4201
vn -0.2725 -0.8037 0.5290
vn 0.6159 0.0858 0.7831
usemtl None
s off
f 72/122/68 73/123/68 75/124/68 74/125/68
f 74/125/69 75/124/69 77/126/69 76/127/69
f 75/128/70 73/129/70 77/130/70
f 76/127/71 77/126/71 73/131/71 72/132/71
f 76/127/72 72/132/72 78/133/72 80/134/72
f 74/125/73 76/127/73 80/134/73 79/135/73
f 72/122/74 74/125/74 79/135/74 78/136/74
f 78/136/75 79/135/75 80/134/75
o Cylinder.037
v -0.414804 4.443877 -0.384325
v -0.169248 4.497589 -0.228753
v -0.468953 4.318513 -0.324976
v -0.241017 4.395092 -0.148044
v -0.511310 4.450719 -0.271143
v -0.261317 4.539835 -0.119626
v -0.632838 4.521615 -0.603361
v -0.691962 4.455782 -0.536273
v -0.698211 4.566114 -0.525409
v -0.803126 4.633933 -0.809311
v -0.837917 4.595194 -0.769833
v -0.841595 4.660119 -0.763440
vt 1.000000 0.500000
vt 1.000000 1.000000
vt 0.666667 1.000000
vt 0.666667 0.500000
vt 0.333333 1.000000
vt 0.333333 0.500000
vt 0.457846 0.130000
vt 0.250000 0.490000
vt 0.042154 0.130000
vt -0.000000 1.000000
vt -0.000000 0.500000
vt -0.000000 0.500000
vt 0.333333 0.500000
vt -0.000000 0.500000
vt 0.333333 0.500000
vt 0.666667 0.500000
vt 1.000000 0.500000
vt 1.000000 0.500000
vt 0.666667 0.500000
vn 0.5529 -0.6363 -0.5380
vn -0.4469 -0.3461 0.8249
vn 0.7601 -0.0209 0.6494
vn -0.0945 0.9522 -0.2904
vn 0.3686 0.9274 0.0631
vn 0.5567 0.8307 -0.0073
vn -0.7908 -0.3007 0.5331
vn 0.3432 -0.6510 -0.6770
vn -0.7601 0.0209 -0.6494
vn -0.8690 -0.0970 0.4852
vn 0.1995 -0.7815 -0.5911
usemtl None
s off
f 81/137/76 82/138/76 84/139/76 83/140/76
f 83/140/77 84/139/77 86/141/77 85/142/77
f 84/143/78 82/144/78 86/145/78
f 85/142/79 86/141/79 82/146/79 81/147/79
f 85/142/80 81/147/80 87/148/80 89/149/80
f 89/149/81 87/148/81 90/150/81 92/151/81
f 83/140/82 85/142/82 89/149/82 88/152/82
f 81/137/83 83/140/83 88/152/83 87/153/83
f 90/154/84 91/155/84 92/151/84
f 88/152/85 89/149/85 92/151/85 91/155/85
f 87/153/86 88/152/86 91/155/86 90/154/86
o Sphere.023
v -0.252774 5.397591 -0.088296
v -0.155865 5.350283 -0.244206
v -0.319792 5.343234 -0.228709
v -0.250637 5.217542 -0.147586
vt 0.500000 0.000000
vt 0.666667 0.333333
vt 0.333333 0.333333
vt 0.166667 0.000000
vt 0.000000 0.333333
vt 0.833333 0.000000
vt 1.000000 0.333333
vn -0.0717 0.9412 -0.3301
vn -0.0538 -0.5622 -0.8252
vn 0.8118 -0.1739 0.5574
vn -0.8630 -0.1672 0.4766
usemtl None
s off
f 95/156/87 93/157/87 94/158/87
f 95/159/88 94/158/88 96/160/88
f 94/158/89 93/157/89 96/160/89
f 95/161/90 96/162/90 93/157/90
o Sphere.024
v 0.098337 2.505598 0.235869
v -0.079581 2.554932 0.296100
v 0.025150 2.489766 0.355963
v -0.031271 2.377015 0.302087
vt 0.500000 0.000000
vt 0.666667 0.333333
vt 0.333333 0.333333
vt 0.166667 0.000000
vt 0.000000 0.333333
vt 0.833333 0.000000
vt 1.000000 0.333333
vn 0.3546 0.8743 0.3314
vn -0.5483 -0.1210 0.8275
vn -0.3493 -0.1261 -0.9285
vn 0.7421 -0.5526 0.3794
usemtl None
s off
f 99/163/91 97/164/91 98/165/91
f 99/166/92 98/165/92 100/167/92
f 98/165/93 97/164/93 100/167/93
f 99/168/94 100/169/94 97/164/94
o Cylinder.038
v -0.421871 3.862811 -0.305309
v -0.178191 3.933740 -0.223077
v -0.438416 3.743080 -0.291708
v -0.213353 3.822560 -0.188482
v -0.499228 3.821281 -0.221134
v -0.259417 3.920777 -0.133476
v -0.654281 3.917303 -0.423183
v -0.687116 3.839598 -0.389840
v -0.714970 3.918923 -0.355787
v -0.828035 4.013141 -0.550703
v -0.847356 3.967416 -0.531083
v -0.863747 4.014094 -0.511045
vt 1.000000 0.500000
vt 1.000000 1.000000
vt 0.666667 1.000000
vt 0.666667 0.500000
vt 0.333333 1.000000
vt 0.333333 0.500000
vt 0.457846 0.130000
vt 0.250000 0.490000
vt 0.042154 0.130000
vt -0.000000 1.000000
vt -0.000000 0.500000
vt -0.000000 0.500000
vt 0.333333 0.500000
vt -0.000000 0.500000
vt 0.333333 0.500000
vt 0.666667 0.500000
vt 1.000000 0.500000
vt 1.000000 0.500000
vt 0.666667 0.500000
vn 0.4288 -0.2756 -0.8603
vn -0.0870 -0.6122 0.7859
vn 0.7425 -0.0266 0.6693
vn -0.3306 0.9437 -0.0058
vn 0.1173 0.9288 0.3514
vn 0.3131 0.9135 0.2599
vn -0.5392 -0.6551 0.5293
vn 0.3135 -0.2932 -0.9032
vn -0.7425 0.0266 -0.6693
vn -0.7646 -0.4616 0.4498
vn 0.3269 -0.4859 -0.8106
usemtl None
s off
f 101/170/95 102/171/95 104/172/95 103/173/95
f 103/173/96 104/172/96 106/174/96 105/175/96
f 104/176/97 102/177/97 106/178/97
f 105/175/98 106/174/98 102/179/98 101/180/98
f 105/175/99 101/180/99 107/181/99 109/182/99
f 109/182/100 107/181/100 110/183/100 112/184/100
f 103/173/101 105/175/101 109/182/101 108/185/101
f 101/170/102 103/173/102 108/185/102 107/186/102
f 110/187/103 111/188/103 112/184/103
f 108/185/104 109/182/104 112/184/104 111/188/104
f 107/186/105 108/185/105 111/188/105 110/187/105
o Cylinder.031
v 0.274069 -0.168886 -0.553686
v 0.492000 -0.165823 0.115230
v 0.018277 -0.217003 0.490951
v -0.602209 -0.301765 0.274173
v -0.509949 -0.115249 -0.493738
v -0.000000 20.000000 0.000000
v -0.007814 -0.018148 -0.490326
v 0.438888 0.056348 0.015416
v 0.206615 0.033225 0.425145
v -0.405728 0.069218 0.373392
v -0.480051 0.098434 -0.221789
v -0.161456 0.744013 -0.422549
v 0.306735 0.638714 -0.250783
v 0.292461 0.694482 0.249404
v -0.225594 0.786404 0.367397
v -0.468959 0.752201 -0.026600
v -0.098291 -0.630954 -0.837692
v 0.732024 -0.575050 -0.284150
v 0.517175 -0.491989 0.638050
v -0.921975 -0.664855 -0.337514
v -0.359763 -0.617144 0.694665
vt 0.600000 0.875000
vt 0.400000 1.000000
vt 0.400000 0.875000
vt 0.200000 1.000000
vt 0.200000 0.875000
vt 0.800000 1.000000
vt 0.800000 0.875000
vt 1.000000 0.875000
vt 0.600000 1.000000
vt 0.200000 0.500000
vt 0.000000 0.750000
vt 0.000000 0.500000
vt 0.400000 0.500000
vt 0.200000 0.750000
vt 0.600000 0.500000
vt 0.400000 0.750000
vt 0.800000 0.500000
vt 0.800000 0.750000
vt 0.600000 0.750000
vt 1.000000 0.500000
vt 1.000000 0.750000
vt 0.000000 0.875000
vt 0.000000 1.000000
vt 0.700000 0.500000
vt 0.900000 0.500000
vt 0.500000 0.500000
vt 0.100000 0.500000
vt 0.300000 0.500000
vt 1.000000 0.500000
vt 0.000000 0.000000
vt 0.000000 0.000000
vt 0.000000 0.000000
vt 0.000000 0.000000
vt 0.000000 0.000000
vn 0.2247 0.0160 0.9743
vn -0.8514 0.0200 0.5242
vn 0.3479 0.0177 -0.9374
vn 0.9995 0.0155 0.0268
vn -0.0521 0.3027 -0.9517
vn -0.9739 0.2178 -0.0641
vn -0.3184 -0.0839 0.9442
vn 0.7425 0.0222 0.6695
vn 0.6921 0.5798 -0.4299
vn -0.6394 0.0777 -0.7649
vn -0.9483 0.0903 0.3041
vn 0.0713 0.1168 0.9906
vn 0.9586 0.1264 0.2552
vn 0.5953 0.0080 -0.8035
vn -0.7894 0.0201 -0.6135
vn 0.9151 0.3604 0.1807
vn -0.0083 0.4599 0.8879
vn -0.0274 0.5394 -0.8416
vn 0.3036 0.8149 0.4938
vn 0.7190 0.6533 -0.2372
vn -0.7918 0.6085 0.0527
vn -0.8770 -0.0351 0.4793
vn 0.5502 0.0681 -0.8322
vn -0.5177 0.1486 -0.8425
vn -0.3273 0.6556 0.6805
vn -0.0751 0.9967 0.0320
vn -0.1478 0.7855 -0.6010
vn -0.8901 0.4360 0.1326
vn -0.0630 0.2979 0.9525
vn 0.1393 -0.9898 -0.0301
vn 0.0507 -0.9936 0.1013
vn 0.0535 -0.9984 0.0205
usemtl None
s off
f 126/189/106 118/190/106 127/191/106
f 127/191/107 118/192/107 128/193/107
f 118/194/108 125/195/108 124/196/108
f 125/195/109 118/197/109 126/189/109
f 117/198/110 119/199/110 113/200/110
f 116/201/111 123/202/111 117/198/111
f 115/203/112 122/204/112 116/201/112
f 114/205/113 120/206/113 121/207/113 115/203/113
f 113/208/114 119/209/114 120/206/114 114/205/114
f 123/202/115 128/193/115 124/210/115 119/199/115
f 122/204/116 127/191/116 128/193/116 123/202/116
f 121/207/117 126/189/117 127/191/117 122/204/117
f 120/206/118 125/195/118 126/189/118 121/207/118
f 119/209/119 124/196/119 125/195/119 120/206/119
f 128/193/120 118/211/120 124/210/120
f 131/212/121 130/213/121 114/205/121
f 115/203/122 133/214/122 131/212/122
f 117/198/123 113/200/123 129/215/123
f 114/205/124 115/203/124 131/212/124
f 113/208/125 114/205/125 130/213/125
f 116/201/126 117/198/126 132/216/126
f 132/216/127 133/214/127 116/201/127
f 113/200/128 130/213/128 129/215/128
f 117/198/129 129/215/129 132/216/129
f 115/203/130 116/201/130 133/214/130
f 114/205/131 130/213/131 113/208/131 129/217/131 117/198/131 132/216/131 116/201/131 133/214/131 115/203/131 131/212/131
f 119/199/132 117/198/132 123/202/132
f 123/202/133 116/201/133 122/204/133
f 122/204/134 115/203/134 121/207/134
f 131/218/135 133/219/135 132/220/135
f 131/218/136 132/220/136 130/221/136
f 130/221/137 132/220/137 129/222/137
