# Blender v3.2.0 OBJ File: 'trees.blend'
# www.blender.org
mtllib Spruce 5 Leaves.mtl
o Short_twigs_set.027_Plane.409
v 0.053818 3.324381 1.015350
v 0.053818 5.691178 1.015350
v 0.053818 3.324381 0.212426
v 0.053818 5.691178 0.212426
vt 0.869132 0.583327
vt 0.869132 0.998870
vt 0.728161 0.998870
vt 0.728161 0.583327
vn -1.0000 0.0000 -0.0000
usemtl thing.003
s off
f 1/1/1 2/2/1 4/3/1 3/4/1
o Short_twigs_set_2.019_Plane.410
v -0.475344 6.224761 -0.701279
v -0.475344 8.224760 -0.701279
v -0.086179 6.224761 -0.145493
v -0.086179 8.224760 -0.145493
vt 0.869132 0.583327
vt 0.869132 0.998870
vt 0.728161 0.998870
vt 0.728161 0.583327
vn 0.8192 -0.0000 -0.5736
usemtl thing.003
s off
f 5/5/2 6/6/2 8/7/2 7/8/2
o Long_twig_2.011_Plane.411
v -0.021577 8.330048 0.010655
v 0.795890 9.362066 0.145055
v 0.330733 8.059419 -0.054136
v 1.148200 9.091436 0.080263
vt 0.854803 0.003131
vt 0.854803 0.403285
vt 0.719053 0.403285
vt 0.719053 0.003131
vn -0.0513 0.1688 -0.9843
usemtl Material.067
s off
f 9/9/3 10/10/3 12/11/3 11/12/3
o Short_twigs_set.026_Plane.408
v 0.052086 4.661253 0.921611
v 0.052086 6.661253 0.921611
v 0.052086 4.661253 0.243122
v 0.052086 6.661253 0.243122
vt 0.869132 0.583327
vt 0.869132 0.998870
vt 0.728161 0.998870
vt 0.728161 0.583327
vn -1.0000 0.0000 -0.0000
usemtl thing.003
s off
f 13/13/4 14/14/4 16/15/4 15/16/4
o Short_twigs_set_2.018_Plane.407
v -0.506016 4.358879 -0.898309
v -0.506015 6.823632 -0.898309
v -0.026417 4.358879 -0.213371
v -0.026417 6.823631 -0.213371
vt 0.869132 0.583327
vt 0.869132 0.998870
vt 0.728161 0.998870
vt 0.728161 0.583327
vn 0.8192 -0.0000 -0.5736
usemtl thing.003
s off
f 17/17/5 18/18/5 20/19/5 19/20/5
o Long_twig_2.010_Plane.406
v 0.030951 7.517161 0.036337
v 0.664537 8.318519 -0.055757
v 0.304013 7.301488 0.038264
v 0.937599 8.102845 -0.053830
vt 0.854803 0.003131
vt 0.854803 0.403285
vt 0.719053 0.403285
vt 0.719053 0.003131
vn -0.0513 -0.0739 -0.9959
usemtl Material.067
s off
f 21/21/6 22/22/6 24/23/6 23/24/6
o Short_twigs_set_2.017_Plane.405
v 0.992328 2.928448 0.155502
v 0.992328 5.393201 0.155502
v 0.169710 2.928448 0.005653
v 0.169711 5.393201 0.005653
vt 0.869132 0.583327
vt 0.869132 0.998870
vt 0.728161 0.998870
vt 0.728161 0.583327
vn -0.1792 0.0000 0.9838
usemtl thing.003
s off
f 25/25/7 26/26/7 28/27/7 27/28/7
o Short_twigs_set_2.013_Plane.404
v 1.164026 4.570554 0.178016
v 1.164026 7.437517 0.178016
v 0.207170 4.570554 0.003715
v 0.207170 7.437516 0.003715
vt 0.869132 0.583327
vt 0.869132 0.998870
vt 0.728161 0.998870
vt 0.728161 0.583327
vn -0.1792 0.0000 0.9838
usemtl thing.003
s off
f 29/29/8 30/30/8 32/31/8 31/32/8
o Short_twigs_set.025_Plane.403
v 0.894478 8.118395 0.331575
v 0.894478 10.485193 0.331575
v 0.137880 8.118395 0.062788
v 0.137880 10.485193 0.062788
vt 0.869132 0.583327
vt 0.869132 0.998870
vt 0.728161 0.998870
vt 0.728161 0.583327
vn -0.3348 0.0000 0.9423
usemtl thing.003
s off
f 33/33/9 34/34/9 36/35/9 35/36/9
o Short_twigs_set.024_Plane.402
v 0.925934 9.714754 0.207743
v 0.925934 12.081553 0.207743
v 0.147726 9.714754 0.010059
v 0.147726 12.081553 0.010059
vt 0.869132 0.583327
vt 0.869132 0.998870
vt 0.728161 0.998870
vt 0.728161 0.583327
vn -0.2462 0.0000 0.9692
usemtl thing.003
s off
f 37/37/10 38/38/10 40/39/10 39/40/10
o Short_twigs_set.023_Plane.401
v 0.381470 7.392540 0.766099
v 0.381470 9.400808 0.766099
v 0.054460 7.392540 0.168415
v 0.054460 9.400808 0.168415
vt 0.869132 0.583327
vt 0.869132 0.998870
vt 0.728161 0.998870
vt 0.728161 0.583327
vn -0.8773 0.0000 0.4800
usemtl thing.003
s off
f 41/41/11 42/42/11 44/43/11 43/44/11
o Short_twigs_set.028_Plane.412
v 0.288571 5.482647 0.786965
v 0.281222 7.293903 0.767872
v 0.067852 5.475706 0.213517
v 0.060503 7.286962 0.194424
vt 0.869132 0.583327
vt 0.869132 0.998870
vt 0.728161 0.998870
vt 0.728161 0.583327
vn -0.9333 0.0000 0.3592
usemtl thing.003
s off
f 45/45/12 46/46/12 48/47/12 47/48/12
o Short_twigs_set_2.020_Plane.441
v -1.178709 6.818277 -0.103297
v -1.178709 9.685239 -0.103297
v -0.210302 6.818276 -0.013054
v -0.210302 9.685239 -0.013054
vt 0.869132 0.583327
vt 0.869132 0.998870
vt 0.728161 0.998870
vt 0.728161 0.583327
vn 0.0928 -0.0000 -0.9957
usemtl thing.003
s off
f 49/49/13 50/50/13 52/51/13 51/52/13
o Short_twigs_set.029_Plane.460
v 0.760406 14.219631 0.125755
v 0.760407 16.398380 0.125755
v 0.031939 14.219631 0.000664
v 0.031939 16.398380 0.000664
vt 0.869132 0.583327
vt 0.869132 0.998870
vt 0.728161 0.998870
vt 0.728161 0.583327
vn -0.1692 0.0000 0.9856
usemtl thing.003
s off
f 53/53/14 54/54/14 56/55/14 55/56/14
o Plane.342_Plane.399
v -0.835795 12.099318 -0.616346
v -2.379668 11.109262 2.042025
v 0.991813 12.428921 0.567807
v -0.552061 11.438866 3.226178
v -0.001448 12.620871 -0.000938
v -1.545321 11.630816 2.657433
v -1.657643 11.828387 0.727495
v 0.169965 12.157990 1.911649
v -0.823295 12.349940 1.342904
vt 0.363069 0.500000
vt 0.363069 0.999915
vt 0.000085 0.999915
vt 0.000085 0.500000
vt 0.726052 0.500000
vt 0.726052 0.999915
vt 0.726052 0.000085
vt 0.363069 0.000085
vt 0.000085 0.000085
vn -0.0815 0.8926 0.4435
vn -0.5867 0.8014 0.1162
vn -0.4677 0.8771 -0.1092
vn 0.0560 0.9716 0.2301
usemtl Material.066
s off
f 65/57/15 62/58/15 60/59/15 64/60/15
f 63/61/16 58/62/16 62/58/16 65/57/16
f 57/63/17 63/61/17 65/57/17 61/64/17
f 61/64/18 65/57/18 64/60/18 59/65/18
o Plane.341_Plane.398
v 1.184362 10.370857 -1.126732
v -1.690686 7.348534 -3.295756
v -0.723970 10.337241 1.449609
v -3.599018 7.314918 -0.719415
v 0.001511 10.807072 -0.002041
v -2.873537 7.784749 -2.171065
v -0.396812 9.144265 -2.313935
v -2.305144 9.110649 0.262406
v -1.579663 9.580480 -1.189243
vt 0.363069 0.500000
vt 0.363069 0.999915
vt 0.000085 0.999915
vt 0.000085 0.500000
vt 0.726052 0.500000
vt 0.726052 0.999915
vt 0.726052 0.000085
vt 0.363069 0.000085
vt 0.000085 0.000085
vn -0.7529 0.6357 -0.1705
vn -0.3905 0.6421 -0.6597
vn -0.2192 0.8096 -0.5445
vn -0.5948 0.8030 -0.0374
usemtl Material.065
s off
f 74/66/19 71/67/19 69/68/19 73/69/19
f 72/70/20 67/71/20 71/67/20 74/66/20
f 66/72/21 72/70/21 74/66/21 70/73/21
f 70/73/22 74/66/22 73/69/22 68/74/22
o Plane.340_Plane.397
v -0.802567 12.200358 -1.498685
v -4.733611 10.534748 0.736625
v 0.930212 11.824346 1.268422
v -3.000832 10.158735 3.503732
v -0.001372 12.543044 -0.002192
v -3.932416 10.877434 2.233118
v -2.809042 11.700912 -0.310086
v -1.076263 11.324900 2.457021
v -2.007847 12.043598 1.186407
vt 0.363069 0.500000
vt 0.363069 0.999915
vt 0.000085 0.999915
vt 0.000085 0.500000
vt 0.726052 0.500000
vt 0.726052 0.999915
vt 0.726052 0.000085
vt 0.363069 0.000085
vt 0.000085 0.000085
vn -0.1704 0.7989 0.5768
vn -0.4914 0.8686 0.0642
vn -0.2796 0.9576 -0.0696
vn 0.0532 0.8854 0.4618
usemtl Material.064
s off
f 83/75/23 80/76/23 78/77/23 82/78/23
f 81/79/24 76/80/24 80/76/24 83/75/24
f 75/81/25 81/79/25 83/75/25 79/82/25
f 79/82/26 83/75/26 82/78/26 77/83/26
o Plane.336_Plane.393
v 0.920057 12.086476 -1.592876
v -3.129787 9.702876 -3.764140
v -0.494548 11.580008 1.601645
v -4.544392 9.196407 -0.569619
v 0.001120 12.380738 -0.002530
v -4.048724 9.997138 -2.173795
v -1.237805 11.238590 -2.682852
v -2.652410 10.732121 0.511670
v -2.156742 11.532852 -1.092506
vt 0.363069 0.500000
vt 0.363069 0.999915
vt 0.000085 0.999915
vt 0.000085 0.500000
vt 0.726052 0.500000
vt 0.726052 0.999915
vt 0.726052 0.000085
vt 0.363069 0.000085
vt 0.000085 0.000085
vn -0.6739 0.7229 0.1526
vn -0.4300 0.8102 -0.3984
vn -0.2156 0.9303 -0.2967
vn -0.4686 0.8397 0.2744
usemtl Material.060
s off
f 92/84/27 89/85/27 87/86/27 91/87/27
f 90/88/28 85/89/28 89/85/28 92/84/28
f 84/90/29 90/88/29 92/84/29 88/91/29
f 88/91/30 92/84/30 91/87/30 86/92/30
o Plane.335_Plane.392
v -0.671438 11.156727 -1.736169
v -4.185238 7.639980 1.115899
v 1.329024 11.826425 1.554208
v -2.184775 8.309677 4.406276
v -0.001584 12.044247 -0.002606
v -3.515384 8.527500 2.849462
v -2.635867 9.745519 -0.254622
v -0.635405 10.415215 3.035755
v -1.966013 10.633038 1.478941
vt 0.363069 0.500000
vt 0.363069 0.999915
vt 0.000085 0.999915
vt 0.000085 0.500000
vt 0.726052 0.500000
vt 0.726052 0.999915
vt 0.726052 0.000085
vt 0.363069 0.000085
vt 0.000085 0.000085
vn -0.4920 0.6995 0.5184
vn -0.8036 0.5951 0.0058
vn -0.6439 0.7528 -0.1366
vn -0.3208 0.8610 0.3947
usemtl Material.059
s off
f 101/93/31 98/94/31 96/95/31 100/96/31
f 99/97/32 94/98/32 98/94/32 101/93/32
f 93/99/33 99/97/33 101/93/33 97/100/33
f 97/100/34 101/93/34 100/96/34 95/101/34
o Plane.334_Plane.391
v 0.161800 13.272105 -1.044448
v -2.810439 12.785596 -1.512055
v -0.144216 13.168180 1.008806
v -3.116455 12.681670 0.541199
v 0.000242 13.565280 -0.001626
v -2.971997 13.078772 -0.469233
v -1.329690 13.245651 -1.268078
v -1.635706 13.141726 0.785176
v -1.491248 13.538827 -0.225257
vt 0.363069 0.500000
vt 0.363069 0.999915
vt 0.000085 0.999915
vt 0.000085 0.500000
vt 0.726052 0.500000
vt 0.726052 0.999915
vt 0.726052 0.000085
vt 0.363069 0.000085
vt 0.000085 0.000085
vn -0.3280 0.8942 0.3045
vn -0.2384 0.9247 -0.2969
vn 0.0230 0.9633 -0.2673
vn -0.0699 0.9318 0.3562
usemtl Material.058
s off
f 110/102/35 107/103/35 105/104/35 109/105/35
f 108/106/36 103/107/36 107/103/36 110/102/36
f 102/108/37 108/106/37 110/102/37 106/109/37
f 106/109/38 110/102/38 109/105/38 104/110/38
o Plane.333_Plane.390
v -1.337430 10.986320 -1.181924
v -3.362959 7.195940 1.343411
v 1.599810 10.512149 0.462284
v -0.425718 6.721770 2.987620
v -0.002326 11.165347 -0.001302
v -2.027855 7.374969 2.524033
v -2.434064 9.352514 0.305949
v 0.503177 8.878344 1.950158
v -1.098960 9.531543 1.486571
vt 0.363069 0.500000
vt 0.363069 0.999915
vt 0.000085 0.999915
vt 0.000085 0.500000
vt 0.726052 0.500000
vt 0.726052 0.999915
vt 0.726052 0.000085
vt 0.363069 0.000085
vt 0.000085 0.000085
vn -0.0703 0.4569 0.8867
vn -0.5964 0.5418 0.5923
vn -0.4968 0.7426 0.4492
vn 0.0485 0.6545 0.7545
usemtl Material.057
s off
f 119/111/39 116/112/39 114/113/39 118/114/39
f 117/115/40 112/116/40 116/112/40 119/111/40
f 111/117/41 117/115/41 119/111/41 115/118/41
f 115/118/42 119/111/42 118/114/42 113/119/42
o Plane.332_Plane.389
v 0.537094 13.173544 -1.469693
v -3.300339 11.305448 -2.683938
v -0.227688 12.852918 1.440561
v -4.065121 10.984821 0.226317
v 0.000606 13.492085 -0.002305
v -3.836827 11.623988 -1.216550
v -1.478420 12.540292 -2.069114
v -2.243202 12.219666 0.841141
v -2.014908 12.858832 -0.601725
vt 0.363069 0.500000
vt 0.363069 0.999915
vt 0.000085 0.999915
vt 0.000085 0.500000
vt 0.726052 0.500000
vt 0.726052 0.999915
vt 0.726052 0.000085
vt 0.363069 0.000085
vt 0.000085 0.000085
vn -0.5991 0.7629 0.2431
vn -0.4452 0.8274 -0.3424
vn -0.2108 0.9365 -0.2804
vn -0.3703 0.8696 0.3266
usemtl Material.056
s off
f 128/120/43 125/121/43 123/122/43 127/123/43
f 126/124/44 121/125/44 125/121/44 128/120/44
f 120/126/45 126/124/45 128/120/45 124/127/45
f 124/127/46 128/120/46 127/123/46 122/128/46
o Plane.329_Plane.386
v -1.070505 13.860009 -0.850796
v -3.231712 12.441319 2.033090
v 1.099260 13.551094 0.623276
v -1.061947 12.132404 3.507163
v -0.001718 14.129763 -0.001167
v -2.162926 12.711073 2.882719
v -2.161219 13.417135 0.661873
v 0.008546 13.108221 2.135945
v -1.092433 13.686889 1.511502
vt 0.363069 0.500000
vt 0.363069 0.999915
vt 0.000085 0.999915
vt 0.000085 0.500000
vt 0.726052 0.500000
vt 0.726052 0.999915
vt 0.726052 0.000085
vt 0.363069 0.000085
vt 0.000085 0.000085
vn 0.0666 0.7877 0.6125
vn -0.4336 0.8589 0.2727
vn -0.2940 0.9534 0.0671
vn 0.2245 0.8796 0.4194
usemtl Material.053
s off
f 137/129/47 134/130/47 132/131/47 136/132/47
f 135/133/48 130/134/48 134/130/48 137/129/48
f 129/135/49 135/133/49 137/129/49 133/136/49
f 133/136/50 137/129/50 136/132/50 131/137/50
o Plane.328_Plane.385
v -0.356440 13.457470 -1.207706
v -3.309819 11.628363 0.217724
v 0.658593 13.644851 1.135809
v -2.294786 11.815744 2.561239
v -0.000804 13.947497 -0.001856
v -2.954183 12.118391 1.423574
v -1.928535 12.791880 -0.473576
v -0.913502 12.979259 1.869939
v -1.572898 13.281906 0.732275
vt 0.363069 0.500000
vt 0.363069 0.999915
vt 0.000085 0.999915
vt 0.000085 0.500000
vt 0.726052 0.500000
vt 0.726052 0.999915
vt 0.726052 0.000085
vt 0.363069 0.000085
vt 0.000085 0.000085
vn -0.4287 0.7799 0.4560
vn -0.6701 0.7354 -0.1012
vn -0.4635 0.8601 -0.2128
vn -0.2134 0.9063 0.3648
usemtl Material.052
s off
f 146/138/51 143/139/51 141/140/51 145/141/51
f 144/142/52 139/143/52 143/139/52 146/138/52
f 138/144/53 144/142/53 146/138/53 142/145/53
f 142/145/54 146/138/54 145/141/54 140/146/54
o Plane.327_Plane.384
v 1.158876 13.981924 -0.278868
v 0.106691 11.818264 -2.738409
v -0.998207 13.981380 0.644405
v -2.050392 11.817720 -1.815136
v 0.001708 14.316869 -0.000731
v -1.050477 12.153210 -2.460272
v 0.583394 13.110663 -1.623905
v -1.573689 13.110120 -0.700632
v -0.573774 13.445609 -1.345768
vt 0.363069 0.500000
vt 0.363069 0.999915
vt 0.000085 0.999915
vt 0.000085 0.500000
vt 0.726052 0.500000
vt 0.726052 0.999915
vt 0.726052 0.000085
vt 0.363069 0.000085
vt 0.000085 0.000085
vn -0.5534 0.6516 -0.5189
vn 0.0063 0.6517 -0.7584
vn 0.0989 0.8153 -0.5705
vn -0.4813 0.8152 -0.3221
usemtl Material.051
s off
f 155/147/55 152/148/55 150/149/55 154/150/55
f 153/151/56 148/152/56 152/148/56 155/147/56
f 147/153/57 153/151/57 155/147/57 151/154/57
f 151/154/58 155/147/58 154/150/58 149/155/58
o Plane.326_Plane.383
v -0.564586 12.127629 -0.926597
v -3.151943 11.294197 0.860713
v 0.661188 12.275253 0.916704
v -1.926168 11.441821 2.704014
v -0.000971 12.567029 -0.001460
v -2.588327 11.733598 1.785850
v -1.889215 11.940560 -0.030752
v -0.663440 12.088184 1.812549
v -1.325599 12.379961 0.894385
vt 0.363069 0.500000
vt 0.363069 0.999915
vt 0.000085 0.999915
vt 0.000085 0.500000
vt 0.726052 0.500000
vt 0.726052 0.999915
vt 0.726052 0.000085
vt 0.363069 0.000085
vt 0.000085 0.000085
vn -0.1709 0.8968 0.4082
vn -0.5072 0.8563 -0.0977
vn -0.3011 0.9194 -0.2532
vn 0.0476 0.9614 0.2712
usemtl Material.050
s off
f 164/156/59 161/157/59 159/158/59 163/159/59
f 162/160/60 157/161/60 161/157/60 164/156/60
f 156/162/61 162/160/61 164/156/61 160/163/61
f 160/163/62 164/156/62 163/159/62 158/164/62
o Plane.325_Plane.382
v 1.266276 12.029865 -0.292162
v 0.299166 10.384192 -3.479382
v -1.126737 11.858995 0.522184
v -2.093846 10.213323 -2.665036
v 0.001895 12.343801 -0.000645
v -0.965215 10.698129 -3.187865
v 0.740085 11.457897 -1.958423
v -1.652927 11.287027 -1.144076
v -0.524296 11.771833 -1.666905
vt 0.363069 0.500000
vt 0.363069 0.999915
vt 0.000085 0.999915
vt 0.000085 0.500000
vt 0.726052 0.500000
vt 0.726052 0.999915
vt 0.726052 0.000085
vt 0.363069 0.000085
vt 0.000085 0.000085
vn -0.5104 0.7653 -0.3923
vn 0.0646 0.8063 -0.5879
vn 0.1452 0.9208 -0.3619
vn -0.4509 0.8783 -0.1591
usemtl Material.049
s off
f 173/165/63 170/166/63 168/167/63 172/168/63
f 171/169/64 166/170/64 170/166/64 173/165/64
f 165/171/65 171/169/65 173/165/65 169/172/65
f 169/172/66 173/165/66 172/168/66 167/173/66
o Plane.324_Plane.381
v 0.874330 11.294435 -0.618216
v -1.104699 9.455266 -2.370477
v -0.692603 11.532248 0.901891
v -2.671632 9.693080 -0.850371
v 0.001241 11.737146 -0.001204
v -1.977788 9.897978 -1.753465
v -0.171482 10.578251 -1.584199
v -1.738414 10.816065 -0.064092
v -1.044571 11.020964 -0.967187
vt 0.363069 0.500000
vt 0.363069 0.999915
vt 0.000085 0.999915
vt 0.000085 0.500000
vt 0.726052 0.500000
vt 0.726052 0.999915
vt 0.726052 0.000085
vt 0.363069 0.000085
vt 0.000085 0.000085
vn -0.6148 0.7262 -0.3076
vn -0.1804 0.6603 -0.7290
vn -0.0077 0.8073 -0.5901
vn -0.4581 0.8756 -0.1533
usemtl Material.048
s off
f 182/174/67 179/175/67 177/176/67 181/177/67
f 180/178/68 175/179/68 179/175/68 182/174/68
f 174/180/69 180/178/69 182/174/69 178/181/69
f 178/181/70 182/174/70 181/177/70 176/182/70
o Plane.323_Plane.380
v -1.360117 12.050557 -0.550061
v -2.650103 10.822651 3.597995
v 1.521690 12.438344 0.460931
v 0.231704 11.210439 4.608988
v -0.002282 12.747670 -0.000801
v -1.292268 11.519765 4.147255
v -2.057290 11.752706 1.551458
v 0.824517 12.140493 2.562450
v -0.699455 12.449820 2.100718
vt 0.363069 0.500000
vt 0.363069 0.999915
vt 0.000085 0.999915
vt 0.000085 0.500000
vt 0.726052 0.500000
vt 0.726052 0.999915
vt 0.726052 0.000085
vt 0.363069 0.000085
vt 0.000085 0.000085
vn 0.0542 0.9031 0.4261
vn -0.5157 0.8264 0.2262
vn -0.4494 0.8931 -0.0225
vn 0.1414 0.9726 0.1848
usemtl Material.047
s off
f 191/183/71 188/184/71 186/185/71 190/186/71
f 189/187/72 184/188/72 188/184/72 191/183/72
f 183/189/73 189/187/73 191/183/73 187/190/73
f 187/190/74 191/183/74 190/186/74 185/191/74
o Plane.321_Plane.378
v -1.106318 15.132433 -0.786025
v -2.858843 13.447787 2.405936
v 1.264121 15.246833 0.575826
v -0.488404 13.562187 3.767787
v -0.001877 15.625134 -0.001079
v -1.754403 13.940487 3.190883
v -2.033322 14.563673 0.875297
v 0.337116 14.678073 2.237148
v -0.928882 15.056374 1.660244
vt 0.363069 0.500000
vt 0.363069 0.999915
vt 0.000085 0.999915
vt 0.000085 0.500000
vt 0.726052 0.500000
vt 0.726052 0.999915
vt 0.726052 0.000085
vt 0.363069 0.000085
vt 0.000085 0.000085
vn -0.0218 0.8134 0.5813
vn -0.5493 0.7880 0.2782
vn -0.4419 0.8951 0.0599
vn 0.1049 0.9215 0.3740
usemtl Material.045
s off
f 200/192/75 197/193/75 195/194/75 199/195/75
f 198/196/76 193/197/76 197/193/76 200/192/76
f 192/198/77 198/196/77 200/192/77 196/199/77
f 196/199/78 200/192/78 199/195/78 194/200/78
o Plane.320_Plane.377
v 0.959562 14.680419 -0.695538
v -1.128002 13.801908 -3.341826
v -0.910273 14.711699 0.769124
v -2.997836 13.833188 -1.877164
v 0.001481 15.088534 -0.001160
v -2.086082 14.210024 -2.647449
v -0.098770 14.487700 -2.042522
v -1.968605 14.518980 -0.577861
v -1.056851 14.895816 -1.348145
vt 0.363069 0.500000
vt 0.363069 0.999915
vt 0.000085 0.999915
vt 0.000085 0.500000
vt 0.726052 0.500000
vt 0.726052 0.999915
vt 0.726052 0.000085
vt 0.363069 0.000085
vt 0.000085 0.000085
vn -0.4551 0.8841 -0.1061
vn 0.0242 0.8761 -0.4816
vn 0.1928 0.9387 -0.2858
vn -0.3041 0.9470 0.1034
usemtl Material.044
s off
f 209/201/79 206/202/79 204/203/79 208/204/79
f 207/205/80 202/206/80 206/202/80 209/201/80
f 201/207/81 207/205/81 209/201/81 205/208/81
f 205/208/82 209/201/82 208/204/82 203/209/82
o Plane.317_Plane.374
v -1.102020 12.297620 -0.934620
v -3.012018 10.084384 2.101014
v 1.315586 12.342106 0.618954
v -0.594412 10.128869 3.654587
v -0.001915 12.758108 -0.001230
v -1.911913 10.544871 3.034403
v -2.125299 11.466290 0.681568
v 0.292308 11.510775 2.235142
v -1.025193 11.926778 1.614957
vt 0.363069 0.500000
vt 0.363069 0.999915
vt 0.000085 0.999915
vt 0.000085 0.500000
vt 0.726052 0.500000
vt 0.726052 0.999915
vt 0.726052 0.000085
vt 0.363069 0.000085
vt 0.000085 0.000085
vn -0.0814 0.7391 0.6687
vn -0.5935 0.7297 0.3396
vn -0.4813 0.8653 0.1404
vn 0.0496 0.8750 0.4815
usemtl Material.041
s off
f 218/210/83 215/211/83 213/212/83 217/213/83
f 216/214/84 211/215/84 215/211/84 218/210/84
f 210/216/85 216/214/85 218/210/85 214/217/85
f 214/217/86 218/210/86 217/213/86 212/218/86
o Plane.316_Plane.373
v -1.118713 13.764606 -0.978941
v -3.843915 12.882670 2.109565
v 1.068177 13.412121 0.850049
v -1.657025 12.530186 3.938555
v -0.001732 14.061272 -0.001449
v -2.726934 13.179337 3.087057
v -2.466530 13.620699 0.604884
v -0.279640 13.268215 2.433875
v -1.349549 13.917365 1.582377
vt 0.363069 0.500000
vt 0.363069 0.999915
vt 0.000085 0.999915
vt 0.000085 0.500000
vt 0.726052 0.500000
vt 0.726052 0.999915
vt 0.726052 0.000085
vt 0.363069 0.000085
vt 0.000085 0.000085
vn 0.1065 0.8507 0.5147
vn -0.3570 0.9254 0.1271
vn -0.1935 0.9782 -0.0758
vn 0.2870 0.9007 0.3261
usemtl Material.040
s off
f 227/219/87 224/220/87 222/221/87 226/222/87
f 225/223/88 220/224/88 224/220/88 227/219/88
f 219/225/89 225/223/89 227/219/89 223/226/89
f 223/226/90 227/219/90 226/222/90 221/227/90
o Plane.315_Plane.372
v 0.432975 12.336531 -0.808453
v -1.799258 11.851023 -2.035058
v -0.370821 12.098655 0.748487
v -2.603054 11.613146 -0.478117
v 0.000637 12.508627 -0.001233
v -2.231597 12.023118 -1.227838
v -0.702263 12.276592 -1.403696
v -1.506059 12.038715 0.153244
v -1.134602 12.448688 -0.596476
vt 0.363069 0.500000
vt 0.363069 0.999915
vt 0.000085 0.999915
vt 0.000085 0.500000
vt 0.726052 0.500000
vt 0.726052 0.999915
vt 0.726052 0.000085
vt 0.363069 0.000085
vt 0.000085 0.000085
vn -0.4663 0.8528 0.2353
vn -0.1895 0.9347 -0.3008
vn 0.0452 0.9817 -0.1851
vn -0.2417 0.8968 0.3706
usemtl Material.039
s off
f 236/228/91 233/229/91 231/230/91 235/231/91
f 234/232/92 229/233/92 233/229/92 236/228/92
f 228/234/93 234/232/93 236/228/93 232/235/93
f 232/235/94 236/228/94 235/231/94 230/236/94
o Plane.314_Plane.371
v 0.574037 12.754938 -1.360898
v -2.974171 10.813675 -2.565383
v -0.252679 12.559890 1.388825
v -3.800887 10.618628 0.184339
v 0.000655 13.108126 -0.002178
v -3.547553 11.166862 -1.206663
v -1.300587 12.067425 -1.973280
v -2.127304 11.872376 0.776443
v -1.873970 12.420612 -0.614560
vt 0.363069 0.500000
vt 0.363069 0.999915
vt 0.000085 0.999915
vt 0.000085 0.500000
vt 0.726052 0.500000
vt 0.726052 0.999915
vt 0.726052 0.000085
vt 0.363069 0.000085
vt 0.000085 0.000085
vn -0.6301 0.7547 0.1827
vn -0.4552 0.7960 -0.3990
vn -0.2267 0.9151 -0.3335
vn -0.4080 0.8723 0.2695
usemtl Material.038
s off
f 245/237/95 242/238/95 240/239/95 244/240/95
f 243/241/96 238/242/96 242/238/96 245/237/96
f 237/243/97 243/241/97 245/237/97 241/244/97
f 241/244/98 245/237/98 244/240/98 239/245/98
o Plane.313_Plane.370
v 0.292223 13.488766 -1.096250
v -2.846708 13.441112 -2.077749
v -0.376016 13.424005 1.043990
v -3.514948 13.376350 0.062492
v 0.000529 13.826141 -0.001695
v -3.138402 13.778487 -0.983194
v -1.250592 13.697205 -1.571651
v -1.918832 13.632442 0.568590
v -1.542286 14.034579 -0.477095
vt 0.363069 0.500000
vt 0.363069 0.999915
vt 0.000085 0.999915
vt 0.000085 0.500000
vt 0.726052 0.500000
vt 0.726052 0.999915
vt 0.726052 0.000085
vt 0.363069 0.000085
vt 0.000085 0.000085
vn -0.2363 0.9324 0.2735
vn -0.0549 0.9500 -0.3075
vn 0.2019 0.9498 -0.2389
vn 0.0139 0.9316 0.3633
usemtl Material.037
s off
f 254/246/99 251/247/99 249/248/99 253/249/99
f 252/250/100 247/251/100 251/247/100 254/246/100
f 246/252/101 252/250/101 254/246/101 250/253/101
f 250/253/102 254/246/102 253/249/102 248/254/102
o Plane.312_Plane.369
v 0.614016 13.481919 -0.539083
v -0.904841 12.695847 -2.136247
v -0.511831 13.370529 0.586388
v -2.030688 12.584455 -1.010777
v 0.000892 13.685630 -0.000891
v -1.517966 12.899556 -1.598056
v -0.176947 13.251830 -1.353083
v -1.302794 13.140440 -0.227612
v -0.790072 13.455541 -0.814891
vt 0.363069 0.500000
vt 0.363069 0.999915
vt 0.000085 0.999915
vt 0.000085 0.500000
vt 0.726052 0.500000
vt 0.726052 0.999915
vt 0.726052 0.000085
vt 0.363069 0.000085
vt 0.000085 0.000085
vn -0.5679 0.8212 -0.0552
vn -0.1384 0.8637 -0.4846
vn 0.0431 0.9497 -0.3103
vn -0.4022 0.9056 0.1348
usemtl Material.036
s off
f 263/255/103 260/256/103 258/257/103 262/258/103
f 261/259/104 256/260/104 260/256/104 263/255/104
f 255/261/105 261/259/105 263/255/105 259/262/105
f 259/262/106 263/255/106 262/258/106 257/263/106
o Plane.310_Plane.367
v 0.665028 15.958019 -0.882313
v -1.725107 14.955870 -2.626681
v -0.504097 15.683327 0.877437
v -2.894233 14.681176 -0.866931
v 0.000926 16.165892 -0.001394
v -2.389210 15.163741 -1.745762
v -0.580003 15.673797 -1.753841
v -1.749128 15.399103 0.005909
v -1.244105 15.881668 -0.872922
vt 0.363069 0.500000
vt 0.363069 0.999915
vt 0.000085 0.999915
vt 0.000085 0.500000
vt 0.726052 0.500000
vt 0.726052 0.999915
vt 0.726052 0.000085
vt 0.363069 0.000085
vt 0.000085 0.000085
vn -0.5848 0.8043 0.1056
vn -0.2507 0.8828 -0.3973
vn -0.0399 0.9654 -0.2579
vn -0.3862 0.8840 0.2635
usemtl Material.034
s off
f 272/264/107 269/265/107 267/266/107 271/267/107
f 270/268/108 265/269/108 269/265/108 272/264/108
f 264/270/109 270/268/109 272/264/109 268/271/109
f 268/271/110 272/264/110 271/267/110 266/272/110
o Plane.308_Plane.365
v 1.138679 14.065299 -0.102685
v 0.371868 12.477814 -3.062474
v -1.151647 14.289989 0.370170
v -1.918458 12.702505 -2.589618
v 0.001814 14.544471 -0.000375
v -0.764997 12.956986 -2.960163
v 0.760486 13.501982 -1.666826
v -1.529840 13.726673 -1.193970
v -0.376379 13.981153 -1.564515
vt 0.363069 0.500000
vt 0.363069 0.999915
vt 0.000085 0.999915
vt 0.000085 0.500000
vt 0.726052 0.500000
vt 0.726052 0.999915
vt 0.726052 0.000085
vt 0.363069 0.000085
vt 0.000085 0.000085
vn -0.3358 0.8016 -0.4947
vn 0.2578 0.7433 -0.6173
vn 0.3278 0.8608 -0.3893
vn -0.2875 0.9212 -0.2622
usemtl Material.032
s off
f 281/273/111 278/274/111 276/275/111 280/276/111
f 279/277/112 274/278/112 278/274/112 281/273/112
f 273/279/113 279/277/113 281/273/113 277/280/113
f 277/280/114 281/273/114 280/276/114 275/281/114
o Plane.307_Plane.364
v 0.662043 14.997127 -1.000545
v -2.408098 13.701243 -2.535508
v -0.547723 15.292736 1.169590
v -3.617864 13.996853 -0.365372
v 0.000958 15.548047 -0.001719
v -3.069183 14.252165 -1.536682
v -0.908331 14.602406 -1.822200
v -2.118097 14.898015 0.347936
v -1.569416 15.153327 -0.823374
vt 0.363069 0.500000
vt 0.363069 0.999915
vt 0.000085 0.999915
vt 0.000085 0.500000
vt 0.726052 0.500000
vt 0.726052 0.999915
vt 0.726052 0.000085
vt 0.363069 0.000085
vt 0.000085 0.000085
vn -0.4987 0.8656 -0.0449
vn -0.2044 0.7937 -0.5730
vn 0.0244 0.8821 -0.4704
vn -0.2808 0.9567 0.0770
usemtl Material.031
s off
f 290/282/115 287/283/115 285/284/115 289/285/115
f 288/286/116 283/287/116 287/283/116 290/282/116
f 282/288/117 288/286/117 290/282/117 286/289/117
f 286/289/118 290/282/118 289/285/118 284/290/118
o Plane.303_Plane.360
v -1.117277 12.586971 -0.236731
v -1.546640 11.197886 2.687545
v 1.090332 12.434839 0.015140
v 0.660969 11.045753 2.939416
v -0.001748 12.864143 -0.000199
v -0.431111 11.475058 2.924077
v -1.324594 12.114318 1.294879
v 0.883015 11.962186 1.546750
v -0.209065 12.391491 1.531410
vt 0.363069 0.500000
vt 0.363069 0.999915
vt 0.000085 0.999915
vt 0.000085 0.500000
vt 0.726052 0.500000
vt 0.726052 0.999915
vt 0.726052 0.000085
vt 0.363069 0.000085
vt 0.000085 0.000085
vn 0.2969 0.7753 0.5575
vn -0.3066 0.8168 0.4886
vn -0.2828 0.9267 0.2477
vn 0.3428 0.8835 0.3191
usemtl Material.027
s off
f 299/291/119 296/292/119 294/293/119 298/294/119
f 297/295/120 292/296/120 296/292/120 299/291/120
f 291/297/121 297/295/121 299/291/121 295/298/121
f 295/298/122 299/291/122 298/294/122 293/299/122
o Plane.302_Plane.359
v -0.908893 16.488041 -0.455666
v -1.983358 15.411601 2.052430
v 0.940484 16.408627 0.302520
v -0.133981 15.332186 2.810616
v -0.001465 16.771702 -0.000600
v -1.075930 15.695261 2.507496
v -1.456968 16.152946 0.846105
v 0.392410 16.073532 1.604291
v -0.549539 16.436607 1.301170
vt 0.363069 0.500000
vt 0.363069 0.999915
vt 0.000085 0.999915
vt 0.000085 0.500000
vt 0.726052 0.500000
vt 0.726052 0.999915
vt 0.726052 0.000085
vt 0.363069 0.000085
vt 0.000085 0.000085
vn 0.1345 0.8170 0.5608
vn -0.4284 0.8412 0.3300
vn -0.3410 0.9350 0.0971
vn 0.2425 0.9100 0.3363
usemtl Material.026
s off
f 308/300/123 305/301/123 303/302/123 307/303/123
f 306/304/124 301/305/124 305/301/124 308/300/124
f 300/306/125 306/304/125 308/300/125 304/307/125
f 304/307/126 308/300/126 307/303/126 302/308/126
o Plane.301_Plane.358
v 0.706916 16.652319 -0.516407
v -0.814198 16.301905 -2.589003
v -0.723643 16.713400 0.523178
v -2.244756 16.362986 -1.549418
v 0.001133 16.976906 -0.000823
v -1.519981 16.626492 -2.073419
v -0.047676 16.661819 -1.555349
v -1.478234 16.722900 -0.515764
v -0.753458 16.986404 -1.039765
vt 0.363069 0.500000
vt 0.363069 0.999915
vt 0.000085 0.999915
vt 0.000085 0.500000
vt 0.726052 0.500000
vt 0.726052 0.999915
vt 0.726052 0.000085
vt 0.363069 0.000085
vt 0.000085 0.000085
vn -0.3714 0.9273 -0.0474
vn 0.1208 0.9062 -0.4051
vn 0.2858 0.9374 -0.1990
vn -0.2245 0.9592 0.1718
usemtl Material.025
s off
f 317/309/127 314/310/127 312/311/127 316/312/127
f 315/313/128 310/314/128 314/310/128 317/309/128
f 309/315/129 315/313/129 317/309/129 313/316/129
f 313/316/130 317/309/130 316/312/130 311/317/130
o Plane.300_Plane.357
v -0.742904 14.878481 -0.243310
v -1.055678 13.847619 1.910086
v 0.846490 15.109720 0.098242
v 0.533715 14.078858 2.251639
v -0.001259 15.252007 -0.000271
v -0.314033 14.221146 2.153126
v -0.932616 14.525057 0.878781
v 0.656778 14.756296 1.220333
v -0.190971 14.898582 1.121820
vt 0.363069 0.500000
vt 0.363069 0.999915
vt 0.000085 0.999915
vt 0.000085 0.500000
vt 0.726052 0.500000
vt 0.726052 0.999915
vt 0.726052 0.000085
vt 0.363069 0.000085
vt 0.000085 0.000085
vn 0.0749 0.8293 0.5537
vn -0.5145 0.7436 0.4271
vn -0.4898 0.8519 0.1855
vn 0.1211 0.9407 0.3168
usemtl Material.024
s off
f 326/318/131 323/319/131 321/320/131 325/321/131
f 324/322/132 319/323/132 323/319/132 326/318/132
f 318/324/133 324/322/133 326/318/133 322/325/133
f 322/325/134 326/318/134 325/321/134 320/326/134
o Plane.299_Plane.356
v 0.112680 16.311615 -0.786452
v -2.115664 16.196259 -1.184192
v -0.150730 16.170975 0.730096
v -2.379074 16.055618 0.332355
v 0.000209 16.496166 -0.001201
v -2.228136 16.380812 -0.398942
v -0.989410 16.414038 -0.968376
v -1.252820 16.273396 0.548171
v -1.101882 16.598589 -0.183126
vt 0.363069 0.500000
vt 0.363069 0.999915
vt 0.000085 0.999915
vt 0.000085 0.500000
vt 0.726052 0.500000
vt 0.726052 0.999915
vt 0.726052 0.000085
vt 0.363069 0.000085
vt 0.000085 0.000085
vn -0.2423 0.9041 0.3520
vn -0.1385 0.9595 -0.2453
vn 0.1248 0.9697 -0.2100
vn 0.0172 0.9123 0.4092
usemtl Material.023
s off
f 335/327/135 332/328/135 330/329/135 334/330/135
f 333/331/136 328/332/136 332/328/136 335/327/136
f 327/333/137 333/331/137 335/327/137 331/334/137
f 331/334/138 335/327/138 334/330/138 329/335/138
o Plane.296_Plane.353
v -0.642736 16.228476 -0.547152
v -2.049899 15.295878 1.102434
v 0.641790 15.912382 0.369897
v -0.765373 14.979786 2.019482
v -0.001017 16.323235 -0.000726
v -1.408180 15.390638 1.648859
v -1.346659 15.920979 0.332857
v -0.062134 15.604887 1.249905
v -0.704941 16.015739 0.879282
vt 0.363069 0.500000
vt 0.363069 0.999915
vt 0.000085 0.999915
vt 0.000085 0.500000
vt 0.726052 0.500000
vt 0.726052 0.999915
vt 0.726052 0.000085
vt 0.363069 0.000085
vt 0.000085 0.000085
vn 0.0823 0.7354 0.6726
vn -0.4036 0.8550 0.3257
vn -0.2538 0.9582 0.1318
vn 0.2499 0.8343 0.4914
usemtl Material.020
s off
f 344/336/139 341/337/139 339/338/139 343/339/139
f 342/340/140 337/341/140 341/337/140 344/336/140
f 336/342/141 342/340/141 344/336/141 340/343/141
f 340/343/142 344/336/142 343/339/142 338/344/142
o Plane.292_Plane.352
v -0.272048 16.160496 -0.865265
v -2.174842 14.590969 0.218894
v 0.543021 16.305450 0.775102
v -1.359773 14.735923 1.859261
v -0.000646 16.502975 -0.001299
v -1.903440 14.933449 1.082860
v -1.308958 15.545337 -0.295683
v -0.493888 15.690290 1.344684
v -1.037555 15.887815 0.568283
vt 0.363069 0.500000
vt 0.363069 0.999915
vt 0.000085 0.999915
vt 0.000085 0.500000
vt 0.726052 0.500000
vt 0.726052 0.999915
vt 0.726052 0.000085
vt 0.363069 0.000085
vt 0.000085 0.000085
vn -0.4777 0.7114 0.5155
vn -0.7478 0.6633 -0.0280
vn -0.5628 0.8137 -0.1458
vn -0.2828 0.8634 0.4177
usemtl Material.019
s off
f 353/345/143 350/346/143 348/347/143 352/348/143
f 351/349/144 346/350/144 350/346/144 353/345/144
f 345/351/145 351/349/145 353/345/145 349/352/145
f 349/352/146 353/345/146 352/348/146 347/353/146
o Plane.255_Plane.342
v 0.403056 17.689215 -0.499132
v -1.152648 16.586109 -1.143227
v -0.270350 17.958359 0.666421
v -1.826055 16.855255 0.022325
v 0.000533 18.025331 -0.000923
v -1.555171 16.922226 -0.645019
v -0.416141 17.264265 -0.874301
v -1.089548 17.533409 0.291251
v -0.818664 17.600382 -0.376093
vt 0.363069 0.500000
vt 0.363069 0.999915
vt 0.000085 0.999915
vt 0.000085 0.500000
vt 0.726052 0.500000
vt 0.726052 0.999915
vt 0.726052 0.000085
vt 0.363069 0.000085
vt 0.000085 0.000085
vn -0.6300 0.7555 -0.1799
vn -0.3313 0.6361 -0.6968
vn -0.1188 0.7760 -0.6195
vn -0.4284 0.8997 -0.0836
usemtl Material.018
s off
f 362/354/147 359/355/147 357/356/147 361/357/147
f 360/358/148 355/359/148 359/355/148 362/354/148
f 354/360/149 360/358/149 362/354/149 358/361/149
f 358/361/150 362/354/150 361/357/150 356/362/150
o Plane.254_Plane.339
v 0.712587 17.809954 -0.378410
v -0.450442 16.854198 -2.177189
v -0.626774 17.794149 0.495973
v -1.789803 16.838394 -1.302806
v 0.001061 18.057901 -0.000693
v -1.161969 17.102146 -1.799471
v 0.104787 17.492790 -1.315158
v -1.234575 17.476986 -0.440775
v -0.606740 17.740738 -0.937441
vt 0.363069 0.500000
vt 0.363069 0.999915
vt 0.000085 0.999915
vt 0.000085 0.500000
vt 0.726052 0.500000
vt 0.726052 0.999915
vt 0.726052 0.000085
vt 0.363069 0.000085
vt 0.000085 0.000085
vn -0.5369 0.8055 -0.2509
vn -0.0271 0.8115 -0.5837
vn 0.1149 0.9159 -0.3847
vn -0.4135 0.9096 -0.0397
usemtl Material.017
s off
f 371/363/151 368/364/151 366/365/151 370/366/151
f 369/367/152 364/368/152 368/364/152 371/363/152
f 363/369/153 369/367/153 371/363/153 367/370/153
f 367/370/154 371/363/154 370/366/154 365/371/154
o Plane.253_Plane.310
v -0.540329 16.508619 -0.482367
v -1.710426 15.670459 1.031512
v 0.600306 16.454548 0.369308
v -0.569790 15.616387 1.883187
v -0.000903 16.709698 -0.000675
v -1.171000 15.871538 1.513205
v -1.144782 16.232832 0.309658
v -0.004147 16.178761 1.161333
v -0.605356 16.433910 0.791351
vt 0.363069 0.500000
vt 0.363069 0.999915
vt 0.000085 0.999915
vt 0.000085 0.500000
vt 0.726052 0.500000
vt 0.726052 0.999915
vt 0.726052 0.000085
vt 0.363069 0.000085
vt 0.000085 0.000085
vn -0.0297 0.7997 0.5997
vn -0.5172 0.8228 0.2357
vn -0.3764 0.9258 0.0351
vn 0.1289 0.9018 0.4124
usemtl Material.016
s off
f 380/372/155 377/373/155 375/374/155 379/375/155
f 378/376/156 373/377/156 377/373/156 380/372/156
f 372/378/157 378/376/157 380/372/157 376/379/157
f 376/379/158 380/372/158 379/375/158 374/380/158
o Plane.250_Plane.260
v -0.182654 18.056053 -0.731454
v -2.003762 17.053930 -0.095162
v 0.329397 18.008364 0.658958
v -1.491712 17.006241 1.295251
v -0.000406 18.264778 -0.001101
v -1.821514 17.262655 0.635191
v -1.139552 17.701082 -0.391230
v -0.627501 17.653393 0.999182
v -0.957304 17.909805 0.339123
vt 0.363069 0.500000
vt 0.363069 0.999915
vt 0.000085 0.999915
vt 0.000085 0.500000
vt 0.726052 0.500000
vt 0.726052 0.999915
vt 0.726052 0.000085
vt 0.363069 0.000085
vt 0.000085 0.000085
vn -0.4032 0.7669 0.4994
vn -0.6135 0.7865 -0.0717
vn -0.3930 0.9054 -0.1607
vn -0.1750 0.8851 0.4313
usemtl Material.013
s off
f 389/381/159 386/382/159 384/383/159 388/384/159
f 387/385/160 382/386/160 386/382/160 389/381/160
f 381/387/161 387/385/161 389/381/161 385/388/161
f 385/388/162 389/381/162 388/384/162 383/389/162
o Plane.249_Plane.259
v 0.801119 18.285496 -0.485343
v -0.552724 17.116718 -2.460966
v -0.646323 18.124460 0.601820
v -2.000165 16.955681 -1.373803
v 0.001146 18.491367 -0.000861
v -1.352696 17.322590 -1.976484
v 0.076300 17.881004 -1.510278
v -1.371142 17.719969 -0.423116
v -0.723673 18.086876 -1.025797
vt 0.363069 0.500000
vt 0.363069 0.999915
vt 0.000085 0.999915
vt 0.000085 0.500000
vt 0.726052 0.500000
vt 0.726052 0.999915
vt 0.726052 0.000085
vt 0.363069 0.000085
vt 0.000085 0.000085
vn -0.6182 0.7597 -0.2017
vn -0.1333 0.8136 -0.5659
vn 0.0119 0.9272 -0.3743
vn -0.4908 0.8713 0.0032
usemtl Material.011
s off
f 398/390/163 395/391/163 393/392/163 397/393/163
f 396/394/164 391/395/164 395/391/164 398/390/164
f 390/396/165 396/394/165 398/390/165 394/397/165
f 394/397/166 398/390/166 397/393/166 392/398/166
o Plane.247_Plane.257
v -0.422217 19.163668 -0.440666
v -1.508769 18.439301 0.695560
v 0.464770 19.039358 0.328293
v -0.621782 18.314991 1.464520
v -0.000703 19.288485 -0.000609
v -1.087254 18.564117 1.135617
v -0.979299 18.918930 0.162358
v -0.092312 18.794622 0.931318
v -0.557785 19.043747 0.602416
vt 0.363069 0.500000
vt 0.363069 0.999915
vt 0.000085 0.999915
vt 0.000085 0.500000
vt 0.726052 0.500000
vt 0.726052 0.999915
vt 0.726052 0.000085
vt 0.363069 0.000085
vt 0.000085 0.000085
vn -0.0451 0.7646 0.6430
vn -0.5026 0.8287 0.2464
vn -0.3434 0.9371 0.0631
vn 0.1309 0.8706 0.4742
usemtl Material.009
s off
f 407/399/167 404/400/167 402/401/167 406/402/167
f 405/403/168 400/404/168 404/400/168 407/399/168
f 399/405/169 405/403/169 407/399/169 403/406/169
f 403/406/170 407/399/170 406/402/170 401/407/170
o Plane.245_Plane.255
v -0.550753 17.785971 -0.708856
v -2.141953 16.437485 0.780753
v 0.689296 17.678282 0.518276
v -0.901904 16.329796 2.007886
v -0.000982 17.997915 -0.000972
v -1.592182 16.649429 1.488638
v -1.390484 17.278687 0.095195
v -0.150434 17.170996 1.322328
v -0.840713 17.490629 0.803079
vt 0.363069 0.500000
vt 0.363069 0.999915
vt 0.000085 0.999915
vt 0.000085 0.500000
vt 0.726052 0.500000
vt 0.726052 0.999915
vt 0.726052 0.000085
vt 0.363069 0.000085
vt 0.000085 0.000085
vn -0.1797 0.7129 0.6778
vn -0.6117 0.7505 0.2504
vn -0.4532 0.8872 0.0864
vn -0.0055 0.8483 0.5295
usemtl Material.007
s off
f 416/408/171 413/409/171 411/410/171 415/411/171
f 414/412/172 409/413/172 413/409/172 416/408/172
f 408/414/173 414/412/173 416/408/173 412/415/173
f 412/415/174 416/408/174 415/411/174 410/416/174
o Plane.244_Plane.254
v 0.710579 18.743670 -0.260521
v -0.152657 17.721792 -2.006433
v -0.632359 18.736721 0.407537
v -1.495594 17.714846 -1.338375
v 0.001064 18.975309 -0.000529
v -0.862172 17.953434 -1.746440
v 0.255062 18.380419 -1.179984
v -1.087876 18.373472 -0.511926
v -0.454454 18.612061 -0.919992
vt 0.363069 0.500000
vt 0.363069 0.999915
vt 0.000085 0.999915
vt 0.000085 0.500000
vt 0.726052 0.500000
vt 0.726052 0.999915
vt 0.726052 0.000085
vt 0.363069 0.000085
vt 0.000085 0.000085
vn -0.5225 0.7735 -0.3587
vn 0.0227 0.7764 -0.6299
vn 0.1378 0.8960 -0.4222
vn -0.4273 0.8930 -0.1411
usemtl Material.006
s off
f 425/417/175 422/418/175 420/419/175 424/420/175
f 423/421/176 418/422/176 422/418/176 425/417/176
f 417/423/177 423/421/177 425/417/177 421/424/177
f 421/424/178 425/417/178 424/420/178 419/425/178
o Plane.243_Plane.253
v 0.318330 18.980053 -0.438458
v -0.832156 18.267546 -1.172890
v -0.201397 18.884037 0.468844
v -1.351884 18.171528 -0.265588
v 0.000412 19.095940 -0.000719
v -1.150075 18.383430 -0.735150
v -0.293381 18.726751 -0.815669
v -0.813108 18.630735 0.091633
v -0.611299 18.842636 -0.377929
vt 0.363069 0.500000
vt 0.363069 0.999915
vt 0.000085 0.999915
vt 0.000085 0.500000
vt 0.726052 0.500000
vt 0.726052 0.999915
vt 0.726052 0.000085
vt 0.363069 0.000085
vt 0.000085 0.000085
vn -0.6666 0.7438 0.0492
vn -0.3652 0.7995 -0.4769
vn -0.1593 0.9196 -0.3592
vn -0.4717 0.8619 0.1862
usemtl Material.005
s off
f 434/426/179 431/427/179 429/428/179 433/429/179
f 432/430/180 427/431/180 431/427/180 434/426/180
f 426/432/181 432/430/181 434/426/181 430/433/181
f 430/433/182 434/426/182 433/429/182 428/434/182
o Plane.240_Plane.249
v -0.750568 17.822971 -0.038696
v -0.736393 16.879612 1.882542
v 0.702208 17.700363 -0.109617
v 0.716383 16.757004 1.811621
v -0.001151 17.991610 0.000056
v 0.013024 17.048250 1.921294
v -0.729015 17.495731 0.968540
v 0.723761 17.373123 0.897619
v 0.020402 17.664370 1.007293
vt 0.363069 0.500000
vt 0.363069 0.999915
vt 0.000085 0.999915
vt 0.000085 0.500000
vt 0.726052 0.500000
vt 0.726052 0.999915
vt 0.726052 0.000085
vt 0.363069 0.000085
vt 0.000085 0.000085
vn 0.3952 0.7602 0.5156
vn -0.2108 0.8114 0.5452
vn -0.2240 0.9255 0.3055
vn 0.4041 0.8725 0.2748
usemtl Material.004
s off
f 443/435/183 440/436/183 438/437/183 442/438/183
f 441/439/184 436/440/184 440/436/184 443/435/184
f 435/441/185 441/439/185 443/435/185 439/442/185
f 439/442/186 443/435/186 442/438/186 437/443/186
o Plane.223_Plane.212
v -0.613603 17.985670 0.114414
v -0.114564 17.485325 1.930145
v 0.665628 18.190630 -0.180694
v 1.164668 17.690285 1.635037
v -0.001013 18.304882 0.000234
v 0.498027 17.804537 1.815965
v -0.381060 17.871639 1.043243
v 0.898172 18.076599 0.748135
v 0.231530 18.190851 0.929063
vt 0.363069 0.500000
vt 0.363069 0.999915
vt 0.000085 0.999915
vt 0.000085 0.500000
vt 0.726052 0.500000
vt 0.726052 0.999915
vt 0.726052 0.000085
vt 0.363069 0.000085
vt 0.000085 0.000085
vn 0.2447 0.9137 0.3245
vn -0.3415 0.8198 0.4597
vn -0.4199 0.8821 0.2134
vn 0.1877 0.9795 0.0732
usemtl Material.003
s off
f 452/444/187 449/445/187 447/446/187 451/447/187
f 450/448/188 445/449/188 449/445/188 452/444/188
f 444/450/189 450/448/189 452/444/189 448/451/189
f 448/451/190 452/444/190 451/447/190 446/452/190
o Plane.079_Plane.400
v -0.531411 18.986946 0.121435
v 0.175714 18.108921 1.434963
v 0.545872 19.236406 -0.291759
v 1.252997 18.358379 1.021769
v -0.000853 19.288187 0.000327
v 0.706272 18.410162 1.313855
v -0.182926 18.658810 0.831900
v 0.894357 18.908270 0.418706
v 0.347631 18.960052 0.710792
vt 0.363069 0.500000
vt 0.363069 0.999915
vt 0.000085 0.999915
vt 0.000085 0.500000
vt 0.726052 0.500000
vt 0.726052 0.999915
vt 0.726052 0.000085
vt 0.363069 0.000085
vt 0.000085 0.000085
vn 0.3473 0.7865 0.5106
vn -0.2083 0.6579 0.7237
vn -0.3271 0.7866 0.5237
vn 0.2489 0.9200 0.3028
usemtl Material.009
s off
f 461/453/191 458/454/191 456/455/191 460/456/191
f 459/457/192 454/458/192 458/454/192 461/453/192
f 453/459/193 459/457/193 461/453/193 457/460/193
f 457/460/194 461/453/194 460/456/194 455/461/194
