# Blender v3.2.0 OBJ File: 'trees.blend'
# www.blender.org
mtllib Spruce Medium 2 Leaves - LOD 1.mtl
o _Joined.006_Plane.1263
v -0.022918 8.700531 -0.795550
v -2.196059 7.983474 -0.657943
v 0.110411 8.594703 0.758565
v -2.062730 7.877645 0.896172
v -0.943835 4.468216 -0.809635
v -2.383650 2.097563 1.486721
v 1.158564 4.419578 0.458358
v -0.281250 2.048924 2.754713
v -0.138597 4.914545 -0.721699
v -2.294250 4.440458 -0.233914
v 0.179565 5.016256 0.783200
v -1.976087 4.542171 1.270985
v 0.757840 4.975486 -0.088947
v 0.179655 3.947676 -2.074626
v -0.766806 5.136380 0.271715
v -1.344990 4.108570 -1.713965
v -0.840099 5.206638 -0.195562
v -1.340240 4.137241 1.904412
v 0.753832 4.866095 0.010638
v 0.253690 3.796698 2.110611
v -0.509278 5.984713 -1.033956
v -2.998781 4.366820 0.605722
v 0.740251 6.034062 0.911885
v -1.749252 4.416171 2.551562
v 0.826483 5.274785 -1.069339
v -2.090788 3.577377 -3.003395
v -0.567721 5.106517 1.181315
v -3.484992 3.409109 -0.752741
v 0.223070 6.790264 -0.920543
v -2.053166 5.551060 -1.361803
v -0.011202 6.591615 0.845819
v -2.287439 5.352411 0.404559
v -0.721439 7.758117 -0.281044
v -1.285182 6.848289 1.858892
v 0.821413 7.958787 0.210721
v 0.257670 7.048958 2.350657
v 0.888948 7.388119 -0.264675
v -0.084648 5.985923 -2.363050
v -0.782041 7.378845 0.516821
v -1.755637 5.976648 -1.581554
v -0.849169 5.251831 -0.408396
v -1.851915 4.428599 2.066480
v 0.906957 5.325845 0.327754
v -0.095789 4.502614 2.802629
v -0.306756 5.352630 -1.162247
v -3.339918 3.817630 0.022106
v 0.541314 5.452717 1.139407
v -2.491848 3.917717 2.323759
v -0.530911 9.067554 -0.665070
v -2.460690 8.496297 1.017663
v 0.605414 9.259685 0.703307
v -1.324365 8.688428 2.386040
v 0.399207 7.874775 -0.594909
v -1.269866 6.672423 -1.238164
v -0.225353 8.035137 0.725913
v -1.894427 6.832786 0.082658
v 0.891277 9.152023 -0.411831
v -0.382385 8.152439 -2.773402
v -0.832375 9.181710 0.505218
v -2.106037 8.182126 -1.856353
v 0.726506 8.618156 0.013245
v 0.706414 8.071557 -2.039459
v -0.722113 8.613616 0.028633
v -0.742205 8.067018 -2.024071
v -0.926603 6.340480 -0.597811
v -2.204397 5.070257 2.178188
v 1.072964 6.563667 0.424715
v -0.204831 5.293443 3.200714
v 0.003320 6.532336 -0.976725
v -2.495595 5.053077 -0.503347
v 0.254273 6.741920 1.002961
v -2.244642 5.262661 1.476339
v 0.002713 7.506153 -0.703298
v -1.834337 6.428201 -0.331507
v 0.186371 7.693609 0.747674
v -1.650679 6.615656 1.119465
v 0.083622 10.166107 -0.756702
v -2.183962 9.634754 -0.888831
v -0.040804 10.304225 0.823245
v -2.308387 9.772872 0.691116
v -0.784236 8.823726 -0.264240
v -1.193036 7.654113 1.790544
v 0.820419 8.825618 0.056084
v 0.411619 7.656005 2.110868
v -0.395834 10.326808 0.373792
v 0.839852 9.570148 1.249074
v 0.347207 10.551991 -0.480537
v 1.582893 9.795330 0.394745
v 0.527289 8.440980 -0.568133
v -1.193833 7.465817 -1.787875
v -0.423400 8.537372 0.696278
v -2.144522 7.562209 -0.523465
v -0.310347 11.470239 -0.703661
v -1.965836 10.280546 0.242995
v 0.477488 11.419441 0.610246
v -1.178001 10.229749 1.556902
v 0.884304 9.772058 0.064920
v 0.584550 8.590245 -2.370627
v -0.952424 10.029533 0.166038
v -1.252178 8.847721 -2.269509
v 0.509160 9.085077 -0.962503
v -2.330481 7.928182 -2.086471
v -0.391707 9.332065 1.059264
v -3.231348 8.175168 -0.064704
v -0.288790 12.179698 0.466619
v 1.011589 11.669073 1.201432
v 0.218222 12.108232 -0.480288
v 1.518600 11.597607 0.254524
v -0.688184 10.865936 -0.098935
v -0.754579 10.179884 1.854108
v 0.719362 10.952927 -0.020527
v 0.652967 10.266874 1.932516
v 0.580655 11.990664 0.080079
v 0.621713 11.243095 -1.474385
v -0.594507 12.025206 0.032428
v -0.553450 11.277637 -1.522036
v -0.313554 10.291912 -0.976727
v -2.570776 8.764967 -0.098844
v 0.523019 10.060797 0.772287
v -1.734203 8.533853 1.650171
v -0.318677 11.698098 0.598200
v 1.134563 10.363546 1.006940
v 0.080576 11.730278 -0.716239
v 1.533815 10.395727 -0.307499
v 0.734512 11.833394 -0.286446
v -0.037948 10.589653 -1.953430
v -0.592607 11.700201 0.427900
v -1.365067 10.456461 -1.239085
v -0.415911 10.976059 -0.621316
v -1.911487 10.065180 0.543643
v 0.502944 10.869326 0.474856
v -0.992633 9.958445 1.639815
v -0.123928 10.271393 -0.636347
v -2.047521 10.520002 -0.469862
v 0.011249 10.440147 0.673517
v -1.912343 10.688758 0.840002
v -0.080082 12.808741 -0.757039
v -1.860991 11.613257 -0.195064
v 0.292013 12.940611 0.702666
v -1.488896 11.745129 1.264641
v -0.426358 13.151917 -0.126014
v -0.630467 12.654832 1.043850
v 0.438353 13.154133 0.025797
v 0.234244 12.657048 1.195660
v 0.810203 11.319425 0.109037
v 0.751229 9.639660 -1.526957
v -0.787444 11.301282 0.185258
v -0.846419 9.621517 -1.450736
v 0.639640 13.567581 -0.101478
v 0.013042 12.443546 -1.579019
v -0.621613 13.732756 0.307741
v -1.248211 12.608721 -1.169799
v -0.353588 11.994292 -0.566615
v -1.882765 11.461878 0.496887
v 0.400933 11.993410 0.517846
v -1.128244 11.460996 1.581348
v 0.097894 12.846659 0.467688
v 1.286940 12.305658 0.079722
v -0.177778 12.876848 -0.419298
v 1.011267 12.335848 -0.807263
v -0.503339 12.519309 -0.145940
v -0.715609 11.845601 1.236365
v 0.537354 12.573587 0.040326
v 0.325084 11.899879 1.422631
v 0.058948 13.722164 -0.764568
v -1.972396 12.479462 -0.465830
v 0.160228 13.945616 0.853634
v -1.871116 12.702912 1.152372
vt 0.726052 0.000085
vt 0.726052 0.999915
vt 0.000085 0.999915
vt 0.000085 0.000085
vt 0.726052 0.000085
vt 0.726052 0.999915
vt 0.000085 0.999915
vt 0.000085 0.000085
vt 0.726052 0.000085
vt 0.726052 0.999915
vt 0.000085 0.999915
vt 0.000085 0.000085
vt 0.000085 0.999915
vt 0.000085 0.000085
vt 0.726052 0.000085
vt 0.726052 0.999915
vt 0.726052 0.000085
vt 0.726052 0.999915
vt 0.000085 0.999915
vt 0.000085 0.000085
vt 0.726052 0.000085
vt 0.726052 0.999915
vt 0.000085 0.999915
vt 0.000085 0.000085
vt 0.726052 0.000085
vt 0.726052 0.999915
vt 0.000085 0.999915
vt 0.000085 0.000085
vt 0.000085 0.999915
vt 0.000085 0.000085
vt 0.726052 0.000085
vt 0.726052 0.999915
vt 0.726052 0.000085
vt 0.726052 0.999915
vt 0.000085 0.999915
vt 0.000085 0.000085
vt 0.726052 0.000085
vt 0.726052 0.999915
vt 0.000085 0.999915
vt 0.000085 0.000085
vt 0.726052 0.000085
vt 0.726052 0.999915
vt 0.000085 0.999915
vt 0.000085 0.000085
vt 0.726052 0.000085
vt 0.726052 0.999915
vt 0.000085 0.999915
vt 0.000085 0.000085
vt 0.000085 0.999915
vt 0.000085 0.000085
vt 0.726052 0.000085
vt 0.726052 0.999915
vt 0.000085 0.999915
vt 0.000085 0.000085
vt 0.726052 0.000085
vt 0.726052 0.999915
vt 0.726052 0.000085
vt 0.726052 0.999915
vt 0.000085 0.999915
vt 0.000085 0.000085
vt 0.726052 0.000085
vt 0.726052 0.999915
vt 0.000085 0.999915
vt 0.000085 0.000085
vt 0.726052 0.000085
vt 0.726052 0.999915
vt 0.000085 0.999915
vt 0.000085 0.000085
vt 0.726052 0.000085
vt 0.726052 0.999915
vt 0.000085 0.999915
vt 0.000085 0.000085
vt 0.726052 0.000085
vt 0.726052 0.999915
vt 0.000085 0.999915
vt 0.000085 0.000085
vt 0.000085 0.999915
vt 0.000085 0.000085
vt 0.726052 0.000085
vt 0.726052 0.999915
vt 0.726052 0.000085
vt 0.726052 0.999915
vt 0.000085 0.999915
vt 0.000085 0.000085
vt 0.000085 0.999915
vt 0.000085 0.000085
vt 0.726052 0.000085
vt 0.726052 0.999915
vt 0.000085 0.999915
vt 0.000085 0.000085
vt 0.726052 0.000085
vt 0.726052 0.999915
vt 0.000085 0.999915
vt 0.000085 0.000085
vt 0.726052 0.000085
vt 0.726052 0.999915
vt 0.000085 0.999915
vt 0.000085 0.000085
vt 0.726052 0.000085
vt 0.726052 0.999915
vt 0.000085 0.999915
vt 0.000085 0.000085
vt 0.726052 0.000085
vt 0.726052 0.999915
vt 0.726052 0.000085
vt 0.726052 0.999915
vt 0.000085 0.999915
vt 0.000085 0.000085
vt 0.000085 0.999915
vt 0.000085 0.000085
vt 0.726052 0.000085
vt 0.726052 0.999915
vt 0.726052 0.000085
vt 0.726052 0.999915
vt 0.000085 0.999915
vt 0.000085 0.000085
vt 0.000085 0.999915
vt 0.000085 0.000085
vt 0.726052 0.000085
vt 0.726052 0.999915
vt 0.000085 0.999915
vt 0.000085 0.000085
vt 0.726052 0.000085
vt 0.726052 0.999915
vt 0.000085 0.999915
vt 0.000085 0.000085
vt 0.726052 0.000085
vt 0.726052 0.999915
vt 0.000085 0.999915
vt 0.000085 0.000085
vt 0.726052 0.000085
vt 0.726052 0.999915
vt 0.726052 0.000085
vt 0.726052 0.999915
vt 0.000085 0.999915
vt 0.000085 0.000085
vt 0.000085 0.999915
vt 0.000085 0.000085
vt 0.726052 0.000085
vt 0.726052 0.999915
vt 0.000085 0.999915
vt 0.000085 0.000085
vt 0.726052 0.000085
vt 0.726052 0.999915
vt 0.726052 0.000085
vt 0.726052 0.999915
vt 0.000085 0.999915
vt 0.000085 0.000085
vt 0.000085 0.999915
vt 0.000085 0.000085
vt 0.726052 0.000085
vt 0.726052 0.999915
vt 0.726052 0.000085
vt 0.726052 0.999915
vt 0.000085 0.999915
vt 0.000085 0.000085
vt 0.726052 0.000085
vt 0.726052 0.999915
vt 0.000085 0.999915
vt 0.000085 0.000085
vt 0.726052 0.000085
vt 0.726052 0.999915
vt 0.000085 0.999915
vt 0.000085 0.000085
vt 0.000085 0.999915
vt 0.000085 0.000085
vt 0.726052 0.000085
vt 0.726052 0.999915
vn -0.3069 0.9474 0.0908
vn -0.3273 0.7524 0.5716
vn -0.2190 0.9755 -0.0196
vn -0.0141 0.8897 -0.4564
vn 0.1250 0.8718 0.4737
vn -0.4116 0.8786 0.2420
vn -0.4017 0.8975 -0.1818
vn -0.4830 0.8750 0.0343
vn -0.2246 0.9167 0.3306
vn -0.2235 0.8551 -0.4677
vn -0.1482 0.9548 0.2576
vn -0.4132 0.9036 0.1130
vn -0.2354 0.9701 0.0593
vn -0.4688 0.8227 -0.3215
vn -0.1514 0.9370 -0.3149
vn -0.0058 0.9663 -0.2573
vn -0.2568 0.9181 0.3019
vn -0.5128 0.8581 -0.0258
vn -0.5125 0.8575 -0.0459
vn -0.2213 0.9698 -0.1022
vn -0.0964 0.8731 0.4778
vn 0.2299 0.8730 0.4301
vn -0.3028 0.9057 -0.2967
vn -0.4397 0.8478 0.2964
vn 0.1003 0.8902 -0.4443
vn -0.2834 0.9286 -0.2397
vn 0.3155 0.9439 0.0977
vn -0.0765 0.9415 0.3281
vn 0.0440 0.9008 -0.4320
vn -0.4414 0.8376 0.3218
vn 0.6288 0.7488 0.2093
vn -0.3308 0.8234 -0.4611
vn -0.2898 0.8983 0.3304
vn 0.1151 0.9836 -0.1386
vn -0.5426 0.8377 0.0626
vn -0.0691 0.9224 0.3799
vn -0.0420 0.6979 -0.7150
vn -0.0825 0.8097 -0.5810
vn -0.2252 0.9615 0.1575
vn 0.3882 0.9172 -0.0894
vn -0.1220 0.8995 0.4196
vn -0.5289 0.8445 -0.0835
usemtl Material.972
s off
f 1/1/1 2/2/1 4/3/1 3/4/1
usemtl Material.973
f 5/5/2 6/6/2 8/7/2 7/8/2
usemtl Material.974
f 9/9/3 10/10/3 12/11/3 11/12/3
usemtl Material.975
f 16/13/4 15/14/4 13/15/4 14/16/4
usemtl Material.976
f 17/17/5 18/18/5 20/19/5 19/20/5
usemtl Material.977
f 21/21/6 22/22/6 24/23/6 23/24/6
usemtl Material.978
f 25/25/7 26/26/7 28/27/7 27/28/7
usemtl Material.979
f 32/29/8 31/30/8 29/31/8 30/32/8
usemtl Material.980
f 33/33/9 34/34/9 36/35/9 35/36/9
usemtl Material.981
f 37/37/10 38/38/10 40/39/10 39/40/10
usemtl Material.982
f 41/41/11 42/42/11 44/43/11 43/44/11
usemtl Material.983
f 45/45/12 46/46/12 48/47/12 47/48/12
usemtl Material.984
f 52/49/13 51/50/13 49/51/13 50/52/13
usemtl Material.985
f 56/53/14 55/54/14 53/55/14 54/56/14
usemtl Material.986
f 57/57/15 58/58/15 60/59/15 59/60/15
usemtl Material.987
f 61/61/16 62/62/16 64/63/16 63/64/16
usemtl Material.988
f 65/65/17 66/66/17 68/67/17 67/68/17
usemtl Material.989
f 69/69/18 70/70/18 72/71/18 71/72/18
usemtl Material.990
f 73/73/19 74/74/19 76/75/19 75/76/19
usemtl Material.991
f 80/77/20 79/78/20 77/79/20 78/80/20
usemtl Material.992
f 81/81/21 82/82/21 84/83/21 83/84/21
usemtl Material.993
f 88/85/22 87/86/22 85/87/22 86/88/22
usemtl Material.994
f 92/89/23 91/90/23 89/91/23 90/92/23
usemtl Material.995
f 96/93/24 95/94/24 93/95/24 94/96/24
usemtl Material.996
f 100/97/25 99/98/25 97/99/25 98/100/25
usemtl Material.997
f 104/101/26 103/102/26 101/103/26 102/104/26
usemtl Material.998
f 105/105/27 106/106/27 108/107/27 107/108/27
usemtl Material.999
f 112/109/28 111/110/28 109/111/28 110/112/28
usemtl Material.1000
f 113/113/29 114/114/29 116/115/29 115/116/29
usemtl Material.1001
f 120/117/30 119/118/30 117/119/30 118/120/30
usemtl Material.1002
f 124/121/31 123/122/31 121/123/31 122/124/31
usemtl Material.1003
f 128/125/32 127/126/32 125/127/32 126/128/32
usemtl Material.1004
f 132/129/33 131/130/33 129/131/33 130/132/33
usemtl Material.1005
f 133/133/34 134/134/34 136/135/34 135/136/34
usemtl Material.1006
f 140/137/35 139/138/35 137/139/35 138/140/35
usemtl Material.1007
f 144/141/36 143/142/36 141/143/36 142/144/36
usemtl Material.1008
f 145/145/37 146/146/37 148/147/37 147/148/37
usemtl Material.1009
f 152/149/38 151/150/38 149/151/38 150/152/38
usemtl Material.1010
f 153/153/39 154/154/39 156/155/39 155/156/39
usemtl Material.1011
f 157/157/40 158/158/40 160/159/40 159/160/40
usemtl Material.1012
f 161/161/41 162/162/41 164/163/41 163/164/41
usemtl Material.1013
f 168/165/42 167/166/42 165/167/42 166/168/42
