# Blender v3.2.0 OBJ File: 'trees.blend'
# www.blender.org
mtllib Spruce Medium 4 Leaves - LOD 1.mtl
o _Joined.008_Plane.1345
v -1.052641 12.597528 0.026725
v -0.678187 10.307541 1.905173
v 0.922577 12.520592 -0.460811
v 1.297030 10.230604 1.417637
v -0.792521 12.505230 -0.647560
v -2.360956 11.264377 1.452062
v 0.841462 12.288400 0.444894
v -0.726973 11.047546 2.544516
v 0.176365 13.798082 -0.863259
v -1.950647 12.331388 -0.917364
v 0.083102 13.868464 0.895215
v -2.043910 12.401769 0.841110
v -0.200824 12.777489 -1.177021
v -2.632928 10.539476 -0.502657
v 0.578695 12.579793 0.978233
v -1.853410 10.341780 1.652596
v 0.768030 12.781238 1.098233
v 2.652313 10.130340 -1.167898
v -1.161700 13.015464 -0.780330
v 0.722583 10.364567 -3.046460
v -1.314015 12.249362 -0.082300
v -0.861302 9.748842 2.806843
v 1.289567 12.370387 -0.385521
v 1.742280 9.869867 2.503622
v -0.069350 12.434223 1.132966
v 2.193836 10.164752 0.997037
v -0.358482 12.275425 -1.029723
v 1.904704 10.005954 -1.165651
v 0.504392 13.365402 0.620948
v 2.177651 12.724638 -0.810867
v -0.533713 13.257818 -0.544064
v 1.139546 12.617054 -1.975880
v -0.839724 12.685872 0.115406
v -0.444260 12.007905 2.432624
v 0.799696 12.612929 -0.185724
v 1.195160 11.934962 2.131495
v 0.902207 12.896811 -0.596734
v -0.877175 10.827450 -2.241784
v -0.662413 13.049399 0.903704
v -2.441795 10.980038 -0.741347
v 0.225979 12.608141 -0.914949
v -2.010658 10.967943 -1.011018
v 0.067111 12.714494 0.967983
v -2.169526 11.074295 0.871914
v -0.418619 12.810731 1.020674
v 2.190097 11.276976 1.871191
v 0.156873 12.648016 -1.037912
v 2.765589 11.114262 -0.187396
v 0.556121 12.927678 0.410268
v 1.544033 12.201000 -1.280030
v -0.643431 13.057015 -0.346426
v 0.344481 12.330338 -2.036723
v -0.621665 12.872941 -0.552170
v -2.135960 12.304852 1.246366
v 0.644776 12.841759 0.504273
v -0.869518 12.273669 2.302809
v -0.784225 13.835454 -0.277803
v -1.094096 12.566447 1.877843
v 0.885916 14.032133 0.078061
v 0.576044 12.763126 2.233706
v 0.659622 14.111021 0.568356
v 2.003820 13.002679 -1.194933
v -0.722162 13.967526 -0.394816
v 0.622036 12.859184 -2.158105
v 0.708970 13.115121 -0.506932
v -0.790134 12.154202 -2.305928
v -0.609812 13.087922 0.606538
v -2.108916 12.127004 -1.192459
v 0.391619 13.259419 -0.447020
v -0.843392 12.987487 -1.559255
v -0.353787 13.118093 0.415221
v -1.588798 12.846161 -0.697013
v 0.091166 13.577311 0.769141
v 1.903687 12.370757 0.361548
v -0.289038 13.499359 -0.690836
v 1.523483 12.292806 -1.098429
v -0.656862 13.854837 0.433045
v 0.584904 13.052157 2.136422
v 0.561085 13.756193 -0.501325
v 1.802851 12.953514 1.202052
v -0.396827 13.112444 0.384478
v 0.802485 12.500772 1.367500
v 0.351261 13.213113 -0.465568
v 1.550573 12.601441 0.517453
v 0.124283 14.013749 0.788033
v 2.220984 13.148528 0.296443
v -0.243659 13.996681 -0.751251
v 1.853042 13.131460 -1.242841
v 0.593817 14.347723 -0.044397
v 0.335473 13.836098 -1.749746
v -0.619033 14.453545 0.107590
v -0.877376 13.941919 -1.597759
v 0.303666 14.218062 -0.533258
v -1.254009 13.457344 -1.162767
v -0.209761 14.323254 0.610064
v -1.767437 13.562535 -0.019446
v 0.698431 13.924703 -0.375931
v -0.609163 12.970149 -2.162446
v -0.664465 14.103150 0.526259
v -1.972059 13.148597 -1.260256
v 0.755268 14.284239 0.398141
v 1.438088 12.958914 -1.620199
v -0.850576 14.351439 -0.189254
v -0.167756 13.026114 -2.207594
v -0.658638 14.383976 -0.174102
v -0.915154 13.610315 1.724850
v 0.721745 14.527443 0.070815
v 0.465229 13.753782 1.969766
v -0.230304 14.279530 0.705552
v 1.706210 13.606253 1.265079
v 0.137497 14.175611 -0.692445
v 2.074011 13.502334 -0.132918
vt 0.000085 0.999915
vt 0.000085 0.000085
vt 0.726052 0.000085
vt 0.726052 0.999915
vt 0.726052 0.000085
vt 0.726052 0.999915
vt 0.000085 0.999915
vt 0.000085 0.000085
vt 0.000085 0.999915
vt 0.000085 0.000085
vt 0.726052 0.000085
vt 0.726052 0.999915
vt 0.000085 0.999915
vt 0.000085 0.000085
vt 0.726052 0.000085
vt 0.726052 0.999915
vt 0.726052 0.000085
vt 0.726052 0.999915
vt 0.000085 0.999915
vt 0.000085 0.000085
vt 0.000085 0.999915
vt 0.000085 0.000085
vt 0.726052 0.000085
vt 0.726052 0.999915
vt 0.000085 0.999915
vt 0.000085 0.000085
vt 0.726052 0.000085
vt 0.726052 0.999915
vt 0.000085 0.999915
vt 0.000085 0.000085
vt 0.726052 0.000085
vt 0.726052 0.999915
vt 0.726052 0.000085
vt 0.726052 0.999915
vt 0.000085 0.999915
vt 0.000085 0.000085
vt 0.726052 0.000085
vt 0.726052 0.999915
vt 0.000085 0.999915
vt 0.000085 0.000085
vt 0.000085 0.999915
vt 0.000085 0.000085
vt 0.726052 0.000085
vt 0.726052 0.999915
vt 0.726052 0.000085
vt 0.726052 0.999915
vt 0.000085 0.999915
vt 0.000085 0.000085
vt 0.000085 0.999915
vt 0.000085 0.000085
vt 0.726052 0.000085
vt 0.726052 0.999915
vt 0.000085 0.999915
vt 0.000085 0.000085
vt 0.726052 0.000085
vt 0.726052 0.999915
vt 0.726052 0.000085
vt 0.726052 0.999915
vt 0.000085 0.999915
vt 0.000085 0.000085
vt 0.000085 0.999915
vt 0.000085 0.000085
vt 0.726052 0.000085
vt 0.726052 0.999915
vt 0.726052 0.000085
vt 0.726052 0.999915
vt 0.000085 0.999915
vt 0.000085 0.000085
vt 0.726052 0.000085
vt 0.726052 0.999915
vt 0.000085 0.999915
vt 0.000085 0.000085
vt 0.726052 0.000085
vt 0.726052 0.999915
vt 0.000085 0.999915
vt 0.000085 0.000085
vt 0.726052 0.000085
vt 0.726052 0.999915
vt 0.000085 0.999915
vt 0.000085 0.000085
vt 0.000085 0.999915
vt 0.000085 0.000085
vt 0.726052 0.000085
vt 0.726052 0.999915
vt 0.000085 0.999915
vt 0.000085 0.000085
vt 0.726052 0.000085
vt 0.726052 0.999915
vt 0.726052 0.000085
vt 0.726052 0.999915
vt 0.000085 0.999915
vt 0.000085 0.000085
vt 0.726052 0.000085
vt 0.726052 0.999915
vt 0.000085 0.999915
vt 0.000085 0.000085
vt 0.726052 0.000085
vt 0.726052 0.999915
vt 0.000085 0.999915
vt 0.000085 0.000085
vt 0.726052 0.000085
vt 0.726052 0.999915
vt 0.000085 0.999915
vt 0.000085 0.000085
vt 0.000085 0.999915
vt 0.000085 0.000085
vt 0.726052 0.000085
vt 0.726052 0.999915
vt 0.726052 0.000085
vt 0.726052 0.999915
vt 0.000085 0.999915
vt 0.000085 0.000085
vn 0.2075 0.6405 0.7394
vn -0.1570 0.8971 0.4129
vn -0.5655 0.8224 -0.0629
vn -0.6044 0.7433 0.2868
vn 0.5143 0.7384 -0.4362
vn 0.0405 0.7586 0.6503
vn 0.6963 0.7030 -0.1447
vn 0.1651 0.9577 -0.2356
vn 0.0914 0.9598 0.2652
vn -0.4121 0.7572 -0.5067
vn -0.5860 0.8047 -0.0949
vn 0.4891 0.8696 0.0680
vn 0.2584 0.9331 -0.2501
vn -0.1364 0.9718 0.1922
vn -0.2021 0.8564 0.4751
vn 0.1944 0.8904 -0.4115
vn -0.2561 0.9250 -0.2807
vn -0.2025 0.9792 -0.0146
vn 0.5169 0.8371 -0.1793
vn 0.2646 0.9323 0.2465
vn 0.2222 0.9260 0.3052
vn 0.3603 0.9278 -0.0964
vn 0.0465 0.9548 -0.2935
vn -0.3464 0.9071 -0.2390
vn -0.1368 0.9118 -0.3871
vn 0.2129 0.8482 -0.4850
vn -0.1586 0.9217 0.3541
vn 0.3245 0.9458 0.0151
usemtl Material.1054
s off
f 4/1/1 3/2/1 1/3/1 2/4/1
usemtl Material.1055
f 5/5/2 6/6/2 8/7/2 7/8/2
usemtl Material.1056
f 12/9/3 11/10/3 9/11/3 10/12/3
usemtl Material.1057
f 16/13/4 15/14/4 13/15/4 14/16/4
usemtl Material.1058
f 17/17/5 18/18/5 20/19/5 19/20/5
usemtl Material.1059
f 24/21/6 23/22/6 21/23/6 22/24/6
usemtl Material.1060
f 28/25/7 27/26/7 25/27/7 26/28/7
usemtl Material.1061
f 32/29/8 31/30/8 29/31/8 30/32/8
usemtl Material.1062
f 33/33/9 34/34/9 36/35/9 35/36/9
usemtl Material.1063
f 37/37/10 38/38/10 40/39/10 39/40/10
usemtl Material.1064
f 44/41/11 43/42/11 41/43/11 42/44/11
usemtl Material.1065
f 45/45/12 46/46/12 48/47/12 47/48/12
usemtl Material.1066
f 52/49/13 51/50/13 49/51/13 50/52/13
usemtl Material.1067
f 56/53/14 55/54/14 53/55/14 54/56/14
usemtl Material.1068
f 57/57/15 58/58/15 60/59/15 59/60/15
usemtl Material.1069
f 64/61/16 63/62/16 61/63/16 62/64/16
usemtl Material.1070
f 65/65/17 66/66/17 68/67/17 67/68/17
usemtl Material.1071
f 69/69/18 70/70/18 72/71/18 71/72/18
usemtl Material.1072
f 73/73/19 74/74/19 76/75/19 75/76/19
usemtl Material.1073
f 77/77/20 78/78/20 80/79/20 79/80/20
usemtl Material.1074
f 84/81/21 83/82/21 81/83/21 82/84/21
usemtl Material.1075
f 88/85/22 87/86/22 85/87/22 86/88/22
usemtl Material.1076
f 89/89/23 90/90/23 92/91/23 91/92/23
usemtl Material.1077
f 93/93/24 94/94/24 96/95/24 95/96/24
usemtl Material.1078
f 97/97/25 98/98/25 100/99/25 99/100/25
usemtl Material.1079
f 101/101/26 102/102/26 104/103/26 103/104/26
usemtl Material.1080
f 108/105/27 107/106/27 105/107/27 106/108/27
usemtl Material.1081
f 109/109/28 110/110/28 112/111/28 111/112/28
