# Blender v3.2.0 OBJ File: 'trees.blend'
# www.blender.org
mtllib Pine Trunk 3 Leaves.mtl
o Short_twigs_set.006_Plane.413
v 0.053816 3.324381 1.015350
v 0.053816 5.691178 1.015350
v 0.053816 3.324381 0.212426
v 0.053816 5.691178 0.212426
vt 0.869132 0.583327
vt 0.869132 0.998870
vt 0.728161 0.998870
vt 0.728161 0.583327
vn -1.0000 0.0000 -0.0000
usemtl thing.001
s off
f 1/1/1 2/2/1 4/3/1 3/4/1
o Short_twigs_set_2.006_Plane.414
v -0.490484 5.742299 -0.697256
v -0.490484 7.592703 -0.697256
v -0.130428 5.742299 -0.183042
v -0.130428 7.592703 -0.183042
vt 0.869132 0.583327
vt 0.869132 0.998870
vt 0.728161 0.998870
vt 0.728161 0.583327
vn 0.8192 -0.0000 -0.5736
usemtl thing.001
s off
f 5/5/2 6/6/2 8/7/2 7/8/2
o Long_twig_2.003_Plane.415
v 0.055259 7.813540 0.010655
v 1.241586 8.384452 0.145055
v 0.253844 7.416141 -0.054136
v 1.440172 7.987052 0.080263
vt 0.854803 0.003131
vt 0.854803 0.403285
vt 0.719053 0.403285
vt 0.719053 0.003131
vn 0.0276 0.1743 -0.9843
usemtl Material.208
s off
f 9/9/3 10/10/3 12/11/3 11/12/3
o Short_twigs_set.007_Plane.416
v 0.052086 4.661253 0.921611
v 0.052086 6.661253 0.921611
v 0.052086 4.661253 0.243122
v 0.052086 6.661253 0.243122
vt 0.869132 0.583327
vt 0.869132 0.998870
vt 0.728161 0.998870
vt 0.728161 0.583327
vn -1.0000 0.0000 -0.0000
usemtl thing.001
s off
f 13/13/4 14/14/4 16/15/4 15/16/4
o Short_twigs_set_2.007_Plane.417
v -0.506018 3.527860 -0.915820
v -0.506017 5.992613 -0.915820
v -0.026419 3.527860 -0.230882
v -0.026419 5.992612 -0.230882
vt 0.869132 0.583327
vt 0.869132 0.998870
vt 0.728161 0.998870
vt 0.728161 0.583327
vn 0.8192 -0.0000 -0.5736
usemtl thing.001
s off
f 17/17/5 18/18/5 20/19/5 19/20/5
o Long_twig_2.004_Plane.418
v 0.030949 6.941331 0.036337
v 0.664536 7.742688 -0.055757
v 0.304011 6.725658 0.038264
v 0.937598 7.527015 -0.053830
vt 0.854803 0.003131
vt 0.854803 0.403285
vt 0.719053 0.403285
vt 0.719053 0.003131
vn -0.0513 -0.0739 -0.9959
usemtl Material.208
s off
f 21/21/6 22/22/6 24/23/6 23/24/6
o Short_twigs_set_2.008_Plane.419
v 0.992330 3.955263 0.155502
v 0.992330 6.420016 0.155502
v 0.169712 3.955263 0.005653
v 0.169713 6.420016 0.005653
vt 0.869132 0.583327
vt 0.869132 0.998870
vt 0.728161 0.998870
vt 0.728161 0.583327
vn -0.1792 0.0000 0.9838
usemtl thing.001
s off
f 25/25/7 26/26/7 28/27/7 27/28/7
o Short_twigs_set_2.009_Plane.420
v 0.940323 4.942239 0.141778
v 0.940323 7.206673 0.141778
v 0.184562 4.942239 0.004108
v 0.184562 7.206673 0.004108
vt 0.869132 0.583327
vt 0.869132 0.998870
vt 0.728161 0.998870
vt 0.728161 0.583327
vn -0.1792 0.0000 0.9838
usemtl thing.001
s off
f 29/29/8 30/30/8 32/31/8 31/32/8
o Short_twigs_set.008_Plane.421
v 0.894478 6.653301 0.331575
v 0.894478 9.020099 0.331575
v 0.137880 6.653301 0.062788
v 0.137880 9.020099 0.062788
vt 0.869132 0.583327
vt 0.869132 0.998870
vt 0.728161 0.998870
vt 0.728161 0.583327
vn -0.3348 0.0000 0.9423
usemtl thing.001
s off
f 33/33/9 34/34/9 36/35/9 35/36/9
o Short_twigs_set.009_Plane.422
v 0.894478 9.714754 0.331575
v 0.894478 12.081553 0.331575
v 0.137880 9.714754 0.062788
v 0.137880 12.081553 0.062788
vt 0.869132 0.583327
vt 0.869132 0.998870
vt 0.728161 0.998870
vt 0.728161 0.583327
vn -0.3348 0.0000 0.9423
usemtl thing.001
s off
f 37/37/10 38/38/10 40/39/10 39/40/10
o Short_twigs_set.010_Plane.423
v 0.381470 8.123645 0.766099
v 0.381470 10.131913 0.766099
v 0.054460 8.123645 0.168415
v 0.054460 10.131913 0.168415
vt 0.869132 0.583327
vt 0.869132 0.998870
vt 0.728161 0.998870
vt 0.728161 0.583327
vn -0.8773 0.0000 0.4800
usemtl thing.001
s off
f 41/41/11 42/42/11 44/43/11 43/44/11
o Short_twigs_set_2.010_Plane.488
v -0.572342 6.843970 -0.664498
v -0.572342 8.839216 -0.664498
v -0.108106 6.843970 -0.171906
v -0.108106 8.839216 -0.171906
vt 0.869132 0.583327
vt 0.869132 0.998870
vt 0.728161 0.998870
vt 0.728161 0.583327
vn 0.7277 -0.0000 -0.6859
usemtl thing.001
s off
f 45/45/12 46/46/12 48/47/12 47/48/12
o Long_twig_2.005_Plane.489
v 0.039609 9.843311 -0.073448
v -0.125811 10.333080 -1.291701
v 0.001512 9.426495 -0.235846
v -0.163907 9.916263 -1.454099
vt 0.854803 0.003131
vt 0.854803 0.403285
vt 0.719053 0.403285
vt 0.719053 0.003131
vn -0.9885 0.0329 0.1475
usemtl Material.208
s off
f 49/49/13 50/50/13 52/51/13 51/52/13
o Short_twigs_set.011_Plane.490
v -0.439793 7.877899 -0.881982
v -0.439792 10.244697 -0.881982
v -0.069357 7.877899 -0.169618
v -0.069357 10.244696 -0.169618
vt 0.869132 0.583327
vt 0.869132 0.998870
vt 0.728161 0.998870
vt 0.728161 0.583327
vn 0.8872 -0.0000 -0.4614
usemtl thing.001
s off
f 53/53/14 54/54/14 56/55/14 55/56/14
o Plane.033_Plane.424
v 0.097695 16.965698 0.707772
v 2.374887 16.017330 0.266214
v -0.218024 16.826567 -0.621618
v 2.059168 15.878198 -1.063176
v 0.000250 17.160578 0.001053
v 2.277442 16.212210 -0.440506
v 1.274241 16.657627 0.460595
v 0.958522 16.518496 -0.868795
v 1.176796 16.852507 -0.246124
vt 0.363069 0.500000
vt 0.363069 0.999915
vt 0.000085 0.999915
vt 0.000085 0.500000
vt 0.726052 0.500000
vt 0.726052 0.999915
vt 0.726052 0.000085
vt 0.363069 0.000085
vt 0.000085 0.000085
vn 0.3521 0.7678 -0.5353
vn 0.5174 0.8406 0.1605
vn 0.2897 0.9322 0.2171
vn 0.1190 0.8570 -0.5014
usemtl Material.209
s off
f 65/57/15 62/58/15 60/59/15 64/60/15
f 63/61/16 58/62/16 62/58/16 65/57/16
f 57/63/17 63/61/17 65/57/17 61/64/17
f 61/64/18 65/57/18 64/60/18 59/65/18
o Plane.035_Plane.425
v -0.985621 17.235250 0.124874
v -0.475017 16.166073 2.816042
v 0.947613 17.200880 -0.255579
v 1.458216 16.131702 2.435589
v -0.001531 17.474134 0.000301
v 0.509072 16.404957 2.691469
v -0.719343 16.861513 1.511699
v 1.213890 16.827145 1.131246
v 0.264746 17.100399 1.387126
vt 0.363069 0.500000
vt 0.363069 0.999915
vt 0.000085 0.999915
vt 0.000085 0.500000
vt 0.726052 0.500000
vt 0.726052 0.999915
vt 0.726052 0.000085
vt 0.363069 0.000085
vt 0.000085 0.000085
vn 0.3502 0.8522 0.3888
vn -0.1474 0.8610 0.4867
vn -0.1910 0.9379 0.2894
vn 0.3184 0.9289 0.1892
usemtl Material.210
s off
f 74/66/19 71/67/19 69/68/19 73/69/19
f 72/70/20 67/71/20 71/67/20 74/66/20
f 66/72/21 72/70/21 74/66/21 70/73/21
f 70/73/22 74/66/22 73/69/22 68/74/22
o Plane.064_Plane.426
v 0.972508 16.950991 0.152369
v 1.344064 16.679060 -1.913262
v -0.905792 16.722992 -0.155475
v -0.534236 16.451061 -2.221106
v 0.001488 17.097116 0.000244
v 0.373044 16.825186 -2.065387
v 1.138266 16.978424 -0.879318
v -0.740034 16.750425 -1.187162
v 0.167246 17.124550 -1.031443
vt 0.363069 0.500000
vt 0.363069 0.999915
vt 0.000085 0.999915
vt 0.000085 0.500000
vt 0.726052 0.500000
vt 0.726052 0.999915
vt 0.726052 0.000085
vt 0.363069 0.000085
vt 0.000085 0.000085
vn -0.3134 0.8937 -0.3211
vn 0.1811 0.9537 -0.2401
vn 0.1411 0.9888 0.0490
vn -0.3757 0.9260 -0.0357
usemtl Material.211
s off
f 83/75/23 80/76/23 78/77/23 82/78/23
f 81/79/24 76/80/24 80/76/24 83/75/24
f 75/81/25 81/79/25 83/75/25 79/82/25
f 79/82/26 83/75/26 82/78/26 77/83/26
o Plane.065_Plane.427
v 0.027971 16.889191 -0.866611
v -2.844840 16.272263 -0.901114
v 0.023045 16.816324 0.846428
v -2.849766 16.199396 0.811925
v 0.000004 17.059830 -0.001357
v -2.872807 16.442902 -0.035860
v -1.424455 16.710800 -0.878375
v -1.429381 16.637934 0.834663
v -1.452422 16.881441 -0.013121
vt 0.363069 0.500000
vt 0.363069 0.999915
vt 0.000085 0.999915
vt 0.000085 0.500000
vt 0.726052 0.500000
vt 0.726052 0.999915
vt 0.726052 0.000085
vt 0.363069 0.000085
vt 0.000085 0.000085
vn -0.2879 0.9183 0.2716
vn -0.2865 0.9382 -0.1943
vn -0.1180 0.9735 -0.1958
vn -0.1193 0.9534 0.2771
usemtl Material.212
s off
f 92/84/27 89/85/27 87/86/27 91/87/27
f 90/88/28 85/89/28 89/85/28 92/84/28
f 84/90/29 90/88/29 92/84/29 88/91/29
f 88/91/30 92/84/30 91/87/30 86/92/30
o Plane.066_Plane.428
v 0.608996 18.842628 -0.759236
v -0.949520 17.707954 -1.582935
v -0.433201 19.043554 0.935918
v -1.991717 17.908880 0.112219
v 0.000825 19.248087 -0.001343
v -1.557691 18.113413 -0.825041
v -0.224957 18.466877 -1.227421
v -1.267154 18.667803 0.467733
v -0.833128 18.872334 -0.469527
vt 0.363069 0.500000
vt 0.363069 0.999915
vt 0.000085 0.999915
vt 0.000085 0.500000
vt 0.726052 0.500000
vt 0.726052 0.999915
vt 0.726052 0.000085
vt 0.363069 0.000085
vt 0.000085 0.000085
vn -0.6768 0.7194 -0.1564
vn -0.3721 0.6607 -0.6520
vn -0.0878 0.8473 -0.5237
vn -0.4140 0.9102 0.0069
usemtl Material.213
s off
f 101/93/31 98/94/31 96/95/31 100/96/31
f 99/97/32 94/98/32 98/94/32 101/93/32
f 93/99/33 99/97/33 101/93/33 97/100/33
f 97/100/34 101/93/34 100/96/34 95/101/34
o Plane.067_Plane.429
v 0.426351 18.937393 0.674882
v 1.976014 17.067179 -0.822991
v -0.662237 18.922272 -0.432466
v 0.887427 17.052057 -1.930338
v 0.000862 19.188965 0.000877
v 1.550526 17.318750 -1.496996
v 1.275811 18.165062 -0.149641
v 0.187223 18.149940 -1.256989
v 0.850323 18.416636 -0.823646
vt 0.363069 0.500000
vt 0.363069 0.999915
vt 0.000085 0.999915
vt 0.000085 0.500000
vt 0.726052 0.500000
vt 0.726052 0.999915
vt 0.726052 0.000085
vt 0.363069 0.000085
vt 0.000085 0.000085
vn 0.2429 0.6150 -0.7502
vn 0.7458 0.6220 -0.2386
vn 0.6162 0.7816 -0.0973
vn 0.0972 0.7744 -0.6252
usemtl Material.214
s off
f 110/102/35 107/103/35 105/104/35 109/105/35
f 108/106/36 103/107/36 107/103/36 110/102/36
f 102/108/37 108/106/37 110/102/37 106/109/37
f 106/109/38 110/102/38 109/105/38 104/110/38
o Plane.068_Plane.430
v -0.678146 19.309917 -0.377826
v -1.625592 18.205160 1.739681
v 0.730087 19.294786 0.244372
v -0.217359 18.190031 2.361880
v -0.001115 19.505104 -0.000493
v -0.948561 18.400349 2.117015
v -1.168883 18.884899 0.722533
v 0.239350 18.869770 1.344732
v -0.491852 19.080088 1.099866
vt 0.363069 0.500000
vt 0.363069 0.999915
vt 0.000085 0.999915
vt 0.000085 0.500000
vt 0.726052 0.500000
vt 0.726052 0.999915
vt 0.726052 0.000085
vt 0.363069 0.000085
vt 0.000085 0.000085
vn 0.0456 0.8210 0.5691
vn -0.4366 0.8262 0.3561
vn -0.3674 0.9109 0.1880
vn 0.1247 0.9056 0.4054
usemtl Material.215
s off
f 119/111/39 116/112/39 114/113/39 118/114/39
f 117/115/40 112/116/40 116/112/40 119/111/40
f 111/117/41 117/115/41 119/111/41 115/118/41
f 115/118/42 119/111/42 118/114/42 113/119/42
o Plane.069_Plane.431
v -0.332106 17.113346 0.898487
v 1.531351 17.100538 1.699402
v 0.446115 17.313585 -0.908966
v 2.309572 17.300777 -0.108051
v -0.000616 17.497625 0.001432
v 1.862841 17.484818 0.802347
v 0.563427 17.285439 1.303135
v 1.341649 17.485678 -0.504318
v 0.894917 17.669718 0.406080
vt 0.363069 0.500000
vt 0.363069 0.999915
vt 0.000085 0.999915
vt 0.000085 0.500000
vt 0.726052 0.500000
vt 0.726052 0.999915
vt 0.726052 0.000085
vt 0.363069 0.000085
vt 0.000085 0.000085
vn 0.2214 0.9712 -0.0877
vn 0.0125 0.9175 0.3976
vn -0.3014 0.9117 0.2792
vn -0.0799 0.9687 -0.2351
usemtl Material.216
s off
f 128/120/43 125/121/43 123/122/43 127/123/43
f 126/124/44 121/125/44 125/121/44 128/120/44
f 120/126/45 126/124/45 128/120/45 124/127/45
f 124/127/46 128/120/46 127/123/46 122/128/46
o Plane.070_Plane.432
v -1.024709 17.887274 0.557711
v 0.333210 17.151741 2.832290
v 0.994134 17.938765 -0.630883
v 2.352054 17.203234 1.643695
v -0.001599 18.242598 0.000941
v 1.356320 17.507065 2.275520
v -0.337151 17.726534 1.718574
v 1.681692 17.778027 0.529979
v 0.685959 18.081858 1.161804
vt 0.363069 0.500000
vt 0.363069 0.999915
vt 0.000085 0.999915
vt 0.000085 0.500000
vt 0.726052 0.500000
vt 0.726052 0.999915
vt 0.726052 0.000085
vt 0.363069 0.000085
vt 0.000085 0.000085
vn 0.4066 0.8883 0.2137
vn -0.0439 0.8768 0.4789
vn -0.1952 0.9491 0.2470
vn 0.2745 0.9611 -0.0295
usemtl Material.217
s off
f 137/129/47 134/130/47 132/131/47 136/132/47
f 135/133/48 130/134/48 134/130/48 137/129/48
f 129/135/49 135/133/49 137/129/49 133/136/49
f 133/136/50 137/129/50 136/132/50 131/137/50
o Plane.071_Plane.433
v -0.813044 18.110497 -0.559045
v -1.724716 17.380096 1.079164
v 0.911757 18.313414 0.491288
v 0.000084 17.583014 2.129497
v -0.001366 18.472046 -0.000832
v -0.913039 17.741644 1.637377
v -1.300742 17.908674 0.280818
v 0.424059 18.111591 1.331151
v -0.489064 18.270222 0.839031
vt 0.363069 0.500000
vt 0.363069 0.999915
vt 0.000085 0.999915
vt 0.000085 0.500000
vt 0.726052 0.500000
vt 0.726052 0.999915
vt 0.726052 0.000085
vt 0.363069 0.000085
vt 0.000085 0.000085
vn -0.1219 0.8562 0.5021
vn -0.5330 0.8078 0.2518
vn -0.4000 0.9165 -0.0120
vn 0.0326 0.9673 0.2514
usemtl Material.218
s off
f 146/138/51 143/139/51 141/140/51 145/141/51
f 144/142/52 139/143/52 143/139/52 146/138/52
f 138/144/53 144/142/53 146/138/53 142/145/53
f 142/145/54 146/138/54 145/141/54 140/146/54
o Plane.072_Plane.434
v 0.541286 16.272791 1.008549
v 2.279680 15.332130 -0.087381
v -0.671689 16.285231 -0.926183
v 1.066705 15.344569 -2.022113
v 0.000961 16.563572 0.001532
v 1.739355 15.622911 -1.094397
v 1.452044 15.981210 0.435677
v 0.239069 15.993649 -1.499055
v 0.911718 16.271992 -0.571339
vt 0.363069 0.500000
vt 0.363069 0.999915
vt 0.000085 0.999915
vt 0.000085 0.500000
vt 0.726052 0.500000
vt 0.726052 0.999915
vt 0.726052 0.000085
vt 0.363069 0.000085
vt 0.000085 0.000085
vn 0.3306 0.8108 -0.4830
vn 0.5835 0.8082 -0.0797
vn 0.3501 0.9332 0.0816
vn 0.0845 0.9359 -0.3420
usemtl Material.219
s off
f 155/147/55 152/148/55 150/149/55 154/150/55
f 153/151/56 148/152/56 152/148/56 155/147/56
f 147/153/57 153/151/57 155/147/57 151/154/57
f 151/154/58 155/147/58 154/150/58 149/155/58
o Plane.073_Plane.435
v 0.679040 17.078609 -0.176120
v -0.477411 15.468767 -3.015049
v -0.525416 16.969549 0.376365
v -1.681867 15.359705 -2.462564
v 0.000954 17.352427 -0.000438
v -1.155497 15.742583 -2.839367
v 0.053164 16.479942 -1.658752
v -1.151292 16.370882 -1.106267
v -0.624922 16.753759 -1.483070
vt 0.363069 0.500000
vt 0.363069 0.999915
vt 0.000085 0.999915
vt 0.000085 0.500000
vt 0.726052 0.500000
vt 0.726052 0.999915
vt 0.726052 0.000085
vt 0.363069 0.000085
vt 0.000085 0.000085
vn -0.6798 0.6900 -0.2485
vn 0.1463 0.7648 -0.6274
vn 0.2329 0.8636 -0.4471
vn -0.6143 0.7869 -0.0585
usemtl Material.220
s off
f 164/156/59 161/157/59 159/158/59 163/159/59
f 162/160/60 157/161/60 161/157/60 164/156/60
f 156/162/61 162/160/61 164/156/61 160/163/61
f 160/163/62 164/156/62 163/159/62 158/164/62
o Plane.074_Plane.436
v 0.001197 18.413916 -0.713771
v -2.277346 17.266047 -0.472552
v 0.199125 18.300531 0.616289
v -2.079419 17.152662 0.857507
v -0.000157 18.741503 -0.001053
v -2.278700 17.593634 0.240165
v -1.201090 18.081369 -0.563206
v -1.003163 17.967985 0.766853
v -1.202444 18.408957 0.149511
vt 0.363069 0.500000
vt 0.363069 0.999915
vt 0.000085 0.999915
vt 0.000085 0.500000
vt 0.726052 0.500000
vt 0.726052 0.999915
vt 0.726052 0.000085
vt 0.363069 0.000085
vt 0.000085 0.000085
vn -0.4446 0.6548 0.6112
vn -0.5860 0.7358 -0.3393
vn -0.2905 0.8692 -0.4001
vn -0.1409 0.7835 0.6052
usemtl Material.221
s off
f 173/165/63 170/166/63 168/167/63 172/168/63
f 171/169/64 166/170/64 170/166/64 173/165/64
f 165/171/65 171/169/65 173/165/65 169/172/65
f 169/172/66 173/165/66 172/168/66 167/173/66
o Plane.075_Plane.437
v 0.603094 16.982719 0.273988
v 1.367712 16.173683 -1.923784
v -0.653497 17.020924 -0.177252
v 0.111121 16.211889 -2.375023
v 0.000995 17.296391 0.000357
v 0.765613 16.487356 -2.197414
v 1.001859 16.763237 -0.855056
v -0.254732 16.801443 -1.306296
v 0.399760 17.076910 -1.128687
vt 0.363069 0.500000
vt 0.363069 0.999915
vt 0.000085 0.999915
vt 0.000085 0.500000
vt 0.726052 0.500000
vt 0.726052 0.999915
vt 0.726052 0.000085
vt 0.363069 0.000085
vt 0.000085 0.000085
vn -0.2049 0.8257 -0.5256
vn 0.5363 0.8031 -0.2595
vn 0.4648 0.8854 -0.0079
vn -0.3053 0.9088 -0.2845
usemtl Material.222
s off
f 182/174/67 179/175/67 177/176/67 181/177/67
f 180/178/68 175/179/68 179/175/68 182/174/68
f 174/180/69 180/178/69 182/174/69 178/181/69
f 178/181/70 182/174/70 181/177/70 176/182/70
o Plane.076_Plane.438
v -0.760626 18.640284 0.032886
v -0.295665 17.520336 2.431933
v 0.768748 18.736757 -0.218486
v 1.233709 17.616808 2.180561
v -0.001211 19.014427 0.000199
v 0.463750 17.894478 2.399246
v -0.531457 18.285030 1.290828
v 0.997917 18.381504 1.039456
v 0.227957 18.659174 1.258141
vt 0.363069 0.500000
vt 0.363069 0.999915
vt 0.000085 0.999915
vt 0.000085 0.500000
vt 0.726052 0.500000
vt 0.726052 0.999915
vt 0.726052 0.000085
vt 0.363069 0.000085
vt 0.000085 0.000085
vn 0.4131 0.7937 0.4465
vn -0.3430 0.7460 0.5708
vn -0.4083 0.8563 0.3162
vn 0.3798 0.9060 0.1867
usemtl Material.223
s off
f 191/183/71 188/184/71 186/185/71 190/186/71
f 189/187/72 184/188/72 188/184/72 191/183/72
f 183/189/73 189/187/73 191/183/73 187/190/73
f 187/190/74 191/183/74 190/186/74 185/191/74
o Plane.077_Plane.439
v -0.372176 17.351120 0.856067
v 1.918591 16.674637 1.729710
v 0.308360 17.399357 -0.891007
v 2.599127 16.722874 -0.017365
v -0.000539 17.615534 0.001384
v 2.290228 16.939051 0.875026
v 0.792912 17.163822 1.304732
v 1.473448 17.212059 -0.442343
v 1.164550 17.428236 0.450048
vt 0.363069 0.500000
vt 0.363069 0.999915
vt 0.000085 0.999915
vt 0.000085 0.500000
vt 0.726052 0.500000
vt 0.726052 0.999915
vt 0.726052 0.000085
vt 0.363069 0.000085
vt 0.000085 0.000085
vn 0.4207 0.9042 -0.0734
vn 0.2434 0.8917 0.3817
vn 0.0339 0.9505 0.3088
vn 0.2160 0.9634 -0.1586
usemtl Material.224
s off
f 200/192/75 197/193/75 195/194/75 199/195/75
f 198/196/76 193/197/76 197/193/76 200/192/76
f 192/198/77 198/196/77 200/192/77 196/199/77
f 196/199/78 200/192/78 199/195/78 194/200/78
o Plane.078_Plane.440
v 0.000516 17.092339 0.788080
v 2.358419 16.452507 0.697083
v -0.067769 17.062721 -0.773075
v 2.290134 16.422892 -0.864072
v 0.000054 17.330172 0.001236
v 2.357957 16.690342 -0.089760
v 1.200624 16.931122 0.738646
v 1.132339 16.901505 -0.822510
v 1.200162 17.168957 -0.048198
vt 0.363069 0.500000
vt 0.363069 0.999915
vt 0.000085 0.999915
vt 0.000085 0.500000
vt 0.726052 0.500000
vt 0.726052 0.999915
vt 0.726052 0.000085
vt 0.363069 0.000085
vt 0.000085 0.000085
vn 0.3500 0.8755 -0.3331
vn 0.3763 0.8869 0.2679
vn 0.1391 0.9479 0.2864
vn 0.1120 0.9362 -0.3332
usemtl Material.225
s off
f 209/201/79 206/202/79 204/203/79 208/204/79
f 207/205/80 202/206/80 206/202/80 209/201/80
f 201/207/81 207/205/81 209/201/81 205/208/81
f 205/208/82 209/201/82 208/204/82 203/209/82
o Plane.080_Plane.442
v 1.026037 17.059784 0.275239
v 1.609725 16.292048 -2.527497
v -1.075934 17.221472 -0.206800
v -0.492246 16.453735 -3.009536
v 0.001665 17.385727 0.000382
v 0.585353 16.617990 -2.802354
v 1.334599 16.829878 -1.147384
v -0.767373 16.991564 -1.629424
v 0.310226 17.155819 -1.422242
vt 0.363069 0.500000
vt 0.363069 0.999915
vt 0.000085 0.999915
vt 0.000085 0.500000
vt 0.726052 0.500000
vt 0.726052 0.999915
vt 0.726052 0.000085
vt 0.363069 0.000085
vt 0.000085 0.000085
vn -0.0690 0.9248 -0.3742
vn 0.3579 0.8920 -0.2762
vn 0.3222 0.9431 -0.0825
vn -0.1138 0.9766 -0.1825
usemtl Material.227
s off
f 218/210/83 215/211/83 213/212/83 217/213/83
f 216/214/84 211/215/84 215/211/84 218/210/84
f 210/216/85 216/214/85 218/210/85 214/217/85
f 214/217/86 218/210/86 217/213/86 212/218/86
o Plane.142_Plane.443
v 0.239350 15.468268 -0.845758
v -2.138106 15.587798 -1.694682
v -0.355960 15.567200 0.835369
v -2.733416 15.686729 -0.013554
v 0.000471 15.805770 -0.001331
v -2.376985 15.925300 -0.850255
v -0.912457 15.708965 -1.267793
v -1.507767 15.807897 0.413334
v -1.151336 16.046467 -0.423367
vt 0.363069 0.500000
vt 0.363069 0.999915
vt 0.000085 0.999915
vt 0.000085 0.500000
vt 0.726052 0.500000
vt 0.726052 0.999915
vt 0.726052 0.000085
vt 0.363069 0.000085
vt 0.000085 0.000085
vn -0.1665 0.9647 0.2041
vn 0.0342 0.9313 -0.3626
vn 0.2941 0.9133 -0.2818
vn 0.0857 0.9479 0.3068
usemtl Material.228
s off
f 227/219/87 224/220/87 222/221/87 226/222/87
f 225/223/88 220/224/88 224/220/88 227/219/88
f 219/225/89 225/223/89 227/219/89 223/226/89
f 223/226/90 227/219/90 226/222/90 221/227/90
o Plane.143_Plane.444
v 0.462718 16.042305 -1.109706
v -3.062130 14.584888 -2.217710
v -0.298523 16.137217 1.187157
v -3.823372 14.679801 0.079154
v 0.000603 16.417311 -0.001819
v -3.524245 14.959893 -1.109822
v -1.350898 15.519349 -1.689176
v -2.112139 15.614262 0.607687
v -1.813012 15.894354 -0.581289
vt 0.363069 0.500000
vt 0.363069 0.999915
vt 0.000085 0.999915
vt 0.000085 0.500000
vt 0.726052 0.500000
vt 0.726052 0.999915
vt 0.726052 0.000085
vt 0.363069 0.000085
vt 0.000085 0.000085
vn -0.4964 0.8645 0.0788
vn -0.3300 0.8438 -0.4233
vn -0.1458 0.9170 -0.3712
vn -0.3158 0.9382 0.1416
usemtl Material.229
s off
f 236/228/91 233/229/91 231/230/91 235/231/91
f 234/232/92 229/233/92 233/229/92 236/228/92
f 228/234/93 234/232/93 236/228/93 232/235/93
f 232/235/94 236/228/94 235/231/94 230/236/94
o Plane.208_Plane.445
v 0.484098 15.357276 1.178680
v 2.156955 13.931562 0.285346
v -0.735087 15.305236 -1.021312
v 0.937771 13.879522 -1.914646
v 0.000966 15.621274 0.001742
v 1.673823 14.195561 -0.891592
v 1.399964 14.826596 0.683682
v 0.180779 14.774557 -1.516311
v 0.916832 15.090595 -0.493256
vt 0.363069 0.500000
vt 0.363069 0.999915
vt 0.000085 0.999915
vt 0.000085 0.500000
vt 0.726052 0.500000
vt 0.726052 0.999915
vt 0.726052 0.000085
vt 0.363069 0.000085
vt 0.000085 0.000085
vn 0.4926 0.6660 -0.5602
vn 0.7227 0.6758 -0.1451
vn 0.4974 0.8675 -0.0096
vn 0.2545 0.8571 -0.4479
usemtl Material.230
s off
f 245/237/95 242/238/95 240/239/95 244/240/95
f 243/241/96 238/242/96 242/238/96 245/237/96
f 237/243/97 243/241/97 245/237/97 241/244/97
f 241/244/98 245/237/98 244/240/98 239/245/98
o Plane.209_Plane.446
v -0.689677 17.151073 -0.981578
v -2.215092 16.057432 0.212109
v 0.818193 17.033613 0.837717
v -0.707222 15.939971 2.031404
v -0.001194 17.343895 -0.001441
v -1.526610 16.250252 1.192246
v -1.493499 16.762266 -0.340456
v 0.014371 16.644806 1.478839
v -0.805017 16.955088 0.639681
vt 0.363069 0.500000
vt 0.363069 0.999915
vt 0.000085 0.999915
vt 0.000085 0.500000
vt 0.726052 0.500000
vt 0.726052 0.999915
vt 0.726052 0.000085
vt 0.363069 0.000085
vt 0.000085 0.000085
vn -0.3017 0.7601 0.5756
vn -0.5727 0.7812 0.2486
vn -0.3785 0.9218 0.0845
vn -0.0955 0.8997 0.4259
usemtl Material.231
s off
f 254/246/99 251/247/99 249/248/99 253/249/99
f 252/250/100 247/251/100 251/247/100 254/246/100
f 246/252/101 252/250/101 254/246/101 250/253/101
f 250/253/102 254/246/102 253/249/102 248/254/102
o Plane.210_Plane.447
v -0.748119 17.279371 0.536417
v 1.033016 16.219984 2.841392
v 0.582392 17.065376 -0.590068
v 2.363526 16.005989 1.714906
v -0.001054 17.535120 0.000892
v 1.780081 16.475733 2.305866
v 0.193838 16.977539 1.706316
v 1.524349 16.763546 0.579830
v 0.940903 17.233288 1.170790
vt 0.363069 0.500000
vt 0.363069 0.999915
vt 0.000085 0.999915
vt 0.000085 0.500000
vt 0.726052 0.500000
vt 0.726052 0.999915
vt 0.726052 0.000085
vt 0.363069 0.000085
vt 0.000085 0.000085
vn 0.6460 0.7627 0.0315
vn 0.0760 0.8544 0.5140
vn -0.0941 0.9430 0.3191
vn 0.4980 0.8478 -0.1822
usemtl Material.232
s off
f 263/255/103 260/256/103 258/257/103 262/258/103
f 261/259/104 256/260/104 260/256/104 263/255/104
f 255/261/105 261/259/105 263/255/105 259/262/105
f 259/262/106 263/255/106 262/258/106 257/263/106
o Plane.211_Plane.448
v -0.491595 15.189573 1.068958
v 1.865406 15.617009 2.493272
v 0.721106 15.442017 -1.013619
v 3.078108 15.869452 0.410696
v -0.000960 15.657020 0.001649
v 2.356041 16.084455 1.425964
v 0.614218 15.617635 1.764770
v 1.826919 15.870078 -0.317806
v 1.104852 16.085081 0.697462
vt 0.363069 0.500000
vt 0.363069 0.999915
vt 0.000085 0.999915
vt 0.000085 0.500000
vt 0.726052 0.500000
vt 0.726052 0.999915
vt 0.726052 0.000085
vt 0.363069 0.000085
vt 0.000085 0.000085
vn 0.0863 0.9853 -0.1473
vn -0.1864 0.9286 0.3210
vn -0.4500 0.8754 0.1766
vn -0.1640 0.9350 -0.3146
usemtl Material.233
s off
f 272/264/107 269/265/107 267/266/107 271/267/107
f 270/268/108 265/269/108 269/265/108 272/264/108
f 264/270/109 270/268/109 272/264/109 268/271/109
f 268/271/110 272/264/110 271/267/110 266/272/110
o Plane.212_Plane.449
v -0.410319 15.358712 -1.237996
v -4.058285 13.995338 0.128381
v 0.545003 15.128053 1.082377
v -3.102963 13.764679 2.448755
v -0.000757 15.725595 -0.001838
v -3.648723 14.362222 1.364540
v -2.277079 14.979931 -0.507086
v -1.321757 14.749272 1.813288
v -1.867517 15.346814 0.729073
vt 0.363069 0.500000
vt 0.363069 0.999915
vt 0.000085 0.999915
vt 0.000085 0.500000
vt 0.726052 0.500000
vt 0.726052 0.999915
vt 0.726052 0.000085
vt 0.363069 0.000085
vt 0.000085 0.000085
vn -0.2398 0.7942 0.5584
vn -0.5056 0.8584 -0.0872
vn -0.2668 0.9445 -0.1919
vn 0.0094 0.8778 0.4790
usemtl Material.234
s off
f 281/273/111 278/274/111 276/275/111 280/276/111
f 279/277/112 274/278/112 278/274/112 281/273/112
f 273/279/113 279/277/113 281/273/113 277/280/113
f 277/280/114 281/273/114 280/276/114 275/281/114
o Plane.213_Plane.450
v 0.712758 16.012625 0.841109
v 2.771439 14.936611 -1.266655
v -0.862326 16.168646 -0.776945
v 1.196355 15.092633 -2.884710
v 0.001247 16.538769 0.001282
v 2.059929 15.462756 -2.106483
v 1.789858 15.756117 -0.232121
v 0.214774 15.912139 -1.850175
v 1.078348 16.282261 -1.071949
vt 0.363069 0.500000
vt 0.363069 0.999915
vt 0.000085 0.999915
vt 0.000085 0.500000
vt 0.726052 0.500000
vt 0.726052 0.999915
vt 0.726052 0.000085
vt 0.363069 0.000085
vt 0.000085 0.000085
vn 0.1281 0.8330 -0.5383
vn 0.6195 0.7843 -0.0335
vn 0.4147 0.8868 0.2042
vn -0.1050 0.9382 -0.3297
usemtl Material.235
s off
f 290/282/115 287/283/115 285/284/115 289/285/115
f 288/286/116 283/287/116 287/283/116 290/282/116
f 282/288/117 288/286/117 290/282/117 286/289/117
f 286/289/118 290/282/118 289/285/118 284/290/118
o Plane.214_Plane.451
v 0.481911 15.553091 -0.857143
v -3.062560 14.184996 -2.323233
v -0.367357 15.780660 0.983720
v -3.911829 14.412564 -0.482369
v 0.000673 15.979384 -0.001458
v -3.543798 14.611289 -1.467547
v -1.325881 15.065349 -1.630859
v -2.175149 15.292917 0.210005
v -1.807119 15.491642 -0.775174
vt 0.363069 0.500000
vt 0.363069 0.999915
vt 0.000085 0.999915
vt 0.000085 0.500000
vt 0.726052 0.500000
vt 0.726052 0.999915
vt 0.726052 0.000085
vt 0.363069 0.000085
vt 0.000085 0.000085
vn -0.4552 0.8904 0.0096
vn -0.2075 0.8240 -0.5272
vn -0.0404 0.8851 -0.4636
vn -0.2925 0.9527 0.0829
usemtl Material.236
s off
f 299/291/119 296/292/119 294/293/119 298/294/119
f 297/295/120 292/296/120 296/292/120 299/291/120
f 291/297/121 297/295/121 299/291/121 295/298/121
f 295/298/122 299/291/122 298/294/122 293/299/122
o Plane.215_Plane.452
v 0.055372 15.452473 -0.871241
v -3.616471 13.794756 -0.573825
v 0.163370 15.528157 0.883923
v -3.508473 13.870440 1.181340
v -0.000086 15.825795 -0.001390
v -3.671929 14.168078 0.296026
v -1.849306 14.834350 -0.727390
v -1.741308 14.910033 1.027775
v -1.904764 15.207671 0.142462
vt 0.363069 0.500000
vt 0.363069 0.999915
vt 0.000085 0.999915
vt 0.000085 0.500000
vt 0.726052 0.500000
vt 0.726052 0.999915
vt 0.726052 0.000085
vt 0.363069 0.000085
vt 0.000085 0.000085
vn -0.4501 0.8180 0.3581
vn -0.4949 0.7867 -0.3692
vn -0.3107 0.8661 -0.3915
vn -0.2650 0.8982 0.3509
usemtl Material.237
s off
f 308/300/123 305/301/123 303/302/123 307/303/123
f 306/304/124 301/305/124 305/301/124 308/300/124
f 300/306/125 306/304/125 308/300/125 304/307/125
f 304/307/126 308/300/126 307/303/126 302/308/126
o Plane.216_Plane.453
v 1.264102 15.652468 -0.278687
v 0.302371 13.506425 -3.970356
v -1.129242 15.389572 0.497639
v -2.090972 13.243530 -3.194030
v 0.001896 15.792535 -0.000615
v -0.959835 13.646492 -3.692283
v 0.742071 14.750001 -2.193676
v -1.651273 14.487105 -1.417350
v -0.520136 14.890068 -1.915603
vt 0.363069 0.500000
vt 0.363069 0.999915
vt 0.000085 0.999915
vt 0.000085 0.500000
vt 0.726052 0.500000
vt 0.726052 0.999915
vt 0.726052 0.000085
vt 0.363069 0.000085
vt 0.000085 0.000085
vn -0.4646 0.7754 -0.4277
vn -0.0337 0.8227 -0.5675
vn 0.0061 0.9039 -0.4276
vn -0.4309 0.8559 -0.2859
usemtl Material.238
s off
f 317/309/127 314/310/127 312/311/127 316/312/127
f 315/313/128 310/314/128 314/310/128 317/309/128
f 309/315/129 315/313/129 317/309/129 313/316/129
f 313/316/130 317/309/130 316/312/130 311/317/130
o Plane.217_Plane.454
v -1.170985 16.040781 -0.075218
v -1.063272 14.899671 2.324799
v 1.206274 16.149424 -0.130254
v 1.313988 15.008313 2.269762
v -0.001883 16.574451 0.000044
v 0.105831 15.433340 2.400060
v -1.129395 15.771333 1.189352
v 1.247865 15.879975 1.134315
v 0.039708 16.305002 1.264614
vt 0.363069 0.500000
vt 0.363069 0.999915
vt 0.000085 0.999915
vt 0.000085 0.500000
vt 0.726052 0.500000
vt 0.726052 0.999915
vt 0.726052 0.000085
vt 0.363069 0.000085
vt 0.000085 0.000085
vn 0.3276 0.7586 0.5633
vn -0.3690 0.7267 0.5794
vn -0.4174 0.8859 0.2025
vn 0.3438 0.9207 0.1849
usemtl Material.239
s off
f 326/318/131 323/319/131 321/320/131 325/321/131
f 324/322/132 319/323/132 323/319/132 326/318/132
f 318/324/133 324/322/133 326/318/133 322/325/133
f 322/325/134 326/318/134 325/321/134 320/326/134
o Plane.218_Plane.455
v 0.340654 15.684726 1.244418
v 3.106506 14.213717 0.130824
v -0.567432 15.824010 -1.194999
v 2.198420 14.353002 -2.308593
v 0.000719 16.099396 0.001932
v 2.766572 14.628387 -1.111662
v 1.795258 15.165955 0.673313
v 0.887172 15.305239 -1.766104
v 1.455323 15.580625 -0.569173
vt 0.363069 0.500000
vt 0.363069 0.999915
vt 0.000085 0.999915
vt 0.000085 0.500000
vt 0.726052 0.500000
vt 0.726052 0.999915
vt 0.726052 0.000085
vt 0.363069 0.000085
vt 0.000085 0.000085
vn 0.4294 0.8141 -0.3911
vn 0.6105 0.7863 0.0954
vn 0.3956 0.8982 0.1916
vn 0.2081 0.9270 -0.3121
usemtl Material.240
s off
f 335/327/135 332/328/135 330/329/135 334/330/135
f 333/331/136 328/332/136 332/328/136 335/327/136
f 327/333/137 333/331/137 335/327/137 331/334/137
f 331/334/138 335/327/138 334/330/138 329/335/138
o Plane.219_Plane.456
v -0.818272 15.073017 1.345263
v 1.656894 12.424202 2.701702
v 0.424906 14.797329 -1.461590
v 2.900073 12.148514 -0.105151
v -0.000985 15.202841 0.002223
v 2.474182 12.554026 1.358662
v 0.542241 13.916748 2.061415
v 1.785419 13.641059 -0.745438
v 1.359529 14.046571 0.718375
vt 0.363069 0.500000
vt 0.363069 0.999915
vt 0.000085 0.999915
vt 0.000085 0.500000
vt 0.726052 0.500000
vt 0.726052 0.999915
vt 0.726052 0.000085
vt 0.363069 0.000085
vt 0.000085 0.000085
vn 0.7875 0.6135 0.0592
vn 0.6190 0.6509 0.4396
vn 0.4811 0.7950 0.3696
vn 0.6534 0.7567 -0.0195
usemtl Material.241
s off
f 344/336/139 341/337/139 339/338/139 343/339/139
f 342/340/140 337/341/140 341/337/140 344/336/140
f 336/342/141 342/340/141 344/336/141 340/343/141
f 340/343/142 344/336/142 343/339/142 338/344/142
o Plane.220_Plane.457
v -1.582569 14.248565 0.138653
v -0.977196 12.655310 3.321472
v 1.573684 14.409618 -0.381047
v 2.179057 12.816362 2.801772
v -0.002500 14.683435 0.000412
v 0.602873 13.090180 3.183231
v -1.278662 13.674521 1.806452
v 1.877591 13.835575 1.286752
v 0.301407 14.109392 1.668211
vt 0.363069 0.500000
vt 0.363069 0.999915
vt 0.000085 0.999915
vt 0.000085 0.500000
vt 0.726052 0.500000
vt 0.726052 0.999915
vt 0.726052 0.000085
vt 0.363069 0.000085
vt 0.000085 0.000085
vn 0.2645 0.8237 0.5015
vn -0.1705 0.8015 0.5731
vn -0.2194 0.9095 0.3530
vn 0.2295 0.9324 0.2791
usemtl Material.242
s off
f 353/345/143 350/346/143 348/347/143 352/348/143
f 351/349/144 346/350/144 350/346/144 353/345/144
f 345/351/145 351/349/145 353/345/145 349/352/145
f 349/352/146 353/345/146 352/348/146 347/353/146
o Plane.221_Plane.458
v 1.319707 15.115937 -0.136733
v 0.825488 14.270027 -3.489398
v -1.407492 15.355601 0.204817
v -1.901711 14.509691 -3.147848
v -0.001145 15.769423 0.000906
v -0.495365 14.923512 -3.351759
v 1.099449 15.028201 -1.833880
v -1.627750 15.267865 -1.492330
v -0.221403 15.681686 -1.696241
vt 0.363069 0.500000
vt 0.363069 0.999915
vt 0.000085 0.999915
vt 0.000085 0.500000
vt 0.726052 0.500000
vt 0.726052 0.999915
vt 0.726052 0.000085
vt 0.363069 0.000085
vt 0.000085 0.000085
vn -0.3108 0.8826 -0.3528
vn 0.3619 0.8235 -0.4370
vn 0.4325 0.8958 -0.1024
vn -0.2840 0.9588 -0.0127
usemtl Material.243
s off
f 362/354/147 359/355/147 357/356/147 361/357/147
f 360/358/148 355/359/148 359/355/148 362/354/148
f 354/360/149 360/358/149 362/354/149 358/361/149
f 358/361/150 362/354/150 361/357/150 356/362/150
o Plane.222_Plane.459
v 0.071378 14.323575 -0.879578
v -3.762669 12.278941 -0.324950
v 0.278327 14.414762 0.887185
v -3.555721 12.370129 1.441813
v -0.000164 14.867164 -0.001399
v -3.834212 12.822530 0.553229
v -1.955583 13.614078 -0.605532
v -1.748635 13.705265 1.161231
v -2.027126 14.157666 0.272647
vt 0.363069 0.500000
vt 0.363069 0.999915
vt 0.000085 0.999915
vt 0.000085 0.500000
vt 0.726052 0.500000
vt 0.726052 0.999915
vt 0.726052 0.000085
vt 0.363069 0.000085
vt 0.000085 0.000085
vn -0.4571 0.7265 0.5131
vn -0.5717 0.6760 -0.4650
vn -0.3445 0.7854 -0.5142
vn -0.2260 0.8376 0.4973
usemtl Material.244
s off
f 371/363/151 368/364/151 366/365/151 370/366/151
f 369/367/152 364/368/152 368/364/152 371/363/152
f 363/369/153 369/367/153 371/363/153 367/370/153
f 367/370/154 371/363/154 370/366/154 365/371/154
o Plane.224_Plane.461
v 0.871739 15.626456 1.014668
v 3.178590 14.856683 -0.978000
v -0.870333 15.389355 -0.910483
v 1.436518 14.619581 -2.903151
v 0.001380 15.913517 0.001525
v 2.308231 15.143744 -1.991143
v 2.025589 15.496358 -0.013431
v 0.283518 15.259256 -1.938581
v 1.155230 15.783419 -1.026574
vt 0.363069 0.500000
vt 0.363069 0.999915
vt 0.000085 0.999915
vt 0.000085 0.500000
vt 0.726052 0.500000
vt 0.726052 0.999915
vt 0.726052 0.000085
vt 0.363069 0.000085
vt 0.000085 0.000085
vn 0.0350 0.8517 -0.5229
vn 0.4163 0.9035 -0.1016
vn 0.2015 0.9741 0.1029
vn -0.1983 0.9196 -0.3390
usemtl Material.246
s off
f 380/372/155 377/373/155 375/374/155 379/375/155
f 378/376/156 373/377/156 377/373/156 380/372/156
f 372/378/157 378/376/157 380/372/157 376/379/157
f 376/379/158 380/372/158 379/375/158 374/380/158
o Plane.225_Plane.462
v -1.228210 13.468098 -0.849165
v -3.073163 11.372504 2.042066
v 1.301304 13.106492 0.502873
v -0.543649 11.010899 3.394105
v -0.002003 13.661015 -0.001071
v -1.846956 11.565421 2.890161
v -2.174903 12.655056 0.704541
v 0.354612 12.293450 2.056580
v -0.948695 12.847973 1.552636
vt 0.363069 0.500000
vt 0.363069 0.999915
vt 0.000085 0.999915
vt 0.000085 0.500000
vt 0.726052 0.500000
vt 0.726052 0.999915
vt 0.726052 0.000085
vt 0.363069 0.000085
vt 0.000085 0.000085
vn 0.0309 0.7110 0.7025
vn -0.4357 0.7777 0.4531
vn -0.3302 0.9039 0.2718
vn 0.1508 0.8352 0.5289
usemtl Material.247
s off
f 389/381/159 386/382/159 384/383/159 388/384/159
f 387/385/160 382/386/160 386/382/160 389/381/160
f 381/387/161 387/385/161 389/381/161 385/388/161
f 385/388/162 389/381/162 388/384/162 383/389/162
o Plane.226_Plane.463
v -1.015877 13.836464 0.199583
v 0.361813 11.305321 3.306087
v 0.828120 13.837849 -0.617075
v 2.205811 11.306705 2.489430
v -0.001460 14.258616 0.000647
v 1.376230 11.727473 3.107152
v -0.268979 12.835636 1.884367
v 1.575019 12.837021 1.067709
v 0.745438 13.257789 1.685431
vt 0.363069 0.500000
vt 0.363069 0.999915
vt 0.000085 0.999915
vt 0.000085 0.500000
vt 0.726052 0.500000
vt 0.726052 0.999915
vt 0.726052 0.000085
vt 0.363069 0.000085
vt 0.000085 0.000085
vn 0.6380 0.6486 0.4150
vn -0.1222 0.6480 0.7518
vn -0.2187 0.7933 0.5682
vn 0.5667 0.7939 0.2204
usemtl Material.248
s off
f 398/390/163 395/391/163 393/392/163 397/393/163
f 396/394/164 391/395/164 395/391/164 398/390/164
f 390/396/165 396/394/165 398/390/165 394/397/165
f 394/397/166 398/390/166 397/393/166 392/398/166
o Plane.227_Plane.464
v -1.150167 13.963256 0.418484
v 0.163367 12.598615 2.947992
v 1.098084 14.137594 -0.654944
v 2.411618 12.772953 1.874563
v -0.001781 14.470752 0.000850
v 1.311753 13.106112 2.530358
v -0.478161 13.544968 1.758039
v 1.770091 13.719306 0.684611
v 0.670226 14.052464 1.340405
vt 0.363069 0.500000
vt 0.363069 0.999915
vt 0.000085 0.999915
vt 0.000085 0.500000
vt 0.726052 0.500000
vt 0.726052 0.999915
vt 0.726052 0.000085
vt 0.363069 0.000085
vt 0.000085 0.000085
vn 0.4686 0.7969 0.3811
vn -0.0962 0.7531 0.6508
vn -0.2454 0.8835 0.3990
vn 0.3500 0.9297 0.1147
usemtl Material.249
s off
f 407/399/167 404/400/167 402/401/167 406/402/167
f 405/403/168 400/404/168 404/400/168 407/399/168
f 399/405/169 405/403/169 407/399/169 403/406/169
f 403/406/170 407/399/170 406/402/170 401/407/170
o Plane.228_Plane.465
v -0.798926 13.438448 -0.949298
v -2.848057 11.719500 1.593936
v 1.104590 13.742133 0.789660
v -0.944541 12.023185 3.332894
v -0.001508 14.108530 -0.001377
v -2.050639 12.389582 2.541857
v -1.920441 12.904510 0.371593
v -0.016925 13.208196 2.110550
v -1.123023 13.574592 1.319514
vt 0.363069 0.500000
vt 0.363069 0.999915
vt 0.000085 0.999915
vt 0.000085 0.500000
vt 0.726052 0.500000
vt 0.726052 0.999915
vt 0.726052 0.000085
vt 0.363069 0.000085
vt 0.000085 0.000085
vn -0.1810 0.7712 0.6103
vn -0.7182 0.6855 0.1196
vn -0.5448 0.8288 -0.1276
vn 0.0241 0.9196 0.3922
usemtl Material.250
s off
f 416/408/171 413/409/171 411/410/171 415/411/171
f 414/412/172 409/413/172 413/409/172 416/408/172
f 408/414/173 414/412/173 416/408/173 412/415/173
f 412/415/174 416/408/174 415/411/174 410/416/174
o Plane.229_Plane.466
v 0.336891 13.407908 1.144473
v 4.227892 11.403893 -0.571443
v -0.610867 13.429900 -1.030343
v 3.280134 11.425883 -2.746258
v 0.000751 13.881957 0.001722
v 3.891752 11.877940 -1.714193
v 2.368913 12.696771 0.251751
v 1.421155 12.718762 -1.923064
v 2.032773 13.170819 -0.890999
vt 0.363069 0.500000
vt 0.363069 0.999915
vt 0.000085 0.999915
vt 0.000085 0.500000
vt 0.726052 0.500000
vt 0.726052 0.999915
vt 0.726052 0.000085
vt 0.363069 0.000085
vt 0.000085 0.000085
vn 0.3130 0.7878 -0.5305
vn 0.6075 0.7809 0.1453
vn 0.4136 0.8776 0.2424
vn 0.1106 0.8846 -0.4530
usemtl Material.251
s off
f 425/417/175 422/418/175 420/419/175 424/420/175
f 423/421/176 418/422/176 422/418/176 425/417/176
f 417/423/177 423/421/177 425/417/177 421/424/177
f 421/424/178 425/417/178 424/420/178 419/425/178
o Plane.230_Plane.467
v 0.663170 12.975555 -1.157447
v -2.262947 13.422245 -3.393707
v -0.971785 13.199843 1.026671
v -3.897902 13.646533 -1.209589
v 0.001295 13.602071 -0.001730
v -2.924822 14.048760 -2.237990
v -0.702146 13.522007 -2.235590
v -2.337101 13.746295 -0.051471
v -1.364020 14.148522 -1.079873
vt 0.363069 0.500000
vt 0.363069 0.999915
vt 0.000085 0.999915
vt 0.000085 0.500000
vt 0.726052 0.500000
vt 0.726052 0.999915
vt 0.726052 0.000085
vt 0.363069 0.000085
vt 0.000085 0.000085
vn -0.2001 0.9618 0.1868
vn 0.2148 0.9049 -0.3675
vn 0.4870 0.8538 -0.1840
vn 0.0478 0.9141 0.4027
usemtl Material.252
s off
f 434/426/179 431/427/179 429/428/179 433/429/179
f 432/430/180 427/431/180 431/427/180 434/426/180
f 426/432/181 432/430/181 434/426/181 430/433/181
f 430/433/182 434/426/182 433/429/182 428/434/182
o Plane.231_Plane.468
v 0.397196 13.114326 -1.689206
v -2.895584 12.791994 -2.507720
v -0.406288 12.883639 1.633954
v -3.699069 12.561307 0.815440
v 0.000636 13.340979 -0.002632
v -3.292144 13.018646 -0.821147
v -1.245939 13.167988 -2.082763
v -2.049423 12.937300 1.240397
v -1.642499 13.394639 -0.396189
vt 0.363069 0.500000
vt 0.363069 0.999915
vt 0.000085 0.999915
vt 0.000085 0.500000
vt 0.726052 0.500000
vt 0.726052 0.999915
vt 0.726052 0.000085
vt 0.363069 0.000085
vt 0.000085 0.000085
vn -0.2659 0.9435 0.1975
vn -0.1766 0.9692 -0.1718
vn 0.0608 0.9910 -0.1189
vn -0.0312 0.9646 0.2618
usemtl Material.253
s off
f 443/435/183 440/436/183 438/437/183 442/438/183
f 441/439/184 436/440/184 440/436/184 443/435/184
f 435/441/185 441/439/185 443/435/185 439/442/185
f 439/442/186 443/435/186 442/438/186 437/443/186
o Plane.232_Plane.469
v 1.310696 13.184018 0.119306
v 1.506150 12.286983 -2.903916
v -1.278177 13.071018 -0.014537
v -1.082723 12.173984 -3.037760
v 0.002050 13.514979 0.000106
v 0.197504 12.617945 -3.023117
v 1.399497 12.978888 -1.425144
v -1.189376 12.865888 -1.558988
v 0.090851 13.309849 -1.544345
vt 0.363069 0.500000
vt 0.363069 0.999915
vt 0.000085 0.999915
vt 0.000085 0.500000
vt 0.726052 0.500000
vt 0.726052 0.999915
vt 0.726052 0.000085
vt 0.363069 0.000085
vt 0.000085 0.000085
vn -0.2926 0.8578 -0.4225
vn 0.2589 0.8819 -0.3940
vn 0.2533 0.9608 -0.1130
vn -0.3228 0.9356 -0.1428
usemtl Material.254
s off
f 452/444/187 449/445/187 447/446/187 451/447/187
f 450/448/188 445/449/188 449/445/188 452/444/188
f 444/450/189 450/448/189 452/444/189 448/451/189
f 448/451/190 452/444/190 451/447/190 446/452/190
o Plane.233_Plane.470
v -1.088648 13.370405 -0.296211
v -1.478095 12.001075 2.343781
v 1.145314 13.446133 0.072618
v 0.755867 12.076803 2.712610
v -0.001769 13.753201 -0.000292
v -0.391216 12.383870 2.639700
v -1.302281 12.902411 1.093827
v 0.931682 12.978140 1.462657
v -0.215402 13.285208 1.389746
vt 0.363069 0.500000
vt 0.363069 0.999915
vt 0.000085 0.999915
vt 0.000085 0.500000
vt 0.726052 0.500000
vt 0.726052 0.999915
vt 0.726052 0.000085
vt 0.363069 0.000085
vt 0.000085 0.000085
vn 0.1731 0.7872 0.5920
vn -0.4055 0.7675 0.4964
vn -0.3803 0.8926 0.2421
vn 0.2227 0.9131 0.3416
usemtl Material.255
s off
f 461/453/191 458/454/191 456/455/191 460/456/191
f 459/457/192 454/458/192 458/454/192 461/453/192
f 453/459/193 459/457/193 461/453/193 457/460/193
f 457/460/194 461/453/194 460/456/194 455/461/194
o Plane.234_Plane.471
v 0.339174 12.794368 1.135726
v 3.204377 10.367107 -0.888654
v -0.833567 13.239963 -1.058386
v 2.031636 10.812702 -3.082767
v 0.000929 13.488340 0.001738
v 2.866132 11.061080 -2.022643
v 1.927638 11.876710 0.100337
v 0.754896 12.322306 -2.093776
v 1.589392 12.570683 -1.033652
vt 0.363069 0.500000
vt 0.363069 0.999915
vt 0.000085 0.999915
vt 0.000085 0.500000
vt 0.726052 0.500000
vt 0.726052 0.999915
vt 0.726052 0.000085
vt 0.363069 0.000085
vt 0.000085 0.000085
vn 0.4499 0.7235 -0.5236
vn 0.7964 0.5918 0.1247
vn 0.6087 0.7445 0.2741
vn 0.2477 0.8817 -0.4015
usemtl Material.256
s off
f 470/462/195 467/463/195 465/464/195 469/465/195
f 468/466/196 463/467/196 467/463/196 470/462/196
f 462/468/197 468/466/197 470/462/197 466/469/197
f 466/469/198 470/462/198 469/465/198 464/470/198
o Plane.235_Plane.472
v 0.386564 13.565578 1.725396
v 4.061109 10.399868 0.196650
v -0.947945 13.567842 -1.486967
v 2.726599 10.402133 -3.015712
v 0.001057 14.099746 0.002544
v 3.675602 10.934036 -1.526201
v 2.400818 12.317554 0.887736
v 1.066309 12.319818 -2.324627
v 2.015311 12.851723 -0.835116
vt 0.363069 0.500000
vt 0.363069 0.999915
vt 0.000085 0.999915
vt 0.000085 0.500000
vt 0.726052 0.500000
vt 0.726052 0.999915
vt 0.726052 0.000085
vt 0.363069 0.000085
vt 0.000085 0.000085
vn 0.5157 0.6483 -0.5601
vn 0.7611 0.6479 0.0306
vn 0.5603 0.8183 0.1283
vn 0.3049 0.8187 -0.4866
usemtl Material.257
s off
f 479/471/199 476/472/199 474/473/199 478/474/199
f 477/475/200 472/476/200 476/472/200 479/471/200
f 471/477/201 477/475/201 479/471/201 475/478/201
f 475/478/202 479/471/202 478/474/202 473/479/202
o Plane.236_Plane.473
v -1.438767 13.952641 0.100104
v -0.958244 12.246711 3.764803
v 1.356698 13.804332 -0.335482
v 1.837222 12.098402 3.329217
v -0.002214 14.263547 0.000345
v 0.478309 12.557618 3.665045
v -1.174120 13.341555 2.006598
v 1.621345 13.193247 1.571012
v 0.262433 13.652462 1.906839
vt 0.363069 0.500000
vt 0.363069 0.999915
vt 0.000085 0.999915
vt 0.000085 0.500000
vt 0.726052 0.500000
vt 0.726052 0.999915
vt 0.726052 0.000085
vt 0.363069 0.000085
vt 0.000085 0.000085
vn 0.3839 0.8042 0.4537
vn -0.1429 0.8322 0.5358
vn -0.1787 0.9295 0.3227
vn 0.3633 0.9007 0.2383
usemtl Material.258
s off
f 488/480/203 485/481/203 483/482/203 487/483/203
f 486/484/204 481/485/204 485/481/204 488/480/204
f 480/486/205 486/484/205 488/480/205 484/487/205
f 484/487/206 488/480/206 487/483/206 482/488/206
o Plane.237_Plane.474
v 0.899692 12.168270 -0.527177
v -0.508097 12.402962 -3.672785
v -1.063269 12.377286 0.366923
v -2.471058 12.611979 -2.778684
v 0.001555 12.715763 -0.000708
v -1.406234 12.950456 -3.146315
v 0.248150 12.563881 -2.050093
v -1.714811 12.772898 -1.155993
v -0.649987 13.111375 -1.523624
vt 0.363069 0.500000
vt 0.363069 0.999915
vt 0.000085 0.999915
vt 0.000085 0.500000
vt 0.726052 0.500000
vt 0.726052 0.999915
vt 0.726052 0.000085
vt 0.363069 0.000085
vt 0.000085 0.000085
vn -0.2900 0.9562 0.0403
vn 0.3831 0.8845 -0.2663
vn 0.5202 0.8540 -0.0007
vn -0.1847 0.9291 0.3204
usemtl Material.259
s off
f 497/489/207 494/490/207 492/491/207 496/492/207
f 495/493/208 490/494/208 494/490/208 497/489/208
f 489/495/209 495/493/209 497/489/209 493/496/209
f 493/496/210 497/489/210 496/492/210 491/497/210
o Plane.238_Plane.475
v 0.049176 13.395931 -1.786627
v -3.359794 11.872159 -1.547442
v 0.196124 13.634992 1.830729
v -3.212845 12.111218 2.069914
v -0.000116 13.967944 -0.002865
v -3.409086 12.444172 0.236320
v -1.732426 12.918276 -1.682686
v -1.585477 13.157336 1.934670
v -1.781718 13.490289 0.101076
vt 0.363069 0.500000
vt 0.363069 0.999915
vt 0.000085 0.999915
vt 0.000085 0.500000
vt 0.726052 0.500000
vt 0.726052 0.999915
vt 0.726052 0.000085
vt 0.363069 0.000085
vt 0.000085 0.000085
vn -0.5169 0.8308 0.2062
vn -0.5363 0.7993 -0.2711
vn -0.2633 0.9165 -0.3012
vn -0.2430 0.9495 0.1984
usemtl Material.260
s off
f 506/498/211 503/499/211 501/500/211 505/501/211
f 504/502/212 499/503/212 503/499/212 506/498/212
f 498/504/213 504/502/213 506/498/213 502/505/213
f 502/505/214 506/498/214 505/501/214 500/506/214
o Plane.239_Plane.476
v 1.197083 11.773454 -0.421718
v -0.074481 10.184284 -3.253783
v -1.045939 11.664030 0.646774
v -2.317503 10.074862 -2.185291
v 0.001777 12.124378 -0.000846
v -1.269788 10.535209 -2.832911
v 0.514946 11.233673 -1.908967
v -1.728077 11.124249 -0.840475
v -0.680361 11.584598 -1.488096
vt 0.363069 0.500000
vt 0.363069 0.999915
vt 0.000085 0.999915
vt 0.000085 0.500000
vt 0.726052 0.500000
vt 0.726052 0.999915
vt 0.726052 0.000085
vt 0.363069 0.000085
vt 0.000085 0.000085
vn -0.5498 0.7581 -0.3506
vn 0.0128 0.7856 -0.6186
vn 0.1301 0.9114 -0.3904
vn -0.4565 0.8828 -0.1110
usemtl Material.261
s off
f 515/507/215 512/508/215 510/509/215 514/510/215
f 513/511/216 508/512/216 512/508/216 515/507/216
f 507/513/217 513/511/217 515/507/217 511/514/217
f 511/514/218 515/507/218 514/510/218 509/515/218
o Plane.241_Plane.478
v -0.674069 13.479305 -1.714890
v -4.184457 11.286160 0.011676
v 0.968243 13.416027 1.543817
v -2.542144 11.222881 3.270384
v -0.001301 13.868484 -0.002581
v -3.511688 11.675337 1.723986
v -2.522474 12.647072 -0.799498
v -0.880161 12.583794 2.459210
v -1.849706 13.036250 0.912812
vt 0.363069 0.500000
vt 0.363069 0.999915
vt 0.000085 0.999915
vt 0.000085 0.500000
vt 0.726052 0.500000
vt 0.726052 0.999915
vt 0.726052 0.000085
vt 0.363069 0.000085
vt 0.000085 0.000085
vn -0.4031 0.7788 0.4806
vn -0.6139 0.7869 0.0624
vn -0.4259 0.9040 -0.0381
vn -0.2087 0.8956 0.3929
usemtl Material.263
s off
f 524/516/219 521/517/219 519/518/219 523/519/219
f 522/520/220 517/521/220 521/517/220 524/516/220
f 516/522/221 522/520/221 524/516/221 520/523/221
f 520/523/222 524/516/222 523/519/222 518/524/222
o Plane.242_Plane.479
v -1.105473 11.763681 0.685706
v 1.811087 8.931160 3.167794
v 0.806566 12.099473 -1.177820
v 3.723125 9.266951 1.304268
v -0.001514 12.462916 0.001476
v 2.915045 9.630394 2.483564
v 0.445736 10.681186 2.082240
v 2.357774 11.016977 0.218714
v 1.549694 11.380421 1.398010
vt 0.363069 0.500000
vt 0.363069 0.999915
vt 0.000085 0.999915
vt 0.000085 0.500000
vt 0.726052 0.500000
vt 0.726052 0.999915
vt 0.726052 0.000085
vt 0.363069 0.000085
vt 0.000085 0.000085
vn 0.6799 0.6879 0.2539
vn 0.1212 0.5898 0.7984
vn -0.0680 0.7506 0.6573
vn 0.5144 0.8528 0.0897
usemtl Material.264
s off
f 533/525/223 530/526/223 528/527/223 532/528/223
f 531/529/224 526/530/224 530/526/224 533/525/224
f 525/531/225 531/529/225 533/525/225 529/532/225
f 529/532/226 533/525/226 532/528/226 527/533/226
