# Blender v3.2.0 OBJ File: 'trees.blend'
# www.blender.org
mtllib Pine Trunk 3.mtl
o Sphere.008
v -0.320147 5.847826 0.028441
v -0.238923 6.187804 -0.022996
v -0.406333 6.015289 -0.214199
v -0.109500 5.940525 -0.239630
vt 0.500000 0.000000
vt 0.666667 0.333333
vt 0.333333 0.333333
vt 0.166667 0.000000
vt 0.000000 0.333333
vt 0.833333 0.000000
vt 1.000000 0.333333
vn -0.8322 0.2719 0.4833
vn 0.1116 0.6873 -0.7178
vn 0.7990 -0.1012 0.5928
vn -0.2523 -0.8360 -0.4873
usemtl None
s off
f 3/1/1 1/2/1 2/3/1
f 3/4/2 2/3/2 4/5/2
f 2/3/3 1/2/3 4/5/3
f 3/6/4 4/7/4 1/2/4
o Cylinder.012
v 0.335707 4.025675 0.115887
v 0.203592 4.042542 0.079572
v 0.330430 3.912268 0.122425
v 0.198315 3.936365 0.039193
v 0.337864 3.963087 0.020966
v 0.205749 4.024211 -0.032638
v 0.513538 4.066347 0.067356
v 0.511158 3.989892 0.031019
v 0.516830 4.059428 -0.016980
v 0.670777 4.305500 -0.017572
v 0.669673 4.270027 -0.034432
v 0.672304 4.302289 -0.056702
vt 1.000000 0.500000
vt 1.000000 1.000000
vt 0.666667 1.000000
vt 0.666667 0.500000
vt 0.333333 1.000000
vt 0.333333 0.500000
vt 0.457846 0.130000
vt 0.250000 0.490000
vt 0.042154 0.130000
vt -0.000000 1.000000
vt -0.000000 0.500000
vt -0.000000 0.500000
vt 0.333333 0.500000
vt -0.000000 0.500000
vt 0.333333 0.500000
vt 0.666667 0.500000
vt 1.000000 0.500000
vt 0.750000 0.490000
vt 0.957846 0.130000
vt 0.542154 0.130000
vt 0.666667 0.500000
vt 1.000000 0.500000
vn -0.4245 -0.1180 0.8977
vn 0.0688 -0.7818 -0.6197
vn -0.9977 0.0606 -0.0291
vn 0.3691 0.8683 -0.3315
vn -0.4079 0.8470 -0.3408
vn -0.8454 0.5287 -0.0764
vn 0.1555 -0.7760 -0.6113
vn 0.4037 -0.1577 0.9012
vn 0.9977 -0.0516 0.0432
vn 0.5990 -0.4874 -0.6353
vn 0.7623 -0.2970 0.5750
usemtl None
s off
f 5/8/5 6/9/5 8/10/5 7/11/5
f 7/11/6 8/10/6 10/12/6 9/13/6
f 8/14/7 6/15/7 10/16/7
f 9/13/8 10/12/8 6/17/8 5/18/8
f 9/13/9 5/18/9 11/19/9 13/20/9
f 13/20/10 11/19/10 14/21/10 16/22/10
f 7/11/11 9/13/11 13/20/11 12/23/11
f 5/8/12 7/11/12 12/23/12 11/24/12
f 14/25/13 15/26/13 16/27/13
f 12/23/14 13/20/14 16/22/14 15/28/14
f 11/24/15 12/23/15 15/28/15 14/29/15
o Cylinder.013
v -0.553351 3.743350 0.167746
v -0.308726 3.710715 0.052691
v -0.483514 3.685995 0.236775
v -0.227688 3.684702 0.128111
v -0.476404 3.799291 0.230048
v -0.245869 3.793208 0.099337
v -0.603392 4.016565 0.397966
v -0.552963 3.970075 0.420730
v -0.538828 4.040935 0.419418
v -0.673670 4.198279 0.617970
v -0.649310 4.168849 0.643136
v -0.640686 4.213706 0.645664
vt 1.000000 0.500000
vt 1.000000 1.000000
vt 0.666667 1.000000
vt 0.666667 0.500000
vt 0.333333 1.000000
vt 0.333333 0.500000
vt 0.457846 0.130000
vt 0.250000 0.490000
vt 0.042154 0.130000
vt -0.000000 1.000000
vt -0.000000 0.500000
vt -0.000000 0.500000
vt 0.333333 0.500000
vt 0.666667 0.500000
vt 1.000000 0.500000
vt -0.000000 0.500000
vt 0.333333 0.500000
vt 1.000000 0.500000
vt 0.666667 0.500000
vn -0.2055 -0.9251 -0.3193
vn 0.4377 0.1634 0.8842
vn 0.6639 -0.0858 -0.7429
vn -0.2577 0.7447 -0.6156
vn 0.0878 0.6408 -0.7627
vn 0.8963 -0.0844 0.4354
vn -0.7553 -0.4875 0.4381
vn -0.0051 0.7820 -0.6232
vn -0.6639 0.0858 0.7429
vn 0.8412 -0.1708 0.5131
vn -0.7622 -0.6041 0.2325
usemtl None
s off
f 17/30/16 18/31/16 20/32/16 19/33/16
f 19/33/17 20/32/17 22/34/17 21/35/17
f 20/36/18 18/37/18 22/38/18
f 21/35/19 22/34/19 18/39/19 17/40/19
f 21/35/20 17/40/20 23/41/20 25/42/20
f 19/33/21 21/35/21 25/42/21 24/43/21
f 17/30/22 19/33/22 24/43/22 23/44/22
f 25/42/23 23/41/23 26/45/23 28/46/23
f 28/46/24 26/47/24 27/48/24
f 24/43/25 25/42/25 28/46/25 27/48/25
f 23/44/26 24/43/26 27/48/26 26/47/26
o Cylinder.014
v 0.245203 2.833294 -0.345352
v 0.164463 2.900516 -0.193887
v 0.177330 2.707931 -0.388336
v 0.072488 2.798019 -0.250501
v 0.116943 2.840136 -0.420670
v 0.040968 2.942762 -0.265542
v 0.385407 2.973469 -0.515355
v 0.309047 2.907636 -0.561891
v 0.297261 3.017968 -0.566153
v 0.441115 3.175517 -0.790722
v 0.383412 3.125769 -0.825888
v 0.374505 3.209145 -0.829108
vt 1.000000 0.500000
vt 1.000000 1.000000
vt 0.666667 1.000000
vt 0.666667 0.500000
vt 0.333333 1.000000
vt 0.333333 0.500000
vt 0.457846 0.130000
vt 0.250000 0.490000
vt 0.042154 0.130000
vt -0.000000 1.000000
vt -0.000000 0.500000
vt -0.000000 0.500000
vt 0.333333 0.500000
vt -0.000000 0.500000
vt 0.333333 0.500000
vt 0.666667 0.500000
vt 1.000000 0.500000
vt 1.000000 0.500000
vt 0.666667 0.500000
vn 0.4735 -0.6099 0.6354
vn -0.8828 -0.3471 -0.3165
vn -0.5071 -0.0209 0.8616
vn 0.3526 0.8832 -0.3091
vn -0.1705 0.7752 0.6082
vn 0.0587 0.7992 0.5982
vn -0.5053 -0.2738 -0.8183
vn 0.7925 -0.6093 0.0245
vn 0.5071 0.0209 -0.8616
vn -0.9281 -0.1129 -0.3547
vn 0.7220 -0.6194 -0.3084
usemtl None
s off
f 29/49/27 30/50/27 32/51/27 31/52/27
f 31/52/28 32/51/28 34/53/28 33/54/28
f 32/55/29 30/56/29 34/57/29
f 33/54/30 34/53/30 30/58/30 29/59/30
f 33/54/31 29/59/31 35/60/31 37/61/31
f 37/61/32 35/60/32 38/62/32 40/63/32
f 31/52/33 33/54/33 37/61/33 36/64/33
f 29/49/34 31/52/34 36/64/34 35/65/34
f 38/66/35 39/67/35 40/63/35
f 36/64/36 37/61/36 40/63/36 39/67/36
f 35/65/37 36/64/37 39/67/37 38/66/37
o Sphere.009
v -0.371799 3.239770 -0.023950
v -0.183201 3.442337 -0.243552
v -0.432725 3.281367 -0.322118
v -0.192746 3.092283 -0.290437
vt 0.500000 0.000000
vt 0.666667 0.333333
vt 0.333333 0.333333
vt 0.166667 0.000000
vt 0.000000 0.333333
vt 0.833333 0.000000
vt 1.000000 0.333333
vn -0.5774 0.7841 0.2274
vn 0.2248 0.1233 -0.9666
vn 0.7990 -0.1012 0.5928
vn -0.6202 -0.7842 0.0173
usemtl None
s off
f 43/68/38 41/69/38 42/70/38
f 43/71/39 42/70/39 44/72/39
f 42/70/40 41/69/40 44/72/40
f 43/73/41 44/74/41 41/69/41
o Sphere.010
v 0.131393 4.428406 0.194065
v -0.112133 4.398803 0.313616
v 0.064132 4.332983 0.355062
v 0.015953 4.185573 0.240747
vt 0.500000 0.000000
vt 0.666667 0.333333
vt 0.333333 0.333333
vt 0.166667 0.000000
vt 0.000000 0.333333
vt 0.833333 0.000000
vt 1.000000 0.333333
vn 0.1734 0.8137 0.5548
vn -0.3690 -0.4913 0.7890
vn -0.4442 0.0391 -0.8951
vn 0.9045 -0.4033 0.1388
usemtl None
s off
f 47/75/42 45/76/42 46/77/42
f 47/78/43 46/77/43 48/79/43
f 46/77/44 45/76/44 48/79/44
f 47/80/45 48/81/45 45/76/45
o Sphere.011
v 0.144642 1.662757 0.236636
v -0.039899 1.479916 0.320227
v 0.146444 1.507376 0.360745
v 0.177404 1.393285 0.208613
vt 0.500000 0.000000
vt 0.666667 0.333333
vt 0.333333 0.333333
vt 0.166667 0.000000
vt 0.000000 0.333333
vt 0.833333 0.000000
vt 1.000000 0.333333
vn -0.2534 0.6019 0.7573
vn -0.0120 -0.8011 0.5984
vn -0.4442 0.0391 -0.8951
vn 0.9869 0.1075 0.1202
usemtl None
s off
f 51/82/46 49/83/46 50/84/46
f 51/85/47 50/84/47 52/86/47
f 50/84/48 49/83/48 52/86/48
f 51/87/49 52/88/49 49/83/49
o Cylinder.015
v 0.239902 5.448379 -0.311222
v 0.150611 5.612272 -0.192264
v 0.190053 5.318274 -0.313473
v 0.116087 5.476128 -0.166418
v 0.104966 5.425916 -0.337774
v 0.028686 5.558531 -0.243658
v 0.212248 5.581039 -0.444904
v 0.169793 5.497701 -0.474498
v 0.126210 5.603226 -0.449749
v 0.298304 5.842363 -0.550316
v 0.266821 5.780506 -0.574720
v 0.252663 5.844588 -0.607979
vt 1.000000 0.500000
vt 1.000000 1.000000
vt 0.666667 1.000000
vt 0.666667 0.500000
vt 0.333333 1.000000
vt 0.333333 0.500000
vt 0.457846 0.130000
vt 0.250000 0.490000
vt 0.042154 0.130000
vt -0.000000 1.000000
vt -0.000000 0.500000
vt -0.000000 0.500000
vt 0.333333 0.500000
vt -0.000000 0.500000
vt 0.333333 0.500000
vt 0.666667 0.500000
vt 1.000000 0.500000
vt 0.750000 0.490000
vt 0.957846 0.130000
vt 0.542154 0.130000
vt 0.666667 0.500000
vt 1.000000 0.500000
vn 0.7318 -0.1735 0.6590
vn -0.7781 -0.5873 0.2226
vn -0.4748 0.2789 0.8347
vn 0.0615 0.6049 -0.7939
vn -0.1116 0.6158 0.7800
vn -0.2789 0.5359 0.7969
vn -0.7095 -0.4271 -0.5606
vn 0.8417 -0.2967 -0.4511
vn 0.7725 -0.1497 -0.6172
vn -0.4891 -0.2090 -0.8468
vn 0.9008 -0.3815 -0.2075
usemtl None
s off
f 53/89/50 54/90/50 56/91/50 55/92/50
f 55/92/51 56/91/51 58/93/51 57/94/51
f 56/95/52 54/96/52 58/97/52
f 57/94/53 58/93/53 54/98/53 53/99/53
f 57/94/54 53/99/54 59/100/54 61/101/54
f 61/101/55 59/100/55 62/102/55 64/103/55
f 55/92/56 57/94/56 61/101/56 60/104/56
f 53/89/57 55/92/57 60/104/57 59/105/57
f 62/106/58 63/107/58 64/108/58
f 60/104/59 61/101/59 64/103/59 63/109/59
f 59/105/60 60/104/60 63/109/60 62/110/60
o Cylinder.016
v 0.205863 5.867765 0.373716
v 0.051012 5.893071 0.171927
v 0.278660 5.810314 0.307899
v 0.139393 5.867058 0.105264
v 0.277413 5.924001 0.305525
v 0.107893 5.975563 0.118155
v 0.350917 6.034658 0.593304
v 0.396767 5.988168 0.562335
v 0.403071 6.059027 0.549615
v 0.453127 6.193459 0.697045
v 0.491280 6.158044 0.701781
v 0.499297 6.201529 0.673904
vt 1.000000 0.500000
vt 1.000000 1.000000
vt 0.666667 1.000000
vt 0.666667 0.500000
vt 0.333333 1.000000
vt 0.333333 0.500000
vt 0.457846 0.130000
vt 0.250000 0.490000
vt 0.042154 0.130000
vt -0.000000 1.000000
vt -0.000000 0.500000
vt -0.000000 0.500000
vt 0.333333 0.500000
vt 0.666667 0.500000
vt 1.000000 0.500000
vt -0.000000 0.500000
vt 0.333333 0.500000
vt 1.000000 0.500000
vt 0.666667 0.500000
vn -0.3919 -0.9146 0.0994
vn 0.7949 0.1450 -0.5891
vn -0.6159 -0.0858 -0.7831
vn -0.3910 0.7848 0.4809
vn -0.6244 0.7691 -0.1363
vn 0.9108 -0.0584 -0.4087
vn -0.1477 -0.7590 0.6341
vn -0.5432 0.7040 -0.4575
vn 0.3302 0.4655 0.8211
vn 0.8994 -0.2419 -0.3640
vn -0.2176 -0.4930 0.8424
usemtl None
s off
f 65/111/61 66/112/61 68/113/61 67/114/61
f 67/114/62 68/113/62 70/115/62 69/116/62
f 68/117/63 66/118/63 70/119/63
f 69/116/64 70/115/64 66/120/64 65/121/64
f 69/116/65 65/121/65 71/122/65 73/123/65
f 67/114/66 69/116/66 73/123/66 72/124/66
f 65/111/67 67/114/67 72/124/67 71/125/67
f 73/123/68 71/122/68 74/126/68 76/127/68
f 76/127/69 74/128/69 75/129/69
f 72/124/70 73/123/70 76/127/70 75/129/70
f 71/125/71 72/124/71 75/129/71 74/128/71
o Cylinder.017
v -0.414806 4.945741 -0.384325
v -0.169250 4.782447 -0.228753
v -0.468955 4.820377 -0.324976
v -0.241019 4.679950 -0.148044
v -0.511312 4.952583 -0.271143
v -0.261319 4.824693 -0.119626
v -0.563437 4.867942 -0.545419
v -0.614519 4.811064 -0.487457
v -0.619918 4.906389 -0.478071
v -0.772797 4.871221 -0.699147
v -0.806146 4.834088 -0.661307
v -0.809670 4.896321 -0.655179
vt 1.000000 0.500000
vt 1.000000 1.000000
vt 0.666667 1.000000
vt 0.666667 0.500000
vt 0.333333 1.000000
vt 0.333333 0.500000
vt 0.457846 0.130000
vt 0.250000 0.490000
vt 0.042154 0.130000
vt -0.000000 1.000000
vt -0.000000 0.500000
vt -0.000000 0.500000
vt 0.333333 0.500000
vt -0.000000 0.500000
vt 0.333333 0.500000
vt 0.666667 0.500000
vt 1.000000 0.500000
vt 1.000000 0.500000
vt 0.666667 0.500000
vn 0.1798 -0.5853 -0.7906
vn -0.6557 -0.3474 0.6703
vn 0.7601 -0.0209 0.6494
vn 0.4233 0.8914 0.1622
vn -0.0533 0.9570 -0.2852
vn 0.2465 0.9161 -0.3162
vn -0.7583 -0.3174 0.5694
vn 0.6462 -0.6404 -0.4151
vn -0.7601 0.0209 -0.6494
vn -0.6751 -0.1101 0.7295
vn 0.3439 -0.8037 -0.4856
usemtl None
s off
f 77/130/72 78/131/72 80/132/72 79/133/72
f 79/133/73 80/132/73 82/134/73 81/135/73
f 80/136/74 78/137/74 82/138/74
f 81/135/75 82/134/75 78/139/75 77/140/75
f 81/135/76 77/140/76 83/141/76 85/142/76
f 85/142/77 83/141/77 86/143/77 88/144/77
f 79/133/78 81/135/78 85/142/78 84/145/78
f 77/130/79 79/133/79 84/145/79 83/146/79
f 86/147/80 87/148/80 88/144/80
f 84/145/81 85/142/81 88/144/81 87/148/81
f 83/146/82 84/145/82 87/148/82 86/147/82
o Cylinder.018
v 0.088998 6.728695 0.438862
v -0.012062 6.787917 0.204429
v 0.190689 6.709752 0.391618
v 0.093026 6.803279 0.163779
v 0.150581 6.815862 0.399601
v 0.023647 6.892383 0.177160
v 0.128831 6.920560 0.685222
v 0.178100 6.897083 0.637852
v 0.162200 6.967482 0.641548
v 0.264897 7.112890 0.821947
v 0.311246 7.090825 0.812632
v 0.301245 7.138917 0.795055
vt 1.000000 0.500000
vt 1.000000 1.000000
vt 0.666667 1.000000
vt 0.666667 0.500000
vt 0.333333 1.000000
vt 0.333333 0.500000
vt 0.457846 0.130000
vt 0.250000 0.490000
vt 0.042154 0.130000
vt -0.000000 1.000000
vt -0.000000 0.500000
vt -0.000000 0.500000
vt 0.333333 0.500000
vt 0.666667 0.500000
vt 1.000000 0.500000
vt -0.000000 0.500000
vt 0.333333 0.500000
vt 1.000000 0.500000
vt 0.666667 0.500000
vn -0.1276 -0.9568 -0.2613
vn 0.8376 0.4951 -0.2308
vn -0.3418 -0.1263 -0.9313
vn -0.6898 0.5237 0.4998
vn -0.8558 0.4612 -0.2342
vn 0.9273 0.3083 -0.2122
vn 0.1533 -0.7871 0.5974
vn -0.7605 0.6437 -0.0859
vn 0.3546 0.3851 0.8520
vn 0.7233 0.0777 -0.6862
vn 0.1147 -0.6710 0.7325
usemtl None
s off
f 89/149/83 90/150/83 92/151/83 91/152/83
f 91/152/84 92/151/84 94/153/84 93/154/84
f 92/155/85 90/156/85 94/157/85
f 93/154/86 94/153/86 90/158/86 89/159/86
f 93/154/87 89/159/87 95/160/87 97/161/87
f 91/152/88 93/154/88 97/161/88 96/162/88
f 89/149/89 91/152/89 96/162/89 95/163/89
f 97/161/90 95/160/90 98/164/90 100/165/90
f 100/165/91 98/166/91 99/167/91
f 96/162/92 97/161/92 100/165/92 99/167/92
f 95/163/93 96/162/93 99/167/93 98/166/93
o Cylinder.019
v 0.024671 7.559058 0.440066
v -0.037599 7.547084 0.205633
v 0.120424 7.519928 0.392823
v 0.067488 7.562447 0.164983
v 0.102619 7.631959 0.400805
v -0.001890 7.651550 0.178364
v 0.102506 7.738893 0.686426
v 0.146005 7.705930 0.639056
v 0.144680 7.778091 0.642752
vt 1.000000 0.500000
vt 1.000000 1.000000
vt 0.666667 1.000000
vt 0.666667 0.500000
vt 0.333333 1.000000
vt 0.333333 0.500000
vt 0.457846 0.130000
vt 0.250000 0.490000
vt 0.042154 0.130000
vt -0.000000 1.000000
vt -0.000000 0.500000
vt -0.000000 0.500000
vt 0.333333 0.500000
vt 0.666667 0.500000
vt 1.000000 0.500000
vn -0.1316 -0.9908 -0.0327
vn 0.8782 0.4073 -0.2509
vn -0.3418 -0.1263 -0.9313
vn -0.7548 0.5907 0.2854
vn -0.7448 0.6248 -0.2342
vn 0.9705 0.1143 -0.2122
vn -0.0092 -0.8019 0.5974
vn 0.7288 -0.0217 0.6843
usemtl None
s off
f 101/168/94 102/169/94 104/170/94 103/171/94
f 103/171/95 104/170/95 106/172/95 105/173/95
f 104/174/96 102/175/96 106/176/96
f 105/173/97 106/172/97 102/177/97 101/178/97
f 105/173/98 101/178/98 107/179/98 109/180/98
f 103/171/99 105/173/99 109/180/99 108/181/99
f 101/168/100 103/171/100 108/181/100 107/182/100
f 107/182/101 108/181/101 109/180/101
o Cylinder.020
v 0.120908 7.322562 -0.377014
v 0.022264 7.386317 -0.179668
v 0.071059 7.196610 -0.344327
v -0.012261 7.250173 -0.153822
v -0.014028 7.293808 -0.396577
v -0.099661 7.332576 -0.231062
v 0.093254 7.414559 -0.541349
v 0.050799 7.326339 -0.547535
v 0.007217 7.434638 -0.551961
v 0.171336 7.627247 -0.715186
v 0.161421 7.579193 -0.744753
v 0.128051 7.628394 -0.741904
v 0.302665 7.694870 -0.942137
v 0.296667 7.665798 -0.960024
v 0.276478 7.695564 -0.958301
vt 1.000000 0.500000
vt 1.000000 1.000000
vt 0.666667 1.000000
vt 0.666667 0.500000
vt 0.333333 1.000000
vt 0.333333 0.500000
vt 0.457846 0.130000
vt 0.250000 0.490000
vt 0.042154 0.130000
vt -0.000000 1.000000
vt -0.000000 0.500000
vt -0.000000 0.500000
vt 0.333333 0.500000
vt -0.000000 0.500000
vt 0.333333 0.500000
vt 0.666667 0.500000
vt 1.000000 0.500000
vt -0.000000 0.500000
vt 0.333333 0.500000
vt 0.666667 0.500000
vt 1.000000 0.500000
vt 0.750000 0.490000
vt 0.957846 0.130000
vt 0.542154 0.130000
vt 0.666667 0.500000
vt 1.000000 0.500000
vn 0.8694 -0.1768 0.4614
vn -0.6681 -0.7332 -0.1269
vn -0.4748 0.2789 0.8348
vn -0.1948 0.9136 -0.3570
vn -0.1116 0.8023 0.5865
vn -0.0943 0.6892 0.7184
vn -0.7095 -0.5616 -0.4257
vn 0.8417 -0.4067 -0.3551
vn -0.1123 0.9682 0.2235
vn -0.6165 -0.3085 -0.7244
vn 0.9316 -0.3629 0.0185
vn 0.4932 0.3798 -0.7827
vn -0.6790 -0.4259 -0.5979
vn 0.8401 -0.3993 0.3672
usemtl None
s off
f 110/183/102 111/184/102 113/185/102 112/186/102
f 112/186/103 113/185/103 115/187/103 114/188/103
f 113/189/104 111/190/104 115/191/104
f 114/188/105 115/187/105 111/192/105 110/193/105
f 114/188/106 110/193/106 116/194/106 118/195/106
f 118/195/107 116/194/107 119/196/107 121/197/107
f 112/186/108 114/188/108 118/195/108 117/198/108
f 110/183/109 112/186/109 117/198/109 116/199/109
f 121/197/110 119/196/110 122/200/110 124/201/110
f 117/198/111 118/195/111 121/197/111 120/202/111
f 116/199/112 117/198/112 120/202/112 119/203/112
f 122/204/113 123/205/113 124/206/113
f 120/202/114 121/197/114 124/201/114 123/207/114
f 119/203/115 120/202/115 123/207/115 122/208/115
o Cylinder.011
v 0.401498 -0.165404 -0.449496
v 0.514645 -0.195261 0.242102
v -0.187489 -0.216118 0.548192
v -0.634366 -0.434018 0.123807
v -0.371597 -0.267412 -0.581682
v -0.000000 20.000000 0.000000
v -0.207556 0.059887 -0.480685
v 0.294916 0.199184 -0.295597
v 0.371290 0.201456 0.312239
v -0.229647 0.055746 0.471623
v -0.535468 0.139599 0.083878
v -0.181908 0.577148 -0.435714
v 0.314949 0.654712 -0.250783
v 0.282989 0.702590 0.249404
v -0.199188 0.630966 0.387579
v -0.454483 0.569747 -0.026600
v -0.130348 -0.542755 -0.856880
v 0.518420 -0.687847 -0.424979
v 0.393782 -0.638474 0.544670
v -0.768146 -0.617912 -0.311506
v -0.454520 -0.565740 0.615993
vt 0.600000 0.875000
vt 0.400000 1.000000
vt 0.400000 0.875000
vt 0.200000 1.000000
vt 0.200000 0.875000
vt 0.800000 1.000000
vt 0.800000 0.875000
vt 1.000000 0.875000
vt 0.600000 1.000000
vt 0.200000 0.500000
vt 0.000000 0.750000
vt 0.000000 0.500000
vt 0.400000 0.500000
vt 0.200000 0.750000
vt 0.600000 0.500000
vt 0.400000 0.750000
vt 0.800000 0.500000
vt 0.800000 0.750000
vt 0.600000 0.750000
vt 1.000000 0.500000
vt 1.000000 0.750000
vt 0.000000 0.875000
vt 0.000000 1.000000
vt 0.700000 0.500000
vt 0.900000 0.500000
vt 0.500000 0.500000
vt 0.100000 0.500000
vt 0.300000 0.500000
vt 1.000000 0.500000
vn 0.2732 0.0164 0.9618
vn -0.8524 0.0192 0.5226
vn 0.3463 0.0178 -0.9379
vn 0.9979 0.0154 0.0623
vn 0.1344 0.2300 -0.9638
vn -0.9383 0.1397 -0.3165
vn -0.7081 0.0875 0.7007
vn 0.8077 0.1934 0.5570
vn 0.2044 0.4308 -0.8790
vn -0.8477 0.0590 -0.5272
vn -0.8005 0.1982 0.5657
vn 0.2352 0.1438 0.9612
vn 0.9966 0.0703 -0.0431
vn 0.3327 0.0712 -0.9403
vn -0.8322 0.0202 -0.5541
vn -0.9755 0.1744 -0.1343
vn -0.0934 -0.1203 -0.9883
vn 0.0244 0.7173 -0.6963
vn 0.3423 0.4643 0.8169
vn 0.9664 0.2093 -0.1491
vn -0.6931 0.7153 -0.0892
vn 0.9430 0.0794 -0.3233
vn -0.5656 -0.0881 0.8200
vn 0.6520 -0.1677 0.7394
vn -0.6842 0.6023 0.4112
vn 0.0773 -0.9962 -0.0404
vn -0.7124 0.5068 -0.4854
vn -0.7545 0.1741 0.6328
vn 0.1783 0.2923 0.9396
vn 0.9333 0.3313 -0.1384
usemtl None
s off
f 138/209/116 130/210/116 139/211/116
f 139/211/117 130/212/117 140/213/117
f 130/214/118 137/215/118 136/216/118
f 137/215/119 130/217/119 138/209/119
f 129/218/120 131/219/120 125/220/120
f 128/221/121 135/222/121 129/218/121
f 127/223/122 134/224/122 128/221/122
f 126/225/123 132/226/123 133/227/123 127/223/123
f 125/228/124 131/229/124 132/226/124
f 135/222/125 140/213/125 136/230/125 131/219/125
f 134/224/126 139/211/126 140/213/126 135/222/126
f 133/227/127 138/209/127 139/211/127 134/224/127
f 132/226/128 137/215/128 138/209/128 133/227/128
f 131/229/129 136/216/129 137/215/129 132/226/129
f 140/213/130 130/231/130 136/230/130
f 143/232/131 126/225/131 142/233/131
f 127/223/132 143/232/132 145/234/132
f 129/218/133 125/220/133 141/235/133
f 126/225/134 127/223/134 143/232/134
f 125/228/135 126/225/135 142/233/135
f 128/221/136 129/218/136 144/236/136
f 144/236/137 128/221/137 145/234/137
f 125/220/138 141/235/138 142/233/138
f 129/218/139 144/236/139 141/235/139
f 127/223/140 128/221/140 145/234/140
f 126/225/141 143/232/141 127/223/141 145/234/141 128/221/141 144/236/141 129/218/141 141/237/141 125/228/141 142/233/141
f 131/219/142 129/218/142 135/222/142
f 135/222/143 128/221/143 134/224/143
f 134/224/144 127/223/144 133/227/144
f 132/226/145 126/225/145 125/228/145
