# Blender v3.2.0 OBJ File: 'trees.blend'
# www.blender.org
mtllib Spruce Medium 3 Leaves.mtl
o Long_twig.005_Plane.630
v 0.033118 4.389811 0.021528
v -1.095808 4.588832 -0.006844
v 0.101266 4.770807 -0.017509
v -1.027660 4.969829 -0.045881
vt 0.994043 -0.000190
vt 0.994043 0.406109
vt 0.856208 0.406109
vt 0.856208 -0.000190
vn 0.0068 -0.1031 -0.9946
usemtl thing.004
s off
f 1/1/1 2/2/1 4/3/1 3/4/1
o Short_twigs_set_2.031_Plane.631
v -0.824156 1.412944 0.589999
v -0.810810 4.015565 0.577149
v -0.146962 1.406674 0.023459
v -0.133617 4.009295 0.010609
vt 0.869132 0.583327
vt 0.869132 0.998870
vt 0.728161 0.998870
vt 0.728161 0.583327
vn -0.6417 -0.0005 -0.7670
usemtl thing.004
s off
f 5/5/2 6/6/2 8/7/2 7/8/2
o Short_twigs_set_2.032_Plane.632
v -0.461118 2.220644 -0.647736
v -0.450971 4.199578 -0.657507
v -0.099152 2.221580 -0.082312
v -0.089005 4.200514 -0.092083
vt 0.869132 0.583327
vt 0.869132 0.998870
vt 0.728161 0.998870
vt 0.728161 0.583327
vn 0.8422 -0.0070 -0.5391
usemtl thing.004
s off
f 9/9/3 10/10/3 12/11/3 11/12/3
o Short_twigs_set.036_Plane.633
v 0.154863 6.272198 0.744311
v 0.154863 8.417895 0.744311
v -0.003993 6.272198 0.033940
v -0.003992 8.417895 0.033940
vt 0.869132 0.583327
vt 0.869132 0.998870
vt 0.728161 0.998870
vt 0.728161 0.583327
vn -0.9759 0.0000 0.2182
usemtl thing.004
s off
f 13/13/4 14/14/4 16/15/4 15/16/4
o Short_twigs_set_2.033_Plane.634
v 0.335063 0.960852 -0.708392
v 0.354940 3.073964 -0.708726
v -0.037717 0.964455 -0.096053
v -0.017840 3.077567 -0.096387
vt 0.869132 0.583327
vt 0.869132 0.998870
vt 0.728161 0.998870
vt 0.728161 0.583327
vn 0.8541 -0.0080 0.5200
usemtl thing.004
s off
f 17/17/5 18/18/5 20/19/5 19/20/5
o Short_twigs_set_2.034_Plane.635
v 0.289581 3.023751 -0.592478
v 0.305642 4.731136 -0.592748
v -0.011623 3.026663 -0.097711
v 0.004437 4.734047 -0.097981
vt 0.869132 0.583327
vt 0.869132 0.998870
vt 0.728161 0.998870
vt 0.728161 0.583327
vn 0.8541 -0.0080 0.5200
usemtl thing.004
s off
f 21/21/6 22/22/6 24/23/6 23/24/6
o Short_twigs_set_2.035_Plane.636
v 0.206498 4.699542 -0.487072
v 0.219452 6.076775 -0.487290
v -0.036464 4.701890 -0.087977
v -0.023509 6.079123 -0.088194
vt 0.869132 0.583327
vt 0.869132 0.998870
vt 0.728161 0.998870
vt 0.728161 0.583327
vn 0.8541 -0.0080 0.5200
usemtl thing.004
s off
f 25/25/7 26/26/7 28/27/7 27/28/7
o Short_twigs_set_2.036_Plane.637
v 0.221143 6.933433 -0.440947
v 0.233714 8.310666 -0.444013
v 0.024775 6.936169 -0.016983
v 0.037347 8.313402 -0.020049
vt 0.869132 0.583327
vt 0.869132 0.998870
vt 0.728161 0.998870
vt 0.728161 0.583327
vn 0.9074 -0.0073 0.4203
usemtl thing.004
s off
f 29/29/8 30/30/8 32/31/8 31/32/8
o Short_twigs_set_2.037_Plane.638
v 0.726246 5.489241 -0.006155
v 0.745688 7.556061 -0.006481
v 0.025733 5.495835 0.023896
v 0.045174 7.562654 0.023570
vt 0.869132 0.583327
vt 0.869132 0.998870
vt 0.728161 0.998870
vt 0.728161 0.583327
vn 0.0429 -0.0002 0.9991
usemtl thing.004
s off
f 33/33/9 34/34/9 36/35/9 35/36/9
o Short_twigs_set_2.038_Plane.639
v 0.170216 3.694813 0.543117
v 0.184388 5.201375 0.542879
v -0.055900 3.696867 0.084743
v -0.041729 5.203430 0.084505
vt 0.869132 0.583327
vt 0.869132 0.998870
vt 0.728161 0.998870
vt 0.728161 0.583327
vn -0.8968 0.0085 0.4424
usemtl thing.004
s off
f 37/37/10 38/38/10 40/39/10 39/40/10
o Short_twigs_set.037_Plane.640
v 0.644252 7.867054 0.347164
v 0.644269 10.012753 0.346936
v 0.020241 7.867020 -0.027634
v 0.020259 10.012717 -0.027862
vt 0.869132 0.583327
vt 0.869132 0.998870
vt 0.728161 0.998870
vt 0.728161 0.583327
vn -0.5149 0.0001 0.8573
usemtl thing.004
s off
f 41/41/11 42/42/11 44/43/11 43/44/11
o Short_twigs_set.038_Plane.641
v 0.729257 2.278988 0.281253
v 0.729273 4.316799 0.281036
v 0.085514 2.278966 0.029232
v 0.085531 4.316777 0.029016
vt 0.869132 0.583327
vt 0.869132 0.998870
vt 0.728161 0.998870
vt 0.728161 0.583327
vn -0.3646 0.0001 0.9312
usemtl thing.004
s off
f 45/45/12 46/46/12 48/47/12 47/48/12
o Short_twigs_set_2.039_Plane.642
v -0.373266 4.208286 -0.502911
v -0.365840 5.656450 -0.510061
v -0.108383 4.208971 -0.089140
v -0.100957 5.657135 -0.096290
vt 0.869132 0.583327
vt 0.869132 0.998870
vt 0.728161 0.998870
vt 0.728161 0.583327
vn 0.8422 -0.0070 -0.5391
usemtl thing.004
s off
f 49/49/13 50/50/13 52/51/13 51/52/13
o Short_twigs_set_2.040_Plane.643
v -0.614804 4.057005 0.443222
v -0.605169 5.936018 0.433945
v -0.125891 4.052478 0.034198
v -0.116256 5.931491 0.024920
vt 0.869132 0.583327
vt 0.869132 0.998870
vt 0.728161 0.998870
vt 0.728161 0.583327
vn -0.6417 -0.0005 -0.7670
usemtl thing.004
s off
f 53/53/14 54/54/14 56/55/14 55/56/14
o Short_twigs_set.039_Plane.644
v -0.550310 6.012916 0.377147
v -0.550295 7.768936 0.376960
v -0.064043 6.012875 0.033014
v -0.064028 7.768895 0.032827
vt 0.869132 0.583327
vt 0.869132 0.998870
vt 0.728161 0.998870
vt 0.728161 0.583327
vn -0.5777 -0.0001 -0.8163
usemtl thing.004
s off
f 57/57/15 58/58/15 60/59/15 59/60/15
o Short_twigs_set.040_Plane.645
v -0.490401 7.780438 0.339117
v -0.490388 9.407890 0.338944
v -0.039736 7.780400 0.020180
v -0.039723 9.407852 0.020007
vt 0.869132 0.583327
vt 0.869132 0.998870
vt 0.728161 0.998870
vt 0.728161 0.583327
vn -0.5777 -0.0001 -0.8163
usemtl thing.004
s off
f 61/61/16 62/62/16 64/63/16 63/64/16
o Plane.388_Plane.646
v 0.254707 14.451621 0.564420
v 1.689983 13.718526 -0.177700
v -0.337262 14.356620 -0.486616
v 1.098014 13.623526 -1.228735
v 0.000469 14.596646 -0.002012
v 1.435744 13.863552 -0.744132
v 0.998568 14.206010 0.167659
v 0.406599 14.111010 -0.883376
v 0.744330 14.351036 -0.398773
vt 0.363069 0.500000
vt 0.363069 0.999915
vt 0.000085 0.999915
vt 0.000085 0.500000
vt 0.726052 0.500000
vt 0.726052 0.999915
vt 0.726052 0.000085
vt 0.363069 0.000085
vt 0.000085 0.000085
vn 0.2642 0.7783 -0.5696
vn 0.5621 0.8261 -0.0408
vn 0.3513 0.9328 0.0812
vn 0.0425 0.8832 -0.4671
usemtl Material.456
s off
f 73/65/17 70/66/17 68/67/17 72/68/17
f 71/69/18 66/70/18 70/66/18 73/65/18
f 65/71/19 71/69/19 73/65/19 69/72/19
f 69/72/20 73/65/20 72/68/20 67/73/20
o Plane.400_Plane.647
v -0.501634 14.277645 0.251052
v 0.440791 13.457054 1.440638
v 0.460957 14.426291 -0.409004
v 1.403382 13.605700 0.780581
v -0.000762 14.533803 -0.009477
v 0.941663 13.713212 1.180108
v -0.018125 13.981571 0.889501
v 0.944467 14.130216 0.229444
v 0.482747 14.237728 0.628971
vt 0.363069 0.500000
vt 0.363069 0.999915
vt 0.000085 0.999915
vt 0.000085 0.500000
vt 0.726052 0.500000
vt 0.726052 0.999915
vt 0.726052 0.000085
vt 0.363069 0.000085
vt 0.000085 0.000085
vn 0.4899 0.7978 0.3514
vn -0.0082 0.7209 0.6930
vn -0.1632 0.8421 0.5141
vn 0.3531 0.9218 0.1600
usemtl Material.457
s off
f 82/74/21 79/75/21 77/76/21 81/77/21
f 80/78/22 75/79/22 79/75/22 82/74/22
f 74/80/23 80/78/23 82/74/23 78/81/23
f 78/81/24 82/74/24 81/77/24 76/82/24
o Plane.405_Plane.648
v 0.677221 14.194722 -0.215037
v -0.114190 13.203327 -1.882283
v -0.625952 14.255592 0.367360
v -1.417363 13.264197 -1.299886
v 0.001032 14.448077 -0.002188
v -0.790379 13.456682 -1.669434
v 0.266061 13.839054 -1.097876
v -1.037112 13.899924 -0.515479
v -0.410128 14.092409 -0.885027
vt 0.363069 0.500000
vt 0.363069 0.999915
vt 0.000085 0.999915
vt 0.000085 0.500000
vt 0.726052 0.500000
vt 0.726052 0.999915
vt 0.726052 0.000085
vt 0.363069 0.000085
vt 0.000085 0.000085
vn -0.4770 0.7815 -0.4022
vn 0.0784 0.7556 -0.6504
vn 0.1896 0.8770 -0.4416
vn -0.3861 0.9038 -0.1843
usemtl Material.458
s off
f 91/83/25 88/84/25 86/85/25 90/86/25
f 89/87/26 84/88/26 88/84/26 91/83/26
f 83/89/27 89/87/27 91/83/27 87/90/27
f 87/90/28 91/83/28 90/86/28 85/91/28
o Plane.407_Plane.649
v 0.207012 13.905872 -0.650029
v -1.504049 12.861771 -0.833845
v -0.038004 14.071407 0.690447
v -1.749064 13.027305 0.506631
v 0.000194 14.196733 -0.020899
v -1.710866 13.152631 -0.204715
v -0.701478 13.514537 -0.767759
v -0.946494 13.680072 0.572717
v -0.908296 13.805398 -0.138629
vt 0.363069 0.500000
vt 0.363069 0.999915
vt 0.000085 0.999915
vt 0.000085 0.500000
vt 0.726052 0.500000
vt 0.726052 0.999915
vt 0.726052 0.000085
vt 0.363069 0.000085
vt 0.000085 0.000085
vn -0.6327 0.7677 0.1013
vn -0.5241 0.6943 -0.4933
vn -0.2942 0.8270 -0.4791
vn -0.4068 0.9031 0.1373
usemtl Material.459
s off
f 100/92/29 97/93/29 95/94/29 99/95/29
f 98/96/30 93/97/30 97/93/30 100/92/30
f 92/98/31 98/96/31 100/92/31 96/99/31
f 96/99/32 100/92/32 99/95/32 94/100/32
o Plane.410_Plane.650
v 0.383041 14.455814 0.355181
v 1.399103 14.073821 -0.736874
v -0.394001 14.402308 -0.349072
v 0.622061 14.020314 -1.441127
v 0.000615 14.602423 -0.016842
v 1.016677 14.220430 -1.108897
v 0.894901 14.373716 -0.203345
v 0.117859 14.320210 -0.907598
v 0.512475 14.520326 -0.575368
vt 0.363069 0.500000
vt 0.363069 0.999915
vt 0.000085 0.999915
vt 0.000085 0.500000
vt 0.726052 0.500000
vt 0.726052 0.999915
vt 0.726052 0.000085
vt 0.363069 0.000085
vt 0.000085 0.000085
vn -0.0163 0.8649 -0.5016
vn 0.4342 0.8960 -0.0933
vn 0.2666 0.9582 0.1035
vn -0.2004 0.9261 -0.3198
usemtl Material.460
s off
f 109/101/33 106/102/33 104/103/33 108/104/33
f 107/105/34 102/106/34 106/102/34 109/101/34
f 101/107/35 107/105/35 109/101/35 105/108/35
f 105/108/36 109/101/36 108/104/36 103/109/36
o Plane.417_Plane.651
v 0.373318 14.232586 0.333076
v 1.197091 13.737803 -0.821365
v -0.436894 14.328711 -0.286265
v 0.386879 13.833927 -1.440706
v 0.000642 14.447036 0.006806
v 0.824415 13.952252 -1.147635
v 0.805576 14.089712 -0.254572
v -0.004637 14.185837 -0.873913
v 0.432899 14.304162 -0.580842
vt 0.363069 0.500000
vt 0.363069 0.999915
vt 0.000085 0.999915
vt 0.000085 0.500000
vt 0.726052 0.500000
vt 0.726052 0.999915
vt 0.726052 0.000085
vt 0.363069 0.000085
vt 0.000085 0.000085
vn 0.0867 0.8721 -0.4816
vn 0.5683 0.8150 -0.1135
vn 0.4303 0.8973 0.0983
vn -0.0689 0.9566 -0.2833
usemtl Material.461
s off
f 118/110/37 115/111/37 113/112/37 117/113/37
f 116/114/38 111/115/38 115/111/38 118/110/38
f 110/116/39 116/114/39 118/110/39 114/117/39
f 114/117/40 118/110/40 117/113/40 112/118/40
o Plane.420_Plane.652
v -0.289488 14.012252 -0.438026
v -1.444788 13.577196 0.484216
v 0.344910 14.094866 0.395661
v -0.810390 13.659810 1.317903
v -0.000502 14.225950 -0.016796
v -1.155802 13.790895 0.905446
v -0.884860 13.903013 0.025850
v -0.250462 13.985627 0.859537
v -0.595875 14.116713 0.447080
vt 0.363069 0.500000
vt 0.363069 0.999915
vt 0.000085 0.999915
vt 0.000085 0.500000
vt 0.726052 0.500000
vt 0.726052 0.999915
vt 0.726052 0.000085
vt 0.363069 0.000085
vt 0.000085 0.000085
vn -0.1697 0.8893 0.4248
vn -0.5373 0.8414 -0.0582
vn -0.3437 0.9113 -0.2265
vn 0.0373 0.9610 0.2742
usemtl Material.462
s off
f 127/119/41 124/120/41 122/121/41 126/122/41
f 125/123/42 120/124/42 124/120/42 127/119/42
f 119/125/43 125/123/43 127/119/43 123/126/43
f 123/126/44 127/119/44 126/122/44 121/127/44
o Plane.421_Plane.653
v -0.399940 13.978427 0.520114
v 1.111828 13.246538 1.486284
v 0.306262 13.962877 -0.596661
v 1.818030 13.230988 0.369509
v -0.000559 14.183836 -0.011977
v 1.511209 13.451946 0.954193
v 0.385015 13.746396 1.019717
v 1.091217 13.730845 -0.097058
v 0.784396 13.951804 0.487627
vt 0.363069 0.500000
vt 0.363069 0.999915
vt 0.000085 0.999915
vt 0.000085 0.500000
vt 0.726052 0.500000
vt 0.726052 0.999915
vt 0.726052 0.000085
vt 0.363069 0.000085
vt 0.000085 0.000085
vn 0.5712 0.8208 -0.0104
vn 0.2458 0.8279 0.5041
vn 0.0312 0.9244 0.3803
vn 0.3685 0.9169 -0.1531
usemtl Material.463
s off
f 136/128/45 133/129/45 131/130/45 135/131/45
f 134/132/46 129/133/46 133/129/46 136/128/46
f 128/134/47 134/132/47 136/128/47 132/135/47
f 132/135/48 136/128/48 135/131/48 130/136/48
o Plane.438_Plane.670
v -0.549035 13.165444 0.262962
v 0.332512 12.538446 1.725398
v 0.525087 13.238008 -0.353401
v 1.406633 12.611010 1.109035
v -0.000851 13.403145 -0.002123
v 0.880696 12.776146 1.460313
v -0.101274 12.978468 1.021251
v 0.972847 13.051031 0.404888
v 0.446910 13.216168 0.756167
vt 0.363069 0.500000
vt 0.363069 0.999915
vt 0.000085 0.999915
vt 0.000085 0.500000
vt 0.726052 0.500000
vt 0.726052 0.999915
vt 0.726052 0.000085
vt 0.363069 0.000085
vt 0.000085 0.000085
vn 0.4440 0.8569 0.2619
vn -0.0832 0.8213 0.5644
vn -0.2221 0.9081 0.3550
vn 0.3244 0.9450 0.0415
usemtl Material.480
s off
f 145/137/49 142/138/49 140/139/49 144/140/49
f 143/141/50 138/142/50 142/138/50 145/137/50
f 137/143/51 143/141/51 145/137/51 141/144/51
f 141/144/52 145/137/52 144/140/52 139/145/52
o Plane.439_Plane.671
v -0.828058 13.809000 -0.231298
v -1.258346 12.536288 1.831098
v 0.824215 13.688226 0.038894
v 0.393926 12.415514 2.101290
v -0.001309 14.004807 0.014568
v -0.431597 12.732096 2.076963
v -1.042817 13.333575 0.869481
v 0.609455 13.212801 1.139673
v -0.216068 13.529383 1.115347
vt 0.363069 0.500000
vt 0.363069 0.999915
vt 0.000085 0.999915
vt 0.000085 0.500000
vt 0.726052 0.500000
vt 0.726052 0.999915
vt 0.726052 0.000085
vt 0.363069 0.000085
vt 0.000085 0.000085
vn 0.2552 0.7154 0.6504
vn -0.3441 0.7593 0.5524
vn -0.3085 0.8937 0.3258
vn 0.3127 0.8483 0.4274
usemtl Material.481
s off
f 154/146/53 151/147/53 149/148/53 153/149/53
f 152/150/54 147/151/54 151/147/54 154/146/54
f 146/152/55 152/150/55 154/146/55 150/153/55
f 150/153/56 154/146/56 153/149/56 148/154/56
o Plane.440_Plane.672
v 0.561610 13.519448 0.617775
v 2.001163 12.400461 -0.969324
v -0.671833 13.483024 -0.475319
v 0.767720 12.364037 -2.062417
v 0.000977 13.759739 -0.000676
v 1.440530 12.640753 -1.587775
v 1.316619 13.122336 -0.220942
v 0.083176 13.085911 -1.314035
v 0.755986 13.362627 -0.839393
vt 0.363069 0.500000
vt 0.363069 0.999915
vt 0.000085 0.999915
vt 0.000085 0.500000
vt 0.726052 0.500000
vt 0.726052 0.999915
vt 0.726052 0.000085
vt 0.363069 0.000085
vt 0.000085 0.000085
vn 0.1258 0.7690 -0.6267
vn 0.5814 0.7825 -0.2230
vn 0.4303 0.9018 -0.0397
vn -0.0420 0.8879 -0.4582
usemtl Material.482
s off
f 163/155/57 160/156/57 158/157/57 162/158/57
f 161/159/58 156/160/58 160/156/58 163/155/58
f 155/161/59 161/159/59 163/155/59 159/162/59
f 159/162/60 163/155/60 162/158/60 157/163/60
o Plane.441_Plane.673
v 0.647223 13.310781 -0.067649
v 0.493751 12.993323 -1.871267
v -0.586663 13.137858 0.067780
v -0.740134 12.820401 -1.735838
v 0.000977 13.430617 -0.003500
v -0.152494 13.113160 -1.807119
v 0.552080 13.281640 -0.971698
v -0.681805 13.108717 -0.836269
v -0.094165 13.401476 -0.907550
vt 0.363069 0.500000
vt 0.363069 0.999915
vt 0.000085 0.999915
vt 0.000085 0.500000
vt 0.726052 0.500000
vt 0.726052 0.999915
vt 0.726052 0.000085
vt 0.363069 0.000085
vt 0.000085 0.000085
vn -0.4560 0.8557 -0.2447
vn 0.1434 0.9397 -0.3105
vn 0.1773 0.9829 -0.0503
vn -0.4441 0.8958 0.0179
usemtl Material.483
s off
f 172/164/61 169/165/61 167/166/61 171/167/61
f 170/168/62 165/169/62 169/165/62 172/164/62
f 164/170/63 170/168/63 172/164/63 168/171/63
f 168/171/64 172/164/64 171/167/64 166/172/64
o Plane.442_Plane.674
v 0.234174 13.558229 -0.932803
v -1.913328 11.832994 -1.135810
v 0.083468 13.524918 0.944535
v -2.064035 11.799682 0.741528
v 0.000119 13.811497 -0.002085
v -2.147383 12.086260 -0.205092
v -0.939267 12.865166 -1.039301
v -1.089973 12.831854 0.838037
v -1.173322 13.118433 -0.108582
vt 0.363069 0.500000
vt 0.363069 0.999915
vt 0.000085 0.999915
vt 0.000085 0.500000
vt 0.726052 0.500000
vt 0.726052 0.999915
vt 0.726052 0.000085
vt 0.363069 0.000085
vt 0.000085 0.000085
vn -0.7143 0.6498 0.2596
vn -0.6656 0.6606 -0.3472
vn -0.4555 0.8233 -0.3386
vn -0.5060 0.8121 0.2904
usemtl Material.484
s off
f 181/173/65 178/174/65 176/175/65 180/176/65
f 179/177/66 174/178/66 178/174/66 181/173/66
f 173/179/67 179/177/67 181/173/67 177/180/67
f 177/180/68 181/173/68 180/176/68 175/181/68
o Plane.443_Plane.675
v 0.957990 14.155360 -0.154967
v 0.608223 12.712885 -2.416307
v -0.758487 13.738274 0.376579
v -1.108255 12.295798 -1.884761
v 0.001359 14.217610 0.005560
v -0.348408 12.775135 -2.255780
v 0.721301 13.604224 -1.351748
v -0.995177 13.187138 -0.820202
v -0.235330 13.666474 -1.191220
vt 0.363069 0.500000
vt 0.363069 0.999915
vt 0.000085 0.999915
vt 0.000085 0.500000
vt 0.726052 0.500000
vt 0.726052 0.999915
vt 0.726052 0.000085
vt 0.363069 0.000085
vt 0.000085 0.000085
vn -0.6235 0.6308 -0.4619
vn -0.0569 0.7685 -0.6374
vn -0.0107 0.9091 -0.4165
vn -0.5980 0.7664 -0.2346
usemtl Material.485
s off
f 190/182/69 187/183/69 185/184/69 189/185/69
f 188/186/70 183/187/70 187/183/70 190/182/70
f 182/188/71 188/186/71 190/182/71 186/189/71
f 186/189/72 190/182/72 189/185/72 184/190/72
o Plane.444_Plane.676
v -0.827972 13.721685 0.361161
v 0.553957 12.283541 2.255176
v 0.757016 13.962185 -0.612679
v 2.138945 12.524040 1.281336
v -0.001255 14.125333 -0.000071
v 1.380674 12.687188 1.893944
v -0.115510 13.180632 1.387121
v 1.469478 13.421131 0.413281
v 0.711207 13.584279 1.025889
vt 0.363069 0.500000
vt 0.363069 0.999915
vt 0.000085 0.999915
vt 0.000085 0.500000
vt 0.726052 0.500000
vt 0.726052 0.999915
vt 0.726052 0.000085
vt 0.363069 0.000085
vt 0.000085 0.000085
vn 0.4956 0.7660 0.4094
vn -0.0189 0.6879 0.7255
vn -0.1625 0.8217 0.5462
vn 0.3708 0.9026 0.2185
usemtl Material.486
s off
f 199/191/73 196/192/73 194/193/73 198/194/73
f 197/195/74 192/196/74 196/192/74 199/191/74
f 191/197/75 197/195/75 199/191/75 195/198/75
f 195/198/76 199/191/76 198/194/76 193/199/76
o Plane.445_Plane.677
v 0.108033 13.975595 0.624171
v 1.717330 13.132563 0.039249
v -0.252813 14.146314 -0.614678
v 1.356484 13.303281 -1.199599
v 0.000286 14.264700 0.011655
v 1.609582 13.421667 -0.573267
v 0.958333 13.682064 0.336050
v 0.597487 13.852781 -0.902799
v 0.850586 13.971168 -0.276467
vt 0.363069 0.500000
vt 0.363069 0.999915
vt 0.000085 0.999915
vt 0.000085 0.500000
vt 0.726052 0.500000
vt 0.726052 0.999915
vt 0.726052 0.000085
vt 0.363069 0.000085
vt 0.000085 0.000085
vn 0.4602 0.8198 -0.3409
vn 0.6290 0.7399 0.2386
vn 0.4061 0.8519 0.3307
vn 0.2311 0.9347 -0.2701
usemtl Material.487
s off
f 208/200/77 205/201/77 203/202/77 207/203/77
f 206/204/78 201/205/78 205/201/78 208/200/78
f 200/206/79 206/204/79 208/200/79 204/207/79
f 204/207/80 208/200/80 207/203/80 202/208/80
o Plane.446_Plane.678
v -0.793661 12.195955 0.889715
v 1.638538 10.784749 2.822271
v 0.580136 12.005156 -0.978591
v 3.012336 10.593949 0.953965
v -0.001088 12.470614 -0.004526
v 2.431112 11.059409 1.928030
v 0.488819 11.722809 1.881065
v 1.862616 11.532008 0.012758
v 1.281392 11.997468 0.986824
vt 0.363069 0.500000
vt 0.363069 0.999915
vt 0.000085 0.999915
vt 0.000085 0.500000
vt 0.726052 0.500000
vt 0.726052 0.999915
vt 0.726052 0.000085
vt 0.363069 0.000085
vt 0.000085 0.000085
vn 0.6299 0.7767 0.0047
vn 0.2704 0.8266 0.4935
vn 0.0728 0.9334 0.3513
vn 0.4455 0.8817 -0.1555
usemtl Material.488
s off
f 217/209/81 214/210/81 212/211/81 216/212/81
f 215/213/82 210/214/82 214/210/82 217/209/82
f 209/215/83 215/213/83 217/209/83 213/216/83
f 213/216/84 217/209/84 216/212/84 211/217/84
o Plane.447_Plane.679
v -0.776074 12.632158 0.037678
v -0.601423 11.984016 2.191785
v 0.756426 12.599727 -0.096332
v 0.931077 11.951586 2.057775
v -0.001214 12.868928 0.007916
v 0.173437 12.220787 2.162023
v -0.683340 12.467002 1.138126
v 0.849160 12.434571 1.004116
v 0.091520 12.703773 1.108363
vt 0.363069 0.500000
vt 0.363069 0.999915
vt 0.000085 0.999915
vt 0.000085 0.500000
vt 0.726052 0.500000
vt 0.726052 0.999915
vt 0.726052 0.000085
vt 0.363069 0.000085
vt 0.000085 0.000085
vn 0.3559 0.8597 0.3664
vn -0.2505 0.8725 0.4194
vn -0.2824 0.9449 0.1656
vn 0.3462 0.9316 0.1106
usemtl Material.489
s off
f 226/218/85 223/219/85 221/220/85 225/221/85
f 224/222/86 219/223/86 223/219/86 226/218/86
f 218/224/87 224/222/87 226/218/87 222/225/87
f 222/225/88 226/218/88 225/221/88 220/226/88
o Plane.448_Plane.680
v 0.643513 12.674597 -0.064785
v 0.220146 11.778322 -1.741755
v -0.653192 12.805345 0.192701
v -1.076560 11.909070 -1.484268
v 0.001027 12.947385 -0.011821
v -0.422341 12.051110 -1.688791
v 0.435514 12.356749 -0.950871
v -0.861191 12.487496 -0.693384
v -0.206972 12.629537 -0.897907
vt 0.363069 0.500000
vt 0.363069 0.999915
vt 0.000085 0.999915
vt 0.000085 0.500000
vt 0.726052 0.500000
vt 0.726052 0.999915
vt 0.726052 0.000085
vt 0.363069 0.000085
vt 0.000085 0.000085
vn -0.3297 0.8026 -0.4972
vn 0.2646 0.7426 -0.6152
vn 0.3332 0.8599 -0.3867
vn -0.2828 0.9220 -0.2643
usemtl Material.490
s off
f 235/227/89 232/228/89 230/229/89 234/230/89
f 233/231/90 228/232/90 232/228/90 235/227/90
f 227/233/91 233/231/91 235/227/91 231/234/91
f 231/234/92 235/227/92 234/230/92 229/235/92
o Plane.449_Plane.681
v 0.483000 12.452045 -0.877028
v -1.722574 10.627407 -1.512715
v -0.177990 12.595429 1.004778
v -2.383565 10.770791 0.369092
v 0.000524 12.809766 -0.011303
v -2.205051 10.985127 -0.646990
v -0.715256 11.719398 -1.242095
v -1.376246 11.862782 0.639711
v -1.197733 12.077118 -0.376370
vt 0.363069 0.500000
vt 0.363069 0.999915
vt 0.000085 0.999915
vt 0.000085 0.500000
vt 0.726052 0.500000
vt 0.726052 0.999915
vt 0.726052 0.000085
vt 0.363069 0.000085
vt 0.000085 0.000085
vn -0.7366 0.6762 0.0132
vn -0.5353 0.6325 -0.5597
vn -0.3294 0.7936 -0.5115
vn -0.5380 0.8389 0.0824
usemtl Material.491
s off
f 244/236/93 241/237/93 239/238/93 243/239/93
f 242/240/94 237/241/94 241/237/94 244/236/94
f 236/242/95 242/240/95 244/236/95 240/243/95
f 240/243/96 244/236/96 243/239/96 238/244/96
o Plane.450_Plane.682
v 0.757914 12.399496 -0.448913
v -0.620041 10.762785 -1.906381
v -0.583102 12.510818 0.693931
v -1.961057 10.874107 -0.763537
v 0.001062 12.705978 -0.003240
v -1.376894 11.069267 -1.460708
v 0.014699 11.738696 -1.256637
v -1.326317 11.850018 -0.113793
v -0.742154 12.045178 -0.810964
vt 0.363069 0.500000
vt 0.363069 0.999915
vt 0.000085 0.999915
vt 0.000085 0.500000
vt 0.726052 0.500000
vt 0.726052 0.999915
vt 0.726052 0.000085
vt 0.363069 0.000085
vt 0.000085 0.000085
vn -0.6533 0.6654 -0.3612
vn -0.1909 0.6270 -0.7553
vn -0.0394 0.7908 -0.6107
vn -0.5188 0.8306 -0.2022
usemtl Material.492
s off
f 253/245/97 250/246/97 248/247/97 252/248/97
f 251/249/98 246/250/98 250/246/98 253/245/98
f 245/251/99 251/249/99 253/245/99 249/252/99
f 249/252/100 253/245/100 252/248/100 247/253/100
o Plane.451_Plane.683
v 0.976661 12.381041 0.222109
v 1.042266 10.794752 -2.290917
v -1.039416 12.532188 0.074069
v -0.973810 10.945899 -2.438957
v 0.001597 12.763304 0.012161
v 0.067202 11.177015 -2.500865
v 1.030177 11.780546 -1.119788
v -0.985900 11.931693 -1.267828
v 0.055112 12.162809 -1.329736
vt 0.363069 0.500000
vt 0.363069 0.999915
vt 0.000085 0.999915
vt 0.000085 0.500000
vt 0.726052 0.500000
vt 0.726052 0.999915
vt 0.726052 0.000085
vt 0.363069 0.000085
vt 0.000085 0.000085
vn -0.2036 0.7480 -0.6317
vn 0.4019 0.7026 -0.5872
vn 0.4067 0.8398 -0.3596
vn -0.2210 0.8869 -0.4057
usemtl Material.493
s off
f 262/254/101 259/255/101 257/256/101 261/257/101
f 260/258/102 255/259/102 259/255/102 262/254/102
f 254/260/103 260/258/103 262/254/103 258/261/103
f 258/261/104 262/254/104 261/257/104 256/262/104
o Plane.452_Plane.684
v -0.617234 12.478909 -0.516715
v -1.868343 11.674293 1.214048
v 0.659002 12.403631 0.370837
v -0.592108 11.599015 2.101600
v -0.001011 12.693652 -0.020050
v -1.252121 11.889036 1.710712
v -1.256542 12.235136 0.381889
v 0.019693 12.159860 1.269441
v -0.640319 12.449880 0.878554
vt 0.363069 0.500000
vt 0.363069 0.999915
vt 0.000085 0.999915
vt 0.000085 0.500000
vt 0.726052 0.500000
vt 0.726052 0.999915
vt 0.726052 0.000085
vt 0.363069 0.000085
vt 0.000085 0.000085
vn 0.0230 0.8211 0.5703
vn -0.4762 0.8505 0.2231
vn -0.3391 0.9407 0.0140
vn 0.1785 0.9101 0.3739
usemtl Material.494
s off
f 271/263/105 268/264/105 266/265/105 270/266/105
f 269/267/106 264/268/106 268/264/106 271/263/106
f 263/269/107 269/267/107 271/263/107 267/270/107
f 267/270/108 271/263/108 270/266/108 265/271/108
o Plane.453_Plane.685
v -0.116717 13.060460 0.750931
v 1.869495 12.298598 0.978626
v 0.006897 12.949508 -0.698615
v 1.993109 12.187647 -0.470921
v -0.000098 13.240943 0.012771
v 1.986115 12.479082 0.240466
v 0.910820 12.827749 0.856370
v 1.034434 12.716797 -0.593177
v 1.027439 13.008232 0.118210
vt 0.363069 0.500000
vt 0.363069 0.999915
vt 0.000085 0.999915
vt 0.000085 0.500000
vt 0.726052 0.500000
vt 0.726052 0.999915
vt 0.726052 0.000085
vt 0.363069 0.000085
vt 0.000085 0.000085
vn 0.4883 0.8092 -0.3267
vn 0.4367 0.8555 0.2782
vn 0.1876 0.9469 0.2612
vn 0.2411 0.8989 -0.3659
usemtl Material.495
s off
f 280/272/109 277/273/109 275/274/109 279/275/109
f 278/276/110 273/277/110 277/273/110 280/272/110
f 272/278/111 278/276/111 280/272/111 276/279/111
f 276/279/112 280/272/112 279/275/112 274/280/112
o Plane.454_Plane.686
v -0.680362 11.183600 0.748384
v 1.299877 9.924160 2.370048
v 0.488877 11.029886 -0.798771
v 2.469116 9.770446 0.822893
v -0.000926 11.413259 0.016009
v 1.979313 10.153817 1.637673
v 0.369317 10.746420 1.585098
v 1.538556 10.592706 0.037943
v 1.048753 10.976077 0.852723
vt 0.363069 0.500000
vt 0.363069 0.999915
vt 0.000085 0.999915
vt 0.000085 0.500000
vt 0.726052 0.500000
vt 0.726052 0.999915
vt 0.726052 0.000085
vt 0.363069 0.000085
vt 0.000085 0.000085
vn 0.6472 0.7617 0.0307
vn 0.2813 0.8098 0.5149
vn 0.0885 0.9241 0.3718
vn 0.4678 0.8742 -0.1301
usemtl Material.496
s off
f 289/281/113 286/282/113 284/283/113 288/284/113
f 287/285/114 282/286/114 286/282/114 289/281/114
f 281/287/115 287/285/115 289/281/115 285/288/115
f 285/288/116 289/281/116 288/284/116 283/289/116
o Plane.455_Plane.687
v -0.799806 11.035632 -0.850404
v -2.474448 9.118681 1.435925
v 1.033402 11.150342 0.588522
v -0.641240 9.233391 2.874851
v -0.001452 11.441491 -0.008072
v -1.676094 9.524540 2.278257
v -1.711406 10.296072 0.369942
v 0.121801 10.410782 1.808868
v -0.913052 10.701931 1.212274
vt 0.363069 0.500000
vt 0.363069 0.999915
vt 0.000085 0.999915
vt 0.000085 0.500000
vt 0.726052 0.500000
vt 0.726052 0.999915
vt 0.726052 0.000085
vt 0.363069 0.000085
vt 0.000085 0.000085
vn -0.1817 0.7221 0.6675
vn -0.6600 0.6922 0.2921
vn -0.5371 0.8368 0.1059
vn -0.0413 0.8678 0.4951
usemtl Material.497
s off
f 298/290/117 295/291/117 293/292/117 297/293/117
f 296/294/118 291/295/118 295/291/118 298/290/118
f 290/296/119 296/294/119 298/290/119 294/297/119
f 294/297/120 298/290/120 297/293/120 292/298/120
o Plane.456_Plane.688
v -0.139248 11.476717 1.157237
v 2.768485 9.502755 0.886461
v -0.213290 11.695862 -1.235436
v 2.694443 9.721900 -1.506212
v 0.000059 11.943969 -0.011796
v 2.907792 9.970007 -0.282572
v 1.425380 10.714416 1.039000
v 1.351338 10.933560 -1.353673
v 1.564687 11.181667 -0.130033
vt 0.363069 0.500000
vt 0.363069 0.999915
vt 0.000085 0.999915
vt 0.000085 0.500000
vt 0.726052 0.500000
vt 0.726052 0.999915
vt 0.726052 0.000085
vt 0.363069 0.000085
vt 0.000085 0.000085
vn 0.6308 0.7317 -0.2583
vn 0.6495 0.6762 0.3477
vn 0.4283 0.8203 0.3789
vn 0.4089 0.8779 -0.2493
usemtl Material.498
s off
f 307/299/121 304/300/121 302/301/121 306/302/121
f 305/303/122 300/304/122 304/300/122 307/299/122
f 299/305/123 305/303/123 307/299/123 303/306/123
f 303/306/124 307/299/124 306/302/124 301/307/124
o Plane.457_Plane.689
v 0.548091 11.486998 -0.899245
v -1.809856 10.120611 -2.152404
v -0.320439 11.296265 0.942948
v -2.678385 9.929879 -0.310211
v 0.000688 11.711771 0.001657
v -2.357259 10.345386 -1.251503
v -0.701951 11.004903 -1.538510
v -1.570481 10.814171 0.303683
v -1.249354 11.229677 -0.637609
vt 0.363069 0.500000
vt 0.363069 0.999915
vt 0.000085 0.999915
vt 0.000085 0.500000
vt 0.726052 0.500000
vt 0.726052 0.999915
vt 0.726052 0.000085
vt 0.363069 0.000085
vt 0.000085 0.000085
vn -0.6556 0.7476 0.1063
vn -0.3971 0.8043 -0.4420
vn -0.1816 0.9225 -0.3405
vn -0.4496 0.8637 0.2279
usemtl Material.499
s off
f 316/308/125 313/309/125 311/310/125 315/311/125
f 314/312/126 309/313/126 313/309/126 316/308/126
f 308/314/127 314/312/127 316/308/127 312/315/127
f 312/315/128 316/308/128 315/311/128 310/316/128
o Plane.458_Plane.690
v 0.145398 11.931481 -0.774254
v -1.835248 10.778831 -0.944937
v 0.050455 11.863216 0.788507
v -1.930192 10.710567 0.617824
v 0.000075 12.138822 0.011729
v -1.980571 10.986172 -0.158953
v -0.906391 11.506840 -0.856704
v -1.001335 11.438574 0.706057
v -1.051714 11.714180 -0.070720
vt 0.363069 0.500000
vt 0.363069 0.999915
vt 0.000085 0.999915
vt 0.000085 0.500000
vt 0.726052 0.500000
vt 0.726052 0.999915
vt 0.726052 0.000085
vt 0.363069 0.000085
vt 0.000085 0.000085
vn -0.6059 0.7366 0.3006
vn -0.5690 0.7631 -0.3065
vn -0.3372 0.8930 -0.2979
vn -0.3754 0.8656 0.3315
usemtl Material.500
s off
f 325/317/129 322/318/129 320/319/129 324/320/129
f 323/321/130 318/322/130 322/318/130 325/317/130
f 317/323/131 323/321/131 325/317/131 321/324/131
f 321/324/132 325/317/132 324/320/132 319/325/132
o Plane.459_Plane.691
v 0.844976 11.687832 -0.272313
v -0.093514 10.291490 -2.225672
v -0.748063 11.719003 0.470779
v -1.686553 10.322661 -1.482580
v 0.001262 11.969161 -0.013090
v -0.937228 10.572819 -1.966449
v 0.346085 11.156590 -1.319549
v -1.246953 11.187761 -0.576458
v -0.497629 11.437920 -1.060327
vt 0.363069 0.500000
vt 0.363069 0.999915
vt 0.000085 0.999915
vt 0.000085 0.500000
vt 0.726052 0.500000
vt 0.726052 0.999915
vt 0.726052 0.000085
vt 0.363069 0.000085
vt 0.000085 0.000085
vn -0.5266 0.7278 -0.4393
vn 0.0250 0.7170 -0.6967
vn 0.1328 0.8570 -0.4980
vn -0.4391 0.8682 -0.2312
usemtl Material.501
s off
f 334/326/133 331/327/133 329/328/133 333/329/133
f 332/330/134 327/331/134 331/327/134 334/326/134
f 326/332/135 332/330/135 334/326/135 330/333/135
f 330/333/136 334/326/136 333/329/136 328/334/136
o Plane.460_Plane.692
v -0.915041 12.101162 0.013224
v -0.737124 10.614200 2.112222
v 0.805578 11.890445 -0.281895
v 0.983495 10.403482 1.817103
v -0.001363 12.253708 -0.007327
v 0.176554 10.766746 2.091671
v -0.792558 11.519686 1.142505
v 0.928060 11.308969 0.847385
v 0.121120 11.672232 1.121954
vt 0.363069 0.500000
vt 0.363069 0.999915
vt 0.000085 0.999915
vt 0.000085 0.500000
vt 0.726052 0.500000
vt 0.726052 0.999915
vt 0.726052 0.000085
vt 0.363069 0.000085
vt 0.000085 0.000085
vn 0.4902 0.6508 0.5797
vn -0.1055 0.7238 0.6819
vn -0.1356 0.8748 0.4651
vn 0.4820 0.7992 0.3592
usemtl Material.502
s off
f 343/335/137 340/336/137 338/337/137 342/338/137
f 341/339/138 336/340/138 340/336/138 343/335/138
f 335/341/139 341/339/139 343/335/139 339/342/139
f 339/342/140 343/335/140 342/338/140 337/343/140
o Plane.461_Plane.693
v -0.512984 11.528121 0.767927
v 1.625058 10.605698 2.042877
v 0.389473 11.453100 -0.799736
v 2.527515 10.530676 0.475214
v -0.000715 11.784644 0.005164
v 2.137327 10.862221 1.280114
v 0.594380 11.251609 1.418637
v 1.496837 11.176588 -0.149027
v 1.106650 11.508133 0.655873
vt 0.363069 0.500000
vt 0.363069 0.999915
vt 0.000085 0.999915
vt 0.000085 0.500000
vt 0.726052 0.500000
vt 0.726052 0.999915
vt 0.726052 0.000085
vt 0.363069 0.000085
vt 0.000085 0.000085
vn 0.5594 0.8260 -0.0690
vn 0.2560 0.8512 0.4582
vn 0.0351 0.9399 0.3397
vn 0.3497 0.9137 -0.2068
usemtl Material.503
s off
f 352/344/141 349/345/141 347/346/141 351/347/141
f 350/348/142 345/349/142 349/345/142 352/344/142
f 344/350/143 350/348/143 352/344/143 348/351/143
f 348/351/144 352/344/144 351/347/144 346/352/144
o Plane.470_Plane.702
v -1.064605 10.324656 0.578048
v 0.849798 8.103827 2.673222
v 0.869958 10.583368 -0.915372
v 2.784360 8.362539 1.179801
v -0.001532 10.805581 0.016329
v 1.912871 8.584752 2.111503
v -0.047231 9.435082 1.741839
v 1.887331 9.693795 0.248418
v 1.015841 9.916008 1.180120
vt 0.363069 0.500000
vt 0.363069 0.999915
vt 0.000085 0.999915
vt 0.000085 0.500000
vt 0.726052 0.500000
vt 0.726052 0.999915
vt 0.726052 0.000085
vt 0.363069 0.000085
vt 0.000085 0.000085
vn 0.6045 0.6881 0.4013
vn 0.1252 0.6240 0.7713
vn -0.0260 0.7831 0.6213
vn 0.4708 0.8496 0.2378
usemtl Material.512
s off
f 361/353/145 358/354/145 356/355/145 360/356/145
f 359/357/146 354/358/146 358/354/146 361/353/146
f 353/359/147 359/357/147 361/353/147 357/360/147
f 357/360/148 361/353/148 360/356/148 355/361/148
o Plane.471_Plane.703
v -0.396458 10.562123 -1.015658
v -2.661397 8.692978 0.051616
v 0.657800 10.333892 0.821951
v -1.607139 8.464747 1.889226
v -0.000835 10.756713 0.016934
v -2.265774 8.887568 1.084209
v -1.611534 9.821466 -0.410544
v -0.557276 9.593235 1.427065
v -1.215911 10.016056 0.622048
vt 0.363069 0.500000
vt 0.363069 0.999915
vt 0.000085 0.999915
vt 0.000085 0.500000
vt 0.726052 0.500000
vt 0.726052 0.999915
vt 0.726052 0.000085
vt 0.363069 0.000085
vt 0.000085 0.000085
vn -0.3962 0.6387 0.6596
vn -0.6974 0.7039 0.1346
vn -0.5083 0.8605 0.0326
vn -0.1961 0.7929 0.5769
usemtl Material.513
s off
f 370/362/149 367/363/149 365/364/149 369/365/149
f 368/366/150 363/367/150 367/363/150 370/362/150
f 362/368/151 368/366/151 370/362/151 366/369/151
f 366/369/152 370/362/152 369/365/152 364/370/152
o Plane.472_Plane.704
v -0.048688 10.618910 0.980296
v 2.523547 9.421236 0.826155
v -0.137553 10.677081 -0.954638
v 2.434682 9.479407 -1.108779
v 0.000070 10.956415 0.017821
v 2.572305 9.758740 -0.136320
v 1.295968 10.213809 0.906361
v 1.207103 10.271980 -1.028572
v 1.344727 10.551314 -0.056113
vt 0.363069 0.500000
vt 0.363069 0.999915
vt 0.000085 0.999915
vt 0.000085 0.500000
vt 0.726052 0.500000
vt 0.726052 0.999915
vt 0.726052 0.000085
vt 0.363069 0.000085
vt 0.000085 0.000085
vn 0.5027 0.8094 -0.3036
vn 0.5306 0.7911 0.3043
vn 0.2889 0.8988 0.3298
vn 0.2600 0.9177 -0.3004
usemtl Material.514
s off
f 379/371/153 376/372/153 374/373/153 378/374/153
f 377/375/154 372/376/154 376/372/154 379/371/154
f 371/377/155 377/375/155 379/371/155 375/378/155
f 375/378/156 379/371/156 378/374/156 373/379/156
o Plane.473_Plane.705
v 1.101962 10.794951 -0.212160
v 0.156342 8.780777 -2.601591
v -0.981379 10.842484 0.572257
v -1.926999 8.828309 -1.817174
v 0.001650 11.139583 0.004859
v -0.943970 9.125408 -2.384572
v 0.592316 9.989418 -1.516922
v -1.491025 10.036950 -0.732506
v -0.507996 10.334049 -1.299904
vt 0.363069 0.500000
vt 0.363069 0.999915
vt 0.000085 0.999915
vt 0.000085 0.500000
vt 0.726052 0.500000
vt 0.726052 0.999915
vt 0.726052 0.000085
vt 0.363069 0.000085
vt 0.000085 0.000085
vn -0.5129 0.6684 -0.5386
vn 0.0567 0.6554 -0.7531
vn 0.1450 0.8156 -0.5602
vn -0.4456 0.8291 -0.3378
usemtl Material.515
s off
f 388/380/157 385/381/157 383/382/157 387/383/157
f 386/384/158 381/385/158 385/381/158 388/380/158
f 380/386/159 386/384/159 388/380/159 384/387/159
f 384/387/160 388/380/160 387/383/160 382/388/160
o Plane.474_Plane.706
v -0.693141 10.402367 -0.876361
v -2.100271 8.083807 0.875317
v 0.989561 10.453278 0.542747
v -0.417569 8.134719 2.294426
v -0.001333 10.717331 0.000126
v -1.408463 8.398771 1.751805
v -1.490643 9.424944 0.104338
v 0.192060 9.475856 1.523447
v -0.798834 9.739908 0.980826
vt 0.363069 0.500000
vt 0.363069 0.999915
vt 0.000085 0.999915
vt 0.000085 0.500000
vt 0.726052 0.500000
vt 0.726052 0.999915
vt 0.726052 0.000085
vt 0.363069 0.000085
vt 0.000085 0.000085
vn -0.2728 0.5697 0.7753
vn -0.7380 0.5556 0.3829
vn -0.6288 0.7430 0.2293
vn -0.1464 0.7576 0.6360
usemtl Material.516
s off
f 397/389/161 394/390/161 392/391/161 396/392/161
f 395/393/162 390/394/162 394/390/162 397/389/162
f 389/395/163 395/393/163 397/389/163 393/396/163
f 393/396/164 397/389/164 396/392/164 391/397/164
o Plane.475_Plane.707
v 1.334175 10.977591 0.696125
v 2.732184 8.675104 -2.607882
v -1.392559 10.720999 -0.278813
v 0.005450 8.418512 -3.582819
v 0.002160 11.286948 0.005786
v 1.400169 8.984463 -3.298221
v 2.052873 10.101263 -1.083313
v -0.673861 9.844671 -2.058251
v 0.720858 10.410622 -1.773653
vt 0.363069 0.500000
vt 0.363069 0.999915
vt 0.000085 0.999915
vt 0.000085 0.500000
vt 0.726052 0.500000
vt 0.726052 0.999915
vt 0.726052 0.000085
vt 0.363069 0.000085
vt 0.000085 0.000085
vn -0.1364 0.6924 -0.7085
vn 0.4347 0.7461 -0.5043
vn 0.3575 0.8869 -0.2924
vn -0.2344 0.8312 -0.5041
usemtl Material.517
s off
f 406/398/165 403/399/165 401/400/165 405/401/165
f 404/402/166 399/403/166 403/399/166 406/398/166
f 398/404/167 404/402/167 406/398/167 402/405/167
f 402/405/168 406/398/168 405/401/168 400/406/168
o Plane.476_Plane.708
v -0.565009 10.748068 -0.669643
v -2.035230 9.422148 0.956308
v 0.721543 10.770738 0.512171
v -0.748679 9.444818 2.138123
v -0.001019 11.026838 0.002447
v -1.471240 9.700918 1.628398
v -1.349923 10.253099 0.194328
v -0.063372 10.275769 1.376143
v -0.785934 10.531871 0.866418
vt 0.363069 0.500000
vt 0.363069 0.999915
vt 0.000085 0.999915
vt 0.000085 0.500000
vt 0.726052 0.500000
vt 0.726052 0.999915
vt 0.726052 0.000085
vt 0.363069 0.000085
vt 0.000085 0.000085
vn -0.1888 0.7437 0.6413
vn -0.6371 0.7358 0.2294
vn -0.4914 0.8694 0.0517
vn -0.0266 0.8776 0.4786
usemtl Material.518
s off
f 415/407/169 412/408/169 410/409/169 414/410/169
f 413/411/170 408/412/170 412/408/170 415/407/170
f 407/413/171 413/411/171 415/407/171 411/414/171
f 411/414/172 415/407/172 414/410/172 409/415/172
o Plane.477_Plane.709
v 0.142587 10.780081 1.342760
v 3.355014 8.731325 0.854065
v -0.466091 10.427607 -1.180692
v 2.746336 8.378851 -1.669387
v 0.000482 10.997014 -0.013016
v 3.212909 8.948258 -0.501711
v 1.850709 10.002676 1.039335
v 1.242031 9.650202 -1.484118
v 1.708604 10.219609 -0.316442
vt 0.363069 0.500000
vt 0.363069 0.999915
vt 0.000085 0.999915
vt 0.000085 0.500000
vt 0.726052 0.500000
vt 0.726052 0.999915
vt 0.726052 0.000085
vt 0.363069 0.000085
vt 0.000085 0.000085
vn 0.5069 0.6775 -0.5329
vn 0.6484 0.7594 0.0535
vn 0.4267 0.8989 0.0991
vn 0.2801 0.8140 -0.5089
usemtl Material.519
s off
f 424/416/173 421/417/173 419/418/173 423/419/173
f 422/420/174 417/421/174 421/417/174 424/416/174
f 416/422/175 422/420/175 424/416/175 420/423/175
f 420/423/176 424/416/176 423/419/176 418/424/176
