# Blender v3.2.0 OBJ File: 'trees.blend'
# www.blender.org
mtllib Spruce Small 2 Trunk.mtl
o Cylinder.075_Cylinder.078
v 0.057194 -0.301877 -0.277896
v 0.214134 -0.303945 0.021410
v -0.024438 -0.285750 0.237437
v -0.318172 -0.285694 0.153102
v -0.319155 -0.301616 -0.206632
v -0.000000 8.000000 0.000000
v -0.034657 -0.096867 -0.210731
v 0.165880 -0.127230 -0.015335
v 0.018205 -0.057522 0.177158
v -0.286292 -0.128261 0.138591
v -0.250906 -0.047349 -0.111908
v -0.043512 0.081151 -0.167287
v 0.099075 0.125659 -0.055623
v 0.042981 0.120956 0.123546
v -0.144778 0.085578 0.121953
v -0.215767 0.070311 -0.063966
vt 0.600000 0.875000
vt 0.400000 1.000000
vt 0.400000 0.875000
vt 0.200000 1.000000
vt 0.200000 0.875000
vt 0.800000 1.000000
vt 0.800000 0.875000
vt 1.000000 0.875000
vt 0.600000 1.000000
vt 0.200000 0.500000
vt 0.200000 0.750000
vt 0.000000 0.750000
vt 0.000000 0.500000
vt 0.400000 0.500000
vt 0.400000 0.750000
vt 0.600000 0.500000
vt 0.600000 0.750000
vt 0.800000 0.500000
vt 0.800000 0.750000
vt 1.000000 0.500000
vt 1.000000 0.750000
vt 0.000000 0.875000
vt 0.000000 1.000000
vn -0.0114 0.0156 0.9998
vn -0.9346 0.0226 0.3550
vn 0.6139 0.0133 -0.7892
vn 0.9542 0.0099 0.2990
vn -0.2378 0.3120 -0.9198
vn -0.9700 0.2415 -0.0290
vn -0.2216 0.2267 0.9484
vn 0.7341 0.1678 0.6580
vn 0.7758 0.3277 -0.5391
vn -0.4162 0.3021 -0.8576
vn -0.8792 0.4553 0.1402
vn -0.1277 0.2270 0.9655
vn 0.8752 0.1828 0.4479
vn 0.6592 0.1212 -0.7422
vn -0.5152 0.0209 -0.8568
usemtl None
s off
f 14/1/1 6/2/1 15/3/1
f 15/3/2 6/4/2 16/5/2
f 6/6/3 13/7/3 12/8/3
f 13/7/4 6/9/4 14/1/4
f 5/10/5 11/11/5 7/12/5 1/13/5
f 4/14/6 10/15/6 11/11/6 5/10/6
f 3/16/7 9/17/7 10/15/7 4/14/7
f 2/18/8 8/19/8 9/17/8 3/16/8
f 1/20/9 7/21/9 8/19/9 2/18/9
f 11/11/10 16/5/10 12/22/10 7/12/10
f 10/15/11 15/3/11 16/5/11 11/11/11
f 9/17/12 14/1/12 15/3/12 10/15/12
f 8/19/13 13/7/13 14/1/13 9/17/13
f 7/21/14 12/8/14 13/7/14 8/19/14
f 16/5/15 6/23/15 12/22/15
