# Blender v3.2.0 OBJ File: 'trees.blend'
# www.blender.org
mtllib Stump 3.mtl
o Cylinder.079_Cylinder.077
v 0.340017 -0.113982 -0.482515
v 0.492387 -0.210601 0.148720
v -0.043249 -0.178827 0.627971
v -0.761874 -0.309010 0.236959
v -0.426587 -0.176617 -0.493690
v 0.364992 1.396469 -0.187739
v -0.406163 0.858580 -0.194735
v 0.164045 1.525065 -0.127596
v 0.139088 1.555576 0.384427
v -0.395847 1.632062 0.381871
v -0.436097 -0.586856 -0.813037
v 0.584736 -0.679086 -0.641080
v 0.688765 -0.593540 0.451569
v -0.892879 -0.632823 -0.071221
v -0.317043 -0.709326 0.790248
v -0.316589 1.597373 -0.060478
v -0.077066 1.492527 0.422082
v -0.023873 1.618310 -0.272657
vt 0.200000 0.500000
vt 0.200000 0.750000
vt 0.000000 0.500000
vt 0.400000 0.500000
vt 0.800000 0.500000
vt 0.800000 0.750000
vt 0.600000 0.500000
vt 1.039066 0.543930
vt 0.502869 0.875000
vt 0.400000 0.875000
vt 0.600000 0.875000
vt 0.700000 0.500000
vt 0.900000 0.500000
vt 0.500000 0.500000
vt 0.100000 0.500000
vt 1.000000 0.500000
vt 0.300000 0.500000
vt 1.000000 0.500000
vt 0.000000 0.000000
vt 0.000000 0.000000
vt 0.000000 0.000000
vt 0.000000 0.000000
vt 0.000000 0.000000
vt 0.891160 0.875000
vt 0.296831 0.782355
vt 0.573038 0.875000
vt 0.800000 0.875000
vn -0.0087 0.2776 -0.9607
vn -0.9098 0.1316 -0.3936
vn 0.6595 0.2038 0.7236
vn 0.9727 0.0289 -0.2304
vn -0.4892 0.0969 0.8668
vn -0.9485 0.1974 -0.2478
vn 0.1351 0.1238 0.9831
vn 0.9250 -0.0442 0.3775
vn -0.1450 -0.0464 0.9883
vn 0.9182 0.3783 -0.1170
vn 0.3026 0.1326 0.9439
vn -0.0387 0.6144 -0.7881
vn 0.5115 0.6789 0.5267
vn 0.8913 0.4280 -0.1496
vn -0.7849 0.5632 -0.2581
vn -0.8255 -0.1763 0.5361
vn 0.1860 0.3393 -0.9221
vn -0.7973 0.3822 -0.4672
vn -0.4854 0.4750 0.7340
vn -0.0353 0.9972 0.0662
vn 0.1355 -0.9887 0.0645
vn -0.0208 -0.9970 -0.0746
vn -0.0780 -0.9945 -0.0702
vn -0.5834 0.2132 -0.7837
vn -0.2164 0.9262 0.3087
vn 0.1868 0.9185 0.3484
vn -0.9708 0.1515 -0.1858
vn 0.4010 0.9161 0.0000
vn 0.1415 0.9886 -0.0520
vn 0.5110 0.8520 -0.1143
vn 0.3056 0.1775 -0.9355
vn -0.2989 0.0527 -0.9528
vn 0.5337 0.8453 -0.0244
usemtl None
s off
f 5/1/1 7/2/1 1/3/1
f 4/4/2 7/2/2 5/1/2
f 2/5/3 6/6/3 3/7/3
f 1/8/4 6/6/4 2/5/4
f 4/4/5 3/7/5 17/9/5
f 4/4/6 10/10/6 7/2/6
f 3/7/7 9/11/7 17/9/7
f 6/6/8 9/11/8 3/7/8
f 10/10/9 4/4/9 17/9/9
f 13/12/10 12/13/10 2/5/10
f 3/7/11 15/14/11 13/12/11
f 5/1/12 1/3/12 11/15/12
f 2/5/13 3/7/13 13/12/13
f 1/16/14 2/5/14 12/13/14
f 4/4/15 5/1/15 14/17/15
f 14/17/16 15/14/16 4/4/16
f 1/3/17 12/13/17 11/15/17
f 5/1/18 11/15/18 14/17/18
f 3/7/19 4/4/19 15/14/19
f 2/5/20 12/13/20 1/16/20 11/18/20 5/1/20 14/17/20 4/4/20 15/14/20 3/7/20 13/12/20
f 12/19/21 13/20/21 15/21/21
f 14/22/22 11/23/22 15/21/22
f 11/23/23 12/19/23 15/21/23
f 18/24/24 7/25/24 16/26/24
f 17/9/25 9/11/25 16/26/25
f 18/24/26 16/26/26 8/27/26
f 7/25/27 10/10/27 16/26/27
f 10/10/28 17/9/28 16/26/28
f 8/27/29 16/26/29 9/11/29
f 8/27/30 6/6/30 18/24/30
f 6/6/31 1/8/31 18/24/31
f 18/24/32 1/8/32 7/25/32
f 9/11/33 6/6/33 8/27/33
