# Blender v3.2.0 OBJ File: 'trees.blend'
# www.blender.org
mtllib Stump 1.mtl
o Cylinder.077_Cylinder.075
v 0.313811 -0.190340 -0.536292
v 0.492387 -0.210601 0.148720
v -0.065648 -0.159291 0.559110
v -0.761874 -0.309010 0.236959
v -0.476654 -0.183720 -0.510292
v -0.013744 0.081736 -0.540422
v 0.356124 0.127072 -0.167369
v 0.218613 0.083996 0.411254
v -0.445142 0.009994 0.433653
v -0.501448 0.112003 -0.182640
v -0.151263 0.446252 -0.425189
v 0.261022 0.241676 -0.106933
v 0.236065 0.272187 0.405090
v -0.201735 0.330872 0.426393
v -0.417895 0.586567 -0.114557
v -0.398846 -0.663750 -0.888718
v 0.584736 -0.679086 -0.641080
v 0.712108 -0.715486 0.543525
v -1.093726 -0.676692 -0.014988
v -0.335455 -0.709239 0.844864
v -0.191078 0.303200 -0.033054
v 0.019911 0.209139 0.442745
v 0.073104 0.334922 -0.251993
vt 0.200000 0.500000
vt 0.000000 0.750000
vt 0.000000 0.500000
vt 0.400000 0.500000
vt 0.200000 0.750000
vt 0.800000 0.500000
vt 0.600000 0.750000
vt 0.600000 0.500000
vt 1.000000 0.500000
vt 1.000000 0.750000
vt 0.800000 0.750000
vt 0.400000 0.750000
vt 0.502869 0.875000
vt 0.200000 0.875000
vt 0.600000 0.875000
vt 0.400000 0.875000
vt 0.700000 0.500000
vt 0.900000 0.500000
vt 0.500000 0.500000
vt 0.100000 0.500000
vt 0.300000 0.500000
vt 1.000000 0.500000
vt 0.000000 0.000000
vt 0.000000 0.000000
vt 0.000000 0.000000
vt 0.000000 0.000000
vt 0.000000 0.000000
vt 1.000000 0.875000
vt 0.573038 0.875000
vt 0.891160 0.875000
vt 0.800000 0.875000
vn -0.0333 -0.0552 -0.9979
vn -0.9155 0.2618 -0.3055
vn 0.5717 -0.1817 0.8001
vn 0.5200 0.6171 -0.5906
vn 0.0517 -0.1657 0.9848
vn -0.9810 0.1561 0.1155
vn 0.1668 0.0168 0.9858
vn 0.9709 -0.0827 0.2246
vn -0.0432 0.0553 0.9975
vn 0.9371 0.3371 -0.0904
vn 0.2618 0.3408 0.9030
vn -0.0207 0.6169 -0.7868
vn 0.4835 0.6600 0.5750
vn 0.8372 0.5077 -0.2032
vn -0.6847 0.7149 -0.1415
vn -0.7290 0.2119 0.6509
vn 0.2355 0.3268 -0.9153
vn -0.7386 0.3394 -0.5824
vn -0.4422 0.5747 0.6886
vn -0.0222 0.9992 0.0340
vn -0.0144 -0.9995 -0.0292
vn -0.0137 -0.9996 -0.0257
vn -0.0091 -0.9996 -0.0259
vn 0.5026 0.7945 0.3409
vn -0.2228 0.9328 0.2832
vn 0.1826 0.9175 0.3533
vn 0.7833 0.6214 -0.0193
vn 0.4833 0.8745 -0.0415
vn 0.1262 0.9906 -0.0529
vn 0.6201 0.7007 -0.3529
vn 0.5727 0.5228 -0.6314
vn 0.6752 0.4415 -0.5909
vn -0.7763 -0.0959 -0.6230
vn -0.5691 0.2141 -0.7939
vn -0.0327 0.5467 0.8367
vn -0.3806 -0.1812 0.9068
vn 0.9568 0.1570 -0.2448
vn -0.6758 0.5244 0.5179
vn -0.7504 0.6377 0.1741
vn 0.7694 0.6388 -0.0006
vn 0.8070 0.5430 0.2322
vn -0.4183 0.6583 -0.6258
usemtl None
s off
f 5/1/1 6/2/1 1/3/1
f 4/4/2 10/5/2 5/1/2
f 2/6/3 8/7/3 3/8/3
f 1/9/4 6/10/4 7/11/4
f 9/12/5 8/7/5 22/13/5
f 9/12/6 15/14/6 10/5/6
f 8/7/7 13/15/7 22/13/7
f 7/11/8 13/15/8 8/7/8
f 14/16/9 9/12/9 22/13/9
f 18/17/10 17/18/10 2/6/10
f 3/8/11 20/19/11 18/17/11
f 5/1/12 1/3/12 16/20/12
f 2/6/13 3/8/13 18/17/13
f 1/9/14 2/6/14 17/18/14
f 4/4/15 5/1/15 19/21/15
f 19/21/16 20/19/16 4/4/16
f 1/3/17 17/18/17 16/20/17
f 5/1/18 16/20/18 19/21/18
f 3/8/19 4/4/19 20/19/19
f 2/6/20 17/18/20 1/9/20 16/22/20 5/1/20 19/21/20 4/4/20 20/19/20 3/8/20 18/17/20
f 17/23/21 18/24/21 20/25/21
f 19/26/22 16/27/22 20/25/22
f 16/27/23 17/23/23 20/25/23
f 11/28/24 15/14/24 21/29/24 23/30/24
f 22/13/25 13/15/25 21/29/25
f 23/30/26 21/29/26 12/31/26
f 15/14/27 14/16/27 21/29/27
f 14/16/28 22/13/28 21/29/28
f 12/31/29 21/29/29 13/15/29
f 12/31/30 7/11/30 23/30/30
f 7/11/31 6/10/31 23/30/31
f 11/28/32 23/30/32 6/10/32
f 11/28/33 6/10/33 15/14/33
f 15/14/34 6/10/34 10/5/34
f 3/8/35 8/7/35 9/12/35
f 4/4/36 3/8/36 9/12/36
f 7/11/37 2/6/37 1/9/37
f 15/14/38 9/12/38 14/16/38
f 10/5/39 4/4/39 9/12/39
f 13/15/40 7/11/40 12/31/40
f 8/7/41 2/6/41 7/11/41
f 6/2/42 5/1/42 10/5/42
