# Blender v3.2.0 OBJ File: 'trees.blend'
# www.blender.org
mtllib Stump 2.mtl
o Cylinder.078_Cylinder.076
v 0.252222 -0.138174 -0.466780
v 0.492387 -0.210601 0.148720
v 0.020162 -0.180123 0.488378
v -0.641742 -0.270839 0.189520
v -0.367129 -0.170780 -0.425284
v 0.020793 0.768428 -0.481874
v 0.356124 0.715143 -0.167369
v 0.218613 0.672067 0.411254
v -0.360679 0.586519 0.361909
v -0.343978 0.938268 -0.129091
v -0.398846 -0.663750 -0.888718
v 0.584736 -0.679086 -0.641080
v 0.712108 -0.715486 0.543525
v -1.093726 -0.676692 -0.014988
v -0.335455 -0.709239 0.844864
v -0.183015 0.745846 -0.065109
v 0.019911 0.797210 0.442745
vt 0.200000 0.500000
vt 0.000000 0.750000
vt 0.000000 0.500000
vt 0.400000 0.500000
vt 0.400000 0.750000
vt 0.800000 0.500000
vt 0.600000 0.750000
vt 0.600000 0.500000
vt 1.000000 0.500000
vt 1.000000 0.750000
vt 0.800000 0.750000
vt 0.502869 0.875000
vt 0.200000 0.875000
vt 0.700000 0.500000
vt 0.900000 0.500000
vt 0.500000 0.500000
vt 0.100000 0.500000
vt 0.300000 0.500000
vt 1.000000 0.500000
vt 0.000000 0.000000
vt 0.000000 0.000000
vt 0.000000 0.000000
vt 0.000000 0.000000
vt 0.000000 0.000000
vt 0.573038 0.875000
vn -0.0651 -0.0332 -0.9973
vn -0.8742 0.3535 -0.3329
vn 0.5802 -0.0616 0.8122
vn 0.6886 0.1640 -0.7064
vn -0.0371 -0.2989 0.9536
vn -0.4991 0.7124 0.4934
vn 0.9371 0.3371 -0.0904
vn 0.2535 0.4175 0.8726
vn -0.0845 0.6854 -0.7233
vn 0.4653 0.6620 0.5876
vn 0.7899 0.5635 -0.2419
vn -0.6212 0.7687 -0.1524
vn -0.6661 0.4375 0.6040
vn 0.2275 0.4225 -0.8773
vn -0.6659 0.5333 -0.5217
vn -0.3776 0.6784 0.6303
vn -0.0132 0.9984 0.0548
vn -0.0144 -0.9995 -0.0292
vn -0.0137 -0.9996 -0.0257
vn -0.0091 -0.9996 -0.0259
vn 0.6549 0.6664 0.3564
vn 0.4805 0.8324 -0.2762
vn 0.0736 0.9932 0.0898
vn 0.7709 0.5248 -0.3611
vn 0.0739 0.9931 0.0915
vn -0.6260 0.2134 -0.7500
vn -0.1009 0.1129 0.9885
vn -0.4052 -0.0507 0.9128
vn 0.9449 0.2214 0.2410
vn 0.9320 0.0136 -0.3621
vn -0.9996 0.0251 -0.0160
usemtl None
s off
f 5/1/1 6/2/1 1/3/1
f 4/4/2 9/5/2 5/1/2
f 2/6/3 8/7/3 3/8/3
f 1/9/4 6/10/4 7/11/4
f 9/5/5 8/7/5 17/12/5
f 9/5/6 17/12/6 10/13/6
f 13/14/7 12/15/7 2/6/7
f 3/8/8 15/16/8 13/14/8
f 5/1/9 1/3/9 11/17/9
f 2/6/10 3/8/10 13/14/10
f 1/9/11 2/6/11 12/15/11
f 4/4/12 5/1/12 14/18/12
f 14/18/13 15/16/13 4/4/13
f 1/3/14 12/15/14 11/17/14
f 5/1/15 11/17/15 14/18/15
f 3/8/16 4/4/16 15/16/16
f 2/6/17 12/15/17 1/9/17 11/19/17 5/1/17 14/18/17 4/4/17 15/16/17 3/8/17 13/14/17
f 12/20/18 13/21/18 15/22/18
f 14/23/19 11/24/19 15/22/19
f 11/24/20 12/20/20 15/22/20
f 6/10/21 10/13/21 16/25/21
f 17/12/22 8/7/22 16/25/22
f 6/10/23 16/25/23 7/11/23
f 10/13/24 17/12/24 16/25/24
f 7/11/25 16/25/25 8/7/25
f 10/13/26 6/10/26 5/1/26
f 3/8/27 8/7/27 9/5/27
f 4/4/28 3/8/28 9/5/28
f 8/7/29 2/6/29 7/11/29
f 7/11/30 2/6/30 1/9/30
f 10/13/31 5/1/31 9/5/31
