# Blender 3.2.0
# www.blender.org
mtllib Rock Flat Large 1.mtl
o Rock Flat Large 1
v -0.658536 0.168968 -0.110823
v -0.488212 0.543559 0.618430
v -0.785575 0.578556 0.312316
v -0.363208 0.511530 -0.269339
v 0.065478 0.658498 -0.382235
v 0.397197 0.623693 -0.040371
v 0.371622 0.118648 -0.740956
v 0.062404 0.127727 0.625164
v -0.028228 0.000000 -0.656508
v -0.414552 0.000000 0.687765
v -0.725975 0.000000 -0.110602
v 0.578550 0.000032 -0.625852
v 0.374103 0.000000 -0.779655
v 0.058392 0.000000 0.596640
v 0.434008 0.004942 0.437908
v 0.583532 -0.000207 0.192566
v 0.523970 0.201264 0.218900
vn 0.5799 0.2636 -0.7709
vn 0.8413 0.1822 0.5089
vn -0.8731 0.3489 0.3406
vn -0.6167 0.1767 -0.7671
vn 0.4853 0.8739 0.0281
vn 0.4611 0.5597 0.6886
vn -0.8762 -0.4500 0.1725
vn -0.2921 0.1233 -0.9484
vn -0.7177 -0.0084 0.6963
vn -0.7325 0.3659 -0.5741
vn 0.5832 0.6397 -0.5007
vn -0.0047 0.9937 0.1116
vn -0.3878 0.8405 -0.3785
vn -0.3082 0.4375 -0.8447
vn 0.0924 0.1383 0.9861
vn 0.3827 -0.2128 0.8990
vn 0.9587 0.2842 -0.0058
vn -0.2799 0.2924 -0.9144
vn 0.1846 -0.2197 0.9579
vn -0.5985 0.2379 -0.7650
vn 0.4987 0.6693 0.5508
vn 0.0007 -1.0000 0.0010
vt 0.549348 0.593780
vt 0.765885 0.139424
vt 0.205127 0.894119
vt 0.422490 0.838332
vt 0.360328 0.876562
vt 0.404773 0.849372
vt 0.904338 0.000000
vt 0.427888 0.689832
vt 0.566788 0.000000
vt 0.676834 0.583164
vt 0.822730 1.000000
vt 0.422490 0.208370
vt 0.904338 0.229549
vt 0.702469 0.887470
vt 0.424515 0.355715
vt 0.205127 0.537243
vt 0.574472 0.428700
vt 0.611894 0.896185
vt 0.831565 0.558993
vt 0.330516 0.641036
vt 0.360328 0.637849
vt 0.752810 0.433607
vt 0.000000 0.195239
vt 0.611894 0.879092
vt 0.205127 0.763001
vt 0.391841 0.494210
vt 0.611894 0.583164
vt 0.702469 0.131674
vt 0.089864 0.494210
vt 0.819780 0.610134
vt 0.676834 0.958036
vt 0.822730 0.610134
vt 0.430111 0.583164
vt 0.087753 0.000000
vt 0.790636 0.575094
vt 0.011094 0.047387
vt 0.291472 0.617065
vt 0.422490 0.327278
vt 0.007958 0.566525
vt 0.360328 0.494210
vt 0.404773 0.494210
vt 0.415961 0.184199
vt 0.000000 0.494210
vt 0.702469 0.491628
vt 0.357172 0.102904
vt 0.073965 0.515141
vt 0.698385 0.459987
s 0
usemtl Material
f 7/19/1 12/30/1 13/35/1
f 16/43/2 17/46/2 15/39/2
f 10/24/3 1/1/3 11/27/3
f 9/22/4 1/2/4 4/13/4
f 4/10/5 12/31/5 7/18/5
f 15/39/6 17/46/6 6/16/6 2/3/6
f 1/1/7 10/24/7 3/8/7
f 12/32/8 4/11/8 5/14/8
f 10/24/9 2/4/9 3/8/9
f 1/2/10 3/7/10 4/13/10
f 12/33/11 5/15/11 6/17/11
f 3/8/12 2/4/12 6/16/12 5/15/12
f 4/12/13 3/9/13 5/15/13
f 9/22/14 4/13/14 7/19/14
f 10/25/15 8/20/15 2/5/15
f 15/40/16 8/20/16 14/37/16
f 17/47/17 16/44/17 12/33/17 6/17/17
f 9/22/18 7/19/18 13/35/18
f 8/20/19 10/25/19 14/37/19
f 1/2/20 9/22/20 11/28/20
f 8/21/21 15/41/21 2/6/21
f 14/38/22 10/26/22 11/29/22 9/23/22 13/36/22 12/34/22 16/45/22 15/42/22
