# Blender 3.2.0
# www.blender.org
mtllib Rock Huge 2.mtl
o Rock Huge 2
v -0.055541 -0.654440 0.032761
v -0.867961 -0.445133 -0.163032
v -0.330348 -0.441705 -0.834840
v 0.716392 -0.367839 -0.345790
v 0.541106 -0.356933 0.667886
v -0.854505 0.442840 0.181515
v 0.700948 0.447991 0.204498
v 0.026088 0.436602 1.149305
v -0.301056 -0.576393 0.626958
v -0.775699 -0.527159 0.369375
v 0.183839 -0.526341 0.728613
v -0.096514 -0.651853 -0.488023
v -0.642116 -0.521680 -0.529624
v 0.386014 -0.579497 -0.696526
v 0.681289 -0.413731 0.226329
v -0.298422 -0.012532 1.273232
v 0.372648 0.084765 1.131792
v -0.948108 0.000939 0.039472
v -0.795744 -0.003476 0.701045
v -0.556662 0.049253 -1.159556
v -0.833933 -0.208616 -0.471119
v 0.603139 0.028745 -0.984367
v 0.150576 0.049506 -1.307578
v 0.821452 -0.015793 0.054514
v -0.482138 0.533645 0.979913
v -0.900111 0.436801 -0.281617
v -0.164321 0.522133 -1.206062
v 0.704392 0.497232 -0.282061
v 0.424091 0.493841 0.693459
v -0.764392 0.239043 -0.749811
v -0.106783 0.719164 0.573359
v -0.383738 0.788969 -0.340675
v 0.231521 0.788396 -0.399049
v 0.258852 -0.279178 -1.134120
vn -0.2446 -0.9693 0.0263
vn -0.2330 -0.9724 0.0135
vn 0.1415 -0.9898 -0.0160
vn 0.2884 -0.9545 0.0765
vn -0.9637 -0.2327 0.1311
vn -0.4565 -0.6276 -0.6307
vn 0.7649 -0.4776 -0.4323
vn 0.9286 -0.1893 0.3192
vn -0.9791 -0.0940 -0.1803
vn -0.1643 -0.5957 -0.7862
vn 0.9766 -0.0554 -0.2076
vn 0.9197 -0.0573 0.3885
vn 0.6631 0.5507 -0.5070
vn 0.3277 0.9397 0.0974
vn 0.2922 0.8835 0.3661
vn 0.3478 0.9188 0.1864
vn 0.4926 0.8581 0.1445
vn 0.5298 0.6343 -0.5630
vn 0.0079 0.9972 0.0738
vn -0.0277 0.9532 -0.3009
vn -0.5519 0.7472 -0.3703
vn -0.4291 0.8814 0.1973
vn -0.5594 0.8277 0.0443
vn -0.3785 0.9228 0.0716
vn 0.0267 0.8999 0.4353
vn 0.5916 0.5536 0.5861
vn 0.8993 0.2621 0.3502
vn 0.8709 0.0689 0.4866
vn 0.9698 0.2418 0.0313
vn 0.9754 0.0906 -0.2011
vn 0.4221 0.7249 -0.5444
vn -0.2043 0.0735 -0.9761
vn -0.6371 0.6264 -0.4492
vn -0.9785 -0.0410 -0.2020
vn -0.9797 0.1772 0.0942
vn -0.8728 0.3170 0.3710
vn -0.7503 0.0987 0.6537
vn -0.2191 0.4034 0.8884
vn 0.9470 -0.3195 0.0325
vn 0.6796 -0.4977 -0.5390
vn -0.2698 -0.5174 -0.8121
vn -0.9624 -0.0191 -0.2709
vn -0.7902 -0.3969 -0.4669
vn -0.8095 -0.4191 -0.4112
vn -0.9657 0.1328 0.2233
vn -0.9595 -0.1759 0.2198
vn -0.6935 -0.4042 0.5964
vn 0.1857 0.1344 0.9734
vn 0.2455 -0.6560 0.7137
vn 0.4493 -0.8569 0.2529
vn 0.2936 -0.9528 0.0772
vn 0.5628 -0.8260 -0.0317
vn -0.0758 -0.8746 -0.4789
vn -0.1806 -0.8904 -0.4178
vn 0.3674 -0.4919 0.7894
vn -0.0600 -0.7520 0.6564
vn 0.0686 -0.9851 0.1577
vn -0.4167 -0.9065 -0.0674
vn -0.0925 -0.9955 -0.0198
vn -0.3992 -0.6901 0.6037
vn -0.9063 -0.1127 -0.4073
vn -0.6618 0.4936 -0.5642
vn 0.5575 -0.2363 -0.7958
vn -0.0526 -0.8304 -0.5546
vt 0.181819 0.000000
vt 0.909091 0.000000
vt 0.727273 0.000000
vt 0.545455 0.000000
vt 0.363637 0.000000
vt 1.000000 0.157461
vt 0.090910 0.157461
vt 0.818182 0.157461
vt 0.636364 0.157461
vt 0.454546 0.157461
vt 0.181819 0.314921
vt 0.545455 0.314921
vt 0.363637 0.314921
vt 0.318182 0.078731
vt 0.227273 0.078731
vt 0.181819 0.157461
vt 0.500000 0.078731
vt 0.409092 0.078731
vt 0.772727 0.078731
vt 0.863636 0.078731
vt 0.909091 0.157461
vt 0.072486 0.075798
vt 0.654262 0.064298
vt 0.727273 0.157461
vt 0.545455 0.157461
vt 0.318183 0.236191
vt 0.409092 0.236191
vt 0.136365 0.236191
vt 0.227273 0.236191
vt 0.863636 0.236191
vt 0.045455 0.236191
vt 0.954545 0.236191
vt 0.681818 0.236191
vt 0.772727 0.236191
vt 0.590909 0.236191
vt 0.272728 0.314921
vt 0.090910 0.314921
vt 0.973612 0.352173
vt 0.818182 0.314921
vt 0.636364 0.314921
vt 0.511301 0.397904
vt 0.454546 0.314921
vt 0.918624 0.294182
vt 0.409092 0.393651
vt 0.562817 0.490512
vt 0.818182 0.550375
vt 0.164458 0.490512
vt 0.318182 0.393651
vt 0.863636 0.393651
vt 0.045455 0.393651
vt 0.681818 0.393651
vt 0.772727 0.393651
vt 0.751823 0.199984
s 0
f 1/1/1 9/15/1 13/22/1
f 1/2/2 13/21/2 12/20/2
f 1/3/3 12/19/3 14/24/3
f 1/4/4 14/23/4 11/17/4
f 2/7/5 10/16/5 18/28/5
f 3/8/6 13/21/6 20/30/6
f 4/9/7 14/24/7 22/33/7
f 5/10/8 15/25/8 24/35/8
f 2/7/9 18/28/9 21/31/9
f 3/8/10 20/30/10 23/34/10
f 4/9/11 22/33/11 24/35/11
f 5/10/12 24/35/12 17/27/12
f 23/34/13 27/39/13 33/52/13
f 7/12/14 28/40/14 29/41/14
f 8/13/15 29/42/15 31/44/15
f 29/41/16 33/51/16 31/45/16
f 29/41/17 28/40/17 33/51/17
f 28/40/18 23/34/18 33/51/18
f 33/52/19 32/49/19 31/46/19
f 33/52/20 27/39/20 32/49/20
f 27/39/21 26/38/21 32/49/21
f 32/50/22 6/11/22 31/47/22
f 32/50/23 26/37/23 6/11/23
f 6/11/24 25/36/24 31/48/24
f 25/36/25 8/13/25 31/48/25
f 17/27/26 29/42/26 8/13/26
f 17/27/27 24/35/27 29/42/27
f 24/35/28 7/12/28 29/42/28
f 24/35/29 28/40/29 7/12/29
f 24/35/30 22/33/30 28/40/30
f 22/33/31 23/34/31 28/40/31
f 23/34/32 20/30/32 27/39/32
f 30/43/33 26/38/33 27/39/33
f 21/31/34 18/28/34 26/37/34
f 18/28/35 6/11/35 26/37/35
f 19/29/36 25/36/36 6/11/36
f 19/29/37 16/26/37 25/36/37
f 16/26/38 8/13/38 25/36/38
f 15/25/39 4/9/39 24/35/39
f 22/33/40 14/24/40 34/53/40
f 3/8/41 23/34/41 34/53/41
f 21/32/42 26/38/42 30/43/42
f 20/30/43 13/21/43 21/32/43
f 13/21/44 2/6/44 21/32/44
f 18/28/45 19/29/45 6/11/45
f 18/28/46 10/16/46 19/29/46
f 10/16/47 16/26/47 19/29/47
f 16/26/48 17/27/48 8/13/48
f 16/26/49 5/10/49 17/27/49
f 11/17/50 15/25/50 5/10/50
f 11/17/51 14/23/51 15/25/51
f 14/23/52 4/9/52 15/25/52
f 12/19/53 3/8/53 14/24/53
f 12/20/54 13/21/54 3/8/54
f 16/26/55 11/18/55 5/10/55
f 16/26/56 9/14/56 11/18/56
f 9/14/57 1/5/57 11/18/57
f 13/22/58 10/16/58 2/7/58
f 13/22/59 9/15/59 10/16/59
f 9/15/60 16/26/60 10/16/60
f 20/30/61 21/32/61 30/43/61
f 20/30/62 30/43/62 27/39/62
f 23/34/63 22/33/63 34/53/63
f 14/24/64 3/8/64 34/53/64
