# Blender 3.2.0
# www.blender.org
mtllib Rock Huge 3.mtl
o Rock Huge 3
v -0.175608 -1.002214 -0.002810
v 0.994575 -0.586565 0.697388
v -0.334655 -0.618701 1.010751
v -1.164229 -0.475516 -0.074291
v -0.396220 -0.565439 -0.938807
v 1.027545 -0.635066 -0.746547
v 0.228019 0.303210 1.137879
v -1.045223 0.576426 -0.177917
v 0.099923 0.621736 -1.067944
v 1.210645 0.516244 -0.049231
v -0.331077 -0.861943 0.679426
v 0.795031 -0.800324 0.332019
v 0.431436 -0.663322 0.958735
v 0.599285 -0.963051 -0.438380
v -0.872185 -0.586422 0.543067
v -0.901888 -0.503236 -0.500766
v 0.386722 -0.642622 -1.106337
v 1.272676 0.046888 0.547939
v 1.225961 -0.028555 -0.464397
v 0.834817 -0.000930 1.151725
v -0.759017 0.050451 0.981905
v -0.503414 -0.099767 -1.110945
v -1.198409 0.173294 0.035723
v 0.834674 0.000000 -1.148829
v 0.610747 0.671116 0.673829
v -0.336415 0.144448 1.256042
v -0.511058 0.739310 -0.864990
v 0.976516 0.732139 -0.703868
v 0.798738 0.990464 -0.062063
v -0.818006 0.480006 0.774185
v -0.556062 0.835723 -0.390421
v 0.239660 0.990371 -0.185732
vn 0.1228 -0.9662 0.2266
vn -0.1697 -0.9078 -0.3836
vn 0.8725 -0.4354 -0.2218
vn 0.0468 -0.3056 0.9510
vn -0.9061 -0.1178 0.4063
vn -0.6293 -0.3928 -0.6706
vn 0.4577 -0.3724 -0.8074
vn 0.7982 -0.2179 0.5616
vn -0.4813 -0.2692 0.8342
vn 0.8660 -0.0520 -0.4973
vn -0.5653 0.2949 0.7704
vn -0.3961 0.8993 0.1856
vn 0.0468 0.9190 -0.3914
vn 0.7546 0.6540 -0.0542
vn 0.0781 0.9321 -0.3536
vn -0.1343 0.9685 -0.2095
vn -0.5291 0.8204 -0.2168
vn -0.2429 0.9416 0.2330
vn -0.0929 0.9196 0.3817
vn -0.0625 0.7886 0.6117
vn -0.1146 0.8223 0.5574
vn 0.6751 0.5981 0.4320
vn 0.9385 0.2255 -0.2613
vn 0.8632 0.1294 -0.4881
vn 0.2922 0.4547 -0.8413
vn -0.2564 0.2697 -0.9282
vn -0.7973 0.1631 -0.5812
vn -0.8537 0.4569 0.2500
vn -0.8996 0.0837 0.4286
vn 0.2926 0.6170 0.7305
vn 0.6397 0.5756 0.5095
vn 0.6640 0.6198 0.4182
vn -0.0348 0.0884 -0.9955
vn -0.0246 -0.0489 -0.9985
vn -0.2292 -0.3835 -0.8946
vn -0.8496 0.0443 -0.5255
vn -0.6234 -0.3655 0.6912
vn 0.1198 0.2824 0.9518
vn 0.4222 -0.4810 0.7684
vn 0.9965 0.0669 -0.0510
vn 0.8715 -0.4904 -0.0037
vn 0.9194 -0.3668 0.1420
vn 0.2829 -0.8266 -0.4866
vn -0.1712 -0.9085 -0.3813
vn -0.3805 -0.8691 -0.3159
vn -0.4465 -0.8677 -0.2183
vn -0.4729 -0.8787 0.0658
vn -0.4674 -0.8809 0.0746
vn -0.4886 -0.7058 0.5129
vn 0.6130 -0.7900 0.0111
vn 0.1444 -0.9749 0.1692
vn -0.0068 -0.8061 0.5917
vn 0.1409 -0.9470 0.2888
vn 0.2885 -0.8867 0.3612
vt 0.181819 0.000000
vt 0.545455 0.000000
vt 0.727273 0.000000
vt 0.909091 0.000000
vt 0.363637 0.000000
vt 0.272728 0.157461
vt 1.000000 0.157461
vt 0.090910 0.157461
vt 0.818182 0.157461
vt 0.636364 0.157461
vt 0.454546 0.157461
vt 0.181819 0.314921
vt 0.727273 0.314921
vt 0.545455 0.314921
vt 0.363637 0.314921
vt 0.954545 0.078731
vt 0.136365 0.078731
vt 0.318182 0.078731
vt 0.227273 0.078731
vt 0.181819 0.157461
vt 0.500000 0.078731
vt 0.409092 0.078731
vt 0.909091 0.157461
vt 0.727273 0.157461
vt 0.545455 0.157461
vt 0.318182 0.236191
vt 0.409092 0.236191
vt 0.227273 0.236191
vt 0.045455 0.236191
vt 0.954545 0.236191
vt 0.681818 0.236191
vt 0.772727 0.236191
vt 0.500000 0.236191
vt 0.204565 0.376711
vt 0.272728 0.314921
vt 0.090909 0.314921
vt 0.636364 0.314921
vt 0.454546 0.314921
vt 0.409092 0.393651
vt 0.318182 0.393651
vt 0.045455 0.393651
vt 0.863636 0.393652
vt 0.681818 0.393651
vt 0.772727 0.393651
vt 0.500000 0.393651
vt 0.590909 0.393651
vt 0.744634 0.490511
s 0
f 1/1/1 12/19/1 11/17/1
f 1/2/2 5/10/2 14/21/2
f 2/6/3 12/18/3 18/26/3
f 13/20/4 20/28/4 26/36/4 3/8/4
f 15/23/5 21/30/5 23/32/5 4/9/5
f 5/10/6 16/24/6 22/31/6
f 6/11/7 17/25/7 24/33/7
f 2/6/8 18/26/8 20/28/8
f 3/8/9 26/36/9 21/29/9
f 6/11/10 24/33/10 19/27/10
f 21/29/11 26/36/11 30/41/11
f 8/13/12 30/42/12 31/44/12
f 9/14/13 27/37/13 32/45/13 28/38/13
f 10/15/14 28/38/14 29/39/14
f 29/39/15 28/38/15 32/45/15
f 32/46/16 27/37/16 31/43/16
f 27/37/17 8/13/17 31/43/17
f 31/44/18 30/42/18 32/47/18
f 29/40/19 32/47/19 30/41/19 25/35/19
f 30/41/20 26/36/20 25/34/20
f 26/36/21 7/12/21 25/34/21
f 25/35/22 10/15/22 29/40/22
f 19/27/23 28/38/23 10/15/23
f 19/27/24 24/33/24 28/38/24
f 24/33/25 9/14/25 28/38/25
f 22/31/26 27/37/26 9/14/26
f 22/31/27 8/13/27 27/37/27
f 23/32/28 30/42/28 8/13/28
f 23/32/29 21/30/29 30/42/29
f 20/28/30 25/35/30 7/12/30
f 20/28/31 18/26/31 25/35/31
f 18/26/32 10/15/32 25/35/32
f 24/33/33 22/31/33 9/14/33
f 24/33/34 17/25/34 22/31/34
f 17/25/35 5/10/35 22/31/35
f 23/32/36 8/13/36 22/31/36 16/24/36 4/9/36
f 15/23/37 3/7/37 21/30/37
f 26/36/38 20/28/38 7/12/38
f 13/20/39 2/6/39 20/28/39
f 18/26/40 19/27/40 10/15/40
f 18/26/41 12/18/41 19/27/41
f 12/18/42 6/11/42 19/27/42
f 14/21/43 17/25/43 6/11/43
f 14/21/44 5/10/44 17/25/44
f 5/10/45 1/3/45 16/24/45
f 1/3/46 4/9/46 16/24/46
f 1/4/47 15/23/47 4/9/47
f 1/4/48 11/16/48 15/23/48
f 11/16/49 3/7/49 15/23/49
f 12/18/50 14/22/50 6/11/50
f 12/18/51 1/5/51 14/22/51
f 11/17/52 13/20/52 3/8/52
f 11/17/53 12/19/53 13/20/53
f 12/19/54 2/6/54 13/20/54
