# Blender 3.2.0
# www.blender.org
mtllib Rock Flat Large 4.mtl
o Rock Flat Large 4
v -0.224163 0.180525 -0.840802
v -0.201608 0.325051 -0.711215
v 0.178942 0.189124 -0.675604
v 0.129936 0.353288 -0.658479
v 0.500000 0.180525 0.000000
v 0.246510 0.400436 0.037334
v 0.127033 0.189816 0.654915
v -0.226421 0.180525 0.821103
v -0.360338 0.535298 0.766805
v -0.612042 0.152163 0.323992
v -0.704655 0.438081 0.255940
v -0.682376 0.187658 -0.077377
v -0.675796 0.363662 -0.183452
v -0.577716 0.180525 -0.694355
v -0.519081 0.308312 -0.679670
v -0.054764 0.646523 0.680327
vn 0.0627 0.6608 -0.7479
vn 0.9378 0.2984 -0.1773
vn 0.1912 0.2186 0.9569
vn -0.7915 -0.2110 0.5736
vn -0.9506 -0.3103 -0.0099
vn 0.6568 0.7538 0.0192
vn -0.9490 -0.1360 -0.2845
vn -0.1082 0.6730 -0.7317
vn 0.0124 -0.9999 -0.0047
vn -0.0921 0.9837 -0.1547
vn -0.3926 0.8856 -0.2481
vn 0.4397 0.8881 -0.1338
vn -0.9720 0.1468 0.1833
vn 0.8296 0.3042 0.4682
vn -0.7826 -0.1075 0.6132
vn 0.4200 0.1171 0.8999
vn 0.6057 0.7454 -0.2783
vn -0.0607 0.9873 -0.1470
vn -0.3683 0.2712 -0.8893
vn 0.3675 0.2043 -0.9073
vn -0.8908 0.4267 -0.1560
vt 0.750000 0.490000
vt 0.000000 0.500000
vt 1.000000 0.500000
vt 1.000000 1.000000
vt 0.000000 1.000000
vt 0.919706 0.419706
vt 0.875000 0.500000
vt 0.419706 0.419706
vt 0.875000 1.000000
vt 0.990000 0.250000
vt 0.750000 0.500000
vt 0.490000 0.250000
vt 0.750000 1.000000
vt 0.919706 0.080294
vt 0.625000 0.500000
vt 0.750000 0.010000
vt 0.500000 0.500000
vt 0.500000 1.000000
vt 0.250000 0.010000
vt 0.580294 0.080294
vt 0.375000 0.500000
vt 0.080294 0.080294
vt 0.375000 1.000000
vt 0.510000 0.250000
vt 0.250000 0.500000
vt 0.250000 1.000000
vt 0.580294 0.419706
vt 0.125000 0.500000
vt 0.125000 1.000000
vt 0.325086 0.041102
vt 0.555306 1.000000
s 0
f 1/3/1 2/4/1 4/9/1
f 3/7/2 4/9/2 6/13/2
f 16/31/3 9/18/3 8/17/3
f 8/17/4 9/18/4 11/23/4
f 10/21/5 11/23/5 13/26/5
f 5/11/6 6/13/6 16/30/6
f 12/25/7 13/26/7 15/29/7
f 15/29/8 2/5/8 1/2/8
f 1/1/9 3/6/9 5/10/9 7/14/9 8/16/9 10/20/9 12/24/9 14/27/9
f 13/26/10 11/22/10 2/5/10 15/29/10
f 4/8/11 9/19/11 16/30/11
f 6/12/12 4/8/12 16/30/12
f 12/25/13 10/21/13 13/26/13
f 7/15/14 5/11/14 16/30/14
f 10/21/15 8/17/15 11/23/15
f 7/15/16 16/31/16 8/17/16
f 5/11/17 3/7/17 6/13/17
f 4/8/18 2/5/18 11/23/18 9/19/18
f 14/28/19 15/29/19 1/2/19
f 3/7/20 1/3/20 4/9/20
f 14/28/21 12/25/21 15/29/21
