# Blender 3.2.0
# www.blender.org
mtllib Rock Flat Large 2.mtl
o Rock Flat Large 2
v 0.636105 0.000000 0.473887
v -0.295511 0.000000 0.781172
v -0.767776 0.000000 -0.041703
v 0.414864 0.561363 0.245948
v 0.391014 0.681268 -0.392186
v 0.028779 0.736655 -0.226723
v -0.202552 0.000000 -0.524876
v -0.512220 0.106727 -0.360526
v 0.003660 0.478627 -0.616895
v 0.299979 0.000000 -0.669312
v -0.759328 0.354220 0.184711
v -0.446232 0.357288 0.719612
v -0.140086 0.663471 0.403121
v 0.727784 0.000000 -0.361928
v 0.653056 0.280199 -0.218815
vn 0.3985 0.3164 0.8608
vn -0.6497 0.7049 -0.2848
vn -0.0000 -1.0000 -0.0000
vn 0.8467 0.4031 -0.3472
vn 0.2792 0.4537 0.8463
vn 0.3200 0.5072 0.8002
vn -0.5286 -0.5815 -0.6184
vn 0.9246 0.3793 0.0367
vn 0.2251 0.9591 0.1718
vn 0.5321 0.4105 -0.7405
vn -0.8313 -0.2778 0.4815
vn -0.1205 0.8316 -0.5422
vn 0.7517 0.6048 0.2630
vn -0.4610 0.0281 -0.8869
vn -0.5078 0.8102 0.2926
vn 0.9729 0.2050 0.1067
vn 0.4259 0.1711 -0.8884
vn -0.4426 0.8966 -0.0145
vn -0.5657 0.7041 -0.4292
vn -0.2756 -0.0656 -0.9590
vn -0.6942 0.3993 -0.5988
vt 0.479797 0.138201
vt 0.992952 0.474101
vt 0.401048 0.602360
vt 0.473315 1.000000
vt 0.276044 0.602360
vt 0.479797 0.526802
vt 0.992952 0.088411
vt 0.975708 0.889426
vt 0.111633 0.602360
vt 0.975708 0.513591
vt 0.611984 0.518945
vt 0.302476 0.818765
vt 0.845272 0.444810
vt 0.401048 0.918525
vt 0.597278 0.513591
vt 0.473315 0.602360
vt 0.005135 0.765357
vt 0.611404 0.363293
vt 0.828732 0.892560
vt 0.000000 0.329770
vt 0.519482 0.798576
vt 0.594155 0.681097
vt 0.479797 0.385436
vt 0.000000 0.955945
vt 0.673087 0.940021
vt 0.008020 0.122797
vt 0.223231 0.955945
vt 0.479797 0.982744
vt 0.829317 0.593041
vt 0.691944 0.000000
vt 0.774820 0.513591
vt 0.828732 0.838562
vt 0.928629 0.055944
vt 0.828690 0.221431
vt 0.176741 0.000000
vt 0.302476 0.763746
vt 0.401048 0.718330
vt 0.189648 0.710065
s 0
usemtl Material
f 2/7/1 4/13/1 12/33/1
f 9/25/2 8/22/2 3/11/2
f 2/6/3 3/9/3 7/20/3 10/26/3 14/35/3 1/1/3
f 15/38/4 14/36/4 5/17/4
f 2/7/5 1/2/5 4/13/5
f 4/13/6 13/34/6 12/33/6
f 7/21/7 3/11/7 8/22/7
f 1/3/8 5/14/8 4/12/8
f 5/15/9 6/18/9 13/34/9 4/13/9
f 14/36/10 10/27/10 9/24/10
f 3/10/11 2/8/11 12/32/11 11/29/11
f 5/15/12 9/23/12 6/18/12
f 5/16/13 1/4/13 15/37/13
f 7/21/14 8/22/14 9/25/14
f 11/30/15 12/33/15 13/34/15
f 1/5/16 14/36/16 15/38/16
f 5/17/17 14/36/17 9/24/17
f 11/30/18 13/34/18 6/18/18
f 6/19/19 9/25/19 11/31/19
f 10/28/20 7/21/20 9/25/20
f 3/11/21 11/31/21 9/25/21
