# Blender 3.2.0
# www.blender.org
mtllib Rock Large 4.mtl
o Rock Large 4
v -0.247855 0.294178 0.589342
v -0.675357 0.142498 -0.070724
v 0.118299 0.287346 0.781797
v 0.436629 -0.310287 0.544969
v 0.698442 0.287346 0.443443
v 0.627653 0.119524 -0.418759
v 0.459830 0.287346 -0.418759
v 0.477138 -0.257034 -0.726095
v -0.142937 -0.403238 -0.719935
v -0.358794 0.171606 -0.719935
v -0.570652 -0.345500 -0.483601
v -0.772820 -0.322377 0.106704
v -0.679178 0.082876 -0.408108
v 0.621664 -0.011471 0.494206
v 0.598170 -0.236617 0.058624
v -0.364143 -0.350249 0.636220
vn -0.6418 -0.2410 -0.7280
vn -0.9802 0.1965 -0.0236
vn -0.4009 0.9029 -0.1550
vn 0.4379 -0.1198 0.8910
vn 0.9535 -0.2668 -0.1401
vn 0.6939 0.6939 -0.1920
vn 0.2294 -0.9733 -0.0101
vn -0.1269 0.9913 -0.0361
vn 0.2414 0.4829 -0.8417
vn -0.4800 0.0329 -0.8767
vn 0.0336 -0.9898 -0.1388
vn 0.1547 -0.9859 0.0638
vn -0.4581 0.1464 0.8768
vn 0.1229 -0.3084 0.9433
vn 0.9872 -0.1510 -0.0517
vn 0.9690 -0.2370 0.0703
vn -0.0000 1.0000 -0.0000
vn -0.2345 0.9695 -0.0709
vn -0.0091 -0.0034 -1.0000
vn -0.1237 -0.9922 0.0186
vn -0.8219 0.3452 0.4530
vn -0.7735 0.1837 0.6066
vn 0.4499 0.4499 -0.7715
vn 0.5037 0.0173 0.8637
vn 0.8471 -0.4893 0.2072
vn -0.9325 -0.1812 -0.3123
vn -0.0821 -0.9966 0.0109
vn 0.0705 0.9926 -0.0989
vt 0.625000 0.919627
vt 0.737839 0.085987
vt 0.794627 0.750000
vt 0.875000 0.580372
vt 0.625000 0.169627
vt 0.625000 0.830372
vt 0.705373 0.750000
vt 0.544627 0.750000
vt 0.625000 0.639707
vt 0.583044 0.538417
vt 0.666960 0.538413
vt 0.625000 0.496461
vt 0.466598 0.500000
vt 0.375000 0.408402
vt 0.283402 0.500000
vt 0.625000 0.354438
vt 0.770562 0.500000
vt 0.250000 0.549699
vt 0.204201 0.595498
vt 0.375000 0.059003
vt 0.125000 0.690997
vt 0.544621 0.250000
vt 0.584814 0.694853
vt 0.375000 0.591604
vt 0.375000 0.938794
vt 0.463015 -0.120224
vt 0.186206 0.750000
s 0
f 9/14/1 13/22/1 10/16/1
f 12/20/2 2/5/2 13/22/2
f 10/17/3 13/22/3 2/5/3
f 3/7/4 4/8/4 14/23/4
f 15/24/5 8/13/5 6/10/5
f 5/9/6 6/10/6 7/12/6
f 8/13/7 15/24/7 9/15/7
f 3/7/8 7/11/8 10/17/8
f 8/13/9 10/16/9 7/11/9
f 13/22/10 9/14/10 11/18/10
f 15/24/11 4/8/11 16/25/11
f 9/15/12 15/24/12 16/27/12
f 16/25/13 3/6/13 1/1/13
f 3/6/14 16/25/14 4/8/14
f 15/24/15 6/10/15 5/9/15
f 15/24/16 5/9/16 14/23/16
f 5/9/17 7/11/17 3/7/17
f 2/4/18 1/3/18 10/17/18
f 9/14/19 10/16/19 8/13/19
f 11/19/20 9/15/20 16/27/20
f 1/2/21 2/5/21 12/20/21
f 16/26/22 1/2/22 12/20/22
f 7/12/23 6/10/23 8/13/23
f 5/9/24 3/7/24 14/23/24
f 4/8/25 15/24/25 14/23/25
f 12/21/26 13/22/26 11/18/26
f 12/21/27 11/19/27 16/27/27
f 1/3/28 3/7/28 10/17/28
