# Blender 3.2.0
# www.blender.org
mtllib Rock Huge 4.mtl
o Rock Huge 4
v -1.131723 -0.663735 0.049543
v -0.363264 -0.559025 -1.063312
v 0.937970 -0.557963 -0.646183
v -1.052215 0.516910 -0.837209
v 1.172692 0.619736 0.020466
v 0.289541 -0.701911 0.859364
v 1.118029 -0.681083 0.000000
v 0.900867 -0.824444 -0.361873
v -0.636160 -0.598479 0.521819
v -0.057139 -0.835168 -0.445414
v -0.904505 -0.657170 -0.624996
v 0.345495 -0.657172 -1.011265
v 1.250000 0.000000 0.386266
v 1.202768 -0.203735 -0.394819
v -0.190995 -0.048756 1.277366
v -1.316795 0.000000 0.386266
v -0.859512 0.031864 1.039461
v -0.433778 0.030458 -1.267368
v -1.294853 0.000000 -0.506246
v 0.669415 -0.000864 -0.989713
v 0.000000 0.000000 -1.250000
v 1.027598 0.651938 0.853058
v -0.449382 0.657172 1.071654
v 0.917151 0.670804 -0.787441
v 0.199440 1.016172 1.060566
v 0.399009 0.968536 -0.196900
v -0.560579 1.065415 0.385446
v -0.204688 0.710479 -1.104746
v 0.176877 1.072266 -0.531075
v -0.953376 0.858363 0.278653
v -1.177655 0.581134 -0.247429
v -1.333177 0.365377 -0.078541
v 0.557327 0.495017 1.137406
v 0.454420 -0.192163 1.278449
vn -0.0756 -0.9924 -0.0969
vn -0.0094 -0.9726 0.2324
vn 0.6416 -0.4687 0.6072
vn -0.5653 -0.4931 0.6613
vn -0.5571 -0.3304 -0.7619
vn 0.5381 -0.2390 -0.8083
vn -0.9660 -0.2573 -0.0237
vn 0.0150 -0.3255 -0.9454
vn 0.7317 -0.0656 -0.6784
vn -0.8669 0.3380 -0.3664
vn 0.5169 0.5259 -0.6755
vn 0.4668 0.8837 -0.0360
vn 0.1991 0.9656 0.1674
vn 0.0859 0.9960 -0.0241
vn -0.1421 0.3331 -0.9321
vn -0.3800 0.8752 -0.2992
vn -0.5063 0.7026 0.5000
vn -0.4083 0.7539 0.5147
vn 0.5672 -0.3427 0.7489
vn 0.5435 0.8377 0.0545
vn 0.3991 0.9168 -0.0163
vn 0.2034 0.9791 -0.0024
vn 0.9413 0.1788 -0.2864
vn 0.3479 0.2830 -0.8938
vn 0.0541 0.2150 -0.9751
vn -0.3517 0.3281 -0.8767
vn -0.7062 0.4344 0.5591
vn -0.3141 0.1578 0.9362
vn 0.0677 0.1909 0.9793
vn -0.1352 -0.6028 0.7864
vn 0.9636 0.2144 0.1596
vn 0.3583 -0.1466 -0.9220
vn 0.0235 -0.3304 -0.9435
vn -0.6493 -0.1699 -0.7413
vn -0.6370 -0.2464 -0.7305
vn -0.8451 -0.4497 -0.2890
vn -0.9968 -0.0759 -0.0245
vn -0.6330 -0.6128 0.4731
vn 0.6603 -0.5927 0.4612
vn 0.9938 0.0767 -0.0801
vn 0.9829 -0.1840 -0.0115
vn 0.8537 -0.4135 -0.3167
vn 0.4656 -0.6752 -0.5721
vn 0.0349 -0.9602 -0.2772
vn -0.1015 -0.9260 -0.3635
vn -0.1195 -0.9271 -0.3551
vn -0.2252 -0.9689 0.1023
vn 0.1061 -0.9940 0.0261
vn 0.8313 -0.4555 -0.3184
vn 0.0564 -0.9393 0.3383
vn -0.9356 0.1757 0.3063
vn -0.9293 0.2895 -0.2292
vn -0.2676 0.9501 -0.1604
vn -0.6948 0.5533 0.4594
vn -0.5285 0.7257 0.4404
vn 0.7433 0.0259 0.6684
vn 0.0653 0.3011 0.9513
vn -0.0729 0.1621 0.9841
vn 0.3801 0.3850 0.8410
vn -0.3200 -0.6664 0.6734
vt 0.818182 0.157461
vt 0.636364 0.157461
vt 0.454546 0.157461
vt 0.727273 0.314921
vt 0.363637 0.314921
vt 0.181819 0.157461
vt 0.255486 0.040850
vt 0.363637 0.157461
vt 0.500000 0.078731
vt 0.409092 0.078731
vt 0.619002 -0.104765
vt 0.909091 0.157461
vt 0.857997 0.095522
vt 0.290089 -0.104765
vt 0.062817 0.051958
vt 0.590909 0.078731
vt 0.681818 0.078731
vt 0.727273 0.157461
vt 0.545455 0.157461
vt 0.318182 0.236191
vt 0.409092 0.236191
vt 0.136365 0.236191
vt 0.863636 0.236191
vt 0.045455 0.236191
vt 0.622560 0.226627
vt 0.954545 0.236191
vt 0.645324 0.236191
vt 0.772727 0.236191
vt 0.500000 0.236191
vt 0.590909 0.236191
vt 0.272728 0.314921
vt 0.090910 0.314921
vt 0.400668 0.387207
vt 0.454546 0.314921
vt 0.136365 0.393651
vt 0.227273 0.393651
vt 0.454546 0.432648
vt 0.299925 0.438859
vt 0.199182 0.490511
vt 0.454546 0.550374
vt 0.045455 0.393651
vt 0.681818 0.393651
vt 0.772727 0.393651
vt 0.500000 0.393651
vt 0.590909 0.393651
vt 0.033312 0.372618
vt 0.436504 0.372618
vt 0.791723 0.314921
vt 0.820126 0.263557
vt 0.185916 0.307824
vt 0.227273 0.307824
vt 0.193815 0.178239
s 0
f 9/15/1 7/7/1 6/6/1
f 9/11/2 10/16/2 8/9/2
f 6/6/3 7/8/3 13/20/3
f 1/1/4 9/12/4 16/23/4
f 2/2/5 11/18/5 18/27/5
f 3/3/6 12/19/6 20/29/6
f 1/1/7 16/23/7 19/28/7
f 2/2/8 18/27/8 21/30/8
f 20/29/9 24/34/9 14/21/9 3/3/9
f 19/28/10 32/49/10 31/48/10
f 20/29/11 28/42/11 29/45/11
f 24/34/12 29/44/12 26/37/12
f 29/44/13 27/40/13 26/37/13
f 27/39/14 25/36/14 26/38/14
f 24/34/15 20/29/15 29/44/15
f 31/48/16 30/46/16 27/40/16 29/45/16 28/43/16
f 27/41/17 30/46/17 23/32/17
f 27/41/18 23/32/18 25/35/18
f 33/51/19 13/20/19 22/31/19
f 25/36/20 24/33/20 26/38/20
f 25/36/21 22/31/21 24/33/21
f 22/31/22 5/5/22 24/33/22
f 14/21/23 24/34/23 5/5/23
f 21/30/24 28/42/24 20/29/24
f 21/30/25 18/27/25 28/42/25
f 18/27/26 4/4/26 28/42/26
f 30/46/27 17/25/27 23/32/27
f 17/24/28 15/22/28 23/32/28
f 34/52/29 33/50/29 25/35/29
f 15/22/30 6/6/30 34/52/30
f 13/20/31 5/5/31 22/31/31
f 20/29/32 12/19/32 21/30/32
f 12/19/33 2/2/33 21/30/33
f 18/27/34 19/28/34 4/4/34
f 18/27/35 11/18/35 19/28/35
f 11/18/36 1/1/36 19/28/36
f 19/28/37 16/23/37 32/49/37
f 16/23/38 9/12/38 17/26/38
f 6/6/39 13/20/39 34/52/39
f 13/20/40 14/21/40 5/5/40
f 13/20/41 7/8/41 14/21/41
f 7/8/42 3/3/42 14/21/42
f 8/9/43 12/19/43 3/3/43
f 8/9/44 10/16/44 12/19/44
f 10/16/45 2/2/45 12/19/45
f 10/17/46 11/18/46 2/2/46
f 10/17/47 9/13/47 11/18/47
f 9/13/48 1/1/48 11/18/48
f 7/8/49 8/10/49 3/3/49
f 7/8/50 9/14/50 8/10/50
f 17/25/51 30/47/51 31/48/51
f 4/4/52 19/28/52 31/48/52
f 4/4/53 31/48/53 28/43/53
f 16/23/54 17/25/54 32/49/54
f 32/49/55 17/25/55 31/48/55
f 13/20/56 33/51/56 34/52/56
f 23/32/57 15/22/57 34/52/57
f 23/32/58 34/52/58 25/35/58
f 25/36/59 33/51/59 22/31/59
f 15/22/60 17/26/60 9/15/60 6/6/60
