# Blender 3.2.0
# www.blender.org
mtllib Rock Large 6.mtl
o Rock Large 6
v -0.579655 -0.389543 -0.031889
v 0.658413 -0.401106 -0.591987
v -0.455973 0.368346 0.603540
v 0.360403 -0.240759 0.802532
v 0.712440 -0.365412 0.171018
v -0.592501 -0.299278 0.530194
v 0.227752 -0.486038 -0.910914
v 0.619369 -0.146186 0.088334
v -0.145632 0.001478 0.910007
v 0.620539 0.056453 0.768337
v -0.528746 0.091203 0.290405
v -0.396287 -0.129084 -0.806882
v 0.587091 0.046113 -0.940973
v -0.167181 0.442131 0.771505
v 0.412853 0.719281 0.743759
v -0.238350 0.603809 0.639652
v -0.174158 0.205377 -0.699234
v 0.413971 0.211400 -0.917481
v -0.246127 -0.478379 0.061526
v 0.224134 -0.551930 -0.288730
v 0.448972 -0.412385 0.191123
v 0.059885 -0.424153 0.653899
vn -0.9899 0.1345 -0.0442
vn 0.5895 -0.4364 -0.6797
vn 0.9291 0.3540 -0.1071
vn -0.9652 0.2084 -0.1583
vn 0.9877 0.1561 -0.0018
vn 0.9514 0.2948 -0.0895
vn -0.5357 0.3794 0.7544
vn -0.1145 0.0212 -0.9932
vn -0.3474 0.0840 -0.9339
vn 0.0120 0.2991 -0.9541
vn -0.1198 0.9497 -0.2895
vn -0.7812 0.5871 -0.2122
vn -0.2263 0.5538 0.8013
vn 0.0262 0.0452 0.9986
vn 0.6941 0.7112 0.1111
vn -0.6304 0.6482 -0.4272
vn -0.5325 0.2300 0.8146
vn 0.1522 0.3031 0.9407
vn -0.5062 -0.7742 -0.3800
vn -0.8280 -0.3103 0.4670
vn -0.7349 0.4380 0.5178
vn -0.2287 -0.9679 -0.1038
vn 0.1850 -0.0490 0.9815
vn 0.6838 -0.5423 0.4882
vn 0.9282 0.3629 -0.0827
vn 0.1690 -0.9850 0.0341
vn 0.3020 -0.9056 0.2979
vn 0.3661 -0.9305 -0.0113
vn -0.0822 -0.5427 0.8359
vn -0.2209 -0.9543 0.2014
vn 0.0430 -0.9646 0.2603
vn -0.2924 -0.9452 0.1451
vn 0.0858 -0.9952 0.0468
vn -0.2579 -0.5865 0.7678
vt 0.818182 0.157461
vt 0.363637 -0.138750
vt 0.056693 -0.036906
vt 0.454546 0.157461
vt 0.000000 0.314921
vt 0.909091 0.314921
vt 0.181819 0.157461
vt 0.363637 0.157461
vt 0.040826 0.072276
vt 0.909091 0.157461
vt 0.545455 0.157461
vt 0.454790 0.025216
vt 0.409092 0.236191
vt 0.136365 0.236191
vt 1.029020 0.240155
vt 0.227273 0.236191
vt 0.863636 0.236191
vt 0.772727 0.236191
vt 0.500000 0.236191
vt 0.090910 0.314921
vt 0.136365 0.393651
vt 0.045455 0.393651
vt 0.863636 0.393651
vt 0.681818 0.393651
vt 0.590909 0.393651
vt 0.500000 0.393651
vt 0.341152 -0.031171
vt 0.141069 0.020314
vt 0.141352 0.020332
vt 0.376351 0.055943
vt 0.344777 0.146572
vt 0.357350 0.146572
vt 0.184290 0.153181
vt 0.991310 0.162015
s 0
f 1/1/1 6/10/1 11/17/1
f 2/4/2 7/11/2 13/19/2
f 5/8/3 8/13/3 10/16/3
f 1/1/4 11/17/4 12/18/4
f 2/4/5 13/19/5 8/13/5
f 8/13/6 18/25/6 15/21/6 10/16/6
f 3/5/7 14/20/7 16/22/7
f 13/19/8 7/11/8 18/25/8
f 18/25/9 7/11/9 17/24/9
f 7/11/10 12/18/10 17/24/10
f 15/21/11 18/25/11 17/24/11 16/22/11
f 17/24/12 12/18/12 11/17/12 16/23/12
f 16/22/13 14/20/13 15/21/13
f 14/20/14 10/16/14 15/21/14
f 8/13/15 13/19/15 18/26/15
f 11/17/16 3/6/16 16/23/16
f 9/14/17 14/20/17 3/5/17
f 9/14/18 10/16/18 14/20/18
f 7/11/19 1/1/19 12/18/19
f 11/17/20 9/15/20 3/6/20
f 11/17/21 6/10/21 9/15/21
f 20/30/22 19/27/22 1/2/22 7/12/22
f 9/14/23 4/7/23 10/16/23
f 4/7/24 5/8/24 10/16/24
f 5/8/25 2/4/25 8/13/25
f 5/8/26 7/12/26 2/4/26
f 22/33/27 21/31/27 5/8/27 4/7/27
f 5/8/28 21/32/28 20/30/28 7/12/28
f 22/33/29 4/7/29 9/14/29
f 6/10/30 19/29/30 22/34/30
f 19/28/31 20/30/31 21/32/31
f 1/3/32 19/28/32 6/9/32
f 22/33/33 19/29/33 21/32/33
f 9/15/34 6/10/34 22/34/34
