# Blender 3.2.0
# www.blender.org
mtllib Rock Flat Small 1.mtl
o Rock Flat Small 1
v 0.000000 0.000000 -0.657791
v 0.146271 0.000000 -0.560695
v 0.411544 0.000000 -0.362370
v 0.312907 0.117852 -0.344102
v 0.426606 0.000000 0.000000
v 0.146271 0.000000 0.481727
v 0.091184 0.060005 0.437328
v -0.362370 0.000000 0.481727
v -0.318523 0.101032 0.441545
v -0.583186 0.000000 0.216454
v -0.528653 0.095539 -0.082436
v -0.583186 0.000000 -0.362370
v -0.317913 0.000000 -0.560695
v -0.207621 0.096344 -0.467622
vn 0.1214 0.8833 -0.4529
vn 0.5077 0.5302 -0.6791
vn 0.7640 0.6444 -0.0318
vn 0.3941 0.9016 0.1786
vn 0.5628 0.7590 0.3275
vn 0.0449 0.3523 0.9348
vn -0.6625 0.5069 0.5515
vn -0.4839 0.8553 0.1851
vn -0.8685 0.4957 -0.0000
vn -0.0102 0.9999 -0.0064
vn -0.3183 0.8928 -0.3186
vn -0.1817 0.7829 -0.5950
vn -0.0000 -1.0000 -0.0000
vn -0.0550 0.9968 0.0582
vn 0.0997 0.9950 0.0070
vn -0.0000 0.5948 0.8039
vt 1.000000 0.500000
vt 0.000000 0.500000
vt 0.750000 0.490000
vt 0.916667 0.500000
vt 0.870000 0.457846
vt 0.833333 0.500000
vt 0.957846 0.370000
vt 0.833333 1.000000
vt 0.833185 1.000000
vt 0.457846 0.370000
vt 0.750000 0.500000
vt 0.744978 0.505285
vt 0.990000 0.250000
vt 0.870000 0.042154
vt 0.583333 0.500000
vt 0.370000 0.042154
vt 0.583333 1.000000
vt 0.630000 0.042154
vt 0.416667 0.500000
vt 0.416667 1.000000
vt 0.130000 0.042154
vt 0.333333 0.500000
vt 0.542154 0.130000
vt 0.010000 0.250000
vt 0.250000 1.000000
vt 0.166667 0.500000
vt 0.542154 0.370000
vt 0.083333 0.500000
vt 0.630000 0.457846
vt 1.072169 1.000000
vt 0.083333 1.000000
vt 0.130000 0.457846
s 0
f 1/1/1 14/30/1 4/8/1 2/4/1
f 2/4/2 4/8/2 3/6/2
f 3/6/3 4/9/3 5/11/3
f 5/11/4 4/9/4 7/17/4
f 5/12/5 7/17/5 6/15/5
f 7/17/6 9/20/6 8/19/6
f 8/19/7 9/20/7 10/22/7
f 10/22/8 9/20/8 11/25/8
f 10/22/9 11/25/9 12/26/9
f 14/32/10 11/24/10 9/21/10
f 12/26/11 11/25/11 14/31/11 13/28/11
f 13/28/12 14/31/12 1/2/12
f 1/3/13 2/5/13 3/7/13 5/13/13 6/14/13 8/18/13 10/23/13 12/27/13 13/29/13
f 4/10/14 14/32/14 7/16/14
f 7/16/15 14/32/15 9/21/15
f 6/15/16 7/17/16 8/19/16
