# Blender 3.2.0
# www.blender.org
mtllib Rock Flat Large 6.mtl
o Rock Flat Large 6
v -0.706680 0.195533 -0.483594
v -0.395373 0.257658 0.473052
v -0.672316 0.216209 0.220916
v 0.575916 0.086793 -0.522297
v 0.378504 0.089672 -0.751669
v -0.032975 0.047793 0.682689
v -0.294426 -0.058215 -0.800492
v -0.507302 -0.055810 0.655622
v -0.761115 -0.051701 -0.526711
v 0.631034 -0.069070 -0.472911
v 0.369687 -0.067162 -0.771376
v -0.058798 -0.061466 0.724993
v 0.348680 -0.066608 0.544915
v 0.613517 -0.070596 0.242057
v 0.514073 0.212105 0.218859
v -0.833109 -0.053090 0.289329
v -0.237141 0.144211 -0.772882
v -0.791368 0.122895 0.287730
vn 0.7191 0.3042 0.6248
vn -0.9698 0.2287 -0.0851
vn -0.2730 0.7655 0.5826
vn -0.6055 0.5508 0.5745
vn 0.7541 0.0495 -0.6549
vn 0.9417 0.3357 0.0228
vn 0.0732 0.9960 -0.0505
vn -0.1650 0.5397 0.8255
vn 0.3941 0.2494 0.8846
vn -0.4872 0.2525 -0.8360
vn -0.1363 0.3856 0.9126
vn 0.3635 0.8929 0.2655
vn -0.0124 -0.9999 -0.0004
vn 0.2289 0.6796 0.6970
vn 0.0889 0.9955 -0.0332
vn -0.7343 0.1801 0.6545
vn -0.6145 0.7889 0.0068
vn 0.0031 0.9861 -0.1662
vn 0.0451 0.1223 -0.9915
vt 0.765885 0.139424
vt 0.549348 0.593780
vt 0.360328 0.876562
vt 0.404773 0.849372
vt 0.205127 0.894119
vt 0.422490 0.838332
vt 0.566788 0.000000
vt 0.904338 0.000000
vt 0.427888 0.689832
vt 0.702469 0.887470
vt 0.424515 0.355715
vt 0.846918 1.372609
vt 0.503233 -0.499946
vt 0.831565 0.558993
vt 0.330516 0.641036
vt 0.360328 0.637849
vt 0.000000 0.195239
vt 0.752810 0.433607
vt 0.205127 0.763001
vt 0.391841 0.494210
vt 0.611894 0.879092
vt 0.611894 0.583164
vt 0.702469 0.131674
vt 0.089864 0.494210
vt 0.819780 0.610134
vt 0.430111 0.583164
vt 0.087753 0.000000
vt 0.011094 0.047387
vt 0.790636 0.575094
vt 0.291472 0.617065
vt 0.422490 0.327278
vt 0.360328 0.494210
vt 0.404773 0.494210
vt 0.415961 0.184199
vt 0.007958 0.566525
vt 0.000000 0.494210
vt 0.702469 0.491628
vt 0.357172 0.102904
vt 0.698385 0.459987
vt 0.073965 0.515141
vt 0.240853 0.494210
vt 0.611894 0.731128
vt 0.835112 0.184486
vt 0.586210 0.761929
s 0
usemtl Material.002
f 14/36/1 15/40/1 13/35/1
f 18/44/2 1/2/2 9/22/2 16/42/2
f 18/44/3 8/21/3 3/9/3
f 8/21/4 2/6/4 3/9/4
f 5/12/5 4/10/5 10/25/5 11/29/5
f 14/37/6 10/26/6 4/11/6 15/39/6
f 5/13/7 3/7/7 4/11/7
f 8/19/8 6/15/8 2/3/8
f 13/32/9 6/15/9 12/30/9
f 7/18/10 9/23/10 1/1/10 17/43/10
f 6/15/11 8/19/11 12/30/11
f 6/16/12 13/33/12 2/4/12
f 12/31/13 8/20/13 16/41/13 9/24/13 7/17/13 11/28/13 10/27/13 14/38/13 13/34/13
f 13/35/14 15/40/14 2/5/14
f 1/1/15 3/8/15 5/14/15 17/43/15
f 8/21/16 18/44/16 16/42/16
f 1/2/17 18/44/17 3/9/17
f 4/11/18 3/9/18 2/6/18 15/40/18
f 7/18/19 17/43/19 5/14/19 11/29/19
