# Blender 3.2.0
# www.blender.org
mtllib Rock Tiny 1.mtl
o Rock Tiny 1
v 0.123439 0.006587 0.106756
v -0.126868 0.094506 0.199311
v -0.152125 -0.126957 -0.153374
v 0.095443 0.040713 -0.151374
v -0.095813 0.119617 -0.187664
v -0.159113 -0.118222 -0.018541
v 0.151304 -0.090874 -0.085281
v -0.017597 -0.089658 0.164539
vn 0.6226 -0.6577 0.4241
vn 0.3577 0.0361 0.9331
vn -0.9748 0.2137 -0.0644
vn 0.1030 -0.9920 0.0728
vn 0.9284 0.3680 -0.0520
vn 0.2446 -0.3503 -0.9041
vn 0.3618 0.9282 0.0869
vn 0.1185 -0.1633 -0.9794
vn -0.6488 -0.4942 0.5786
vt 0.272728 0.157461
vt 0.090910 0.157461
vt 1.000000 0.157461
vt 0.818182 0.157461
vt 0.545455 0.314921
vt 0.636364 0.472382
vt 0.849433 0.103331
vt 0.423295 0.103332
vt 0.485797 0.103332
vt 0.122161 0.103333
vt 0.968749 0.103333
s 0
f 1/1/1 8/10/1 7/8/1
f 8/10/2 1/1/2 2/2/2
f 6/7/3 2/2/3 5/6/3 3/4/3
f 8/11/4 6/7/4 3/4/4 7/9/4
f 4/5/5 1/1/5 7/8/5
f 4/5/6 7/9/6 3/4/6
f 1/1/7 4/5/7 5/6/7 2/2/7
f 4/5/8 3/4/8 5/6/8
f 6/7/9 8/11/9 2/3/9
