# Blender 3.2.0
# www.blender.org
mtllib Rock Flat Small 4.mtl
o Rock Flat Small 4
v -0.077105 -0.000511 -0.490453
v -0.064757 0.075661 -0.469665
v 0.308780 -0.006554 -0.365187
v 0.293921 0.074350 -0.352284
v 0.500000 0.000000 0.000000
v 0.353988 0.000626 0.355805
v 0.314069 0.066407 0.345210
v 0.002746 -0.000485 0.423861
v -0.016355 0.082886 0.404358
v -0.353553 0.000000 0.353553
v -0.363830 0.066219 0.367546
v -0.524389 0.031513 0.070562
v -0.426798 0.022012 -0.314667
v 0.430052 0.058278 0.031351
v -0.399026 0.064073 -0.287538
v -0.219259 0.129063 0.125022
v -0.442664 0.099985 0.058304
vn 0.3051 0.2044 -0.9301
vn 0.8603 0.2305 -0.4546
vn 0.7857 0.5286 0.3215
vn -0.1128 0.2018 0.9729
vn -0.8438 -0.2331 0.4834
vn -0.3752 0.6645 -0.6462
vn 0.0991 0.9931 -0.0634
vn -0.4127 0.3015 -0.8595
vn -0.0263 -0.9997 -0.0025
vn 0.6821 0.6928 0.2341
vn -0.7504 0.6281 -0.2056
vn 0.5832 0.7935 -0.1737
vn -0.6028 0.7619 0.2369
vn -0.0692 0.9749 0.2114
vn 0.0484 0.9988 -0.0080
vn -0.6479 0.7449 -0.1591
vn -0.1715 0.9737 0.1500
vn -0.0114 0.9989 0.0459
vn 0.1190 0.9899 0.0772
vn -0.0957 0.9889 -0.1141
vn 0.1827 0.2634 0.9472
vn -0.1887 -0.2310 0.9545
vt 0.000000 0.500000
vt 0.750000 0.490000
vt 0.000000 1.000000
vt 1.000000 1.000000
vt 0.875000 0.500000
vt 0.919706 0.419706
vt 0.875000 1.000000
vt 0.990000 0.250000
vt 0.750000 0.500000
vt 0.919706 0.080294
vt 0.625000 0.500000
vt 0.625000 1.000000
vt 0.500000 0.500000
vt 0.750000 0.010000
vt 0.337034 -0.141403
vt 0.500000 1.000000
vt 0.580294 0.080294
vt 0.375000 0.500000
vt 0.375000 1.000000
vt 0.510000 0.250000
vt 0.250000 0.500000
vt 0.580294 0.419706
vt 0.125000 0.500000
vt 0.750000 1.000000
vt 0.541893 0.260234
vt 0.125000 1.000000
vt 0.375000 1.000000
vt 0.080294 0.080294
vt 0.250000 1.000000
s 0
f 1/1/1 2/3/1 4/7/1 3/5/1
f 3/5/2 4/7/2 5/9/2
f 5/9/3 7/12/3 6/11/3
f 8/13/4 9/16/4 11/19/4
f 10/18/5 11/19/5 12/21/5
f 2/3/6 13/23/6 15/26/6
f 14/25/7 2/4/7 16/28/7
f 13/23/8 2/3/8 1/1/8
f 1/2/9 3/6/9 5/8/9 6/10/9 8/14/9 10/17/9 12/20/9 13/22/9
f 7/12/10 5/9/10 14/24/10
f 13/23/11 12/21/11 15/26/11
f 5/9/12 4/7/12 14/24/12
f 12/21/13 11/19/13 17/29/13
f 11/19/14 9/16/14 16/27/14
f 7/12/15 14/24/15 9/16/15
f 15/26/16 12/21/16 17/29/16
f 11/19/17 16/27/17 17/29/17
f 14/24/18 4/7/18 2/4/18
f 9/15/19 14/25/19 16/28/19
f 16/28/20 2/4/20 15/26/20 17/29/20
f 9/16/21 6/11/21 7/12/21
f 10/18/22 8/13/22 11/19/22
f 8/14/21 6/11/21 9/16/21
