# Blender 3.2.0
# www.blender.org
mtllib Rock Large 3.mtl
o Rock Large 3
v 0.654612 -0.384443 -0.597736
v -0.405621 0.283849 0.397037
v -0.668214 0.288198 -0.653329
v 0.470645 0.288485 -0.101442
v 0.394052 -0.486088 0.253037
v 0.609637 -0.007138 -0.094001
v 0.811556 -0.158972 -0.387952
v -0.072989 -0.160074 0.621489
v 0.253470 -0.159022 0.823178
v -0.669577 -0.103360 0.716315
v -0.399448 -0.161127 0.633969
v -0.656781 -0.159022 -0.881028
v 0.518790 -0.159022 -0.881028
v -0.047856 -0.157926 -0.996743
v 0.387679 0.177216 0.451982
v 0.034940 0.340635 0.423445
v -0.688629 0.243551 0.015454
v -0.334417 0.395086 -0.741321
v 0.619194 0.366714 -0.572008
v -0.688433 -0.411566 0.090081
v -0.715745 -0.146811 0.084797
v -0.869508 -0.225905 0.462295
v 0.574418 -0.158867 0.760516
v -0.851764 0.028318 0.465580
v -0.188263 -0.380333 -0.491269
vn -0.1310 -0.8722 0.4712
vn 0.9000 -0.4341 -0.0400
vn 0.0284 -0.7305 0.6824
vn 0.8534 -0.1226 -0.5067
vn -0.2914 0.9550 0.0549
vn 0.0002 0.9865 0.1641
vn -0.9981 0.0055 -0.0610
vn 0.0518 0.9936 0.1003
vn -0.2443 0.9665 0.0792
vn -0.1142 0.9748 -0.1916
vn 0.3925 0.8886 0.2375
vn 0.8404 0.4252 0.3360
vn 0.8520 0.1346 -0.5059
vn 0.1670 0.4834 -0.8593
vn -0.1764 0.3359 -0.9252
vn -0.3542 0.4171 -0.8370
vn -0.9976 0.0647 -0.0261
vn -0.4531 0.8570 0.2456
vn -0.1126 0.4658 0.8777
vn -0.4803 0.4102 0.7753
vn 0.2537 0.6695 0.6982
vn 0.8083 0.5731 0.1351
vn 0.8814 0.4198 0.2165
vn 0.1771 0.4734 -0.8629
vn -0.7960 0.0478 0.6034
vn 0.3468 0.4446 0.8259
vn 0.0345 0.3612 0.9319
vn 0.8381 0.4033 0.3674
vn 0.8308 0.0288 0.5558
vn 0.7413 -0.6545 0.1488
vn -0.0206 -0.9920 -0.1248
vn -0.0793 -0.7982 -0.5971
vn -0.0566 -0.8951 0.4422
vn -0.0781 -0.9043 -0.4196
vn -0.0534 -0.9936 -0.0994
vn 0.1347 0.7097 0.6915
vn -0.2631 -0.8634 0.4304
vn 0.1007 -0.8521 0.5136
vn -0.9928 -0.1036 -0.0593
vn -0.9409 0.0052 -0.3385
vn -0.9289 0.0695 -0.3638
vn -0.9136 -0.1021 -0.3935
vn -0.0115 -0.8970 0.4418
vn -0.3200 0.7230 0.6122
vn -0.2341 -0.9390 -0.2518
vn 0.0766 -0.9203 -0.3837
vt 0.454546 0.157461
vt 0.000000 0.314921
vt 0.909091 0.314921
vt 0.727273 0.314921
vt 0.728436 0.638231
vt 0.254434 0.503379
vt 0.363637 0.314921
vt 0.318182 0.078731
vt 0.227273 0.078731
vt 0.318182 0.236191
vt 0.409092 0.236191
vt 0.136364 0.236191
vt 0.133537 0.235229
vt 0.227274 0.236191
vt 0.863636 0.236191
vt 0.039801 0.234267
vt 0.045455 0.236191
vt 0.954545 0.236191
vt 0.681818 0.236191
vt 0.500000 0.236191
vt 0.590909 0.236191
vt 0.272728 0.314921
vt 0.090999 0.315077
vt 0.195296 0.392981
vt 0.149376 0.358642
vt 0.090910 0.314921
vt 0.818182 0.314921
vt 0.747769 0.395658
vt 0.636364 0.314921
vt 0.454546 0.314921
vt 0.046164 0.082560
vt 0.839825 0.069081
vt 0.326162 -0.109385
vt 0.750000 0.196826
vt 0.735579 0.236191
vt 0.765446 0.223578
vt 0.272728 0.236191
vt 0.789681 0.265556
vt 0.461508 0.078266
vt 0.669319 0.047068
vt 0.535046 0.104689
s 0
f 20/31/1 5/9/1 11/16/1
f 23/37/2 5/8/2 6/10/2
f 11/16/3 5/9/3 8/13/3
f 1/1/4 13/20/4 7/11/4
f 3/4/5 17/27/5 18/28/5
f 19/30/6 18/29/6 4/5/6
f 12/19/7 21/35/7 3/4/7
f 18/28/8 2/3/8 4/5/8
f 18/28/9 17/27/9 2/3/9
f 2/2/10 16/23/10 4/6/10
f 16/24/11 15/22/11 4/7/11
f 7/11/12 19/30/12 4/7/12
f 7/11/13 13/20/13 19/30/13
f 14/21/14 18/29/14 19/30/14
f 14/21/15 12/19/15 18/29/15
f 12/19/16 3/4/16 18/29/16
f 17/27/17 3/4/17 21/35/17
f 24/38/18 2/3/18 17/27/18
f 11/17/19 16/26/19 2/2/19
f 8/12/20 9/14/20 16/26/20
f 9/14/21 15/22/21 16/25/21
f 23/37/22 6/10/22 15/22/22
f 6/10/23 4/7/23 15/22/23
f 13/20/24 14/21/24 19/30/24
f 22/36/25 10/15/25 24/38/25
f 10/15/26 11/18/26 2/3/26
f 11/17/27 8/12/27 16/26/27
f 6/10/28 7/11/28 4/7/28
f 6/10/29 5/8/29 7/11/29
f 5/8/30 1/1/30 7/11/30
f 5/8/31 25/39/31 1/1/31
f 25/41/32 13/20/32 1/1/32
f 20/32/33 11/18/33 10/15/33
f 25/40/34 12/19/34 14/21/34
f 5/8/35 20/33/35 25/39/35
f 9/14/36 23/37/36 15/22/36
f 5/9/37 9/14/37 8/13/37
f 5/9/38 23/37/38 9/14/38
f 12/19/39 20/34/39 21/35/39
f 24/38/40 17/27/40 21/35/40
f 21/35/41 22/36/41 24/38/41
f 21/35/42 20/34/42 22/36/42
f 20/34/43 10/15/43 22/36/43
f 10/15/44 2/3/44 24/38/44
f 12/19/45 25/40/45 20/34/45
f 13/20/46 25/41/46 14/21/46
