# Blender 3.2.0
# www.blender.org
mtllib Rock Huge 1.mtl
o Rock Huge 1
v 1.013558 -0.626421 0.736384
v -1.170620 -0.618098 -0.007218
v 0.995390 -0.601091 -0.730041
v -1.083262 0.555705 0.564443
v -0.771102 0.575506 -0.646756
v 1.231959 0.671812 0.018498
v 0.337433 1.060622 0.163976
v -0.170019 -0.994267 0.827960
v 0.616489 -1.002923 0.468556
v 0.371913 -0.520396 1.179084
v 1.270284 -0.384118 -0.138610
v 0.552364 -1.024474 -0.341558
v -0.858930 -0.655522 0.631967
v -0.187999 -1.025634 -0.655742
v -0.968760 -0.637510 -0.701431
v 0.388799 -0.448468 -1.196909
v 1.332149 0.000000 0.432835
v 1.332149 0.000000 -0.432835
v 0.061090 0.053223 1.310803
v 0.718627 0.016420 1.074052
v -0.827890 0.007500 -1.044847
v 0.737412 -0.024811 -1.085863
v 0.156508 0.419992 -1.333742
v -1.094050 0.655318 0.003766
v 0.239086 0.658800 0.876981
v 0.732000 0.791752 -0.026127
v -0.847096 0.893175 0.615444
v -0.370659 0.933947 -0.677404
v -0.890788 0.069612 0.958959
v -1.104597 -0.093513 0.606265
v -0.610734 -0.645498 0.995201
v -0.373153 -0.135160 1.293668
v 0.186347 0.770397 -0.851545
v 1.110890 0.284079 -0.674943
vn 0.6878 -0.7259 0.0008
vn 0.9090 -0.3847 0.1602
vn -0.1239 -0.4954 0.8598
vn -0.8489 -0.3531 0.3933
vn 0.5518 -0.2451 -0.7971
vn 0.7218 -0.0320 0.6914
vn -0.9966 0.0594 0.0564
vn 0.7384 -0.0827 -0.6693
vn 0.3198 0.4879 0.8122
vn -0.2946 0.6122 0.7338
vn -0.6294 0.6694 -0.3946
vn 0.2479 0.8977 -0.3643
vn 0.6745 0.5767 -0.4608
vn 0.1830 0.9377 -0.2952
vn -0.4746 0.4664 -0.7464
vn -0.1488 0.9886 -0.0236
vn -0.4729 0.8688 -0.1469
vn -0.8220 0.5578 0.1149
vn 0.0671 0.8652 0.4969
vn -0.6233 0.3290 0.7094
vn 0.0477 -0.1989 0.9789
vn 0.6407 0.6277 0.4421
vn 0.6471 0.6194 0.4444
vn 0.1429 0.8082 0.5713
vn 0.4476 0.7450 -0.4947
vn 0.5686 0.3204 -0.7576
vn -0.4381 0.5449 -0.7149
vn -0.9991 0.0345 0.0253
vn -0.7707 -0.2897 0.5675
vn 0.6442 0.4688 0.6044
vn 0.3587 -0.0509 -0.9320
vn -0.1962 -0.2036 -0.9592
vn -0.8032 0.3936 -0.4471
vn -0.4921 -0.7935 0.3581
vn 0.3369 -0.0335 0.9409
vn 0.5370 -0.1858 0.8228
vn 0.9891 0.1475 -0.0000
vn 0.9873 -0.1590 -0.0000
vn 0.8897 -0.3591 -0.2818
vn 0.2445 -0.7820 -0.5733
vn -0.2859 -0.4877 -0.8249
vn -0.1646 -0.4353 -0.8851
vn -0.1105 -0.9939 -0.0043
vn -0.3961 0.3713 0.8398
vn 0.6709 -0.7407 -0.0362
vn 0.2671 -0.7520 0.6026
vn 0.2945 -0.7404 0.6042
vn -0.8657 0.0605 0.4969
vn -0.0930 0.5180 0.8503
vn -0.5848 -0.1891 0.7888
vn -0.0531 -0.4856 0.8726
vn 0.0525 0.8063 -0.5892
vn 0.4307 0.8488 -0.3067
vn 0.7393 0.0019 -0.6734
vn 0.8598 0.3669 -0.3552
vn -0.9580 0.0600 -0.2803
vn -0.0042 -0.9997 0.0232
vn -0.4464 -0.8945 0.0245
vt 0.600576 0.000000
vt 0.099395 0.718844
vt 0.404294 0.312134
vt 0.000000 0.268197
vt 0.875284 0.089807
vt 0.652996 0.171217
vt 0.775533 0.295873
vt 0.539871 0.770781
vt 0.000000 0.497833
vt 0.417962 0.144925
vt 0.142372 0.411359
vt 0.617037 0.532973
vt 0.277991 0.768546
vt 0.224991 0.363480
vt 0.690826 0.047487
vt 0.341205 0.274869
vt 0.234403 0.700551
vt 0.311109 0.411359
vt 0.575844 0.093471
vt 0.297336 0.141853
vt 0.961950 0.182401
vt 0.086936 0.362905
vt 0.163188 0.112769
vt 0.767381 0.680331
vt 0.712509 0.587295
vt 0.024965 0.137911
vt 0.690826 0.311742
vt 0.216752 0.000000
vt 0.024046 0.609638
vt 0.492502 0.045747
vt 0.402161 0.668341
vt 0.523314 0.146386
vt 0.291672 0.600415
vt 0.173823 0.610334
vt 0.689140 0.458588
vt 0.582960 0.865467
vt 0.008363 0.071391
vt 0.767381 0.458587
vt 0.589317 0.284216
vt 0.357169 0.524763
vt 0.402161 0.411359
vt 0.587529 0.410471
vt 0.712509 0.792750
vt 0.415760 0.715035
vt 0.690826 0.236965
vt 0.535739 0.458587
vt 0.224404 0.491077
vt 0.404294 0.209447
vt 0.047620 0.448823
vt 0.712509 0.515481
vt 0.404294 0.590341
vt 0.743424 0.348701
vt 0.357169 0.434145
vt 0.598236 0.722880
vt 0.889577 0.304288
vt 0.866629 0.231288
vt 0.146404 0.411359
vt 1.000000 0.245150
vt 0.357169 0.707237
vt 0.969686 0.348701
vt 0.353189 0.627651
vt 0.664773 0.662861
vt 0.402161 0.539850
vt 0.555421 0.278428
s 0
usemtl Material
f 1/1/1 9/15/1 11/19/1
f 1/1/2 11/19/2 17/30/2
f 8/13/3 10/17/3 32/61/3
f 2/5/4 13/21/4 30/56/4
f 3/6/5 16/27/5 22/39/5
f 1/2/6 17/29/6 20/34/6
f 2/5/7 30/56/7 24/45/7
f 3/6/8 22/39/8 18/32/8
f 19/33/9 20/34/9 25/47/9
f 32/61/10 19/33/10 25/47/10
f 5/8/11 24/44/11 28/54/11
f 6/10/12 23/42/12 26/48/12
f 26/50/13 23/43/13 33/62/13
f 28/54/14 7/12/14 33/62/14
f 23/43/15 5/8/15 28/54/15
f 28/54/16 27/51/16 7/12/16
f 28/54/17 24/44/17 27/51/17
f 24/45/18 4/7/18 27/52/18
f 27/51/19 25/46/19 7/12/19
f 4/7/20 29/55/20 27/52/20
f 32/61/21 10/17/21 19/33/21
f 25/47/22 26/49/22 7/11/22
f 25/47/23 20/34/23 26/49/23
f 20/34/24 6/9/24 26/49/24
f 34/64/25 23/42/25 6/10/25
f 22/40/26 23/41/26 34/63/26
f 21/36/27 5/8/27 23/43/27
f 30/56/28 4/7/28 24/45/28
f 13/21/29 31/58/29 29/55/29 30/56/29
f 17/29/30 6/9/30 20/34/30
f 22/39/31 16/27/31 23/42/31
f 16/27/32 21/35/32 23/42/32
f 21/36/33 24/44/33 5/8/33
f 8/14/34 31/57/34 13/22/34
f 19/33/35 10/17/35 20/34/35
f 10/17/36 1/2/36 20/34/36
f 17/30/37 18/32/37 6/10/37
f 17/30/38 11/19/38 18/32/38
f 11/19/39 3/6/39 18/32/39
f 12/20/40 14/23/40 16/28/40 3/6/40
f 14/23/41 21/37/41 16/28/41
f 14/24/42 15/25/42 21/38/42
f 13/22/43 2/4/43 15/26/43
f 27/52/44 29/55/44 32/60/44
f 12/20/45 3/6/45 11/19/45 9/16/45
f 8/14/46 9/16/46 10/18/46
f 9/16/47 1/3/47 10/18/47
f 30/56/48 29/55/48 4/7/48
f 25/47/49 27/53/49 32/61/49
f 32/60/50 29/55/50 31/58/50
f 31/59/51 8/13/51 32/61/51
f 23/43/52 28/54/52 33/62/52
f 7/12/53 26/50/53 33/62/53
f 18/31/54 22/40/54 34/63/54
f 18/32/55 34/64/55 6/10/55
f 24/45/56 21/38/56 15/26/56 2/5/56
f 8/14/57 14/23/57 12/20/57 9/16/57
f 8/14/58 13/22/58 15/26/58 14/24/58
