# Blender 3.2.0
# www.blender.org
mtllib Rock Large 2.mtl
o Rock Large 2
v 0.340898 -0.572704 -0.175821
v 0.770092 -0.253221 0.401709
v -0.661125 -0.357046 -0.119887
v 0.629809 -0.310527 -0.593364
v 0.217267 0.378716 0.530671
v -0.587215 0.473900 0.094760
v -0.544841 0.506790 -0.491084
v 0.827158 0.157819 -0.110953
v -0.180581 0.587839 -0.141047
v -0.202126 0.007513 -0.870911
v -0.217058 0.502232 -0.678916
v 0.614375 0.335120 -0.545236
v -0.100589 0.050665 0.600076
v -0.548688 -0.205905 0.562479
v -0.491378 -0.534962 0.475172
v -0.055453 -0.535716 0.474778
v 0.189456 -0.230513 0.587573
vn 0.6348 -0.7713 -0.0451
vn -0.0019 -0.9582 -0.2860
vn -0.3608 0.5142 0.7781
vn -0.2069 -0.8245 -0.5267
vn -0.1129 -0.8044 -0.5832
vn 0.9528 -0.2797 -0.1182
vn 0.1003 -0.9003 0.4235
vn 0.0360 -0.2062 0.9779
vn -0.8160 -0.1320 -0.5628
vn -0.4700 0.3070 -0.8276
vn 0.7029 0.5147 0.4909
vn -0.9533 -0.2207 0.2060
vn -0.9923 0.1053 -0.0659
vn -0.0733 0.9857 -0.1519
vn 0.1379 0.9388 0.3157
vn 0.3905 0.9190 0.0548
vn -0.0697 0.9400 0.3339
vn -0.2501 0.9675 0.0362
vn 0.3910 0.9045 -0.1705
vn -0.2138 -0.9740 -0.0749
vn 0.2180 0.3588 -0.9076
vn 0.3422 0.0780 -0.9364
vn 0.0004 -0.2564 0.9666
vn 0.3067 0.0746 0.9489
vn 0.9051 0.0531 -0.4218
vn -0.1703 -0.2184 0.9609
vn -0.9872 0.0486 0.1519
vn -0.3601 0.5149 0.7780
vn 0.1265 0.0865 0.9882
vn 0.6263 -0.6574 0.4189
vt 0.375420 0.739347
vt 0.548198 1.000000
vt 0.379240 0.294555
vt 0.951444 0.432852
vt 0.601109 0.824397
vt 0.375420 1.000000
vt 0.040239 0.000000
vt 0.084552 0.457753
vt 0.670480 0.000000
vt 0.670480 0.149141
vt 0.670480 0.590142
vt 0.375420 0.472108
vt 0.680917 0.432852
vt 0.379249 0.598432
vt 0.000000 0.191474
vt 0.290346 0.632668
vt 0.121314 0.457752
vt 0.878261 0.767343
vt 0.307812 0.879300
vt 0.900299 0.104310
vt 0.732301 0.879978
vt 0.308443 0.457752
vt 0.212580 0.005521
vt 0.601109 0.619987
vt 0.207828 0.337806
vt 0.670480 0.450059
vt 0.724537 0.248590
vt 0.375420 0.358033
vt 0.891640 0.224182
vt 0.348873 0.087394
vt 0.880079 0.432852
vt 0.538643 0.472109
vt 0.189849 0.736503
vt 0.878261 0.504673
vt 0.108670 0.879300
vt 0.532756 0.000000
vt 0.797269 0.432852
vt 0.001465 0.861034
vt 0.411741 0.065044
vt 0.000000 0.722626
vt 0.878260 0.579392
vt 0.457970 0.824397
vt 0.099691 0.645541
vt 0.951444 0.672191
s 0
usemtl Material
f 2/5/1 1/1/1 4/14/1
f 16/39/2 15/36/2 3/10/2
f 13/33/3 5/16/3 6/19/3
f 1/3/4 3/10/4 10/26/4
f 1/3/5 10/26/5 4/12/5
f 2/5/6 4/14/6 8/24/6
f 1/2/7 2/6/7 17/42/7
f 13/33/8 14/35/8 16/40/8
f 10/27/9 3/9/9 7/20/9
f 10/27/10 7/20/10 11/29/10
f 2/7/11 8/23/11 5/15/11
f 3/11/12 15/37/12 14/34/12
f 3/11/13 6/18/13 7/21/13
f 11/28/14 7/22/14 9/25/14
f 8/23/15 12/30/15 11/28/15
f 5/15/16 8/23/16 9/25/16
f 6/17/17 5/15/17 9/25/17
f 7/22/18 6/17/18 9/25/18
f 9/25/19 8/23/19 11/28/19
f 1/3/20 16/39/20 3/10/20
f 10/27/21 11/29/21 12/31/21
f 4/13/22 10/27/22 12/31/22
f 14/35/23 15/38/23 16/40/23
f 17/43/24 2/8/24 5/16/24
f 8/24/25 4/14/25 12/32/25
f 17/43/26 13/33/26 16/40/26
f 6/18/27 3/11/27 14/34/27
f 14/35/28 13/33/28 6/19/28
f 13/33/29 17/43/29 5/16/29
f 16/41/30 1/4/30 17/44/30
