# Blender 3.2.0
# www.blender.org
mtllib Rock Flat Large 5.mtl
o Rock Flat Large 5
v 0.673733 0.009571 0.609920
v -0.295511 0.000000 0.781172
v -0.762110 0.004841 -0.032076
v 0.216756 0.399872 0.629681
v 0.527229 0.278095 -0.292987
v -0.314432 0.000000 -0.635900
v -0.367877 0.233124 -0.449462
v 0.016134 0.467173 -0.608322
v 0.299979 0.000000 -0.669312
v -0.642867 0.342179 0.189045
v -0.371089 0.357287 0.592512
v 0.727784 0.000000 -0.361928
v -0.620496 0.000000 0.515172
v 0.081453 0.598053 0.111657
v 0.259561 0.462751 -0.245085
v -0.012850 0.548301 -0.472677
v -0.316419 0.549754 -0.036831
vn -0.0888 0.4503 0.8884
vn -0.5320 0.8458 -0.0399
vn 0.0016 -1.0000 0.0024
vn 0.8151 0.5780 0.0396
vn 0.1706 0.1504 0.9738
vn -0.7697 0.2817 -0.5729
vn 0.5300 0.4183 -0.7376
vn 0.5328 0.7716 -0.3476
vn -0.6108 0.2648 0.7462
vn -0.6823 0.5539 -0.4771
vn -0.5580 0.4365 -0.7058
vn -0.0730 0.9973 0.0118
vn 0.5748 0.5620 -0.5947
vn 0.5637 0.8254 -0.0316
vn -0.0540 0.0969 -0.9938
vn -0.9529 0.1742 0.2481
vn -0.7590 0.4226 0.4954
vn 0.1947 0.9719 0.1323
vn -0.2660 0.8751 0.4043
vn 0.0159 0.9375 -0.3476
vn -0.2621 0.8690 0.4197
vn 0.4974 0.8049 -0.3235
vn 0.6478 0.7525 0.1187
vt 0.479797 0.138201
vt 0.992952 0.474101
vt 0.276044 0.602360
vt 0.479797 0.526802
vt 0.992952 0.088411
vt 0.975708 0.889426
vt 0.111633 0.602360
vt 0.611984 0.518945
vt 0.975708 0.513591
vt 0.845272 0.444810
vt 0.005135 0.765357
vt 0.597278 0.513591
vt 0.000000 0.329770
vt 0.519482 0.798576
vt 0.594155 0.681097
vt 0.000000 0.955945
vt 0.673087 0.940021
vt 0.479797 0.385436
vt 0.008020 0.122797
vt 0.223231 0.955945
vt 0.479797 0.982744
vt 0.829317 0.593041
vt 0.691944 0.000000
vt 0.928629 0.055944
vt 0.828732 0.838562
vt 0.176741 0.000000
vt 0.302476 0.763746
vt 0.295715 0.564581
vt 0.975708 0.701509
vt 0.702450 0.395028
vt 0.603173 0.450864
vt 0.500192 0.382004
vt 0.806423 0.735746
vt 0.644731 0.212965
s 0
usemtl Material.001
f 2/5/1 4/10/1 11/24/1
f 8/17/2 7/15/2 3/8/2
f 2/4/3 13/28/3 3/7/3 6/13/3 9/19/3 12/26/3 1/1/3
f 1/3/4 12/27/4 5/11/4
f 2/5/5 1/2/5 4/10/5
f 6/14/6 3/8/6 7/15/6
f 12/27/7 9/20/7 8/16/7
f 8/18/8 16/32/8 15/31/8
f 13/29/9 2/6/9 11/25/9
f 10/23/10 17/34/10 16/32/10 8/18/10 3/8/10
f 6/14/11 7/15/11 8/17/11
f 10/23/12 11/24/12 4/10/12
f 5/11/13 12/27/13 8/16/13
f 5/12/14 15/31/14 14/30/14
f 9/21/15 6/14/15 8/17/15
f 3/9/16 13/29/16 10/22/16
f 10/22/17 13/29/17 11/25/17
f 15/31/18 16/32/18 17/33/18
f 10/23/19 4/10/19 14/30/19
f 14/30/20 15/31/20 17/33/20
f 17/34/21 10/23/21 14/30/21
f 5/12/22 8/18/22 15/31/22
f 4/10/23 1/3/23 5/12/23 14/30/23
