# Blender 3.2.0
# www.blender.org
mtllib Rock Large 5.mtl
o Rock Large 5
v -0.180700 -0.265480 0.911047
v -0.675472 -0.401102 -0.037506
v -0.180700 -0.401106 -0.829217
v 0.658413 -0.401106 -0.591987
v 0.372076 0.363613 0.813143
v -0.420961 0.368346 0.523279
v -0.566194 0.294782 -0.563232
v 0.202004 -0.596276 0.271505
v 0.360403 -0.240759 0.802532
v 0.712440 -0.365412 0.171018
v 0.521011 -0.582791 -0.346518
v -0.592501 -0.299278 0.530194
v -0.569770 -0.311121 -0.544403
v 0.229268 -0.479624 -0.756838
v 0.717720 0.048197 -0.343528
v -0.145632 0.001478 0.910007
v 0.587091 0.046113 0.771510
v -0.706497 0.046113 0.271506
v -0.591835 0.049215 -0.560166
v 0.587091 0.046113 -0.787584
v 0.095688 0.046113 -0.978568
v -0.167181 0.442131 0.771505
v -0.167181 0.373300 -0.787579
v 0.258144 0.484560 0.462489
v 0.413064 0.428276 0.117853
v -0.267909 0.584087 0.271505
v -0.267909 0.584087 -0.346518
v 0.258144 0.538637 -0.537501
v -0.472114 -0.401104 0.412049
vn -0.1897 -0.9138 0.3591
vn -0.1999 -0.9567 -0.2115
vn 0.1976 -0.0221 0.9800
vn -0.9665 -0.1879 0.1750
vn -0.5999 -0.0716 -0.7969
vn 0.3900 -0.3161 -0.8649
vn 0.9846 0.1312 0.1156
vn -0.9903 0.0256 -0.1364
vn -0.5194 0.0359 -0.8538
vn 0.9589 0.0295 -0.2822
vn 0.5454 0.8310 0.1094
vn -0.5457 0.7708 0.3288
vn -0.6962 0.7178 -0.0000
vn 0.2446 0.5639 -0.7888
vn -0.0847 0.8914 -0.4453
vn -0.4164 0.7797 -0.4677
vn 0.0861 0.9963 -0.0000
vn 0.1669 0.9845 0.0532
vn 0.0895 0.9627 0.2553
vn 0.1159 0.9500 0.2900
vn 0.4349 0.8992 0.0486
vn 0.7538 0.6175 -0.2246
vn 0.2780 0.6410 -0.7154
vn -0.5179 0.0810 -0.8516
vn -0.4958 0.0409 -0.8675
vn -0.9475 0.1027 0.3030
vn -0.7709 0.6285 -0.1039
vn -0.7732 0.6303 0.0701
vn -0.7140 0.1779 0.6771
vn -0.0302 0.2984 0.9540
vn 0.8299 0.5489 0.1000
vn 0.8314 0.5469 0.0984
vn 0.7405 0.6692 -0.0623
vn 0.3469 -0.2883 -0.8925
vn 0.0932 -0.3667 -0.9257
vn -0.9741 -0.0691 -0.2154
vn -0.7390 0.1400 0.6590
vn -0.7190 0.2488 0.6490
vn -0.6802 0.0922 0.7272
vn 0.1859 -0.0029 0.9826
vn 0.1881 -0.0425 0.9812
vn 0.7073 -0.5055 0.4941
vn 0.9933 -0.0947 -0.0659
vn 0.3224 -0.8382 -0.4399
vn -0.2267 -0.9704 -0.0828
vn -0.1952 -0.9798 0.0429
vn -0.3142 -0.8536 0.4155
vn 0.7801 -0.6251 -0.0260
vn 0.4367 -0.8757 0.2063
vn -0.1776 -0.9776 -0.1130
vn 0.1429 -0.8416 0.5208
vn 0.4418 -0.8008 0.4044
vn -0.4927 -0.8412 0.2229
vn -0.2541 -0.9603 0.1149
vt 1.000000 0.157461
vt 0.090910 0.157461
vt 0.670581 -0.036906
vt 0.363637 -0.138750
vt 0.818182 0.157461
vt 0.056693 -0.036906
vt 0.636364 0.157461
vt 0.454546 0.157461
vt 0.181819 0.314921
vt 0.000000 0.314921
vt 0.909091 0.314921
vt 0.727273 0.314921
vt 0.318182 0.078731
vt 0.227273 0.078731
vt 0.181819 0.157461
vt 0.363637 0.157461
vt 0.500000 0.078731
vt 0.409092 0.078731
vt 0.909091 0.157461
vt 0.727273 0.157461
vt 0.670118 0.064467
vt 0.545455 0.157461
vt 0.409092 0.236191
vt 1.029020 0.240155
vt 0.136365 0.236191
vt 0.227273 0.236191
vt 0.863636 0.236191
vt 0.772727 0.236191
vt 0.500000 0.236191
vt 0.590909 0.236191
vt 0.090910 0.314921
vt 0.636364 0.314921
vt 0.136365 0.393651
vt 0.227273 0.393651
vt 0.318182 0.393651
vt 0.045455 0.393651
vt 0.863636 0.393651
vt 0.681818 0.393651
vt 0.772727 0.393651
vt 0.590909 0.393651
vt 0.744634 0.490511
vt 0.090909 0.550375
vt 0.346274 0.490513
vt 0.500000 0.393651
vt 0.914270 0.157461
vt 0.074776 0.065814
s 0
f 8/14/1 1/2/1 29/46/1
f 2/3/2 13/21/2 11/17/2
f 1/2/3 9/15/3 16/25/3
f 2/5/4 12/19/4 18/27/4
f 3/7/5 13/20/5 19/28/5
f 4/8/6 14/22/6 20/29/6
f 10/16/7 15/23/7 17/26/7
f 2/5/8 18/27/8 19/28/8
f 3/7/9 19/28/9 21/30/9
f 4/8/10 20/29/10 15/23/10
f 5/9/11 25/35/11 24/34/11
f 6/10/12 22/31/12 26/36/12
f 7/12/13 26/37/13 27/39/13
f 20/29/14 23/32/14 28/40/14
f 28/40/15 23/32/15 27/38/15
f 23/32/16 7/12/16 27/38/16
f 27/39/17 26/37/17 28/41/17
f 26/36/18 24/33/18 28/42/18
f 26/36/19 22/31/19 24/33/19
f 22/31/20 5/9/20 24/33/20
f 24/34/21 25/35/21 28/43/21
f 15/23/22 20/29/22 28/44/22
f 21/30/23 23/32/23 20/29/23
f 21/30/24 19/28/24 23/32/24
f 19/28/25 7/12/25 23/32/25
f 19/28/26 26/37/26 7/12/26
f 19/28/27 18/27/27 26/37/27
f 18/27/28 6/11/28 26/37/28
f 16/25/29 22/31/29 6/10/29
f 16/25/30 5/9/30 22/31/30
f 17/26/31 25/35/31 5/9/31
f 17/26/32 15/23/32 25/35/32
f 15/23/33 28/44/33 25/35/33
f 20/29/34 14/22/34 21/30/34
f 14/22/35 3/7/35 21/30/35
f 13/20/36 2/5/36 19/28/36
f 18/27/37 16/24/37 6/11/37
f 18/27/38 12/19/38 16/24/38
f 12/19/39 1/1/39 16/24/39
f 16/25/40 17/26/40 5/9/40
f 16/25/41 9/15/41 17/26/41
f 9/15/42 10/16/42 17/26/42
f 10/16/43 4/8/43 15/23/43
f 11/17/44 14/22/44 4/8/44
f 11/17/45 13/21/45 14/22/45
f 13/21/46 3/7/46 14/22/46
f 29/45/47 1/1/47 12/19/47
f 10/16/48 11/18/48 4/8/48
f 10/16/49 8/13/49 11/18/49
f 8/13/50 2/4/50 11/18/50
f 1/2/51 8/14/51 9/15/51
f 8/14/52 10/16/52 9/15/52
f 2/5/53 29/45/53 12/19/53
f 2/6/54 8/14/54 29/46/54
