# Blender 3.2.0
# www.blender.org
mtllib Rock Flat Small 3.mtl
o Rock Flat Small 3
v 0.569134 -0.000000 0.157568
v -0.015961 -0.000000 0.535782
v 0.345647 -0.000000 0.465173
v -0.440552 -0.000000 0.157568
v -0.372001 -0.000000 0.373966
v -0.217065 -0.000000 -0.530248
v -0.440552 -0.000000 -0.222644
v 0.345647 -0.000000 -0.530248
v -0.015961 -0.000000 -0.647742
v 0.431974 0.087043 0.112027
v -0.342651 0.087043 0.110175
v 0.236636 0.087043 0.318751
v -0.008088 0.087043 0.467104
v 0.376705 0.087043 -0.182652
v -0.180869 0.087043 -0.450295
v 0.259284 0.087043 -0.309082
vn -0.3562 0.7081 -0.6097
vn 0.2763 0.9262 -0.2566
vn -0.2511 0.9647 0.0795
vn 0.4023 0.8328 0.3802
vn 0.2239 0.9019 0.3694
vn -0.3301 0.6029 0.7263
vn -0.0000 -1.0000 -0.0000
vn 0.1058 0.9395 -0.3258
vn 0.5574 0.8236 -0.1045
vn -0.4066 0.9060 -0.1174
vn -0.0000 1.0000 -0.0000
vn 0.1053 0.9387 -0.3283
vn 0.7088 0.6668 -0.2303
vn 0.1528 0.6036 0.7825
vn -0.4687 0.7664 0.4393
vn 0.3615 0.8946 0.2627
vn -0.6084 0.6591 -0.4421
vn -0.6645 0.7473 -0.0000
vt 0.500542 0.492611
vt 1.000000 0.116017
vt 0.150177 0.585700
vt 0.650393 0.023485
vt 0.340482 0.608902
vt 0.840287 0.000000
vt 0.000872 0.330257
vt 0.501412 0.279086
vt 0.500542 0.161005
vt 0.000000 0.448371
vt 0.222069 0.025808
vt 0.722130 0.583118
vt 0.062008 0.142099
vt 0.562416 0.467101
vt 0.500542 0.116290
vt 1.000000 0.492238
vt 0.340483 0.000000
vt 0.840288 0.608740
vt 0.936597 0.159648
vt 0.554380 0.285669
vt 0.806969 0.088970
vt 0.662320 0.055133
vt 0.956585 0.314293
vt 0.724195 0.536694
vt 0.918887 0.395777
s 0
f 9/18/1 6/12/1 15/24/1
f 8/16/2 16/25/2 14/23/2
f 4/8/3 5/9/3 13/22/3
f 1/2/4 10/19/4 12/21/4
f 3/6/5 12/21/5 13/22/5
f 5/9/6 2/4/6 13/22/6
f 1/1/7 3/5/7 2/3/7 5/10/7 4/7/7 7/13/7 6/11/7 9/17/7 8/15/7
f 8/16/8 9/18/8 15/24/8
f 10/19/9 1/2/9 14/23/9
f 7/14/10 11/20/10 15/24/10
f 10/19/11 14/23/11 16/25/11 15/24/11 11/20/11 13/22/11 12/21/11
f 16/25/12 8/16/12 15/24/12
f 1/2/13 8/16/13 14/23/13
f 2/4/14 3/6/14 13/22/14
f 11/20/15 4/8/15 13/22/15
f 3/6/16 1/2/16 12/21/16
f 6/12/17 7/14/17 15/24/17
f 7/14/18 4/8/18 11/20/18
