# Blender 3.2.0
# www.blender.org
mtllib Rock Flat Small 2.mtl
o Rock Flat Small 2
v 0.000000 0.000000 -0.500000
v 0.000000 0.116556 -0.484588
v 0.353553 0.000000 -0.353553
v 0.250686 0.088029 -0.331448
v 0.500000 0.000000 0.000000
v 0.353553 0.000000 0.353553
v 0.350249 0.077925 0.380648
v -0.000000 0.000000 0.500000
v -0.003305 0.077925 0.527095
v -0.353553 0.000000 0.353553
v -0.353553 0.124609 0.353553
v -0.500000 0.000000 -0.000000
v -0.353553 0.000000 -0.353553
v 0.217153 0.129347 -0.250473
v 0.345657 0.097589 0.039358
v -0.328339 0.134069 -0.249178
v 0.294575 0.174961 0.035105
v 0.240591 0.188838 0.338534
v 0.059738 0.235141 0.374202
v -0.310787 0.188838 0.338534
v -0.424981 0.147136 0.062845
v -0.025231 0.139755 -0.351466
v 0.059166 0.201651 -0.281242
v -0.140545 0.186666 -0.238315
v -0.288934 0.163879 -0.114588
vn 0.4271 0.3664 -0.8266
vn 0.5986 0.7617 -0.2479
vn 0.9198 -0.0935 0.3810
vn 0.3660 -0.2917 0.8837
vn -0.4175 -0.1272 0.8997
vn -0.9239 -0.0000 0.3827
vn -0.3315 0.7866 -0.5209
vn 0.1970 0.9797 -0.0374
vn -0.3799 0.1213 -0.9171
vn -0.0000 -1.0000 -0.0000
vn 0.1955 0.9525 -0.2334
vn 0.5414 0.8397 0.0411
vn -0.8356 0.4266 -0.3461
vn 0.5212 0.8392 -0.1551
vn -0.1700 0.9852 -0.0224
vn -0.2109 0.6526 0.7278
vn 0.7512 0.6570 0.0635
vn -0.6729 0.7004 -0.2378
vn -0.8692 0.4285 0.2468
vn 0.3051 0.5943 0.7442
vn 0.5894 0.7575 -0.2808
vn -0.1752 0.8335 -0.5241
vn 0.3614 0.4399 -0.8221
vn -0.2599 0.9561 -0.1357
vn -0.1401 0.9882 -0.0612
vn -0.0856 0.9950 -0.0508
vn -0.1978 0.8177 -0.5406
vt 1.000000 0.500000
vt 0.000000 0.500000
vt 0.750000 0.490000
vt 0.000000 1.000000
vt 1.000000 1.000000
vt 0.875000 0.500000
vt 0.919706 0.419706
vt 0.875000 1.000000
vt 0.990000 0.250000
vt 0.750000 0.500000
vt 0.625000 0.500000
vt 0.919706 0.080294
vt 0.625000 1.000000
vt 0.500000 0.500000
vt 0.750000 0.010000
vt 0.500000 1.000000
vt 0.375000 0.500000
vt 0.580294 0.080294
vt 0.375000 1.000000
vt 0.510000 0.250000
vt 0.250000 0.500000
vt 0.580294 0.419706
vt 0.125000 0.500000
vt 0.875000 1.000000
vt 0.750000 1.000000
vt 0.125000 1.000000
vt 0.490000 0.250000
vt 0.750000 1.000000
vt 0.419706 0.080294
vt 0.625000 1.000000
vt 0.500000 1.000000
vt 0.250000 0.010000
vt 0.375000 1.000000
vt 0.080294 0.080294
vt 0.250000 1.000000
vt 0.010000 0.250000
vt 1.000000 1.000000
vt 0.000000 1.000000
vt 0.959309 1.000000
vt 0.305243 0.467117
vt 0.146968 0.447323
vt 0.075890 1.000000
vt 0.163460 1.000000
vt 0.058666 0.367490
s 0
f 1/1/1 2/5/1 4/8/1 3/6/1
f 3/6/2 4/8/2 5/10/2
f 5/10/3 7/13/3 6/11/3
f 6/11/4 7/13/4 9/16/4 8/14/4
f 8/14/5 9/16/5 11/19/5 10/17/5
f 10/17/6 11/19/6 12/21/6
f 2/4/7 13/23/7 16/26/7 22/38/7
f 17/27/8 23/40/8 19/32/8 18/29/8
f 13/23/9 2/4/9 1/2/9
f 1/3/10 3/7/10 5/9/10 6/12/10 8/15/10 10/18/10 12/20/10 13/22/10
f 4/8/11 2/5/11 22/37/11 14/24/11
f 7/13/12 5/10/12 15/25/12
f 13/23/13 12/21/13 16/26/13
f 5/10/14 4/8/14 14/24/14 15/25/14
f 19/32/15 24/41/15 25/44/15
f 11/19/16 9/16/16 19/31/16 20/33/16
f 7/13/17 15/25/17 17/28/17 18/30/17
f 16/26/18 12/21/18 21/35/18 25/43/18
f 12/21/19 11/19/19 20/33/19 21/35/19
f 9/16/20 7/13/20 18/30/20 19/31/20
f 15/25/21 14/24/21 23/39/21 17/28/21
f 22/37/22 24/42/22 23/40/22
f 14/24/23 22/37/23 23/39/23
f 24/41/24 16/26/24 25/43/24
f 19/32/25 25/44/25 21/36/25 20/34/25
f 23/40/26 24/41/26 19/32/26
f 16/26/27 24/42/27 22/38/27
