# Blender 3.2.0
# www.blender.org
mtllib Rock Large 1.mtl
o Rock Large 1
v -0.719158 -0.462923 -0.292315
v -0.395291 -0.415482 0.796577
v -1.009664 -0.119468 -0.091237
v -0.302955 -0.285914 -0.828158
v 0.330787 -0.438472 -0.539822
v 0.123596 0.454266 0.661977
v -0.541127 0.305297 0.525839
v -0.718446 0.438051 -0.476600
v 0.005026 0.613386 0.020519
v 0.382972 -0.150445 -0.699806
v -0.225128 0.127328 -0.837563
v 0.349988 0.441046 -0.448212
v 0.386981 -0.059580 0.846482
v -0.038816 -0.558956 0.578508
v 0.744736 -0.395716 0.383830
v -0.853335 0.384904 -0.073157
v 0.603894 0.057816 0.428274
v 0.750417 -0.162129 0.277934
v 0.608148 -0.062289 -0.104937
v 0.517375 0.289279 -0.128133
vn 0.5529 0.8269 0.1029
vn -0.3004 -0.9448 0.1305
vn -0.6722 -0.7036 0.2306
vn -0.7273 -0.2383 -0.6436
vn -0.0623 -0.9323 -0.3564
vn -0.8127 0.0535 0.5802
vn -0.7288 -0.0886 -0.6789
vn -0.5528 0.0853 -0.8289
vn 0.2255 -0.6029 0.7653
vn -0.2546 0.2945 0.9211
vn -0.8460 0.2452 0.4735
vn 0.1516 0.8421 -0.5176
vn -0.1734 0.8761 -0.4498
vn -0.2699 0.9238 0.2715
vn 0.2281 -0.2684 -0.9359
vn 0.3665 0.3814 -0.8487
vn 0.8972 -0.2055 -0.3909
vn -0.0023 -0.9942 -0.1079
vn 0.7657 0.1566 -0.6238
vn 0.1939 -0.9801 -0.0415
vn 0.9710 -0.0456 0.2346
vn -0.1753 0.2519 0.9517
vn 0.8403 0.2121 0.4989
vn 0.3082 -0.6403 0.7036
vn -0.2611 0.9645 0.0398
vn -0.9175 0.2940 -0.2680
vn 0.7813 0.6102 -0.1312
vn 0.6825 0.5304 0.5029
vn 0.8911 0.0277 -0.4529
vn 0.6783 0.7098 0.1898
vn 0.9679 0.2467 -0.0479
vt 0.967426 0.580736
vt 0.303956 0.457272
vt 0.408732 0.134174
vt 0.691340 0.743120
vt 0.408731 0.467809
vt 0.691340 0.406638
vt 0.888995 0.707005
vt 0.107875 0.524686
vt 0.867729 0.396020
vt 0.739639 0.233868
vt 0.931059 0.269977
vt 0.000000 0.340668
vt 0.364538 0.781500
vt 0.961316 1.000000
vt 0.408732 0.717558
vt 0.000000 0.732239
vt 0.499880 0.597723
vt 0.427511 0.293533
vt 0.691340 0.604848
vt 0.675288 0.191510
vt 0.894769 0.190631
vt 0.306060 0.702360
vt 0.743333 0.404901
vt 0.526299 0.396020
vt 0.739691 0.110936
vt 0.739639 0.330711
vt 0.931059 0.000000
vt 0.364538 0.524686
vt 0.691340 1.000000
vt 0.524918 0.839714
vt 0.220359 0.000000
vt 0.037489 0.564811
vt 0.283512 0.122952
vt 0.911898 0.707005
vt 0.235008 0.524686
vt 0.054171 0.042992
vt 0.537541 0.396020
vt 0.408732 0.167384
vt 0.741637 0.707005
vt 0.156343 0.645356
vt 0.846424 0.737747
vt 0.236485 0.601546
vt 0.831853 0.857206
vt 0.306060 0.683497
vt 0.729835 0.891324
vt 0.262470 0.782167
s 0
usemtl Material
f 6/16/1 20/46/1 12/29/1 9/20/1
f 1/2/2 14/33/2 2/3/2
f 1/2/3 2/3/3 3/5/3
f 1/1/4 3/7/4 4/9/4
f 1/2/5 4/8/5 5/12/5
f 3/6/6 2/4/6 7/17/6
f 4/9/7 3/7/7 8/19/7
f 4/9/8 8/19/8 11/23/8
f 2/3/9 14/33/9 13/31/9
f 2/4/10 6/15/10 7/17/10
f 3/6/11 7/17/11 16/37/11
f 11/24/12 8/18/12 9/20/12
f 12/26/13 11/24/13 9/20/13
f 6/16/14 9/20/14 16/38/14 7/17/14
f 5/11/15 4/10/15 11/25/15 10/21/15
f 10/21/16 11/25/16 12/27/16
f 19/43/17 18/41/17 15/34/17 5/14/17
f 14/33/18 1/2/18 5/12/18
f 20/45/19 19/43/19 5/14/19
f 15/36/20 14/33/20 5/12/20
f 5/13/21 10/22/21 12/28/21
f 6/15/22 2/4/22 13/30/22
f 15/35/23 18/42/23 17/40/23 13/32/23
f 14/33/24 15/36/24 13/31/24
f 8/18/25 16/38/25 9/20/25
f 8/19/26 3/7/26 16/39/26
f 17/40/27 18/42/27 19/44/27
f 6/16/28 13/32/28 17/40/28
f 12/29/29 20/45/29 5/14/29
f 20/46/30 6/16/30 17/40/30
f 20/46/31 17/40/31 19/44/31
