# Blender 3.2.0
# www.blender.org
mtllib Rock Flat Small 5.mtl
o Rock Flat Small 5
v -0.070775 0.000000 -0.615921
v 0.407502 0.000000 -0.270469
v 0.371557 0.097037 -0.155133
v 0.433013 0.000000 0.250000
v 0.250000 0.000000 0.433013
v 0.000005 0.000000 0.499981
v -0.000005 0.143018 0.499979
v -0.250005 0.000000 0.433032
v -0.249995 0.138352 0.433036
v -0.433013 0.000000 0.250000
v -0.500000 0.000000 -0.000000
v -0.480435 0.100178 -0.006637
v -0.320773 0.000111 -0.155154
v -0.310847 0.117043 -0.088402
v -0.172821 0.000000 -0.340846
v -0.148389 0.094252 -0.190760
vn -0.0003 0.9975 -0.0704
vn 0.1375 0.9720 -0.1904
vn 0.0395 0.7706 -0.6361
vn 0.5299 0.8123 0.2435
vn 0.2588 -0.0000 0.9659
vn -0.2587 -0.0000 0.9660
vn -0.7072 -0.0000 0.7071
vn -0.7626 0.5423 0.3526
vn -0.4198 0.4766 -0.7724
vn -0.1121 0.9933 -0.0275
vn -0.7332 0.6232 -0.2720
vn -0.0000 -1.0000 -0.0000
vn 0.1059 0.9930 -0.0529
vn 0.1995 0.9594 0.1995
vn -0.9461 0.2016 0.2535
vn -0.5015 0.7671 -0.4001
vn -0.6526 0.0775 -0.7538
vn 0.9182 0.3936 -0.0450
vt 1.015207 0.530099
vt 0.000000 0.500000
vt 0.750000 0.490000
vt 0.957846 0.370000
vt 0.833333 0.500000
vt 0.750000 1.000000
vt 0.957846 0.130000
vt 0.666667 0.500000
vt 0.870000 0.042154
vt 0.583333 0.500000
vt 0.500000 0.500000
vt 0.750000 0.010000
vt 0.500000 1.000000
vt 0.416667 0.500000
vt 0.630000 0.042154
vt 0.416667 1.000000
vt 0.130000 0.042154
vt 0.542154 0.130000
vt 0.333333 0.500000
vt 0.510000 0.250000
vt 0.250000 0.500000
vt 0.010000 0.250000
vt 0.250000 1.000000
vt 0.542154 0.370000
vt 0.166667 0.500000
vt 0.042154 0.370000
vt 0.630000 0.457846
vt 0.083333 0.500000
vt 1.005557 1.531715
vt 0.130000 0.457846
vt 0.083333 1.000000
s 0
f 3/6/1 16/30/1 9/16/1 7/13/1
f 1/1/2 16/29/2 2/5/2
f 2/5/3 16/29/3 3/6/3
f 3/6/4 7/13/4 5/10/4
f 5/10/5 7/13/5 6/11/5
f 6/11/6 7/13/6 9/16/6 8/14/6
f 8/14/7 9/16/7 10/19/7
f 10/19/8 9/16/8 12/23/8
f 14/26/9 16/30/9 13/25/9 12/23/9
f 14/26/10 12/22/10 9/17/10
f 15/28/11 16/31/11 1/2/11
f 1/3/12 2/4/12 4/7/12 5/9/12 6/12/12 8/15/12 10/18/12 11/20/12 13/24/12 15/27/12
f 16/30/13 14/26/13 9/17/13
f 4/8/14 3/6/14 5/10/14
f 11/21/15 10/19/15 12/23/15
f 15/28/16 13/25/16 16/31/16
f 11/21/17 12/23/17 13/25/17
f 2/5/18 3/6/18 4/8/18
