# Blender 3.2.0
# www.blender.org
mtllib Rock Flat Large 3.mtl
o Rock Flat Large 3
v 0.484616 0.000000 0.525725
v -0.276388 0.000000 0.850649
v -0.276388 0.000000 -0.850649
v -0.484119 0.211455 -0.398352
v 0.262869 0.000000 0.809012
v 0.434948 0.000000 0.000000
v -0.628627 0.000000 0.499997
v -0.583040 0.000000 -0.706530
v 0.151803 0.000000 -0.764299
v 0.000000 0.195485 1.000000
v 0.369927 0.249332 0.876669
v -0.568698 0.195485 0.309013
v -0.528223 0.195485 0.809017
v -0.442673 0.163146 -0.728742
v -0.568698 0.195485 -0.309013
v -0.065215 0.189013 -0.732235
v -0.279823 0.405249 0.759748
v -0.434890 0.252555 -0.155404
v 0.259234 0.387707 0.403246
v 0.206071 0.252770 -0.443344
vn 0.8573 0.5084 -0.0810
vn 0.0581 -0.6566 0.7520
vn -0.9649 0.2602 -0.0365
vn -0.4133 0.2359 -0.8795
vn 0.9119 0.2332 -0.3378
vn -0.3308 -0.2313 0.9149
vn -0.9973 0.0732 -0.0000
vn -0.0465 0.5671 -0.8223
vn 0.9291 0.3518 -0.1144
vn 0.1866 0.9539 0.2352
vn -0.2882 0.9520 -0.1027
vn -0.3923 0.9198 -0.0000
vn -0.5343 0.8438 -0.0503
vn -0.0000 -1.0000 -0.0000
vn -0.2885 0.5291 0.7980
vn 0.0835 0.7968 0.5984
vn 0.4778 0.6490 -0.5920
vn 0.1840 0.3660 -0.9123
vn -0.3620 0.9148 -0.1792
vn -0.7476 0.6063 -0.2712
vn -0.6383 0.7680 0.0517
vn -0.9304 0.3588 0.0753
vn -0.5623 -0.6040 0.5648
vn 0.3419 -0.3800 0.8595
vn 0.7028 -0.4510 0.5501
vn 0.8186 0.5656 -0.1001
vn -0.0690 0.9858 -0.1528
vt 0.272728 0.157461
vt 0.090910 0.157461
vt 1.000000 0.157461
vt 0.636364 0.157461
vt 0.727273 0.314921
vt 0.181819 0.157461
vt 0.363637 0.157461
vt 0.909091 0.157461
vt 0.727273 0.157461
vt 0.545455 0.157461
vt 0.136365 0.236191
vt 0.227273 0.236191
vt 0.863636 0.236191
vt 0.045455 0.236191
vt 0.954545 0.236191
vt 0.681818 0.236191
vt 0.772727 0.236191
vt 0.590909 0.236191
vt 0.090910 0.314921
vt 0.979636 0.343483
vt 0.818182 0.314921
vt 0.227273 0.393651
vt 0.136365 0.393651
vt 0.529221 0.349858
vt 0.400118 0.395784
s 0
f 1/1/1 6/7/1 11/12/1
f 2/2/2 5/6/2 10/11/2
f 8/9/3 7/8/3 12/13/3
f 3/4/4 8/9/4 14/16/4
f 6/7/5 9/10/5 20/24/5
f 2/2/6 10/11/6 13/14/6
f 8/9/7 12/13/7 15/17/7
f 3/4/8 14/16/8 16/18/8
f 19/22/9 11/12/9 20/25/9
f 17/19/10 11/12/10 19/23/10
f 15/17/11 18/21/11 4/5/11
f 15/17/12 12/13/12 18/21/12
f 12/13/13 17/20/13 18/21/13
f 5/6/14 2/3/14 7/8/14 8/9/14 3/4/14 9/10/14 6/7/14 1/1/14
f 13/14/15 10/11/15 17/19/15
f 10/11/16 11/12/16 17/19/16
f 20/24/17 9/10/17 16/18/17
f 9/10/18 3/4/18 16/18/18
f 14/16/19 15/17/19 4/5/19
f 14/16/20 8/9/20 15/17/20
f 12/13/21 13/15/21 17/20/21
f 12/13/22 7/8/22 13/15/22
f 7/8/23 2/3/23 13/15/23
f 10/11/24 5/6/24 11/12/24
f 5/6/25 1/1/25 11/12/25
f 11/12/26 6/7/26 20/25/26
f 18/21/27 17/20/27 19/23/27 20/25/27 16/18/27 14/16/27 4/5/27
